<?xml version="1.0" standalone="no"?>
<!DOCTYPE svg PUBLIC "-//W3C//DTD SVG 1.1//EN" "http://www.w3.org/Graphics/SVG/1.1/DTD/svg11.dtd" >
<svg>
<metadata>
Created by FontForge 20090914 at Sun Dec 21 11:52:09 2014
 By www-data
&#194;&#169; Lauren Thompson, 2009, 2010, 2011, 2012. All rights reserved.
</metadata>
<defs>
<font id="Champagne&Limousines" horiz-adv-x="1800" >
  <font-face 
    font-family="Champagne & Limousines"
    font-weight="400"
    font-stretch="normal"
    units-per-em="2048"
    panose-1="2 11 5 2 2 2 2 2 2 4"
    ascent="1638"
    descent="-410"
    x-height="855"
    cap-height="1414"
    bbox="-400 -393.999 1979 1719"
    underline-thickness="150"
    underline-position="-142"
    unicode-range="U+0020-U+FF9F"
  />
<missing-glyph horiz-adv-x="1088" 
d="M522 616c0 -4 1.83398 -10.1689 5.50098 -18.502s20.5 -16.166 50.5 -23.499c-30 -9.33301 -70 -29.333 -120 -60c-16 -10 -31.667 -15 -47 -15c-34 0 -67 24 -99 72c18.667 9.33301 31.667 16.333 39 21s11 9 11 13v252c0 20 -15.667 34.667 -47 44
c82 39.333 140.667 71.333 176 96c16.667 -2 27 -26.333 31 -73v-3c13.333 5.33301 25.333 11 36 17l163 59c7.33301 -39.333 15.666 -75 24.999 -107c9.33301 -31.333 18.666 -77.333 27.999 -138c1.33301 -11.333 2 -22.666 2 -33.999c0 -50 -17 -101.667 -51 -155
c-42 -65.333 -101.333 -131.666 -178 -198.999c48.667 89.333 73 172.666 73 249.999c0 21.333 -1.66699 42 -5 62c-17.333 94 -31.666 153.333 -42.999 178c-33.333 -24.667 -50 -50 -50 -76v-162zM76.001 1412v-1409h936v1409h-936zM1044 1447v-1480h-1000v1480h1000z" />
    <glyph glyph-name=".notdef" horiz-adv-x="1088" 
d="M522 616c0 -4 1.83398 -10.1689 5.50098 -18.502s20.5 -16.166 50.5 -23.499c-30 -9.33301 -70 -29.333 -120 -60c-16 -10 -31.667 -15 -47 -15c-34 0 -67 24 -99 72c18.667 9.33301 31.667 16.333 39 21s11 9 11 13v252c0 20 -15.667 34.667 -47 44
c82 39.333 140.667 71.333 176 96c16.667 -2 27 -26.333 31 -73v-3c13.333 5.33301 25.333 11 36 17l163 59c7.33301 -39.333 15.666 -75 24.999 -107c9.33301 -31.333 18.666 -77.333 27.999 -138c1.33301 -11.333 2 -22.666 2 -33.999c0 -50 -17 -101.667 -51 -155
c-42 -65.333 -101.333 -131.666 -178 -198.999c48.667 89.333 73 172.666 73 249.999c0 21.333 -1.66699 42 -5 62c-17.333 94 -31.666 153.333 -42.999 178c-33.333 -24.667 -50 -50 -50 -76v-162zM76.001 1412v-1409h936v1409h-936zM1044 1447v-1480h-1000v1480h1000z" />
    <glyph glyph-name="space" unicode=" " horiz-adv-x="508" 
 />
    <glyph glyph-name="space" unicode="&#xa0;" horiz-adv-x="508" 
 />
    <glyph glyph-name="exclam" unicode="!" horiz-adv-x="269" 
d="M190.5 123c15.667 -15.333 23.5 -34 23.5 -56s-7.83301 -40.667 -23.5 -56s-34.167 -23 -55.5 -23c-22 0 -40.833 7.66699 -56.5 23s-23.5 34 -23.5 56s7.83301 40.667 23.5 56s34.5 23 56.5 23c21.333 0 39.833 -7.66699 55.5 -23zM173 1414v-1170h-80v1170h80z" />
    <glyph glyph-name="quotedbl" unicode="&#x22;" horiz-adv-x="397" 
d="M55 881v530h80v-530h-80zM263 881v530h79v-530h-79z" />
    <glyph glyph-name="numbersign" unicode="#" horiz-adv-x="909" 
d="M498 446h-225l-85 -346h-75l85 346h-218l41 80h197l79 320h-200l42 80h177l88 358h75l-88 -358h225l88 358h75l-88 -358h198l-42 -80h-175l-79 -320h178l-41 -80h-157l-85 -346h-75zM293 526h225l79 320h-225z" />
    <glyph glyph-name="dollar" unicode="$" horiz-adv-x="1070" 
d="M579 761l-0.000976562 -589c58.667 8.66699 110.334 35.334 155.001 80.001c55.333 55.333 83 122.666 83 201.999c0 78 -27.667 144.667 -83 200c-43.333 44 -95 79.667 -155 107zM498.999 1254c-36 -6 -67.667 -23 -95 -51c-36 -35.333 -54 -78.333 -54 -129
s17.667 -93.667 53 -129c24.667 -24.667 56.667 -48 96 -70v379zM498.999 792c-60.667 26.667 -110.667 59.668 -150 99.001c-50.667 50 -76 111 -76 183c0 70 25.333 130.333 76 181c42.667 43.333 92.667 68.333 150 75v89h80v-91c52 -9.33301 97.667 -33.333 137 -72
c27.333 -26.667 47 -58.334 59 -95.001l-69 -28c-10 27.333 -25 51 -45 71c-24 23.333 -51.333 39 -82 47v-410c80.667 -31.333 150 -76 208 -134c70.667 -70 106 -154.333 106 -253c0 -100 -35.333 -185 -106 -255c-59.333 -60 -128.666 -94.667 -207.999 -104v-99h-80v98
c-84.667 6.66699 -158.334 41.667 -221.001 105c-56 56 -90 122.333 -102 199l72 27c7.33301 -68 35.333 -125.667 84 -173c47.333 -48 103 -75.333 167 -82v622z" />
    <glyph glyph-name="percent" unicode="%" horiz-adv-x="1070" 
d="M973 1161l-811 -1158l-65 45l811 1158zM414.5 1014c39.667 -40 59.5 -88.333 59.5 -145c0 -56 -19.833 -104 -59.5 -144s-87.834 -60 -144.501 -60s-104.834 20 -144.501 60s-59.5 88 -59.5 144c0 56.667 19.833 105 59.5 145s87.834 60 144.501 60
s104.834 -20 144.501 -60zM270 997c-35.333 0 -65.333 -12.5 -90 -37.5s-37 -55.167 -37 -90.5s12.333 -65.333 37 -90s54.667 -37 90 -37c34.667 0 64.5 12.333 89.5 37s37.5 54.667 37.5 90s-12.5 65.5 -37.5 90.5s-54.833 37.5 -89.5 37.5zM944.5 483.5
c39.667 -39.667 59.5 -87.834 59.5 -144.501s-19.833 -104.834 -59.5 -144.501s-87.834 -59.5 -144.501 -59.5s-104.834 19.833 -144.501 59.5s-59.5 87.834 -59.5 144.501s19.833 104.834 59.5 144.501s87.834 59.5 144.501 59.5s104.834 -19.833 144.501 -59.5zM800 467
c-35.333 0 -65.333 -12.5 -90 -37.5s-37 -55.167 -37 -90.5s12.333 -65.333 37 -90s54.667 -37 90 -37c34.667 0 64.667 12.333 90 37s38 54.667 38 90s-12.667 65.5 -38 90.5s-55.333 37.5 -90 37.5z" />
    <glyph glyph-name="ampersand" unicode="&#x26;" horiz-adv-x="1167" 
d="M815 292c-7.33301 3.33301 -14.668 7 -22.001 11c-28 16 -63.333 46 -106 90c-28 26 -48 42.333 -60 49c-12.667 6.66699 -25.667 10 -39 10c-7.33301 0 -14.666 -0.666992 -21.999 -2c-21.333 -6 -37.333 -18.333 -48 -37c-7.33301 -13.333 -11 -26.333 -11 -39
c0 -7.33301 1 -14.666 3 -21.999c6 -21.333 17.667 -36.666 35 -45.999c11.333 -6 26.666 -9 45.999 -9c10.667 0 22.667 1 36 3l-8 -73c-14.667 -4 -29.334 -6 -44.001 -6c-23.333 0 -46.333 6 -69 18c-35.333 20 -58.666 50.667 -69.999 92c-4 14.667 -6 29 -6 43
c0 26 7 51.333 21 76c22 37.333 53.667 61.666 95 72.999c14.667 4 29 6 43 6c26 0 51 -7 75 -21c23.333 -12.667 54 -39 92 -79c34 -30.667 59 -50.667 75 -60c18 -10 36.333 -15 55 -15c10.667 0 21.334 1.66699 32.001 5c30.667 8 54 26 70 54c10 18 15 36.333 15 55
c0 10 -1.66699 20.333 -5 31c-8 30 -25.667 53 -53 69c-16.667 9.33301 -35.334 14 -56.001 14c-14.667 0 -30.334 -2.33301 -47.001 -7l-1 79c16.667 4.66699 33 7 49 7c31.333 0 62 -8.66699 92 -26c46 -26 76 -64.333 90 -115c4.66699 -18 7 -35.333 7 -52
c0 -32 -8.33301 -62.667 -25 -92c-26 -46 -65 -76.333 -117 -91c-15.333 -4 -30 -6.33301 -44 -7c-19.333 -63.333 -54.333 -120.333 -105 -171c-82 -82.667 -180.667 -124 -296 -124s-214 41 -296 123s-123 181 -123 297c0 115.333 40.333 216 121 302
c55.333 59.333 127.333 104 216 134c-42.667 18 -86.167 50.667 -130.5 98s-66.5 112.666 -66.5 195.999c0 81.333 29.167 151.333 87.5 210s128.833 88 211.5 88s153.334 -29.333 212.001 -88c32.667 -31.333 55 -66.333 67 -105l-71 -28c-10.667 28.667 -28 55 -52 79
c-43.333 42.667 -95.333 64 -156 64s-112.5 -21.333 -155.5 -64s-64.5 -94.667 -64.5 -156c0 -60.667 20.833 -113.167 62.5 -157.5s80.167 -73.166 115.5 -86.499s79.333 -20.333 132 -21v-75l-63 -1c-129.333 -24.667 -226.333 -72.334 -291 -143.001
s-97 -152.667 -97 -246c0 -94 33.167 -174.333 99.5 -241s146.833 -100 241.5 -100c93.333 0 173.333 33.333 240 100c38.667 38.667 66.334 82 83.001 130z" />
    <glyph glyph-name="quotesingle" unicode="'" horiz-adv-x="190" 
d="M55 881v530h80v-530h-80z" />
    <glyph glyph-name="parenleft" unicode="(" horiz-adv-x="552" 
d="M497 1483c-55.333 -33.333 -117.333 -95.998 -186 -187.998c-100 -136 -150 -323 -150 -561v-90c0 -238.667 50 -426 150 -562c68.667 -92 130.667 -154.667 186 -188h-89c-50.667 35.333 -98 78.666 -142 129.999c-140.667 162 -211 383.667 -211 665
c0 280.667 70.333 502 211 664c44 51.333 91.333 94.666 142 129.999h89z" />
    <glyph glyph-name="parenright" unicode=")" horiz-adv-x="552" 
d="M144 1483c50.667 -35.333 98 -78.668 142 -130.001c140.667 -162 211 -383.333 211 -664c0 -281.333 -70.333 -503 -211 -665c-44 -51.333 -91.333 -94.666 -142 -129.999h-89c55.333 33.333 117.333 96 186 188c100 136 150 323.333 150 562v90c0 238 -50 425 -150 561
c-68.667 92 -130.667 154.667 -186 188h89z" />
    <glyph glyph-name="asterisk" unicode="*" horiz-adv-x="730" 
d="M405 1223l204 108l46 -66l-221 -119l221 -119l-46 -66l-204 108v-188h-79v189l-205 -109l-46 66l221 119l-221 119l46 66l205 -109v189h79v-188z" />
    <glyph glyph-name="plus" unicode="+" horiz-adv-x="1070" 
d="M495 633h-410v80h410v410h80v-410h410v-80h-410v-410h-80v410z" />
    <glyph glyph-name="comma" unicode="," horiz-adv-x="336" 
d="M238 147l-164 -341h-74l91 341h147z" />
    <glyph glyph-name="hyphen" unicode="-" horiz-adv-x="596" 
d="M48 563h500v-80h-500v80z" />
    <glyph glyph-name="hyphen" unicode="&#xad;" horiz-adv-x="596" 
d="M48 563h500v-80h-500v80z" />
    <glyph glyph-name="period" unicode="." horiz-adv-x="269" 
d="M190.5 123c15.667 -15.333 23.5 -34 23.5 -56s-7.83301 -40.667 -23.5 -56s-34.167 -23 -55.5 -23c-22 0 -40.833 7.66699 -56.5 23s-23.5 34 -23.5 56s7.83301 40.667 23.5 56s34.5 23 56.5 23c21.333 0 39.833 -7.66699 55.5 -23z" />
    <glyph glyph-name="slash" unicode="/" horiz-adv-x="627" 
d="M588 1414h91l-641 -1414h-90z" />
    <glyph glyph-name="zero" unicode="0" horiz-adv-x="1070" 
d="M936 695c0 200 -39.167 355.667 -117.5 467s-172.833 167 -283.5 167s-205.167 -55.667 -283.5 -167s-117.5 -267 -117.5 -467c0 -200.667 39.167 -356.667 117.5 -468s172.833 -167 283.5 -167s205.167 55.667 283.5 167s117.5 267.333 117.5 468zM1020 695
c0 -223.333 -47.167 -399.166 -141.5 -527.499s-208.5 -192.5 -342.5 -192.5s-248.5 64.167 -343.5 192.5s-142.5 304.166 -142.5 527.499c0 222.667 47.5 398.167 142.5 526.5s209.5 192.5 343.5 192.5s248.167 -64.167 342.5 -192.5s141.5 -303.833 141.5 -526.5z" />
    <glyph glyph-name="one" unicode="1" horiz-adv-x="1070" 
d="M499 80v1176l-147 -96l-62 45l288 209v-1334h307v-80h-700v80h314z" />
    <glyph glyph-name="two" unicode="2" horiz-adv-x="1070" 
d="M170 0c370 564.667 569.333 872.169 598 922.502s43 98.5 43 144.5c0 22.667 -2.66699 45.667 -8 69c-16.667 73.333 -56.334 129.666 -119.001 168.999c-44.667 26.667 -91 40 -139 40c-21.333 0 -42.666 -2.33301 -63.999 -7
c-72 -16.667 -127.667 -56.334 -167 -119.001c-22 -34.667 -35.333 -69 -40 -103l-82 12c4 44.667 20.333 89.334 49 134.001c53.333 83.333 127 135.666 221 156.999c28.667 6.66699 56.667 10 84 10c65.333 0 127 -18.333 185 -55c82.667 -52 134.667 -125 156 -219
c8 -34.667 12 -67.667 12 -99c0 -55.333 -15.833 -111.5 -47.5 -168.5s-206.167 -326.167 -523.5 -807.5h571v-80h-729z" />
    <glyph glyph-name="three" unicode="3" horiz-adv-x="1070" 
d="M485 789l-66.0039 2v79c54.667 0.666992 99.5 7.83398 134.5 21.501s73 42.334 114 86.001s61.5 95.5 61.5 155.5c0 60.667 -21.167 112 -63.5 154s-93.5 63 -153.5 63c-59.333 0 -110.666 -21 -153.999 -63c-23.333 -24 -40.666 -51 -51.999 -81l-76 30
c12.667 41.333 35.334 77.666 68.001 108.999c59.333 58.667 130.666 88 213.999 88c84 0 155.333 -29.5 214 -88.5s88 -129.5 88 -211.5c0 -84 -22.333 -150 -67 -198s-86.667 -80 -126 -96c85.333 -28 156 -72 212 -132c80.667 -86.667 121 -188 121 -304
c0 -116.667 -41.167 -216.167 -123.5 -298.5s-181.833 -123.5 -298.5 -123.5c-116 0 -215.333 41.333 -298 124c-65.333 66 -104.666 143.333 -117.999 232l80 29c8.66699 -78.667 41.334 -146.334 98.001 -203.001c66 -65.333 145.333 -98 238 -98
c94 0 174 32.833 240 98.5s99 145.5 99 239.5c0 93.333 -32.167 175 -96.5 245s-160.833 117 -289.5 141z" />
    <glyph glyph-name="four" unicode="4" horiz-adv-x="1070" 
d="M799 1474v-1031h135v-79h-135v-364h-80v364h-583zM719 1192l-446 -749h446v749z" />
    <glyph glyph-name="five" unicode="5" horiz-adv-x="1070" 
d="M231 975c29.333 9.33301 62.334 18 99.001 26c37.333 6.66699 73.666 10 108.999 10c65.333 0 127.666 -10.333 186.999 -31c132.667 -45.333 231.667 -129 297 -251c40.667 -76 61 -153.667 61 -233c0 -50 -7.66699 -100 -23 -150c-40.667 -132 -122 -231 -244 -297
c-74.667 -39.333 -151.334 -59 -230.001 -59c-50 0 -101 8 -153 24c-106 32.667 -189 90 -249 172l57 62c50 -74 122.333 -125.333 217 -154c42.667 -13.333 84.334 -20 125.001 -20c66 0 130.333 16.667 193 50c102 54 170 136.333 204 247c13.333 42.667 20 84.667 20 126
c0 66 -17 130.333 -51 193c-54 101.333 -136.333 171.333 -247 210c-48 16.667 -100.333 25 -157 25c-75.333 0 -158.666 -14.333 -249.999 -43l-63 55l162 448v29h442v-80h-375z" />
    <glyph glyph-name="six" unicode="6" horiz-adv-x="1070" 
d="M226 373c0 -85.333 30.167 -157.833 90.5 -217.5s133.166 -89.5 218.499 -89.5c84.667 0 157.167 29.833 217.5 89.5s90.5 132.167 90.5 217.5s-30.167 158.166 -90.5 218.499s-132.833 90.5 -217.5 90.5c-85.333 0 -158.166 -30.167 -218.499 -90.5
s-90.5 -133.166 -90.5 -218.499zM297 687c68.667 53.333 148.001 80.001 238.001 80.001c108.667 0 201.167 -38.333 277.5 -115s114.5 -169.667 114.5 -279c0 -108 -38.167 -200.5 -114.5 -277.5s-168.833 -115.5 -277.5 -115.5c-108 0 -200.5 38.5 -277.5 115.5
s-115.5 169.5 -115.5 277.5c6 152 49.5 310.667 130.5 476s192.5 353.666 334.5 564.999h106c-164.667 -240.667 -303.334 -483 -416.001 -727z" />
    <glyph glyph-name="seven" unicode="7" horiz-adv-x="1070" 
d="M764 924c-121.333 -173.333 -220.668 -340.999 -298.001 -502.999c-77.333 -162.667 -119 -303 -125 -421h-83c6 141.333 49.667 294.666 131 459.999c80.667 165.333 174 325.666 280 480.999c105.333 155.333 169.333 286.333 192 393h-743v80h833
c-3.33301 -153.333 -65.666 -316.666 -186.999 -489.999z" />
    <glyph glyph-name="eight" unicode="8" horiz-adv-x="1070" 
d="M536 66c130 6 224.668 40.167 284.001 102.5s89 140.5 89 234.5c0 93.333 -32 175 -96 245c-62.667 68 -155.334 114.333 -278.001 139c-123.333 -24.667 -216.333 -71 -279 -139c-64 -70 -96 -151.667 -96 -245c0 -94 29.667 -172.167 89 -234.5s155 -96.5 287 -102.5z
M535.001 -9c-154 0 -268.832 39.5 -344.499 118.5s-113.5 176.833 -113.5 293.5c0 116 40.333 217.333 121 304c56 60 126.333 104 211 132c-38.667 16 -80.334 48 -125.001 96s-67 114 -67 198c0 82 29.167 151.667 87.5 209s136.5 86.333 234.5 87
c92 -0.666992 167.333 -29.667 226 -87s88 -127 88 -209c0 -84 -22.5 -150 -67.5 -198s-86.833 -80 -125.5 -96c84.667 -28 155 -72 211 -132c80.667 -86.667 121 -188 121 -304c0 -116.667 -37.667 -214.5 -113 -293.5s-190 -118.5 -344 -118.5zM534.002 1349
c-90 -6 -151.333 -28.333 -184 -67s-49 -88.334 -49 -149.001c0 -60 20.5 -111.833 61.5 -155.5s98.5 -77.167 172.5 -100.5c73.333 23.333 130.5 56.833 171.5 100.5s61.5 95.5 61.5 155.5c0 60.667 -16.167 110.334 -48.5 149.001s-93.5 61 -183.5 67h-2z" />
    <glyph glyph-name="nine" unicode="9" horiz-adv-x="1070" 
d="M843 1041c0 85.333 -30.167 157.833 -90.5 217.5s-133.166 89.5 -218.499 89.5c-84.667 0 -157.167 -29.833 -217.5 -89.5s-90.5 -132.167 -90.5 -217.5s30.167 -158.166 90.5 -218.499s132.833 -90.5 217.5 -90.5c85.333 0 158.166 30.167 218.499 90.5
s90.5 133.166 90.5 218.499zM772 727c-68.667 -53.333 -148.001 -80.001 -238.001 -80.001c-108.667 0 -201.167 38.333 -277.5 115s-114.5 169.667 -114.5 279c0 108 38.167 200.5 114.5 277.5s168.833 115.5 277.5 115.5c108 0 200.5 -38.5 277.5 -115.5
s115.5 -174.833 115.5 -293.5c-6 -141.333 -49.5 -294.666 -130.5 -459.999s-192.5 -353.666 -334.5 -564.999h-106c164.667 227.333 303.334 469.666 416.001 726.999z" />
    <glyph glyph-name="colon" unicode=":" horiz-adv-x="269" 
d="M190.5 123c15.667 -15.333 23.5 -34 23.5 -56s-7.83301 -40.667 -23.5 -56s-34.167 -23 -55.5 -23c-22 0 -40.833 7.66699 -56.5 23s-23.5 34 -23.5 56s7.83301 40.667 23.5 56s34.5 23 56.5 23c21.333 0 39.833 -7.66699 55.5 -23zM190.5 740
c15.667 -15.333 23.5 -34 23.5 -56s-7.83301 -40.667 -23.5 -56s-34.167 -23 -55.5 -23c-22 0 -40.833 7.66699 -56.5 23s-23.5 34 -23.5 56s7.83301 40.667 23.5 56s34.5 23 56.5 23c21.333 0 39.833 -7.66699 55.5 -23z" />
    <glyph glyph-name="semicolon" unicode=";" horiz-adv-x="293" 
d="M238 147l-164 -341h-74l91 341h147zM214.5 740c15.667 -15.333 23.5 -34 23.5 -56s-7.83301 -40.667 -23.5 -56s-34.167 -23 -55.5 -23c-22 0 -40.833 7.66699 -56.5 23s-23.5 34 -23.5 56s7.83301 40.667 23.5 56s34.5 23 56.5 23c21.333 0 39.833 -7.66699 55.5 -23z
" />
    <glyph glyph-name="semicolon" unicode="&#x37e;" horiz-adv-x="293" 
d="M238 147l-164 -341h-74l91 341h147zM214.5 740c15.667 -15.333 23.5 -34 23.5 -56s-7.83301 -40.667 -23.5 -56s-34.167 -23 -55.5 -23c-22 0 -40.833 7.66699 -56.5 23s-23.5 34 -23.5 56s7.83301 40.667 23.5 56s34.5 23 56.5 23c21.333 0 39.833 -7.66699 55.5 -23z
" />
    <glyph glyph-name="less" unicode="&#x3c;" horiz-adv-x="1070" 
d="M258 772l723 -334v-92l-892 426l892 426v-92z" />
    <glyph glyph-name="equal" unicode="=" horiz-adv-x="1070" 
d="M85 855h900v-80h-900v80zM89 572h892v-80h-892v80z" />
    <glyph glyph-name="greater" unicode="&#x3e;" horiz-adv-x="1070" 
d="M89 1106v92l892 -426l-892 -426v92l723 334z" />
    <glyph glyph-name="question" unicode="?" horiz-adv-x="752" 
d="M349 67c0 -22 -7.83301 -40.667 -23.5 -56s-34.167 -23 -55.5 -23c-22 0 -40.833 7.66699 -56.5 23s-23.5 34 -23.5 56s7.83301 40.667 23.5 56s34.5 23 56.5 23c21.333 0 39.833 -7.66699 55.5 -23s23.5 -34 23.5 -56zM214 335c-0.666992 9.33301 -1 18.334 -1 27.001
c0 131.333 49.333 257.666 148 378.999c117.333 144.667 184.333 247.667 201 309c6.66699 24 10 47 10 69c0 34.667 -8 66.667 -24 96c-26 48.667 -67.333 83.334 -124 104.001c-26 9.33301 -51.333 14 -76 14c-31.333 0 -62 -7 -92 -21
c-55.333 -26 -93.333 -67.333 -114 -124c-8 -22 -12.333 -53.333 -13 -94l-77 -5c0 55.333 5.33301 96.666 16 123.999c35.333 84.667 92.333 142.667 171 174c39.333 15.333 78.333 23 117 23c39.333 0 78.333 -7.66699 117 -23c77.333 -32 130 -85.333 158 -160
c14 -37.333 21 -74 21 -110c0 -36.667 -7 -72.667 -21 -108c-28 -70.667 -94.667 -171.334 -200 -302.001c-93.333 -116 -140 -226.667 -140 -332c0 -13.333 0.666992 -26.666 2 -39.999h-79z" />
    <glyph glyph-name="at" unicode="@" horiz-adv-x="1547" 
d="M1055 609l8.00098 137c-9.33301 52.667 -32.333 98.667 -69 138c-54.667 58 -122.334 87 -203.001 87c-81.333 0 -152 -28.667 -212 -86s-92.333 -132.666 -97 -225.999c0 -72.667 25 -135.334 75 -188.001c53.333 -57.333 120.666 -86 201.999 -86
c80.667 0 151.334 28.333 212.001 85c41.333 40 69.333 86.333 84 139zM1044 431c-89.333 -89.333 -186.665 -133.999 -291.998 -133.999c-104.667 0 -192.334 37.667 -263.001 113c-66 68.667 -99 150 -99 244c7.33301 120.667 50.166 218.334 128.499 293.001
s170.166 112 275.499 112c104.667 0 197 -44.333 277 -133l6 118h85l-56 -497v-26c0 -83.333 15 -128 45 -134c58.667 4 115 36.667 169 98s85 170.666 93 327.999c0 128.667 -49.333 242.334 -148 341.001c-106 105.333 -258.333 158 -457 158
c-175.333 0 -328.5 -62.333 -459.5 -187s-201.833 -287.667 -212.5 -489c0 -158 54.667 -294.333 164 -409c116.667 -124 262.667 -186 438 -186c120 0 208.333 17 265 51l56 -63c-86 -48.667 -194.667 -73 -326 -73c-198 0 -363.667 70.667 -497 212
c-124 129.333 -186 283.333 -186 462c12 228 92.5 412.667 241.5 554s322.833 212 521.5 212c222.667 0 394.334 -60.667 515.001 -182c112.667 -114.667 169 -243.334 169 -386.001c-8.66699 -174.667 -50 -302.667 -124 -384c-68 -75.333 -144.333 -113 -229 -113
c-68 7.33301 -102 34.666 -102 81.999c0 5.33301 0.666992 11.333 2 18z" />
    <glyph glyph-name="A" unicode="A" horiz-adv-x="1116" 
d="M774 701l-215 593l-216 -593h431zM600 1414l513 -1414h-84l-226 622h-489l-230 -622h-85l519 1414h82z" />
    <glyph glyph-name="B" unicode="B" horiz-adv-x="1033" 
d="M519 80c104.667 0 194 37.168 268 111.501s111 164.166 111 269.499s-37 195.333 -111 270s-163.333 112 -268 112h-327v-763h327zM192 1335v-412.001h360c58 6 101.333 23.333 130 52c40.667 40.667 61 90.334 61 149.001c0 58 -20.5 107.667 -61.5 149
s-90.5 62 -148.5 62h-341zM703 887c52 -22 99.667 -54.999 143 -98.999c90 -90 135 -199 135 -327c0 -127.333 -45 -236 -135 -326c-75.333 -75.333 -167 -120.333 -275 -135h-459v1414h422c80.667 0 149.167 -28.333 205.5 -85s84.5 -125 84.5 -205
s-28.333 -148.333 -85 -205c-12 -12.667 -24 -23.334 -36 -32.001z" />
    <glyph glyph-name="C" unicode="C" horiz-adv-x="1347" 
d="M1224 225l61 -54.001c-138 -125.333 -300.333 -188 -487 -188c-200.667 0 -371.5 70.5 -512.5 211.5s-211.5 311.833 -211.5 512.5c0 199.333 70.5 369.833 211.5 511.5s311.833 212.5 512.5 212.5c186.667 0 349 -63 487 -189l-61 -54
c-121.333 107.333 -263.333 161 -426 161c-177.333 0 -328.833 -62.667 -454.5 -188s-188.5 -276.666 -188.5 -453.999c0 -178 62.833 -329.667 188.5 -455s277.167 -188 454.5 -188c162.667 0 304.667 53.667 426 161z" />
    <glyph glyph-name="D" unicode="D" horiz-adv-x="1189" 
d="M374 1414c232.667 -1.33301 413 -66.333 541 -195c141.333 -142 212 -312.667 212 -512c0 -200.667 -70.667 -371.667 -212 -513c-128 -128 -308.333 -192.667 -541 -194h-262v1414h262zM192 1331v-1249h181c203.333 0 363.666 56.667 480.999 170
c125.333 125.333 188 277 188 455c0 177.333 -62.667 329 -188 455c-117.333 112.667 -277.666 169 -480.999 169h-181z" />
    <glyph glyph-name="E" unicode="E" horiz-adv-x="931" 
d="M819 1414v-80h-627v-587h627v-80h-627v-587h627v-80h-707v1414h707z" />
    <glyph glyph-name="F" unicode="F" horiz-adv-x="783" 
d="M731 1414v-80h-539v-587h539v-80h-539v-667h-80v1414h619z" />
    <glyph glyph-name="G" unicode="G" horiz-adv-x="1359" 
d="M1279 176c-134 -128.667 -294.333 -193.001 -481 -193.001c-200.667 0 -371.5 70.5 -512.5 211.5s-211.5 311.833 -211.5 512.5c0 199.333 70.5 369.833 211.5 511.5s311.833 212.5 512.5 212.5c186.667 0 349 -63 487 -189l-61 -54
c-121.333 107.333 -263.333 161 -426 161c-177.333 0 -328.833 -62.667 -454.5 -188s-188.5 -276.666 -188.5 -453.999c0 -178 62.833 -329.667 188.5 -455s277.167 -188 454.5 -188c152 0 286 46.667 402 140v431h79v-459z" />
    <glyph glyph-name="H" unicode="H" horiz-adv-x="1072" 
d="M174 667v-667h-80v1414h80v-667h724v667h80v-1414h-80v667h-724z" />
    <glyph glyph-name="I" unicode="I" horiz-adv-x="324" 
d="M202 1414v-1414h-80v1414h80z" />
    <glyph glyph-name="J" unicode="J" horiz-adv-x="306" 
d="M192 -27c0 -72 -24.333 -131.333 -73 -178s-108.667 -70 -180 -70v73c48.667 0 90 16.667 124 50c32.667 32.667 49 77.667 49 135v1431h80v-1441z" />
    <glyph glyph-name="K" unicode="K" horiz-adv-x="999" 
d="M762 1414l-367 -531l618 -883h-97l-572 817l-152 -218v-599h-80v1414h80v-677l473 677h97z" />
    <glyph glyph-name="L" unicode="L" horiz-adv-x="783" 
d="M112 0v1414h80v-1334h539v-80h-619z" />
    <glyph glyph-name="M" unicode="M" horiz-adv-x="1442" 
d="M1349 1414v-1414h-80v1328l-547 -717l-548 717v-1328h-80v1414h116l512 -670l511 670h116z" />
    <glyph glyph-name="N" unicode="N" horiz-adv-x="1339" 
d="M210 1414l940 -1317v1317h80v-1414h-123l-918 1286v-1286h-80v1414h101z" />
    <glyph glyph-name="O" unicode="O" horiz-adv-x="1575" 
d="M1300.5 1221.5c141.667 -141.667 212.5 -312.5 212.5 -512.5c0 -200.667 -70.833 -371.834 -212.5 -513.501s-312.834 -212.5 -513.501 -212.5c-200 0 -370.833 70.833 -512.5 212.5s-212.5 312.834 -212.5 513.501c0 200 70.833 370.833 212.5 512.5
s312.5 212.5 512.5 212.5c200.667 0 371.834 -70.833 513.501 -212.5zM787 1353c-177.333 0 -329 -63 -455 -189s-189 -277.667 -189 -455c0 -178 63 -330 189 -456s277.667 -189 455 -189c178 0 330 63 456 189s189 278 189 456c0 177.333 -63 329 -189 455
s-278 189 -456 189z" />
    <glyph glyph-name="P" unicode="P" horiz-adv-x="959" 
d="M192 490v-489.999h-80v1414h371c108 -14.667 199.667 -59.667 275 -135c90 -90.667 135 -199.334 135 -326.001c0 -128 -45 -237.167 -135 -327.5s-198.667 -135.5 -326 -135.5h-240zM192 1333v-762h240c104.667 0 194.334 37.167 269.001 111.5s112 164.5 112 270.5
c0 105.333 -37.333 195 -112 269s-164.334 111 -269.001 111h-240z" />
    <glyph glyph-name="Q" unicode="Q" horiz-adv-x="1575" 
d="M787 1353c-177.333 0 -329 -63 -455 -189s-189 -277.667 -189 -455c0 -178 63 -330 189 -456s277.667 -189 455 -189c178 0 330 63 456 189s189 278 189 456c0 177.333 -63 329 -189 455s-278 189 -456 189zM779 -17c-196.667 2 -364.667 73.001 -504 213.001
c-142 141.333 -213 312.333 -213 513c0 200 70.833 370.833 212.5 512.5s312.5 212.5 512.5 212.5c200.667 0 371.834 -70.833 513.501 -212.5s212.5 -312.5 212.5 -512.5c0 -200.667 -70.667 -371.667 -212 -513c-102.667 -102.667 -220.334 -168 -353.001 -196
c49.333 -13.333 110.333 -43 183 -89c49.333 -26.667 100 -43.667 152 -51c71.333 2 110.333 42 117 120h80c-15.333 -114.667 -74.666 -176 -177.999 -184c-84.667 0 -164 22.333 -238 67c-82.667 43.333 -148 66.666 -196 69.999c-44.667 -3.33301 -78 -15 -100 -35
s-36.833 -43.667 -44.5 -71s-11.834 -44.333 -12.501 -51h-80c18 116.667 67.333 185.667 148 207z" />
    <glyph glyph-name="R" unicode="R" horiz-adv-x="959" 
d="M192 1333v-762h240c104.667 0 194.334 37.167 269.001 111.5s112 164.5 112 270.5c0 105.333 -37.333 195 -112 269s-164.334 111 -269.001 111h-240zM456 490l-263.999 0.000976562v-490h-80v1414h371c108 -14.667 199.667 -59.667 275 -135
c90 -90.667 135 -199.334 135 -326.001c0 -128 -45 -237 -135 -327c-62.667 -62.667 -134.334 -103.667 -215.001 -123l326 -503h-98z" />
    <glyph glyph-name="S" unicode="S" horiz-adv-x="942" 
d="M495 783c-100.667 33.333 -180.163 79.167 -238.496 137.5s-87.5 129.166 -87.5 212.499c0 81.333 29.167 151.333 87.5 210s129.166 88 212.499 88c82 0 152.667 -29.333 212 -88c32 -31.333 54.333 -66.333 67 -105l-72 -28c-10.667 28.667 -28 55 -52 79
c-42.667 42.667 -94.334 64 -155.001 64s-112.5 -21.333 -155.5 -64s-64.5 -94.667 -64.5 -156c0 -60.667 21.333 -112.667 64 -156c40 -39.333 95.333 -75.333 166 -108c113.333 -36.667 208.666 -93.667 285.999 -171c81.333 -81.333 122 -179.666 122 -294.999
c0 -116 -40.833 -215 -122.5 -297s-180.167 -123 -295.5 -123c-116 0 -214.667 41.333 -296 124c-66 65.333 -105.333 141.333 -118 228l75 27c8 -76.667 40.667 -143.334 98 -200.001c66.667 -66.667 147 -100 241 -100s174.333 33.333 241 100s100 147 100 241
c0 93.333 -33.333 173.333 -100 240c-58.667 58.667 -130.334 105.334 -215.001 140.001z" />
    <glyph glyph-name="T" unicode="T" horiz-adv-x="859" 
d="M469 1334v-1334h-79v1334h-358v80h795v-80h-358z" />
    <glyph glyph-name="U" unicode="U" horiz-adv-x="1147" 
d="M955 1414h80.001v-1016c-14.667 -108 -59.667 -199.667 -135 -275c-90 -90 -198.667 -135 -326 -135c-128 0 -237 45 -327 135s-135 198.667 -135 326v965h80v-965c0 -104.667 37.333 -194.334 112 -269.001s164.667 -112 270 -112s195.166 37.333 269.499 112
s111.5 164.334 111.5 269.001v965z" />
    <glyph glyph-name="V" unicode="V" horiz-adv-x="1065" 
d="M981 1414h84l-508 -1414h-49l-508 1414h84l449 -1270z" />
    <glyph glyph-name="W" unicode="W" horiz-adv-x="1602" 
d="M824 1039l352 -910l345 1285h81l-380 -1414h-80l-341 894l-341 -894h-80l-380 1414h81l346 -1285l351 910h46z" />
    <glyph glyph-name="X" unicode="X" horiz-adv-x="1018" 
d="M15 0l448 777l-368 637h91l322 -559l323 559h91l-369 -637l450 -777h-91l-404 698l-403 -698h-90z" />
    <glyph glyph-name="Y" unicode="Y" horiz-adv-x="1116" 
d="M518 572l-486 842h91l435 -754l435 754h91l-486 -842v-572h-80v572z" />
    <glyph glyph-name="Z" unicode="Z" horiz-adv-x="1075" 
d="M854 1334h-670v80h807l-771 -1334h841v-80h-977z" />
    <glyph glyph-name="bracketleft" unicode="[" horiz-adv-x="384" 
d="M135 -40h194v-79h-274v1665h274v-79h-194v-1507z" />
    <glyph glyph-name="backslash" unicode="\" horiz-adv-x="627" 
d="M679 0h-90l-641 1414h91z" />
    <glyph glyph-name="bracketright" unicode="]" horiz-adv-x="384" 
d="M249 1467h-194v79h274v-1665h-274v79h194v1507z" />
    <glyph glyph-name="asciicircum" unicode="^" horiz-adv-x="833" 
d="M463 1414l272 -472h-92l-226 391l-226 -391h-93l273 472h92z" />
    <glyph glyph-name="underscore" unicode="_" horiz-adv-x="794" 
d="M-45 -27h884v-79h-884v79z" />
    <glyph glyph-name="grave" unicode="`" horiz-adv-x="441" 
d="M222 1137l144 -165h-75l-216 165h147z" />
    <glyph glyph-name="a" unicode="a" horiz-adv-x="1122" 
d="M1033 0l-80 0.000976562v177c-15.333 -20.667 -32 -40.334 -50 -59.001c-94.667 -95.333 -209.334 -143 -344.001 -143c-133.333 0 -247.5 47.5 -342.5 142.5s-142.5 209.167 -142.5 342.5c0 134.667 47.5 249.334 142.5 344.001s209.167 142 342.5 142
c134.667 0 249.334 -47.333 344.001 -142c18 -18.667 34.667 -38.334 50 -59.001v123h80v-868zM953 382.001v157.001c-14.667 78 -51.334 146.333 -110.001 205c-78.667 78.667 -173.334 118 -284.001 118s-205.167 -39.333 -283.5 -118s-117.5 -173.334 -117.5 -284.001
s39.167 -205 117.5 -283s172.833 -117 283.5 -117s205.334 39.333 284.001 118c58.667 58.667 95.334 126.667 110.001 204z" />
    <glyph glyph-name="b" unicode="b" horiz-adv-x="1131" 
d="M99 1414l80 0.000976562v-668c14.667 20 31.334 39.333 50.001 58c94.667 94.667 209 142 343 142s248.333 -47.333 343 -142s142 -209.334 142 -344.001c0 -133.333 -47.333 -247.5 -142 -342.5s-209 -142.5 -343 -142.5s-248.333 47.667 -343 143
c-18.667 18.667 -35.334 38 -50.001 58v-176h-80v1414zM179 543.001v-166.002c14.667 -75.333 51 -141.666 109 -198.999c78.667 -78.667 173.334 -118 284.001 -118s205.167 39 283.5 117s117.5 172.333 117.5 283s-39.167 205.334 -117.5 284.001s-172.833 118 -283.5 118
s-205.334 -39.333 -284.001 -118c-58 -58 -94.333 -125 -109 -201z" />
    <glyph glyph-name="c" unicode="c" horiz-adv-x="985" 
d="M849 209l84 -31.001c-15.333 -20.667 -32.666 -40.667 -51.999 -60c-94.667 -95.333 -209.334 -143 -344.001 -143c-133.333 0 -247.5 47.5 -342.5 142.5s-142.5 209.5 -142.5 343.5s47.5 248.333 142.5 343s209.167 142 342.5 142
c134.667 0 249.334 -47.333 344.001 -142c19.333 -19.333 36.666 -39.333 51.999 -60l-84 -31c-8.66699 10.667 -18 21.334 -28 32.001c-78.667 78 -173.334 117 -284.001 117c-110 0 -204.167 -39.167 -282.5 -117.5s-117.5 -172.833 -117.5 -283.5
s39.167 -205.167 117.5 -283.5s172.5 -117.5 282.5 -117.5c110.667 0 205.334 39.333 284.001 118c10 10 19.333 20.333 28 31z" />
    <glyph glyph-name="d" unicode="d" horiz-adv-x="1122" 
d="M1033 0l-80 0.000976562v177c-15.333 -20.667 -32 -40.334 -50 -59.001c-94.667 -95.333 -209.334 -143 -344.001 -143c-133.333 0 -247.5 47.5 -342.5 142.5s-142.5 209.167 -142.5 342.5c0 134.667 47.5 249.334 142.5 344.001s209.167 142 342.5 142
c134.667 0 249.334 -47.333 344.001 -142c18 -18.667 34.667 -38.334 50 -59.001v669h80v-1414zM953 382.001v157.001c-14.667 78 -51.334 146.333 -110.001 205c-78.667 78.667 -173.334 118 -284.001 118s-205.167 -39.333 -283.5 -118s-117.5 -173.334 -117.5 -284.001
s39.167 -205 117.5 -283s172.833 -117 283.5 -117s205.334 39.333 284.001 118c58.667 58.667 95.334 126.667 110.001 204z" />
    <glyph glyph-name="e" unicode="e" horiz-adv-x="1042" 
d="M154 586l762.003 -0.000976562c-18.667 60.667 -50.334 113.334 -95.001 158.001c-78.667 78.667 -173.334 118 -284.001 118s-205.334 -39.333 -284.001 -118c-46.667 -47.333 -79.667 -100 -99 -158zM139.003 504.999c-2 -14 -3.00098 -29.001 -3.00098 -45.001
c0 -110.667 39.167 -205 117.5 -283s172.833 -117 283.5 -117s205.334 39.333 284.001 118c13.333 13.333 26 27.333 38 42l85 -30c-10 -16.667 -31 -40.667 -63 -72c-94.667 -95.333 -209.334 -143 -344.001 -143c-133.333 0 -247.5 47.5 -342.5 142.5
s-142.5 209.167 -142.5 342.5c0 134.667 47.5 249.334 142.5 344.001s209.167 142 342.5 142c134.667 0 249.334 -47.333 344.001 -142c83.333 -84 125 -183.667 125 -299h-867z" />
    <glyph glyph-name="f" unicode="f" horiz-adv-x="383" 
d="M190 788l-0.00195312 -787.999h-80v788h-88v80h88v235c4 65.333 29 121.666 75 168.999c48.667 44.667 104.334 67 167.001 67c33.333 0 68.333 -6.33301 105 -19l-25 -71c-24.667 10.667 -48.667 16 -72 16c-41.333 0 -80.666 -16.667 -117.999 -50
c-32.667 -32.667 -50 -72 -52 -118v-229h177v-80h-177z" />
    <glyph glyph-name="g" unicode="g" horiz-adv-x="1083" 
d="M930 543c-15.333 76 -51.667 143.001 -109 201.001c-78.667 78.667 -173.334 118 -284.001 118s-205.167 -39.333 -283.5 -118s-117.5 -173.334 -117.5 -284.001s39.167 -205.167 117.5 -283.5s172.833 -117.5 283.5 -117.5s205.334 39.333 284.001 118
c56.667 56.667 93 123 109 199v167zM928.999 172.001c-15.333 -18.667 -31.335 -36.666 -48.002 -53.999c-94.667 -95.333 -209.334 -143 -344.001 -143c-133.333 0 -247.5 47.5 -342.5 142.5s-142.5 209.167 -142.5 342.5c0 134.667 47.5 249.167 142.5 343.5
s209.167 141.5 342.5 141.5c134.667 0 249.334 -47 344.001 -141c18 -18.667 34.667 -38.334 50 -59.001v123h80v-674c0 -130.667 -46.333 -242 -139 -334c-94.667 -95.333 -209 -143 -343 -143s-248.667 47.667 -344 143c-19.333 19.333 -36.666 39.333 -51.999 60l84 31
c8.66699 -10.667 18.334 -21 29.001 -31c78 -78.667 172.333 -118 283 -118c110 0 204.333 39.333 283 118c71.333 71.333 110.333 155.333 117 252z" />
    <glyph glyph-name="h" unicode="h" horiz-adv-x="859" 
d="M94 1414l79.999 -0.00195312v-591c66.667 64.667 147.334 97 242.001 97c102 0 185.167 -32.167 249.5 -96.5s97.5 -145.166 99.5 -242.499v-581h-80v573c0 74 -26.667 137 -80 189s-116.333 78 -189 78c-73.333 0 -136.333 -25.667 -189 -77
c-24 -23.333 -41.667 -47.666 -53 -72.999v-690h-80v1414z" />
    <glyph glyph-name="i" unicode="i" horiz-adv-x="317" 
d="M198 868v-868h-79v868h79zM214.5 1152c15.667 -15.333 23.5 -33.666 23.5 -54.999c0 -22.667 -7.83301 -41.667 -23.5 -57s-34.167 -23 -55.5 -23c-22 0 -40.833 7.66699 -56.5 23s-23.5 34.333 -23.5 57c0 21.333 7.83301 39.666 23.5 54.999s34.5 23 56.5 23
c21.333 0 39.833 -7.66699 55.5 -23z" />
    <glyph glyph-name="j" unicode="j" horiz-adv-x="284" 
d="M-11 -122c71.333 8 107 48 107 120v870h79v-868c0 -119.333 -62 -184 -186 -194v72zM191.5 1152c15.667 -15.333 23.5 -33.666 23.5 -54.999c0 -22.667 -7.83301 -41.667 -23.5 -57s-34.167 -23 -55.5 -23c-22 0 -40.833 7.66699 -56.5 23s-23.5 34.333 -23.5 57
c0 21.333 7.83301 39.666 23.5 54.999s34.5 23 56.5 23c21.333 0 39.833 -7.66699 55.5 -23z" />
    <glyph glyph-name="k" unicode="k" horiz-adv-x="635" 
d="M522 868l-214 -265l341 -603h-98l-295 539l-77 -96v-443h-80v1237h80v-667l241 298h102z" />
    <glyph glyph-name="l" unicode="l" horiz-adv-x="300" 
d="M190 1414v-1414h-80v1414h80z" />
    <glyph glyph-name="m" unicode="m" horiz-adv-x="1148" 
d="M99 868h80.002v-21c49.333 48 108.333 72 177 72c71.333 0 132 -25 182 -75c13.333 -13.333 25 -28 35 -44c10.667 15.333 23 30 37 44c50 50 110.667 75 182 75s132 -25 182 -75c47.333 -48.667 72.333 -106.667 75 -174v-670h-80v670h1c-2 46 -19.333 85 -52 117
c-35.333 34.667 -77.333 52 -126 52c-49.333 0 -91.5 -17.333 -126.5 -52s-52.5 -78 -52.5 -130v-657h-79v670h1c-2.66699 46 -20.334 85 -53.001 117c-35.333 34.667 -77.333 52 -126 52s-90.334 -17.333 -125.001 -52c-30.667 -30 -48 -66.667 -52 -110v-677h-80v868z" />
    <glyph glyph-name="n" unicode="n" horiz-adv-x="879" 
d="M179 674v-674h-80v868h80v-56c72 72 156 108 252 108c102.667 0 186.167 -32.167 250.5 -96.5s97.166 -145.166 98.499 -242.499v-581h-79v573c0 74 -26.667 137 -80 189s-116.666 78 -189.999 78c-72.667 0 -135.667 -25.667 -189 -77
c-28.667 -28.667 -49.667 -58.334 -63 -89.001z" />
    <glyph glyph-name="o" unicode="o" horiz-adv-x="1114" 
d="M557 946c134.667 0 249.167 -47.333 343.5 -142s141.5 -209.334 141.5 -344.001c0 -133.333 -47.167 -247.5 -141.5 -342.5s-208.833 -142.5 -343.5 -142.5c-133.333 0 -247.5 47.5 -342.5 142.5s-142.5 209.167 -142.5 342.5c0 134.667 47.5 249.334 142.5 344.001
s209.167 142 342.5 142zM273.5 744c-78.333 -78.667 -117.5 -173.334 -117.5 -284.001s39.167 -205 117.5 -283s172.833 -117 283.5 -117s205.167 39 283.5 117s117.5 172.333 117.5 283s-39.167 205.334 -117.5 284.001s-172.833 118 -283.5 118
s-205.167 -39.333 -283.5 -118z" />
    <glyph glyph-name="p" unicode="p" horiz-adv-x="1110" 
d="M92 868h80v-122c14.667 20 31.334 39.333 50.001 58c94.667 94 209 141 343 141s248.333 -47.167 343 -141.5s142 -208.833 142 -343.5c0 -133.333 -47.333 -247.5 -142 -342.5s-209 -142.5 -343 -142.5s-248.333 47.667 -343 143c-18.667 18.667 -35.334 38 -50.001 58
v-507h-80v1199zM172 543v-166.001c14.667 -76 51 -142.667 109 -200c78.667 -78.667 173.334 -118 284.001 -118s205.167 39.167 283.5 117.5s117.5 172.833 117.5 283.5s-39.167 205.334 -117.5 284.001s-172.833 118 -283.5 118s-205.334 -39.333 -284.001 -118
c-58 -58 -94.333 -125 -109 -201z" />
    <glyph glyph-name="q" unicode="q" horiz-adv-x="1107" 
d="M1019 -331l-80 0.00195312v508c-15.333 -20.667 -32 -40.334 -50 -59.001c-94.667 -95.333 -209.334 -143 -344.001 -143c-133.333 0 -247.5 47.5 -342.5 142.5s-142.5 209.167 -142.5 342.5c0 134.667 47.5 249.167 142.5 343.5s209.167 141.5 342.5 141.5
c134.667 0 249.334 -47 344.001 -141c18 -18.667 34.667 -38.334 50 -59.001v123h80v-1199zM939 382.002v157.001c-14.667 78 -51.334 146.333 -110.001 205c-78.667 78.667 -173.334 118 -284.001 118s-205.167 -39.333 -283.5 -118s-117.5 -173.334 -117.5 -284.001
s39.167 -205.167 117.5 -283.5s172.833 -117.5 283.5 -117.5s205.334 39.333 284.001 118c58.667 58.667 95.334 127 110.001 205z" />
    <glyph glyph-name="r" unicode="r" horiz-adv-x="406" 
d="M406 798c-56.667 -8.66699 -112.332 -44.667 -166.999 -108s-82 -127.333 -82 -192v-498h-80v868h80v-188c33.333 87.333 101.666 152.333 204.999 195z" />
    <glyph glyph-name="s" unicode="s" horiz-adv-x="644" 
d="M324 466c-67.333 36.667 -114.001 67.9951 -140.001 93.9951c-40.667 40.667 -61 89.667 -61 147s20.333 106.5 61 147.5s89.667 61.5 147 61.5s105 -19 143 -57c36.667 -36.667 55 -78.667 55 -126v-4l-69 -28c-6 44.667 -20 78.334 -42 101.001s-51 34 -87 34
c-35.333 0 -65.666 -12.667 -90.999 -38s-38 -55.666 -38 -90.999s12.667 -65.666 38 -90.999c14.667 -15.333 45.667 -38 93 -68c75.333 -40.667 129 -77 161 -109c50 -50.667 75 -111 75 -181c0 -72 -25 -133.167 -75 -183.5s-110.667 -75.5 -182 -75.5
s-132 25.167 -182 75.5s-75 105.5 -75 165.5l79 20c0 -51.333 17.5 -94.5 52.5 -129.5s76.833 -52.5 125.5 -52.5s90.667 17.5 126 52.5s53 77.5 53 127.5c0 48.667 -17.667 90.334 -53 125.001c-18.667 18.667 -56.667 46.334 -114 83.001z" />
    <glyph glyph-name="t" unicode="t" horiz-adv-x="497" 
d="M209 868v369h79v-369h177v-80h-177v-788h-79v788h-177v80h177z" />
    <glyph glyph-name="u" unicode="u" horiz-adv-x="880" 
d="M445 -12c-108.667 0 -195.001 32.001 -259.001 96.001s-97 145 -99 243v542h80v-535c0 -73.333 26.667 -136 80 -188c52.667 -52.667 118.334 -79 197.001 -79c73.333 0 136.5 26.167 189.5 78.5s79.5 115.166 79.5 188.499v535h80v-542c-2 -98 -35 -179 -99 -243
s-147 -96 -249 -96z" />
    <glyph glyph-name="v" unicode="v" horiz-adv-x="814" 
d="M814 868l-388 -868h-42l-384 868h93l312 -723l316 723h93z" />
    <glyph glyph-name="w" unicode="w" horiz-adv-x="1094" 
d="M1094 868l-295 -868h-50l-202 566l-202 -566h-51l-294 868h91l230 -713l204 565h45l204 -565l229 713h91z" />
    <glyph glyph-name="x" unicode="x" horiz-adv-x="662" 
d="M285 459l-255 409h93l208 -335l208 335h93l-255 -409l285 -459h-92l-239 384l-239 -384h-92z" />
    <glyph glyph-name="y" unicode="y" horiz-adv-x="779" 
d="M205 -330h-89l229 491l-330 707h89l285 -606l286 606h89z" />
    <glyph glyph-name="z" unicode="z" horiz-adv-x="743" 
d="M510 776h-448v79h585l-449 -775h483v-80h-619z" />
    <glyph glyph-name="braceleft" unicode="{" horiz-adv-x="516" 
d="M90 724c94 19.333 141 127.666 141 324.999v32c0 294.667 76.667 450.667 230 468v-60c-104 -27.333 -156 -168.666 -156 -423.999v-42c0 -152 -30.667 -253.667 -92 -305c61.333 -51.333 92 -153 92 -305v-42c0 -255.333 52 -396.666 156 -423.999v-60
c-153.333 17.333 -230 173.333 -230 468v32c0 197.333 -47 305.666 -141 324.999v12z" />
    <glyph glyph-name="bar" unicode="|" horiz-adv-x="480" 
d="M280 1414v-1540h-80v1540h80z" />
    <glyph glyph-name="braceright" unicode="}" horiz-adv-x="516" 
d="M426 712c-94 -19.333 -141 -127.666 -141 -324.999v-32c0 -294.667 -76.667 -450.667 -230 -468v60c104 27.333 156 168.666 156 423.999v42c0 152 30.667 253.667 92 305c-61.333 51.333 -92 153 -92 305v42c0 255.333 -52 396.666 -156 423.999v60
c153.333 -17.333 230 -173.333 230 -468v-32c0 -197.333 47 -305.666 141 -324.999v-12z" />
    <glyph glyph-name="asciitilde" unicode="~" horiz-adv-x="1057" 
d="M528 761c110.667 -64.667 191.334 -96.999 242.001 -96.999c8.66699 0 16.334 1 23.001 3c45.333 13.333 77.333 42.666 96 87.999c8.66699 22.667 13 45.667 13 69l80 -13c-2 -28 -8.66699 -56.667 -20 -86c-27.333 -65.333 -73.333 -108.666 -138 -129.999
c-14.667 -4.66699 -31 -7 -49 -7c-62 0 -144 29 -246 87c-112 64 -192.667 96 -242 96c-8 0 -15.667 -0.666992 -23 -2c-45.333 -14 -77 -43.667 -95 -89c-9.33301 -22.667 -14 -45.334 -14 -68.001l-80 13c1.33301 28 7.66602 56.333 18.999 85
c27.333 65.333 73.666 109 138.999 131c14.667 4.66699 31 7 49 7c62 0 144 -29 246 -87z" />
    <glyph glyph-name="exclamdown" unicode="&#xa1;" horiz-adv-x="269" 
d="M72.5 1291c-15.667 15.333 -23.5 34 -23.5 56s7.83301 40.667 23.5 56s34.167 23 55.5 23c22 0 40.833 -7.66699 56.5 -23s23.5 -34 23.5 -56s-7.83301 -40.667 -23.5 -56s-34.5 -23 -56.5 -23c-21.333 0 -39.833 7.66699 -55.5 23zM90 0v1170h80v-1170h-80z" />
    <glyph glyph-name="cent" unicode="&#xa2;" horiz-adv-x="1070" 
d="M575 563c84.667 1.33301 157.334 32.332 218.001 92.999c7.33301 7.33301 15.333 16.333 24 27l77 -28c-15.333 -20.667 -30.666 -39 -45.999 -55c-76 -76 -167 -114.667 -273 -116v-136h-79v142c-77.333 14 -145.333 50.667 -204 110
c-77.333 76.667 -116 169.334 -116 278.001s38.667 201.667 116 279c58.667 58.667 126.667 95 204 109v143h79v-137c106 -0.666992 197 -39 273 -115c15.333 -16 30.666 -34 45.999 -54l-77 -29c-8.66699 10.667 -16.667 20 -24 28c-60.667 60 -133.334 90.667 -218.001 92
v-631zM496 1186c-56 -13.333 -105.667 -41.333 -149 -84c-61.333 -62 -92 -136.667 -92 -224c0 -86.667 30.667 -160.667 92 -222c43.333 -44 93 -72.333 149 -85v615z" />
    <glyph glyph-name="sterling" unicode="&#xa3;" horiz-adv-x="892" 
d="M210 80l611.999 0.000976562v-80h-719v78c116.667 114 175 221.667 175 323c0 30 -2.33301 59.667 -7 89h-201v80h184c-15.333 56 -37.333 111.667 -66 167c-65.333 106 -102.666 218.333 -111.999 337c0 81.333 27 154.666 81 219.999
c67.333 72 151.333 110.333 252 115c7.33301 0.666992 15 1 23 1c90 0 165 -25 225 -75l-32 -72c-46.667 44.667 -109.334 67 -188.001 67h-16c-86 -3.33301 -152.333 -33 -199 -89c-41.333 -50 -62 -105.667 -62 -167c6.66699 -84.667 30 -169 70 -253
c50.667 -81.333 86.334 -165 107.001 -251h175v-80h-160c3.33301 -26.667 5 -54 5 -82c0 -102 -49 -211.333 -147 -328z" />
    <glyph glyph-name="currency" unicode="&#xa4;" horiz-adv-x="1070" 
d="M311 992c64 52 138.667 78 224 78s159.666 -26 222.999 -78l123 123l57 -57l-123 -123c52.667 -63.333 79 -137.666 79 -222.999s-26.333 -160 -79 -224l123 -123l-57 -56l-123 123c-63.333 -52.667 -137.666 -79 -222.999 -79s-160 26.333 -224 79l-122 -123l-57 56
l123 123c-52.667 64 -79 138.667 -79 224s26.333 159.666 79 222.999l-123 123l57 57zM702 935c-48 37.333 -103.667 56 -167 56c-64 0 -119.667 -18.667 -167 -56c-10.667 -7.33301 -20.667 -15.666 -30 -24.999c-10 -10 -19 -20.333 -27 -31
c-36.667 -48 -55 -103.667 -55 -167c0 -64 18.333 -119.667 55 -167c8 -10.667 17 -20.667 27 -30c9.33301 -10 19.333 -19 30 -27c47.333 -36.667 103 -55 167 -55c63.333 0 119 18.333 167 55c10.667 8 21 17 31 27c9.33301 9.33301 17.666 19.333 24.999 30
c37.333 47.333 56 103 56 167c0 63.333 -18.667 119 -56 167c-7.33301 10.667 -15.666 21 -24.999 31c-10 9.33301 -20.333 17.666 -31 24.999z" />
    <glyph glyph-name="yen" unicode="&#xa5;" horiz-adv-x="1070" 
d="M539 667l431 747h91l-432 -747h260v-79h-306l-8 -16v-90h314v-80h-314v-402h-80v402h-313v80h313v90l-9 16h-304v79h258l-431 747h91l430 -747h9z" />
    <glyph glyph-name="brokenbar" unicode="&#xa6;" horiz-adv-x="480" 
d="M280 1414v-662h-80v662h80zM280 531v-662h-80v662h80z" />
    <glyph glyph-name="section" unicode="&#xa7;" horiz-adv-x="1070" 
d="M802 195c6.66699 8 14.333 16.333 23 25c37.333 37.333 56 103.333 56 198c0 93.333 -33.333 173.333 -100 240c-58.667 58 -130.334 104.333 -215.001 139c-100.667 34 -180 80 -238 138c-25.333 25.333 -45.333 53 -60 83c-6 -8 -13.667 -16.333 -23 -25
c-36.667 -37.333 -55 -103 -55 -197s33.333 -174.333 100 -241c58 -58 129.333 -104.333 214 -139c100.667 -34 180.334 -80 239.001 -138c25.333 -25.333 45 -53 59 -83zM244.999 1093c-3.33301 17.333 -4.99609 35.334 -4.99609 54.001
c0 81.333 29.167 149.666 87.5 204.999s129.166 83 212.499 83c82 0 152.667 -25.667 212 -77c32 -31.333 54.333 -66.333 67 -105l-72 -29c-10.667 29.333 -28 56 -52 80c-42.667 42 -94.334 63 -155.001 63s-112.5 -21.333 -155.5 -64s-64.5 -94.667 -64.5 -156
c0 -60.667 21.333 -112.334 64 -155.001c40 -39.333 95.333 -75.666 166 -108.999c113.333 -36.667 208.666 -93.334 285.999 -170.001c81.333 -81.333 122 -179.666 122 -294.999c0 -116.667 -26 -201 -78 -253c-21.333 -21.333 -39.333 -36.333 -54 -45
c2.66699 -17.333 4 -35.333 4 -54c0 -81.333 -29.167 -149.666 -87.5 -204.999s-128.833 -83 -211.5 -83s-153.334 26 -212.001 78c-32.667 30.667 -55 65.667 -67 105l71 28c10.667 -28.667 28 -55.334 52 -80.001c43.333 -42 95.333 -63 156 -63s112.5 21.333 155.5 64
s64.5 94.667 64.5 156c0 60.667 -21.667 112.334 -65 155.001c-40 40 -95.333 76.333 -166 109c-112.667 36.667 -207.667 93.667 -285 171c-82 81.333 -123 179.666 -123 294.999c0 116 26.333 200 79 252c20.667 21.333 38.667 36.333 54 45z" />
    <glyph glyph-name="dieresis" unicode="&#xa8;" horiz-adv-x="574" 
d="M210.5 1112c15.667 -15.333 23.5 -33.666 23.5 -54.999c0 -22.667 -7.83301 -41.667 -23.5 -57s-34.167 -23 -55.5 -23c-22 0 -40.833 7.66699 -56.5 23s-23.5 34.333 -23.5 57c0 21.333 7.83301 39.666 23.5 54.999s34.5 23 56.5 23c21.333 0 39.833 -7.66699 55.5 -23z
M475.5 1112c15.667 -15.333 23.5 -33.666 23.5 -54.999c0 -22.667 -7.83301 -41.667 -23.5 -57s-34.167 -23 -55.5 -23c-22 0 -40.833 7.66699 -56.5 23s-23.5 34.333 -23.5 57c0 21.333 7.83301 39.666 23.5 54.999s34.5 23 56.5 23c21.333 0 39.833 -7.66699 55.5 -23z
" />
    <glyph glyph-name="copyright" unicode="&#xa9;" horiz-adv-x="1217" 
d="M812 412l73 -28.001c-16 -21.333 -29.667 -38 -41 -50c-58.667 -58.667 -129.334 -88 -212.001 -88s-153.334 29.333 -212.001 88s-88 129.334 -88 212.001s29.333 153.167 88 211.5s129.334 87.5 212.001 87.5s153.334 -29 212.001 -87
c11.333 -12.667 25 -29.667 41 -51l-73 -27l-22 25c-44 43.333 -96.667 65 -158 65c-62 0 -115 -21.833 -159 -65.5s-66 -96.5 -66 -158.5s22 -115 66 -159s97 -66 159 -66c61.333 0 114 22 158 66c6 6 13.333 14.333 22 25zM1003.5 939.999
c109 -109.333 163.5 -241 163.5 -395s-54.5 -285.5 -163.5 -394.5s-240.833 -163.5 -395.5 -163.5c-154 0 -285.5 54.5 -394.5 163.5s-163.5 240.5 -163.5 394.5s54.5 285.667 163.5 395s240.5 164 394.5 164c154.667 0 286.5 -54.667 395.5 -164zM608 1028
c-132.667 0 -246.167 -47.167 -340.5 -141.5s-141.5 -208.166 -141.5 -341.499s47.167 -247 141.5 -341s207.833 -141 340.5 -141c133.333 0 247.166 47 341.499 141s141.5 207.667 141.5 341s-47.167 247.166 -141.5 341.499s-208.166 141.5 -341.499 141.5z" />
    <glyph glyph-name="ordfeminine" unicode="&#xaa;" horiz-adv-x="554" 
d="M520 941h-60v86c-7.33301 -10 -15.333 -19.333 -24 -28c-46 -46.667 -101.667 -70 -167 -70c-64.667 0 -120.167 23.167 -166.5 69.5s-69.5 101.833 -69.5 166.5c0 65.333 23.167 121 69.5 167s101.833 69 166.5 69c65.333 0 121 -23 167 -69
c8.66699 -9.33301 16.667 -19 24 -29v60h60v-422zM439 1131v68.001c-6 34 -21.667 63.667 -47 89c-34.667 34 -75.667 51 -123 51c-48 0 -89 -17 -123 -51s-51 -75 -51 -123s17 -88.833 51 -122.5s75 -50.5 123 -50.5c47.333 0 88.333 17 123 51
c25.333 25.333 41 54.666 47 87.999z" />
    <glyph glyph-name="guillemotleft" unicode="&#xab;" horiz-adv-x="816" 
d="M359 425l402 425v-113l-290 -312l290 -311v-114zM55 425l396 425v-113l-291 -312l291 -311v-114z" />
    <glyph glyph-name="logicalnot" unicode="&#xac;" horiz-adv-x="1070" 
d="M939 292h-80v339h-720v80h800v-419z" />
    <glyph glyph-name="registered" unicode="&#xae;" horiz-adv-x="1175" 
d="M526 1043l0.000976562 -192h69c83.333 0 126.666 34.333 129.999 103c0 59.333 -40 89 -120 89h-79zM573.001 781l-47.001 -0.000976562v-195h-87v526h148c140 -1.33301 213.667 -55.333 221 -162c0 -79.333 -53.333 -131.666 -160 -156.999
c78 -129.333 153 -194 225 -194c8.66699 0 17 1 25 3c80 16.667 130 102 150 256c0 127.333 -44.833 236 -134.5 326s-198.167 135 -325.5 135s-236 -45 -326 -135s-135 -198.667 -135 -326s45 -236 135 -326s233.667 -135 431 -135c98 0 196.333 36.667 295 110v-77
c-104 -73.333 -207.667 -110 -311 -110c-208 0 -364.5 52.5 -469.5 157.5s-157.5 231.833 -157.5 380.5s52.5 273.834 157.5 375.501s231.833 152.5 380.5 152.5c148 0 274.5 -50.833 379.5 -152.5s157.5 -226.834 157.5 -375.501c-20 -195.333 -96.667 -301 -230 -317
c-11.333 -2 -22.666 -3 -33.999 -3c-118 0 -214 81 -288 243z" />
    <glyph glyph-name="macron" unicode="&#xaf;" horiz-adv-x="671" 
d="M75 1053h521v-80h-521v80z" />
    <glyph glyph-name="degree" unicode="&#xb0;" horiz-adv-x="382" 
d="M295 1313.5c28.667 -29 43 -63.5 43 -103.5c0 -40.667 -14.333 -75.334 -43 -104.001s-63.334 -43 -104.001 -43s-75.334 14.333 -104.001 43s-43 63.334 -43 104.001c0 40 14.333 74.5 43 103.5s63.334 43.5 104.001 43.5s75.334 -14.5 104.001 -43.5zM191 1292
c-22.667 0 -42 -8 -58 -24s-24 -35.333 -24 -58s8 -42.167 24 -58.5s35.333 -24.5 58 -24.5s42 8.16699 58 24.5s24 35.833 24 58.5s-8 42 -24 58s-35.333 24 -58 24z" />
    <glyph glyph-name="plusminus" unicode="&#xb1;" horiz-adv-x="1070" 
d="M495 230v403h-410v80h410v410h80v-410h410v-80h-410v-403h-80zM85 0v80h900v-80h-900z" />
    <glyph glyph-name="uni00B2" unicode="&#xb2;" horiz-adv-x="750" 
d="M133 589c263.333 307.333 395 506.665 395 597.998c-2.66699 93.333 -50 140.333 -142 141c-61.333 -3.33301 -102 -23.666 -122 -60.999l-77 32c41.333 62.667 108 96 200 100c153.333 -3.33301 230 -72.666 230 -207.999c0 -105.333 -111 -283.333 -333 -534h333v-68
h-484z" />
    <glyph glyph-name="uni00B3" unicode="&#xb3;" horiz-adv-x="750" 
d="M343 1033l-55.001 -0.00195312v67c42 0.666992 72.167 4.33398 90.5 11.001s38.833 21 61.5 43s34 48.333 34 79c0 31.333 -11.167 57 -33.5 77s-48.5 30 -78.5 30s-56 -9.66699 -78 -29c-12.667 -12 -24.334 -30.333 -35.001 -55l-77 28
c10 29.333 25.667 53.666 47 72.999c39.333 35.333 87 53 143 53s103.167 -17.667 141.5 -53s57.5 -76.666 57.5 -123.999c0 -75.333 -43 -131.333 -129 -168c56 -4.66699 101.667 -24.667 137 -60c50.667 -50 76 -107.667 76 -173c0 -66.667 -26.167 -124.167 -78.5 -172.5
s-116.5 -72.5 -192.5 -72.5c-75.333 0 -139.666 24.667 -192.999 74c-41.333 38 -66.666 85 -75.999 141l83 28c6.66699 -53.333 25.667 -94.666 57 -123.999c36 -32 79 -48 129 -48c50.667 0 94.167 16.5 130.5 49.5s54.5 74.5 54.5 124.5c0 48.667 -18 91 -54 127
s-90 60.667 -162 74z" />
    <glyph glyph-name="acute" unicode="&#xb4;" horiz-adv-x="441" 
d="M366 1137l-217 -165h-74l144 165h147z" />
    <glyph glyph-name="mu" unicode="&#xb5;" horiz-adv-x="815" 
d="M659 98c-2.66699 -2.66699 -5.66602 -6 -8.99902 -10c-64.667 -64 -148 -96 -250 -96c-94.667 0 -175.334 32.333 -242.001 97v-420h-80v1199h80v-646c11.333 -25.333 29 -50 53 -74c52.667 -50.667 115.667 -76 189 -76c72.667 0 136 26 190 78c34 34 57 72.333 69 115
v603h78v-868h-78v98z" />
    <glyph glyph-name="paragraph" unicode="&#xb6;" horiz-adv-x="1070" 
d="M752 1336v-1597h-79v752h-135c-127.333 0 -236 45 -326 135s-135 199 -135 327c0 127.333 45 236 135 326c75.333 75.333 167 120.333 275 135h71v1h434v-79h-78v-1597h-80v1597h-82z" />
    <glyph glyph-name="periodcentered" unicode="&#xb7;" horiz-adv-x="245" 
d="M170 754.5c13.333 -13 20 -28.833 20 -47.5s-6.66699 -34.5 -20 -47.5s-29 -19.5 -47 -19.5c-18.667 0 -34.667 6.5 -48 19.5s-20 28.833 -20 47.5s6.66699 34.5 20 47.5s29.333 19.5 48 19.5c18 0 33.667 -6.5 47 -19.5z" />
    <glyph glyph-name="periodcentered" unicode="&#x2219;" horiz-adv-x="245" 
d="M170 754.5c13.333 -13 20 -28.833 20 -47.5s-6.66699 -34.5 -20 -47.5s-29 -19.5 -47 -19.5c-18.667 0 -34.667 6.5 -48 19.5s-20 28.833 -20 47.5s6.66699 34.5 20 47.5s29.333 19.5 48 19.5c18 0 33.667 -6.5 47 -19.5z" />
    <glyph glyph-name="cedilla" unicode="&#xb8;" horiz-adv-x="464" 
d="M258 16l-26.002 -68c61.333 -4.66699 100.666 -25 117.999 -61c9.33301 -19.333 14 -38 14 -56c0 -15.333 -3.66699 -30 -11 -44c-15.333 -30 -43.666 -48.333 -84.999 -55c-15.333 -2.66699 -29.666 -4 -42.999 -4c-22.667 0 -42 3.66699 -58 11
c-26 11.333 -48.333 24.333 -67 39l37 40c22.667 -23.333 47 -35 73 -35c6.66699 0 13.667 1 21 3c31.333 7.33301 47 26.333 47 57v6c-2 28.667 -35 43 -99 43c-11.333 0 -23.666 -0.333008 -36.999 -1l52 125h64z" />
    <glyph glyph-name="uni00B9" unicode="&#xb9;" horiz-adv-x="750" 
d="M335 637v608l-70 -42l-62 41l216 144v-751h184v-68h-456v68h188z" />
    <glyph glyph-name="ordmasculine" unicode="&#xba;" horiz-adv-x="565" 
d="M269 1339c-48 0 -89 -17 -123 -51s-51 -75 -51 -123s17 -88.833 51 -122.5s75 -50.5 123 -50.5h26c48 0 89 16.833 123 50.5s51 74.5 51 122.5s-17 89 -51 123s-75 51 -123 51h-26zM269 929c-64.667 0 -120.167 23.167 -166.5 69.5s-69.5 101.833 -69.5 166.5
c0 65.333 23.167 121 69.5 167s101.833 69 166.5 69h26c64.667 0 120.167 -23 166.5 -69s69.5 -101.667 69.5 -167c0 -64.667 -23.167 -120.167 -69.5 -166.5s-101.833 -69.5 -166.5 -69.5h-26z" />
    <glyph glyph-name="guillemotright" unicode="&#xbb;" horiz-adv-x="816" 
d="M55 0v114l289 311l-289 312v113l402 -425zM365 0v114l290 311l-290 312v113l396 -425z" />
    <glyph glyph-name="onequarter" unicode="&#xbc;" horiz-adv-x="1667" 
d="M335 637v608l-70 -42l-62 41l216 144v-751h184v-68h-456v68h188zM1467 1414l-1015 -1414h-102l1013 1414h104zM1473 880v-612h81v-67h-81v-201h-84v201h-359zM1389 610l-222 -342h222v342z" />
    <glyph glyph-name="onehalf" unicode="&#xbd;" horiz-adv-x="1667" 
d="M335 637v608l-70 -42l-62 41l216 144v-751h184v-68h-456v68h188zM1467 1414l-1015 -1414h-102l1013 1414h104zM1050 0c263.333 307.333 395 506.665 395 597.998c-2.66699 93.333 -50 140.333 -142 141c-61.333 -3.33301 -102 -23.666 -122 -60.999l-77 32
c41.333 62.667 108 96 200 100c153.333 -3.33301 230 -72.666 230 -207.999c0 -105.333 -111 -283.333 -333 -534h333v-68h-484z" />
    <glyph glyph-name="threequarters" unicode="&#xbe;" horiz-adv-x="1667" 
d="M343 1033l-55.001 -0.00195312v67c42 0.666992 72.167 4.33398 90.5 11.001s38.833 21 61.5 43s34 48.333 34 79c0 31.333 -11.167 57 -33.5 77s-48.5 30 -78.5 30s-56 -9.66699 -78 -29c-12.667 -12 -24.334 -30.333 -35.001 -55l-77 28
c10 29.333 25.667 53.666 47 72.999c39.333 35.333 87 53 143 53s103.167 -17.667 141.5 -53s57.5 -76.666 57.5 -123.999c0 -75.333 -43 -131.333 -129 -168c56 -4.66699 101.667 -24.667 137 -60c50.667 -50 76 -107.667 76 -173c0 -66.667 -26.167 -124.167 -78.5 -172.5
s-116.5 -72.5 -192.5 -72.5c-75.333 0 -139.666 24.667 -192.999 74c-41.333 38 -66.666 85 -75.999 141l83 28c6.66699 -53.333 25.667 -94.666 57 -123.999c36 -32 79 -48 129 -48c50.667 0 94.167 16.5 130.5 49.5s54.5 74.5 54.5 124.5c0 48.667 -18 91 -54 127
s-90 60.667 -162 74zM1467 1414l-1015 -1414h-102l1013 1414h104zM1473 879.998v-612h81v-67h-81v-201h-84v201h-359zM1389 609.998l-222 -342h222v342z" />
    <glyph glyph-name="questiondown" unicode="&#xbf;" horiz-adv-x="752" 
d="M353 1331c0 22 7.83301 40.667 23.5 56s34.167 23 55.5 23c22 0 40.833 -7.66699 56.5 -23s23.5 -34 23.5 -56s-7.83301 -40.667 -23.5 -56s-34.5 -23 -56.5 -23c-21.333 0 -39.833 7.66699 -55.5 23s-23.5 34 -23.5 56zM488 1063c0.666992 -9.33301 1 -18.333 1 -27
c0 -131.333 -49.333 -257.666 -148 -378.999c-117.333 -144.667 -184.333 -247.667 -201 -309c-6.66699 -24 -10 -47 -10 -69c0 -34.667 8 -66.667 24 -96c26 -48.667 67.333 -83.334 124 -104.001c26 -9.33301 51.333 -14 76 -14c31.333 0 62 7 92 21
c55.333 26 93.333 67.333 114 124c9.33301 26 14 51.333 14 76c0 6 -0.333008 12 -1 18l77 5c1.33301 -10 2 -20.333 2 -31c0 -30.667 -6 -61.667 -18 -93c-35.333 -84.667 -92.333 -142.667 -171 -174c-39.333 -15.333 -78.333 -23 -117 -23
c-39.333 0 -78.333 7.66699 -117 23c-77.333 32 -130 85.333 -158 160c-14 37.333 -21 74 -21 110c0 36.667 7 72.667 21 108c28 70.667 94.667 171.334 200 302.001c93.333 116 140 226.667 140 332c0 13.333 -0.666992 26.666 -2 39.999h79z" />
    <glyph glyph-name="Agrave" unicode="&#xc0;" horiz-adv-x="1116" 
d="M774 701l-215 593l-216 -593h431zM600 1414l513 -1414h-84l-226 622h-489l-230 -622h-85l519 1414h82zM509 1683l144 -165h-75l-216 165h147z" />
    <glyph glyph-name="Aacute" unicode="&#xc1;" horiz-adv-x="1116" 
d="M774 701l-215 593l-216 -593h431zM600 1414l513 -1414h-84l-226 622h-489l-230 -622h-85l519 1414h82zM750 1683l-217 -165h-74l144 165h147z" />
    <glyph glyph-name="Acircumflex" unicode="&#xc2;" horiz-adv-x="1116" 
d="M774 701l-215 593l-216 -593h431zM600 1414l513 -1414h-84l-226 622h-489l-230 -622h-85l519 1414h82zM789 1519h-92l-145 106l-135 -106h-93l228 187z" />
    <glyph glyph-name="Atilde" unicode="&#xc3;" horiz-adv-x="1116" 
d="M774 701l-215 593l-216 -593h431zM600 1414l513 -1414h-84l-226 622h-489l-230 -622h-85l519 1414h82zM566 1633c39.333 -28.667 66.665 -43.001 81.998 -43.001h4c12 4.66699 20.667 15.334 26 32.001c2.66699 9.33301 4 25.666 4 48.999l66 -13
c-1.33301 -24.667 -4.66602 -45 -9.99902 -61c-12 -36.667 -32.667 -61.334 -62 -74.001c-8 -2.66699 -16.333 -4 -25 -4c-27.333 0 -62.333 15 -105 45c-39.333 29.333 -66.666 44 -81.999 44c-2 0 -3.33301 -0.333008 -4 -1c-11.333 -4 -19.666 -14.667 -24.999 -32
c-3.33301 -9.33301 -5 -25.666 -5 -48.999l-65 14c0.666992 24.667 3.66699 44.667 9 60c12 36.667 33 61.334 63 74.001c7.33301 3.33301 15.666 5 24.999 5c27.333 0 62 -15.333 104 -46z" />
    <glyph glyph-name="Adieresis" unicode="&#xc4;" horiz-adv-x="1116" 
d="M774 701l-215 593l-216 -593h431zM600 1414l513 -1414h-84l-226 622h-489l-230 -622h-85l519 1414h82zM479.5 1658c15.667 -15.333 23.5 -33.666 23.5 -54.999c0 -22.667 -7.83301 -41.667 -23.5 -57s-34.167 -23 -55.5 -23c-22 0 -40.833 7.66699 -56.5 23
s-23.5 34.333 -23.5 57c0 21.333 7.83301 39.666 23.5 54.999s34.5 23 56.5 23c21.333 0 39.833 -7.66699 55.5 -23zM744.5 1658c15.667 -15.333 23.5 -33.666 23.5 -54.999c0 -22.667 -7.83301 -41.667 -23.5 -57s-34.167 -23 -55.5 -23c-22 0 -40.833 7.66699 -56.5 23
s-23.5 34.333 -23.5 57c0 21.333 7.83301 39.666 23.5 54.999s34.5 23 56.5 23c21.333 0 39.833 -7.66699 55.5 -23z" />
    <glyph glyph-name="Aring" unicode="&#xc5;" horiz-adv-x="1116" 
d="M774 701l-215 593l-216 -593h431zM556 1573c-14 0 -26 -5 -36 -15s-15 -22.333 -15 -37c0 -14 5 -26.167 15 -36.5s22 -15.5 36 -15.5s26 5.16699 36 15.5s15 22.5 15 36.5c0 14.667 -5 27 -15 37s-22 15 -36 15zM600 1414l513 -1414h-84l-226 622h-489l-230 -622h-85
l519 1414c-13.333 3.33301 -27.333 12.333 -42 27c-22 22 -33 48.667 -33 80s11 58 33 80s48.667 33 80 33s58 -11 80 -33s33 -48.667 33 -80s-11 -58 -33 -80c-14.667 -14.667 -26.667 -23.667 -36 -27z" />
    <glyph glyph-name="AE" unicode="&#xc6;" horiz-adv-x="1443" 
d="M1331 747v-80h-627v-587h627v-80h-706v542h-300l-241 -542h-85l615 1414h717v-80h-627v-587h627zM625 621v629l-271 -629h271z" />
    <glyph glyph-name="Ccedilla" unicode="&#xc7;" horiz-adv-x="1347" 
d="M729 -14c-171.333 14.667 -319.002 84.3311 -443.002 208.998c-141.333 140.667 -212 311.334 -212 512.001c0 199.333 70.5 369.833 211.5 511.5s311.833 212.5 512.5 212.5c186.667 0 349 -63 487 -189l-61 -54c-121.333 107.333 -263.333 161 -426 161
c-177.333 0 -328.833 -62.667 -454.5 -188s-188.5 -276.666 -188.5 -453.999c0 -178 62.833 -329.667 188.5 -455s277.167 -188 454.5 -188c162.667 0 304.667 53.667 426 161l61 -54c-138 -125.333 -300.333 -188 -487 -188h-5l-13 -35
c61.333 -4.66699 100.666 -25 117.999 -61c9.33301 -19.333 14 -38 14 -56c0 -15.333 -3.66699 -30 -11 -44c-15.333 -30 -43.666 -48.333 -84.999 -55c-15.333 -2.66699 -29.666 -4 -42.999 -4c-22.667 0 -42 3.66699 -58 11c-26 11.333 -48.333 24.333 -67 39l37 40
c22.667 -23.333 47 -35 73 -35c6.66699 0 13.667 1 21 3c31.333 7.33301 47 26.333 47 57v6c-2 28.667 -35 43 -99 43c-11.333 0 -23.666 -0.333008 -36.999 -1z" />
    <glyph glyph-name="Egrave" unicode="&#xc8;" horiz-adv-x="931" 
d="M819 1414v-80h-627v-587h627v-80h-627v-587h627v-80h-707v1414h707zM419 1683l144 -165h-75l-216 165h147z" />
    <glyph glyph-name="Eacute" unicode="&#xc9;" horiz-adv-x="931" 
d="M819 1414v-80h-627v-587h627v-80h-627v-587h627v-80h-707v1414h707zM660 1683l-217 -165h-74l144 165h147z" />
    <glyph glyph-name="Ecircumflex" unicode="&#xca;" horiz-adv-x="931" 
d="M819 1414v-80h-627v-587h627v-80h-627v-587h627v-80h-707v1414h707zM698 1519h-92l-145 106l-135 -106h-93l228 187z" />
    <glyph glyph-name="Edieresis" unicode="&#xcb;" horiz-adv-x="931" 
d="M819 1414v-80h-627v-587h627v-80h-627v-587h627v-80h-707v1414h707zM389.5 1658c15.667 -15.333 23.5 -33.666 23.5 -54.999c0 -22.667 -7.83301 -41.667 -23.5 -57s-34.167 -23 -55.5 -23c-22 0 -40.833 7.66699 -56.5 23s-23.5 34.333 -23.5 57
c0 21.333 7.83301 39.666 23.5 54.999s34.5 23 56.5 23c21.333 0 39.833 -7.66699 55.5 -23zM654.5 1658c15.667 -15.333 23.5 -33.666 23.5 -54.999c0 -22.667 -7.83301 -41.667 -23.5 -57s-34.167 -23 -55.5 -23c-22 0 -40.833 7.66699 -56.5 23s-23.5 34.333 -23.5 57
c0 21.333 7.83301 39.666 23.5 54.999s34.5 23 56.5 23c21.333 0 39.833 -7.66699 55.5 -23z" />
    <glyph glyph-name="Igrave" unicode="&#xcc;" horiz-adv-x="324" 
d="M202 1414v-1414h-80v1414h80zM115 1683l144 -165h-75l-216 165h147z" />
    <glyph glyph-name="Iacute" unicode="&#xcd;" horiz-adv-x="324" 
d="M202 1414v-1414h-80v1414h80zM356 1683l-217 -165h-74l144 165h147z" />
    <glyph glyph-name="Icircumflex" unicode="&#xce;" horiz-adv-x="324" 
d="M183 1414v-1414h-80v1414h80zM375 1519h-92l-145 106l-135 -106h-93l228 187z" />
    <glyph glyph-name="Idieresis" unicode="&#xcf;" horiz-adv-x="324" 
d="M202 1414v-1414h-80v1414h80zM85.5 1658c15.667 -15.333 23.5 -33.666 23.5 -54.999c0 -22.667 -7.83301 -41.667 -23.5 -57s-34.167 -23 -55.5 -23c-22 0 -40.833 7.66699 -56.5 23s-23.5 34.333 -23.5 57c0 21.333 7.83301 39.666 23.5 54.999s34.5 23 56.5 23
c21.333 0 39.833 -7.66699 55.5 -23zM350.5 1658c15.667 -15.333 23.5 -33.666 23.5 -54.999c0 -22.667 -7.83301 -41.667 -23.5 -57s-34.167 -23 -55.5 -23c-22 0 -40.833 7.66699 -56.5 23s-23.5 34.333 -23.5 57c0 21.333 7.83301 39.666 23.5 54.999s34.5 23 56.5 23
c21.333 0 39.833 -7.66699 55.5 -23z" />
    <glyph glyph-name="Eth" unicode="&#xd0;" horiz-adv-x="1240" 
d="M228 667v-585h181c203.333 0 363.666 56.667 480.999 170c125.333 125.333 188 277 188 455c0 177.333 -62.667 329 -188 455c-117.333 112.667 -277.666 169 -480.999 169h-181v-584h492v-80h-492zM148 747v667h262c232.667 -1.33301 413 -66.333 541 -195
c141.333 -142 212 -312.667 212 -512c0 -200.667 -70.667 -371.667 -212 -513c-128 -128 -308.333 -192.667 -541 -194h-262v667h-128v80h128z" />
    <glyph glyph-name="Ntilde" unicode="&#xd1;" horiz-adv-x="1339" 
d="M210 1414l940 -1317v1317h80v-1414h-123l-918 1286v-1286h-80v1414h101zM679 1633c39.333 -28.667 66.665 -43.001 81.998 -43.001h4c12 4.66699 20.667 15.334 26 32.001c2.66699 9.33301 4 25.666 4 48.999l66 -13c-1.33301 -24.667 -4.66602 -45 -9.99902 -61
c-12 -36.667 -32.667 -61.334 -62 -74.001c-8 -2.66699 -16.333 -4 -25 -4c-27.333 0 -62.333 15 -105 45c-39.333 29.333 -66.666 44 -81.999 44c-2 0 -3.33301 -0.333008 -4 -1c-11.333 -4 -19.666 -14.667 -24.999 -32c-3.33301 -9.33301 -5 -25.666 -5 -48.999l-65 14
c0.666992 24.667 3.66699 44.667 9 60c12 36.667 33 61.334 63 74.001c7.33301 3.33301 15.666 5 24.999 5c27.333 0 62 -15.333 104 -46z" />
    <glyph glyph-name="Ograve" unicode="&#xd2;" horiz-adv-x="1575" 
d="M1300.5 1221.5c141.667 -141.667 212.5 -312.5 212.5 -512.5c0 -200.667 -70.833 -371.834 -212.5 -513.501s-312.834 -212.5 -513.501 -212.5c-200 0 -370.833 70.833 -512.5 212.5s-212.5 312.834 -212.5 513.501c0 200 70.833 370.833 212.5 512.5
s312.5 212.5 512.5 212.5c200.667 0 371.834 -70.833 513.501 -212.5zM787 1353c-177.333 0 -329 -63 -455 -189s-189 -277.667 -189 -455c0 -178 63 -330 189 -456s277.667 -189 455 -189c178 0 330 63 456 189s189 278 189 456c0 177.333 -63 329 -189 455
s-278 189 -456 189zM741 1683l144 -165h-75l-216 165h147z" />
    <glyph glyph-name="Oacute" unicode="&#xd3;" horiz-adv-x="1575" 
d="M1300.5 1221.5c141.667 -141.667 212.5 -312.5 212.5 -512.5c0 -200.667 -70.833 -371.834 -212.5 -513.501s-312.834 -212.5 -513.501 -212.5c-200 0 -370.833 70.833 -512.5 212.5s-212.5 312.834 -212.5 513.501c0 200 70.833 370.833 212.5 512.5
s312.5 212.5 512.5 212.5c200.667 0 371.834 -70.833 513.501 -212.5zM787 1353c-177.333 0 -329 -63 -455 -189s-189 -277.667 -189 -455c0 -178 63 -330 189 -456s277.667 -189 455 -189c178 0 330 63 456 189s189 278 189 456c0 177.333 -63 329 -189 455
s-278 189 -456 189zM982 1683l-217 -165h-74l144 165h147z" />
    <glyph glyph-name="Ocircumflex" unicode="&#xd4;" horiz-adv-x="1575" 
d="M1300.5 1221.5c141.667 -141.667 212.5 -312.5 212.5 -512.5c0 -200.667 -70.833 -371.834 -212.5 -513.501s-312.834 -212.5 -513.501 -212.5c-200 0 -370.833 70.833 -512.5 212.5s-212.5 312.834 -212.5 513.501c0 200 70.833 370.833 212.5 512.5
s312.5 212.5 512.5 212.5c200.667 0 371.834 -70.833 513.501 -212.5zM787 1353c-177.333 0 -329 -63 -455 -189s-189 -277.667 -189 -455c0 -178 63 -330 189 -456s277.667 -189 455 -189c178 0 330 63 456 189s189 278 189 456c0 177.333 -63 329 -189 455
s-278 189 -456 189zM1020 1519h-92l-145 106l-135 -106h-93l228 187z" />
    <glyph glyph-name="Otilde" unicode="&#xd5;" horiz-adv-x="1575" 
d="M1300.5 1221.5c141.667 -141.667 212.5 -312.5 212.5 -512.5c0 -200.667 -70.833 -371.834 -212.5 -513.501s-312.834 -212.5 -513.501 -212.5c-200 0 -370.833 70.833 -512.5 212.5s-212.5 312.834 -212.5 513.501c0 200 70.833 370.833 212.5 512.5
s312.5 212.5 512.5 212.5c200.667 0 371.834 -70.833 513.501 -212.5zM787 1353c-177.333 0 -329 -63 -455 -189s-189 -277.667 -189 -455c0 -178 63 -330 189 -456s277.667 -189 455 -189c178 0 330 63 456 189s189 278 189 456c0 177.333 -63 329 -189 455
s-278 189 -456 189zM797 1633c39.333 -28.667 66.665 -43.001 81.998 -43.001h4c12 4.66699 20.667 15.334 26 32.001c2.66699 9.33301 4 25.666 4 48.999l66 -13c-1.33301 -24.667 -4.66602 -45 -9.99902 -61c-12 -36.667 -32.667 -61.334 -62 -74.001
c-8 -2.66699 -16.333 -4 -25 -4c-27.333 0 -62.333 15 -105 45c-39.333 29.333 -66.666 44 -81.999 44c-2 0 -3.33301 -0.333008 -4 -1c-11.333 -4 -19.666 -14.667 -24.999 -32c-3.33301 -9.33301 -5 -25.666 -5 -48.999l-65 14c0.666992 24.667 3.66699 44.667 9 60
c12 36.667 33 61.334 63 74.001c7.33301 3.33301 15.666 5 24.999 5c27.333 0 62 -15.333 104 -46z" />
    <glyph glyph-name="Odieresis" unicode="&#xd6;" horiz-adv-x="1575" 
d="M1300.5 1221.5c141.667 -141.667 212.5 -312.5 212.5 -512.5c0 -200.667 -70.833 -371.834 -212.5 -513.501s-312.834 -212.5 -513.501 -212.5c-200 0 -370.833 70.833 -512.5 212.5s-212.5 312.834 -212.5 513.501c0 200 70.833 370.833 212.5 512.5
s312.5 212.5 512.5 212.5c200.667 0 371.834 -70.833 513.501 -212.5zM787 1353c-177.333 0 -329 -63 -455 -189s-189 -277.667 -189 -455c0 -178 63 -330 189 -456s277.667 -189 455 -189c178 0 330 63 456 189s189 278 189 456c0 177.333 -63 329 -189 455
s-278 189 -456 189zM711.5 1658c15.667 -15.333 23.5 -33.666 23.5 -54.999c0 -22.667 -7.83301 -41.667 -23.5 -57s-34.167 -23 -55.5 -23c-22 0 -40.833 7.66699 -56.5 23s-23.5 34.333 -23.5 57c0 21.333 7.83301 39.666 23.5 54.999s34.5 23 56.5 23
c21.333 0 39.833 -7.66699 55.5 -23zM976.5 1658c15.667 -15.333 23.5 -33.666 23.5 -54.999c0 -22.667 -7.83301 -41.667 -23.5 -57s-34.167 -23 -55.5 -23c-22 0 -40.833 7.66699 -56.5 23s-23.5 34.333 -23.5 57c0 21.333 7.83301 39.666 23.5 54.999s34.5 23 56.5 23
c21.333 0 39.833 -7.66699 55.5 -23z" />
    <glyph glyph-name="multiply" unicode="&#xd7;" horiz-adv-x="1070" 
d="M534 616l-289 -289l-57 56l290 290l-290 290l57 56l289 -289l290 289l57 -56l-290 -290l290 -290l-57 -56z" />
    <glyph glyph-name="Oslash" unicode="&#xd8;" horiz-adv-x="1647" 
d="M1059 1310c-72 28.667 -150.667 43 -236 43c-177.333 0 -329 -63 -455 -189s-189 -277.667 -189 -455c0 -178 63 -330 189 -456c45.333 -45.333 94.333 -83 147 -113zM587 107c72.667 -28.667 151.333 -43 236 -43c178 0 330 63 456 189s189 278 189 456
c0 177.333 -63 329.333 -189 456c-46 45.333 -95 82.333 -147 111zM1166 1350c60.667 -32.667 117.67 -75.332 171.003 -127.999c141.333 -142 212 -313 212 -513c0 -200.667 -70.833 -371.834 -212.5 -513.501s-312.834 -212.5 -513.501 -212.5
c-96.667 0 -186.667 17 -270 51l-76 -163l-72 34l76 162c-60.667 33.333 -117.334 76.333 -170.001 129c-142 141.333 -213 312.333 -213 513c0 200 70.833 370.833 212.5 512.5s312.5 212.5 512.5 212.5c97.333 0 187.666 -16.667 270.999 -50l76 162l72 -33z" />
    <glyph glyph-name="Ugrave" unicode="&#xd9;" horiz-adv-x="1147" 
d="M955 1414h80.001v-1016c-14.667 -108 -59.667 -199.667 -135 -275c-90 -90 -198.667 -135 -326 -135c-128 0 -237 45 -327 135s-135 198.667 -135 326v965h80v-965c0 -104.667 37.333 -194.334 112 -269.001s164.667 -112 270 -112s195.166 37.333 269.499 112
s111.5 164.334 111.5 269.001v965zM527.001 1683l144 -165h-75l-216 165h147z" />
    <glyph glyph-name="Uacute" unicode="&#xda;" horiz-adv-x="1147" 
d="M955 1414h80.001v-1016c-14.667 -108 -59.667 -199.667 -135 -275c-90 -90 -198.667 -135 -326 -135c-128 0 -237 45 -327 135s-135 198.667 -135 326v965h80v-965c0 -104.667 37.333 -194.334 112 -269.001s164.667 -112 270 -112s195.166 37.333 269.499 112
s111.5 164.334 111.5 269.001v965zM768.001 1683l-217 -165h-74l144 165h147z" />
    <glyph glyph-name="Ucircumflex" unicode="&#xdb;" horiz-adv-x="1147" 
d="M955 1414h80.001v-1016c-14.667 -108 -59.667 -199.667 -135 -275c-90 -90 -198.667 -135 -326 -135c-128 0 -237 45 -327 135s-135 198.667 -135 326v965h80v-965c0 -104.667 37.333 -194.334 112 -269.001s164.667 -112 270 -112s195.166 37.333 269.499 112
s111.5 164.334 111.5 269.001v965zM806.001 1519h-92l-145 106l-135 -106h-93l228 187z" />
    <glyph glyph-name="Udieresis" unicode="&#xdc;" horiz-adv-x="1147" 
d="M955 1414h80.001v-1016c-14.667 -108 -59.667 -199.667 -135 -275c-90 -90 -198.667 -135 -326 -135c-128 0 -237 45 -327 135s-135 198.667 -135 326v965h80v-965c0 -104.667 37.333 -194.334 112 -269.001s164.667 -112 270 -112s195.166 37.333 269.499 112
s111.5 164.334 111.5 269.001v965zM497.501 1658c15.667 -15.333 23.5 -33.666 23.5 -54.999c0 -22.667 -7.83301 -41.667 -23.5 -57s-34.167 -23 -55.5 -23c-22 0 -40.833 7.66699 -56.5 23s-23.5 34.333 -23.5 57c0 21.333 7.83301 39.666 23.5 54.999s34.5 23 56.5 23
c21.333 0 39.833 -7.66699 55.5 -23zM762.501 1658c15.667 -15.333 23.5 -33.666 23.5 -54.999c0 -22.667 -7.83301 -41.667 -23.5 -57s-34.167 -23 -55.5 -23c-22 0 -40.833 7.66699 -56.5 23s-23.5 34.333 -23.5 57c0 21.333 7.83301 39.666 23.5 54.999s34.5 23 56.5 23
c21.333 0 39.833 -7.66699 55.5 -23z" />
    <glyph glyph-name="Yacute" unicode="&#xdd;" horiz-adv-x="1116" 
d="M518 572l-486 842h91l435 -754l435 754h91l-486 -842v-572h-80v572zM752 1683l-217 -165h-74l144 165h147z" />
    <glyph glyph-name="Thorn" unicode="&#xde;" horiz-adv-x="946" 
d="M178 1169h291c108 -14.667 199.667 -59.667 275 -135c90 -90 135 -198.667 135 -326c0 -128 -45 -237 -135 -327s-198.667 -135 -326 -135h-240v-246h-80v1414h80v-245zM178 326l240 0.000976562c104.667 0 194.334 37.333 269.001 112s112 164.667 112 270
s-37.333 195.166 -112 269.499s-164.334 111.5 -269.001 111.5h-240v-763z" />
    <glyph glyph-name="germandbls" unicode="&#xdf;" horiz-adv-x="990" 
d="M498 1265c-74.667 0 -129.5 -16.5039 -164.5 -49.5039s-53.5 -72.5 -55.5 -118.5v-1097h-80v788h-88v80h88v235c4 65.333 29.667 121 77 167s119 69 215 69c166.667 -9.33301 250.334 -88 251.001 -236c0 -74.667 -34.667 -139.667 -104 -195
c-72.667 -57.333 -109 -109.666 -109 -156.999c3.33301 -45.333 71.333 -99.666 204 -162.999c132 -64 198 -157.667 198 -281c0 -105.333 -30 -184.666 -90 -237.999c-60 -54 -125.667 -81 -197 -81c-98 0 -172 25.333 -222 76l57 56c34.667 -35.333 89.667 -53 165 -53
c48.667 0 95.667 19.333 141 58c45.333 38 68 98.667 68 182c-6.66699 102 -74.667 181.333 -204 238s-195 123.667 -197 201c0 76.667 36 141.334 108 194.001c68.667 50 103 105.667 103 167c-0.666992 92 -55.334 144.667 -164.001 158z" />
    <glyph glyph-name="agrave" unicode="&#xe0;" horiz-adv-x="1122" 
d="M1033 0l-80 0.000976562v177c-15.333 -20.667 -32 -40.334 -50 -59.001c-94.667 -95.333 -209.334 -143 -344.001 -143c-133.333 0 -247.5 47.5 -342.5 142.5s-142.5 209.167 -142.5 342.5c0 134.667 47.5 249.334 142.5 344.001s209.167 142 342.5 142
c134.667 0 249.334 -47.333 344.001 -142c18 -18.667 34.667 -38.334 50 -59.001v123h80v-868zM953 382.001v157.001c-14.667 78 -51.334 146.333 -110.001 205c-78.667 78.667 -173.334 118 -284.001 118s-205.167 -39.333 -283.5 -118s-117.5 -173.334 -117.5 -284.001
s39.167 -205 117.5 -283s172.833 -117 283.5 -117s205.334 39.333 284.001 118c58.667 58.667 95.334 126.667 110.001 204zM507 1217l144 -165h-75l-216 165h147z" />
    <glyph glyph-name="aacute" unicode="&#xe1;" horiz-adv-x="1122" 
d="M1033 0l-80 0.000976562v177c-15.333 -20.667 -32 -40.334 -50 -59.001c-94.667 -95.333 -209.334 -143 -344.001 -143c-133.333 0 -247.5 47.5 -342.5 142.5s-142.5 209.167 -142.5 342.5c0 134.667 47.5 249.334 142.5 344.001s209.167 142 342.5 142
c134.667 0 249.334 -47.333 344.001 -142c18 -18.667 34.667 -38.334 50 -59.001v123h80v-868zM953 382.001v157.001c-14.667 78 -51.334 146.333 -110.001 205c-78.667 78.667 -173.334 118 -284.001 118s-205.167 -39.333 -283.5 -118s-117.5 -173.334 -117.5 -284.001
s39.167 -205 117.5 -283s172.833 -117 283.5 -117s205.334 39.333 284.001 118c58.667 58.667 95.334 126.667 110.001 204zM748 1217l-217 -165h-74l144 165h147z" />
    <glyph glyph-name="acircumflex" unicode="&#xe2;" horiz-adv-x="1122" 
d="M1033 0l-80 0.000976562v177c-15.333 -20.667 -32 -40.334 -50 -59.001c-94.667 -95.333 -209.334 -143 -344.001 -143c-133.333 0 -247.5 47.5 -342.5 142.5s-142.5 209.167 -142.5 342.5c0 134.667 47.5 249.334 142.5 344.001s209.167 142 342.5 142
c134.667 0 249.334 -47.333 344.001 -142c18 -18.667 34.667 -38.334 50 -59.001v123h80v-868zM953 382.001v157.001c-14.667 78 -51.334 146.333 -110.001 205c-78.667 78.667 -173.334 118 -284.001 118s-205.167 -39.333 -283.5 -118s-117.5 -173.334 -117.5 -284.001
s39.167 -205 117.5 -283s172.833 -117 283.5 -117s205.334 39.333 284.001 118c58.667 58.667 95.334 126.667 110.001 204zM786 1053h-92l-145 106l-135 -106h-93l228 187z" />
    <glyph glyph-name="atilde" unicode="&#xe3;" horiz-adv-x="1122" 
d="M1033 0l-80 0.000976562v177c-15.333 -20.667 -32 -40.334 -50 -59.001c-94.667 -95.333 -209.334 -143 -344.001 -143c-133.333 0 -247.5 47.5 -342.5 142.5s-142.5 209.167 -142.5 342.5c0 134.667 47.5 249.334 142.5 344.001s209.167 142 342.5 142
c134.667 0 249.334 -47.333 344.001 -142c18 -18.667 34.667 -38.334 50 -59.001v123h80v-868zM953 382.001v157.001c-14.667 78 -51.334 146.333 -110.001 205c-78.667 78.667 -173.334 118 -284.001 118s-205.167 -39.333 -283.5 -118s-117.5 -173.334 -117.5 -284.001
s39.167 -205 117.5 -283s172.833 -117 283.5 -117s205.334 39.333 284.001 118c58.667 58.667 95.334 126.667 110.001 204zM563 1167c39.333 -28.667 66.665 -43.001 81.998 -43.001h4c12 4.66699 20.667 15.334 26 32.001c2.66699 9.33301 4 25.666 4 48.999l66 -13
c-1.33301 -24.667 -4.66602 -45 -9.99902 -61c-12 -36.667 -32.667 -61.334 -62 -74.001c-8 -2.66699 -16.333 -4 -25 -4c-27.333 0 -62.333 15 -105 45c-39.333 29.333 -66.666 44 -81.999 44c-2 0 -3.33301 -0.333008 -4 -1c-11.333 -4 -19.666 -14.667 -24.999 -32
c-3.33301 -9.33301 -5 -25.666 -5 -48.999l-65 14c0.666992 24.667 3.66699 44.667 9 60c12 36.667 33 61.334 63 74.001c7.33301 3.33301 15.666 5 24.999 5c27.333 0 62 -15.333 104 -46z" />
    <glyph glyph-name="adieresis" unicode="&#xe4;" horiz-adv-x="1122" 
d="M1033 0l-80 0.000976562v177c-15.333 -20.667 -32 -40.334 -50 -59.001c-94.667 -95.333 -209.334 -143 -344.001 -143c-133.333 0 -247.5 47.5 -342.5 142.5s-142.5 209.167 -142.5 342.5c0 134.667 47.5 249.334 142.5 344.001s209.167 142 342.5 142
c134.667 0 249.334 -47.333 344.001 -142c18 -18.667 34.667 -38.334 50 -59.001v123h80v-868zM953 382.001v157.001c-14.667 78 -51.334 146.333 -110.001 205c-78.667 78.667 -173.334 118 -284.001 118s-205.167 -39.333 -283.5 -118s-117.5 -173.334 -117.5 -284.001
s39.167 -205 117.5 -283s172.833 -117 283.5 -117s205.334 39.333 284.001 118c58.667 58.667 95.334 126.667 110.001 204zM477.5 1192c15.667 -15.333 23.5 -33.666 23.5 -54.999c0 -22.667 -7.83301 -41.667 -23.5 -57s-34.167 -23 -55.5 -23
c-22 0 -40.833 7.66699 -56.5 23s-23.5 34.333 -23.5 57c0 21.333 7.83301 39.666 23.5 54.999s34.5 23 56.5 23c21.333 0 39.833 -7.66699 55.5 -23zM742.5 1192c15.667 -15.333 23.5 -33.666 23.5 -54.999c0 -22.667 -7.83301 -41.667 -23.5 -57s-34.167 -23 -55.5 -23
c-22 0 -40.833 7.66699 -56.5 23s-23.5 34.333 -23.5 57c0 21.333 7.83301 39.666 23.5 54.999s34.5 23 56.5 23c21.333 0 39.833 -7.66699 55.5 -23z" />
    <glyph glyph-name="aring" unicode="&#xe5;" horiz-adv-x="1122" 
d="M953 382v157.001c-14.667 78 -51.334 146.333 -110.001 205c-78.667 78.667 -173.334 118 -284.001 118s-205.167 -39.333 -283.5 -118s-117.5 -173.334 -117.5 -284.001s39.167 -205 117.5 -283s172.833 -117 283.5 -117s205.334 39.333 284.001 118
c58.667 58.667 95.334 126.667 110.001 204zM554 1109c-14.667 0 -27 -5 -37 -15s-15 -22.333 -15 -37c0 -14 5 -26.167 15 -36.5s22.333 -15.5 37 -15.5c14 0 26 5.16699 36 15.5s15 22.5 15 36.5c0 14.667 -5 27 -15 37s-22 15 -36 15zM575 946.001
c128 -4 237.334 -51.332 328.001 -141.999c18 -18.667 34.667 -38.334 50 -59.001v123h80v-868h-80v177c-15.333 -20.667 -32 -40.334 -50 -59.001c-94.667 -95.333 -209.334 -143 -344.001 -143c-133.333 0 -247.5 47.5 -342.5 142.5s-142.5 209.167 -142.5 342.5
c0 134.667 47.667 249.334 143 344.001c88.667 88.667 194.667 135.667 318 141c-23.333 4 -43.666 14.667 -60.999 32c-22.667 22 -34 48.667 -34 80s11.167 58 33.5 80s49.166 33 80.499 33c30.667 0 57.167 -11 79.5 -33s33.5 -48.667 33.5 -80s-11 -58 -33 -80
c-17.333 -16.667 -37 -27 -59 -31z" />
    <glyph glyph-name="ae" unicode="&#xe6;" horiz-adv-x="1873" 
d="M912 653c-18 32.667 -41 63.001 -69 91.001c-78.667 78.667 -173.334 118 -284.001 118s-205.167 -39.333 -283.5 -118s-117.5 -173.334 -117.5 -284.001s39.167 -205 117.5 -283s172.833 -117 283.5 -117s205.334 39.333 284.001 118c28 28 51 58 69 90
c20 35.333 33.667 73.333 41 114v157c-7.33301 40.667 -21 78.667 -41 114zM1738 586.001c-18.667 60.667 -50.666 113.333 -95.999 158c-78 78.667 -172.333 118 -283 118s-205.334 -39.333 -284.001 -118c-16 -16 -30 -32.333 -42 -49v-109h705zM1033 226
c12 -16.667 25.999 -32.666 41.999 -47.999c78.667 -78.667 173.334 -118 284.001 -118s205 39.333 283 118c14 13.333 26.667 27.333 38 42l85 -30c-10 -16.667 -31 -40.667 -63 -72c-94.667 -95.333 -209 -143 -343 -143c-126 0 -234.667 42.333 -326 127v-102h-80v177
c-15.333 -20.667 -32 -40.334 -50 -59.001c-94.667 -95.333 -209.334 -143 -344.001 -143c-133.333 0 -247.5 47.5 -342.5 142.5s-142.5 209.167 -142.5 342.5c0 134.667 47.5 249.334 142.5 344.001s209.167 142 342.5 142c134.667 0 249.334 -47.333 344.001 -142
c18 -18.667 34.667 -38.334 50 -59.001v123h80v-48c91.333 84 200 126 326 126c134 0 248.333 -47.333 343 -142c84 -84 127.667 -183.667 131 -299l-800 1v-280z" />
    <glyph glyph-name="ccedilla" unicode="&#xe7;" horiz-adv-x="985" 
d="M442 -16c-93.333 17.333 -175.669 61.999 -247.002 133.999c-95.333 94.667 -143 209 -143 343s47.5 248.333 142.5 343s209.167 142 342.5 142c134.667 0 249.334 -47.333 344.001 -142c19.333 -19.333 36.666 -39.333 51.999 -60l-84 -31
c-8.66699 10.667 -18 21.334 -28 32.001c-78.667 78 -173.334 117 -284.001 117c-110 0 -204.167 -39.167 -282.5 -117.5s-117.5 -172.833 -117.5 -283.5s39.167 -205.167 117.5 -283.5s172.5 -117.5 282.5 -117.5c110.667 0 205.334 39.333 284.001 118
c10 10 19.333 20.333 28 31l84 -31c-15.333 -20.667 -32.666 -40.667 -51.999 -60c-94.667 -95.333 -209.334 -143 -344.001 -143c-11.333 0 -22.333 0.333008 -33 1l-11 -28c61.333 -4.66699 100.666 -25 117.999 -61c9.33301 -19.333 14 -38 14 -56
c0 -15.333 -3.66699 -30 -11 -44c-15.333 -30 -43.666 -48.333 -84.999 -55c-15.333 -2.66699 -29.666 -4 -42.999 -4c-22.667 0 -42 3.66699 -58 11c-26 11.333 -48.333 24.333 -67 39l37 40c22.667 -23.333 47 -35 73 -35c6.66699 0 13.667 1 21 3
c31.333 7.33301 47 26.333 47 57v6c-2 28.667 -35 43 -99 43c-11.333 0 -23.666 -0.333008 -36.999 -1z" />
    <glyph glyph-name="egrave" unicode="&#xe8;" horiz-adv-x="1042" 
d="M154 586l762.003 -0.000976562c-18.667 60.667 -50.334 113.334 -95.001 158.001c-78.667 78.667 -173.334 118 -284.001 118s-205.334 -39.333 -284.001 -118c-46.667 -47.333 -79.667 -100 -99 -158zM139.003 504.999c-2 -14 -3.00098 -29.001 -3.00098 -45.001
c0 -110.667 39.167 -205 117.5 -283s172.833 -117 283.5 -117s205.334 39.333 284.001 118c13.333 13.333 26 27.333 38 42l85 -30c-10 -16.667 -31 -40.667 -63 -72c-94.667 -95.333 -209.334 -143 -344.001 -143c-133.333 0 -247.5 47.5 -342.5 142.5
s-142.5 209.167 -142.5 342.5c0 134.667 47.5 249.334 142.5 344.001s209.167 142 342.5 142c134.667 0 249.334 -47.333 344.001 -142c83.333 -84 125 -183.667 125 -299h-867zM482.002 1217l144 -165h-75l-216 165h147z" />
    <glyph glyph-name="eacute" unicode="&#xe9;" horiz-adv-x="1042" 
d="M154 586l762.003 -0.000976562c-18.667 60.667 -50.334 113.334 -95.001 158.001c-78.667 78.667 -173.334 118 -284.001 118s-205.334 -39.333 -284.001 -118c-46.667 -47.333 -79.667 -100 -99 -158zM139.003 504.999c-2 -14 -3.00098 -29.001 -3.00098 -45.001
c0 -110.667 39.167 -205 117.5 -283s172.833 -117 283.5 -117s205.334 39.333 284.001 118c13.333 13.333 26 27.333 38 42l85 -30c-10 -16.667 -31 -40.667 -63 -72c-94.667 -95.333 -209.334 -143 -344.001 -143c-133.333 0 -247.5 47.5 -342.5 142.5
s-142.5 209.167 -142.5 342.5c0 134.667 47.5 249.334 142.5 344.001s209.167 142 342.5 142c134.667 0 249.334 -47.333 344.001 -142c83.333 -84 125 -183.667 125 -299h-867zM723.002 1217l-217 -165h-74l144 165h147z" />
    <glyph glyph-name="ecircumflex" unicode="&#xea;" horiz-adv-x="1042" 
d="M154 586l762.003 -0.000976562c-18.667 60.667 -50.334 113.334 -95.001 158.001c-78.667 78.667 -173.334 118 -284.001 118s-205.334 -39.333 -284.001 -118c-46.667 -47.333 -79.667 -100 -99 -158zM139.003 504.999c-2 -14 -3.00098 -29.001 -3.00098 -45.001
c0 -110.667 39.167 -205 117.5 -283s172.833 -117 283.5 -117s205.334 39.333 284.001 118c13.333 13.333 26 27.333 38 42l85 -30c-10 -16.667 -31 -40.667 -63 -72c-94.667 -95.333 -209.334 -143 -344.001 -143c-133.333 0 -247.5 47.5 -342.5 142.5
s-142.5 209.167 -142.5 342.5c0 134.667 47.5 249.334 142.5 344.001s209.167 142 342.5 142c134.667 0 249.334 -47.333 344.001 -142c83.333 -84 125 -183.667 125 -299h-867zM762.002 1053h-92l-145 106l-135 -106h-93l228 187z" />
    <glyph glyph-name="edieresis" unicode="&#xeb;" horiz-adv-x="1042" 
d="M154 586l762.003 -0.000976562c-18.667 60.667 -50.334 113.334 -95.001 158.001c-78.667 78.667 -173.334 118 -284.001 118s-205.334 -39.333 -284.001 -118c-46.667 -47.333 -79.667 -100 -99 -158zM139.003 504.999c-2 -14 -3.00098 -29.001 -3.00098 -45.001
c0 -110.667 39.167 -205 117.5 -283s172.833 -117 283.5 -117s205.334 39.333 284.001 118c13.333 13.333 26 27.333 38 42l85 -30c-10 -16.667 -31 -40.667 -63 -72c-94.667 -95.333 -209.334 -143 -344.001 -143c-133.333 0 -247.5 47.5 -342.5 142.5
s-142.5 209.167 -142.5 342.5c0 134.667 47.5 249.334 142.5 344.001s209.167 142 342.5 142c134.667 0 249.334 -47.333 344.001 -142c83.333 -84 125 -183.667 125 -299h-867zM452.502 1192c15.667 -15.333 23.5 -33.666 23.5 -54.999
c0 -22.667 -7.83301 -41.667 -23.5 -57s-34.167 -23 -55.5 -23c-22 0 -40.833 7.66699 -56.5 23s-23.5 34.333 -23.5 57c0 21.333 7.83301 39.666 23.5 54.999s34.5 23 56.5 23c21.333 0 39.833 -7.66699 55.5 -23zM717.502 1192c15.667 -15.333 23.5 -33.666 23.5 -54.999
c0 -22.667 -7.83301 -41.667 -23.5 -57s-34.167 -23 -55.5 -23c-22 0 -40.833 7.66699 -56.5 23s-23.5 34.333 -23.5 57c0 21.333 7.83301 39.666 23.5 54.999s34.5 23 56.5 23c21.333 0 39.833 -7.66699 55.5 -23z" />
    <glyph glyph-name="igrave" unicode="&#xec;" horiz-adv-x="317" 
d="M198 868v-868h-79v868h79zM112 1217l144 -165h-75l-216 165h147z" />
    <glyph glyph-name="iacute" unicode="&#xed;" horiz-adv-x="317" 
d="M198 868v-868h-79v868h79zM353 1217l-217 -165h-74l144 165h147z" />
    <glyph glyph-name="icircumflex" unicode="&#xee;" horiz-adv-x="317" 
d="M178 868v-868h-79v868h79zM371 1053h-92l-145 106l-135 -106h-93l228 187z" />
    <glyph glyph-name="idieresis" unicode="&#xef;" horiz-adv-x="317" 
d="M199 868v-868h-79v868h79zM82.5 1192c15.667 -15.333 23.5 -33.666 23.5 -54.999c0 -22.667 -7.83301 -41.667 -23.5 -57s-34.167 -23 -55.5 -23c-22 0 -40.833 7.66699 -56.5 23s-23.5 34.333 -23.5 57c0 21.333 7.83301 39.666 23.5 54.999s34.5 23 56.5 23
c21.333 0 39.833 -7.66699 55.5 -23zM347.5 1192c15.667 -15.333 23.5 -33.666 23.5 -54.999c0 -22.667 -7.83301 -41.667 -23.5 -57s-34.167 -23 -55.5 -23c-22 0 -40.833 7.66699 -56.5 23s-23.5 34.333 -23.5 57c0 21.333 7.83301 39.666 23.5 54.999s34.5 23 56.5 23
c21.333 0 39.833 -7.66699 55.5 -23z" />
    <glyph glyph-name="eth" unicode="&#xf0;" horiz-adv-x="1114" 
d="M156 460c0 -110.667 39.167 -205 117.5 -283s172.833 -117 283.5 -117s205.167 39 283.5 117s117.5 172.333 117.5 283s-39.167 205.334 -117.5 284.001s-172.833 118 -283.5 118s-205.167 -39.333 -283.5 -118s-117.5 -173.334 -117.5 -284.001zM901 804
c94 -94.667 141 -209.334 141 -344.001c0 -133.333 -47.167 -247.5 -141.5 -342.5s-208.833 -142.5 -343.5 -142.5c-133.333 0 -247.5 47.5 -342.5 142.5s-142.5 209.167 -142.5 342.5c0 134.667 47.5 249.334 142.5 344.001s209.167 142 342.5 142
c26 0 57.667 -1.66699 95 -5l-195 176l-143 -143h-114l200 200l-197 196h112l141 -140l137 137h114l-194 -194z" />
    <glyph glyph-name="ntilde" unicode="&#xf1;" horiz-adv-x="879" 
d="M179 674v-674h-80v868h80v-56c72 72 156 108 252 108c102.667 0 186.167 -32.167 250.5 -96.5s97.166 -145.166 98.499 -242.499v-581h-79v573c0 74 -26.667 137 -80 189s-116.666 78 -189.999 78c-72.667 0 -135.667 -25.667 -189 -77
c-28.667 -28.667 -49.667 -58.334 -63 -89.001zM449 1167c39.333 -28.667 66.665 -43.001 81.998 -43.001h4c12 4.66699 20.667 15.334 26 32.001c2.66699 9.33301 4 25.666 4 48.999l66 -13c-1.33301 -24.667 -4.66602 -45 -9.99902 -61
c-12 -36.667 -32.667 -61.334 -62 -74.001c-8 -2.66699 -16.333 -4 -25 -4c-27.333 0 -62.333 15 -105 45c-39.333 29.333 -66.666 44 -81.999 44c-2 0 -3.33301 -0.333008 -4 -1c-11.333 -4 -19.666 -14.667 -24.999 -32c-3.33301 -9.33301 -5 -25.666 -5 -48.999l-65 14
c0.666992 24.667 3.66699 44.667 9 60c12 36.667 33 61.334 63 74.001c7.33301 3.33301 15.666 5 24.999 5c27.333 0 62 -15.333 104 -46z" />
    <glyph glyph-name="ograve" unicode="&#xf2;" horiz-adv-x="1114" 
d="M557 946c134.667 0 249.167 -47.333 343.5 -142s141.5 -209.334 141.5 -344.001c0 -133.333 -47.167 -247.5 -141.5 -342.5s-208.833 -142.5 -343.5 -142.5c-133.333 0 -247.5 47.5 -342.5 142.5s-142.5 209.167 -142.5 342.5c0 134.667 47.5 249.334 142.5 344.001
s209.167 142 342.5 142zM273.5 744c-78.333 -78.667 -117.5 -173.334 -117.5 -284.001s39.167 -205 117.5 -283s172.833 -117 283.5 -117s205.167 39 283.5 117s117.5 172.333 117.5 283s-39.167 205.334 -117.5 284.001s-172.833 118 -283.5 118
s-205.167 -39.333 -283.5 -118zM510 1217l144 -165h-75l-216 165h147z" />
    <glyph glyph-name="oacute" unicode="&#xf3;" horiz-adv-x="1114" 
d="M557 946c134.667 0 249.167 -47.333 343.5 -142s141.5 -209.334 141.5 -344.001c0 -133.333 -47.167 -247.5 -141.5 -342.5s-208.833 -142.5 -343.5 -142.5c-133.333 0 -247.5 47.5 -342.5 142.5s-142.5 209.167 -142.5 342.5c0 134.667 47.5 249.334 142.5 344.001
s209.167 142 342.5 142zM273.5 744c-78.333 -78.667 -117.5 -173.334 -117.5 -284.001s39.167 -205 117.5 -283s172.833 -117 283.5 -117s205.167 39 283.5 117s117.5 172.333 117.5 283s-39.167 205.334 -117.5 284.001s-172.833 118 -283.5 118
s-205.167 -39.333 -283.5 -118zM751 1217l-217 -165h-74l144 165h147z" />
    <glyph glyph-name="ocircumflex" unicode="&#xf4;" horiz-adv-x="1114" 
d="M557 946c134.667 0 249.167 -47.333 343.5 -142s141.5 -209.334 141.5 -344.001c0 -133.333 -47.167 -247.5 -141.5 -342.5s-208.833 -142.5 -343.5 -142.5c-133.333 0 -247.5 47.5 -342.5 142.5s-142.5 209.167 -142.5 342.5c0 134.667 47.5 249.334 142.5 344.001
s209.167 142 342.5 142zM273.5 744c-78.333 -78.667 -117.5 -173.334 -117.5 -284.001s39.167 -205 117.5 -283s172.833 -117 283.5 -117s205.167 39 283.5 117s117.5 172.333 117.5 283s-39.167 205.334 -117.5 284.001s-172.833 118 -283.5 118
s-205.167 -39.333 -283.5 -118zM790 1053h-92l-145 106l-135 -106h-93l228 187z" />
    <glyph glyph-name="otilde" unicode="&#xf5;" horiz-adv-x="1114" 
d="M557 946c134.667 0 249.167 -47.333 343.5 -142s141.5 -209.334 141.5 -344.001c0 -133.333 -47.167 -247.5 -141.5 -342.5s-208.833 -142.5 -343.5 -142.5c-133.333 0 -247.5 47.5 -342.5 142.5s-142.5 209.167 -142.5 342.5c0 134.667 47.5 249.334 142.5 344.001
s209.167 142 342.5 142zM273.5 744c-78.333 -78.667 -117.5 -173.334 -117.5 -284.001s39.167 -205 117.5 -283s172.833 -117 283.5 -117s205.167 39 283.5 117s117.5 172.333 117.5 283s-39.167 205.334 -117.5 284.001s-172.833 118 -283.5 118
s-205.167 -39.333 -283.5 -118zM567 1167c39.333 -28.667 66.665 -43.001 81.998 -43.001h4c12 4.66699 20.667 15.334 26 32.001c2.66699 9.33301 4 25.666 4 48.999l66 -13c-1.33301 -24.667 -4.66602 -45 -9.99902 -61c-12 -36.667 -32.667 -61.334 -62 -74.001
c-8 -2.66699 -16.333 -4 -25 -4c-27.333 0 -62.333 15 -105 45c-39.333 29.333 -66.666 44 -81.999 44c-2 0 -3.33301 -0.333008 -4 -1c-11.333 -4 -19.666 -14.667 -24.999 -32c-3.33301 -9.33301 -5 -25.666 -5 -48.999l-65 14c0.666992 24.667 3.66699 44.667 9 60
c12 36.667 33 61.334 63 74.001c7.33301 3.33301 15.666 5 24.999 5c27.333 0 62 -15.333 104 -46z" />
    <glyph glyph-name="odieresis" unicode="&#xf6;" horiz-adv-x="1114" 
d="M557 946c134.667 0 249.167 -47.333 343.5 -142s141.5 -209.334 141.5 -344.001c0 -133.333 -47.167 -247.5 -141.5 -342.5s-208.833 -142.5 -343.5 -142.5c-133.333 0 -247.5 47.5 -342.5 142.5s-142.5 209.167 -142.5 342.5c0 134.667 47.5 249.334 142.5 344.001
s209.167 142 342.5 142zM273.5 744c-78.333 -78.667 -117.5 -173.334 -117.5 -284.001s39.167 -205 117.5 -283s172.833 -117 283.5 -117s205.167 39 283.5 117s117.5 172.333 117.5 283s-39.167 205.334 -117.5 284.001s-172.833 118 -283.5 118
s-205.167 -39.333 -283.5 -118zM480.5 1192c15.667 -15.333 23.5 -33.666 23.5 -54.999c0 -22.667 -7.83301 -41.667 -23.5 -57s-34.167 -23 -55.5 -23c-22 0 -40.833 7.66699 -56.5 23s-23.5 34.333 -23.5 57c0 21.333 7.83301 39.666 23.5 54.999s34.5 23 56.5 23
c21.333 0 39.833 -7.66699 55.5 -23zM745.5 1192c15.667 -15.333 23.5 -33.666 23.5 -54.999c0 -22.667 -7.83301 -41.667 -23.5 -57s-34.167 -23 -55.5 -23c-22 0 -40.833 7.66699 -56.5 23s-23.5 34.333 -23.5 57c0 21.333 7.83301 39.666 23.5 54.999s34.5 23 56.5 23
c21.333 0 39.833 -7.66699 55.5 -23z" />
    <glyph glyph-name="divide" unicode="&#xf7;" horiz-adv-x="1070" 
d="M85 633v80h900v-80h-900zM591.5 421c15.667 -15.333 23.5 -34 23.5 -56s-7.83301 -40.667 -23.5 -56s-34.167 -23 -55.5 -23c-22 0 -40.833 7.66699 -56.5 23s-23.5 34 -23.5 56s7.83301 40.667 23.5 56s34.5 23 56.5 23c21.333 0 39.833 -7.66699 55.5 -23zM591.5 1038
c15.667 -15.333 23.5 -34 23.5 -56s-7.83301 -40.667 -23.5 -56s-34.167 -23 -55.5 -23c-22 0 -40.833 7.66699 -56.5 23s-23.5 34 -23.5 56s7.83301 40.667 23.5 56s34.5 23 56.5 23c21.333 0 39.833 -7.66699 55.5 -23z" />
    <glyph glyph-name="oslash" unicode="&#xf8;" horiz-adv-x="1080" 
d="M706 828c-50.667 22.667 -106 34 -166 34c-110.667 0 -205.167 -39.167 -283.5 -117.5s-117.5 -172.833 -117.5 -283.5s39 -205 117 -283c16 -16 33 -30.333 51 -43zM774 787l-400 -692.001c50.667 -22.667 106 -34 166 -34c110.667 0 205.167 39 283.5 117
s117.5 172.333 117.5 283s-39 205.334 -117 284.001c-16 16 -32.667 30 -50 42zM264 61.999c-23.333 16.667 -45.666 35.334 -66.999 56.001c-94.667 95.333 -142 209.666 -142 342.999c0 134.667 47.5 249.334 142.5 344.001s209.167 142 342.5 142
c76 0 146 -15.333 210 -46l107 188l70 -37l-110 -190c23.333 -16.667 45.666 -35.667 66.999 -57c94 -94.667 141 -209.334 141 -344.001c0 -133.333 -47.167 -247.5 -141.5 -342.5s-208.833 -142.5 -343.5 -142.5c-76 0 -145.333 15.333 -208 46l-109 -188l-70 33z" />
    <glyph glyph-name="ugrave" unicode="&#xf9;" horiz-adv-x="880" 
d="M445 -12c-108.667 0 -195.001 32.001 -259.001 96.001s-97 145 -99 243v542h80v-535c0 -73.333 26.667 -136 80 -188c52.667 -52.667 118.334 -79 197.001 -79c73.333 0 136.5 26.167 189.5 78.5s79.5 115.166 79.5 188.499v535h80v-542c-2 -98 -35 -179 -99 -243
s-147 -96 -249 -96zM392.999 1217l144 -165h-75l-216 165h147z" />
    <glyph glyph-name="uacute" unicode="&#xfa;" horiz-adv-x="880" 
d="M445 -12c-108.667 0 -195.001 32.001 -259.001 96.001s-97 145 -99 243v542h80v-535c0 -73.333 26.667 -136 80 -188c52.667 -52.667 118.334 -79 197.001 -79c73.333 0 136.5 26.167 189.5 78.5s79.5 115.166 79.5 188.499v535h80v-542c-2 -98 -35 -179 -99 -243
s-147 -96 -249 -96zM633.999 1217l-217 -165h-74l144 165h147z" />
    <glyph glyph-name="ucircumflex" unicode="&#xfb;" horiz-adv-x="880" 
d="M445 -12c-108.667 0 -195.001 32.001 -259.001 96.001s-97 145 -99 243v542h80v-535c0 -73.333 26.667 -136 80 -188c52.667 -52.667 118.334 -79 197.001 -79c73.333 0 136.5 26.167 189.5 78.5s79.5 115.166 79.5 188.499v535h80v-542c-2 -98 -35 -179 -99 -243
s-147 -96 -249 -96zM672.999 1053h-92l-145 106l-135 -106h-93l228 187z" />
    <glyph glyph-name="udieresis" unicode="&#xfc;" horiz-adv-x="880" 
d="M445 -12c-108.667 0 -195.001 32.001 -259.001 96.001s-97 145 -99 243v542h80v-535c0 -73.333 26.667 -136 80 -188c52.667 -52.667 118.334 -79 197.001 -79c73.333 0 136.5 26.167 189.5 78.5s79.5 115.166 79.5 188.499v535h80v-542c-2 -98 -35 -179 -99 -243
s-147 -96 -249 -96zM363.499 1192c15.667 -15.333 23.5 -33.666 23.5 -54.999c0 -22.667 -7.83301 -41.667 -23.5 -57s-34.167 -23 -55.5 -23c-22 0 -40.833 7.66699 -56.5 23s-23.5 34.333 -23.5 57c0 21.333 7.83301 39.666 23.5 54.999s34.5 23 56.5 23
c21.333 0 39.833 -7.66699 55.5 -23zM628.499 1192c15.667 -15.333 23.5 -33.666 23.5 -54.999c0 -22.667 -7.83301 -41.667 -23.5 -57s-34.167 -23 -55.5 -23c-22 0 -40.833 7.66699 -56.5 23s-23.5 34.333 -23.5 57c0 21.333 7.83301 39.666 23.5 54.999s34.5 23 56.5 23
c21.333 0 39.833 -7.66699 55.5 -23z" />
    <glyph glyph-name="yacute" unicode="&#xfd;" horiz-adv-x="779" 
d="M434 163l-229 -493h-89l229 491l-330 707h89l285 -606l286 606h89l-329 -705h-1zM584 1217l-217 -165h-74l144 165h147z" />
    <glyph glyph-name="thorn" unicode="&#xfe;" horiz-adv-x="1204" 
d="M207 559v-198.002c16.667 -69.333 52 -130.666 106 -183.999c78 -78.667 172.333 -118 283 -118s205.167 39.167 283.5 117.5s117.5 172.833 117.5 283.5s-39.167 205.334 -117.5 284.001s-172.833 118 -283.5 118s-205 -39.333 -283 -118
c-54 -53.333 -89.333 -115 -106 -185zM207 749.998c14 18.667 29.333 36.666 46 53.999c95.333 94 209.666 141 342.999 141c134.667 0 249.167 -47.167 343.5 -141.5s141.5 -208.833 141.5 -343.5c0 -133.333 -47.167 -247.5 -141.5 -342.5s-208.833 -142.5 -343.5 -142.5
c-133.333 0 -247.666 47.667 -342.999 143c-16.667 16.667 -32 34.334 -46 53.001v-487h-80v1553h80v-487z" />
    <glyph glyph-name="ydieresis" unicode="&#xff;" horiz-adv-x="779" 
d="M434 163l-229 -493h-89l229 491l-330 707h89l285 -606l286 606h89l-329 -705h-1zM313.5 1192c15.667 -15.333 23.5 -33.666 23.5 -54.999c0 -22.667 -7.83301 -41.667 -23.5 -57s-34.167 -23 -55.5 -23c-22 0 -40.833 7.66699 -56.5 23s-23.5 34.333 -23.5 57
c0 21.333 7.83301 39.666 23.5 54.999s34.5 23 56.5 23c21.333 0 39.833 -7.66699 55.5 -23zM578.5 1192c15.667 -15.333 23.5 -33.666 23.5 -54.999c0 -22.667 -7.83301 -41.667 -23.5 -57s-34.167 -23 -55.5 -23c-22 0 -40.833 7.66699 -56.5 23s-23.5 34.333 -23.5 57
c0 21.333 7.83301 39.666 23.5 54.999s34.5 23 56.5 23c21.333 0 39.833 -7.66699 55.5 -23z" />
    <glyph glyph-name="Amacron" unicode="&#x100;" horiz-adv-x="1116" 
d="M774 701l-215 593l-216 -593h431zM600 1414l513 -1414h-84l-226 622h-489l-230 -622h-85l519 1414h82zM296 1580h521v-62h-521v62z" />
    <glyph glyph-name="amacron" unicode="&#x101;" horiz-adv-x="1122" 
d="M1033 0l-80 0.000976562v177c-15.333 -20.667 -32 -40.334 -50 -59.001c-94.667 -95.333 -209.334 -143 -344.001 -143c-133.333 0 -247.5 47.5 -342.5 142.5s-142.5 209.167 -142.5 342.5c0 134.667 47.5 249.334 142.5 344.001s209.167 142 342.5 142
c134.667 0 249.334 -47.333 344.001 -142c18 -18.667 34.667 -38.334 50 -59.001v123h80v-868zM953 382.001v157.001c-14.667 78 -51.334 146.333 -110.001 205c-78.667 78.667 -173.334 118 -284.001 118s-205.167 -39.333 -283.5 -118s-117.5 -173.334 -117.5 -284.001
s39.167 -205 117.5 -283s172.833 -117 283.5 -117s205.334 39.333 284.001 118c58.667 58.667 95.334 126.667 110.001 204zM293 1134h521v-62h-521v62z" />
    <glyph glyph-name="Abreve" unicode="&#x102;" horiz-adv-x="1116" 
d="M774 701l-215 593l-216 -593h431zM600 1414l513 -1414h-84l-226 622h-489l-230 -622h-85l519 1414h82zM755 1685c-9.33301 -30.667 -26.332 -58.333 -50.999 -83c-40 -40.667 -88.667 -61 -146 -61c-58.667 0 -108 20.333 -148 61c-26 26 -43.667 53.667 -53 83h70
c7.33301 -13.333 16.666 -25.666 27.999 -36.999c28 -28.667 62.333 -43 103 -43c39.333 0 73 14.333 101 43c12 11.333 21.333 23.666 28 36.999h68z" />
    <glyph glyph-name="abreve" unicode="&#x103;" horiz-adv-x="1122" 
d="M1033 0l-80 0.000976562v177c-15.333 -20.667 -32 -40.334 -50 -59.001c-94.667 -95.333 -209.334 -143 -344.001 -143c-133.333 0 -247.5 47.5 -342.5 142.5s-142.5 209.167 -142.5 342.5c0 134.667 47.5 249.334 142.5 344.001s209.167 142 342.5 142
c134.667 0 249.334 -47.333 344.001 -142c18 -18.667 34.667 -38.334 50 -59.001v123h80v-868zM953 382.001v157.001c-14.667 78 -51.334 146.333 -110.001 205c-78.667 78.667 -173.334 118 -284.001 118s-205.167 -39.333 -283.5 -118s-117.5 -173.334 -117.5 -284.001
s39.167 -205 117.5 -283s172.833 -117 283.5 -117s205.334 39.333 284.001 118c58.667 58.667 95.334 126.667 110.001 204zM753 1219c-10 -30.667 -27.333 -58.333 -52 -83c-40 -40.667 -88.667 -61 -146 -61c-58.667 0 -108 20.333 -148 61c-25.333 26 -43 53.667 -53 83
h71c6.66699 -13.333 15.667 -25.666 27 -36.999c28 -28.667 62.333 -43 103 -43c39.333 0 73 14.333 101 43c12 11.333 21.333 23.666 28 36.999h69z" />
    <glyph glyph-name="Aogonek" unicode="&#x104;" horiz-adv-x="1116" 
d="M774 701l-215 593l-216 -593h431zM1017 34l-214.001 588h-489l-230 -622h-85l519 1414h82l513 -1414h-59c-36 -12 -62.333 -25.333 -79 -40c-19.333 -16.667 -29.666 -37.334 -30.999 -62.001v-6c0 -22 7.33301 -41.667 22 -59c16 -18.667 35.333 -28.667 58 -30
c2 -0.666992 4 -1 6 -1c20.667 0 42.667 7.66699 66 23l17 -48l-4 -3c-21.333 -18.667 -47.333 -28 -78 -28h-12c-38 2.66699 -70 19 -96 49c-23.333 27.333 -35 58.333 -35 93c0 4.66699 0.333008 9.33398 1 14.001c3.33301 40.667 20 74 50 100c24 20 50 30.667 78 32z
" />
    <glyph glyph-name="aogonek" unicode="&#x105;" horiz-adv-x="1122" 
d="M953 382v157.001c-14.667 78 -51.334 146.333 -110.001 205c-78.667 78.667 -173.334 118 -284.001 118s-205.167 -39.333 -283.5 -118s-117.5 -173.334 -117.5 -284.001s39.167 -205 117.5 -283s172.833 -117 283.5 -117s205.334 39.333 284.001 118
c58.667 58.667 95.334 126.667 110.001 204zM953 34.001l-0.000976562 143.001c-15.333 -20.667 -32 -40.334 -50 -59.001c-94.667 -95.333 -209.334 -143 -344.001 -143c-133.333 0 -247.5 47.5 -342.5 142.5s-142.5 209.167 -142.5 342.5
c0 134.667 47.5 249.334 142.5 344.001s209.167 142 342.5 142c134.667 0 249.334 -47.333 344.001 -142c18 -18.667 34.667 -38.334 50 -59.001v123h80v-868h-59c-36 -12 -62.333 -25.333 -79 -40c-19.333 -16.667 -29.666 -37.334 -30.999 -62.001v-6
c0 -22 7.33301 -41.667 22 -59c16 -18.667 35.333 -28.667 58 -30c2 -0.666992 4 -1 6 -1c20.667 0 42.667 7.66699 66 23l17 -48l-4 -3c-21.333 -18.667 -47.333 -28 -78 -28h-12c-38 2.66699 -70 19 -96 49c-23.333 27.333 -35 58.333 -35 93
c0 4.66699 0.333008 9.33398 1 14.001c3.33301 40.667 20 74 50 100c25.333 21.333 53 32 83 32h11z" />
    <glyph glyph-name="Cacute" unicode="&#x106;" horiz-adv-x="1347" 
d="M1224 225l61 -54.001c-138 -125.333 -300.333 -188 -487 -188c-200.667 0 -371.5 70.5 -512.5 211.5s-211.5 311.833 -211.5 512.5c0 199.333 70.5 369.833 211.5 511.5s311.833 212.5 512.5 212.5c186.667 0 349 -63 487 -189l-61 -54
c-121.333 107.333 -263.333 161 -426 161c-177.333 0 -328.833 -62.667 -454.5 -188s-188.5 -276.666 -188.5 -453.999c0 -178 62.833 -329.667 188.5 -455s277.167 -188 454.5 -188c162.667 0 304.667 53.667 426 161zM874 1683l-217 -165h-74l144 165h147z" />
    <glyph glyph-name="cacute" unicode="&#x107;" horiz-adv-x="985" 
d="M849 209l84 -31.001c-15.333 -20.667 -32.666 -40.667 -51.999 -60c-94.667 -95.333 -209.334 -143 -344.001 -143c-133.333 0 -247.5 47.5 -342.5 142.5s-142.5 209.5 -142.5 343.5s47.5 248.333 142.5 343s209.167 142 342.5 142
c134.667 0 249.334 -47.333 344.001 -142c19.333 -19.333 36.666 -39.333 51.999 -60l-84 -31c-8.66699 10.667 -18 21.334 -28 32.001c-78.667 78 -173.334 117 -284.001 117c-110 0 -204.167 -39.167 -282.5 -117.5s-117.5 -172.833 -117.5 -283.5
s39.167 -205.167 117.5 -283.5s172.5 -117.5 282.5 -117.5c110.667 0 205.334 39.333 284.001 118c10 10 19.333 20.333 28 31zM687 1217l-217 -165h-74l144 165h147z" />
    <glyph glyph-name="Ccircumflex" unicode="&#x108;" horiz-adv-x="1347" 
d="M1224 225l61 -54.001c-138 -125.333 -300.333 -188 -487 -188c-200.667 0 -371.5 70.5 -512.5 211.5s-211.5 311.833 -211.5 512.5c0 199.333 70.5 369.833 211.5 511.5s311.833 212.5 512.5 212.5c186.667 0 349 -63 487 -189l-61 -54
c-121.333 107.333 -263.333 161 -426 161c-177.333 0 -328.833 -62.667 -454.5 -188s-188.5 -276.666 -188.5 -453.999c0 -178 62.833 -329.667 188.5 -455s277.167 -188 454.5 -188c162.667 0 304.667 53.667 426 161zM912 1519h-92l-145 106l-135 -106h-93l228 187z" />
    <glyph glyph-name="ccircumflex" unicode="&#x109;" horiz-adv-x="985" 
d="M849 209l84 -31.001c-15.333 -20.667 -32.666 -40.667 -51.999 -60c-94.667 -95.333 -209.334 -143 -344.001 -143c-133.333 0 -247.5 47.5 -342.5 142.5s-142.5 209.5 -142.5 343.5s47.5 248.333 142.5 343s209.167 142 342.5 142
c134.667 0 249.334 -47.333 344.001 -142c19.333 -19.333 36.666 -39.333 51.999 -60l-84 -31c-8.66699 10.667 -18 21.334 -28 32.001c-78.667 78 -173.334 117 -284.001 117c-110 0 -204.167 -39.167 -282.5 -117.5s-117.5 -172.833 -117.5 -283.5
s39.167 -205.167 117.5 -283.5s172.5 -117.5 282.5 -117.5c110.667 0 205.334 39.333 284.001 118c10 10 19.333 20.333 28 31zM725 1053h-92l-145 106l-135 -106h-93l228 187z" />
    <glyph glyph-name="Cdotaccent" unicode="&#x10a;" horiz-adv-x="1347" 
d="M1224 225l61 -54.001c-138 -125.333 -300.333 -188 -487 -188c-200.667 0 -371.5 70.5 -512.5 211.5s-211.5 311.833 -211.5 512.5c0 199.333 70.5 369.833 211.5 511.5s311.833 212.5 512.5 212.5c186.667 0 349 -63 487 -189l-61 -54
c-121.333 107.333 -263.333 161 -426 161c-177.333 0 -328.833 -62.667 -454.5 -188s-188.5 -276.666 -188.5 -453.999c0 -178 62.833 -329.667 188.5 -455s277.167 -188 454.5 -188c162.667 0 304.667 53.667 426 161zM727 1667.5c13.333 -13 20 -28.833 20 -47.5
s-6.66699 -34.5 -20 -47.5s-29 -19.5 -47 -19.5c-18.667 0 -34.667 6.5 -48 19.5s-20 28.833 -20 47.5s6.66699 34.5 20 47.5s29.333 19.5 48 19.5c18 0 33.667 -6.5 47 -19.5z" />
    <glyph glyph-name="cdotaccent" unicode="&#x10b;" horiz-adv-x="985" 
d="M849 209l84 -31.001c-15.333 -20.667 -32.666 -40.667 -51.999 -60c-94.667 -95.333 -209.334 -143 -344.001 -143c-133.333 0 -247.5 47.5 -342.5 142.5s-142.5 209.5 -142.5 343.5s47.5 248.333 142.5 343s209.167 142 342.5 142
c134.667 0 249.334 -47.333 344.001 -142c19.333 -19.333 36.666 -39.333 51.999 -60l-84 -31c-8.66699 10.667 -18 21.334 -28 32.001c-78.667 78 -173.334 117 -284.001 117c-110 0 -204.167 -39.167 -282.5 -117.5s-117.5 -172.833 -117.5 -283.5
s39.167 -205.167 117.5 -283.5s172.5 -117.5 282.5 -117.5c110.667 0 205.334 39.333 284.001 118c10 10 19.333 20.333 28 31zM540 1201.5c13.333 -13 20 -28.833 20 -47.5s-6.66699 -34.5 -20 -47.5s-29 -19.5 -47 -19.5c-18.667 0 -34.667 6.5 -48 19.5
s-20 28.833 -20 47.5s6.66699 34.5 20 47.5s29.333 19.5 48 19.5c18 0 33.667 -6.5 47 -19.5z" />
    <glyph glyph-name="Ccaron" unicode="&#x10c;" horiz-adv-x="1347" 
d="M1224 225l61 -54.001c-138 -125.333 -300.333 -188 -487 -188c-200.667 0 -371.5 70.5 -512.5 211.5s-211.5 311.833 -211.5 512.5c0 199.333 70.5 369.833 211.5 511.5s311.833 212.5 512.5 212.5c186.667 0 349 -63 487 -189l-61 -54
c-121.333 107.333 -263.333 161 -426 161c-177.333 0 -328.833 -62.667 -454.5 -188s-188.5 -276.666 -188.5 -453.999c0 -178 62.833 -329.667 188.5 -455s277.167 -188 454.5 -188c162.667 0 304.667 53.667 426 161zM675 1489l-228 187h93l135 -106l145 106h92z" />
    <glyph glyph-name="ccaron" unicode="&#x10d;" horiz-adv-x="985" 
d="M849 209l84 -31.001c-15.333 -20.667 -32.666 -40.667 -51.999 -60c-94.667 -95.333 -209.334 -143 -344.001 -143c-133.333 0 -247.5 47.5 -342.5 142.5s-142.5 209.5 -142.5 343.5s47.5 248.333 142.5 343s209.167 142 342.5 142
c134.667 0 249.334 -47.333 344.001 -142c19.333 -19.333 36.666 -39.333 51.999 -60l-84 -31c-8.66699 10.667 -18 21.334 -28 32.001c-78.667 78 -173.334 117 -284.001 117c-110 0 -204.167 -39.167 -282.5 -117.5s-117.5 -172.833 -117.5 -283.5
s39.167 -205.167 117.5 -283.5s172.5 -117.5 282.5 -117.5c110.667 0 205.334 39.333 284.001 118c10 10 19.333 20.333 28 31zM488 1033l-228 187h93l135 -106l145 106h92z" />
    <glyph glyph-name="Dcaron" unicode="&#x10e;" horiz-adv-x="1189" 
d="M374 1414c232.667 -1.33301 413 -66.333 541 -195c141.333 -142 212 -312.667 212 -512c0 -200.667 -70.667 -371.667 -212 -513c-128 -128 -308.333 -192.667 -541 -194h-262v1414h262zM192 1331v-1249h181c203.333 0 363.666 56.667 480.999 170
c125.333 125.333 188 277 188 455c0 177.333 -62.667 329 -188 455c-117.333 112.667 -277.666 169 -480.999 169h-181zM615 1489l-228 187h93l135 -106l145 106h92z" />
    <glyph glyph-name="dcaron" unicode="&#x10f;" horiz-adv-x="1269" 
d="M1033 0l-80 0.000976562v177c-15.333 -20.667 -32 -40.334 -50 -59.001c-94.667 -95.333 -209.334 -143 -344.001 -143c-133.333 0 -247.5 47.5 -342.5 142.5s-142.5 209.167 -142.5 342.5c0 134.667 47.5 249.334 142.5 344.001s209.167 142 342.5 142
c134.667 0 249.334 -47.333 344.001 -142c18 -18.667 34.667 -38.334 50 -59.001v669h80v-1414zM953 382.001v157.001c-14.667 78 -51.334 146.333 -110.001 205c-78.667 78.667 -173.334 118 -284.001 118s-205.167 -39.333 -283.5 -118s-117.5 -173.334 -117.5 -284.001
s39.167 -205 117.5 -283s172.833 -117 283.5 -117s205.334 39.333 284.001 118c58.667 58.667 95.334 126.667 110.001 204zM1169 1268c-13.333 2.66699 -25 9.33398 -35 20.001c-16 15.333 -24 34.333 -24 57c0 22 7.83301 40.5 23.5 55.5s34.5 22.5 56.5 22.5
c21.333 0 39.833 -7.5 55.5 -22.5s23.5 -33.5 23.5 -55.5c0 -12.667 -2 -24.334 -6 -35.001l-87 -175h-57z" />
    <glyph glyph-name="Dcroat" unicode="&#x110;" horiz-adv-x="1261" 
d="M228 667v-585h181c203.333 0 363.666 56.667 480.999 170c125.333 125.333 188 277 188 455c0 177.333 -62.667 329 -188 455c-117.333 112.667 -277.666 169 -480.999 169h-181v-584h492v-80h-492zM148 747v667h262c232.667 -1.33301 413 -66.333 541 -195
c141.333 -142 212 -312.667 212 -512c0 -200.667 -70.667 -371.667 -212 -513c-128 -128 -308.333 -192.667 -541 -194h-262v667h-128v80h128z" />
    <glyph glyph-name="dcroat" unicode="&#x111;" horiz-adv-x="1145" 
d="M953 382v157.001c-14.667 78 -51.334 146.333 -110.001 205c-78.667 78.667 -173.334 118 -284.001 118s-205.167 -39.333 -283.5 -118s-117.5 -173.334 -117.5 -284.001s39.167 -205 117.5 -283s172.833 -117 283.5 -117s205.334 39.333 284.001 118
c58.667 58.667 95.334 126.667 110.001 204zM1033 1134v-1134h-80v177c-15.333 -20.667 -32 -40.334 -50 -59.001c-94.667 -95.333 -209.334 -143 -344.001 -143c-133.333 0 -247.5 47.5 -342.5 142.5s-142.5 209.167 -142.5 342.5c0 134.667 47.5 249.334 142.5 344.001
s209.167 142 342.5 142c134.667 0 249.334 -47.333 344.001 -142c18 -18.667 34.667 -38.334 50 -59.001v389h-306v79h306v201h80v-201h114v-79h-114z" />
    <glyph glyph-name="Emacron" unicode="&#x112;" horiz-adv-x="931" 
d="M819 1414v-80h-627v-587h627v-80h-627v-587h627v-80h-707v1414h707zM205 1580h521v-62h-521v62z" />
    <glyph glyph-name="emacron" unicode="&#x113;" horiz-adv-x="1042" 
d="M154 586l762.003 -0.000976562c-18.667 60.667 -50.334 113.334 -95.001 158.001c-78.667 78.667 -173.334 118 -284.001 118s-205.334 -39.333 -284.001 -118c-46.667 -47.333 -79.667 -100 -99 -158zM139.003 504.999c-2 -14 -3.00098 -29.001 -3.00098 -45.001
c0 -110.667 39.167 -205 117.5 -283s172.833 -117 283.5 -117s205.334 39.333 284.001 118c13.333 13.333 26 27.333 38 42l85 -30c-10 -16.667 -31 -40.667 -63 -72c-94.667 -95.333 -209.334 -143 -344.001 -143c-133.333 0 -247.5 47.5 -342.5 142.5
s-142.5 209.167 -142.5 342.5c0 134.667 47.5 249.334 142.5 344.001s209.167 142 342.5 142c134.667 0 249.334 -47.333 344.001 -142c83.333 -84 125 -183.667 125 -299h-867zM269.002 1134h521v-62h-521v62z" />
    <glyph glyph-name="Ebreve" unicode="&#x114;" horiz-adv-x="931" 
d="M819 1414v-80h-627v-587h627v-80h-627v-587h627v-80h-707v1414h707zM664 1685c-9.33301 -30.667 -26.332 -58.333 -50.999 -83c-40 -40.667 -88.667 -61 -146 -61c-58.667 0 -108 20.333 -148 61c-26 26 -43.667 53.667 -53 83h70
c7.33301 -13.333 16.666 -25.666 27.999 -36.999c28 -28.667 62.333 -43 103 -43c39.333 0 73 14.333 101 43c12 11.333 21.333 23.666 28 36.999h68z" />
    <glyph glyph-name="ebreve" unicode="&#x115;" horiz-adv-x="1042" 
d="M154 586l762.003 -0.000976562c-18.667 60.667 -50.334 113.334 -95.001 158.001c-78.667 78.667 -173.334 118 -284.001 118s-205.334 -39.333 -284.001 -118c-46.667 -47.333 -79.667 -100 -99 -158zM139.003 504.999c-2 -14 -3.00098 -29.001 -3.00098 -45.001
c0 -110.667 39.167 -205 117.5 -283s172.833 -117 283.5 -117s205.334 39.333 284.001 118c13.333 13.333 26 27.333 38 42l85 -30c-10 -16.667 -31 -40.667 -63 -72c-94.667 -95.333 -209.334 -143 -344.001 -143c-133.333 0 -247.5 47.5 -342.5 142.5
s-142.5 209.167 -142.5 342.5c0 134.667 47.5 249.334 142.5 344.001s209.167 142 342.5 142c134.667 0 249.334 -47.333 344.001 -142c83.333 -84 125 -183.667 125 -299h-867zM728.002 1219c-10 -30.667 -26.998 -58.333 -50.998 -83c-40 -40.667 -88.667 -61 -146 -61
c-58.667 0 -108 20.333 -148 61c-26 26 -43.667 53.667 -53 83h70c7.33301 -13.333 16.666 -25.666 27.999 -36.999c28 -28.667 62.333 -43 103 -43c39.333 0 73 14.333 101 43c11.333 11.333 20.666 23.666 27.999 36.999h68z" />
    <glyph glyph-name="Edotaccent" unicode="&#x116;" horiz-adv-x="931" 
d="M819 1414v-80h-627v-587h627v-80h-627v-587h627v-80h-707v1414h707zM513 1667.5c13.333 -13 20 -28.833 20 -47.5s-6.66699 -34.5 -20 -47.5s-29 -19.5 -47 -19.5c-18.667 0 -34.667 6.5 -48 19.5s-20 28.833 -20 47.5s6.66699 34.5 20 47.5s29.333 19.5 48 19.5
c18 0 33.667 -6.5 47 -19.5z" />
    <glyph glyph-name="edotaccent" unicode="&#x117;" horiz-adv-x="1042" 
d="M154 586l762.003 -0.000976562c-18.667 60.667 -50.334 113.334 -95.001 158.001c-78.667 78.667 -173.334 118 -284.001 118s-205.334 -39.333 -284.001 -118c-46.667 -47.333 -79.667 -100 -99 -158zM139.003 504.999c-2 -14 -3.00098 -29.001 -3.00098 -45.001
c0 -110.667 39.167 -205 117.5 -283s172.833 -117 283.5 -117s205.334 39.333 284.001 118c13.333 13.333 26 27.333 38 42l85 -30c-10 -16.667 -31 -40.667 -63 -72c-94.667 -95.333 -209.334 -143 -344.001 -143c-133.333 0 -247.5 47.5 -342.5 142.5
s-142.5 209.167 -142.5 342.5c0 134.667 47.5 249.334 142.5 344.001s209.167 142 342.5 142c134.667 0 249.334 -47.333 344.001 -142c83.333 -84 125 -183.667 125 -299h-867zM577.002 1201.5c13.333 -13 20 -28.833 20 -47.5s-6.66699 -34.5 -20 -47.5
s-29 -19.5 -47 -19.5c-18.667 0 -34.667 6.5 -48 19.5s-20 28.833 -20 47.5s6.66699 34.5 20 47.5s29.333 19.5 48 19.5c18 0 33.667 -6.5 47 -19.5z" />
    <glyph glyph-name="Eogonek" unicode="&#x118;" horiz-adv-x="931" 
d="M643 0h-531.001v1414h707v-80h-627v-587h627v-80h-627v-587h627v-80h-59c-36 -12 -62.333 -25.333 -79 -40c-19.333 -16.667 -29.666 -37.334 -30.999 -62.001v-6c0 -22 7.33301 -41.667 22 -59c16 -18.667 35.333 -28.667 58 -30c2 -0.666992 4 -1 6 -1
c20.667 0 42.667 7.66699 66 23l17 -48l-4 -3c-21.333 -18.667 -47.333 -28 -78 -28h-12c-38 2.66699 -70 19 -96 49c-23.333 27.333 -35 58.333 -35 93c0 4.66699 0.333008 9.33398 1 14.001c3.33301 39.333 19.333 72 48 98z" />
    <glyph glyph-name="eogonek" unicode="&#x119;" horiz-adv-x="1038" 
d="M154 586l762.003 -0.000976562c-18.667 60.667 -50.334 113.334 -95.001 158.001c-78.667 78.667 -173.334 118 -284.001 118s-205.334 -39.333 -284.001 -118c-46.667 -47.333 -79.667 -100 -99 -158zM691.003 -2.00098
c-48 -15.333 -99.3359 -23.0029 -154.003 -23.0029c-133.333 0 -247.5 47.5 -342.5 142.5s-142.5 209.167 -142.5 342.5c0 134.667 47.5 249.334 142.5 344.001s209.167 142 342.5 142c134.667 0 249.334 -47.333 344.001 -142c83.333 -84 125 -183.667 125 -299h-867
c-2 -14 -3 -29 -3 -45c0 -110.667 39.167 -205 117.5 -283s172.833 -117 283.5 -117s205.334 39.333 284.001 118c13.333 13.333 26 27.333 38 42l85 -30c-10 -16.667 -31 -40.667 -63 -72c-13.333 -13.333 -27 -25.666 -41 -36.999
c-67.333 -60 -101.666 -102.333 -102.999 -127v-6c0 -22 7.33301 -41.667 22 -59c16 -18.667 35.333 -28.667 58 -30c2 -0.666992 4 -1 6 -1c20.667 0 42.667 7.66699 66 23l17 -48l-4 -3c-21.333 -18.667 -47.333 -28 -78 -28h-12c-38 2.66699 -70 19 -96 49
c-23.333 27.333 -35 58.333 -35 93c0 4.66699 0.333008 9.33398 1 14.001c1.33301 14.667 4.33301 28 9 40z" />
    <glyph glyph-name="Ecaron" unicode="&#x11a;" horiz-adv-x="931" 
d="M819 1414v-80h-627v-587h627v-80h-627v-587h627v-80h-707v1414h707zM461 1489l-228 187h93l135 -106l145 106h92z" />
    <glyph glyph-name="ecaron" unicode="&#x11b;" horiz-adv-x="1042" 
d="M154 586l762.003 -0.000976562c-18.667 60.667 -50.334 113.334 -95.001 158.001c-78.667 78.667 -173.334 118 -284.001 118s-205.334 -39.333 -284.001 -118c-46.667 -47.333 -79.667 -100 -99 -158zM139.003 504.999c-2 -14 -3.00098 -29.001 -3.00098 -45.001
c0 -110.667 39.167 -205 117.5 -283s172.833 -117 283.5 -117s205.334 39.333 284.001 118c13.333 13.333 26 27.333 38 42l85 -30c-10 -16.667 -31 -40.667 -63 -72c-94.667 -95.333 -209.334 -143 -344.001 -143c-133.333 0 -247.5 47.5 -342.5 142.5
s-142.5 209.167 -142.5 342.5c0 134.667 47.5 249.334 142.5 344.001s209.167 142 342.5 142c134.667 0 249.334 -47.333 344.001 -142c83.333 -84 125 -183.667 125 -299h-867zM525.002 1033l-228 187h93l135 -106l145 106h92z" />
    <glyph glyph-name="Gcircumflex" unicode="&#x11c;" horiz-adv-x="1359" 
d="M1279 176c-134 -128.667 -294.333 -193.001 -481 -193.001c-200.667 0 -371.5 70.5 -512.5 211.5s-211.5 311.833 -211.5 512.5c0 199.333 70.5 369.833 211.5 511.5s311.833 212.5 512.5 212.5c186.667 0 349 -63 487 -189l-61 -54
c-121.333 107.333 -263.333 161 -426 161c-177.333 0 -328.833 -62.667 -454.5 -188s-188.5 -276.666 -188.5 -453.999c0 -178 62.833 -329.667 188.5 -455s277.167 -188 454.5 -188c152 0 286 46.667 402 140v431h79v-459zM912 1519h-92l-145 106l-135 -106h-93l228 187z
" />
    <glyph glyph-name="gcircumflex" unicode="&#x11d;" horiz-adv-x="1083" 
d="M930 543c-15.333 76 -51.667 143.001 -109 201.001c-78.667 78.667 -173.334 118 -284.001 118s-205.167 -39.333 -283.5 -118s-117.5 -173.334 -117.5 -284.001s39.167 -205.167 117.5 -283.5s172.833 -117.5 283.5 -117.5s205.334 39.333 284.001 118
c56.667 56.667 93 123 109 199v167zM928.999 172.001c-15.333 -18.667 -31.335 -36.666 -48.002 -53.999c-94.667 -95.333 -209.334 -143 -344.001 -143c-133.333 0 -247.5 47.5 -342.5 142.5s-142.5 209.167 -142.5 342.5c0 134.667 47.5 249.167 142.5 343.5
s209.167 141.5 342.5 141.5c134.667 0 249.334 -47 344.001 -141c18 -18.667 34.667 -38.334 50 -59.001v123h80v-674c0 -130.667 -46.333 -242 -139 -334c-94.667 -95.333 -209 -143 -343 -143s-248.667 47.667 -344 143c-19.333 19.333 -36.666 39.333 -51.999 60l84 31
c8.66699 -10.667 18.334 -21 29.001 -31c78 -78.667 172.333 -118 283 -118c110 0 204.333 39.333 283 118c71.333 71.333 110.333 155.333 117 252zM763.997 1053h-92l-145 106l-135 -106h-93l228 187z" />
    <glyph glyph-name="Gbreve" unicode="&#x11e;" horiz-adv-x="1359" 
d="M1279 176c-134 -128.667 -294.333 -193.001 -481 -193.001c-200.667 0 -371.5 70.5 -512.5 211.5s-211.5 311.833 -211.5 512.5c0 199.333 70.5 369.833 211.5 511.5s311.833 212.5 512.5 212.5c186.667 0 349 -63 487 -189l-61 -54
c-121.333 107.333 -263.333 161 -426 161c-177.333 0 -328.833 -62.667 -454.5 -188s-188.5 -276.666 -188.5 -453.999c0 -178 62.833 -329.667 188.5 -455s277.167 -188 454.5 -188c152 0 286 46.667 402 140v431h79v-459zM878 1685
c-9.33301 -30.667 -26.332 -58.333 -50.999 -83c-40 -40.667 -88.667 -61 -146 -61c-58.667 0 -108 20.333 -148 61c-26 26 -43.667 53.667 -53 83h70c7.33301 -13.333 16.666 -25.666 27.999 -36.999c28 -28.667 62.333 -43 103 -43c39.333 0 73 14.333 101 43
c12 11.333 21.333 23.666 28 36.999h68z" />
    <glyph glyph-name="gbreve" unicode="&#x11f;" horiz-adv-x="1083" 
d="M930 543c-15.333 76 -51.667 143.001 -109 201.001c-78.667 78.667 -173.334 118 -284.001 118s-205.167 -39.333 -283.5 -118s-117.5 -173.334 -117.5 -284.001s39.167 -205.167 117.5 -283.5s172.833 -117.5 283.5 -117.5s205.334 39.333 284.001 118
c56.667 56.667 93 123 109 199v167zM928.999 172.001c-15.333 -18.667 -31.335 -36.666 -48.002 -53.999c-94.667 -95.333 -209.334 -143 -344.001 -143c-133.333 0 -247.5 47.5 -342.5 142.5s-142.5 209.167 -142.5 342.5c0 134.667 47.5 249.167 142.5 343.5
s209.167 141.5 342.5 141.5c134.667 0 249.334 -47 344.001 -141c18 -18.667 34.667 -38.334 50 -59.001v123h80v-674c0 -130.667 -46.333 -242 -139 -334c-94.667 -95.333 -209 -143 -343 -143s-248.667 47.667 -344 143c-19.333 19.333 -36.666 39.333 -51.999 60l84 31
c8.66699 -10.667 18.334 -21 29.001 -31c78 -78.667 172.333 -118 283 -118c110 0 204.333 39.333 283 118c71.333 71.333 110.333 155.333 117 252zM730.997 1219c-10 -30.667 -27.333 -58.333 -52 -83c-40 -40.667 -88.667 -61 -146 -61c-58.667 0 -108 20.333 -148 61
c-25.333 26 -43 53.667 -53 83h71c6.66699 -13.333 15.667 -25.666 27 -36.999c28 -28.667 62.333 -43 103 -43c39.333 0 73 14.333 101 43c12 11.333 21.333 23.666 28 36.999h69z" />
    <glyph glyph-name="Gdotaccent" unicode="&#x120;" horiz-adv-x="1359" 
d="M1279 176c-134 -128.667 -294.333 -193.001 -481 -193.001c-200.667 0 -371.5 70.5 -512.5 211.5s-211.5 311.833 -211.5 512.5c0 199.333 70.5 369.833 211.5 511.5s311.833 212.5 512.5 212.5c186.667 0 349 -63 487 -189l-61 -54
c-121.333 107.333 -263.333 161 -426 161c-177.333 0 -328.833 -62.667 -454.5 -188s-188.5 -276.666 -188.5 -453.999c0 -178 62.833 -329.667 188.5 -455s277.167 -188 454.5 -188c152 0 286 46.667 402 140v431h79v-459zM727 1667.5c13.333 -13 20 -28.833 20 -47.5
s-6.66699 -34.5 -20 -47.5s-29 -19.5 -47 -19.5c-18.667 0 -34.667 6.5 -48 19.5s-20 28.833 -20 47.5s6.66699 34.5 20 47.5s29.333 19.5 48 19.5c18 0 33.667 -6.5 47 -19.5z" />
    <glyph glyph-name="gdotaccent" unicode="&#x121;" horiz-adv-x="1083" 
d="M930 543c-15.333 76 -51.667 143.001 -109 201.001c-78.667 78.667 -173.334 118 -284.001 118s-205.167 -39.333 -283.5 -118s-117.5 -173.334 -117.5 -284.001s39.167 -205.167 117.5 -283.5s172.833 -117.5 283.5 -117.5s205.334 39.333 284.001 118
c56.667 56.667 93 123 109 199v167zM928.999 172.001c-15.333 -18.667 -31.335 -36.666 -48.002 -53.999c-94.667 -95.333 -209.334 -143 -344.001 -143c-133.333 0 -247.5 47.5 -342.5 142.5s-142.5 209.167 -142.5 342.5c0 134.667 47.5 249.167 142.5 343.5
s209.167 141.5 342.5 141.5c134.667 0 249.334 -47 344.001 -141c18 -18.667 34.667 -38.334 50 -59.001v123h80v-674c0 -130.667 -46.333 -242 -139 -334c-94.667 -95.333 -209 -143 -343 -143s-248.667 47.667 -344 143c-19.333 19.333 -36.666 39.333 -51.999 60l84 31
c8.66699 -10.667 18.334 -21 29.001 -31c78 -78.667 172.333 -118 283 -118c110 0 204.333 39.333 283 118c71.333 71.333 110.333 155.333 117 252zM578.997 1201.5c13.333 -13 20 -28.833 20 -47.5s-6.66699 -34.5 -20 -47.5s-29 -19.5 -47 -19.5
c-18.667 0 -34.667 6.5 -48 19.5s-20 28.833 -20 47.5s6.66699 34.5 20 47.5s29.333 19.5 48 19.5c18 0 33.667 -6.5 47 -19.5z" />
    <glyph glyph-name="Gcommaaccent" unicode="&#x122;" horiz-adv-x="1359" 
d="M729 -14c-171.333 14.667 -319.002 84.3311 -443.002 208.998c-141.333 140.667 -212 311.334 -212 512.001c0 199.333 70.5 369.833 211.5 511.5s311.833 212.5 512.5 212.5c186.667 0 349 -63 487 -189l-61 -54c-121.333 107.333 -263.333 161 -426 161
c-177.333 0 -328.833 -62.667 -454.5 -188s-188.5 -276.666 -188.5 -453.999c0 -178 62.833 -329.667 188.5 -455s277.167 -188 454.5 -188c152 0 286 46.667 402 140v431h79v-459c-134 -128.667 -294.333 -193 -481 -193h-5l-13 -35
c61.333 -4.66699 100.666 -25 117.999 -61c9.33301 -19.333 14 -38 14 -56c0 -15.333 -3.66699 -30 -11 -44c-15.333 -30 -43.666 -48.333 -84.999 -55c-15.333 -2.66699 -29.666 -4 -42.999 -4c-22.667 0 -42 3.66699 -58 11c-26 11.333 -48.333 24.333 -67 39l37 40
c22.667 -23.333 47 -35 73 -35c6.66699 0 13.667 1 21 3c31.333 7.33301 47 26.333 47 57v6c-2 28.667 -35 43 -99 43c-11.333 0 -23.666 -0.333008 -36.999 -1z" />
    <glyph glyph-name="gcommaaccent" unicode="&#x123;" horiz-adv-x="1083" 
d="M930 543c-15.333 76 -51.667 143.001 -109 201.001c-78.667 78.667 -173.334 118 -284.001 118s-205.167 -39.333 -283.5 -118s-117.5 -173.334 -117.5 -284.001s39.167 -205.167 117.5 -283.5s172.833 -117.5 283.5 -117.5s205.334 39.333 284.001 118
c56.667 56.667 93 123 109 199v167zM928.999 172.001c-15.333 -18.667 -31.335 -36.666 -48.002 -53.999c-94.667 -95.333 -209.334 -143 -344.001 -143c-133.333 0 -247.5 47.5 -342.5 142.5s-142.5 209.167 -142.5 342.5c0 134.667 47.5 249.167 142.5 343.5
s209.167 141.5 342.5 141.5c134.667 0 249.334 -47 344.001 -141c18 -18.667 34.667 -38.334 50 -59.001v123h80v-674c0 -130.667 -46.333 -242 -139 -334c-94.667 -95.333 -209 -143 -343 -143s-248.667 47.667 -344 143c-19.333 19.333 -36.666 39.333 -51.999 60l84 31
c8.66699 -10.667 18.334 -21 29.001 -31c78 -78.667 172.333 -118 283 -118c110 0 204.333 39.333 283 118c71.333 71.333 110.333 155.333 117 252zM544.997 1196c13.333 -2.66699 25 -9.33398 35 -20.001c16 -15.333 24 -34.333 24 -57c0 -22 -7.83301 -40.5 -23.5 -55.5
s-34.5 -22.5 -56.5 -22.5c-21.333 0 -39.833 7.5 -55.5 22.5s-23.5 33.5 -23.5 55.5c0 12.667 2 24.334 6 35.001l87 135h57z" />
    <glyph glyph-name="Hcircumflex" unicode="&#x124;" horiz-adv-x="1072" 
d="M174 667v-667h-80v1414h80v-667h724v667h80v-1414h-80v667h-724zM769 1519h-92l-145 106l-135 -106h-93l228 187z" />
    <glyph glyph-name="hcircumflex" unicode="&#x125;" horiz-adv-x="859" 
d="M94 1414l79.999 -0.00195312v-591c66.667 64.667 147.334 97 242.001 97c102 0 185.167 -32.167 249.5 -96.5s97.5 -145.166 99.5 -242.499v-581h-80v573c0 74 -26.667 137 -80 189s-116.333 78 -189 78c-73.333 0 -136.333 -25.667 -189 -77
c-24 -23.333 -41.667 -47.666 -53 -72.999v-690h-80v1414zM661.999 1522h-92l-145 106l-135 -106h-93l228 187z" />
    <glyph glyph-name="Hbar" unicode="&#x126;" horiz-adv-x="1072" 
d="M978 1134v-1134h-80v667h-724v-667h-80v1134h-83v79h83v201h80v-201h724v201h80v-201h83v-79h-83zM174 1134v-387h724v387h-724z" />
    <glyph glyph-name="hbar" unicode="&#x127;" horiz-adv-x="839" 
d="M84 1213l-0.000976562 200.998h80v-201h194v-79h-194v-311c66.667 64.667 147.334 97 242.001 97c102 0 185.167 -32.167 249.5 -96.5s97.5 -145.166 99.5 -242.499v-581h-80v573c0 74 -26.667 137 -80 189s-116.333 78 -189 78c-73.333 0 -136.333 -25.667 -189 -77
c-24 -23.333 -41.667 -47.666 -53 -72.999v-690h-80v1134h-100v79h100z" />
    <glyph glyph-name="Itilde" unicode="&#x128;" horiz-adv-x="324" 
d="M203 1414v-1414h-80v1414h80zM172 1633c39.333 -28.667 66.665 -43.001 81.998 -43.001h4c12 4.66699 20.667 15.334 26 32.001c2.66699 9.33301 4 25.666 4 48.999l66 -13c-1.33301 -24.667 -4.66602 -45 -9.99902 -61c-12 -36.667 -32.667 -61.334 -62 -74.001
c-8 -2.66699 -16.333 -4 -25 -4c-27.333 0 -62.333 15 -105 45c-39.333 29.333 -66.666 44 -81.999 44c-2 0 -3.33301 -0.333008 -4 -1c-11.333 -4 -19.666 -14.667 -24.999 -32c-3.33301 -9.33301 -5 -25.666 -5 -48.999l-65 14c0.666992 24.667 3.66699 44.667 9 60
c12 36.667 33 61.334 63 74.001c7.33301 3.33301 15.666 5 24.999 5c27.333 0 62 -15.333 104 -46z" />
    <glyph glyph-name="itilde" unicode="&#x129;" horiz-adv-x="317" 
d="M198 868v-868h-79v868h79zM168 1167c39.333 -28.667 66.665 -43.001 81.998 -43.001h4c12 4.66699 20.667 15.334 26 32.001c2.66699 9.33301 4 25.666 4 48.999l66 -13c-1.33301 -24.667 -4.66602 -45 -9.99902 -61c-12 -36.667 -32.667 -61.334 -62 -74.001
c-8 -2.66699 -16.333 -4 -25 -4c-27.333 0 -62.333 15 -105 45c-39.333 29.333 -66.666 44 -81.999 44c-2 0 -3.33301 -0.333008 -4 -1c-11.333 -4 -19.666 -14.667 -24.999 -32c-3.33301 -9.33301 -5 -25.666 -5 -48.999l-65 14c0.666992 24.667 3.66699 44.667 9 60
c12 36.667 33 61.334 63 74.001c7.33301 3.33301 15.666 5 24.999 5c27.333 0 62 -15.333 104 -46z" />
    <glyph glyph-name="Imacron" unicode="&#x12a;" horiz-adv-x="324" 
d="M203 1414v-1414h-80v1414h80zM-48 1580h421v-62h-421v62z" />
    <glyph glyph-name="imacron" unicode="&#x12b;" horiz-adv-x="317" 
d="M198 868v-868h-79v868h79zM-52 1134h421v-62h-421v62z" />
    <glyph glyph-name="Ibreve" unicode="&#x12c;" horiz-adv-x="324" 
d="M202 1414v-1414h-80v1414h80zM361 1685c-9.33301 -30.667 -26.332 -58.333 -50.999 -83c-40 -40.667 -88.667 -61 -146 -61c-58.667 0 -108 20.333 -148 61c-26 26 -43.667 53.667 -53 83h70c7.33301 -13.333 16.666 -25.666 27.999 -36.999
c28 -28.667 62.333 -43 103 -43c39.333 0 73 14.333 101 43c12 11.333 21.333 23.666 28 36.999h68z" />
    <glyph glyph-name="ibreve" unicode="&#x12d;" horiz-adv-x="317" 
d="M198 868v-868h-79v868h79zM357 1219c-9.33301 -30.667 -26.332 -58.333 -50.999 -83c-40 -40.667 -88.667 -61 -146 -61c-58.667 0 -108 20.333 -148 61c-26 26 -43.667 53.667 -53 83h70c7.33301 -13.333 16.666 -25.666 27.999 -36.999c28 -28.667 62.333 -43 103 -43
c39.333 0 73 14.333 101 43c12 11.333 21.333 23.666 28 36.999h68z" />
    <glyph glyph-name="Iogonek" unicode="&#x12e;" horiz-adv-x="324" 
d="M118 34l-0.000976562 1380h80v-1414h-59c-36 -12 -62.333 -25.333 -79 -40c-19.333 -16.667 -29.666 -37.334 -30.999 -62.001v-6c0 -22 7.33301 -41.667 22 -59c16 -18.667 35.333 -28.667 58 -30c2 -0.666992 4 -1 6 -1c20.667 0 42.667 7.66699 66 23l17 -48l-4 -3
c-21.333 -18.667 -47.333 -28 -78 -28h-12c-38 2.66699 -70 19 -96 49c-23.333 27.333 -35 58.333 -35 93c0 4.66699 0.333008 9.33398 1 14.001c3.33301 40.667 20 74 50 100c25.333 21.333 53 32 83 32h11z" />
    <glyph glyph-name="iogonek" unicode="&#x12f;" horiz-adv-x="297" 
d="M200.5 1152c15.667 -15.333 23.5 -33.666 23.5 -54.999c0 -22.667 -7.83301 -41.667 -23.5 -57s-34.167 -23 -55.5 -23c-22 0 -40.833 7.66699 -56.5 23s-23.5 34.333 -23.5 57c0 21.333 7.83301 39.666 23.5 54.999s34.5 23 56.5 23c21.333 0 39.833 -7.66699 55.5 -23z
M105 31v836.999h79v-868h-19c-36 -12 -62.333 -25.333 -79 -40c-19.333 -16.667 -29.666 -37.334 -30.999 -62.001v-6c0 -22 7.33301 -41.667 22 -59c16 -18.667 35.333 -28.667 58 -30c2 -0.666992 4 -1 6 -1c20.667 0 42.667 7.66699 66 23l17 -48l-4 -3
c-21.333 -18.667 -47.333 -28 -78 -28h-12c-38 2.66699 -70 19 -96 49c-23.333 27.333 -35 58.333 -35 93c0 4.66699 0.333008 9.33398 1 14.001c3.33301 40.667 20 74 50 100c17.333 14.667 35.666 24.334 54.999 29.001z" />
    <glyph glyph-name="Idotaccent" unicode="&#x130;" horiz-adv-x="324" 
d="M203 1414v-1414h-80v1414h80zM210 1667.5c13.333 -13 20 -28.833 20 -47.5s-6.66699 -34.5 -20 -47.5s-29 -19.5 -47 -19.5c-18.667 0 -34.667 6.5 -48 19.5s-20 28.833 -20 47.5s6.66699 34.5 20 47.5s29.333 19.5 48 19.5c18 0 33.667 -6.5 47 -19.5z" />
    <glyph glyph-name="dotlessi" unicode="&#x131;" horiz-adv-x="317" 
d="M198 868v-868h-79v868h79z" />
    <glyph glyph-name="IJ" unicode="&#x132;" horiz-adv-x="630" 
d="M202 1414v-1414h-80v1414h80zM516 -27c0 -72 -24.333 -131.333 -73 -178s-108.667 -70 -180 -70v73c48.667 0 90 16.667 124 50c32.667 32.667 49 77.667 49 135v1431h80v-1441z" />
    <glyph glyph-name="ij" unicode="&#x133;" horiz-adv-x="601" 
d="M198 868v-868h-79v868h79zM214.5 1152c15.667 -15.333 23.5 -33.666 23.5 -54.999c0 -22.667 -7.83301 -41.667 -23.5 -57s-34.167 -23 -55.5 -23c-22 0 -40.833 7.66699 -56.5 23s-23.5 34.333 -23.5 57c0 21.333 7.83301 39.666 23.5 54.999s34.5 23 56.5 23
c21.333 0 39.833 -7.66699 55.5 -23zM306 -122c71.333 8 107 48 107 120v870h79v-868c0 -119.333 -62 -184 -186 -194v72zM508.5 1152c15.667 -15.333 23.5 -33.666 23.5 -54.999c0 -22.667 -7.83301 -41.667 -23.5 -57s-34.167 -23 -55.5 -23
c-22 0 -40.833 7.66699 -56.5 23s-23.5 34.333 -23.5 57c0 21.333 7.83301 39.666 23.5 54.999s34.5 23 56.5 23c21.333 0 39.833 -7.66699 55.5 -23z" />
    <glyph glyph-name="Jcircumflex" unicode="&#x134;" horiz-adv-x="306" 
d="M192 -27c0 -72 -24.333 -132.5 -73 -181.5s-108.667 -73.5 -180 -73.5v80c48.667 0 90 16.667 124 50c32.667 32.667 49 77.667 49 135v1431h80v-1441zM398 1519h-92l-145 106l-135 -106h-93l228 187z" />
    <glyph glyph-name="jcircumflex" unicode="&#x135;" horiz-adv-x="284" 
d="M-11 -122c71.333 8 107 48 107 120v870h79v-868c0 -124 -62 -191 -186 -201v79zM364 1053h-92l-145 106l-135 -106h-93l228 187z" />
    <glyph glyph-name="Kcommaaccent" unicode="&#x136;" horiz-adv-x="999" 
d="M762 1414l-367 -531l618 -883h-97l-572 817l-152 -218v-599h-80v1414h80v-677l473 677h97zM434 -50c50 0 84.668 -7.66602 104.001 -22.999c26.667 -20.667 40 -45.334 40 -74.001v-9c-3.33301 -32.667 -23.666 -62.667 -60.999 -90
c-32.667 -18.667 -67.334 -28 -104.001 -28c-20.667 0 -42.334 3 -65.001 9l17 51c18.667 -7.33301 37 -11 55 -11c20.667 0 40.667 5 60 15c16.667 12 26.667 26.333 30 43c0.666992 3.33301 1 7 1 11c0 12 -4.66699 22.667 -14 32c-12 11.333 -33 17.333 -63 18v56z" />
    <glyph glyph-name="kcommaaccent" unicode="&#x137;" horiz-adv-x="635" 
d="M522 868l-214 -265l341 -603h-98l-295 539l-77 -96v-443h-80v1237h80v-667l241 298h102zM334 -50c50 0 84.668 -7.66602 104.001 -22.999c26.667 -20.667 40 -45.334 40 -74.001v-9c-3.33301 -32.667 -23.666 -62.667 -60.999 -90
c-32.667 -18.667 -67.334 -28 -104.001 -28c-20.667 0 -42.334 3 -65.001 9l17 51c18.667 -7.33301 37 -11 55 -11c20.667 0 40.667 5 60 15c16.667 12 26.667 26.333 30 43c0.666992 3.33301 1 7 1 11c0 12 -4.66699 22.667 -14 32c-12 11.333 -33 17.333 -63 18v56z" />
    <glyph glyph-name="kgreenlandic" unicode="&#x138;" horiz-adv-x="635" 
d="M522 868l-214 -265l341 -603h-98l-295 539l-77 -96v-443h-80v868h80v-298l241 298h102z" />
    <glyph glyph-name="Lacute" unicode="&#x139;" horiz-adv-x="783" 
d="M112 0v1414h80v-1334h539v-80h-619zM616 1683l-217 -165h-74l144 165h147z" />
    <glyph glyph-name="lacute" unicode="&#x13a;" horiz-adv-x="300" 
d="M191 1414v-1414h-80v1414h80zM296 1719l-217 -165h-74l144 165h147z" />
    <glyph glyph-name="Lcommaaccent" unicode="&#x13b;" horiz-adv-x="783" 
d="M112 0v1414h80v-1334h539v-80h-619zM334 -50c50 0 84.668 -7.66602 104.001 -22.999c26.667 -20.667 40 -45.334 40 -74.001v-9c-3.33301 -32.667 -23.666 -62.667 -60.999 -90c-32.667 -18.667 -67.334 -28 -104.001 -28c-20.667 0 -42.334 3 -65.001 9l17 51
c18.667 -7.33301 37 -11 55 -11c20.667 0 40.667 5 60 15c16.667 12 26.667 26.333 30 43c0.666992 3.33301 1 7 1 11c0 12 -4.66699 22.667 -14 32c-12 11.333 -33 17.333 -63 18v56z" />
    <glyph glyph-name="lcommaaccent" unicode="&#x13c;" horiz-adv-x="274" 
d="M177 1414v-1414h-80v1414h80zM108 -50c50 0 84.668 -7.66602 104.001 -22.999c26.667 -20.667 40 -45.334 40 -74.001v-9c-3.33301 -32.667 -23.666 -62.667 -60.999 -90c-32.667 -18.667 -67.334 -28 -104.001 -28c-20.667 0 -42.334 3 -65.001 9l17 51
c18.667 -7.33301 37 -11 55 -11c20.667 0 40.667 5 60 15c16.667 12 26.667 26.333 30 43c0.666992 3.33301 1 7 1 11c0 12 -4.66699 22.667 -14 32c-12 11.333 -33 17.333 -63 18v56z" />
    <glyph glyph-name="Lcaron" unicode="&#x13d;" horiz-adv-x="783" 
d="M112 0v1414h80v-1334h539v-80h-619zM589 1268c-13.333 2.66699 -25 9.33398 -35 20.001c-16 15.333 -24 34.333 -24 57c0 22 7.83301 40.5 23.5 55.5s34.5 22.5 56.5 22.5c21.333 0 39.833 -7.5 55.5 -22.5s23.5 -33.5 23.5 -55.5c0 -12.667 -2 -24.334 -6 -35.001
l-87 -175h-57z" />
    <glyph glyph-name="lcaron" unicode="&#x13e;" horiz-adv-x="439" 
d="M192 1414v-1414h-80v1414h80zM339 1268c-13.333 2.66699 -25 9.33398 -35 20.001c-16 15.333 -24 34.333 -24 57c0 22 7.83301 40.5 23.5 55.5s34.5 22.5 56.5 22.5c21.333 0 39.833 -7.5 55.5 -22.5s23.5 -33.5 23.5 -55.5c0 -12.667 -2 -24.334 -6 -35.001l-87 -175
h-57z" />
    <glyph glyph-name="Ldot" unicode="&#x13f;" horiz-adv-x="783" 
d="M112 0v1414h80v-1334h539v-80h-619zM671 754.5c13.333 -13 20 -28.833 20 -47.5s-6.66699 -34.5 -20 -47.5s-29 -19.5 -47 -19.5c-18.667 0 -34.667 6.5 -48 19.5s-20 28.833 -20 47.5s6.66699 34.5 20 47.5s29.333 19.5 48 19.5c18 0 33.667 -6.5 47 -19.5z" />
    <glyph glyph-name="ldot" unicode="&#x140;" horiz-adv-x="440" 
d="M179 1414v-1414h-80v1414h80zM394 754.5c13.333 -13 20 -28.833 20 -47.5s-6.66699 -34.5 -20 -47.5s-29 -19.5 -47 -19.5c-18.667 0 -34.667 6.5 -48 19.5s-20 28.833 -20 47.5s6.66699 34.5 20 47.5s29.333 19.5 48 19.5c18 0 33.667 -6.5 47 -19.5z" />
    <glyph glyph-name="Lslash" unicode="&#x141;" horiz-adv-x="871" 
d="M282 696l402 327v-94l-402 -327v-522h539v-80h-619v536l-202 -164v94l202 164v784h80v-718z" />
    <glyph glyph-name="lslash" unicode="&#x142;" horiz-adv-x="376" 
d="M148 712v702h80v-637l148 121v-94l-148 -121v-683h-80v618l-148 -121v94z" />
    <glyph glyph-name="Nacute" unicode="&#x143;" horiz-adv-x="1339" 
d="M210 1414l940 -1317v1317h80v-1414h-123l-918 1286v-1286h-80v1414h101zM864 1683l-217 -165h-74l144 165h147z" />
    <glyph glyph-name="nacute" unicode="&#x144;" horiz-adv-x="879" 
d="M179 674v-674h-80v868h80v-56c72 72 156 108 252 108c102.667 0 186.167 -32.167 250.5 -96.5s97.166 -145.166 98.499 -242.499v-581h-79v573c0 74 -26.667 137 -80 189s-116.666 78 -189.999 78c-72.667 0 -135.667 -25.667 -189 -77
c-28.667 -28.667 -49.667 -58.334 -63 -89.001zM634 1217l-217 -165h-74l144 165h147z" />
    <glyph glyph-name="Ncommaaccent" unicode="&#x145;" horiz-adv-x="1339" 
d="M210 1414l940 -1317v1317h80v-1414h-123l-918 1286v-1286h-80v1414h101zM608 -50c50 0 84.668 -7.66602 104.001 -22.999c26.667 -20.667 40 -45.334 40 -74.001v-9c-3.33301 -32.667 -23.666 -62.667 -60.999 -90c-32.667 -18.667 -67.334 -28 -104.001 -28
c-20.667 0 -42.334 3 -65.001 9l17 51c18.667 -7.33301 37 -11 55 -11c20.667 0 40.667 5 60 15c16.667 12 26.667 26.333 30 43c0.666992 3.33301 1 7 1 11c0 12 -4.66699 22.667 -14 32c-12 11.333 -33 17.333 -63 18v56z" />
    <glyph glyph-name="ncommaaccent" unicode="&#x146;" horiz-adv-x="879" 
d="M179 674v-674h-80v868h80v-56c72 72 156 108 252 108c102.667 0 186.167 -32.167 250.5 -96.5s97.166 -145.166 98.499 -242.499v-581h-79v573c0 74 -26.667 137 -80 189s-116.666 78 -189.999 78c-72.667 0 -135.667 -25.667 -189 -77
c-28.667 -28.667 -49.667 -58.334 -63 -89.001zM408 -50c50 0 84.668 -7.66602 104.001 -22.999c26.667 -20.667 40 -45.334 40 -74.001v-9c-3.33301 -32.667 -23.666 -62.667 -60.999 -90c-32.667 -18.667 -67.334 -28 -104.001 -28c-20.667 0 -42.334 3 -65.001 9l17 51
c18.667 -7.33301 37 -11 55 -11c20.667 0 40.667 5 60 15c16.667 12 26.667 26.333 30 43c0.666992 3.33301 1 7 1 11c0 12 -4.66699 22.667 -14 32c-12 11.333 -33 17.333 -63 18v56z" />
    <glyph glyph-name="Ncaron" unicode="&#x147;" horiz-adv-x="1339" 
d="M210 1414l940 -1317v1317h80v-1414h-123l-918 1286v-1286h-80v1414h101zM665 1489l-228 187h93l135 -106l145 106h92z" />
    <glyph glyph-name="ncaron" unicode="&#x148;" horiz-adv-x="879" 
d="M179 674v-674h-80v868h80v-56c72 72 156 108 252 108c102.667 0 186.167 -32.167 250.5 -96.5s97.166 -145.166 98.499 -242.499v-581h-79v573c0 74 -26.667 137 -80 189s-116.666 78 -189.999 78c-72.667 0 -135.667 -25.667 -189 -77
c-28.667 -28.667 -49.667 -58.334 -63 -89.001zM435 1033l-228 187h93l135 -106l145 106h92z" />
    <glyph glyph-name="napostrophe" unicode="&#x149;" horiz-adv-x="998" 
d="M298 674v-674h-80v868h80v-56c72 72 156 108 252 108c102.667 0 186.167 -32.167 250.5 -96.5s97.166 -145.166 98.499 -242.499v-581h-79v573c0 74 -26.667 137 -80 189s-116.666 78 -189.999 78c-72.667 0 -135.667 -25.667 -189 -77
c-28.667 -28.667 -49.667 -58.334 -63 -89.001zM79 1053c-13.333 2.66699 -25 9.33398 -35 20.001c-16 15.333 -24 34.333 -24 57c0 22 7.83301 40.5 23.5 55.5s34.5 22.5 56.5 22.5c21.333 0 39.833 -7.5 55.5 -22.5s23.5 -33.5 23.5 -55.5
c0 -12.667 -2 -24.334 -6 -35.001l-87 -175h-57z" />
    <glyph glyph-name="Eng" unicode="&#x14a;" horiz-adv-x="1163" 
d="M974 84l-785 1102v-1186h-80v1436l865 -1213v1191h80v-1464c0 -72 -24.333 -132.5 -73 -181.5s-108.667 -73.5 -180 -73.5v80c48.667 0 90 16.667 124 50c32.667 32.667 49 77.667 49 135v124z" />
    <glyph glyph-name="eng" unicode="&#x14b;" horiz-adv-x="885" 
d="M704 573c0 74 -26.667 137 -80 189s-116.666 78 -189.999 78c-72.667 0 -135.667 -25.667 -189 -77c-28.667 -28.667 -49.667 -58.334 -63 -89.001v-674h-80v868h80v-56c72 72 156 108 252 108c102.667 0 186.167 -32.167 250.5 -96.5s97.166 -145.166 98.499 -242.499
v-460h1v-171c0 -72 -24.333 -132.5 -73 -181.5s-108.667 -73.5 -180 -73.5v80c48.667 0 90 16.667 124 50c32.667 32.667 49 77.667 49 135v613z" />
    <glyph glyph-name="Omacron" unicode="&#x14c;" horiz-adv-x="1575" 
d="M1300.5 1221.5c141.667 -141.667 212.5 -312.5 212.5 -512.5c0 -200.667 -70.833 -371.834 -212.5 -513.501s-312.834 -212.5 -513.501 -212.5c-200 0 -370.833 70.833 -512.5 212.5s-212.5 312.834 -212.5 513.501c0 200 70.833 370.833 212.5 512.5
s312.5 212.5 512.5 212.5c200.667 0 371.834 -70.833 513.501 -212.5zM787 1353c-177.333 0 -329 -63 -455 -189s-189 -277.667 -189 -455c0 -178 63 -330 189 -456s277.667 -189 455 -189c178 0 330 63 456 189s189 278 189 456c0 177.333 -63 329 -189 455
s-278 189 -456 189zM527 1580h521v-62h-521v62z" />
    <glyph glyph-name="omacron" unicode="&#x14d;" horiz-adv-x="1114" 
d="M557 946c134.667 0 249.167 -47.333 343.5 -142s141.5 -209.334 141.5 -344.001c0 -133.333 -47.167 -247.5 -141.5 -342.5s-208.833 -142.5 -343.5 -142.5c-133.333 0 -247.5 47.5 -342.5 142.5s-142.5 209.167 -142.5 342.5c0 134.667 47.5 249.334 142.5 344.001
s209.167 142 342.5 142zM273.5 744c-78.333 -78.667 -117.5 -173.334 -117.5 -284.001s39.167 -205 117.5 -283s172.833 -117 283.5 -117s205.167 39 283.5 117s117.5 172.333 117.5 283s-39.167 205.334 -117.5 284.001s-172.833 118 -283.5 118
s-205.167 -39.333 -283.5 -118zM297 1134h521v-62h-521v62z" />
    <glyph glyph-name="Obreve" unicode="&#x14e;" horiz-adv-x="1575" 
d="M1300.5 1221.5c141.667 -141.667 212.5 -312.5 212.5 -512.5c0 -200.667 -70.833 -371.834 -212.5 -513.501s-312.834 -212.5 -513.501 -212.5c-200 0 -370.833 70.833 -512.5 212.5s-212.5 312.834 -212.5 513.501c0 200 70.833 370.833 212.5 512.5
s312.5 212.5 512.5 212.5c200.667 0 371.834 -70.833 513.501 -212.5zM787 1353c-177.333 0 -329 -63 -455 -189s-189 -277.667 -189 -455c0 -178 63 -330 189 -456s277.667 -189 455 -189c178 0 330 63 456 189s189 278 189 456c0 177.333 -63 329 -189 455
s-278 189 -456 189zM986 1685c-9.33301 -30.667 -26.332 -58.333 -50.999 -83c-40 -40.667 -88.667 -61 -146 -61c-58.667 0 -108 20.333 -148 61c-26 26 -43.667 53.667 -53 83h70c7.33301 -13.333 16.666 -25.666 27.999 -36.999c28 -28.667 62.333 -43 103 -43
c39.333 0 73 14.333 101 43c12 11.333 21.333 23.666 28 36.999h68z" />
    <glyph glyph-name="obreve" unicode="&#x14f;" horiz-adv-x="1114" 
d="M557 946c134.667 0 249.167 -47.333 343.5 -142s141.5 -209.334 141.5 -344.001c0 -133.333 -47.167 -247.5 -141.5 -342.5s-208.833 -142.5 -343.5 -142.5c-133.333 0 -247.5 47.5 -342.5 142.5s-142.5 209.167 -142.5 342.5c0 134.667 47.5 249.334 142.5 344.001
s209.167 142 342.5 142zM273.5 744c-78.333 -78.667 -117.5 -173.334 -117.5 -284.001s39.167 -205 117.5 -283s172.833 -117 283.5 -117s205.167 39 283.5 117s117.5 172.333 117.5 283s-39.167 205.334 -117.5 284.001s-172.833 118 -283.5 118
s-205.167 -39.333 -283.5 -118zM756 1219c-10 -30.667 -26.998 -58.333 -50.998 -83c-40 -40.667 -88.667 -61 -146 -61c-58.667 0 -108 20.333 -148 61c-26 26 -43.667 53.667 -53 83h70c7.33301 -13.333 16.666 -25.666 27.999 -36.999c28 -28.667 62.333 -43 103 -43
c39.333 0 73 14.333 101 43c11.333 11.333 20.666 23.666 27.999 36.999h68z" />
    <glyph glyph-name="Ohungarumlaut" unicode="&#x150;" horiz-adv-x="1575" 
d="M1300.5 1221.5c141.667 -141.667 212.5 -312.5 212.5 -512.5c0 -200.667 -70.833 -371.834 -212.5 -513.501s-312.834 -212.5 -513.501 -212.5c-200 0 -370.833 70.833 -512.5 212.5s-212.5 312.834 -212.5 513.501c0 200 70.833 370.833 212.5 512.5
s312.5 212.5 512.5 212.5c200.667 0 371.834 -70.833 513.501 -212.5zM787 1353c-177.333 0 -329 -63 -455 -189s-189 -277.667 -189 -455c0 -178 63 -330 189 -456s277.667 -189 455 -189c178 0 330 63 456 189s189 278 189 456c0 177.333 -63 329 -189 455
s-278 189 -456 189zM832 1676l-217 -165h-74l144 165h147zM1034 1676l-216 -165h-75l144 165h147z" />
    <glyph glyph-name="ohungarumlaut" unicode="&#x151;" horiz-adv-x="1114" 
d="M557 946c134.667 0 249.167 -47.333 343.5 -142s141.5 -209.334 141.5 -344.001c0 -133.333 -47.167 -247.5 -141.5 -342.5s-208.833 -142.5 -343.5 -142.5c-133.333 0 -247.5 47.5 -342.5 142.5s-142.5 209.167 -142.5 342.5c0 134.667 47.5 249.334 142.5 344.001
s209.167 142 342.5 142zM273.5 744c-78.333 -78.667 -117.5 -173.334 -117.5 -284.001s39.167 -205 117.5 -283s172.833 -117 283.5 -117s205.167 39 283.5 117s117.5 172.333 117.5 283s-39.167 205.334 -117.5 284.001s-172.833 118 -283.5 118
s-205.167 -39.333 -283.5 -118zM602 1220l-217 -165h-74l144 165h147zM804 1220l-216 -165h-75l144 165h147z" />
    <glyph glyph-name="OE" unicode="&#x152;" horiz-adv-x="2014" 
d="M1184 1334c50.667 -30.667 98.333 -68.001 143 -112.001c132.667 -133.333 203 -291.666 211 -474.999h388v-80h-388c-9.33301 -182.667 -79.666 -339.667 -210.999 -471c-46.667 -46.667 -96.334 -85.334 -149.001 -116.001h748v-80h-884
c-71.333 -11.333 -147.666 -17 -228.999 -17c-200 0 -370.833 70.833 -512.5 212.5s-212.5 312.834 -212.5 513.501c0 200 70.833 370.833 212.5 512.5s312.5 212.5 512.5 212.5c81.333 0 157.666 -6.66699 228.999 -20h884v-80h-742zM1457 746.999
c-8.66699 161.333 -71.333 300.666 -188 417.999c-46 45.333 -95 82.333 -147 111c-26 14 -52.667 26.333 -80 37c-70.667 26.667 -147 40 -229 40c-177.333 0 -329 -63 -455 -189s-189 -277.667 -189 -455c0 -178 63 -330 189 -456s277.667 -189 455 -189
c82 0 158.333 13 229 39c27.333 10.667 54 23 80 37c52 29.333 101 67 147 113c116 116 178.667 254 188 414c0.666992 13.333 1 27.333 1 42c0 12.667 -0.333008 25.334 -1 38.001z" />
    <glyph glyph-name="oe" unicode="&#x153;" horiz-adv-x="1826" 
d="M150 460c0 -110.667 39.167 -205 117.5 -283s172.833 -117 283.5 -117s205.167 39 283.5 117s117.5 172.333 117.5 283s-39.167 205.334 -117.5 284.001s-172.833 118 -283.5 118s-205.167 -39.333 -283.5 -118s-117.5 -173.334 -117.5 -284.001zM981 688
c17.333 -32 30.6699 -66.001 40.0029 -102.001h670c-18.667 60.667 -50.334 113.334 -95.001 158.001c-78.667 78.667 -173.334 118 -284.001 118s-205.334 -39.333 -284.001 -118c-17.333 -18 -33 -36.667 -47 -56zM981.004 231.999
c14 -18.667 29.666 -36.6689 46.999 -54.002c78.667 -78.667 173.334 -118 284.001 -118s205.334 39.333 284.001 118c13.333 13.333 26 27.333 38 42l84 -30c-10 -16.667 -30.667 -40.667 -62 -72c-95.333 -95.333 -210 -143 -344 -143s-248.333 47.667 -343 143
c-13.333 13.333 -25.666 27 -36.999 41c-12 -14 -24.333 -27.667 -37 -41c-94.667 -95.333 -209.334 -143 -344.001 -143c-133.333 0 -247.5 47.5 -342.5 142.5s-142.5 209.167 -142.5 342.5c0 134.667 47.5 249.334 142.5 344.001s209.167 142 342.5 142
c134.667 0 249.334 -47.333 344.001 -142c12.667 -13.333 25 -27 37 -41c11.333 14 23.666 27.667 36.999 41c94.667 94.667 209 142 343 142s248.667 -47.333 344 -142c83.333 -84 126.666 -183.667 129.999 -299l-752 1c1.33301 -15.333 2 -30.666 2 -45.999
c0 -83.333 -18.333 -159.333 -55 -228z" />
    <glyph glyph-name="Racute" unicode="&#x154;" horiz-adv-x="959" 
d="M192 1333v-762h240c104.667 0 194.334 37.167 269.001 111.5s112 164.5 112 270.5c0 105.333 -37.333 195 -112 269s-164.334 111 -269.001 111h-240zM456 490l-263.999 0.000976562v-490h-80v1414h371c108 -14.667 199.667 -59.667 275 -135
c90 -90.667 135 -199.334 135 -326.001c0 -128 -45 -237 -135 -327c-62.667 -62.667 -134.334 -103.667 -215.001 -123l326 -503h-98zM697.001 1683l-217 -165h-74l144 165h147z" />
    <glyph glyph-name="racute" unicode="&#x155;" horiz-adv-x="406" 
d="M406 798c-56.667 -8.66699 -112.333 -44.668 -167 -108.001s-82 -140.666 -82 -231.999v-458h-80v868h80v-158c16 23.333 35 46 57 68c48.667 48.667 98 81 148 97zM436.001 1217l-217 -165h-74l144 165h147z" />
    <glyph glyph-name="Rcommaaccent" unicode="&#x156;" horiz-adv-x="959" 
d="M192 1333v-762h240c104.667 0 194.334 37.167 269.001 111.5s112 164.5 112 270.5c0 105.333 -37.333 195 -112 269s-164.334 111 -269.001 111h-240zM456 491c-8 -0.666992 -15.999 -0.999023 -23.999 -0.999023h-240v-490h-80v1414h371
c108 -14.667 199.667 -59.667 275 -135c90 -90.667 135 -199.334 135 -326.001c0 -128 -45 -237 -135 -327c-62.667 -62.667 -134.334 -103.667 -215.001 -123l326 -503h-98zM408.001 -49.999c50 0 84.668 -7.66602 104.001 -22.999c26.667 -20.667 40 -45.334 40 -74.001
v-9c-3.33301 -32.667 -23.666 -62.667 -60.999 -90c-32.667 -18.667 -67.334 -28 -104.001 -28c-20.667 0 -42.334 3 -65.001 9l17 51c18.667 -7.33301 37 -11 55 -11c20.667 0 40.667 5 60 15c16.667 12 26.667 26.333 30 43c0.666992 3.33301 1 7 1 11
c0 12 -4.66699 22.667 -14 32c-12 11.333 -33 17.333 -63 18v56z" />
    <glyph glyph-name="rcommaaccent" unicode="&#x157;" horiz-adv-x="406" 
d="M406 798c-43.333 -8.66699 -87.333 -35.666 -132 -80.999c-75.333 -74.667 -114.333 -164.334 -117 -269.001v-448h-80v868h80v-158c16 23.333 35 46 57 68c48.667 48.667 98 81 148 97zM108 -49.999c50 0 84.668 -7.66602 104.001 -22.999
c26.667 -20.667 40 -45.334 40 -74.001v-9c-3.33301 -32.667 -23.666 -62.667 -60.999 -90c-32.667 -18.667 -67.334 -28 -104.001 -28c-20.667 0 -42.334 3 -65.001 9l17 51c18.667 -7.33301 37 -11 55 -11c20.667 0 40.667 5 60 15c16.667 12 26.667 26.333 30 43
c0.666992 3.33301 1 7 1 11c0 12 -4.66699 22.667 -14 32c-12 11.333 -33 17.333 -63 18v56z" />
    <glyph glyph-name="Rcaron" unicode="&#x158;" horiz-adv-x="959" 
d="M192 1333v-762h240c104.667 0 194.334 37.167 269.001 111.5s112 164.5 112 270.5c0 105.333 -37.333 195 -112 269s-164.334 111 -269.001 111h-240zM456 491c-8 -0.666992 -15.999 -0.999023 -23.999 -0.999023h-240v-490h-80v1414h371
c108 -14.667 199.667 -59.667 275 -135c90 -90.667 135 -199.334 135 -326.001c0 -128 -45 -237 -135 -327c-62.667 -62.667 -134.334 -103.667 -215.001 -123l326 -503h-98zM498.001 1489l-228 187h93l135 -106l145 106h92z" />
    <glyph glyph-name="rcaron" unicode="&#x159;" horiz-adv-x="406" 
d="M386 798c-56.667 -8.66699 -112.333 -44.668 -167 -108.001s-82 -140.666 -82 -231.999v-458h-80v868h80v-158c16 23.333 35 46 57 68c48.667 48.667 98 81 148 97zM217.001 1033l-228 187h93l135 -106l145 106h92z" />
    <glyph glyph-name="Sacute" unicode="&#x15a;" horiz-adv-x="942" 
d="M495 783c-100.667 33.333 -180.163 79.167 -238.496 137.5s-87.5 129.166 -87.5 212.499c0 81.333 29.167 151.333 87.5 210s129.166 88 212.499 88c82 0 152.667 -29.333 212 -88c32 -31.333 54.333 -66.333 67 -105l-72 -28c-10.667 28.667 -28 55 -52 79
c-42.667 42.667 -94.334 64 -155.001 64s-112.5 -21.333 -155.5 -64s-64.5 -94.667 -64.5 -156c0 -60.667 21.333 -112.667 64 -156c40 -39.333 95.333 -75.333 166 -108c113.333 -36.667 208.666 -93.667 285.999 -171c81.333 -81.333 122 -179.666 122 -294.999
c0 -116 -40.833 -215 -122.5 -297s-180.167 -123 -295.5 -123c-116 0 -214.667 41.333 -296 124c-66 65.333 -105.333 141.333 -118 228l75 27c8 -76.667 40.667 -143.334 98 -200.001c66.667 -66.667 147 -100 241 -100s174.333 33.333 241 100s100 147 100 241
c0 93.333 -33.333 173.333 -100 240c-58.667 58.667 -130.334 105.334 -215.001 140.001zM665.004 1683l-217 -165h-74l144 165h147z" />
    <glyph glyph-name="sacute" unicode="&#x15b;" horiz-adv-x="644" 
d="M324 466c-67.333 36.667 -114.001 67.9951 -140.001 93.9951c-40.667 40.667 -61 89.667 -61 147s20.333 106.5 61 147.5s89.667 61.5 147 61.5s105 -19 143 -57c36.667 -36.667 55 -78.667 55 -126v-4l-69 -28c-6 44.667 -20 78.334 -42 101.001s-51 34 -87 34
c-35.333 0 -65.666 -12.667 -90.999 -38s-38 -55.666 -38 -90.999s12.667 -65.666 38 -90.999c14.667 -15.333 45.667 -38 93 -68c75.333 -40.667 129 -77 161 -109c50 -50.667 75 -111 75 -181c0 -72 -25 -133.167 -75 -183.5s-110.667 -75.5 -182 -75.5
s-132 25.167 -182 75.5s-75 105.5 -75 165.5l79 20c0 -51.333 17.5 -94.5 52.5 -129.5s76.833 -52.5 125.5 -52.5s90.667 17.5 126 52.5s53 77.5 53 127.5c0 48.667 -17.667 90.334 -53 125.001c-18.667 18.667 -56.667 46.334 -114 83.001zM505.999 1217l-217 -165h-74
l144 165h147z" />
    <glyph glyph-name="Scircumflex" unicode="&#x15c;" horiz-adv-x="942" 
d="M495 783c-100.667 33.333 -180.163 79.167 -238.496 137.5s-87.5 129.166 -87.5 212.499c0 81.333 29.167 151.333 87.5 210s129.166 88 212.499 88c82 0 152.667 -29.333 212 -88c32 -31.333 54.333 -66.333 67 -105l-72 -28c-10.667 28.667 -28 55 -52 79
c-42.667 42.667 -94.334 64 -155.001 64s-112.5 -21.333 -155.5 -64s-64.5 -94.667 -64.5 -156c0 -60.667 21.333 -112.667 64 -156c40 -39.333 95.333 -75.333 166 -108c113.333 -36.667 208.666 -93.667 285.999 -171c81.333 -81.333 122 -179.666 122 -294.999
c0 -116 -40.833 -215 -122.5 -297s-180.167 -123 -295.5 -123c-116 0 -214.667 41.333 -296 124c-66 65.333 -105.333 141.333 -118 228l75 27c8 -76.667 40.667 -143.334 98 -200.001c66.667 -66.667 147 -100 241 -100s174.333 33.333 241 100s100 147 100 241
c0 93.333 -33.333 173.333 -100 240c-58.667 58.667 -130.334 105.334 -215.001 140.001zM704.004 1519h-92l-145 106l-135 -106h-93l228 187z" />
    <glyph glyph-name="scircumflex" unicode="&#x15d;" horiz-adv-x="644" 
d="M324 466c-67.333 36.667 -114.001 67.9951 -140.001 93.9951c-40.667 40.667 -61 89.667 -61 147s20.333 106.5 61 147.5s89.667 61.5 147 61.5s105 -19 143 -57c36.667 -36.667 55 -78.667 55 -126v-4l-69 -28c-6 44.667 -20 78.334 -42 101.001s-51 34 -87 34
c-35.333 0 -65.666 -12.667 -90.999 -38s-38 -55.666 -38 -90.999s12.667 -65.666 38 -90.999c14.667 -15.333 45.667 -38 93 -68c75.333 -40.667 129 -77 161 -109c50 -50.667 75 -111 75 -181c0 -72 -25 -133.167 -75 -183.5s-110.667 -75.5 -182 -75.5
s-132 25.167 -182 75.5s-75 105.5 -75 165.5l79 20c0 -51.333 17.5 -94.5 52.5 -129.5s76.833 -52.5 125.5 -52.5s90.667 17.5 126 52.5s53 77.5 53 127.5c0 48.667 -17.667 90.334 -53 125.001c-18.667 18.667 -56.667 46.334 -114 83.001zM544.999 1053h-92l-145 106
l-135 -106h-93l228 187z" />
    <glyph glyph-name="Scedilla" unicode="&#x15e;" horiz-adv-x="942" 
d="M420 -14c-94.667 10 -176.998 50.334 -246.998 121.001c-66 65.333 -105.333 141.333 -118 228l75 27c8 -76.667 40.667 -143.334 98 -200.001c66.667 -66.667 147 -100 241 -100s174.333 33.333 241 100s100 147 100 241c0 93.333 -33.333 173.333 -100 240
c-58.667 58.667 -130.334 105.334 -215.001 140.001c-100.667 33.333 -180.167 79.166 -238.5 137.499s-87.5 129.166 -87.5 212.499c0 81.333 29.167 151.333 87.5 210s129.166 88 212.499 88c82 0 152.667 -29.333 212 -88c32 -31.333 54.333 -66.333 67 -105l-72 -28
c-10.667 28.667 -28 55 -52 79c-42.667 42.667 -94.334 64 -155.001 64s-112.5 -21.333 -155.5 -64s-64.5 -94.667 -64.5 -156c0 -60.667 21.333 -112.667 64 -156c40 -39.333 95.333 -75.333 166 -108c113.333 -36.667 208.666 -93.667 285.999 -171
c81.333 -81.333 122 -179.666 122 -294.999c0 -116 -40.667 -215 -122 -297c-78 -78 -171.667 -119 -281 -123l-13 -35c61.333 -4.66699 100.666 -25 117.999 -61c9.33301 -19.333 14 -38 14 -56c0 -15.333 -3.66699 -30 -11 -44c-15.333 -30 -43.666 -48.333 -84.999 -55
c-15.333 -2.66699 -29.666 -4 -42.999 -4c-22.667 0 -42 3.66699 -58 11c-26 11.333 -48.333 24.333 -67 39l37 40c22.667 -23.333 47 -35 73 -35c6.66699 0 13.667 1 21 3c31.333 7.33301 47 26.333 47 57v6c-2 28.667 -35 43 -99 43
c-11.333 0 -23.666 -0.333008 -36.999 -1z" />
    <glyph glyph-name="scedilla" unicode="&#x15f;" horiz-adv-x="644" 
d="M268 2c-52.667 8.66699 -98.6699 32.9951 -138.003 72.9951c-50 50 -75 105 -75 165l79 20c0 -51.333 17.5 -94.5 52.5 -129.5s76.833 -52.5 125.5 -52.5s90.667 17.5 126 52.5s53 77.5 53 127.5c0 48.667 -17.667 90.334 -53 125.001
c-18.667 18.667 -56.667 46.334 -114 83.001c-67.333 36.667 -114 68 -140 94c-40.667 40.667 -61 89.667 -61 147s20.333 106.5 61 147.5s89.667 61.5 147 61.5s105 -19 143 -57c36.667 -36.667 55 -78.667 55 -126v-4l-69 -28c-6 44.667 -20 78.334 -42 101.001
s-51 34 -87 34c-35.333 0 -65.666 -12.667 -90.999 -38s-38 -55.666 -38 -90.999s12.667 -65.666 38 -90.999c14.667 -15.333 45.667 -38 93 -68c75.333 -40.667 129 -77 161 -109c50 -50.667 75 -111 75 -181c0 -72 -25 -133 -75 -183c-45.333 -46 -99.333 -71 -162 -75
l-20 -52c61.333 -4.66699 100.666 -25 117.999 -61c9.33301 -19.333 14 -38 14 -56c0 -15.333 -3.66699 -30 -11 -44c-15.333 -30 -43.666 -48.333 -84.999 -55c-15.333 -2.66699 -29.666 -4 -42.999 -4c-22.667 0 -42 3.66699 -58 11c-26 11.333 -48.333 24.333 -67 39
l37 40c22.667 -23.333 47 -35 73 -35c6.66699 0 13.667 1 21 3c31.333 7.33301 47 26.333 47 57v6c-2 28.667 -35 43 -99 43c-11.333 0 -23.666 -0.333008 -36.999 -1z" />
    <glyph glyph-name="Scaron" unicode="&#x160;" horiz-adv-x="942" 
d="M495 783c-100.667 33.333 -180.163 79.167 -238.496 137.5s-87.5 129.166 -87.5 212.499c0 81.333 29.167 151.333 87.5 210s129.166 88 212.499 88c82 0 152.667 -29.333 212 -88c32 -31.333 54.333 -66.333 67 -105l-72 -28c-10.667 28.667 -28 55 -52 79
c-42.667 42.667 -94.334 64 -155.001 64s-112.5 -21.333 -155.5 -64s-64.5 -94.667 -64.5 -156c0 -60.667 21.333 -112.667 64 -156c40 -39.333 95.333 -75.333 166 -108c113.333 -36.667 208.666 -93.667 285.999 -171c81.333 -81.333 122 -179.666 122 -294.999
c0 -116 -40.833 -215 -122.5 -297s-180.167 -123 -295.5 -123c-116 0 -214.667 41.333 -296 124c-66 65.333 -105.333 141.333 -118 228l75 27c8 -76.667 40.667 -143.334 98 -200.001c66.667 -66.667 147 -100 241 -100s174.333 33.333 241 100s100 147 100 241
c0 93.333 -33.333 173.333 -100 240c-58.667 58.667 -130.334 105.334 -215.001 140.001zM467.004 1489l-228 187h93l135 -106l145 106h92z" />
    <glyph glyph-name="scaron" unicode="&#x161;" horiz-adv-x="644" 
d="M324 466c-67.333 36.667 -114.001 67.9951 -140.001 93.9951c-40.667 40.667 -61 89.667 -61 147s20.333 106.5 61 147.5s89.667 61.5 147 61.5s105 -19 143 -57c36.667 -36.667 55 -78.667 55 -126v-4l-69 -28c-6 44.667 -20 78.334 -42 101.001s-51 34 -87 34
c-35.333 0 -65.666 -12.667 -90.999 -38s-38 -55.666 -38 -90.999s12.667 -65.666 38 -90.999c14.667 -15.333 45.667 -38 93 -68c75.333 -40.667 129 -77 161 -109c50 -50.667 75 -111 75 -181c0 -72 -25 -133.167 -75 -183.5s-110.667 -75.5 -182 -75.5
s-132 25.167 -182 75.5s-75 105.5 -75 165.5l79 20c0 -51.333 17.5 -94.5 52.5 -129.5s76.833 -52.5 125.5 -52.5s90.667 17.5 126 52.5s53 77.5 53 127.5c0 48.667 -17.667 90.334 -53 125.001c-18.667 18.667 -56.667 46.334 -114 83.001zM307.999 1033l-228 187h93
l135 -106l145 106h92z" />
    <glyph glyph-name="Tcommaaccent" unicode="&#x162;" horiz-adv-x="859" 
d="M469 1334v-1334h-79v1334h-358v80h795v-80h-358zM408 -50c50 0 84.668 -7.66602 104.001 -22.999c26.667 -20.667 40 -45.334 40 -74.001v-9c-3.33301 -32.667 -23.666 -62.667 -60.999 -90c-32.667 -18.667 -67.334 -28 -104.001 -28c-20.667 0 -42.334 3 -65.001 9
l17 51c18.667 -7.33301 37 -11 55 -11c20.667 0 40.667 5 60 15c16.667 12 26.667 26.333 30 43c0.666992 3.33301 1 7 1 11c0 12 -4.66699 22.667 -14 32c-12 11.333 -33 17.333 -63 18v56z" />
    <glyph glyph-name="tcommaaccent" unicode="&#x163;" horiz-adv-x="497" 
d="M209 868v369h79v-369h177v-80h-177v-788h-79v788h-177v80h177zM208 -50c50 0 84.668 -7.66602 104.001 -22.999c26.667 -20.667 40 -45.334 40 -74.001v-9c-3.33301 -32.667 -23.666 -62.667 -60.999 -90c-32.667 -18.667 -67.334 -28 -104.001 -28
c-20.667 0 -42.334 3 -65.001 9l17 51c18.667 -7.33301 37 -11 55 -11c20.667 0 40.667 5 60 15c16.667 12 26.667 26.333 30 43c0.666992 3.33301 1 7 1 11c0 12 -4.66699 22.667 -14 32c-12 11.333 -33 17.333 -63 18v56z" />
    <glyph glyph-name="Tcaron" unicode="&#x164;" horiz-adv-x="859" 
d="M469 1334v-1334h-79v1334h-358v80h795v-80h-358zM425 1489l-228 187h93l135 -106l145 106h92z" />
    <glyph glyph-name="tcaron" unicode="&#x165;" horiz-adv-x="564" 
d="M209 868v369h79v-369h177v-80h-177v-788h-79v788h-177v80h177zM464 1239c-13.333 2.66699 -25 9.33398 -35 20.001c-16 15.333 -24 34.333 -24 57c0 22 7.83301 40.5 23.5 55.5s34.5 22.5 56.5 22.5c21.333 0 39.833 -7.5 55.5 -22.5s23.5 -33.5 23.5 -55.5
c0 -12.667 -2 -24.334 -6 -35.001l-87 -175h-57z" />
    <glyph glyph-name="Tbar" unicode="&#x166;" horiz-adv-x="859" 
d="M391 747v587h-358v80h795v-80h-358v-587h260v-79h-260v-668h-79v668h-261v79h261z" />
    <glyph glyph-name="tbar" unicode="&#x167;" horiz-adv-x="497" 
d="M210 788h-177v80h177v369h79v-369h177v-80h-177v-239h177v-80h-177v-469h-79v469h-177v80h177v239z" />
    <glyph glyph-name="Utilde" unicode="&#x168;" horiz-adv-x="1147" 
d="M955 1414h80.001v-1016c-14.667 -108 -59.667 -199.667 -135 -275c-90 -90 -198.667 -135 -326 -135c-128 0 -237 45 -327 135s-135 198.667 -135 326v965h80v-965c0 -104.667 37.333 -194.334 112 -269.001s164.667 -112 270 -112s195.166 37.333 269.499 112
s111.5 164.334 111.5 269.001v965zM583.001 1633c39.333 -28.667 66.665 -43.001 81.998 -43.001h4c12 4.66699 20.667 15.334 26 32.001c2.66699 9.33301 4 25.666 4 48.999l66 -13c-1.33301 -24.667 -4.66602 -45 -9.99902 -61c-12 -36.667 -32.667 -61.334 -62 -74.001
c-8 -2.66699 -16.333 -4 -25 -4c-27.333 0 -62.333 15 -105 45c-39.333 29.333 -66.666 44 -81.999 44c-2 0 -3.33301 -0.333008 -4 -1c-11.333 -4 -19.666 -14.667 -24.999 -32c-3.33301 -9.33301 -5 -25.666 -5 -48.999l-65 14c0.666992 24.667 3.66699 44.667 9 60
c12 36.667 33 61.334 63 74.001c7.33301 3.33301 15.666 5 24.999 5c27.333 0 62 -15.333 104 -46z" />
    <glyph glyph-name="utilde" unicode="&#x169;" horiz-adv-x="880" 
d="M445 -12c-108.667 0 -195.001 32.001 -259.001 96.001s-97 145 -99 243v542h80v-535c0 -73.333 26.667 -136 80 -188c52.667 -52.667 118.334 -79 197.001 -79c73.333 0 136.5 26.167 189.5 78.5s79.5 115.166 79.5 188.499v535h80v-542c-2 -98 -35 -179 -99 -243
s-147 -96 -249 -96zM449.999 1167c39.333 -28.667 66.665 -43.001 81.998 -43.001h4c12 4.66699 20.667 15.334 26 32.001c2.66699 9.33301 4 25.666 4 48.999l66 -13c-1.33301 -24.667 -4.66602 -45 -9.99902 -61c-12 -36.667 -32.667 -61.334 -62 -74.001
c-8 -2.66699 -16.333 -4 -25 -4c-27.333 0 -62.333 15 -105 45c-39.333 29.333 -66.666 44 -81.999 44c-2 0 -3.33301 -0.333008 -4 -1c-11.333 -4 -19.666 -14.667 -24.999 -32c-3.33301 -9.33301 -5 -25.666 -5 -48.999l-65 14c0.666992 24.667 3.66699 44.667 9 60
c12 36.667 33 61.334 63 74.001c7.33301 3.33301 15.666 5 24.999 5c27.333 0 62 -15.333 104 -46z" />
    <glyph glyph-name="Umacron" unicode="&#x16a;" horiz-adv-x="1147" 
d="M955 1414h80.001v-1016c-14.667 -108 -59.667 -199.667 -135 -275c-90 -90 -198.667 -135 -326 -135c-128 0 -237 45 -327 135s-135 198.667 -135 326v965h80v-965c0 -104.667 37.333 -194.334 112 -269.001s164.667 -112 270 -112s195.166 37.333 269.499 112
s111.5 164.334 111.5 269.001v965zM313.001 1580h521v-62h-521v62z" />
    <glyph glyph-name="umacron" unicode="&#x16b;" horiz-adv-x="880" 
d="M445 -12c-108.667 0 -195.001 32.001 -259.001 96.001s-97 145 -99 243v542h80v-535c0 -73.333 26.667 -136 80 -188c52.667 -52.667 118.334 -79 197.001 -79c73.333 0 136.5 26.167 189.5 78.5s79.5 115.166 79.5 188.499v535h80v-542c-2 -98 -35 -179 -99 -243
s-147 -96 -249 -96zM179.999 1134h521v-62h-521v62z" />
    <glyph glyph-name="Ubreve" unicode="&#x16c;" horiz-adv-x="1147" 
d="M955 1414h80.001v-1016c-14.667 -108 -59.667 -199.667 -135 -275c-90 -90 -198.667 -135 -326 -135c-128 0 -237 45 -327 135s-135 198.667 -135 326v965h80v-965c0 -104.667 37.333 -194.334 112 -269.001s164.667 -112 270 -112s195.166 37.333 269.499 112
s111.5 164.334 111.5 269.001v965zM772.001 1685c-9.33301 -30.667 -26.332 -58.333 -50.999 -83c-40 -40.667 -88.667 -61 -146 -61c-58.667 0 -108 20.333 -148 61c-26 26 -43.667 53.667 -53 83h70c7.33301 -13.333 16.666 -25.666 27.999 -36.999
c28 -28.667 62.333 -43 103 -43c39.333 0 73 14.333 101 43c12 11.333 21.333 23.666 28 36.999h68z" />
    <glyph glyph-name="ubreve" unicode="&#x16d;" horiz-adv-x="880" 
d="M445 -12c-108.667 0 -195.001 32.001 -259.001 96.001s-97 145 -99 243v542h80v-535c0 -73.333 26.667 -136 80 -188c52.667 -52.667 118.334 -79 197.001 -79c73.333 0 136.5 26.167 189.5 78.5s79.5 115.166 79.5 188.499v535h80v-542c-2 -98 -35 -179 -99 -243
s-147 -96 -249 -96zM638.999 1229c-10 -30.667 -26.998 -58.333 -50.998 -83c-40 -40.667 -88.667 -61 -146 -61c-58.667 0 -108 20.333 -148 61c-26 26 -43.667 53.667 -53 83h70c7.33301 -13.333 16.666 -25.666 27.999 -36.999c28 -28.667 62.333 -43 103 -43
c39.333 0 73 14.333 101 43c11.333 11.333 20.666 23.666 27.999 36.999h68z" />
    <glyph glyph-name="Uring" unicode="&#x16e;" horiz-adv-x="1147" 
d="M955 1414h80.001v-1016c-14.667 -108 -59.667 -199.667 -135 -275c-90 -90 -198.667 -135 -326 -135c-128 0 -237 45 -327 135s-135 198.667 -135 326v965h80v-965c0 -104.667 37.333 -194.334 112 -269.001s164.667 -112 270 -112s195.166 37.333 269.499 112
s111.5 164.334 111.5 269.001v965zM653.501 1653c22.333 -22 33.5 -48.667 33.5 -80s-11.167 -58 -33.5 -80s-48.833 -33 -79.5 -33c-31.333 0 -58.166 11 -80.499 33s-33.5 48.667 -33.5 80s11.167 58 33.5 80s49.166 33 80.499 33c30.667 0 57.167 -11 79.5 -33z
M574.001 1625c-14.667 0 -27 -5 -37 -15s-15 -22.333 -15 -37c0 -14 5 -26.167 15 -36.5s22.333 -15.5 37 -15.5c14 0 26 5.16699 36 15.5s15 22.5 15 36.5c0 14.667 -5 27 -15 37s-22 15 -36 15z" />
    <glyph glyph-name="uring" unicode="&#x16f;" horiz-adv-x="880" 
d="M445 -12c-108.667 0 -195.001 32.001 -259.001 96.001s-97 145 -99 243v542h80v-535c0 -73.333 26.667 -136 80 -188c52.667 -52.667 118.334 -79 197.001 -79c73.333 0 136.5 26.167 189.5 78.5s79.5 115.166 79.5 188.499v535h80v-542c-2 -98 -35 -179 -99 -243
s-147 -96 -249 -96zM519.999 1177c22 -22 33 -48.667 33 -80s-11 -58 -33 -80s-48.667 -33 -80 -33s-58 11 -80 33s-33 48.667 -33 80s11 58 33 80s48.667 33 80 33s58 -11 80 -33zM439.999 1149c-14 0 -26 -5 -36 -15s-15 -22.333 -15 -37c0 -14 5 -26.167 15 -36.5
s22 -15.5 36 -15.5s26 5.16699 36 15.5s15 22.5 15 36.5c0 14.667 -5 27 -15 37s-22 15 -36 15z" />
    <glyph glyph-name="Uhungarumlaut" unicode="&#x170;" horiz-adv-x="1147" 
d="M955 1414h80.001v-1016c-14.667 -108 -59.667 -199.667 -135 -275c-90 -90 -198.667 -135 -326 -135c-128 0 -237 45 -327 135s-135 198.667 -135 326v965h80v-965c0 -104.667 37.333 -194.334 112 -269.001s164.667 -112 270 -112s195.166 37.333 269.499 112
s111.5 164.334 111.5 269.001v965zM618.001 1676l-217 -165h-74l144 165h147zM820.001 1676l-216 -165h-75l144 165h147z" />
    <glyph glyph-name="uhungarumlaut" unicode="&#x171;" horiz-adv-x="880" 
d="M445 -12c-108.667 0 -195.001 32.001 -259.001 96.001s-97 145 -99 243v542h80v-535c0 -73.333 26.667 -136 80 -188c52.667 -52.667 118.334 -79 197.001 -79c73.333 0 136.5 26.167 189.5 78.5s79.5 115.166 79.5 188.499v535h80v-542c-2 -98 -35 -179 -99 -243
s-147 -96 -249 -96zM484.999 1220l-217 -165h-74l144 165h147zM686.999 1220l-216 -165h-75l144 165h147z" />
    <glyph glyph-name="Uogonek" unicode="&#x172;" horiz-adv-x="1147" 
d="M678 -1c-33.333 -7.33301 -67.9961 -11.002 -103.996 -11.002c-128 0 -237 45 -327 135s-135 198.667 -135 326v965h80v-965c0 -104.667 37.333 -194.334 112 -269.001s164.667 -112 270 -112s195.166 37.333 269.499 112s111.5 164.334 111.5 269.001v965h80v-1016
c-14.667 -108 -59.667 -199.667 -135 -275c-46 -46 -97 -80.333 -153 -103c-11.333 -15.333 -17 -31.666 -17 -48.999c0 -5.33301 0.333008 -10.333 1 -15l1 -6c4 -21.333 15 -39.333 33 -54c16 -12.667 33.333 -19 52 -19c3.33301 0 6.66602 0.333008 9.99902 1h6
c20.667 4 41 15.667 61 35l26 -43l-4 -4c-17.333 -22.667 -41 -36.667 -71 -42l-12 -3c-6 -0.666992 -11.667 -1 -17 -1c-30.667 0 -59.334 10.333 -86.001 31c-28.667 22 -46.334 50 -53.001 84c-0.666992 4.66699 -1 9.33398 -1 14.001c-0.666992 6.66699 -1 13 -1 19
c0 10.667 1 21 3 31z" />
    <glyph glyph-name="uogonek" unicode="&#x173;" horiz-adv-x="880" 
d="M478 -11c-10.667 -0.666992 -21.6641 -1 -32.9971 -1c-108.667 0 -195 32 -259 96s-97 145 -99 243v542h80v-535c0 -73.333 26.667 -136 80 -188c52.667 -52.667 118.334 -79 197.001 -79c73.333 0 136.5 26.167 189.5 78.5s79.5 115.166 79.5 188.499v535h80v-542
c-2 -98 -35 -179 -99 -243c-42.667 -42.667 -94.334 -71.334 -155.001 -86.001c-6 -11.333 -9 -23.666 -9 -36.999c0 -4.66699 0.333008 -9.66699 1 -15l1 -6c4 -21.333 15 -39.333 33 -54c16 -12.667 33.333 -19 52 -19c3.33301 0 6.66602 0.333008 9.99902 1h6
c20.667 4 41 15.667 61 35l26 -43l-4 -4c-17.333 -22.667 -41 -36.667 -71 -42l-12 -3c-6 -0.666992 -11.667 -1 -17 -1c-30.667 0 -59.334 10.333 -86.001 31c-28.667 22 -46.334 50 -53.001 84c-0.666992 4.66699 -1 9.33398 -1 14.001c-0.666992 6.66699 -1 13 -1 19
c0 10.667 1 21 3 31z" />
    <glyph glyph-name="Wcircumflex" unicode="&#x174;" horiz-adv-x="1642" 
d="M824 1039l352 -910l345 1285h81l-380 -1414h-80l-341 894l-341 -894h-80l-380 1414h81l346 -1285l351 910h46zM1034 1519h-92l-145 106l-135 -106h-93l228 187z" />
    <glyph glyph-name="wcircumflex" unicode="&#x175;" horiz-adv-x="1094" 
d="M1094 868l-295 -868h-50l-202 566l-202 -566h-51l-294 868h91l230 -713l204 565h45l204 -565l229 713h91zM780 1053h-92l-145 106l-135 -106h-93l228 187z" />
    <glyph glyph-name="Ycircumflex" unicode="&#x176;" horiz-adv-x="1116" 
d="M518 572l-486 842h91l435 -754l435 754h91l-486 -842v-572h-80v572zM791 1519h-92l-145 106l-135 -106h-93l228 187z" />
    <glyph glyph-name="ycircumflex" unicode="&#x177;" horiz-adv-x="779" 
d="M434 163l-229 -493h-89l229 491l-330 707h89l285 -606l286 606h89l-329 -705h-1zM622 1053h-92l-145 106l-135 -106h-93l228 187z" />
    <glyph glyph-name="Ydieresis" unicode="&#x178;" horiz-adv-x="1116" 
d="M518 572l-486 842h91l435 -754l435 754h91l-486 -842v-572h-80v572zM481.5 1658c15.667 -15.333 23.5 -33.666 23.5 -54.999c0 -22.667 -7.83301 -41.667 -23.5 -57s-34.167 -23 -55.5 -23c-22 0 -40.833 7.66699 -56.5 23s-23.5 34.333 -23.5 57
c0 21.333 7.83301 39.666 23.5 54.999s34.5 23 56.5 23c21.333 0 39.833 -7.66699 55.5 -23zM746.5 1658c15.667 -15.333 23.5 -33.666 23.5 -54.999c0 -22.667 -7.83301 -41.667 -23.5 -57s-34.167 -23 -55.5 -23c-22 0 -40.833 7.66699 -56.5 23s-23.5 34.333 -23.5 57
c0 21.333 7.83301 39.666 23.5 54.999s34.5 23 56.5 23c21.333 0 39.833 -7.66699 55.5 -23z" />
    <glyph glyph-name="Zacute" unicode="&#x179;" horiz-adv-x="1075" 
d="M854 1334h-670v80h807l-771 -1334h841v-80h-977zM767 1683l-217 -165h-74l144 165h147z" />
    <glyph glyph-name="zacute" unicode="&#x17a;" horiz-adv-x="743" 
d="M510 776h-448v79h585l-449 -775h483v-80h-619zM566 1217l-217 -165h-74l144 165h147z" />
    <glyph glyph-name="Zdotaccent" unicode="&#x17b;" horiz-adv-x="1075" 
d="M854 1334h-670v80h807l-771 -1334h841v-80h-977zM620 1667.5c13.333 -13 20 -28.833 20 -47.5s-6.66699 -34.5 -20 -47.5s-29 -19.5 -47 -19.5c-18.667 0 -34.667 6.5 -48 19.5s-20 28.833 -20 47.5s6.66699 34.5 20 47.5s29.333 19.5 48 19.5c18 0 33.667 -6.5 47 -19.5
z" />
    <glyph glyph-name="zdotaccent" unicode="&#x17c;" horiz-adv-x="743" 
d="M510 776h-448v79h585l-449 -775h483v-80h-619zM419 1201.5c13.333 -13 20 -28.833 20 -47.5s-6.66699 -34.5 -20 -47.5s-29 -19.5 -47 -19.5c-18.667 0 -34.667 6.5 -48 19.5s-20 28.833 -20 47.5s6.66699 34.5 20 47.5s29.333 19.5 48 19.5c18 0 33.667 -6.5 47 -19.5z
" />
    <glyph glyph-name="Zcaron" unicode="&#x17d;" horiz-adv-x="1075" 
d="M854 1334h-670v80h807l-771 -1334h841v-80h-977zM568 1489l-228 187h93l135 -106l145 106h92z" />
    <glyph glyph-name="zcaron" unicode="&#x17e;" horiz-adv-x="743" 
d="M510 776h-448v79h585l-449 -775h483v-80h-619zM367 1033l-228 187h93l135 -106l145 106h92z" />
    <glyph glyph-name="longs" unicode="&#x17f;" horiz-adv-x="383" 
d="M190 0l-80.002 0.000976562v1103c4 65.333 29 121.666 75 168.999c48.667 44.667 104.334 67 167.001 67c33.333 0 68.333 -6.33301 105 -19l-25 -71c-24.667 10.667 -48.667 16 -72 16c-41.333 0 -80.666 -16.667 -117.999 -50c-32.667 -32.667 -50 -72 -52 -118v-1097z
" />
    <glyph glyph-name="florin" unicode="&#x192;" horiz-adv-x="395" 
d="M202 0l-1.00195 0.000976562v-70c-6.66699 -167.333 -92 -251 -256 -251v74c111.333 0 170.333 58.333 177 175v860h-88v80h88v235c4 65.333 29 121.666 75 168.999c48.667 44.667 104.334 67 167.001 67c33.333 0 68.333 -6.33301 105 -19l-25 -71
c-24.667 10.667 -48.667 16 -72 16c-41.333 0 -80.666 -16.667 -117.999 -50c-32.667 -32.667 -50 -72 -52 -118v-229h177v-80h-177v-788z" />
    <glyph glyph-name="Aringacute" unicode="&#x1fa;" horiz-adv-x="1116" 
d="M784 631l-225 593l-226 -593h451zM557 1494c-14.667 0 -27 -5 -37 -15s-15 -22.333 -15 -37c0 -13.333 5 -25 15 -35s22.333 -15 37 -15c13.333 0 25 5 35 15s15 21.667 15 35c0 14.667 -5 27 -15 37s-21.667 15 -35 15zM533 1549l94.999 134.001h147l-173 -142
c11.333 -5.33301 22 -12.666 32 -21.999c20.667 -21.333 31 -47 31 -77c0 -29.333 -10.333 -54.333 -31 -75c-10.667 -10.667 -22 -18.334 -34 -23.001l513 -1344h-84l-216 552h-509l-220 -552h-85l518 1342c-13.333 5.33301 -25.666 13.666 -36.999 24.999
c-21.333 20.667 -32 45.667 -32 75c0 30 10.667 55.667 32 77c15.333 15.333 33 25.333 53 30z" />
    <glyph glyph-name="aringacute" unicode="&#x1fb;" horiz-adv-x="1122" 
d="M953 382v97c-14.667 78 -51.334 146.333 -110.001 205c-78.667 78.667 -173.334 118 -284.001 118s-205.167 -36 -283.5 -108s-117.5 -160 -117.5 -264s39.167 -191.667 117.5 -263s172.833 -107 283.5 -107s205.334 39.333 284.001 118
c58.667 58.667 95.334 126.667 110.001 204zM554 1038c-14.667 0 -27 -5 -37 -15s-15 -22.333 -15 -37c0 -13.333 5 -25 15 -35s22.333 -15 37 -15c13.333 0 25 5 35 15s15 21.667 15 35c0 14.667 -5 27 -15 37s-21.667 15 -35 15zM597 1086
c12 -5.33301 23.334 -12.999 34.001 -22.999c20.667 -21.333 31 -47 31 -77c0 -29.333 -10.333 -54.333 -31 -75c-12 -12 -25.333 -20.667 -40 -26c120.667 -6.66699 224.667 -53.667 312 -141c18 -18.667 34.667 -38.334 50 -59.001v123h80v-808h-80v177
c-15.333 -20.667 -32 -40.334 -50 -59.001c-94.667 -95.333 -209.334 -143 -344.001 -143c-133.333 0 -247.5 44.167 -342.5 132.5s-142.5 195.833 -142.5 322.5c0 128 45 233.5 135 316.5s193.333 129.167 310 138.5c-15.333 4.66699 -29.333 13.334 -42 26.001
c-21.333 20.667 -32 45.667 -32 75c0 30 10.667 55.667 32 77c14 14 30.333 23.333 49 28l135 151h147z" />
    <glyph glyph-name="AEacute" unicode="&#x1fc;" horiz-adv-x="1443" 
d="M1331 747v-80h-627v-587h627v-80h-706v542h-300l-241 -542h-85l615 1414h717v-80h-627v-587h627zM625 621v629l-271 -629h271zM859 1683l-217 -165h-74l144 165h147z" />
    <glyph glyph-name="aeacute" unicode="&#x1fd;" horiz-adv-x="1873" 
d="M912 653c-18 32.667 -41 63.001 -69 91.001c-78.667 78.667 -173.334 118 -284.001 118s-205.167 -39.333 -283.5 -118s-117.5 -173.334 -117.5 -284.001s39.167 -205 117.5 -283s172.833 -117 283.5 -117s205.334 39.333 284.001 118c28 28 51 58 69 90
c20 35.333 33.667 73.333 41 114v157c-7.33301 40.667 -21 78.667 -41 114zM1738 586.001c-18.667 60.667 -50.666 113.333 -95.999 158c-78 78.667 -172.333 118 -283 118s-205.334 -39.333 -284.001 -118c-16 -16 -30 -32.333 -42 -49v-109h705zM1033 226
c12 -16.667 25.999 -32.666 41.999 -47.999c78.667 -78.667 173.334 -118 284.001 -118s205 39.333 283 118c14 13.333 26.667 27.333 38 42l85 -30c-10 -16.667 -31 -40.667 -63 -72c-94.667 -95.333 -209 -143 -343 -143c-126 0 -234.667 42.333 -326 127v-102h-80v177
c-15.333 -20.667 -32 -40.334 -50 -59.001c-94.667 -95.333 -209.334 -143 -344.001 -143c-133.333 0 -247.5 47.5 -342.5 142.5s-142.5 209.167 -142.5 342.5c0 134.667 47.5 249.334 142.5 344.001s209.167 142 342.5 142c134.667 0 249.334 -47.333 344.001 -142
c18 -18.667 34.667 -38.334 50 -59.001v123h80v-48c91.333 84 200 126 326 126c134 0 248.333 -47.333 343 -142c84 -84 127.667 -183.667 131 -299l-800 1v-280zM1148 1217l-217 -165h-74l144 165h147z" />
    <glyph glyph-name="Oslashacute" unicode="&#x1fe;" horiz-adv-x="1647" 
d="M1059 1310c-72 28.667 -150.667 43 -236 43c-177.333 0 -329 -63 -455 -189s-189 -277.667 -189 -455c0 -178 63 -330 189 -456c45.333 -45.333 94.333 -83 147 -113zM587 107c72.667 -28.667 151.333 -43 236 -43c178 0 330 63 456 189s189 278 189 456
c0 177.333 -63 329.333 -189 456c-46 45.333 -95 82.333 -147 111zM1166 1350c60.667 -32.667 117.67 -75.332 171.003 -127.999c141.333 -142 212 -313 212 -513c0 -200.667 -70.833 -371.834 -212.5 -513.501s-312.834 -212.5 -513.501 -212.5
c-96.667 0 -186.667 17 -270 51l-76 -163l-72 34l76 162c-60.667 33.333 -117.334 76.333 -170.001 129c-142 141.333 -213 312.333 -213 513c0 200 70.833 370.833 212.5 512.5s312.5 212.5 512.5 212.5c97.333 0 187.666 -16.667 270.999 -50l76 162l72 -33zM1018 1683
l-217 -165h-74l144 165h147z" />
    <glyph glyph-name="oslashacute" unicode="&#x1ff;" horiz-adv-x="1080" 
d="M706 828c-50.667 22.667 -106 34 -166 34c-110.667 0 -205.167 -39.167 -283.5 -117.5s-117.5 -172.833 -117.5 -283.5s39 -205 117 -283c16 -16 33 -30.333 51 -43zM774 787l-400 -692.001c50.667 -22.667 106 -34 166 -34c110.667 0 205.167 39 283.5 117
s117.5 172.333 117.5 283s-39 205.334 -117 284.001c-16 16 -32.667 30 -50 42zM264 61.999c-23.333 16.667 -45.666 35.334 -66.999 56.001c-94.667 95.333 -142 209.666 -142 342.999c0 134.667 47.5 249.334 142.5 344.001s209.167 142 342.5 142
c76 0 146 -15.333 210 -46l107 188l70 -37l-110 -190c23.333 -16.667 45.666 -35.667 66.999 -57c94 -94.667 141 -209.334 141 -344.001c0 -133.333 -47.167 -247.5 -141.5 -342.5s-208.833 -142.5 -343.5 -142.5c-76 0 -145.333 15.333 -208 46l-109 -188l-70 33z
M734 1217l-217 -165h-74l144 165h147z" />
    <glyph glyph-name="Scommaaccent" unicode="&#x218;" horiz-adv-x="942" 
d="M495 783c-100.667 33.333 -180.163 79.167 -238.496 137.5s-87.5 129.166 -87.5 212.499c0 81.333 29.167 151.333 87.5 210s129.166 88 212.499 88c82 0 152.667 -29.333 212 -88c32 -31.333 54.333 -66.333 67 -105l-72 -28c-10.667 28.667 -28 55 -52 79
c-42.667 42.667 -94.334 64 -155.001 64s-112.5 -21.333 -155.5 -64s-64.5 -94.667 -64.5 -156c0 -60.667 21.333 -112.667 64 -156c40 -39.333 95.333 -75.333 166 -108c113.333 -36.667 208.666 -93.667 285.999 -171c81.333 -81.333 122 -179.666 122 -294.999
c0 -116 -40.833 -215 -122.5 -297s-180.167 -123 -295.5 -123c-116 0 -214.667 41.333 -296 124c-66 65.333 -105.333 141.333 -118 228l75 27c8 -76.667 40.667 -143.334 98 -200.001c66.667 -66.667 147 -100 241 -100s174.333 33.333 241 100s100 147 100 241
c0 93.333 -33.333 173.333 -100 240c-58.667 58.667 -130.334 105.334 -215.001 140.001zM494.004 -202.999c-13.333 2 -25 7.33301 -35 16c-16 12 -24 27 -24 45c0 17.333 7.83301 32 23.5 44s34.5 18 56.5 18c21.333 0 39.833 -6 55.5 -18s23.5 -26.667 23.5 -44
c0 -10 -2 -19.333 -6 -28l-87 -139h-57z" />
    <glyph glyph-name="scommaaccent" unicode="&#x219;" horiz-adv-x="644" 
d="M324 466c-67.333 36.667 -114.001 67.9951 -140.001 93.9951c-40.667 40.667 -61 89.667 -61 147s20.333 106.5 61 147.5s89.667 61.5 147 61.5s105 -19 143 -57c36.667 -36.667 55 -78.667 55 -126v-4l-69 -28c-6 44.667 -20 78.334 -42 101.001s-51 34 -87 34
c-35.333 0 -65.666 -12.667 -90.999 -38s-38 -55.666 -38 -90.999s12.667 -65.666 38 -90.999c14.667 -15.333 45.667 -38 93 -68c75.333 -40.667 129 -77 161 -109c50 -50.667 75 -111 75 -181c0 -72 -25 -133.167 -75 -183.5s-110.667 -75.5 -182 -75.5
s-132 25.167 -182 75.5s-75 105.5 -75 165.5l79 20c0 -51.333 17.5 -94.5 52.5 -129.5s76.833 -52.5 125.5 -52.5s90.667 17.5 126 52.5s53 77.5 53 127.5c0 48.667 -17.667 90.334 -53 125.001c-18.667 18.667 -56.667 46.334 -114 83.001zM313.999 -203.005
c-13.333 2 -25 7.33301 -35 16c-16 12 -24 27 -24 45c0 17.333 7.83301 32 23.5 44s34.5 18 56.5 18c21.333 0 39.833 -6 55.5 -18s23.5 -26.667 23.5 -44c0 -10 -2 -19.333 -6 -28l-87 -139h-57z" />
    <glyph glyph-name="uni021A" unicode="&#x21a;" horiz-adv-x="859" 
d="M391 1334h-358v80h795v-80h-358v-1334h-79v1334zM414 -203c-13.333 2 -25 7.33301 -35 16c-16 12 -24 27 -24 45c0 17.333 7.83301 32 23.5 44s34.5 18 56.5 18c21.333 0 39.833 -6 55.5 -18s23.5 -26.667 23.5 -44c0 -10 -2 -19.333 -6 -28l-87 -139h-57z" />
    <glyph glyph-name="uni021B" unicode="&#x21b;" horiz-adv-x="497" 
d="M234 -203c-13.333 2 -25 7.33301 -35 16c-16 12 -24 27 -24 45c0 17.333 7.83301 32 23.5 44s34.5 18 56.5 18c21.333 0 39.833 -6 55.5 -18s23.5 -26.667 23.5 -44c0 -10 -2 -19.333 -6 -28l-87 -139h-57zM209 868v369h79v-369h177v-80h-177v-788h-79v788h-177v80h177z
" />
    <glyph glyph-name="circumflex" unicode="&#x2c6;" horiz-adv-x="655" 
d="M560 973h-92l-145 106l-135 -106h-93l228 187z" />
    <glyph glyph-name="caron" unicode="&#x2c7;" horiz-adv-x="655" 
d="M323 943l-228 187h93l135 -106l145 106h92z" />
    <glyph glyph-name="uni02C9" unicode="&#x2c9;" horiz-adv-x="671" 
d="M75 1034h521v-62h-521v62z" />
    <glyph glyph-name="breve" unicode="&#x2d8;" horiz-adv-x="565" 
d="M481 1139c-9.33301 -30.667 -26.332 -58.333 -50.999 -83c-40 -40.667 -88.667 -61 -146 -61c-58.667 0 -108 20.333 -148 61c-26 26 -43.667 53.667 -53 83h70c7.33301 -13.333 16.666 -25.666 27.999 -36.999c28 -28.667 62.333 -43 103 -43c39.333 0 73 14.333 101 43
c12 11.333 21.333 23.666 28 36.999h68z" />
    <glyph glyph-name="dotaccent" unicode="&#x2d9;" horiz-adv-x="285" 
d="M190 1121.5c13.333 -13 20 -28.833 20 -47.5s-6.66699 -34.5 -20 -47.5s-29 -19.5 -47 -19.5c-18.667 0 -34.667 6.5 -48 19.5s-20 28.833 -20 47.5s6.66699 34.5 20 47.5s29.333 19.5 48 19.5c18 0 33.667 -6.5 47 -19.5z" />
    <glyph glyph-name="ring" unicode="&#x2da;" horiz-adv-x="494" 
d="M327 1057c22 -22 33 -48.667 33 -80s-11 -58 -33 -80s-48.667 -33 -80 -33s-58 11 -80 33s-33 48.667 -33 80s11 58 33 80s48.667 33 80 33s58 -11 80 -33zM247 1029c-14 0 -26 -5 -36 -15s-15 -22.333 -15 -37c0 -14 5 -26.167 15 -36.5s22 -15.5 36 -15.5
s26.167 5.16699 36.5 15.5s15.5 22.5 15.5 36.5c0 14.667 -5.16699 27 -15.5 37s-22.5 15 -36.5 15z" />
    <glyph glyph-name="ogonek" unicode="&#x2db;" horiz-adv-x="434" 
d="M270 4c-42 -13.333 -72.334 -28 -91.001 -44c-19.333 -16.667 -29.666 -37.334 -30.999 -62.001v-6c0 -22 7.33301 -41.667 22 -59c16 -18.667 35.333 -28.667 58 -30c2 -0.666992 4 -1 6 -1c20.667 0 42.667 7.66699 66 23l17 -48l-4 -3
c-21.333 -18.667 -47.333 -28 -78 -28h-12c-38 2.66699 -70 19 -96 49c-23.333 27.333 -35 58.333 -35 93c0 4.66699 0.333008 9.33398 1 14.001c3.33301 40.667 20 74 50 100c25.333 21.333 53 32 83 32c6 0 12 -0.333008 18 -1z" />
    <glyph glyph-name="tilde" unicode="&#x2dc;" horiz-adv-x="533" 
d="M276 1087c39.333 -28.667 66.665 -43.001 81.998 -43.001h4c12 4.66699 20.667 15.334 26 32.001c2.66699 9.33301 4 25.666 4 48.999l66 -13c-1.33301 -24.667 -4.66602 -45 -9.99902 -61c-12 -36.667 -32.667 -61.334 -62 -74.001c-8 -2.66699 -16.333 -4 -25 -4
c-27.333 0 -62.333 15 -105 45c-39.333 29.333 -66.666 44 -81.999 44c-2 0 -3.33301 -0.333008 -4 -1c-11.333 -4 -19.666 -14.667 -24.999 -32c-3.33301 -9.33301 -5 -25.666 -5 -48.999l-65 14c0.666992 24.667 3.66699 44.667 9 60c12 36.667 33 61.334 63 74.001
c7.33301 3.33301 15.666 5 24.999 5c27.333 0 62 -15.333 104 -46z" />
    <glyph glyph-name="hungarumlaut" unicode="&#x2dd;" horiz-adv-x="643" 
d="M366 1130l-217 -165h-74l144 165h147zM568 1130l-216 -165h-75l144 165h147z" />
    <glyph glyph-name="tonos" unicode="&#x384;" horiz-adv-x="386" 
d="M366 1414l-217 -165h-74l144 165h147z" />
    <glyph glyph-name="dieresistonos" unicode="&#x385;" horiz-adv-x="711" 
d="M511 1414l-177 -165h-74l104 165h147zM584.5 1342c11 -10.667 16.5 -23.334 16.5 -38.001c0 -16 -5.5 -29.333 -16.5 -40s-23.833 -16 -38.5 -16c-15.333 0 -28.5 5.33301 -39.5 16s-16.5 24 -16.5 40c0 14.667 5.5 27.334 16.5 38.001s24.167 16 39.5 16
c14.667 0 27.5 -5.33301 38.5 -16zM204.5 1342c11 -10.667 16.5 -23.334 16.5 -38.001c0 -16 -5.5 -29.333 -16.5 -40s-23.833 -16 -38.5 -16c-15.333 0 -28.5 5.33301 -39.5 16s-16.5 24 -16.5 40c0 14.667 5.5 27.334 16.5 38.001s24.167 16 39.5 16
c14.667 0 27.5 -5.33301 38.5 -16z" />
    <glyph glyph-name="Alphatonos" unicode="&#x386;" horiz-adv-x="1001" 
d="M427 1414l-217 -165h-74l144 165h147zM734 701l-215 593l-216 -593h431zM560 1414l513 -1414h-84l-226 622h-489l-230 -622h-85l519 1414h82z" />
    <glyph glyph-name="anoteleia" unicode="&#x387;" horiz-adv-x="245" 
d="M170 982.5c13.333 -13 20 -28.833 20 -47.5s-6.66699 -34.5 -20 -47.5s-29 -19.5 -47 -19.5c-18.667 0 -34.667 6.5 -48 19.5s-20 28.833 -20 47.5s6.66699 34.5 20 47.5s29.333 19.5 48 19.5c18 0 33.667 -6.5 47 -19.5z" />
    <glyph glyph-name="Epsilontonos" unicode="&#x388;" horiz-adv-x="1044" 
d="M198 1414l-217 -165h-74l144 165h147zM951 1414v-80h-627v-587h627v-80h-627v-587h627v-80h-707v1414h707z" />
    <glyph glyph-name="Etatonos" unicode="&#x389;" horiz-adv-x="1243" 
d="M201 1414l-217 -165h-74l144 165h147zM327 667v-667h-80v1414h80v-667h724v667h80v-1414h-80v667h-724z" />
    <glyph glyph-name="Iotatonos" unicode="&#x38a;" horiz-adv-x="402" 
d="M188 1414l-217 -165h-74l144 165h147zM306 1414v-1414h-80v1414h80z" />
    <glyph glyph-name="Omicrontonos" unicode="&#x38c;" horiz-adv-x="1532" 
d="M274 1414l-217 -165h-74l144 165h147zM1229.5 1221.5c141.667 -141.667 212.5 -312.5 212.5 -512.5c0 -200.667 -70.833 -371.834 -212.5 -513.501s-312.834 -212.5 -513.501 -212.5c-200 0 -370.833 70.833 -512.5 212.5s-212.5 312.834 -212.5 513.501
c0 200 70.833 370.833 212.5 512.5s312.5 212.5 512.5 212.5c200.667 0 371.834 -70.833 513.501 -212.5zM716 1353c-177.333 0 -329 -63 -455 -189s-189 -277.667 -189 -455c0 -178 63 -330 189 -456s277.667 -189 455 -189c178 0 330 63 456 189s189 278 189 456
c0 177.333 -63 329 -189 455s-278 189 -456 189z" />
    <glyph glyph-name="Upsilontonos" unicode="&#x38e;" horiz-adv-x="1201" 
d="M130 1414l-217 -165h-74l144 165h147zM664 572l-486 842h91l435 -754l435 754h91l-486 -842v-572h-80v572z" />
    <glyph glyph-name="Omegatonos" unicode="&#x38f;" horiz-adv-x="1367" 
d="M255 1414l-217 -165h-74l144 165h147zM650 1434c188.667 0 340.167 -66.667 454.5 -200s171.5 -313 171.5 -539c0 -166.667 -45.5 -306.334 -136.5 -419.001s-173.167 -178 -246.5 -196h292v-80h-480v80c129.333 30 243.333 97.167 342 201.5s148 242.166 148 413.499
c0 204 -49.833 366.833 -149.5 488.5s-233.167 182.5 -400.5 182.5h-4c-167.333 0 -300.833 -60.833 -400.5 -182.5s-149.5 -284.5 -149.5 -488.5c0 -171.333 49.333 -309.166 148 -413.499s212.667 -171.5 342 -201.5v-80h-480v80h292c-73.333 18 -155.5 83.333 -246.5 196
s-136.5 252.334 -136.5 419.001c0 226 57.167 405.667 171.5 539s265.833 200 454.5 200h14z" />
    <glyph glyph-name="iotadieresistonos" unicode="&#x390;" horiz-adv-x="369" 
d="M224 868v-868h-79v868h79zM340 1217l-177 -165h-74l104 165h147zM413.5 1145c11 -10.667 16.5 -23.334 16.5 -38.001c0 -16 -5.5 -29.333 -16.5 -40s-23.833 -16 -38.5 -16c-15.333 0 -28.5 5.33301 -39.5 16s-16.5 24 -16.5 40c0 14.667 5.5 27.334 16.5 38.001
s24.167 16 39.5 16c14.667 0 27.5 -5.33301 38.5 -16zM33.5 1145c11 -10.667 16.5 -23.334 16.5 -38.001c0 -16 -5.5 -29.333 -16.5 -40s-23.833 -16 -38.5 -16c-15.333 0 -28.5 5.33301 -39.5 16s-16.5 24 -16.5 40c0 14.667 5.5 27.334 16.5 38.001s24.167 16 39.5 16
c14.667 0 27.5 -5.33301 38.5 -16z" />
    <glyph glyph-name="Alpha" unicode="&#x391;" horiz-adv-x="1116" 
d="M774 701l-215 593l-216 -593h431zM600 1414l513 -1414h-84l-226 622h-489l-230 -622h-85l519 1414h82z" />
    <glyph glyph-name="Beta" unicode="&#x392;" horiz-adv-x="1033" 
d="M519 80c104.667 0 194 37.168 268 111.501s111 164.166 111 269.499s-37 195.333 -111 270s-163.333 112 -268 112h-327v-763h327zM192 1335v-412.001h360c58 6 101.333 23.333 130 52c40.667 40.667 61 90.334 61 149.001c0 58 -20.5 107.667 -61.5 149
s-90.5 62 -148.5 62h-341zM703 887c52 -22 99.667 -54.999 143 -98.999c90 -90 135 -199 135 -327c0 -127.333 -45 -236 -135 -326c-75.333 -75.333 -167 -120.333 -275 -135h-459v1414h422c80.667 0 149.167 -28.333 205.5 -85s84.5 -125 84.5 -205
s-28.333 -148.333 -85 -205c-12 -12.667 -24 -23.334 -36 -32.001z" />
    <glyph glyph-name="Gamma" unicode="&#x393;" horiz-adv-x="753" 
d="M731 1414v-80h-539v-1334h-80v1414h619z" />
    <glyph glyph-name="uni0394" unicode="&#x394;" horiz-adv-x="1103" 
d="M30 1h-60l515 1413h97l521 -1414h-1073v1zM989 80l-456 1234l-450 -1234h906z" />
    <glyph glyph-name="Epsilon" unicode="&#x395;" horiz-adv-x="909" 
d="M819 1414v-80h-627v-587h627v-80h-627v-587h627v-80h-707v1414h707z" />
    <glyph glyph-name="Zeta" unicode="&#x396;" horiz-adv-x="1075" 
d="M854 1334h-670v80h807l-771 -1334h841v-80h-977z" />
    <glyph glyph-name="Eta" unicode="&#x397;" horiz-adv-x="1104" 
d="M190 667v-667h-80v1414h80v-667h724v667h80v-1414h-80v667h-724z" />
    <glyph glyph-name="Theta" unicode="&#x398;" horiz-adv-x="1575" 
d="M1300.5 1221.5c141.667 -141.667 212.5 -312.5 212.5 -512.5c0 -200.667 -70.833 -371.834 -212.5 -513.501s-312.834 -212.5 -513.501 -212.5c-200 0 -370.833 70.833 -512.5 212.5s-212.5 312.834 -212.5 513.501c0 200 70.833 370.833 212.5 512.5
s312.5 212.5 512.5 212.5c200.667 0 371.834 -70.833 513.501 -212.5zM787 1353c-177.333 0 -329 -63 -455 -189s-189 -277.667 -189 -455c0 -178 63 -330 189 -456s277.667 -189 455 -189c178 0 330 63 456 189s189 278 189 456c0 177.333 -63 329 -189 455
s-278 189 -456 189zM388 749h800v-80h-800v80z" />
    <glyph glyph-name="Iota" unicode="&#x399;" horiz-adv-x="324" 
d="M202 1414v-1414h-80v1414h80z" />
    <glyph glyph-name="Kappa" unicode="&#x39a;" horiz-adv-x="999" 
d="M762 1414l-367 -531l618 -883h-97l-572 817l-152 -218v-599h-80v1414h80v-677l473 677h97z" />
    <glyph glyph-name="Lambda" unicode="&#x39b;" horiz-adv-x="1133" 
d="M612 1414l521 -1414h-84l-486 1314l-479 -1313h-84l515 1413h97z" />
    <glyph glyph-name="Mu" unicode="&#x39c;" horiz-adv-x="1442" 
d="M1349 1414v-1414h-80v1328l-547 -717l-548 717v-1328h-80v1414h116l512 -670l511 670h116z" />
    <glyph glyph-name="Nu" unicode="&#x39d;" horiz-adv-x="1339" 
d="M210 1414l940 -1317v1317h80v-1414h-123l-918 1286v-1286h-80v1414h101z" />
    <glyph glyph-name="Xi" unicode="&#x39e;" horiz-adv-x="1100" 
d="M149 749h800v-80h-800v80zM50 1415h1000v-80h-1000v80zM50 81h1000v-80h-1000v80z" />
    <glyph glyph-name="Omicron" unicode="&#x39f;" horiz-adv-x="1575" 
d="M1300.5 1221.5c141.667 -141.667 212.5 -312.5 212.5 -512.5c0 -200.667 -70.833 -371.834 -212.5 -513.501s-312.834 -212.5 -513.501 -212.5c-200 0 -370.833 70.833 -512.5 212.5s-212.5 312.834 -212.5 513.501c0 200 70.833 370.833 212.5 512.5
s312.5 212.5 512.5 212.5c200.667 0 371.834 -70.833 513.501 -212.5zM787 1353c-177.333 0 -329 -63 -455 -189s-189 -277.667 -189 -455c0 -178 63 -330 189 -456s277.667 -189 455 -189c178 0 330 63 456 189s189 278 189 456c0 177.333 -63 329 -189 455
s-278 189 -456 189z" />
    <glyph glyph-name="Pi" unicode="&#x3a0;" horiz-adv-x="1072" 
d="M174 1334v-1334h-80v1414h884v-1414h-80v1334h-724z" />
    <glyph glyph-name="Rho" unicode="&#x3a1;" horiz-adv-x="959" 
d="M192 490v-489.999h-80v1414h371c108 -14.667 199.667 -59.667 275 -135c90 -90.667 135 -199.334 135 -326.001c0 -128 -45 -237.167 -135 -327.5s-198.667 -135.5 -326 -135.5h-240zM192 1333v-762h240c104.667 0 194.334 37.167 269.001 111.5s112 164.5 112 270.5
c0 105.333 -37.333 195 -112 269s-164.334 111 -269.001 111h-240z" />
    <glyph glyph-name="Sigma" unicode="&#x3a3;" horiz-adv-x="1062" 
d="M24 1413h1014v-80h-928l517 -627l-517 -626h928v-80h-1014v116l500 590l-500 591v116z" />
    <glyph glyph-name="Tau" unicode="&#x3a4;" horiz-adv-x="899" 
d="M489 1334v-1334h-79v1334h-358v80h795v-80h-358z" />
    <glyph glyph-name="Upsilon" unicode="&#x3a5;" horiz-adv-x="1052" 
d="M518 572l-486 842h91l435 -754l435 754h91l-486 -842v-572h-80v572z" />
    <glyph glyph-name="Phi" unicode="&#x3a6;" horiz-adv-x="1579" 
d="M749 295v800.002c-180.667 -4.66699 -323 -43.334 -427 -116.001c-111.333 -78.667 -167 -173.334 -167 -284.001s55.667 -205 167 -283c104 -73.333 246.333 -112.333 427 -117zM829 211.002v-207h-80v207c-204 5.33301 -366 52.666 -486 141.999
c-128.667 94.667 -193 209 -193 343s64.333 248.333 193 343c120 88 282 134.667 486 140v233h80v-233c204.667 -5.33301 367.334 -52 488.001 -140c128 -94.667 192 -209 192 -343s-64 -248.333 -192 -343c-120.667 -89.333 -283.334 -136.666 -488.001 -141.999zM829 1095
v-800.002c181.333 4.66699 324 43.667 428 117c111.333 78 167 172.333 167 283s-55.667 205.334 -167 284.001c-104 72.667 -246.667 111.334 -428 116.001z" />
    <glyph glyph-name="Chi" unicode="&#x3a7;" horiz-adv-x="1018" 
d="M15 0l448 777l-368 637h91l322 -559l323 559h91l-369 -637l450 -777h-91l-404 698l-403 -698h-90z" />
    <glyph glyph-name="Psi" unicode="&#x3a8;" horiz-adv-x="1614" 
d="M844 311l0.000976562 -307h-80v307c-204 5.33301 -366 52.666 -486 141.999c-122 94.667 -184.667 210 -188 346v613h80v-617c0 -110.667 55.667 -205 167 -283c104 -73.333 246.333 -112.333 427 -117v1017h80v-1017c181.333 4.66699 324 43.667 428 117
c111.333 78 167 173.667 167 287h5v613h80v-618c-0.666992 -133.333 -64.667 -247 -192 -341c-120.667 -89.333 -283.334 -136.666 -488.001 -141.999z" />
    <glyph glyph-name="uni03A9" unicode="&#x3a9;" horiz-adv-x="1446" 
d="M730 1434c188.667 0 340.167 -66.667 454.5 -200s171.5 -313 171.5 -539c0 -166.667 -45.5 -306.334 -136.5 -419.001s-173.167 -178 -246.5 -196h292v-80h-480v80c129.333 30 243.333 97.167 342 201.5s148 242.166 148 413.499c0 204 -49.833 366.833 -149.5 488.5
s-233.167 182.5 -400.5 182.5h-4c-167.333 0 -300.833 -60.833 -400.5 -182.5s-149.5 -284.5 -149.5 -488.5c0 -171.333 49.333 -309.166 148 -413.499s212.667 -171.5 342 -201.5v-80h-480v80h292c-73.333 18 -155.5 83.333 -246.5 196s-136.5 252.334 -136.5 419.001
c0 226 57.167 405.667 171.5 539s265.833 200 454.5 200h14z" />
    <glyph glyph-name="Iotadieresis" unicode="&#x3aa;" horiz-adv-x="324" 
d="M202 1414v-1414h-80v1414h80zM85.5 1658c15.667 -15.333 23.5 -33.666 23.5 -54.999c0 -22.667 -7.83301 -41.667 -23.5 -57s-34.167 -23 -55.5 -23c-22 0 -40.833 7.66699 -56.5 23s-23.5 34.333 -23.5 57c0 21.333 7.83301 39.666 23.5 54.999s34.5 23 56.5 23
c21.333 0 39.833 -7.66699 55.5 -23zM350.5 1658c15.667 -15.333 23.5 -33.666 23.5 -54.999c0 -22.667 -7.83301 -41.667 -23.5 -57s-34.167 -23 -55.5 -23c-22 0 -40.833 7.66699 -56.5 23s-23.5 34.333 -23.5 57c0 21.333 7.83301 39.666 23.5 54.999s34.5 23 56.5 23
c21.333 0 39.833 -7.66699 55.5 -23z" />
    <glyph glyph-name="Upsilondieresis" unicode="&#x3ab;" horiz-adv-x="1052" 
d="M518 572l-486 842h91l435 -754l435 754h91l-486 -842v-572h-80v572zM481.5 1658c15.667 -15.333 23.5 -33.666 23.5 -54.999c0 -22.667 -7.83301 -41.667 -23.5 -57s-34.167 -23 -55.5 -23c-22 0 -40.833 7.66699 -56.5 23s-23.5 34.333 -23.5 57
c0 21.333 7.83301 39.666 23.5 54.999s34.5 23 56.5 23c21.333 0 39.833 -7.66699 55.5 -23zM746.5 1658c15.667 -15.333 23.5 -33.666 23.5 -54.999c0 -22.667 -7.83301 -41.667 -23.5 -57s-34.167 -23 -55.5 -23c-22 0 -40.833 7.66699 -56.5 23s-23.5 34.333 -23.5 57
c0 21.333 7.83301 39.666 23.5 54.999s34.5 23 56.5 23c21.333 0 39.833 -7.66699 55.5 -23z" />
    <glyph glyph-name="alphatonos" unicode="&#x3ac;" horiz-adv-x="1162" 
d="M980 207c-20 -31.333 -43.667 -61.001 -71 -89.001c-94.667 -95.333 -209.334 -143 -344.001 -143c-133.333 0 -247.5 47.5 -342.5 142.5s-142.5 209.167 -142.5 342.5c0 134.667 47.5 249.334 142.5 344.001s209.167 142 342.5 142
c134.667 0 249.334 -47.333 344.001 -142c29.333 -30 53 -75.333 71 -136l63 200h79l-100 -434l100 -434h-79zM849 743.999c-78.667 78.667 -173.334 118.001 -284.001 118.001s-205.167 -39.333 -283.5 -118s-117.5 -173.334 -117.5 -284.001s39.167 -205 117.5 -283
s172.833 -117 283.5 -117s205.334 39 284.001 117c60 60 91 147 93 261c0 140 -31 242 -93 306zM795 1217l-217 -165h-74l144 165h147z" />
    <glyph glyph-name="epsilontonos" unicode="&#x3ad;" horiz-adv-x="754" 
d="M221.5 354.5c-38.333 -27.667 -57.5 -70.167 -57.5 -127.5c0 -44 21.667 -81.833 65 -113.5s100.333 -47.5 171 -47.5c103.333 6.66699 191.333 61.667 264 165l-1 -130c-78.667 -79.333 -166.334 -119 -263.001 -119c-87.333 0 -160.833 22.5 -220.5 67.5
s-89.5 107.833 -89.5 188.5c0 79.333 47 147.666 141 204.999c-94 57.333 -141 129 -141 215c0 80.667 29.833 138.167 89.5 172.5s133.167 51.5 220.5 51.5c94.667 0 182.334 -37.333 263.001 -112v-108c-71.333 90.667 -159 136 -263 136
c-70.667 0 -127.667 -10.833 -171 -32.5s-65 -54.5 -65 -98.5c0 -64 19.167 -109.667 57.5 -137s68.5 -43.666 90.5 -48.999h218v-79h-218c-22 -4 -52.167 -19.833 -90.5 -47.5zM571 1217l-217 -165h-74l144 165h147z" />
    <glyph glyph-name="etatonos" unicode="&#x3ae;" horiz-adv-x="841" 
d="M170 674v-674h-80v868h80v-56c72 72 156 108 252 108c102.667 0 186.167 -32.167 250.5 -96.5s97.166 -145.166 98.499 -242.499v-912h-79v904c0 74 -26.667 137 -80 189s-116.666 78 -189.999 78c-72.667 0 -135.667 -25.667 -189 -77
c-28.667 -28.667 -49.667 -58.334 -63 -89.001zM625 1217l-217 -165h-74l144 165h147z" />
    <glyph glyph-name="iotatonos" unicode="&#x3af;" horiz-adv-x="369" 
d="M224 868v-868h-79v868h79zM379 1217l-217 -165h-74l144 165h147z" />
    <glyph glyph-name="upsilondieresistonos" unicode="&#x3b0;" horiz-adv-x="880" 
d="M445 -12c-108.667 0 -195.001 32.001 -259.001 96.001s-97 145 -99 243v542h80v-535c0 -73.333 26.667 -136 80 -188c52.667 -52.667 118.334 -79 197.001 -79c73.333 0 136.5 26.167 189.5 78.5s79.5 115.166 79.5 188.499v535h80v-542c-2 -98 -35 -179 -99 -243
s-147 -96 -249 -96zM595.999 1217l-177 -165h-74l104 165h147zM669.499 1145c11 -10.667 16.5 -23.334 16.5 -38.001c0 -16 -5.5 -29.333 -16.5 -40s-24.167 -16 -39.5 -16s-28.5 5.33301 -39.5 16s-16.5 24 -16.5 40c0 14.667 5.5 27.334 16.5 38.001s24.167 16 39.5 16
s28.5 -5.33301 39.5 -16zM289.499 1145c11 -10.667 16.5 -23.334 16.5 -38.001c0 -16 -5.5 -29.333 -16.5 -40s-24.167 -16 -39.5 -16s-28.5 5.33301 -39.5 16s-16.5 24 -16.5 40c0 14.667 5.5 27.334 16.5 38.001s24.167 16 39.5 16s28.5 -5.33301 39.5 -16z" />
    <glyph glyph-name="alpha" unicode="&#x3b1;" horiz-adv-x="1162" 
d="M980 207c-20 -31.333 -43.667 -61.001 -71 -89.001c-94.667 -95.333 -209.334 -143 -344.001 -143c-133.333 0 -247.5 47.5 -342.5 142.5s-142.5 209.167 -142.5 342.5c0 134.667 47.5 249.334 142.5 344.001s209.167 142 342.5 142
c134.667 0 249.334 -47.333 344.001 -142c29.333 -30 53 -75.333 71 -136l63 200h79l-100 -434l100 -434h-79zM849 743.999c-78.667 78.667 -173.334 118.001 -284.001 118.001s-205.167 -39.333 -283.5 -118s-117.5 -173.334 -117.5 -284.001s39.167 -205 117.5 -283
s172.833 -117 283.5 -117s205.334 39 284.001 117c60 60 91 147 93 261c0 140 -31 242 -93 306z" />
    <glyph glyph-name="beta" unicode="&#x3b2;" horiz-adv-x="911" 
d="M409 1433c84 0 155.333 -29.5029 214 -88.5029s88 -129.5 88 -211.5c0 -84 -22.333 -150 -67 -198s-86.667 -80 -126 -96c85.333 -28 156 -72 212 -132c80.667 -86.667 121 -188 121 -304c0 -116.667 -41.167 -216.167 -123.5 -298.5s-181.833 -123.5 -298.5 -123.5
c-59.333 0 -114.333 10.667 -165 32l26 81c42.667 -19.333 89 -29 139 -29c94 0 174 32.833 240 98.5s99 145.5 99 239.5c0 93.333 -32.167 175 -96.5 245s-160.833 117 -289.5 141l-66 2v79c54.667 0.666992 99.5 7.83398 134.5 21.501s73 42.334 114 86.001
s61.5 95.5 61.5 155.5c0 60.667 -21.167 112 -63.5 154s-93.5 63 -153.5 63c-59.333 0 -109 -22.167 -149 -66.5s-60 -104.166 -60 -179.499v-1432h-80v1442c0 95.333 27.333 172.333 82 231s123.667 88 207 88z" />
    <glyph glyph-name="gamma" unicode="&#x3b3;" horiz-adv-x="894" 
d="M404 0l-364 868h93l312 -743l316 743h93l-366 -863v-336h-84v331z" />
    <glyph glyph-name="delta" unicode="&#x3b4;" horiz-adv-x="1114" 
d="M156 460c0 -110.667 39.167 -205 117.5 -283s172.833 -117 283.5 -117s205.167 39 283.5 117s117.5 172.333 117.5 283s-39.167 205.334 -117.5 284.001s-172.833 118 -283.5 118s-205.167 -39.333 -283.5 -118s-117.5 -173.334 -117.5 -284.001zM921.5 783
c80.333 -80.667 120.5 -188.333 120.5 -323c0 -133.333 -47.167 -247.5 -141.5 -342.5s-208.833 -142.5 -343.5 -142.5c-133.333 0 -247.5 47.5 -342.5 142.5s-142.5 209.167 -142.5 342.5c0 134.667 47.667 249.334 143 344.001c83.333 83.333 201.666 133.333 354.999 150
l-377 455h629v-80h-441c166.667 -228 278.334 -355.833 335.001 -383.5s125.167 -81.834 205.5 -162.501z" />
    <glyph glyph-name="epsilon" unicode="&#x3b5;" horiz-adv-x="754" 
d="M221.5 354.5c-38.333 -27.667 -57.5 -70.167 -57.5 -127.5c0 -44 21.667 -81.833 65 -113.5s100.333 -47.5 171 -47.5c103.333 6.66699 191.333 61.667 264 165l-1 -130c-78.667 -79.333 -166.334 -119 -263.001 -119c-87.333 0 -160.833 22.5 -220.5 67.5
s-89.5 107.833 -89.5 188.5c0 79.333 47 147.666 141 204.999c-94 57.333 -141 129 -141 215c0 80.667 29.833 138.167 89.5 172.5s133.167 51.5 220.5 51.5c94.667 0 182.334 -37.333 263.001 -112v-108c-71.333 90.667 -159 136 -263 136
c-70.667 0 -127.667 -10.833 -171 -32.5s-65 -54.5 -65 -98.5c0 -64 19.167 -109.667 57.5 -137s68.5 -43.666 90.5 -48.999h218v-79h-218c-22 -4 -52.167 -19.833 -90.5 -47.5z" />
    <glyph glyph-name="zeta" unicode="&#x3b6;" horiz-adv-x="790" 
d="M810 1388c-362.667 -364 -569.333 -673.667 -620 -929c-8 -40.667 -12 -78 -12 -112c0 -182.667 113.667 -277.667 341 -285c164.667 -5.33301 247 -69 247 -191c-20 -106.667 -80 -161.667 -180 -165v83c62.667 0 96 31 100 93v5c0 62.667 -53.667 94 -161 94
c-283.333 6 -425 123.333 -425 352c0 27.333 2.33301 56.333 7 87c37.333 285.333 226 590 566 914h-536v80h673v-26z" />
    <glyph glyph-name="eta" unicode="&#x3b7;" horiz-adv-x="841" 
d="M170 674v-674h-80v868h80v-56c72 72 156 108 252 108c102.667 0 186.167 -32.167 250.5 -96.5s97.166 -145.166 98.499 -242.499v-912h-79v904c0 74 -26.667 137 -80 189s-116.666 78 -189.999 78c-72.667 0 -135.667 -25.667 -189 -77
c-28.667 -28.667 -49.667 -58.334 -63 -89.001z" />
    <glyph glyph-name="theta" unicode="&#x3b8;" horiz-adv-x="1130" 
d="M966 695c0 200 -39.167 355.667 -117.5 467s-172.833 167 -283.5 167s-205.167 -55.667 -283.5 -167s-117.5 -267 -117.5 -467c0 -200.667 39.167 -356.667 117.5 -468s172.833 -167 283.5 -167s205.167 55.667 283.5 167s117.5 267.333 117.5 468zM1050 695
c0 -223.333 -47.167 -399.166 -141.5 -527.499s-208.5 -192.5 -342.5 -192.5s-248.5 64.167 -343.5 192.5s-142.5 304.166 -142.5 527.499c0 222.667 47.5 398.167 142.5 526.5s209.5 192.5 343.5 192.5s248.167 -64.167 342.5 -192.5s141.5 -303.833 141.5 -526.5zM294 735
h543v-80h-543v80z" />
    <glyph glyph-name="iota" unicode="&#x3b9;" horiz-adv-x="369" 
d="M224 868v-868h-79v868h79z" />
    <glyph glyph-name="kappa" unicode="&#x3ba;" horiz-adv-x="738" 
d="M623 868l-214 -265l341 -603h-98l-295 539l-177 -196v-343h-80v868h80v-398l341 398h102z" />
    <glyph glyph-name="lambda" unicode="&#x3bb;" horiz-adv-x="849" 
d="M470 705l329 -705h-89l-286 606l-285 -606h-89l330 707l-249 531h89l249 -533h1z" />
    <glyph glyph-name="uni03BC" unicode="&#x3bc;" horiz-adv-x="879" 
d="M691 98c-2.66699 -2.66699 -5.66602 -6 -8.99902 -10c-64.667 -64 -148 -96 -250 -96c-94.667 0 -175.334 32.333 -242.001 97v-420h-80v1199h80v-646c11.333 -25.333 29 -50 53 -74c52.667 -50.667 115.667 -76 189 -76c72.667 0 136 26 190 78c34 34 57 72.333 69 115
v603h78v-868h-78v98z" />
    <glyph glyph-name="nu" unicode="&#x3bd;" horiz-adv-x="834" 
d="M136 868l279 -663l282 663h93l-375 -898l-372 898h93z" />
    <glyph glyph-name="xi" unicode="&#x3be;" horiz-adv-x="893" 
d="M203.5 119.5c-82.333 72.333 -123.501 166.834 -123.501 283.501c0 116 40.333 217.333 121 304c56 60 126.667 104 212 132c-39.333 16 -81.333 44.667 -126 86s-67 104 -67 188c10.667 199.333 139 299.333 385 300l217 1v-73h-188c-212.667 0 -319 -73.667 -319 -221
v-7c0 -60 18.833 -108.5 56.5 -145.5s91.5 -69.167 161.5 -96.5l282 -1v-79l-266 2c-128.667 -26.667 -225.167 -75 -289.5 -145s-96.5 -151.667 -96.5 -245c0 -94 33 -168.833 99 -224.5s189.333 -93.667 370 -114s271 -94.833 271 -223.5v-20
c-20 -80 -82.667 -125 -188 -135v93c68 0 104 24.333 108 73v5c0 76 -82.667 120.667 -248 134s-289.166 56.166 -371.499 128.499z" />
    <glyph glyph-name="omicron" unicode="&#x3bf;" horiz-adv-x="1114" 
d="M557 946c134.667 0 249.167 -47.333 343.5 -142s141.5 -209.334 141.5 -344.001c0 -133.333 -47.167 -247.5 -141.5 -342.5s-208.833 -142.5 -343.5 -142.5c-133.333 0 -247.5 47.5 -342.5 142.5s-142.5 209.167 -142.5 342.5c0 134.667 47.5 249.334 142.5 344.001
s209.167 142 342.5 142zM273.5 744c-78.333 -78.667 -117.5 -173.334 -117.5 -284.001s39.167 -205 117.5 -283s172.833 -117 283.5 -117s205.167 39 283.5 117s117.5 172.333 117.5 283s-39.167 205.334 -117.5 284.001s-172.833 118 -283.5 118
s-205.167 -39.333 -283.5 -118z" />
    <glyph glyph-name="pi" unicode="&#x3c0;" horiz-adv-x="1115" 
d="M397 788v-788h-79v788h-258v80h995v-80h-258v-788h-79v788h-321z" />
    <glyph glyph-name="rho" unicode="&#x3c1;" horiz-adv-x="1110" 
d="M92 578c25.333 96 77.001 181.167 155.001 255.5s184 111.5 318 111.5s248.333 -47.167 343 -141.5s142 -208.833 142 -343.5c0 -133.333 -47.333 -247.5 -142 -342.5s-209 -142.5 -343 -142.5s-248.333 47.667 -343 143c-18.667 18.667 -35.334 38 -50.001 58v-507h-80
v909zM172.001 543v-166.001c14.667 -76 51 -142.667 109 -200c78.667 -78.667 173.334 -118 284.001 -118s205.167 39.167 283.5 117.5s117.5 172.833 117.5 283.5s-39.167 205.334 -117.5 284.001s-172.833 118 -283.5 118s-205.334 -39.333 -284.001 -118
c-58 -58 -94.333 -125 -109 -201z" />
    <glyph glyph-name="sigma1" unicode="&#x3c2;" horiz-adv-x="905" 
d="M243.5 124.5c-95.667 69 -143.499 161.831 -143.499 278.498c0 116 40.333 217.333 121 304c88 97.333 229 152 423 164l191 -1v-79h-146c-182 -5.33301 -311.833 -48 -389.5 -128s-116.5 -166.667 -116.5 -260c0 -94 39.667 -167.167 119 -219.5
s186 -93.666 320 -123.999s201 -93.166 201 -188.499v-20c-20 -93.333 -82.667 -145 -188 -155v93c68 0 104 31 108 93v5c0 42.667 -59.333 75.667 -178 99s-225.834 69.5 -321.501 138.5z" />
    <glyph glyph-name="sigma" unicode="&#x3c3;" horiz-adv-x="1197" 
d="M166 460c0 -110.667 39.167 -205 117.5 -283s172.833 -117 283.5 -117s205.167 39 283.5 117s117.5 172.333 117.5 283s-39.167 205.334 -117.5 284.001s-172.833 118 -283.5 118s-205.167 -39.333 -283.5 -118s-117.5 -173.334 -117.5 -284.001zM926 788
c84 -91.333 126 -200.668 126 -328.001c0 -133.333 -47.167 -247.5 -141.5 -342.5s-208.833 -142.5 -343.5 -142.5c-133.333 0 -247.5 47.5 -342.5 142.5s-142.5 209.167 -142.5 342.5c0 134.667 47.5 249.334 142.5 344.001s209.167 142 342.5 142
c100 0 188.667 -26 266 -78h294v-80h-201z" />
    <glyph glyph-name="tau" unicode="&#x3c4;" horiz-adv-x="919" 
d="M499 788v-788h-79v788h-358v80h795v-80h-358z" />
    <glyph glyph-name="upsilon" unicode="&#x3c5;" horiz-adv-x="880" 
d="M445 -12c-108.667 0 -195.001 32.001 -259.001 96.001s-97 145 -99 243v542h80v-535c0 -73.333 26.667 -136 80 -188c52.667 -52.667 118.334 -79 197.001 -79c73.333 0 136.5 26.167 189.5 78.5s79.5 115.166 79.5 188.499v535h80v-542c-2 -98 -35 -179 -99 -243
s-147 -96 -249 -96z" />
    <glyph glyph-name="phi" unicode="&#x3c6;" horiz-adv-x="1131" 
d="M536 -15c-121.333 6.66699 -225.666 54 -312.999 142c-95.333 94.667 -143 208.667 -143 342c0 134.667 47.667 249.334 143 344.001c31.333 32 55.333 53 72 63l30 -85c-14.667 -12 -28.667 -24.667 -42 -38c-78.667 -78.667 -118 -173.334 -118 -284.001
s39 -205 117 -283c76 -76.667 156.333 -115 241 -115h7v743c10 62.667 45.667 94 107 94c42.667 0 98 -15 166 -45c165.333 -74.667 248 -206 248 -394c0 -133.333 -47.333 -247.333 -142 -342c-82.667 -83.333 -180.334 -130.333 -293.001 -141v-312h-80v311zM610 87
c112.667 19.333 192.333 51.999 239 97.999c78.667 78.667 118 173.334 118 284.001c0 137.333 -58 239.333 -174 306c-59.333 34 -104 51 -134 51s-46 -16.333 -48 -49z" />
    <glyph glyph-name="chi" unicode="&#x3c7;" horiz-adv-x="967" 
d="M484 238l-344 -564h-90l388 638l-338 556h91l293 -481l292 481h91l-338 -556l388 -638h-90z" />
    <glyph glyph-name="psi" unicode="&#x3c8;" horiz-adv-x="1166" 
d="M626 -15v-301h-86v301c-118.667 8 -221 55.333 -307 142c-95.333 94.667 -143 208.667 -143 342v400h85v-400c0 -110.667 39 -205 117 -283c76 -76.667 156.333 -115 241 -115h7v798h86v-798h7c84.667 0 165 38.333 241 115c78 78 117 172.333 117 283v400h85v-400
c0 -133.333 -47.667 -247.333 -143 -342c-86 -86.667 -188.333 -134 -307 -142z" />
    <glyph glyph-name="omega" unicode="&#x3c9;" horiz-adv-x="1360" 
d="M647 197h-6.00098v468h79v-468h-8l14 -20c3.33301 -4.66699 7 -9 11 -13c34.667 -76.667 97.334 -115 188.001 -115s160.167 35 208.5 105s72.5 180.333 72.5 331c0 137.333 -35.333 260.333 -106 369v14h78c74.667 -127.333 112 -255 112 -383
c0 -167.333 -30.5 -294.166 -91.5 -380.499s-148.5 -129.5 -262.5 -129.5c-112.667 0 -197.667 47 -255 141c-57.333 -94 -142.333 -141 -255 -141c-114 0 -201.833 43.167 -263.5 129.5s-92.5 213.166 -92.5 380.499c0 130 39.667 257.667 119 383h80v-8
c-76.667 -100 -115 -225 -115 -375c0 -150.667 24.167 -261 72.5 -331s117.833 -105 208.5 -105s153.667 38.333 189 115l10 14c4.66699 6 9 12.333 13 19z" />
    <glyph glyph-name="iotadieresis" unicode="&#x3ca;" horiz-adv-x="369" 
d="M225 868v-868h-79v868h79zM108.5 1192c15.667 -15.333 23.5 -33.666 23.5 -54.999c0 -22.667 -7.83301 -41.667 -23.5 -57s-34.167 -23 -55.5 -23c-22 0 -40.833 7.66699 -56.5 23s-23.5 34.333 -23.5 57c0 21.333 7.83301 39.666 23.5 54.999s34.5 23 56.5 23
c21.333 0 39.833 -7.66699 55.5 -23zM373.5 1192c15.667 -15.333 23.5 -33.666 23.5 -54.999c0 -22.667 -7.83301 -41.667 -23.5 -57s-34.167 -23 -55.5 -23c-22 0 -40.833 7.66699 -56.5 23s-23.5 34.333 -23.5 57c0 21.333 7.83301 39.666 23.5 54.999s34.5 23 56.5 23
c21.333 0 39.833 -7.66699 55.5 -23z" />
    <glyph glyph-name="upsilondieresis" unicode="&#x3cb;" horiz-adv-x="880" 
d="M445 -12c-108.667 0 -195.001 32.001 -259.001 96.001s-97 145 -99 243v542h80v-535c0 -73.333 26.667 -136 80 -188c52.667 -52.667 118.334 -79 197.001 -79c73.333 0 136.5 26.167 189.5 78.5s79.5 115.166 79.5 188.499v535h80v-542c-2 -98 -35 -179 -99 -243
s-147 -96 -249 -96zM363.499 1192c15.667 -15.333 23.5 -33.666 23.5 -54.999c0 -22.667 -7.83301 -41.667 -23.5 -57s-34.167 -23 -55.5 -23c-22 0 -40.833 7.66699 -56.5 23s-23.5 34.333 -23.5 57c0 21.333 7.83301 39.666 23.5 54.999s34.5 23 56.5 23
c21.333 0 39.833 -7.66699 55.5 -23zM628.499 1192c15.667 -15.333 23.5 -33.666 23.5 -54.999c0 -22.667 -7.83301 -41.667 -23.5 -57s-34.167 -23 -55.5 -23c-22 0 -40.833 7.66699 -56.5 23s-23.5 34.333 -23.5 57c0 21.333 7.83301 39.666 23.5 54.999s34.5 23 56.5 23
c21.333 0 39.833 -7.66699 55.5 -23z" />
    <glyph glyph-name="omicrontonos" unicode="&#x3cc;" horiz-adv-x="1114" 
d="M557 946c134.667 0 249.167 -47.333 343.5 -142s141.5 -209.334 141.5 -344.001c0 -133.333 -47.167 -247.5 -141.5 -342.5s-208.833 -142.5 -343.5 -142.5c-133.333 0 -247.5 47.5 -342.5 142.5s-142.5 209.167 -142.5 342.5c0 134.667 47.5 249.334 142.5 344.001
s209.167 142 342.5 142zM273.5 744c-78.333 -78.667 -117.5 -173.334 -117.5 -284.001s39.167 -205 117.5 -283s172.833 -117 283.5 -117s205.167 39 283.5 117s117.5 172.333 117.5 283s-39.167 205.334 -117.5 284.001s-172.833 118 -283.5 118
s-205.167 -39.333 -283.5 -118zM751 1217l-217 -165h-74l144 165h147z" />
    </font>
</defs>
</svg>
