<?xml version="1.0" standalone="no"?>
<!DOCTYPE svg PUBLIC "-//W3C//DTD SVG 1.1//EN" "http://www.w3.org/Graphics/SVG/1.1/DTD/svg11.dtd" >
<svg>
<metadata>
Created by FontForge 20090914 at Sun Dec 21 11:53:26 2014
 By www-data
From the WSI-FONT Collection.  Copyright (c) 1992 WSI.  All Rights Reserved.  Redistribution strictly prohibited. 
</metadata>
<defs>
<font id="Typist" horiz-adv-x="2617" >
  <font-face 
    font-family="Typist"
    font-weight="400"
    font-stretch="normal"
    units-per-em="4096"
    panose-1="2 11 114 0 0 0 0 0 0 0"
    ascent="3276"
    descent="-820"
    x-height="2048"
    cap-height="2753"
    bbox="-512.001 -922.001 4907 3629"
    underline-thickness="50"
    underline-position="-75"
    unicode-range="U+0020-U+2219"
  />
<missing-glyph horiz-adv-x="3072" 
d="M512 0v2560h2048v-2560h-2048zM2494 66v2428h-1916v-2428h1916z" />
    <glyph glyph-name=".notdef" horiz-adv-x="3072" 
d="M512 0v2560h2048v-2560h-2048zM2494 66v2428h-1916v-2428h1916z" />
    <glyph glyph-name="space" unicode=" " horiz-adv-x="2494" 
 />
    <glyph glyph-name="exclam" unicode="!" horiz-adv-x="1368" 
d="M831 864c0 -65.333 -15 -115.667 -45 -151c-32.667 -38.667 -72 -58 -118 -58c-44 0 -82.333 19.333 -115 58c-32.667 35.333 -49 87 -49 155v1770c0 65.333 16.333 117 49 155c30 36 68.333 54 115 54c43.333 0 81.333 -18 114 -54c32.667 -38 49 -91 49 -159v-1770z
M913 228.999c0 -73.333 -24.5 -134.666 -73.5 -183.999s-110.5 -74 -184.5 -74c-73.333 0 -134.666 24.667 -183.999 74s-74 110.666 -74 183.999c0 74 24.667 135.5 74 184.5s110.666 73.5 183.999 73.5c74 0 135.5 -24.5 184.5 -73.5s73.5 -110.5 73.5 -184.5z" />
    <glyph glyph-name="quotedbl" unicode="&#x22;" horiz-adv-x="2048" 
d="M1634 2781c0 -182.667 -20.333 -413.334 -61 -692l-66 -438h-110l-66 585c-24.667 226.667 -37 414 -37 562c0 38 15 69.333 45 94c30 22 67 33 111 33h25c35.333 0 69.333 -11 102 -33c38 -30 57 -67 57 -111zM856 2781c0 -182.667 -20.333 -413.334 -61 -692l-66 -438
h-111l-65 585c-24.667 226.667 -37 414 -37 562c0 38 15 69.333 45 94c27.333 22 64.333 33 111 33c52 0 95.667 -12.333 131 -37c35.333 -27.333 53 -63 53 -107z" />
    <glyph glyph-name="numbersign" unicode="#" horiz-adv-x="2494" 
d="M2236 1937l-69 -319h-484l-135 -545h504l-70 -319h-503l-185 -762h-184l193 762h-459l-185 -762h-184l184 762h-430l70 319h442l127 545h-462l57 319h487l185 783h180l-180 -783h454l176 783h185l-193 -783h479zM1499 1610h-446l-135 -545h454z" />
    <glyph glyph-name="dollar" unicode="$" 
d="M2417 586c0 -262 -98.332 -468.334 -294.999 -619.001c-166.667 -128 -386.667 -207 -660 -237v-385c0 -38.667 -10.667 -68.667 -32 -90c-24.667 -24.667 -53.667 -37 -87 -37c-32.667 0 -59.667 10.667 -81 32c-24.667 19.333 -37 51 -37 95v368
c-259.333 0 -486 63 -680 189c-229.333 147.333 -344 350.666 -344 609.999c8 101.333 38 187.333 90 258c49.333 68 123 102 221 102c147.333 0 221 -72.333 221 -217c0 -76 -24.667 -132 -74 -168c-35.333 -27.333 -81.666 -41 -138.999 -41
c0 -133.333 80.667 -243.666 242 -330.999c139.333 -76.667 293.666 -115 462.999 -115v1098c-338.667 54.667 -575 146 -709 274c-120 114.667 -180 266.334 -180 455.001c0 221.333 83.333 405.666 250 553c163.333 144.667 376.333 233.334 639 266v344
c0 44 12.333 78 37 102c21.333 22 48.333 33 81 33c33.333 0 62.333 -11 87 -33c21.333 -24 32 -58 32 -102v-344c229.333 -30 409.666 -83.333 540.999 -160c210 -120 315 -297.333 315 -532c0 -62.667 -23 -114.667 -69 -156c-46.667 -40.667 -102.667 -61 -168 -61
c-54.667 0 -101 19 -139 57c-41.333 35.333 -62 80.333 -62 135c0 30 12.333 63 37 99c10.667 16 25.667 33.667 45 53c-30 73.333 -94.333 138.666 -193 196c-98 54.667 -200.333 82 -307 82v-975c306 -68 520.333 -140.333 643 -217c208 -128 312 -321.667 312 -581z
M1225 1442l-0.000976562 917c-147.333 0 -275.666 -42.333 -384.999 -127c-112 -84.667 -168 -199.334 -168 -344.001c0 -128 60 -230.333 180 -307c76.667 -49.333 201 -95.666 373 -138.999zM2077 556.999c0 134 -64.333 246.001 -193 336.001
c-112 76.667 -252.667 125.667 -422 147v-1040c172 -0 318.333 53.333 439 160c117.333 103.333 176 235.666 176 396.999z" />
    <glyph glyph-name="percent" unicode="%" horiz-adv-x="3641" 
d="M3559 844c0 -303.333 -62.667 -528.666 -188 -675.999c-114.667 -134 -277 -201 -487 -201c-226.667 0 -401.667 76.667 -525 230c-125.333 150 -188 365.667 -188 647c0 256.667 60 467 180 631c131.333 177.333 309 266 533 266c226.667 0 398.667 -87.333 516 -262
c106 -158.667 159 -370.334 159 -635.001zM2810 2769l-1712 -2753c-22 -21.333 -38.333 -32 -49 -32h-144c-24.667 0 -37 6.66699 -37 20c8.66699 16.667 13 29 13 37l1704 2728c18.667 27.333 32.334 41 41 41h167c14 0 21 -4 21 -12c-2.66699 -11.333 -4 -21 -4 -29z
M1475 1896c0 -286.667 -61.666 -503.668 -184.999 -651.001c-122.667 -150 -286.334 -225 -491.001 -225c-226.667 0 -401.667 76.333 -525 229c-125.333 150.667 -188 366.334 -188 647.001c0 254 65.667 467 197 639c128 172 300 258 516 258
c229.333 0 401.333 -81.667 516 -245c106.667 -153.333 160 -370.666 160 -652zM3318 843.999c0 182.667 -30.001 337 -90.001 463c-76.667 160.667 -191.334 241 -344 241c-139.333 0 -255.666 -72.333 -348.999 -217c-92.667 -147.333 -139 -309.666 -139 -486.999
c0 -188.667 43.667 -350 131 -484c87.333 -133.333 206.333 -200 357 -200c147.333 0 259 73.667 335 221c66 125.333 99 279.666 99 462.999zM1233 1896c0 208 -30.001 370.666 -90.001 487.999c-74 144.667 -188.667 217 -344 217c-139.333 0 -255.333 -72.333 -348 -217
c-93.333 -147.333 -140 -310 -140 -488c0 -190.667 43.667 -351.667 131 -483c84.667 -134 203.667 -201 357 -201c122.667 0 226.334 68.333 311.001 205c82 136.667 123 296.334 123 479.001z" />
    <glyph glyph-name="ampersand" unicode="&#x26;" horiz-adv-x="3416" 
d="M3367 1585c0 -130.667 -41 -244.005 -123 -340.005c-92.667 -109.333 -221 -164 -385 -164c-87.333 0 -162.333 19.333 -225 58c-76.667 46 -115 108.667 -115 188c0 60 16.333 112 49 156c30 43.333 67 65 111 65c52 0 90 -9.33301 114 -28
c22 -19.333 33 -42.666 33 -69.999c-2.66699 -44 -4 -76.667 -4 -98c27.333 -6 46.333 -9 57 -9c49.333 0 94.666 18 136 54c38 32.667 57 76.334 57 131.001c0 79.333 -26 149 -78 209s-112 90 -180 90c-114.667 0 -219.667 -57.333 -315 -172
c-68.667 -82 -135.667 -202.333 -201 -361l-283 -688c87.333 -128 199.333 -215.333 336 -262c98.667 -32.667 229.667 -49 393 -49h135c30.667 0 56.667 -16.333 78 -49c19.333 -32.667 29 -65.667 29 -99c0 -48.667 -24.667 -86.667 -74 -114c-52 -30 -146 -45 -282 -45
h-86c-158.667 0 -298 35.333 -418 106c-54.667 32.667 -155.667 113.334 -303 242.001c-106.667 -112 -225.667 -198 -357 -258c-133.333 -62.667 -272.333 -94 -417 -94c-238 0 -430.667 60 -578 180c-174.667 142 -262 355 -262 639c0 212.667 69.667 394.334 209 545.001
c84.667 90 244.334 203.333 479.001 340c-74 155.333 -120.333 260.333 -139 315c-44 120 -66 229.333 -66 328c0 163.333 58.667 292.833 176 388.5s267.666 143.5 450.999 143.5c164 0 306 -49.167 426 -147.5s180 -215.833 180 -352.5c0 -169.333 -60 -325 -180 -467
c-84.667 -98 -218.667 -207 -402 -327l480 -713l348 819c164 281.333 386.667 422 668 422c155.333 0 282 -50.333 380 -151c98.667 -101.333 148 -221.666 148 -360.999zM1585 2335c0 70.667 -23 128.001 -69 172.001c-46.667 40.667 -112.334 69.334 -197.001 86
c-82 0 -153 -27.333 -213 -82c-52 -49.333 -78 -105.333 -78 -168v-25c0 -54.667 12.333 -116 37 -184c2.66699 -5.33301 50.334 -109 143.001 -311l262 196c76.667 79.333 115 184.666 115 315.999zM1622 577.996c-104 130.667 -206.331 269.666 -306.998 416.999
c-101.333 148 -193 294.333 -275 439c-158 -82 -272.667 -164 -344 -246c-95.333 -109.333 -143 -241.666 -143 -396.999c0 -166.667 53.333 -296.667 160 -390c95.333 -81.333 216.666 -122 363.999 -122c123.333 0 228.666 28.667 315.999 86
c54.667 35.333 131 106.333 229 213z" />
    <glyph glyph-name="quotesingle" unicode="'" horiz-adv-x="1290" 
d="M856 2781c0 -182.667 -20.333 -413.334 -61 -692l-66 -438h-111l-65 585c-24.667 226.667 -37 414 -37 562c0 38 15 69.333 45 94c27.333 22 64.333 33 111 33c52 0 95.667 -12.333 131 -37c35.333 -27.333 53 -63 53 -107z" />
    <glyph glyph-name="parenleft" unicode="(" horiz-adv-x="1823" 
d="M1737 2720l-8 -48.999c-265.333 -150.667 -454 -269.667 -566 -357c-185.333 -144.667 -326 -304.334 -422 -479.001c-108.667 -202 -163 -441 -163 -717c0 -259.333 51.667 -490 155 -692c87.333 -169.333 221.333 -327.666 402 -474.999
c136 -112 317.333 -229.333 544 -352c22 -22 33 -42.667 33 -62c-16 -32.667 -32.333 -49 -49 -49c-155.333 0 -338.333 67 -549 201c-232 147.333 -423 335.666 -573 564.999c-178 273.333 -267 564 -267 872c0 338.667 101.333 646 304 922
c155.333 210 357.333 389 606 537c199.333 117.333 348 176 446 176c71.333 0 107 -13.667 107 -41z" />
    <glyph glyph-name="parenright" unicode=")" horiz-adv-x="1823" 
d="M1536 1126c0 -311.333 -87.334 -600.667 -262.001 -868c-150 -232 -341.333 -421.667 -574 -569c-210 -134 -394.333 -201 -553 -201c-16 0 -32.333 16.333 -49 49c0 19.333 11 40 33 62c232 125.333 413.667 241.333 545 348c174.667 142 308.334 301.667 401.001 479
c104 199.333 156 430 156 692c0 273.333 -54.667 511 -164 713c-92.667 172 -233.334 331.667 -422.001 479c-120 96 -308.333 216.333 -565 361l-8 49c0 27.333 35.333 41 106 41c98.667 0 246.334 -57.333 443.001 -172c245.333 -144.667 447.333 -325 606 -541
c204.667 -278.667 307 -586 307 -922z" />
    <glyph glyph-name="asterisk" unicode="*" horiz-adv-x="1937" 
d="M1479 1913c98 -32.667 147.002 -87.333 147.002 -164c0 -32.667 -12.333 -61.334 -37 -86.001c-27.333 -27.333 -60 -41 -98 -41c-52 0 -106.667 24.667 -164 74l-295 250l-33 -17l82 -377c6 -38 9 -62.333 9 -73c0 -54.667 -12.333 -95.667 -37 -123
c-27.333 -30 -61.666 -45 -102.999 -45c-38 0 -70.667 15 -98 45c-30 30 -45 72.333 -45 127c0 8 2.66699 28.333 8 61l74 377l-33 25l-303 -267c-24.667 -21.333 -52 -37.666 -82 -48.999c-30 -13.333 -56 -20 -78 -20c-27.333 0 -50.333 6.66699 -69 20
c-36 24.667 -54 60.334 -54 107.001c0 35.333 13.667 70.666 41 105.999c27.333 32.667 69.666 58.667 126.999 78l353 119l8 41l-422 143c-79.333 27.333 -119 76.666 -119 148c0 35.333 13.667 68 41 98c24.667 27.333 56 41 94 41c41.333 0 85 -19 131 -57l332 -279
l33 25l-82 376c-5.33301 38.667 -8 63.334 -8 74c0 52 13.667 91.667 41 119s60 41 98 41s72 -15 102 -45c27.333 -30 41 -72.333 41 -127c0 -8 -2.66699 -28.667 -8 -62l-82 -376l41 -25l287 274c27.333 27.333 54.666 46.666 81.999 58c24.667 10.667 50.667 16 78 16
c38 0 69.333 -12.333 94 -37s37 -54.667 37 -90c0 -32.667 -12.333 -64 -37 -94s-64.334 -56 -119.001 -78l-364 -143v-41z" />
    <glyph glyph-name="plus" unicode="+" horiz-adv-x="1778" 
d="M1679 1106h-680v-737h-229v737h-688v229h688v672h229v-672h680v-229z" />
    <glyph glyph-name="comma" unicode="," horiz-adv-x="1352" 
d="M1020 156c0 -174.667 -46.333 -351.001 -139 -529.001c-93.333 -177.333 -194.333 -266 -303 -266c-27.333 0 -41 19 -41 57c0 2.66699 42.333 56 127 160c81.333 101.333 122 240.666 122 417.999c0 10.667 -60 28.334 -180 53.001s-180 104 -180 238
c0 84.667 28.667 148.667 86 192c54.667 44 121.667 66 201 66c106 -16.667 183.667 -59 233 -127c49.333 -71.333 74 -158.666 74 -261.999z" />
    <glyph glyph-name="hyphen" unicode="-" horiz-adv-x="1257" 
d="M975 942h-639.002c-49.333 0 -87.666 15 -114.999 45c-30 27.333 -45 60 -45 98c0 44 13.667 79.667 41 107c24.667 27.333 64.334 41 119.001 41h639c46 0 84.333 -13.667 115 -41c26.667 -30 40 -65.667 40 -107c0 -40.667 -12 -74.667 -36 -102
c-27.333 -27.333 -67 -41 -119 -41z" />
    <glyph glyph-name="period" unicode="." horiz-adv-x="1368" 
d="M905 225c0 -73.333 -26 -134.667 -78 -184c-51.333 -49.333 -114 -74 -188 -74s-135.5 26 -184.5 78s-73.5 114.667 -73.5 188c0 74 26 135.667 78 185s114.667 74 188 74c74 0 135.333 -26 184 -78c49.333 -52 74 -115 74 -189z" />
    <glyph glyph-name="slash" unicode="/" horiz-adv-x="2048" 
d="M1778 2904l-1217 -3121c-5.33301 -14 -9.33301 -23.667 -12 -29c-16.667 -22 -40 -33 -70 -33h-168c-27.333 0 -41 11 -41 33c6 24.667 9 42.334 9 53.001l1224 3130c14 35.333 31.667 58.333 53 69c11.333 6 32 9 62 9h119c43.333 0 65 -12.333 65 -37
c0 -8 -8 -32.667 -24 -74z" />
    <glyph glyph-name="zero" unicode="0" 
d="M2433 1380c0 -396 -88.668 -725.002 -266.001 -987.002c-204.667 -300 -495.667 -450 -873 -450c-371.333 0 -654 151.333 -848 454c-163.333 256.667 -245 580.334 -245 971.001s80.333 714.334 241 971.001c196.667 314 486.334 471 869.001 471
c382 0 671.333 -146 868 -438c169.333 -251.333 254 -582 254 -992zM2068 1430c0 297.333 -51.667 540.333 -155 729c-131.333 234.667 -332 352 -602 352c-276 0 -479.667 -131 -611 -393c-100.667 -202 -151 -463 -151 -783c0 -316.667 56 -572 168 -766
c130.667 -226.667 323 -340 577 -340c273.333 0 477 132.667 611 398c108.667 215.333 163 483 163 803z" />
    <glyph glyph-name="one" unicode="1" 
d="M2138 123c0 -62.667 -14.9951 -103.667 -44.9951 -123c-16.667 -10.667 -48 -16 -94 -16c-164 0 -336.167 5.33301 -516.5 16s-316.833 16 -409.5 16c-24.667 0 -95.667 -6.66699 -213 -20c-46 -5.33301 -89.667 -8 -131 -8c-74 0 -134 9.33301 -180 28
c-46.667 19.333 -70 55 -70 107c0 30 11 60 33 90c19.333 30 44 45 74 45c38 0 83 -1.33301 135 -4c52 -5.33301 109.333 -9.33301 172 -12c57.333 0 103.666 6.66699 138.999 20c41.333 41.333 68.666 89.333 81.999 144c14 51.333 21 114 21 188v86v1454v74
c0 90 -5.66699 151.333 -17 184c-18.667 57.333 -58.334 86 -119.001 86h-385c-27.333 0 -49 12.333 -65 37c-16.667 22 -25 49.333 -25 82c0 43.333 13.667 80 41 110c27.333 30.667 68.333 46 123 46h664c38 0 70.667 -34.333 98 -103c24.667 -68 37 -178.667 37 -332v-98
c-2.66699 -30 -5.33398 -56 -8.00098 -78v-1614c0 -62.667 12.333 -118.667 37 -168c21.333 -48.667 55.333 -85.334 102 -110.001l295 12c87.333 0 147.333 -11 179.999 -33c30 -21.333 45 -56.666 45 -105.999z" />
    <glyph glyph-name="two" unicode="2" 
d="M2417 516c0 -152.667 -50.6641 -289.331 -151.997 -409.998c-100.667 -120 -229 -180 -385 -180c-152.667 0 -331.667 76.667 -537 230c-204.667 152.667 -375.334 229 -512.001 229c-65.333 0 -124 -12.333 -176 -37c-51.333 -24.667 -88 -68.334 -110 -131.001h78
c32.667 0 54.334 -9.66699 65.001 -29c11.333 -18.667 17 -41.667 17 -69c0 -54.667 -23.333 -98.334 -70 -131.001s-97.334 -49 -152.001 -49c-82 16 -150.167 67.667 -204.5 155s-81.5 179 -81.5 275c0 314 152.667 562.333 458 745l852 365c306 136 459 309.333 459 520
c0 169.333 -68.333 305.666 -205 409c-122.667 93.333 -270 140 -442 140c-161.333 0 -311.666 -38.333 -450.999 -115c-142 -79.333 -213 -176.333 -213 -291c44 -18.667 77 -35 99 -49c68 -40.667 102 -77.667 102 -111c0 -84.667 -24.667 -154 -74 -208
c-48.667 -54.667 -110 -82 -184 -82c-95.333 0 -170.333 32.667 -225 98s-82 158 -82 278c0 221.333 113.333 404.333 340 549c207.333 134 444.666 201 711.999 201c268 0 496.333 -72.333 685 -217c188 -147.333 282 -344 282 -590c0 -308.667 -154.333 -542 -463 -700
l-868 -312c-311.333 -120 -467 -287.667 -467 -503c136.667 128 278.667 192 426 192c155.333 0 361.333 -99.667 618 -299c123.333 -95.333 239.666 -143 348.999 -143c73.333 0 133.166 28.667 179.499 86s69.5 129.666 69.5 216.999c0 24.667 -1.33301 43.667 -4 57
c-38 -38 -81.667 -57 -131 -57c-8 -2.66699 -16 -4 -24 -4c-32.667 0 -65.667 15 -99 45c-43.333 32.667 -65 66.667 -65 102c0 79.333 24.667 139.333 74 180c46 38.667 107.333 58 184 58c92.667 0 170.334 -43.667 233 -131c63.333 -87.333 95 -181.666 95 -282.999z" />
    <glyph glyph-name="three" unicode="3" 
d="M2408 913c0 -284 -103.667 -516.001 -311 -696.001c-210 -180 -496.667 -270 -860 -270c-267.333 0 -499.333 64 -696 192c-221.333 144.667 -332 333.334 -332 566.001c0 152.667 36.667 268.667 110 348c74 78.667 169.667 118 287 118c52 0 102.667 -21.667 152 -65
c46 -46.667 69 -94.334 69 -143.001c0 -57.333 -5.33301 -99.666 -16 -126.999c-19.333 -44 -48 -70 -86 -78c-38 -11.333 -68 -17 -90 -17c-24.667 2.66699 -43.667 4 -57 4l-33 -32c0 -134 80.333 -250 241 -348c158.667 -98.667 325.334 -148 500.001 -148
c229.333 0 417.666 68.333 564.999 205c144.667 136.667 217 297.667 217 483c0 158.667 -42 283 -126 373c-101.333 106.667 -257 160 -467 160c-44 0 -111 -5.66699 -201 -17c-90 -10.667 -155.667 -16 -197 -16c-57.333 0 -94 21.667 -110 65
c-2.66699 8.66699 -4 17 -4 25c0 35.333 23 76.333 69 123l815 840h-1040l-78 -25c-49.333 -19.333 -82 -46.666 -98 -81.999c-5.33301 -19.333 -9.66602 -48 -12.999 -86c-2.66699 -38 -4 -66.667 -4 -86v-102c2.66699 -46.667 4 -81 4 -103
c0 -48.667 -6.66699 -81.334 -20 -98.001c-22 -27.333 -61.667 -41 -119 -41c-43.333 0 -73.333 15 -90 45c-19.333 30 -29 69.667 -29 119v663c0 33.333 16.667 58 50 74c30 16.667 66.667 25 110 25l1528 4c114.667 0 196.667 -12.333 246 -37c46 -27.333 69 -63 69 -107
c0 -30 -9.33301 -61.333 -28 -94c-22 -32.667 -48 -64 -78 -94l-729 -721c251.333 0 461.666 -72.333 630.999 -217c166 -144.667 249 -338.667 249 -582z" />
    <glyph glyph-name="four" unicode="4" 
d="M2425 127c0 -35.333 -12.3291 -68.0029 -36.9961 -98.0029s-60.334 -45 -107.001 -45c-84.667 0 -157 2.66699 -217 8c-212.667 18.667 -323 28 -331 28c-68.667 0 -164.334 -4 -287.001 -12c-126 -10.667 -208 -16 -246 -16c-73.333 0 -132 8 -176 24
c-46.667 16.667 -70 48.334 -70 95.001c-2.66699 10.667 -4 20 -4 28c0 32.667 11 60 33 82c27.333 27.333 65.666 41 114.999 41l295 -4c46 10.667 78.667 47.5 98 110.5s29 135.5 29 217.5v245h-1201c-68 0 -118.333 13.667 -151 41c-32.667 24.667 -49 57.667 -49 99
c0 22 5.33301 46.333 16 73c11.333 27.333 25 52 41 74l1024 1348c87.333 114.667 170.666 199.334 249.999 254.001c76.667 54.667 147.667 82 213 82c62.667 0 111.667 -24.667 147 -74c36 -49.333 54 -119 54 -209v-1401h446c44 0 76.667 -13.667 98 -41
c22 -27.333 33 -60 33 -98c0 -40.667 -11 -74.667 -33 -102c-24 -30.667 -58 -46 -102 -46h-442v-245c0 -87.333 8 -159.666 24 -216.999c14 -60 45.333 -97 94 -111c44 -5.33301 74.333 -8 91 -8c30 0 70.667 2.66699 122 8c52 2.66699 80.667 4 86 4
c96 0 144 -45 144 -135zM1552 2441l-1015 -1323h983z" />
    <glyph glyph-name="five" unicode="5" 
d="M2396 958c0 -297.333 -89.999 -535.999 -269.999 -715.999c-202 -199.333 -491.667 -299 -869 -299c-248 0 -471.667 60 -671 180c-218.667 134 -328 297.667 -328 491c0 112 26 205 78 279c49.333 70.667 130 106 242 106c76 0 130.333 -20.333 163 -61
c33.333 -40.667 54 -98 62 -172c0 -49.333 -15 -90.333 -45 -123s-78 -49 -144 -49c0 -114.667 72.333 -203.334 217 -266.001c142 -66 302 -99 480 -99c202 0 371.333 60.333 508 181c152.667 133.333 229 316 229 548c0 183.333 -62.833 335 -188.5 455
s-284.167 180 -475.5 180c-163.333 0 -313.333 -38 -450 -114l-373 -254c-68 0 -114.333 21.667 -139 65c-16.667 60 -29 102.333 -37 127l41 529v139c-2.66699 46 -4 92.333 -4 139c0 174.667 11 307 33 397c18.667 88 62.334 132 131.001 132h1061l282 16
c147.333 0 228 -68.333 242 -205c10.667 -139.333 23 -277.333 37 -414c0 -51.333 -18 -85.333 -54 -102c-18.667 -8 -47.334 -12 -86 -12c-30 0 -57 8 -81 24c-27.333 16.667 -41 40 -41 70c-8.66699 76.667 -13 116.334 -13 119c-13.333 43.333 -47.333 104.666 -102 184
c-8 0 -24.333 4 -49 12c-24.667 8.66699 -42.334 13 -53.001 13h-857c-32.667 0 -57 -11 -73 -33c-19.333 -24.667 -29 -49.334 -29 -74l-57 -704c109.333 68 232 122.333 368 163c134 41.333 265.333 62 394 62c259.333 0 473.666 -76.667 642.999 -230
c185.333 -166 278 -394 278 -684z" />
    <glyph glyph-name="six" unicode="6" 
d="M2400 930c0 -278.667 -92.666 -512.336 -277.999 -701.003c-196.667 -199.333 -457.667 -299 -783 -299c-374 0 -660.667 135.333 -860 406c-174.667 234.667 -262 529.667 -262 885c0 474.667 108 858.334 324 1151c212.667 292 507.334 438 884.001 438
c196.667 0 375.667 -48 537 -144c191.333 -111.333 287 -256 287 -434c0 -73.333 -24.667 -138.666 -74 -196c-52 -60 -116.333 -90 -193 -90c-57.333 0 -109 23 -155 69c-38.667 38.667 -58 77 -58 115v24c0 84.667 39.667 139.334 119 164.001
c-40.667 74 -103.334 130 -188.001 168c-84.667 36 -174.667 54 -270 54c-300.667 0 -529 -128.667 -685 -386c-122.667 -204.667 -184 -455.667 -184 -753c82 144.667 196.667 255.334 344 332.001c147.333 73.333 305.666 110 474.999 110c281.333 0 516.333 -75 705 -225
c210 -166.667 315 -396 315 -688zM2036 900.998c0 202 -65.667 360.333 -197 475c-134 114.667 -299.333 172 -496 172c-199.333 0 -363 -50.333 -491 -151c-144.667 -114.667 -217 -280 -217 -496c0 -202 54.667 -364.333 164 -487c122.667 -139.333 302.667 -209 540 -209
c224 0 399 69.667 525 209c114.667 128 172 290.333 172 487z" />
    <glyph glyph-name="seven" unicode="7" 
d="M2425 2437c0 -191.333 -88.6641 -379.666 -265.997 -564.999c-278.667 -292 -445.334 -481.667 -500.001 -569c-180 -292.667 -270 -658.667 -270 -1098c0 -84.667 -9.66699 -143.334 -29 -176.001c-32.667 -54.667 -94 -82 -184 -82c-88 0 -145.333 39.667 -172 119
c-16.667 46 -25 123.667 -25 233c0 396 72.333 714 217 954c82 136.667 239 300.667 471 492c216 177.333 359.333 337 430 479c-52 -40.667 -105.333 -69.334 -160 -86c-54.667 -19.333 -114.667 -29 -180 -29c-160.667 0 -325.667 62.833 -495 188.5
s-303.333 188.5 -402 188.5c-82 0 -146 -30 -192 -90c-46.667 -62.667 -70 -136.334 -70 -221c0 -44 8.16699 -112.333 24.5 -205s24.5 -159.667 24.5 -201c0 -46 -13.667 -85.333 -41 -118c-30 -36 -69.667 -54 -119 -54c-13.333 -2.66699 -25.333 -4 -36 -4
c-46.667 0 -78.334 20.667 -95.001 62c-24.667 49.333 -37 109.333 -37 180c0 38 4.33301 83 13 135c18.667 120 28 196.667 28 230c0 30 -4 95.333 -12 196c-10.667 101.333 -16 175 -16 221c0 74 9.33301 130 28 168c16.667 36 51 54 103 54
c35.333 0 66.666 -11 93.999 -33c24.667 -24.667 37 -53.334 37 -86c0 -27.333 -2.66699 -56 -8 -86l-17 -107c57.333 96 113.333 164.333 168 205c68.667 52 150.667 78 246 78c117.333 0 273 -72.333 467 -217s368.667 -217 524 -217c32.667 0 65.5 13.667 98.5 41
s49.5 47.666 49.5 61c-44 0 -82.333 9.66699 -115 29c-32.667 16 -51.667 36.333 -57 61s-8 48 -8 70c0 49.333 20.333 94.333 61 135c38 38 84.333 57 139 57c79.333 0 146.333 -41 201 -123c54.667 -84.667 82 -174.667 82 -270z" />
    <glyph glyph-name="eight" unicode="8" 
d="M2384 864c0 -272.667 -95.6689 -494.998 -287.002 -666.998c-194 -175.333 -456 -263 -786 -263c-303.333 0 -557.333 79.333 -762 238c-216 166.667 -324 385 -324 655c0 191.333 56 347 168 467c76.667 82 209.334 168 398.001 258
c-123.333 46.667 -217.666 119 -282.999 217c-65.333 98.667 -98 210.667 -98 336c0 210.667 98.333 381.334 295 512c180 120.667 391.333 181 634 181c240.667 0 440 -56 598 -168c180.667 -126 271 -306.333 271 -541c0 -128.667 -37 -239.334 -111 -332.001
c-73.333 -92.667 -174.333 -161 -303 -205c164 -73.333 299.333 -166 406 -278c122.667 -128.667 184 -265.334 184 -410.001zM1864 2122c0 128 -61.668 229.001 -185.001 303.001c-103.333 62.667 -226 94 -368 94s-270.333 -38.333 -385 -115
c-117.333 -78.667 -176 -183.667 -176 -315c0 -117.333 53 -207.333 159 -270c106.667 -66 239.334 -99 398.001 -99c158 0 285 28.667 381 86c117.333 71.333 176 176.666 176 315.999zM2023 823.003c0 164 -68 302.001 -204 414.001c-139.333 109.333 -306 164 -500 164
s-360.667 -49.333 -500 -148c-155.333 -108.667 -233 -249.334 -233 -422.001c0 -188 71 -335.333 213 -442c139.333 -106.667 325 -160 557 -160c202 0 364.333 53.333 487 160c120 104 180 248.667 180 434z" />
    <glyph glyph-name="nine" unicode="9" 
d="M2363 1466c0 -426 -82.9971 -769.999 -248.997 -1032c-210.667 -327.333 -534.334 -491 -971.001 -491c-248.667 0 -450.667 51.667 -606 155c-156 101.333 -234 242 -234 422c0 71.333 28.667 134.333 86 189s117.333 82 180 82c49.333 0 96 -16.667 140 -50
c43.333 -35.333 65 -79 65 -131c0 -62.667 -8 -105 -24 -127c-16.667 -24.667 -45.334 -46.334 -86.001 -65.001c46 -49.333 86.667 -86.333 122 -111c112 -76 233.667 -114 365 -114c256.667 0 458.667 96.667 606 290c101.333 134 175 317 221 549
c11.333 98.667 23.666 197 36.999 295c-73.333 -139.333 -184 -244.333 -332 -315c-147.333 -71.333 -308.333 -107 -483 -107c-286.667 0 -517.334 91.667 -692.001 275c-164 172 -246 383.667 -246 635c0 289.333 98.333 529.333 295 720c194 188.667 437 283 729 283
c330.667 0 592.834 -120.167 786.501 -360.5s290.5 -570.833 290.5 -991.5zM1937 1868c0 204.667 -62.668 365.667 -188.001 483s-281 176 -467 176c-191.333 0 -351.166 -62.833 -479.499 -188.5s-192.5 -281.167 -192.5 -466.5c0 -194 50.667 -349.667 152 -467
c114.667 -134 284 -201 508 -201c232 0 404 63 516 189c100.667 112 151 270.333 151 475z" />
    <glyph glyph-name="colon" unicode=":" horiz-adv-x="1368" 
d="M909 1573c0 -71.333 -24.5 -131.5 -73.5 -180.5s-109.167 -73.5 -180.5 -73.5c-70.667 0 -130.667 24.5 -180 73.5s-74 109.167 -74 180.5c0 70.667 24.667 130.667 74 180s109.333 74 180 74c71.333 0 131.5 -24.667 180.5 -74s73.5 -109.333 73.5 -180zM918 229
c0 -70.667 -26 -132 -78 -184s-113.667 -78 -185 -78c-70.667 0 -132 26 -184 78s-78 113.333 -78 184c0 71.333 26 133 78 185s113.333 78 184 78c71.333 0 133 -26 185 -78s78 -113.667 78 -185z" />
    <glyph glyph-name="semicolon" unicode=";" horiz-adv-x="1368" 
d="M877 1565c0 -71.333 -26 -133 -78 -185c-52 -51.333 -113.667 -77 -185 -77c-70.667 0 -132 25.667 -184 77c-52 52 -78 113.667 -78 185c0 70.667 26 132 78 184s113.333 78 184 78c71.333 0 133 -26 185 -78s78 -113.333 78 -184zM979 156
c0 -174.667 -46.333 -351.001 -139 -529.001c-93.333 -177.333 -194.333 -266 -303 -266c-27.333 0 -41 19 -41 57c0 2.66699 42.333 56 127 160c81.333 101.333 122 240.666 122 417.999c0 10.667 -60 28.334 -180 53.001s-180 104 -180 238
c0 84.667 28.667 148.667 86 192c54.667 44 121.667 66 201 66c106 -16.667 183.667 -59 233 -127c49.333 -71.333 74 -158.666 74 -261.999z" />
    <glyph glyph-name="less" unicode="&#x3c;" horiz-adv-x="913" 
d="M598 455c5.33301 -22 7.99902 -35.666 7.99902 -40.999c0 -44 -16.333 -66 -49 -66c-19.333 0 -39.666 15 -60.999 45l-414 680c-5.33301 8 -8 16.333 -8 25c0 10.667 2.66699 23 8 37l405 651c16.667 24.667 34.667 37 54 37c40.667 0 61 -26 61 -78
c0 -10.667 -2.66699 -24.334 -8 -41.001l-209 -606z" />
    <glyph glyph-name="equal" unicode="=" horiz-adv-x="1217" 
d="M975 1343h-639.001c-49.333 0 -87.666 15.333 -114.999 46c-30 27.333 -45 60 -45 98c0 95.333 53.333 143 160 143h639c52 0 93 -13.667 123 -41c30 -30 45 -64 45 -102s-15 -70.667 -45 -98c-30 -30.667 -71 -46 -123 -46zM974.999 848h-639.001
c-52 0 -91.667 13.667 -119 41s-41 60 -41 98c0 44 13.667 79.667 41 107c24.667 27.333 64.334 41 119.001 41h639c52 0 93 -13.667 123 -41c30 -30 45 -64.333 45 -103c0 -38 -15 -70.667 -45 -98c-30 -30 -71 -45 -123 -45z" />
    <glyph glyph-name="greater" unicode="&#x3e;" horiz-adv-x="913" 
d="M799 1073l-414 -680c-22 -30 -42.333 -45 -61 -45c-33.333 0 -50 22 -50 66c0 5.33301 3 19 9 41l213 643l-209 606c-5.33301 22 -8 37 -8 45c0 49.333 20.333 74 61 74c19.333 0 37 -12.333 53 -37l406 -651c5.33301 -11.333 8 -22.333 8 -33
c0 -11.333 -2.66699 -21 -8 -29z" />
    <glyph glyph-name="question" unicode="?" horiz-adv-x="2392" 
d="M2200 2081c0 -210.667 -88.999 -385.667 -266.999 -525l-499 -294c-180.667 -109.333 -271 -231 -271 -365c0 -68 -6.66699 -115.667 -20 -143c-24.667 -49.333 -69.667 -74 -135 -74c-60 0 -105.333 23.333 -136 70c-27.333 40.667 -41 81.334 -41 122.001v25
c19.333 188.667 117.666 354 294.999 496l476 315c168.667 122.667 253 255 253 397c0 148 -65.333 267 -196 357c-134 87.333 -284.333 131 -451 131c-185.333 0 -346.333 -37 -483 -111c-164 -90 -254 -218.333 -270 -385c0 -35.333 10.667 -68 32 -98
c8.66699 -11.333 33.334 -37.333 74.001 -78c0 40.667 5.66699 72 17 94c8 22 25.667 39.667 53 53c27.333 11.333 57.333 17 90 17c40.667 0 79 -17.667 115 -53c32.667 -38.667 49 -79.667 49 -123c0 -76.667 -33 -142.334 -99 -197.001
c-65.333 -54.667 -143 -82 -233 -82c-128.667 0 -227 43.667 -295 131c-68 84.667 -102 190 -102 316c0 240 117.333 433.667 352 581c207.333 131.333 443.666 197 708.999 197c248 0 469 -68.333 663 -205c213.333 -150 320 -339.667 320 -569zM1307 229
c0 -70.667 -24.667 -130.666 -74 -179.999c-52 -52 -115 -78 -189 -78c-70.667 0 -132 24.667 -184 74s-78 110.666 -78 183.999c0 71.333 26 133 78 185s113.333 78 184 78c71.333 0 133 -26 185 -78s78 -113.667 78 -185z" />
    <glyph glyph-name="at" unicode="@" horiz-adv-x="2494" 
d="M2257 1659c0 -259.333 -57.334 -499.663 -172.001 -720.996c-128.667 -248.667 -288.334 -373 -479.001 -373c-90.667 0 -167.334 28.667 -230.001 86s-94 136.666 -94 237.999c-49.333 -98.667 -102.666 -175.334 -159.999 -230.001c-68 -62.667 -139 -94 -213 -94h-24
c-93.333 14 -167 74 -221 180c-57.333 104 -86 219 -86 345c0 248 55.667 484 167 708c112 224 243.333 336 394 336c52 0 108 -17.667 168 -53s94 -80.333 102 -135l41 151h229c-62.667 -166.667 -111.667 -327.834 -147 -483.501s-53 -311.167 -53 -466.5v-123
c-6 -27.333 -9 -52 -9 -74c0 -60 9.66699 -116 29 -168c16.667 -51.333 40 -77 70 -77c182.667 0 320.334 135 413.001 405c66 191.333 99 382.333 99 573c0 268 -79.333 493.333 -238 676c-160.667 180.667 -345 271 -553 271c-294.667 0 -537.667 -135.333 -729 -406
c-194 -272.667 -291 -589.334 -291 -950.001c0 -308.667 83.333 -583 250 -823c180.667 -260 410 -390 688 -390c136.667 0 272 35.667 406 107c114.667 60 228 146 340 258h205c-148 -164 -308 -291 -480 -381c-190.667 -100.667 -383 -151 -577 -151
c-333.333 0 -599.666 140.333 -798.999 421c-180 254 -270 558.667 -270 914c0 444.667 116 810.5 348 1097.5s522.667 430.5 872 430.5c281.333 0 516.333 -98.333 705 -295c199.333 -208 299 -475.667 299 -803zM1348 1757c0 60 -9.66602 114.667 -28.999 164
c-19.333 46.667 -48 70 -86 70c-98.667 0 -187.334 -91.667 -266.001 -275c-96 -218 -144 -504.667 -144 -860c0 -40.667 13.667 -77.667 41 -111c27.333 -32.667 57.333 -49 90 -49c114.667 0 211.667 129.667 291 389c68.667 221.333 103 445.333 103 672z" />
    <glyph glyph-name="A" unicode="A" horiz-adv-x="3236" 
d="M3097 -8c-16.667 0 -49.6689 -1.33594 -99.002 -4.00293c-52 -2.66699 -84.667 -4 -98 -4l-131 16h-504c-40.667 -2.66699 -73.334 -4 -98 -4c-169.333 -10.667 -259.666 -16 -270.999 -16c-57.333 0 -99.666 15 -126.999 45c-21.333 21.333 -32 48.333 -32 81v17
c0 46.667 15 79.334 45 98.001c27.333 19.333 56 29 86 29l221 -17c43.333 0 83 7 119 21c32.667 13.333 49 38 49 74c0 5.33301 -2.66699 16 -8 32l-176 488c-11.333 35.333 -22.5 59.833 -33.5 73.5s-20.5 20.5 -28.5 20.5h-856c-32.667 0 -62.667 -20.333 -90 -61
c-14 -22 -31.667 -59 -53 -111l-123 -324c-8 -16 -12 -35 -12 -57c0 -35.333 10.667 -66.666 32 -93.999c19.333 -30 45.333 -45 78 -45l361 -17c35.333 0 54.333 -21.833 57 -65.5s4 -83.167 4 -118.5c0 -24.667 -16.333 -41 -49 -49c-32.667 -10.667 -75 -16 -127 -16h-86
c-24.667 0 -57.5 4 -98.5 12s-75.167 12 -102.5 12h-393c-38 -2.66699 -81.667 -6.66699 -131 -12c-52 -5.33301 -117.667 -13.666 -197 -24.999c-46 0 -85.667 12.333 -119 37c-32.667 22 -49 53.333 -49 94c0 33.333 11 65 33 95s48 45 78 45h102
c36 -2.66699 69 -5.66699 99 -9c38 0 69.333 16.667 94 50c8 13.333 24.333 50 49 110l819 2183c16.667 52 46.667 94.333 90 127c44 33.333 96 50 156 50s109 -9.66699 147 -29c36 -22 73 -71.333 111 -148l733 -2023c30 -82 64.333 -154.333 103 -217
c35.333 -62.667 70.666 -94 106 -94h295c27.333 0 50.666 -15 70 -45c16 -33.333 24 -69 24 -107c0 -65.333 -23 -98 -69 -98zM1929 1282l-360.001 1118l-369 -1118v-8c0 -14 2.66699 -25 8 -33c8.66699 -10.667 22.334 -16 41.001 -16h639c27.333 0 41 19 41 57z" />
    <glyph glyph-name="B" unicode="B" horiz-adv-x="2847" 
d="M2630 770c0 -278.667 -117.668 -486.331 -353.001 -622.998c-190.667 -111.333 -440.334 -167 -749.001 -167c-117.333 0 -255.333 2.66699 -414 8c-396 13.333 -602 20 -618 20c-52 -5.33301 -106.667 -9.33301 -164 -12c-60 -2.66699 -112 -4 -156 -4
c-30 0 -53.333 13.667 -70 41c-18.667 27.333 -28 58.666 -28 93.999c0 24.667 6.66699 52 20 82c14 27.333 32 41 54 41c40.667 0 96.334 -2.66699 167.001 -8c68.667 -6 104.334 -9 107.001 -9c52 0 94.333 22 127 66c30 44 45 123.333 45 238v1646
c0 76.667 -11 145 -33 205s-53.333 90 -94 90l-319 -4c-22 0 -38.667 13.667 -50 41c-13.333 27.333 -20 53.333 -20 78c0 57.333 16.333 97 49 119c30 18.667 95.667 28 197 28c68 0 130.667 -2.66699 188 -8c202 -19.333 320.667 -29 356 -29
c101.333 0 197 4.33301 287 13c268 24.667 412.667 37 434 37c238 0 438.667 -46.667 602 -140c205.333 -114.667 308 -284 308 -508c0 -163.333 -48 -293 -144 -389c-43.333 -43.333 -152.333 -117 -327 -221c188 -24.667 336.667 -109.334 446 -254.001
c101.333 -131.333 152 -288.333 152 -471zM2134 2077c0 125.333 -39.667 222 -119 290c-98 84.667 -260.333 127 -487 127c-158.667 0 -294 -9.33301 -406 -28c-38 -5.33301 -81.667 -16.333 -131 -33c-22 0 -39.667 -16.333 -53 -49c-16.667 -32.667 -25 -64 -25 -94v-529
c0 -73.333 33 -122.333 99 -147c35.333 -14 90 -21 164 -21h69c22 -2.66699 52 -4 90 -4c36 0 60.667 1.33301 74 4c237.333 22 405.333 57.667 504 107c147.333 73.333 221 199 221 377zM2277 811.003c0 180 -75.002 315.334 -225.002 406.001
c-131.333 78.667 -303.333 118 -516 118h-344c-104 0 -175 -12.333 -213 -37c-38 -27.333 -57 -65.333 -57 -114v-697c0 -60 8 -109 24 -147c16.667 -38 48 -61.333 94 -70c8.66699 -5.33301 85.334 -14.833 230.001 -28.5s237.334 -20.5 278.001 -20.5
c210.667 0 378.667 42.333 504 127c150 101.333 225 255.666 225 462.999z" />
    <glyph glyph-name="C" unicode="C" 
d="M2437 897c0 -289.333 -87.3311 -521.333 -261.998 -696c-188.667 -188.667 -460.334 -283 -815.001 -283c-388 0 -694 147.333 -918 442c-202 268 -303 601.333 -303 1000c0 404 102.333 741.333 307 1012c226.667 300 534 450 922 450
c158.667 0 296.667 -27.333 414 -82c117.333 -57.333 230.666 -144.666 339.999 -262l-13 234c0 38 19.333 68 58 90c18.667 10.667 37.667 16 57 16c44 0 78.333 -9.66699 103 -29c21.333 -21.333 32 -44.333 32 -69c-2.66699 -49.333 -5.33398 -113.666 -8 -193
c-5.33301 -79.333 -8 -151.666 -8 -217c0 -49.333 1.33301 -113.333 4 -192c2.66699 -79.333 4 -136.666 4 -171.999l8 -160v-53c0 -54.667 -8.16699 -95.667 -24.5 -123s-57.166 -41 -122.5 -41c-49.333 0 -83.666 13.667 -103 41
c-18.667 27.333 -33.667 69.666 -45 126.999c-5.33301 180 -24.333 313.667 -57 401c-104 270.667 -314.333 406 -631 406c-311.333 0 -539.333 -134 -684 -402c-112 -207.333 -168 -483 -168 -827c0 -316.667 60.333 -570.667 181 -762
c147.333 -237.333 375.333 -356 684 -356c180 0 334 46.333 462 139c186 134 279 344.333 279 631c0 82 50.333 123 151 123c68.667 0 114 -19.333 136 -58c13.333 -24.667 20 -69.667 20 -135z" />
    <glyph glyph-name="D" unicode="D" horiz-adv-x="2961" 
d="M2822 1364c0 -388 -80.6719 -690.998 -242.005 -908.998c-133.333 -180.667 -327 -309 -581 -385c-191.333 -57.333 -420.666 -86 -687.999 -86c-46.667 0 -94.667 2.66699 -144 8c-48.667 5.33301 -93.667 10.666 -135 15.999h-348c-120 -2.66699 -247 -10.667 -381 -24
c-87.333 0 -147.333 12 -180 36c-32.667 22 -49 59 -49 111c0 27.333 5.33301 54.666 16 81.999c10.667 24.667 31.334 37 62.001 37c70.667 0 127.834 -1.33301 171.501 -4s77.834 -7 102.501 -13c60 0 103.667 30.167 131 90.5s41 131.5 41 213.5v1646
c0 92.667 -8.33301 159.667 -25 201c-24 62.667 -73 94 -147 94h-274c-24.667 0 -44 12.333 -58 37c-13.333 24.667 -20 50.667 -20 78c0 43.333 9.33301 80 28 110c19.333 27.333 55 41 107 41c70.667 0 151.334 -4 242.001 -12c212.667 -19.333 345 -29 397 -29
c65.333 0 180 5.66699 344 17c161.333 10.667 265 16 311 16c428.667 0 759 -129.667 991 -389c218.667 -246 328 -573.667 328 -983zM2466 1380c0 336 -72.333 590.002 -217 762.002c-178 210.667 -469 316 -873 316c-199.333 0 -325 -19.333 -377 -58
c-32.667 -24.667 -49 -83.334 -49 -176.001v-1728c0 -57.333 7 -105.333 21 -144c10.667 -40.667 40.667 -63.667 90 -69c49.333 -8.66699 93 -14.334 131 -17.001c134 -16 224 -24 270 -24c336 0 590 102.333 762 307c161.333 194 242 471 242 831z" />
    <glyph glyph-name="E" unicode="E" 
d="M2490 135c0 -52 -25.668 -91.665 -77.001 -118.998c-44 -21.333 -77 -32 -99 -32h-16c-22 5.33301 -236.333 14.666 -643 27.999c-134 2.66699 -336 9.66699 -606 21c-82 0 -231 -7 -447 -21c-70.667 -2.66699 -170.334 -9.33398 -299.001 -20.001
c-76.667 0 -132.667 8 -168 24c-38 16.667 -57 56.334 -57 119.001c0 27.333 8 54.666 24 81.999c14 27.333 33.333 41 58 41c60 0 113 -1.33301 159 -4c44 -2.66699 79.667 -6.66699 107 -12h16c57.333 0 98.333 28.667 123 86c27.333 60 41 132.333 41 217v1638
c0 128.667 -13.667 212 -41 250c-30 35.333 -76.333 53 -139 53l-274 -8c-19.333 0 -36 15 -50 45c-16 27.333 -24 49.333 -24 66c0 68 20.333 113 61 135c38.667 19.333 96 29 172 29c98.667 0 198.334 -4.33301 299.001 -13c303.333 -24.667 472.666 -37 507.999 -37
c246 11.333 430.333 18.333 553 21c374 13.333 574.667 20 602 20c46.667 0 90.334 -12.333 131 -37c41.333 -24 62 -62 62 -114c0 -79.333 -7 -176.333 -21 -291c-13.333 -114.667 -20 -210.334 -20 -287.001l16 -196c0 -68.667 -8 -120.667 -24 -156
c-24.667 -52 -67 -78 -127 -78c-41.333 0 -75.666 8.33301 -103 25c-30 16 -45 44.667 -45 86l8 418c0 98 -8 166 -24 204c-35.333 82 -106.333 123 -213 123l-627 17c-128 0 -216.667 -15 -266 -45c-52 -30.667 -78 -93.667 -78 -189v-561c0 -44 13.667 -74 41 -90
c24.667 -19.333 54.667 -29 90 -29h262c52 0 101.167 13.667 147.5 41s69.5 56 69.5 86l-16 242c0 57.333 13.667 109 41 155c24.667 46.667 60 70 106 70c46.667 0 82.334 -17.667 107.001 -53c22 -35.333 33 -73.666 33 -114.999
c-11.333 -117.333 -18.333 -207.333 -21 -270c-16 -213.333 -24 -328 -24 -344c0 -44 6.66699 -131.333 20 -262c2.66699 -44 11 -109.667 25 -197c0 -62.667 -2.66699 -103.667 -8 -123c-19.333 -68 -67.333 -102 -144 -102c-27.333 0 -54.666 8 -81.999 24
c-27.333 16.667 -41 38.667 -41 66l-20 438c0 16.667 -15 34.334 -45 53.001c-32.667 19.333 -73.667 29 -123 29h-250c-112 0 -168 -52 -168 -156v-647c0 -60 11 -111.667 33 -155c19.333 -44 49.333 -66 90 -66l872 29c96 0 164.333 39.667 205 119
c30 57.333 45 132.333 45 225c0 38 -1.33301 69.333 -4 94c0 8 -2.66699 20.333 -8 37l-8 270c0 30 15 56 45 78s64 33 102 33c46.667 0 83.667 -22 111 -66c27.333 -46 41 -96.333 41 -151c0 -22 -2.66699 -56.333 -8 -103c-6 -46 -9 -82.667 -9 -110
c0 -84.667 7 -191.334 21 -320.001c13.333 -130.667 20 -216.667 20 -258z" />
    <glyph glyph-name="F" unicode="F" 
d="M2466 2593c0 -66 -4.00195 -136.998 -12.002 -212.998c-19.333 -180.667 -29 -302.334 -29 -365.001c0 -32.667 2.66699 -76.334 8 -131.001s8 -93 8 -115c0 -48.667 -12.333 -91 -37 -127c-24.667 -38 -62.667 -57 -114 -57c-41.333 0 -75.666 8.33301 -103 25
c-30 16 -45 44.667 -45 86c0 40.667 1.33301 102 4 184c0 79.333 1.33301 157.333 4 234c0 147.333 -40.667 245.333 -122 294c-54.667 33.333 -156 50 -304 50h-106h-332c-117.333 0 -193.666 -7 -228.999 -21c-76.667 -30 -115 -101 -115 -213v-561
c0 -44 13.667 -74 41 -90c24.667 -19.333 54.667 -29 90 -29h262c60 0 112 11 156 33c40.667 22 61 53.333 61 94c2.66699 2.66699 4 13.667 4 33c0 27.333 -2.66699 71 -8 131c0 16.667 -4 42.667 -12 78c0 57.333 13.667 109 41 155c24.667 46.667 60 70 106 70
c44 0 78.333 -17.667 103 -53c22 -38 33 -77.667 33 -119l-33 -541l37 -565c0 -60 -11 -106.333 -33 -139c-24.667 -32.667 -65.667 -49 -123 -49c-76.667 0 -115 30 -115 90l-24 438c-5.33301 54.667 -61.333 82 -168 82h-250c-112 0 -168 -52 -168 -156v-647
c0 -60 11 -111.667 33 -155c19.333 -44 49.333 -66 90 -66h37c24.667 -2.66699 60 -2.66699 106 0c90 2.66699 138 4 144 4c43.333 0 81.333 -9.66699 114 -29c33.333 -21.333 50 -59.333 50 -114c2.66699 -11.333 4 -21 4 -29c0 -27.333 -12.333 -49 -37 -65
c-35.333 -24.667 -82 -37 -140 -37c-100.667 0 -192 2.66699 -274 8c-286.667 19.333 -443.667 29 -471 29l-295 -33c-100.667 0 -163.334 11 -188.001 33c-24.667 18.667 -37 55.334 -37 110.001c0 27.333 8 54.666 24 81.999c14 27.333 30.667 41 50 41
c46 0 103.333 -2.66699 172 -8c65.333 -5.33301 99.333 -8 102 -8h16c57.333 0 98.333 28.667 123 86c27.333 60 41 132.333 41 217v1638c0 92.667 -1.33301 147.334 -4 164c-16 92.667 -74.667 139 -176 139l-209 -4c-32.667 0 -64 13.667 -94 41s-45 49.333 -45 66
c0 57.333 23 99.666 69 127c44 24.667 101.333 37 172 37c98.667 0 198.334 -4.33301 299.001 -13c300.667 -24.667 467.334 -37 500.001 -37l1131 41c68 0 121 -15 159 -45c38.667 -30 58 -65.333 58 -106z" />
    <glyph glyph-name="G" unicode="G" horiz-adv-x="2847" 
d="M2847 1294c0 -32.667 -12.3311 -64.002 -36.998 -94.002c-27.333 -32.667 -63 -49 -107 -49l-135 8h-8c-24.667 0 -53.334 -9.66699 -86 -29c-38 -21.333 -57 -51.333 -57 -90c-6 -43.333 -11.667 -89.666 -17 -138.999c-5.33301 -52 -8 -98.333 -8 -139v-332
c0 -38 2.66699 -100.667 8 -188s8 -143.333 8 -168c0 -41.333 -17.667 -71.333 -53 -90c-35.333 -22 -72 -33 -110 -33c-36 0 -64.667 8 -86 24c-30 24.667 -45 61.667 -45 111c0 35.333 4 88.666 12 159.999c0 13.333 2.66699 32.333 8 57
c-182.667 -251.333 -449 -377 -799 -377c-387.333 0 -687.666 150.333 -900.999 451c-188 264.667 -282 588.334 -282 971.001c0 409.333 107.667 753.333 323 1032c226.667 292 521.667 438 885 438c139.333 0 270.333 -27.333 393 -82
c120 -54.667 237.333 -132.334 352 -233l-12 135c0 109.333 46.333 164 139 164c93.333 0 140 -67 140 -201c-11.333 -90 -18.333 -158.333 -21 -205c-13.333 -144.667 -20 -233.334 -20 -266c0 -54.667 4 -123 12 -205c5.33301 -82 8 -134 8 -156
c0 -54 -15 -93.333 -45 -118c-30 -27.333 -65.333 -41 -106 -41c-36 0 -69 10.667 -99 32c-30 22 -45 48 -45 78c0 246 -42.333 431.667 -127 557c-112 166.667 -305.667 250 -581 250c-251.333 0 -456.333 -114.667 -615 -344c-142 -204.667 -213 -447.667 -213 -729
c0 -333.333 58.667 -610.333 176 -831c148 -276 372 -414 672 -414c196.667 0 357.667 58.667 483 176c126 117.333 189 266 189 446v58v86c-2.66699 30 -5.33398 46.333 -8.00098 49c0 38 -9.66699 69.333 -29 94c-22 22 -46.667 33 -74 33l-225 -4h-57
c-66 0 -111.333 6.66699 -136 20c-40.667 22 -61 68.667 -61 140c0 48.667 23.333 81.334 70 98.001c43.333 16.667 93.666 25 150.999 25c49.333 0 154.666 -9.66699 315.999 -29c92.667 -11.333 158 -17 196 -17c54.667 0 135.334 8.33301 242 25
c106.667 16.667 187 25 241 25c52 0 96 -12.333 132 -37c32.667 -27.333 49 -61.666 49 -102.999z" />
    <glyph glyph-name="H" unicode="H" horiz-adv-x="3183" 
d="M3105 74c0 -38.667 -17.668 -63.3301 -53.001 -73.9971c-38.667 -10.667 -88 -16 -148 -16c-35.333 0 -80.333 4 -135 12c-126 19.333 -204 29 -234 29c-78.667 0 -207 -5.66699 -385 -17c-180 -10.667 -297.333 -16 -352 -16c-22 10.667 -43.667 28.334 -65 53.001
c-22 22 -33 45.333 -33 70c0 52 9.66699 87.333 29 106c18.667 19.333 51.334 29 98.001 29l221 -17c62.667 0 109 31.667 139 95c30 60 45 129.667 45 209v766h-1290v-766c0 -90.667 12.333 -163.334 37 -218.001c24.667 -57.333 71 -86 139 -86l275 9
c21.333 0 39 -12.333 53 -37c10.667 -27.333 16 -53.333 16 -78c0 -35.333 -6.66699 -68 -20 -98c-16.667 -30 -41.334 -45 -74.001 -45c-100.667 0 -186.667 2.66699 -258 8c-248.667 18.667 -378.334 28 -389.001 28c-52 0 -134 -5.33301 -246 -16
c-38 -2.66699 -95.333 -9.33398 -172 -20.001c-79.333 0 -129.666 4 -150.999 12c-52 19.333 -78 63 -78 131c0 38 12.167 68 36.5 90s50.166 33 77.499 33l238 -17c65.333 0 110.333 30.333 135 91c24.667 57.333 37 128.333 37 213v1654
c0 120.667 -12.333 201.334 -37 242c-24.667 40.667 -69.667 61 -135 61l-274 -8c-27.333 0 -46.666 13.667 -57.999 41c-13.333 24.667 -20 53.334 -20 86c0 54.667 17.667 91.667 53 111c32.667 19.333 80.334 29 143.001 29c30 0 116 -5.66699 258 -17
c142 -10.667 232.333 -16 271 -16c54.667 0 114.667 2.66699 180 8c164 13.333 263.667 20 299 20c60 0 106.333 -9.33301 139 -28c32.667 -22 49 -64.333 49 -127c0 -32.667 -4 -60 -12 -82s-28.333 -33 -61 -33l-275 16c-46 0 -87 -25.667 -123 -77
c-35.333 -54.667 -53 -130 -53 -226v-606h1290v598c0 98.667 -6.66699 165.667 -20 201c-24.667 68 -79.334 102 -164 102l-262 -8c-22 0 -39.667 13.667 -53 41c-16.667 27.333 -25 63 -25 107c0 32.667 17.667 59.667 53 81c32.667 19.333 71 31.666 115 37l307 -32
c101.333 0 236.666 4 406 12c169.333 8 305.666 12 409 12c19.333 0 37.333 -5.33301 54 -16c35.333 -22 53 -45.333 53 -70v-8c-5.33301 -41.333 -9.66602 -81 -13 -119c-8 -30 -31 -45 -69 -45l-270 8c-60.667 0 -104.667 -19 -132 -57c-30 -38 -45 -120 -45 -246v-1646
c0 -90.667 11 -163.334 33 -218.001c19.333 -57.333 67.333 -86 144 -86c2.66699 -2.66699 14.667 -4 36 -4c22 0 55 1.33301 99 4c84.667 6 129.667 9 135 9c24.667 0 45 -12.333 61 -37c14 -24.667 21 -68.334 21 -131.001z" />
    <glyph glyph-name="I" unicode="I" horiz-adv-x="1593" 
d="M1479 2593c-6 -35.333 -15.666 -62.6641 -28.999 -81.998c-13.333 -22 -32.333 -33 -57 -33l-267 8c-60 0 -103.667 -17.667 -131 -53c-35.333 -46.667 -53 -130 -53 -250v-1646c0 -93.333 8.33301 -160.333 25 -201c27.333 -68.667 80.333 -103 159 -103l267 9
c27.333 0 47.666 -12.333 60.999 -37c10.667 -27.333 16 -60.333 16 -99c0 -38 -5.33301 -68 -16 -90c-13.333 -21.333 -39.333 -32 -78 -32c-73.333 0 -181 4 -323 12s-250 12 -324 12l-426 -24c-79.333 0 -129.666 4 -150.999 12c-49.333 19.333 -74 61.666 -74 126.999
c0 27.333 6.66699 54.666 20 81.999c11.333 24.667 29.333 37 54 37h319c60 0 98.333 49 115 147c0 2.66699 6.66699 52 20 148v1646c-22 131.333 -34.333 199.666 -37 205c-21.333 65.333 -69 98 -143 98h-37c-22 2.66699 -53.333 2.66699 -94 0
c-79.333 -5.33301 -127 -8 -143 -8c-27.333 0 -46.666 13.667 -57.999 41c-13.333 24.667 -20 49.334 -20 74c0 43.333 16.333 78.666 49 106c32.667 27.333 75 45.333 127 54c92.667 -11.333 163.667 -19.666 213 -25c147.333 -16.667 236 -25 266 -25
c44 0 142.333 7 295 21c49.333 2.66699 121.666 9.33398 216.999 20c79.333 0 140.666 -10.667 183.999 -32c36 -22 54 -53.667 54 -95v-24z" />
    <glyph glyph-name="J" unicode="J" horiz-adv-x="2392" 
d="M2388 2621c2.66699 -10.667 4.00293 -21.332 4.00293 -31.998c0 -24.667 -6.66699 -46.667 -20 -66c-22 -30 -52.333 -45 -91 -45h-200c-57.333 0 -97 -28.667 -119 -86s-33 -127 -33 -209v-1413c0 -254 -116 -465.667 -348 -635c-210 -152.667 -451.667 -229 -725 -229
c-248.667 0 -459 65.333 -631 196c-194 148 -291 347.333 -291 598c0 139.333 37 267.666 111 384.999c98.667 156 234 234 406 234c117.333 0 219.666 -24.667 306.999 -74c87.333 -52 131 -128.333 131 -229c0 -76.667 -15 -136.667 -45 -180
c-38.667 -57.333 -101.667 -86 -189 -86c-48.667 0 -91 15 -127 45c-35.333 30 -53 71 -53 123c0 35.333 17.667 70.666 53 105.999l-69 16c-54.667 0 -105.334 -31.333 -152.001 -94c-40.667 -54.667 -61 -110.667 -61 -168c0 -13.333 1.33301 -27 4 -41
c0 -155.333 54.667 -282.333 164 -381c109.333 -98 263.666 -147 462.999 -147c90 0 176 11 258 33c78.667 21.333 153.667 58 225 110c73.333 71.333 129.166 163 167.499 275s57.5 281.333 57.5 508v1114c0 60 -11 110.333 -33 151c-30 57.333 -77.667 86 -143 86l-127 -8
c-106.667 0 -160 50.667 -160 152c0 46 16.333 80 49 102c33.333 19.333 70.333 29 111 29c62.667 0 159.667 -8.33301 291 -25c130.667 -16 238.334 -24 323.001 -24c41.333 0 96 6.66699 164 20c68.667 14 120.667 21 156 21c74 0 123 -13.667 147 -41
c16.667 -19.333 25 -49.666 25 -91z" />
    <glyph glyph-name="K" unicode="K" horiz-adv-x="3183" 
d="M3187 135c0 -40.667 -9.66895 -75.999 -29.002 -105.999s-42.666 -45 -70 -45c-84.667 0 -162.334 2.66699 -233 8c-243.333 18.667 -374.333 28 -393 28c-46.667 0 -143.667 -9.33301 -291 -28c-84.667 -11.333 -146 -17 -184 -17
c-71.333 0 -124.666 9.66699 -159.999 29s-53 59 -53 119v8c0 22 9.33301 46.667 28 74c19.333 30 42.666 45 69.999 45l307 -8c35.333 0 53 15 53 45c0 13.333 -2.66699 27 -8 41c-8 21.333 -20.333 40.333 -37 57l-970 967l-308 -222v-675c0 -71.333 12.333 -122 37 -152
s61.667 -45 111 -45c2.66699 -2.66699 30 -4 82 -4h151c44 0 82.333 -1.33301 115 -4c30 -2.66699 53.333 -19 70 -49c10.667 -22 16 -45.333 16 -70c0 -10.667 -1.33301 -21.667 -4 -33c-5.33301 -27.333 -16.333 -53.333 -33 -78c-16 -24 -36.333 -36 -61 -36
c-68.667 0 -190.334 6.66699 -365.001 20c-174.667 14 -318 21 -430 21c-57.333 0 -110.666 -4.33301 -159.999 -13c-144.667 -24.667 -223.667 -37 -237 -37c-16.667 0 -46.667 3 -90 9c-74 10.667 -111 46 -111 106c0 10.667 1.33301 21.667 4 33
c0 24.667 9.66699 52 29 82c16 30 33.667 45 53 45l258 -4c101.333 0 172.333 13.667 213 41c38 27.333 57 62.666 57 105.999v1929c0 66 -34 112.667 -102 140c-44 16 -97.333 24 -160 24l-143 -12h-8c-38.667 0 -73 15 -103 45c-35.333 32.667 -53 65.334 -53 98
c0 44 15 78.333 45 103c27.333 22 58.666 33 93.999 33c104 0 193 -3 267 -9c256.667 -18.667 390.334 -28 401.001 -28c70.667 0 144.334 4 221.001 12l221 25c76.667 0 131.334 -11 164.001 -33c30 -22 45 -56.333 45 -103c0 -40.667 -11 -74.667 -33 -102
c-21.333 -27.333 -52.666 -41 -93.999 -41l-344 12c-24.667 -16 -42.334 -29.667 -53.001 -41c-38 -35.333 -57 -68 -57 -98v-885l1261 930c24.667 22 37 38.333 37 49c0 14 -11 26.333 -33 37s-46.333 16 -73 16c-11.333 0 -28 -2.66699 -50 -8l-168 -8
c-48.667 0 -84 8.33301 -106 25c-24.667 16 -39.667 50 -45 102c0 46.667 16.333 85 49 115c30 27.333 64 41 102 41c88 0 222 -12.333 402 -37c100.667 -14 177 -21 229 -21c49.333 0 123 8.33301 221 25c98.667 16.667 175.334 25 230 25c52 0 86 -15.333 102 -46
c8 -10.667 16.333 -43.334 25 -98c0 -30 -5.66699 -57.333 -17 -82c-13.333 -27.333 -32.333 -41 -57 -41h-192c-63.333 0 -97.666 -2.66699 -103 -8c-32.667 0 -65.334 -19 -98 -57c-54.667 -62.667 -86 -97 -94 -103l-1082 -807l1057 -1044l131 -139
c62.667 -52 133.667 -78 213 -78h201c27.333 0 50.333 -7 69 -21c36 -24 54 -55.333 54 -94z" />
    <glyph glyph-name="L" unicode="L" horiz-adv-x="2503" 
d="M2494 1016l-12.002 -262c-10.667 -224 -16 -347 -16 -369l12 -192c2.66699 -16.667 4 -32 4 -46c0 -60 -15 -103.667 -45 -131c-24.667 -21.333 -64.334 -32 -119 -32l-1077 8l-889 -12c-46 -3.33301 -81.333 -5 -106 -5c-54.667 0 -95.667 9.66699 -123 29
c-30 19.333 -45 60.333 -45 123c0 35.333 6.66699 64 20 86c11.333 19.333 29.333 29 54 29c43.333 0 89.666 -1.5 138.999 -4.5s94.333 -7.16699 135 -12.5c60 0 103.667 31.333 131 94c27.333 63.333 41 136 41 218v1646c0 90 -9.66699 158.333 -29 205
c-27.333 65.333 -75 98 -143 98l-274 -8c-27.333 0 -46.666 13.667 -57.999 41c-13.333 24.667 -20 52 -20 82c0 57.333 16.333 97 49 119s75 33 127 33c57.333 -11.333 128.333 -19.666 213 -25c84.667 -8 180.334 -12 287.001 -12c120 0 229 6.66699 327 20
c98.667 11.333 167 17 205 17c68 0 117.167 -9.66699 147.5 -29s45.5 -60.333 45.5 -123c0 -32.667 -5.66699 -61.334 -17 -86.001c-10.667 -24.667 -29.667 -37 -57 -37l-266 8c-63.333 0 -110 -30 -140 -90s-45 -131 -45 -213v-1671c0 -120 24.667 -197.667 74 -233
c35.333 -24.667 105 -37 209 -37c2.66699 -2.66699 54.667 -4 156 -4c100.667 0 178.334 -1.66699 233.001 -5c240 0 402.333 39.667 487 119c63.333 60 95 162.333 95 307v115c-2.66699 38 -4 77.667 -4 119c0 70.667 10.667 128 32 172c19.333 43.333 59 65 119 65
c41.333 0 75.5 -12.167 102.5 -36.5s40.5 -50.166 40.5 -77.499z" />
    <glyph glyph-name="M" unicode="M" horiz-adv-x="3760" 
d="M3674 131c0 -46.667 -21.6631 -80.6689 -64.9961 -102.002c-44 -24.667 -97.333 -37 -160 -37c-82 8 -143.333 13.333 -184 16c-131.333 11.333 -214.666 17 -250 17c-49.333 0 -108 -4.33301 -176 -13c-158.667 -18.667 -265.334 -28 -320 -28
c-70.667 0 -115.667 4 -135 12c-41.333 16 -62 55.667 -62 119c0 32.667 12.333 65.334 37 98.001c24.667 30 54.667 45 90 45c19.333 -2.66699 38.666 -4 58 -4h61h86c8 0 20.333 1.33301 37 4c38 0 68 23.333 90 70c19.333 43.333 35.666 129.333 49 258v1872
c-16 0 -25.333 -5.66699 -28 -17l-705 -2330c-16 -54.667 -46 -97 -90 -127c-43.333 -33.333 -91 -50 -143 -50s-98.667 15.333 -140 46c-40.667 26.667 -69.334 70.334 -86.001 131.001l-696 2330l-4 25h-16v-25v-1896c0 -98.667 10.667 -174 32 -226
c19.333 -51.333 64.666 -77 135.999 -77h4c13.333 0 43.333 2.66699 90 8c57.333 5.33301 99.666 8 126.999 8c40.667 0 70.667 -15 90 -45c16 -30 24 -64 24 -102c-18.667 -38.667 -40.334 -67.334 -65.001 -86.001c-24.667 -22 -50.667 -35.667 -78 -41
c-117.333 10.667 -207.333 17.334 -270 20.001c-213.333 16.667 -332.333 25 -357 25c-30 0 -95.333 -7 -196 -21c-35.333 -2.66699 -87.333 -10.667 -156 -24h-82c-49.333 0 -84.666 8 -105.999 24c-24.667 16.667 -37 55 -37 115c0 30 5.33301 58.667 16 86
c8 27.333 27.333 41 58 41h307c62.667 0 103.667 34 123 102c10.667 38.667 16 103 16 193v1638c0 202 -57.333 303 -172 303l-274 -8c-24.667 0 -44 15 -58 45c-13.333 30 -20 58.667 -20 86c0 41.333 16.333 75.666 49 103c32.667 27.333 75 41 127 41
s120.333 -4.33301 205 -13c84.667 -8 148.667 -12 192 -12c60 0 132.333 1.33301 217 4c82 2.66699 160 6.66699 234 12c46 0 87 -34 123 -102c27.333 -52 51.666 -119 72.999 -201l578 -2072l639 2207c8 30 24.333 64.333 49 103c32.667 49.333 66.667 74 102 74h9
c38 -6 92.333 -11.667 163 -17c71.333 -8 157.333 -12 258 -12c101.333 0 176.666 2.66699 226 8c46 2.66699 89.667 6.66699 131 12c70.667 0 125.334 -5.33301 164 -16c38 -14 57 -46.667 57 -98c0 -33.333 -4 -66.333 -12 -99c-8.66699 -35.333 -28 -53 -58 -53h-327
c-38.667 0 -67.334 -27.333 -86 -82c-22 -57.333 -33 -122.666 -33 -195.999v-1655c0 -84.667 12.333 -155.667 37 -213c24.667 -60 68.334 -90 131 -90l278 8c24.667 0 44 -11 58 -33c10.667 -24.667 16 -53.334 16 -86.001z" />
    <glyph glyph-name="N" unicode="N" horiz-adv-x="3072" 
d="M2974 2601c0 -54.667 -9.66699 -91.668 -29 -111.001c-22 -21.333 -52 -32 -90 -32c-35.333 0 -71 1.33301 -107 4c-38 0 -73.333 1.33301 -106 4c-30 0 -57.333 -26 -82 -78c-27.333 -54.667 -41 -125.667 -41 -213v-1864c0 -122.667 -26 -218.167 -78 -286.5
s-117.333 -102.5 -196 -102.5c-66 0 -130.333 24.667 -193 74s-114.667 120.333 -156 213l-983 2232v-2011c0 -62.667 13.667 -111.667 41 -147c27.333 -38.667 72.666 -58 135.999 -58h12c16 0 51.333 2.66699 106 8c71.333 6 112.333 9 123 9
c41.333 0 71.333 -13.667 90 -41c19.333 -27.333 29 -54.666 29 -81.999c0 -96 -49 -144 -147 -144c-71.333 0 -149.333 4.33301 -234 13c-199.333 18.667 -334.333 28 -405 28c-24.667 0 -91.667 -8 -201 -24l-160 -25c-70.667 0 -125.334 11 -164.001 33
c-40.667 22 -61 61.667 -61 119c0 22 6.66699 48 20 78c14 30 34.667 45 62 45c46 0 102 -4.33301 168 -13c62.667 -8 95.334 -12 98.001 -12h16c44 0 81 20.667 111 62c30 46 45 129 45 249v1647c0 92.667 -15 166.334 -45 221c-30 54.667 -72.333 82 -127 82
c-27.333 -2.66699 -68.333 -5.33398 -123 -8c-57.333 -2.66699 -107.666 -4 -150.999 -4c-24.667 0 -44 11 -58 33c-13.333 21.333 -20 52.666 -20 94c0 35.333 17.667 70.666 53 106c35.333 36 76.333 54 123 54c32.667 -8.66699 76.334 -15.667 131.001 -21
c52 -5.33301 134 -8 246 -8c82 0 151.667 2.66699 209 8s103.666 10.666 138.999 16c57.333 0 103.666 -19 138.999 -57c19.333 -22 48 -68.333 86 -139l1016 -2290v1745v53c0 101.333 -9.66699 186 -29 254c-30 109.333 -81.667 164 -155 164l-222 -8
c-38 0 -69.333 10.833 -94 32.5s-37 49.167 -37 82.5c0 57.333 22 96.666 66 118c43.333 22 99.333 33 168 33c40.667 -8 92.334 -14.667 155.001 -20c60.667 -8.66699 142.667 -13 246 -13c41.333 0 119.333 5.66699 234 17c114.667 8 199.334 12 254 12
c60 0 96.667 -2.66699 110 -8c41.333 -16.667 62 -57.667 62 -123z" />
    <glyph glyph-name="O" unicode="O" 
d="M2519 1368c0 -404 -87.333 -733.001 -262 -987.001c-210 -308.667 -524 -463 -942 -463c-374 0 -667.667 143.333 -881 430c-196.667 264.667 -295 604.667 -295 1020c0 406.667 98.333 742.667 295 1008c221.333 297.333 527.333 446 918 446
c376.667 0 668.667 -140.667 876 -422c194 -262 291 -606 291 -1032zM2150 1384c0 320 -56 582.333 -168 787c-138.667 254 -351.667 381 -639 381c-283.333 0 -499 -128.333 -647 -385c-125.333 -221.333 -188 -502.666 -188 -843.999c0 -300.667 64 -553.334 192 -758.001
c148 -234.667 353 -352 615 -352c284 0 499.667 124.333 647 373c125.333 210 188 476 188 798z" />
    <glyph glyph-name="P" unicode="P" 
d="M2523 2011c0 -284 -105.003 -498.334 -315.003 -643.001c-180.667 -122.667 -413 -184 -697 -184h-454c-30 0 -56 -7 -78 -21c-24.667 -13.333 -37 -31 -37 -53v-565c0 -76.667 16.333 -146.334 49 -209.001s77.667 -94 135 -94l275 8
c19.333 0 35.666 -12.333 48.999 -37s20 -48 20 -70c0 -43.333 -10.667 -80 -32 -110c-24.667 -32.667 -59 -49 -103 -49c-87.333 0 -182.666 4 -285.999 12c-243.333 19.333 -391 29 -443 29l-303 -41c-73.333 0 -125.333 6.66699 -156 20c-46 22 -69 67 -69 135
c0 24.667 6.66699 49.334 20 74.001c11.333 24.667 29.333 37 54 37h196h123c52 0 87.667 28.667 107 86c18.667 54.667 28 124.334 28 209.001v1638c0 90 -13.667 163.667 -41 221c-30 54.667 -76.333 82 -139 82c-24.667 0 -71 -1.33301 -139 -4
c-71.333 -2.66699 -116.333 -4 -135 -4c-24.667 0 -44 12.333 -58 37c-13.333 22 -20 48 -20 78c0 76 30 122.333 90 139c10.667 2.66699 43.334 6.66699 98.001 12l463 -28c106.667 0 202.334 2.66699 287.001 8c297.333 19.333 458.333 29 483 29
c286.667 0 517.334 -48 692.001 -144c224 -122.667 336 -322 336 -598zM2183 1966c0 194 -67.001 333.334 -201.001 418.001c-106 68 -261.333 102 -466 102l-259 -8c-95.333 0 -171.666 -11 -228.999 -33c-57.333 -24.667 -86 -71 -86 -139v-778
c0 -38.667 32.667 -63.334 98 -74.001l103 -12h184c276 0 471.333 24.667 586 74c180 76 270 226 270 450z" />
    <glyph glyph-name="Q" unicode="Q" 
d="M2544 -319c0 -136.667 -45.333 -252.999 -136 -348.999c-90 -95.333 -211.333 -143 -364 -143c-156 0 -279 34 -369 102c-90 68.667 -144.667 179.334 -164 332.001v311c-68 -13.333 -129.333 -20 -184 -20c-396 0 -699 147.333 -909 442
c-183.333 256.667 -275 584.334 -275 983.001c0 475.333 106.667 841.333 320 1098c210 254 498 381 864 381c360.667 0 639.334 -138 836.001 -414c185.333 -259.333 278 -614.333 278 -1065c0 -272.667 -47.667 -514.334 -143 -725.001c-104 -232 -265 -420.333 -483 -565
v-328c0 -84.667 17.667 -152.667 53 -204c35.333 -54.667 92.666 -82 171.999 -82c87.333 0 148.666 31.333 184 94c24.667 43.333 37 99.333 37 168v37c0 2.66699 -1.33301 8 -4 16c0 35.333 13.667 65.333 41 90s56 37 86 37c57.333 0 95.666 -9.66699 115 -29
c18.667 -18.667 33.667 -74.334 45 -167.001zM2101 1339c0 363.333 -58.667 650.332 -176 860.999c-134 240 -336 360 -606 360c-286.667 0 -502.334 -132.333 -647.001 -397c-117.333 -216 -176 -490.667 -176 -824c0 -212.667 28.667 -406.334 86 -581.001
c54.667 -174.667 151.334 -331.667 290.001 -471c-32.667 52 -55.667 106.667 -69 164c-16.667 57.333 -25 120 -25 188c0 136.667 53.333 248.667 160 336c104 84.667 233.667 127 389 127c136.667 0 248.667 -52 336 -156c87.333 -103.333 131 -226 131 -368v-218
c98.667 128.667 175 280.334 229 455.001c52 174.667 78 349.334 78 524.001zM1520 217l0.00195312 311c0 76.667 -23.333 149 -70 217c-46.667 68.667 -101.334 103 -164.001 103c-98 0 -169 -19 -213 -57c-65.333 -57.333 -98 -169.333 -98 -336
c0 -76.667 36.667 -139.667 110 -189c71.333 -52 152 -78 242 -78c27.333 0 61.666 4.33301 102.999 13c38 8 68 13.333 90 16z" />
    <glyph glyph-name="R" unicode="R" horiz-adv-x="2961" 
d="M2929 135c0 -62.667 -26.0039 -106.335 -78.0039 -131.002c-35.333 -16 -90 -24 -164 -24h-66c-242.667 0 -406.334 46.333 -491 139c-71.333 76 -107 193.333 -107 352v352c0 120.667 -31.333 224.667 -94 312s-146 131 -250 131
c-2.66699 2.66699 -35.334 5.33398 -98.001 8.00098s-103.667 4 -123 4h-151c-41.333 0 -79.666 -1.33301 -114.999 -4c-87.333 0 -144.666 -5.66699 -171.999 -17c-52 -21.333 -78 -70.333 -78 -147v-557c0 -90 13.667 -162.333 41 -217c27.333 -57.333 72.333 -86 135 -86
h17c18.667 0 55.334 1.33301 110.001 4c52 2.66699 91.667 4 119 4h29c27.333 0 47.666 -15 60.999 -45c14 -32.667 22.333 -56 25 -70v-16c0 -35.333 -11 -65.333 -33 -90c-27.333 -30 -64.333 -45 -111 -45c-78.667 0 -196 5.33301 -352 16
c-155.333 11.333 -261.666 17 -318.999 17c-46.667 0 -107 -4.33301 -181 -13c-73.333 -8 -128 -12 -164 -12h-90c-48.667 0 -84 8.33301 -106 25c-30 24 -45 67.667 -45 131c0 18.667 9.33301 40.334 28 65.001c16.667 24.667 33.334 37 50.001 37
c57.333 0 109 -1.33301 155 -4c46.667 -2.66699 85 -6.66699 115 -12c49.333 0 87.666 17.667 114.999 53c38 52 57 135.333 57 250v1638c0 96 -9.66699 167 -29 213c-27.333 65.333 -75 98 -143 98h-29c-16 3.33301 -40.333 3.33301 -73 0
c-66 -5.33301 -123.333 -10.666 -172 -16c-27.333 0 -46.666 15 -57.999 45c-13.333 27.333 -20 53.333 -20 78c0 62.667 23 105 69 127c46.667 19.333 101.334 29 164.001 29c46.667 0 138.334 -9.66699 275.001 -29c78.667 -10.667 133 -16 163 -16
c98.667 5.33301 178 9.33301 238 12c199.333 10.667 400 23 602 37c281.333 0 505.333 -58.667 671.999 -176c164 -118 246 -291.667 246 -521c0 -199.333 -61.667 -356.333 -185 -471c-106 -98 -249.333 -162 -430 -192c164 -27.333 277.333 -72.333 340 -135
c92.667 -90.667 139 -249 139 -475v-287c0 -60 9.66699 -113.333 29 -160c16.667 -49.333 49.334 -74 98 -74c33.333 0 96.333 -1.33301 189 -4s147.334 -4 164 -4c30 0 51.667 -11 65 -33c11.333 -24 17 -55.333 17 -94zM2167 2048
c0 144.667 -52.001 257.999 -156.001 339.999s-259.667 123 -467 123c-35.333 2.66699 -64 4 -86 4c-16 0 -29.667 -1.33301 -41 -4c-147.333 0 -256.333 -15 -327 -45c-98.667 -41.333 -148 -113.666 -148 -216.999v-647c0 -16.667 13.667 -32 41 -46
c24.667 -13.333 49.334 -20 74.001 -20h385c483.333 0 725 170.667 725 512z" />
    <glyph glyph-name="S" unicode="S" horiz-adv-x="2281" 
d="M2191 774c0 -259.333 -98.3291 -466.663 -294.996 -621.996c-185.333 -148 -416 -222 -692 -222c-196.667 0 -351 24.667 -463 74c-62.667 27.333 -166.334 95.666 -311.001 204.999l8 -168c0 -38 -15 -66.667 -45 -86c-30 -22 -60 -33 -90 -33
c-52 0 -88.667 9.66699 -110 29c-33.333 30 -50 86 -50 168c0 24.667 4.33301 58.667 13 102c8 44 12 79.667 12 107c0 133.333 -1.33301 228.666 -4 285.999c-14 284 -21 448 -21 492c0 30 18 54.667 54 74c35.333 16 70.666 24 105.999 24c46.667 0 83.667 -15 111 -45
c24.667 -32.667 37 -69.334 37 -110.001c0 -24.667 -1.66699 -52 -5 -82c-2.66699 -30 -4 -48 -4 -54c0 -21.333 1.33301 -37.666 4 -48.999c33.333 -218 99 -379 197 -483c120 -125.333 305.667 -188 557 -188c156 0 302 40.667 438 122c134 82 201 179 201 291
c0 177.333 -23.333 310 -70 398c-48.667 87.333 -110 139 -184 155l-688 139c-182.667 38.667 -335.667 109.667 -459 213c-158 134 -237 306.333 -237 517c0 232 91.333 423 274 573c183.333 147.333 408.666 221 675.999 221c136.667 0 254 -17.667 352 -53
c98.667 -38 199.667 -102.333 303 -193v86c0 36 11 67.667 33 95c19.333 24 46.666 36 81.999 36c46.667 0 83.667 -13.5 111 -40.5s41 -62.5 41 -106.5c0 -79.333 -4.33301 -177.666 -13 -295c-8 -117.333 -12 -213 -12 -287c0 -18.667 2.66699 -46 8 -82
c5.33301 -35.333 8 -64 8 -86c0 -87.333 -6.66699 -150 -20 -188c-14 -40.667 -51 -61 -111 -61c-78.667 0 -129 21.667 -151 65c-24.667 44 -37 108.333 -37 193c0 32.667 4 73.667 12 123c2.66699 32.667 4 58.334 4 77v29c-13.333 131.333 -83 233.666 -209 307
c-128 71.333 -271.333 107 -430 107c-147.333 0 -277 -46.667 -389 -140c-114.667 -95.333 -172 -218 -172 -368c0 -123.333 41 -220.333 123 -291c71.333 -62.667 171 -106.334 299 -131.001l602 -115c166.667 -32.667 310 -117.334 430 -254.001
c117.333 -136.667 176 -295 176 -475z" />
    <glyph glyph-name="T" unicode="T" horiz-adv-x="2503" 
d="M2458 1745c0 -57.333 -7 -97.001 -21 -119.001c-22 -32.667 -67 -49 -135 -49c-54.667 0 -90.334 11 -107 33c-30 40.667 -45 134.667 -45 282c0 114.667 1.33301 203.667 4 267.001c0 62.667 3 124 9 184c0 57.333 -20.667 97 -62 119
c-40.667 21.333 -84.334 32 -131.001 32h-282c-109.333 0 -180.333 -25.667 -213 -77c-22 -36 -38.667 -110 -50 -222v-1650c0 -96 9.66699 -167 29 -213c27.333 -66 71 -99 131 -99h25c40.667 0 78.667 1.66699 114 5c36 0 88 4 156 12c27.333 0 46.333 -9.66699 57 -29
c11.333 -18.667 17 -50 17 -94c0 -27.333 -9.66699 -56 -29 -86c-22 -32.667 -45.333 -49 -70 -49c-100.667 0 -227.5 4 -380.5 12s-230.833 12 -233.5 12h-29c-43.333 0 -119.666 -4 -228.999 -12c-46.667 -2.66699 -113.667 -9.33398 -201 -20.001
c-65.333 0 -120 12 -164 36c-43.333 22 -65 60.333 -65 115c0 16.667 8.33301 40 25 70c13.333 30 31 45 53 45c54.667 0 103.667 -1.33301 147 -4c44 -2.66699 86.333 -8.33398 127 -17.001c76.667 0 128.667 34.333 156 103c19.333 46 29 115.667 29 209v1659
c0 108.667 -20.667 183.667 -62 225c-40.667 40.667 -98 61 -172 61h-287c-48.667 0 -93.667 -12.333 -135 -37c-43.333 -24 -65 -56.667 -65 -98l8 -455v-102c0 -87.333 -7 -144.666 -21 -171.999c-21.333 -40.667 -67.666 -61 -138.999 -61c-27.333 0 -56 12 -86 36
c-30 24.667 -49 57.667 -57 99c-2.66699 10.667 -4 28.334 -4 53.001c0 49.333 4 121.666 12 216.999c0 24.667 4 60.334 12 107.001c0 43.333 -2.66699 122.333 -8 237c-8 112 -12 214.333 -12 307c0 46.667 24.333 79.667 73 99c49.333 18.667 109.666 28 180.999 28
l917 -24c169.333 10.667 300.333 17.334 393 20c284 14 479.333 21 586 21c82 0 140.667 -11 176 -33c36 -22 54 -56 54 -102c0 -71.333 -4.33301 -167 -13 -287c-8 -120 -12 -207.333 -12 -262c0 -19.333 6.66699 -85 20 -197c6 -43.333 9 -88.333 9 -135z" />
    <glyph glyph-name="U" unicode="U" horiz-adv-x="2961" 
d="M2867 2626c0 -46.667 -4.00195 -78.332 -12.002 -94.998c-16.667 -35.333 -49.334 -53 -98 -53c-16.667 -2.66699 -30.334 -4 -41 -4c-49.333 0 -85 1.33301 -107 4c-5.33301 0 -13.333 2.66699 -24 8c-38.667 0 -70.334 -26 -95 -78c-27.333 -54 -41 -112.667 -41 -176
c-8 -21.333 -12 -159 -12 -413c0 -235.333 1.33301 -421 4 -557c0 -139.333 2.66699 -277.333 8 -414c0 -284 -75 -504 -225 -660c-169.333 -174.667 -428.666 -262 -777.999 -262c-368.667 0 -629.334 89 -782.001 267c-123.333 144.667 -185 363 -185 655v1384
c0 82 -5.33301 140.667 -16 176c-19.333 57.333 -53.666 86 -102.999 86l-184 -8c-32.667 0 -62.667 15 -90 45c-30 27.333 -45 57.333 -45 90c0 41.333 17.667 75.666 53 102.999c32.667 24.667 65.667 37 99 37l458 -33c76.667 0 182 5.33301 316 16
c133.333 8.66699 212.333 13 237 13c52 0 95.667 -11 131 -33c32.667 -22 49 -59 49 -111c0 -32.667 -12 -62.667 -36 -90c-27.333 -30 -57.666 -45 -90.999 -45l-307 8c-27.333 0 -54.666 -31.333 -81.999 -94c-30 -62.667 -45 -116 -45 -160v-1503
c19.333 -174.667 85 -304.334 197 -389.001c109.333 -87.333 259.333 -131 450 -131c180.667 0 332.334 47.667 455.001 143c120 93.333 180 219 180 377v1503c0 96 -13.667 163 -41 201c-30 35.333 -60 53 -90 53c-2.66699 2.66699 -16.334 4 -41.001 4
s-60 -1.33301 -106 -4c-92.667 -5.33301 -147.334 -8 -164.001 -8c-22 0 -41 12.333 -57 37c-16.667 22 -25 52 -25 90c0 52 11 90.333 33 115c18.667 22 67.667 33 147 33h45l451 -21c49.333 0 134 4 254 12c120 8.66699 181.333 13 184 13c68.667 0 115 -11 139 -33
c22 -24.667 33 -57.334 33 -98z" />
    <glyph glyph-name="V" unicode="V" horiz-adv-x="2961" 
d="M2990 2613c0 -48.667 -7.99902 -82.666 -23.999 -101.999c-24.667 -30 -70 -45 -136 -45l-94 12h-16c-52 0 -101.333 -41 -148 -123c-24.667 -43.333 -56 -121 -94 -233l-663 -1979c-19.333 -62.667 -53.666 -110.334 -102.999 -143.001
c-49.333 -35.333 -105.333 -53 -168 -53c-54.667 0 -105.167 16.333 -151.5 49s-81.833 81.667 -106.5 147l-725 2065c-24.667 73.333 -52 132 -82 176c-40.667 60 -80.334 90 -119.001 90l-249 -16c-33.333 0 -63.666 13.667 -90.999 41c-26.667 27.333 -40 64 -40 110
c0 52 17.667 89 53 111c32.667 22 75 33 127 33c114.667 -14 221 -25 319 -33c96 -11.333 184.667 -17 266 -17c46.667 0 130 8.33301 250 25c117.333 13.333 192.666 20 225.999 20c51.333 0 96.333 -9.33301 135 -28c35.333 -22 53 -53.333 53 -94
c0 -49.333 -13.667 -87.666 -41 -115c-30 -30 -61.333 -45 -94 -45l-275 8c-24 0 -41.667 -11 -53 -33c-13.333 -24.667 -20 -56 -20 -94v-41l16 -65l627 -1897l545 1704c10.667 35.333 22.667 81.666 36 139c14 57.333 21 105.333 21 144c0 46 -8.33301 82.667 -25 110
c-16 24.667 -43.333 37 -82 37c-35.333 -2.66699 -76 -4 -122 -4c-46.667 -2.66699 -100 -4 -160 -4c-27.333 0 -52 16.333 -74 49c-22 27.333 -33 53.333 -33 78v8c0 57.333 16.333 94.333 49 111c33.333 13.333 78.666 20 135.999 20c65.333 0 165 -4 299 -12
c133.333 -11.333 224.666 -17 274 -17c38 0 106.333 5.66699 205 17c95.333 8 167.666 12 217 12c46.667 0 80.667 -12.333 102 -37c22 -24.667 33 -53.334 33 -86z" />
    <glyph glyph-name="W" unicode="W" horiz-adv-x="3760" 
d="M3809 2613c0 -52 -9.33301 -87.3311 -28 -105.998c-19.333 -22 -45.333 -33 -78 -33l-205 12c-54.667 0 -98.334 -41 -131 -123c-10.667 -27.333 -31.334 -105 -62 -233l-458 -1954c-16.667 -70.667 -45.334 -124 -86 -160c-44 -38 -92 -57 -144 -57
c-65.333 0 -125.333 26 -180 78c-57.333 49.333 -94 114.666 -110 195.999l-414 2118l-459 -2232c-8 -54.667 -29.667 -95.667 -65 -123c-38.667 -30 -81 -45 -127 -45c-63.333 0 -122.333 21.667 -177 65c-57.333 41.333 -94 94.666 -110 159.999l-488 2040
c-21.333 90 -44.333 155.5 -69 196.5s-49.334 61.5 -74.001 61.5c-46.667 -2.66699 -90.334 -4 -131.001 -4c-40.667 -2.66699 -89.667 -5.33398 -147 -8c-24.667 0 -44 13.667 -58 41c-16 24.667 -27 49 -33 73v25c0 32.667 9.66699 64 29 94c22 35.333 63 53 123 53
c122.667 -10.667 217 -17.334 283 -20c229.333 -16.667 367 -25 413 -25c63.333 0 144 6.83301 242 20.5s171.667 20.5 221 20.5c35.333 0 60 -10.667 74 -32c10.667 -36 20.334 -64.667 29.001 -86c0 -52 -9.66699 -91.667 -29 -119c-22 -27.333 -44 -41 -66 -41l-381 12
c-30 0 -51.667 -19 -65 -57c-8 -24.667 -12 -49.334 -12 -74c0 -13.333 1.33301 -27 4 -41l385 -1888l413 2085c16.667 78.667 47 144 91 196c40.667 52 103.334 78 188.001 78c90 0 155.667 -21.667 197 -65c30 -33.333 55.667 -92.333 77 -177l418 -2150l344 1655
c8.66699 43.333 17 88.333 25 135c8 44 12 87.667 12 131c0 60 -9.66699 106.333 -29 139c-18.667 32.667 -54 49 -106 49l-250 -20c-57.333 0 -101 15 -131 45c-30 27.333 -45 61.333 -45 102c0 54.667 23.333 91.667 70 111c43.333 16.667 102 25 176 25
c48.667 0 111.334 -5.66699 188 -17c172 -24.667 281.333 -37 328 -37c82 0 159.667 4.33301 233 13l242 37c30 0 57.333 -7 82 -21c40.667 -24.667 61 -64.334 61 -119z" />
    <glyph glyph-name="X" unicode="X" horiz-adv-x="3183" 
d="M3183 127c0 -30 -4.33398 -54.667 -13.001 -74c-18.667 -46 -46 -69 -82 -69c-90 0 -171.667 2.66699 -245 8c-256.667 18.667 -394.667 28 -414 28c-46.667 0 -139.667 -9.33301 -279 -28c-78.667 -11.333 -134.667 -17 -168 -17c-70.667 0 -122.334 11 -155.001 33
c-35.333 22 -53 64.333 -53 127c0 30 8 57.333 24 82c14 22 38.667 33 74 33l369 -8c38 0 57 13.667 57 41c0 30 -16.333 64 -49 102l-647 807l-603 -774c-21.333 -24.667 -39 -50.667 -53 -78c-13.333 -30 -20 -50.333 -20 -61c0 -19.333 10.667 -29 32 -29h435
c32.667 0 57 -16.333 73 -49c14 -32.667 21 -65.667 21 -99c0 -30 -7 -57.333 -21 -82c-13.333 -24 -37.666 -36 -72.999 -36c-104 0 -236.667 6.66699 -398 20c-160.667 14 -293 21 -397 21c-62.667 0 -144.667 -7 -246 -21c-100.667 -13.333 -181 -20 -241 -20
c-41.333 0 -71.666 13.667 -90.999 41c-13.333 16 -20 35 -20 57c-0 10.667 1.33301 21.667 4 33c0 38 9.66699 70.667 29 98c18.667 24.667 36.334 37 53.001 37h184h123c19.333 0 45.333 15 78 45l90 90l848 1040l-754 893c-57.333 71.333 -102.333 116.666 -135 136
c-35.333 21.333 -80.333 32 -135 32h-33c-22 -5.33301 -46.333 -9.33301 -73 -12c-14 -2.66699 -26.333 -4 -37 -4c-11.333 0 -22.333 1.33301 -33 4c-109.333 27.333 -164 75 -164 143c0 36 13.667 67.667 41 95s60 41 98 41c101.333 0 188.666 -3 261.999 -9
c254 -18.667 388 -28 402 -28c60 0 116 2.66699 168 8c177.333 19.333 270 29 278 29c79.333 0 134 -8.33301 164 -25c30 -19.333 45 -56.333 45 -111c0 -43.333 -11 -77.333 -33 -102c-21.333 -27.333 -52.666 -41 -93.999 -41c-68 0 -114.333 1.33301 -139 4
c-24.667 0 -48 2.66699 -70 8h-106c-22 -5.33301 -33 -16 -33 -32c0 -6 4 -15.667 12 -29l578 -754l565 721c14 19.333 21 34.333 21 45c0 32.667 -46.667 49 -140 49c-27.333 -2.66699 -57.333 -4 -90 -4c-32.667 -2.66699 -54.334 -4 -65.001 -4
c-41.333 5.33301 -70 10.666 -86 16c-52 22 -78 60.333 -78 115c0 46.667 15 83.667 45 111s65.333 41 106 41c84.667 0 194 -9.66699 328 -29s235 -29 303 -29c49.333 0 121.666 8.33301 217 25c96 16.667 174 25 234 25c43.333 0 76 -13.667 98 -41
c19.333 -27.333 29 -61.666 29 -103c0 -49.333 -5.66699 -84.666 -17 -105.999c-13.333 -22 -40.666 -33 -82 -33l-270 8c-32.667 0 -65.334 -17.667 -98 -53l-94 -107l-729 -893l778 -938c76 -92.667 133.333 -155.334 172 -188.001c35.333 -32.667 68 -49 98 -49h201
c32.667 0 61.334 -12.333 86 -37c22 -27.333 33 -56 33 -86z" />
    <glyph glyph-name="Y" unicode="Y" horiz-adv-x="3072" 
d="M3076 2613c0 -52 -11.002 -85.998 -33.002 -101.998c-32.667 -14 -60 -25 -82 -33c-10.667 -5.33301 -31 -8 -61 -8c-38 0 -66.667 2.66699 -86 8c-19.333 2.66699 -34.333 8 -45 16h-25c-52 0 -97 -19 -135 -57c-10.667 -10.667 -40.667 -54.334 -90 -131.001
l-815 -1274v-487c0 -92.667 16.333 -168 49 -226c30 -57.333 75 -86 135 -86l271 17c32.667 0 54.334 -16.333 65 -49c11.333 -32.667 17 -57.334 17 -74.001c0 -57.333 -15.333 -95.666 -46 -114.999c-32.667 -18.667 -76.334 -28 -131 -28
c-87.333 0 -192.333 6.66699 -315 20c-122.667 10.667 -203.334 16 -242.001 16c-38 0 -119.667 -5.33301 -245 -16c-44 -2.66699 -109.667 -9.33398 -197 -20.001c-152.667 0 -229 49 -229 147c0 24.667 6.66699 50.667 20 78c14 27.333 33 41 57 41
c38.667 0 82.334 -1.33301 131.001 -4c49.333 -2.66699 96 -7 140 -13c62.667 0 107.667 30.167 135 90.5s41 131.5 41 213.5v471l-864 1359c-33.333 46.667 -52.666 72.667 -57.999 78c-21.333 22 -47.333 33 -78 33l-294 -4c-33.333 0 -55.333 15 -66 45
c-10.667 24.667 -16 43.667 -16 57v9c8 62.667 25.667 103.334 53 122c24.667 19.333 64.334 29 119.001 29c62.667 0 160.834 -4 294.501 -12s234.834 -12 303.501 -12l434 36c120 0 180 -40.667 180 -122c0 -41.333 -11 -74.333 -33 -99
c-24.667 -27.333 -57.334 -41 -98.001 -41l-254 4c-52 0 -78 -16.333 -78 -49c0 -16 5.66699 -32.333 17 -49l630 -1073l631 1073c5.33301 10.667 9.33301 17.667 12 21c8.66699 16 13 29.667 13 41c0 26.667 -22 40 -66 40l-344 -16c-30 0 -54.667 16.333 -74 49
c-21.333 30 -32 57.333 -32 82c0 41.333 8 72.666 24 94c27.333 38.667 73.666 58 138.999 58c82 0 164 -4.33301 246 -13c248.667 -24 385.334 -36 410 -36c60 0 113.333 2.66699 160 8c163.333 18.667 249.333 28 258 28c57.333 0 96.666 -9.33301 118 -28
c19.333 -22 29 -57.667 29 -107z" />
    <glyph glyph-name="Z" unicode="Z" horiz-adv-x="2503" 
d="M2327 823c0 -70.667 -1.66504 -127.999 -4.99805 -171.999c-10.667 -177.333 -16 -274.333 -16 -291l4 -143c0 -65.333 -8 -120 -24 -164c-16.667 -46 -48.334 -69 -95.001 -69l-1110 16l-794 -8c-57.333 0 -101 19 -131 57s-45 86 -45 144c0 90 32.667 174.333 98 253
l1712 2040h-991c-177.333 0 -299 -36.667 -365 -110c-52 -57.333 -78 -154.333 -78 -291l9 -221c0 -87.333 -8.33301 -147.666 -25 -180.999c-24.667 -46 -72.334 -69 -143.001 -69c-52 0 -89 23 -111 69c-22 46.667 -33 104 -33 172c0 52 4.33301 112.333 13 181
c18.667 160.667 28 271 28 331l-8 119c0 79.333 12.333 143.666 37 192.999c22 49.333 60.333 74 115 74h1728c84.667 0 147.667 -18 189 -54c40.667 -35.333 61 -80.333 61 -135c0 -73.333 -30 -144.333 -90 -213l-1794 -2109h1016c248 0 409 31.333 483 94
c52 43.333 78 132 78 266l-17 238c0 92.667 4.33301 150 13 172c24.667 62.667 79.334 94 164 94c54 0 90.667 -32.667 110 -98c11.333 -38.667 17 -100.334 17 -185.001z" />
    <glyph glyph-name="bracketleft" unicode="[" horiz-adv-x="1368" 
d="M1176 2626c0 -41.333 -6.99902 -74.3311 -20.999 -98.998c-16.667 -27.333 -38.334 -41 -65.001 -41c-46.667 0 -89 1.33301 -127 4c-41.333 2.66699 -82.333 7 -123 13c-44 0 -74 -61.667 -90 -185c-6 -40.667 -10.333 -103.334 -13 -188.001v-2150
c0 -66 11 -123.667 33 -173c19.333 -46 50.666 -69 93.999 -69h17h12c13.333 0 38 1.33301 74 4c51.333 5.33301 88 8 110 8c16.667 -2.66699 34.334 -16.334 53.001 -41.001c19.333 -24.667 29 -45 29 -61c0 -32.667 -9.66699 -65.667 -29 -99
c-18.667 -35.333 -43 -53 -73 -53c-38.667 0 -97.334 2.66699 -176.001 8c-79.333 6 -139.666 9 -180.999 9c-27.333 0 -57.333 -1.66699 -90 -5c-32.667 -2.66699 -62.667 -6.66699 -90 -12h-8c-30 0 -53.333 11 -70 33c-18.667 22 -28 71 -28 147
c2.66699 49.333 4 85 4 107v2691v90c0 65.333 8 114.666 24 148c11.333 27.333 36 41 74 41h21c18.667 -6 40.334 -10.333 65.001 -13c22 -2.66699 45.333 -4 70 -4h49c117.333 0 221 5.66699 311 17c41.333 0 75.666 -12.333 102.999 -37s41 -54.667 41 -90z" />
    <glyph glyph-name="backslash" unicode="\" horiz-adv-x="2494" 
d="M2183 -57h-221l-1778 2674h254z" />
    <glyph glyph-name="bracketright" unicode="]" horiz-adv-x="1368" 
d="M897 -217c2.66699 -46.667 3.99902 -83.668 3.99902 -111.001c0 -60 -6.66699 -105 -20 -135c-14 -27.333 -40 -41 -78 -41h-8c-27.333 5.33301 -57.333 9.33301 -90 12c-33.333 3.33301 -63.666 5 -90.999 5c-40.667 0 -100.667 -3 -180 -9
c-79.333 -5.33301 -138 -8 -176 -8c-30 0 -54.667 17.667 -74 53c-18.667 33.333 -28 66.333 -28 99c0 18.667 9.33301 40.334 28 65.001c16.667 22 34.667 34.333 54 37c43.333 0 87 -1.33301 131 -4c40.667 -5.33301 62.334 -8 65.001 -8h17c40.667 0 72 24.667 94 74
c22 51.333 33 107.333 33 168v2150c0 82 -3 143.333 -9 184c-16 126 -47.333 189 -94 189h-16c-16.667 0 -48 -1.33301 -94 -4c-68.667 -8.66699 -115.334 -13 -140.001 -13c-27.333 0 -47.666 13.667 -60.999 41c-16.667 24.667 -25 57.667 -25 99
c0 35.333 13.667 65.333 41 90s61.666 37 102.999 37c106 -11.333 226 -17 360 -17c32.667 0 60 1.33301 82 4s39.667 7 53 13h17c38 0 63.667 -15.333 77 -46c16.667 -35.333 25 -83 25 -143v-90v-2691z" />
    <glyph glyph-name="asciicircum" unicode="^" horiz-adv-x="1425" 
d="M1393 2408c13.333 -10.667 19.998 -24.334 19.998 -41c0 -38 -21.667 -57 -65 -57c-8.66699 0 -21 2.66699 -37 8l-135 49c-295.333 112 -449.666 171 -462.999 177c-82 -27.333 -209 -75.333 -381 -144l-230 -90c-5.33301 -2.66699 -10.666 -4 -15.999 -4
c-13.333 0 -27 4 -41 12c-22 8.66699 -33 21 -33 37c0 14 12.333 31.667 37 53l623 447c22 16 37 24 45 24s23 -8 45 -24z" />
    <glyph glyph-name="underscore" unicode="_" horiz-adv-x="2494" 
d="M2494 -242l-8 -184h-2486v184h2494z" />
    <glyph glyph-name="grave" unicode="`" horiz-adv-x="840" 
d="M823 2367c14 -13.333 20.9971 -26.666 20.9971 -40c0 -19.333 -9.66699 -33 -29 -41c-13.333 -6 -27 -9 -41 -9c-8 0 -17.667 1.33301 -29 4l-634 230c-33.333 10.667 -58.166 29.667 -74.499 57s-24.5 57.333 -24.5 90c0 52 18 100 54 144
c32.667 43.333 73.334 65 122.001 65c46.667 0 90.334 -19 131.001 -57z" />
    <glyph glyph-name="a" unicode="a" horiz-adv-x="2392" 
d="M2359 344c0 -109.333 -36.833 -199.497 -110.5 -270.497s-171.834 -106.5 -294.5 -106.5c-144.667 0 -251.334 30 -320.001 90c-38 32.667 -76 97 -114 193c-74 -98.667 -172.333 -173.667 -295 -225c-123.333 -54.667 -253 -82 -389 -82c-186 0 -347.333 56 -484 168
c-139.333 112 -209 258 -209 438c0 251.333 114.667 419.333 344 504l648 127c232 51.333 348 161.666 348 330.999c0 98.667 -33 176.667 -99 234c-76 65.333 -185 98 -327 98c-98.667 0 -182 -12.333 -250 -37c-71.333 -24.667 -124.666 -72.334 -159.999 -143.001
c0 -14 13.667 -30.5 41 -49.5s41 -36.5 41 -52.5v-152c0 -27.333 -21.667 -52 -65 -74c-46.667 -24.667 -90.667 -37 -132 -37c-60 0 -113 15 -159 45c-66 41.333 -99 105.666 -99 192.999c0 182.667 84.667 326 254 430c150.667 92.667 332.334 139 545.001 139
c238 0 419.667 -60 545 -180s188 -297.333 188 -532v-1008c0 -54.667 16.333 -97 49 -127c30.667 -32.667 63.667 -49 99 -49c57.333 0 95.333 21.667 113.999 65c19.333 44 29 109.667 29 197v201c0 38 12.333 69.333 37 94s53.334 37 86 37c38 0 70.667 -17.833 98 -53.5
s41 -90.167 41 -163.5v-242zM1479 770.003v295c-84.667 -82 -292.334 -147.667 -623.001 -197c-259.333 -38 -389 -139 -389 -303c0 -95.333 35.333 -173 106 -233c68.667 -62.667 168.334 -94 299.001 -94c196.667 0 347 46.333 451 139s156 223.667 156 393z" />
    <glyph glyph-name="b" unicode="b" horiz-adv-x="2281" 
d="M2171 1077c0 -316.667 -75 -578.665 -225 -785.998c-169.333 -234.667 -409.666 -352 -720.999 -352c-147.333 0 -266.333 25.667 -357 77c-92.667 49.333 -177.334 127.333 -254.001 234l9 -123c0 -40.667 -11 -74.667 -33 -102c-24.667 -30 -56 -45 -94 -45
c-41.333 0 -74.333 8 -99 24c-27.333 16.667 -45 44 -53 82v78c0 125.333 2.66699 315 8 569s11 497 17 729l-9 795c0 79.333 -6.66699 146.333 -20 201c-14 51.333 -34.333 77 -61 77h-9c-21.333 -5.33301 -45.666 -9.33301 -72.999 -12s-52 -4 -74 -4
c-44 10.667 -72.667 21.667 -86 33c-24.667 18.667 -37 48.667 -37 90c0 35.333 12.333 66.666 37 93.999s54.667 41 90 41s81.666 -2.66699 138.999 -8s105.333 -8 144 -8l102 8c22 2.66699 38.333 4 49 4c57.333 0 91.5 -11 102.5 -33s16.5 -57.333 16.5 -106v-828
c169.333 202 374 303 614 303c284 0 505.333 -106.333 664 -319c142 -188.667 213 -426.334 213 -713.001zM1847 991.002c0 232 -44.999 423.333 -134.999 574c-109.333 180 -269 270 -479 270c-196.667 0 -342.667 -86 -438 -258c-82 -147.333 -123 -350.666 -123 -609.999
c0 -278.667 50.333 -479.334 151 -602.001c90 -109.333 226.667 -164 410 -164c177.333 0 324.666 76.333 441.999 229c114.667 152.667 172 339.667 172 561z" />
    <glyph glyph-name="c" unicode="c" horiz-adv-x="2048" 
d="M1921 713c0 -224 -80.667 -411.001 -242 -561.001c-160.667 -150.667 -354.334 -226 -581.001 -226c-281.333 0 -509.333 98.333 -684 295c-178 194 -267 456.333 -267 787c0 316.667 91.5 578.667 274.5 786s417.833 311 704.5 311c205.333 0 377.333 -53 516 -159
c158.667 -120.667 238 -284.667 238 -492c0 -84.667 -21.667 -155.667 -65 -213c-57.333 -76.667 -143.666 -115 -258.999 -115c-54 0 -101.667 22 -143 66c-40.667 43.333 -61 92.333 -61 147c0 38.667 17.667 79.667 53 123c32.667 44 81.667 66 147 66
c-21.333 98 -75.833 173 -163.5 225s-184.5 78 -290.5 78c-174.667 0 -321 -75 -439 -225c-120 -153.333 -180 -348.666 -180 -585.999s56 -434 168 -590c109.333 -158 255.333 -237 438 -237c139.333 0 265 57.333 377 172s168 232 168 352c0 27.333 17.667 52 53 74
c36 18.667 64.667 28 86 28c44 0 81 -12.333 111 -37c27.333 -24.667 41 -47.667 41 -69z" />
    <glyph glyph-name="d" unicode="d" horiz-adv-x="2392" 
d="M2408 102c0 -30 -8.16895 -53.166 -24.502 -69.499s-35.166 -24.5 -56.5 -24.5l-549 -8c-49.333 0 -74 22 -74 66v159c-68 -98 -152.667 -170.333 -254 -217c-101.333 -46 -214.666 -69 -339.999 -69c-286.667 0 -517.334 99.667 -692.001 299
c-177.333 196 -266 458 -266 786c0 95.333 8 184 24 266c16.667 82 41.334 169.333 74.001 262c70.667 172 178.334 306 323.001 402c145.333 92.667 309.333 139 492 139c109.333 0 215.666 -17.667 318.999 -53c52 -32.667 102.667 -68.334 152 -107.001
c46.667 -40.667 91.667 -85.667 135 -135v410c0 120 -9.66699 206 -29 258c-21.333 46 -45.666 69 -72.999 69h-8c-22 -2.66699 -61.667 -5.33398 -119 -8c-60 -5.33301 -101 -8 -123 -8c-19.333 0 -35.666 11 -48.999 33c-16.667 22 -25 58.667 -25 110
c0 46.667 16.333 78.334 49 95c30 13.333 71 20 123 20l512 -8c27.333 0 46.666 -13.667 57.999 -41c8 -27.333 12 -61.333 12 -102v-58c-5.33301 -210 -9.33301 -376.667 -12 -500c-11.333 -447.333 -17 -735.333 -17 -864v-213c-2.66699 -76 -4 -168.667 -4 -278
c0 -54.667 1.33301 -106.667 4 -156c0 -49.333 1.33301 -78 4 -86c0 -65.333 7 -120 21 -164c13.333 -43.333 42 -65 86 -65c35.333 5.33301 73.333 9.33301 114 12c41.333 2.66699 79.666 4 115 4c38 0 63.833 -15 77.5 -45s20.5 -67 20.5 -111zM1642 655.001
l-0.000976562 758c0 90 -51.667 180 -155 270c-114.667 98.667 -241.667 148 -381 148c-196.667 0 -349.667 -75 -459 -225c-112 -153.333 -168 -335 -168 -545c0 -286.667 63 -503.667 189 -651c112 -131.333 256.667 -197 434 -197c130.667 0 253.334 45 368.001 135
s172 192.333 172 307z" />
    <glyph glyph-name="e" unicode="e" horiz-adv-x="2159" 
d="M2015 1217l-8.00098 -159.999c0 -32.667 -8.33301 -56 -25 -70c-16 -13.333 -52.667 -20 -110 -20h-1393v-70c0 -194 58.667 -359.333 176 -496c114.667 -138.667 269 -208 463 -208c232 0 394.667 94 488 282c92.667 186 150 279 172 279c65.333 0 110.333 -7 135 -21
c24.667 -13.333 42.334 -39.333 53.001 -78c0 -226.667 -94.333 -405.334 -283 -536.001c-168.667 -117.333 -374.667 -176 -618 -176c-298 0 -531.333 102.333 -700 307c-150.667 182.667 -226 414.667 -226 696c0 319.333 80.667 584.333 242 795
c180 237.333 434 356 762 356c248.667 0 456 -84.667 622 -254c166.667 -169.333 250 -378 250 -626zM1688 1249c-16.667 131.333 -40 229.666 -70 294.999c-92.667 196.667 -256.667 295 -492 295c-212.667 0 -379 -98.333 -499 -295
c-38.667 -65.333 -77 -163.666 -115 -294.999h1176z" />
    <glyph glyph-name="f" unicode="f" horiz-adv-x="1712" 
d="M1741 2470c0 -79.333 -13.668 -133.998 -41.001 -163.998s-79.333 -45 -156 -45c-52 0 -93 9.66699 -123 29c-40.667 27.333 -61 71 -61 131c0 22 11 54.667 33 98c-27.333 27.333 -56 46.333 -86 57c-33.333 8.66699 -69 13 -107 13
c-109.333 0 -202.166 -37 -278.499 -111s-114.5 -177.667 -114.5 -311c0 -38.667 4 -70 12 -94c5.33301 -27.333 20.333 -41 45 -41h320c38 0 69.333 -13.667 94 -41c22 -30 33 -64.333 33 -103c0 -95.333 -42.333 -143 -127 -143h-303
c-16.667 0 -33.334 -9.66699 -50.001 -29c-16 -18.667 -24 -36.334 -24 -53.001v-1143c0 -95.333 4 -165 12 -209c8 -43.333 32.667 -65 74 -65h266c24.667 0 45.334 -12.333 62.001 -37c8 -14 14.667 -30.333 20 -49c5.33301 -16.667 8 -31.667 8 -45
c0 -82 -46.333 -123 -139 -123c-74 0 -186 2.66699 -336 8c-152.667 5.33301 -231.667 8 -237 8c-16.667 0 -49.667 -1.33301 -99 -4c-52 -5.33301 -82 -8 -90 -8c-35.333 0 -68 1.33301 -98 4c-32.667 2.66699 -73.667 8 -123 16c-49.333 6 -78 28 -86 66
c-2.66699 10.667 -4 21.667 -4 33c0 27.333 6.66699 54.666 20 81.999c16.667 38 42.667 57 78 57h258c44 0 72.667 47.667 86 143c5.33301 38.667 8 82.334 8 131.001v1135c0 27.333 -5.33301 47.666 -16 60.999c-5.33301 8.66699 -20.333 15.667 -45 21h-209
c-98 0 -147 47.667 -147 143c0 38.667 13.667 73 41 103c24 27.333 59.333 41 106 41h238c24.667 0 39.667 12 45 36c2.66699 11.333 4 26.666 4 46v53c0 210 62.667 373.667 188 491c123.333 114.667 287.333 172 492 172c136.667 0 258 -27.333 364 -82
c128.667 -65.333 193 -158 193 -278z" />
    <glyph glyph-name="g" unicode="g" horiz-adv-x="2281" 
d="M2302 2122c0 -66 -13.6689 -117.998 -41.002 -155.998c-40.667 -57.333 -106.334 -86 -197 -86c-35.333 0 -65.333 16.333 -90 49s-37 69.667 -37 111c0 27.333 7 49 21 65c10.667 11.333 32.334 29.333 65.001 54c-24 24 -52.667 44.333 -86 61
c-32.667 14 -60 21 -82 21c-84 0 -142.667 -29 -176 -87c-21.333 -38 -37.666 -98 -48.999 -180c96 -65.333 171 -145.666 225 -240.999c54.667 -98.667 82 -201.334 82 -308.001c0 -226.667 -76.333 -397.334 -229 -512.001c-134 -100.667 -307.333 -151 -520 -151
c-101.333 0 -218.666 20.333 -351.999 61l-205 66c-35.333 0 -71 -16.333 -107 -49c-35.333 -32.667 -53 -72.334 -53 -119.001c0 -60 23.333 -106.333 70 -139c24.667 -19.333 73.667 -40 147 -62c440 0 750 -21.667 930 -65c363.333 -87.333 545 -274.333 545 -561
c0 -224 -110.667 -394.667 -332 -512c-186 -98.667 -416.667 -148 -692 -148c-320 0 -560.333 47.667 -721 143c-183.333 109.333 -275 287 -275 533c0 68 39.667 145.667 119 233s162.666 146 249.999 176c-104 30.667 -184.667 80 -242 148s-86 154 -86 258
c0 92.667 31.667 172 95 238c60 62.667 137.667 111.667 233 147c-74 98 -111 207.333 -111 328c0 194 80.667 353.667 242 479c147.333 114.667 314 172 500 172c76 0 162 -11 258 -33c10.667 123.333 61 223 151 299c87.333 74 196.666 111 327.999 111
c106.667 -11.333 203.667 -49.666 291.001 -115c87.333 -65.333 131 -141.666 131 -229zM1626 1417c0 123.333 -44.998 221.667 -134.998 295c-90 74 -195 111 -315 111c-128.667 0 -235.334 -35.667 -320.001 -107c-87.333 -73.333 -131 -170.333 -131 -291
c0 -24 1.33301 -43 4 -57c14 -109.333 59 -195.333 135 -258c76.667 -62.667 177.667 -94 303 -94c131.333 0 240.666 39.5 327.999 118.5s131 173.167 131 282.5zM1851 -122.997c0 117.333 -77.668 209.001 -233.001 275.001c-131.333 54 -281.666 81 -450.999 81
s-316.666 -21.667 -441.999 -65c-180 -62.667 -270 -163.667 -270 -303c0 -142 86 -241.667 258 -299c117.333 -38.667 279.666 -58 486.999 -58c166.667 0 310 28.667 430 86c147.333 71.333 221 165.666 221 282.999z" />
    <glyph glyph-name="h" unicode="h" 
d="M2621 123c0 -49.333 -12.0029 -82.002 -36.0029 -98.002c-27.333 -16.667 -63 -25 -107 -25h-45c-46.667 0 -117.667 2.66699 -213 8s-166.333 8 -213 8c-60 0 -105 -1.33301 -135 -4c-153.333 -13.333 -236.666 -20 -249.999 -20c-90 0 -135 53.333 -135 160
c0 24 11 48.333 33 73c18.667 22 40.334 33 65.001 33c41.333 0 82.333 -1.33301 123 -4s79 -6.66699 115 -12h8c32.667 0 55.834 31.333 69.501 94s20.5 132.334 20.5 209.001v704c0 153.333 -28.667 280.333 -86 381c-76.667 134 -190 201 -340 201
c-196.667 0 -352.334 -50.667 -467.001 -152c-114.667 -100.667 -172 -235.667 -172 -405v-762v-61c0 -68.667 6.83301 -122.167 20.5 -160.5s42.5 -57.5 86.5 -57.5h8c22 3.33301 50.667 6.33301 86 9c32.667 2.66699 51.667 4 57 4c44 0 83.667 -7 119 -21
c32.667 -13.333 49 -35 49 -65c0 -60 -9.66699 -102.333 -29 -127c-21.333 -27.333 -47 -41 -77 -41l-529 8h-160c-43.333 0 -119.666 -5.33301 -228.999 -16c-43.333 0 -83 9.33301 -119 28c-35.333 19.333 -53 46.666 -53 81.999c0 109.333 41 164 123 164
c32.667 0 64 -1.33301 94 -4c27.333 -2.66699 52 -6.66699 74 -12h16c44 0 78.333 21.667 103 65c27.333 49.333 41 141 41 275v73v1528l-9 184c-10.667 44 -24.334 81 -41.001 111c-13.333 27.333 -29.666 41 -48.999 41h-8l-229 -16c-30 0 -53.333 13.667 -70 41
c-16.667 24 -25 48.333 -25 73c0 38.667 12.333 74.334 37 107.001c22 30 61.667 45 119 45c27.333 0 64.166 -2.66699 110.499 -8s84.5 -8 114.5 -8h312c18.667 0 32.334 -11 41.001 -33c5.33301 -24.667 8 -56 8 -94v-787c82 82 183 143.333 303 184
c117.333 41.333 237.333 62 360 62c229.333 0 407 -64.333 533 -193c125.333 -128 188 -294.333 188 -499v-840c0 -79.333 5.66699 -151.666 17 -216.999c10.667 -62.667 32.334 -94 65 -94h4c19.333 2.66699 34.333 4 45 4c87.333 8 142 12 164 12c46.667 0 74 -11 82 -33
c8 -24.667 12 -58.667 12 -102z" />
    <glyph glyph-name="i" unicode="i" horiz-adv-x="1257" 
d="M860 2474c0 -65.333 -21.667 -120 -65 -164c-44 -43.333 -98.667 -65 -164 -65c-66 0 -120.667 21.667 -164 65c-44 44 -66 98.667 -66 164s21.833 119.833 65.5 163.5s98.5 65.5 164.5 65.5c65.333 0 119.833 -21.833 163.5 -65.5s65.5 -98.167 65.5 -163.5zM1249 152
c0 -44 -12.332 -80.999 -36.999 -110.999c-27.333 -32.667 -56 -49 -86 -49c-62.667 0 -147.334 4 -254.001 12c-106 8 -186.333 12 -241 12c-92.667 -5.33301 -187 -9.33301 -283 -12c-95.333 -2.66699 -155.333 -4 -180 -4c-27.333 0 -48 16.333 -62 49
c-16 32.667 -24 60 -24 82c10.667 46.667 18.667 75.334 24 86.001c16.667 27.333 48.334 41 95.001 41c52 0 99.667 -1.33301 143 -4c41.333 -2.66699 75.333 -6.66699 102 -12c24.667 0 46.667 21.667 66 65c16.667 44 25 87.667 25 131v1114c0 66 -5.66699 122 -17 168
c-10.667 44 -35.334 66 -74.001 66l-270 -8c-13.333 0 -27 6.66699 -41 20c-27.333 27.333 -41 58.666 -41 93.999c0 41.333 16.333 75.666 49 102.999c30 24.667 68.333 37 115 37l373 -9l114 9c41.333 0 70 -18 86 -54c14 -35.333 21 -83 21 -143v-70
c-2.66699 -21.333 -4 -39 -4 -53v-1302c0 -66 8 -112.667 24 -140c14 -24.667 30.667 -37 50 -37h8c32.667 6 68 11.667 106 17c36 5.33301 69 8 99 8c24 0 44.333 -5.33301 61 -16c35.333 -24.667 53 -54.667 53 -90z" />
    <glyph glyph-name="j" unicode="j" horiz-adv-x="1135" 
d="M799 2478c0 -62.667 -22 -116 -66 -160c-43.333 -43.333 -98 -65 -164 -65c-62.667 0 -115.667 21.667 -159 65c-46.667 41.333 -70 94.666 -70 160c0 65.333 21.833 119.833 65.5 163.5s98.167 65.5 163.5 65.5c66 0 120.667 -21.667 164 -65c44 -44 66 -98.667 66 -164
zM799 1913c0 -27.333 -2.83398 -71.002 -8.50098 -131.002s-8.5 -110.667 -8.5 -152v-1630c0 -221.333 -53 -398.666 -159 -531.999c-131.333 -164 -330.666 -246 -597.999 -246c-150.667 0 -272.334 27.333 -365.001 82c-114.667 68 -172 171.667 -172 311
c0 74 20.333 127.333 61 160c41.333 30 89.333 49 144 57c46 0 88.333 -12.333 127 -37c38 -27.333 57 -69.666 57 -126.999c0 -73.333 -20.333 -119.666 -61 -138.999c21.333 -22 44.333 -38.333 69 -49c22 -14 48 -21 78 -21h45c172 0 291 45 357 135
c65.333 88 98 223.333 98 406v1622c0 60 -5.66699 106.333 -17 139c-13.333 30 -36.333 45 -69 45h-8c-33.333 -5.33301 -69 -10.666 -107 -15.999s-72 -8 -102 -8c-41.333 0 -72.666 9.33301 -93.999 28c-24.667 19.333 -37 53.666 -37 102.999
c0 35.333 13.667 66.666 41 93.999s60 41 98 41h545c27.333 0 49 -9.66699 65 -29c14 -18.667 21 -54 21 -106z" />
    <glyph glyph-name="k" unicode="k" 
d="M2580 135c3.33301 -13.333 5.00195 -25.667 5.00195 -37c0 -46 -24.667 -77.333 -74 -94c-27.333 -8 -83.333 -12 -168 -12c-60 0 -140.667 5.33301 -242 16c-103.333 8 -171.666 12 -204.999 12c-51.333 0 -119.333 -2.66699 -204 -8c-87.333 -8 -142 -12 -164 -12
c-27.333 0 -49.333 13.667 -66 41c-18.667 24.667 -28 53.334 -28 86.001c0 44 15 78 45 102c27.333 22 54.666 33 81.999 33c30 0 69.333 -2.66699 118 -8c46.667 -8 76.667 -12 90 -12c3.33301 2.66699 5 6.66699 5 12c0 19.333 -12.333 48 -37 86
c-11.333 16.667 -30.666 42.667 -57.999 78l-471 622l-377 -335v-242c0 -60 9.66699 -112 29 -156c19.333 -43.333 50.666 -65 93.999 -65c19.333 0 57.666 1.33301 114.999 4c54.667 2.66699 87.334 4 98.001 4c22 0 41.333 -9.66699 58 -29c16 -18.667 24 -44.667 24 -78
c0 -10.667 -2.66699 -27 -8 -49c-19.333 -62.667 -57.666 -94 -114.999 -94h-958c-27.333 13.333 -48 33.666 -62 60.999c-16 24.667 -24 49.334 -24 74.001c2.66699 22 12.334 46.667 29.001 74c13.333 27.333 29.666 41 48.999 41c38 0 78.833 -1.33301 122.5 -4
s84.834 -7 123.501 -13h8c35.333 0 62.666 27.333 81.999 82c16 57.333 24 117.666 24 180.999v1814c0 62.667 -6.66699 114.667 -20 156c-16.667 40.667 -41.334 61 -74.001 61c-40.667 -5.33301 -84.334 -10.666 -131.001 -16c-46.667 -5.33301 -89 -8 -127 -8
c-30 0 -50.667 12.333 -62 37c-13.333 24 -20 49.667 -20 77c0 36 11 69 33 99c18.667 30 46 45 82 45h471c73.333 0 121 -22 143 -66c10.667 -22 16 -64.333 16 -127v-1528l705 656c16.667 16 25 33.667 25 53c0 32.667 -27.333 49 -82 49
c-36 -5.33301 -79.667 -9.33301 -131 -12c-54.667 -5.33301 -93 -8 -115 -8c-32.667 0 -54.667 10.667 -66 32c-13.333 19.333 -20 41.333 -20 66v45c0 30 13.667 57.333 41 82s58.666 37 93.999 37c90 0 208.667 -4 356 -12c148 -8.66699 268.333 -13 361 -13l254 25
c57.333 0 106.333 -11 147 -33c38.667 -22 58 -60.333 58 -115c0 -27.333 -7 -51.666 -21 -72.999c-16 -24.667 -33.667 -38.334 -53 -41.001s-37 -4 -53 -4h-41c-57.333 0 -99.666 1.33301 -127 4c-30 0 -60 2.66699 -90 8c-24.667 0 -49.334 -9.66699 -74.001 -29
c-11.333 -8 -34.666 -28.333 -69.999 -61l-487 -455l573 -754c46.667 -62.667 91.667 -115.667 135 -159c57.333 -57.333 98.333 -86 123 -86c30 5.33301 63 9.33301 99 12c32.667 2.66699 61.334 4 86 4c35.333 0 65.333 -12.333 90 -37c21.333 -27.333 32 -56 32 -86z" />
    <glyph glyph-name="l" unicode="l" horiz-adv-x="1257" 
d="M1245 139c0 -57.333 -14.999 -95.5 -44.999 -114.5s-75 -28.5 -135 -28.5l-492 12l-364 -8c-32.667 0 -61.334 9.66699 -86.001 29c-27.333 18.667 -41 51.334 -41 98.001c0 35.333 8 66.666 24 93.999c14 24.667 32 37 54 37l192 -8h33c101.333 0 152 58.667 152 176
v1847c0 66 -7 124.667 -21 176c-13.333 52 -39.333 78 -78 78h-20c-19.333 0 -55 -1.33301 -107 -4c-76 -8 -118.333 -12 -127 -12c-24.667 0 -45 15 -61 45c-19.333 27.333 -29 57.333 -29 90c0 52 20.667 86 62 102c40.667 16.667 93.667 25 159 25l205 -16l262 20
c36 -8 60.667 -23 74 -45c10.667 -22 16 -48 16 -78c-2.66699 -32.667 -4 -57.334 -4 -74.001l-12 -524v-1618c0 -52 5.33301 -97 16 -135c11.333 -38 30.666 -57 57.999 -57h8c32.667 2.66699 75 5.33398 127 8.00098c49.333 2.66699 75.333 4 78 4
c40.667 0 67.834 -12.333 81.501 -37s20.5 -52 20.5 -82z" />
    <glyph glyph-name="m" unicode="m" horiz-adv-x="3760" 
d="M3785 152c2.66699 -11.333 4.00195 -22.333 4.00195 -33c0 -27.333 -8.33301 -53.333 -25 -78c-22 -32.667 -53.333 -49 -94 -49h-877c-35.333 0 -65.333 16.333 -90 49c-27.333 30 -41 61.333 -41 94c0 24.667 8.33301 49.334 25 74.001c13.333 22 32.333 33 57 33
c22 2.66699 45.333 4 70 4h57h82c8.66699 0 19.667 -1.33301 33 -4c22 0 38.333 15 49 45c8 30 12 94 12 192v914c0 130.667 -49 237 -147 319c-101.333 79.333 -214.666 119 -340 119c-122.667 0 -230.667 -43.667 -324 -131c-92.667 -87.333 -139 -180.333 -139 -279v-901
c0 -70.667 6.83301 -136.167 20.5 -196.5s35.5 -90.5 65.5 -90.5v0c30 6 62.667 11.667 98 17c33.333 5.33301 62 8 86 8c46.667 0 78.334 -15 95 -45c16 -32.667 24 -69.667 24 -111c0 -32.667 -10.667 -57 -32 -73c-22 -19.333 -45.333 -29 -70 -29h-897h-33
c-52 13.333 -78 61 -78 143c0 30 12.333 57.333 37 82c22 22 49.333 33 82 33c38 0 92.667 -6.66699 164 -20c10.667 0 25.667 -3 45 -9v0c24.667 0 45 23.333 61 70c14 49.333 21 95.666 21 138.999v971c0 112 -43.667 209 -131 291
c-87.333 79.333 -181.666 119 -282.999 119c-130.667 0 -253.334 -43.667 -368.001 -131c-115.333 -90.667 -173 -197.334 -173 -320.001v-967c0 -40.667 11 -83 33 -127c14 -27.333 27.667 -41 41 -41v0l127 9c41.333 0 79.666 -8.33301 114.999 -25
c35.333 -16 53 -43.333 53 -82c0 -38 -9.66699 -70.667 -29 -98c-18.667 -30 -51.334 -45 -98.001 -45l-450 8l-422 -8c-38.667 0 -67.334 15 -86.001 45c-19.333 27.333 -29 60 -29 98c13.333 35.333 24.333 58.666 33 69.999c22 30 49.333 45 82 45l225 -25h8
c24.667 0 46.5 17.833 65.5 53.5s28.5 84.834 28.5 147.501v1085c0 74 -6.83301 138.333 -20.5 193s-39.5 82 -77.5 82c-38 -5.33301 -79 -9.33301 -123 -12c-46 -3.33301 -87 -5 -123 -5c-18.667 0 -37.667 15.333 -57 46c-19.333 26.667 -29 53.667 -29 81
c0 52 20.667 90.333 62 115c30 16.667 61.333 25 94 25c13.333 0 27 -1.33301 41 -4l418 -9c32.667 0 53 -20.333 61 -61c8 -44 12 -79.667 12 -107c0 -13.333 -1.33301 -33.666 -4 -60.999c174.667 191.333 382.334 287 623.001 287c114.667 0 219.667 -22 315 -66
c93.333 -46 175.333 -119.667 246 -221c84.667 101.333 181.667 176.333 291 225c109.333 46.667 232.333 70 369 70c202 0 375.333 -60 520 -180c142 -123.333 213 -279 213 -467v-930c0 -90 4 -159.667 12 -209c8 -46.667 28.333 -70 61 -70h9c27.333 6 56 10.333 86 13
s60 4 90 4c43.333 0 81.333 -7 114 -21c30.667 -16 48.667 -41.667 54 -77z" />
    <glyph glyph-name="n" unicode="n" 
d="M2634 115c0 -27.333 -10.999 -51.998 -32.999 -73.998c-24.667 -24.667 -52 -37 -82 -37l-926 -8c-35.333 0 -65.333 16.333 -90 49c-22 27.333 -33 57.333 -33 90v8c6 27.333 18.333 52 37 74c16.667 22 34.667 33 54 33c62.667 0 115.667 -1.33301 159 -4
c44 -2.66699 78.333 -7 103 -13c35.333 0 58.333 12.333 69 37c8.66699 24.667 13 63 13 115v70v946c0 128 -50.667 234.333 -152 319c-104 82 -225.333 123 -364 123c-175.333 0 -313.333 -60 -414 -180c-101.333 -122.667 -152 -271.334 -152 -446.001v-787
c0 -46.667 7 -90.334 21 -131.001c10.667 -44 31 -66 61 -66c41.333 6 86.333 10.333 135 13c49.333 2.66699 94.666 4 135.999 4c16 0 32.167 -12.333 48.5 -37s24.5 -48 24.5 -70c0 -40.667 -9.33301 -76 -28 -106c-22 -30 -53.667 -45 -95 -45l-950 8
c-30 0 -53.333 6.66699 -70 20c-18.667 14 -28 37.333 -28 70c5.33301 35.333 10.666 61.333 15.999 78c22 52 57.667 82 107 90c10.667 2.66699 23 4 37 4c30 0 66.667 -4 110 -12c22 -2.66699 52 -8.33398 90 -17.001c24.667 0 45.334 26 62.001 78
c13.333 52 20 102.667 20 152v1089c0 66 -4 116.667 -12 152c-16.667 60 -40 90 -70 90h-8c-32.667 -5.33301 -72.334 -9.33301 -119.001 -12c-48.667 -5.33301 -78.667 -8 -90 -8c-46 0 -76 4 -90 12c-27.333 16 -41 54.333 -41 115c0 62.667 23.333 100.667 70 114
c62.667 8.66699 110.334 14.334 143.001 17.001h25c16 0 36.333 -1.33301 61 -4c32.667 -8.66699 54.667 -13 66 -13l250 25c43.333 0 70.333 -41 81 -123c3.33301 -27.333 5 -68.333 5 -123c98 98.667 194.667 171 290 217c114.667 57.333 239 86 373 86
c216 0 390.667 -58.667 524 -176c153.333 -134 230 -326.667 230 -578v-888c0 -74 6.66699 -128.667 20 -164c11.333 -38.667 34.666 -58 70 -58c40.667 6 84.334 10.333 131 13c43.333 2.66699 81.666 4 115 4c38 0 62.333 -12.333 73 -37c11.333 -27.333 17 -60 17 -98z
" />
    <glyph glyph-name="o" unicode="o" horiz-adv-x="2281" 
d="M2056 1024c0 -308.667 -71 -557 -213 -745c-166.667 -221.333 -417.667 -332 -753 -332c-292.667 0 -527.667 112 -705 336c-161.333 202 -242 449 -242 741s80.667 542 242 750c177.333 229.333 412.333 344 705 344c322 0 567.667 -108 737 -324
c152.667 -194 229 -450.667 229 -770zM1729 1024c0 243.333 -41.001 431.666 -123.001 564.999c-106.667 174.667 -278.667 262 -516 262c-199.333 0 -353.666 -86 -462.999 -258c-98.667 -152.667 -148 -342.334 -148 -569.001c0 -229.333 49.333 -417.666 148 -564.999
c112 -166.667 266.333 -250 463 -250c220.667 0 387 86 499 258c93.333 144.667 140 330.334 140 557.001z" />
    <glyph glyph-name="p" unicode="p" horiz-adv-x="2503" 
d="M2318 1020c0 -303.333 -75.0029 -552 -225.003 -746c-172 -220.667 -422 -331 -750 -331c-103.333 0 -197.333 20.333 -282 61c-84.667 38 -172 98 -262 180v-417c2.66699 -54.667 5.33398 -95.667 8.00098 -123c13.333 -82 40.666 -123 81.999 -123v0h16
c8.66699 -2.66699 18.334 -2.66699 29.001 0c90 10.667 136.333 16 139 16c60 -5.33301 98.333 -19 115 -41c16 -24.667 24 -54.667 24 -90c0 -57.333 -17.667 -94.333 -53 -111c-38 -16 -91.333 -24 -160 -24l-315 24c-57.333 0 -155.666 -2.66699 -294.999 -8
c-142 -5.33301 -218.333 -8 -229 -8c-41.333 0 -70 13.667 -86 41c-16.667 24.667 -25 53.334 -25 86.001c-2.66699 10.667 -4 20.334 -4 29.001c0 13.333 2.66699 25.666 8 36.999c22 48.667 63 73 123 73c27.333 0 56 -2.66699 86 -8l90 -16h8c60.667 0 99 47.667 115 143
c8 52 12 106.667 12 164v70v1712c0 60 -4 106.333 -12 139c-10.667 30 -32.334 45 -65.001 45l-115.5 -16.5c-41 -5.66699 -85.833 -8.5 -134.5 -8.5c-27.333 0 -46.666 13.667 -57.999 41c-13.333 24.667 -20 52 -20 82c0 52 8 90.333 24 115
c16.667 22 48.334 33 95.001 33l487 -8c74 0 111 -37 111 -111v-123c76 109.333 171.333 188.666 286 237.999c112 46 237.667 69 377 69c278.667 0 496 -112 652 -336c136 -196 204 -445.667 204 -749zM1978 1061c0 221.333 -39.334 400.001 -118.001 536.001
c-93.333 161.333 -232.666 242 -417.999 242c-202 0 -353.667 -57.333 -455 -172c-120 -136.667 -180 -397.334 -180 -782.001c0 -191.333 42.333 -348.333 127 -471c98 -144.667 240 -217 426 -217c234.667 0 402.667 94 504 282c76 142 114 336 114 582z" />
    <glyph glyph-name="q" unicode="q" horiz-adv-x="2392" 
d="M2417 -614c-8.66699 -30 -22.332 -54.668 -40.999 -74.001c-22 -22 -48 -33 -78 -33c-49.333 0 -126 1.33301 -230 4c-106 2.66699 -186.333 4 -241 4c-46.667 0 -117.834 -2.66699 -213.501 -8s-185.834 -8 -270.501 -8c-65.333 0 -104.666 35.333 -117.999 106
c-2.66699 8.66699 -4 17 -4 25c0 32.667 10.667 61.334 32 86.001c27.333 32.667 60.333 49 99 49l82 -8c10.667 -2.66699 25.5 -5.33398 44.5 -8.00098s32.833 -4 41.5 -4c38 0 70.667 8 98 24c24.667 16.667 37 49.667 37 99v528c-74 -76.667 -160 -134 -258 -172
c-101.333 -38 -205.333 -57 -312 -57c-286.667 0 -517.334 111.667 -692.001 335c-160.667 208 -241 466.333 -241 775c0 338 83 597.333 249 778c166.667 180 390.667 270 672 270c131.333 0 247.333 -23 348 -69c98.667 -49.333 195.667 -123.333 291 -222v148
c0 24.667 15 49.167 45 73.5s62.667 36.5 98 36.5c54.667 0 90.334 -32.667 107.001 -98c8 -35.333 12 -101 12 -197l-8 -737c0 -215.333 1.33301 -442 4 -680c2.66699 -237.333 6.66699 -455.666 12 -654.999c0 -122.667 35.667 -184 107 -184c22 2.66699 39.667 4 53 4
c106.667 8 168.334 12 185 12c35.333 0 61 -16.333 77 -49c11.333 -24.667 17 -48 17 -70c0 -8 -1.33301 -16 -4 -24zM1651 953.999c0 251.333 -34.333 448 -103 590c-92.667 191.333 -251 287 -475 287c-180 0 -322 -78 -426 -234c-106.667 -158 -160 -340.667 -160 -548
c0 -232.667 52 -430.667 156 -594c101.333 -166.667 244.666 -250 429.999 -250c218.667 0 374.334 77.667 467.001 233c74 123.333 111 295.333 111 516z" />
    <glyph glyph-name="r" unicode="r" horiz-adv-x="1937" 
d="M1954 1495c-11.333 -114.667 -50.9971 -203.334 -118.997 -266.001s-156.667 -94 -266 -94c-52 0 -91.667 19 -119 57c-30 35.333 -45 81.666 -45 138.999c0 49.333 13.667 87.666 41 114.999s57.333 41 90 41l86 -8l8 82c0 84.667 -21.667 148.667 -65 192
c-57.333 60 -154.333 90 -291 90c-156 0 -272 -49 -348 -147c-90 -117.333 -135 -338.666 -135 -663.999v-626c0 -54.667 5.33301 -95.667 16 -123c8 -27.333 29.667 -41 65 -41h9c35.333 5.33301 62.666 8 81.999 8c78.667 8 127.667 12 147 12c30 0 58.667 -8 86 -24
c24.667 -16.667 37 -42.667 37 -78c0 -66 -15 -109.667 -45 -131c-11.333 -8.66699 -41.333 -18.334 -90 -29.001l-344 16l-594 -16c-32.667 0 -60 11 -82 33c-24.667 18.667 -37 47.334 -37 86.001c0 40.667 10.833 74.667 32.5 102s53.167 41 94.5 41
c49.333 0 105.333 -4 168 -12c10.667 0 25.667 -2.66699 45 -8h8c32.667 0 56 17.667 70 53c13.333 38 20 81.667 20 131v1130v95c0 90 -26 135 -78 135c-24 0 -63.333 -1.33301 -118 -4c-57.333 -2.66699 -104 -4 -140 -4c-18.667 0 -40.334 10.667 -65.001 32
c-24.667 22 -37 48 -37 78c0 32.667 11 65.667 33 99c18.667 30 41.667 45 69 45h545c27.333 0 45 -18 53 -54c6 -38 9 -68 9 -90v-57c0 -5.33301 -1.66699 -13.666 -5 -24.999c76.667 114.667 160 195.334 250 242.001c90 44 195.333 66 316 66
c177.333 0 328.666 -57.333 453.999 -172c126 -118 189 -267 189 -447z" />
    <glyph glyph-name="s" unicode="s" horiz-adv-x="2048" 
d="M1872 582c0 -218.667 -81.998 -385.331 -245.998 -499.998c-144.667 -101.333 -340 -152 -586 -152c-144.667 0 -258 18 -340 54c-87.333 51.333 -161 90.666 -221 117.999v-118c0 -36 -12.333 -59.333 -37 -70c-24 -13.333 -58 -20 -102 -20
c-10.667 -3.33301 -20.334 -5 -29.001 -5c-24.667 0 -46.334 9.66699 -65.001 29c-27.333 24.667 -45 57.334 -53 98.001v13c0 21.333 4 70.333 12 147c2.66699 30 9.33398 77.667 20.001 143c0 52 -5.33301 117.667 -16 197s-16 139.333 -16 180c0 44 12 82.333 36 115
c22 30 52 45 90 45c33.333 0 65 -9.66699 95 -29c27.333 -21.333 41 -48.666 41 -81.999l4 -151c0 -134 69.667 -237.667 209 -311c117.333 -63.333 255 -95 413 -95c109.333 0 202.333 20.667 279 62c90 49.333 157 125.666 201 228.999c2.66699 11.333 4 27.666 4 48.999
c0 74 -22 139.667 -66 197c-46 54.667 -106 90 -180 106l-741 160c-60.667 14 -123.667 56.333 -189 127c-87.333 96 -131 206.667 -131 332c0 204.667 78 368.667 234 492c155.333 120 343.666 180 564.999 180c79.333 0 157 -12.333 233 -37
c74 -27.333 145 -64.333 213 -111c0 60 7 103.667 21 131c10.667 24.667 48.667 37 114 37c36 0 66.333 -4 91 -12c21.333 -8 32 -27 32 -57v-697c0 -30 -9.33301 -53 -28 -69c-22 -19.333 -56.333 -29 -103 -29c-22 0 -49.333 12.333 -82 37c-35.333 24.667 -53 56 -53 94
c0 164 -49 282.667 -147 356c-84.667 63.333 -201 95 -349 95c-117.333 0 -215.333 -35.667 -294 -107c-79.333 -74 -119 -156 -119 -246c0 -144.667 106.333 -241.334 319 -290.001l631 -140c224 -90 336 -255 336 -495z" />
    <glyph glyph-name="t" unicode="t" horiz-adv-x="1593" 
d="M1544 758c0 -240.667 -28.6621 -417.002 -85.9951 -529.002c-87.333 -169.333 -254 -254 -500 -254c-158 0 -294.333 39.667 -409 119c-126 87.333 -189 202 -189 344v1225v49c-8 27.333 -35 41 -81 41h-127c-46.667 0 -82.334 15 -107.001 45c-27.333 30 -41 67 -41 111
c0 40.667 11 74.667 33 102c19.333 24.667 52 37 98 37h160c27.333 0 43.666 1.33301 48.999 4c16.667 8 25 34 25 78v422c0 40.667 16.333 73.334 49 98.001c30 24.667 65.333 37 106 37c41.333 0 77 -11 107 -33c27.333 -24.667 41 -58.667 41 -102v-438
c0 -44 24.333 -66 73 -66h447c49.333 0 86.166 -13.667 110.499 -41s36.5 -58.666 36.5 -93.999c0 -41.333 -13.667 -78.333 -41 -111s-65.333 -49 -114 -49h-455c-32.667 0 -51.667 -9.66699 -57 -29v-61v-999c0 -123.333 19 -221.666 57 -294.999
c49.333 -96 128.666 -144 237.999 -144c120 0 204.667 72.333 254 217c32.667 96 49 208 49 336v53c0 3.33301 -1.33301 6.33301 -4 9c-2.66699 13.333 -4 25.666 -4 36.999c0 46 12 78.667 36 98c30 22 67 33 111 33c57.333 0 94.166 -13.667 110.499 -41
s24.5 -68.333 24.5 -123v-86z" />
    <glyph glyph-name="u" unicode="u" horiz-adv-x="2503" 
d="M2527 152c0 -101.333 -30.0039 -151.999 -90.0039 -151.999h-500c-81.333 0 -122 34 -122 102v131c-68.667 -92.667 -164.334 -165 -287.001 -217c-123.333 -54.667 -251.666 -82 -384.999 -82c-229.333 0 -407 64.333 -533 193c-128 125.333 -192 287.666 -192 486.999
v811v74c0 24.667 1.33301 50.667 4 78c0 70.667 -7 125.334 -21 164.001c-13.333 35.333 -40.666 53 -81.999 53c-40.667 -5.33301 -74.667 -8 -102 -8c-27.333 -2.66699 -57.333 -5.33398 -90 -8.00098c-68 0 -110.333 34 -127 102c-2.66699 10.667 -4 21.667 -4 33
c0 35.333 12.333 65.333 37 90c30 30 69.667 45 119 45c32.667 0 80.334 -2.66699 143.001 -8s110.334 -8 143.001 -8c22 0 50.667 2.66699 86 8c36 5.33301 67.333 8 94 8c24.667 0 49.334 -11 74.001 -33c14 -13.333 21 -24.333 21 -33v-1015
c0 -300.667 45 -505.667 135 -615c82 -98 206.333 -147 373 -147c250.667 0 415.667 98.333 495 295c46.667 114.667 70 314 70 598v422c0 76 -4.16699 135.833 -12.5 179.5s-26.166 69.834 -53.499 78.501h-192c-32.667 0 -57.334 13.667 -74.001 41
c-19.333 24 -29 54 -29 90c0 35.333 8.33301 66.666 25 93.999c16.667 24.667 40 37 70 37l536 -4c27.333 0 43.666 -12.333 49 -37c2.66699 -11.333 4 -36 4 -74l-20 -848c0 -332.667 4 -558 12 -676c5.33301 -106 46.333 -159 123 -159h25c13.333 2.66699 24 4 32 4
c60.667 10.667 104.667 16 132 16c30 0 57 -9.66699 81 -29c22 -21.333 33 -48.333 33 -81z" />
    <glyph glyph-name="v" unicode="v" 
d="M2544 1954c0 -62.667 -3 -101.001 -9 -115.001c-13.333 -35.333 -44.666 -53 -94 -53h-45c-30 0 -58.667 1.33301 -86 4s-53.333 5.33398 -78 8.00098c-24.667 -13.333 -47.667 -36.333 -69 -69c-22 -36 -41.333 -75.667 -58 -119l-577 -1483
c-49.333 -125.333 -131.333 -188 -246 -188c-54.667 0 -103.667 16.333 -147 49c-44 30 -78.333 76.333 -103 139l-594 1511c0 24.667 -9.33301 57.667 -28 99c-22 38 -46.667 57 -74 57c-22 0 -54.833 -4.16699 -98.5 -12.5s-80.5 -12.5 -110.5 -12.5
c-44 0 -75.333 12.333 -94 37c-22 24.667 -33 54.667 -33 90c0 79.333 37 127.333 111 144c5.33301 2.66699 20.333 4 45 4c54.667 0 121.334 -4 200.001 -12c14 0 34.667 -3 62 -9l614 25c44 0 76.667 -13.667 98 -41c19.333 -30 29 -61.333 29 -94
c0 -44 -11 -75.333 -33 -94c-24 -19.333 -48.333 -31.666 -73 -36.999s-48 -8 -70 -8s-52 4 -90 12s-66.667 12 -86 12l-41 -74c0 -16 5.33301 -39 16 -69l512 -1368l467 1282c14 35.333 23.667 68 29 98c5.33301 27.333 8 50.666 8 69.999c0 30 -6.66699 49 -20 57
c-2.66699 2.66699 -11 4 -25 4c-54.667 0 -103.834 -1.33301 -147.501 -4l-126.5 -8c-22 0 -41.333 12.333 -58 37c-18.667 21.333 -28 51.333 -28 90c0 60 13.667 99.667 41 119c27.333 16 71 24 131 24c21.333 0 63.5 -5.5 126.5 -16.5s106.833 -16.5 131.5 -16.5
c84.667 0 195 4.33301 331 13c136.667 8 238 12 304 12c18.667 0 35 -5.33301 49 -16c24.667 -22 37 -48 37 -78z" />
    <glyph glyph-name="w" unicode="w" horiz-adv-x="3416" 
d="M3363 1913l-0.00195312 -65.998c-8 -46 -40.667 -69 -98 -69c-22 0 -57.667 1.33301 -107 4s-86.333 4 -111 4c-30 -5.33301 -70.667 -82 -122 -230c-16.667 -48.667 -40 -122.334 -70 -221.001l-279 -1056c-30 -112 -70.833 -196.667 -122.5 -254s-107.5 -86 -167.5 -86
c-63.333 0 -122.333 30 -177 90c-57.333 57.333 -96.666 140.666 -117.999 249.999l-303 1458l-320 -1434c-27.333 -117.333 -68.333 -204.666 -123 -261.999c-54.667 -60 -113.334 -90 -176.001 -90c-57.333 0 -110.666 20.333 -159.999 61
c-48.667 38.667 -82.667 96 -102 172l-397 1479c-8.66699 24.667 -17 50.667 -25 78c-13.333 30 -29.666 45 -48.999 45h-111l-49 -17c-16 -2.66699 -31 -4 -45 -4c-38 0 -65.333 9.66699 -82 29c-27.333 24.667 -41 61.667 -41 111c0 40.667 8.16699 73.334 24.5 98.001
s39.5 37 69.5 37c24.667 0 68.334 -2.66699 131.001 -8l177 -17l589 25c93.333 -8 152.166 -20.333 176.499 -37s36.5 -46.667 36.5 -90c0 -54.667 -19 -93 -57 -115c-24.667 -13.333 -58.667 -20 -102 -20c-30 0 -68.333 4 -115 12c-49.333 5.33301 -79.333 8 -90 8
c-41.333 -10.667 -68.666 -25.667 -81.999 -45c-16.667 -22 -25 -46.667 -25 -74c0 -21.333 5.5 -55.333 16.5 -102s16.5 -82.334 16.5 -107.001l307 -1237l320 1438c27.333 114.667 67 207.667 119 279c51.333 68 105.666 102 162.999 102c68.667 0 129 -31.333 181 -94
s91.333 -158.334 118 -287.001l308 -1438l303 1237c27.333 112 41 188.667 41 230c0 30 -7 50.333 -21 61l-45 33c-30 0 -83.333 -2.66699 -160 -8c-76 -5.33301 -126.333 -8 -151 -8c-32.667 0 -57.334 9.33301 -74 28c-16 19.333 -24 49.333 -24 90
c0 38.667 13.667 73 41 103c24 27.333 54 41 90 41l303 -17h413l246 17c30 0 56 -13.667 78 -41s33 -56 33 -86z" />
    <glyph glyph-name="x" unicode="x" 
d="M2568 1946c5.33301 -11.333 8 -28.002 8 -50.002c0 -38 -19 -66.667 -57 -86c-38 -21.333 -76.333 -32 -115 -32c-18.667 0 -51.334 2.66699 -98 8c-46.667 5.33301 -82 8 -106 8c-90.667 -46.667 -168.667 -108 -234 -184l-422 -492
c-13.333 -13.333 -20 -32.333 -20 -57c0 -22 6.66699 -39.667 20 -53l590 -697l49 -41c14 -13.333 25 -20 33 -20c35.333 0 73.666 1.33301 115 4l118 8c41.333 0 70 -13.667 86 -41c16.667 -30 25 -62.667 25 -98c0 -38 -13.667 -69.333 -41 -94
c-30 -24.667 -80.667 -37 -152 -37l-344 20l-512 -12c-32.667 0 -57 13.667 -73 41c-19.333 24.667 -29 49.334 -29 74.001c0 90 26 135 78 135c24.667 0 65.667 -4.16699 123 -12.5s95.333 -12.5 114 -12.5c38.667 0 58 11 58 33c-5.33301 10.667 -8 17.667 -8 21
c-8.66699 16 -15.667 26.667 -21 32l-418 480c-16 16 -29.667 24 -41 24c-8 0 -20.333 -8 -37 -24l-426 -480c-5.33301 -5.33301 -12 -19 -20 -41c0 -2.66699 -1.33301 -6.66699 -4 -12c19.333 -10.667 45.333 -16 78 -16c16 0 44.5 2.66699 85.5 8s71.167 8 90.5 8
c30 0 58.667 -12.333 86 -37s41 -50.667 41 -78c0 -51.333 -9.66699 -86.666 -29 -105.999c-32.667 -30 -99.667 -45 -201 -45l-307 24c-73.333 0 -170.333 -4 -291 -12c-120 -8 -181.333 -12 -184 -12c-40.667 0 -74.667 15 -102 45c-27.333 27.333 -41 61.333 -41 102
c0 30 13.667 58.667 41 86c24.667 24.667 56 37 94 37l201 -12c27.333 13.333 51.666 29.666 72.999 48.999c33.333 27.333 67.666 64.333 102.999 111l520 598c16.667 16 25 32.333 25 49c0 16 -5.66699 29.667 -17 41l-545 631c-24 24 -47 41.667 -69 53
c-22 8 -55 12 -99 12l-135 -20c-8 -3.33301 -16 -5 -24 -5c-30 0 -53.333 12.333 -70 37c-22 30 -33 61.667 -33 95c0 40.667 11 74.667 33 102c19.333 24.667 50.666 37 93.999 37l471 -12c46.667 0 109.667 4 189 12c79.333 5.33301 131 8 155 8
c46.667 0 86.334 -11 119.001 -33s49 -45 49 -69c0 -57.333 -5.33301 -94.333 -16 -111c-22 -35.333 -69.667 -53 -143 -53c-22 0 -46.667 2.66699 -74 8c-27.333 2.66699 -50.666 5.33398 -69.999 8.00098l33 -69l319 -386c11.333 -18.667 28 -28 50 -28
c24 0 44.333 9.33301 61 28l336 386c22 21.333 33 43 33 65c-19.333 0 -46.666 -4.16699 -81.999 -12.5s-64 -12.5 -86 -12.5c-46.667 0 -82.334 9.66699 -107.001 29s-37 55 -37 107c0 48.667 13.667 84 41 106c24.667 19.333 53.334 29 86.001 29l500 -8h172
c27.333 0 57.333 1.33301 90 4c30 2.66699 53.333 4 70 4h49c71.333 0 116.333 -31.333 135 -94z" />
    <glyph glyph-name="y" unicode="y" horiz-adv-x="2564" 
d="M2527 1909c0 -66 -13.667 -105.665 -41 -118.998c-5.33301 -2.66699 -25.666 -4 -60.999 -4l-184 12c-38.667 -24.667 -67.667 -58.667 -87 -102l-40 -94l-562 -1401c-122.667 -308.667 -245.334 -536.667 -368.001 -684c-186 -226.667 -407.333 -340 -664 -340
c-147.333 0 -279.666 35.333 -396.999 106c-136.667 82 -205 192.667 -205 332c0 82 24.667 150.333 74 205s109.333 82 180 82c60 0 113.333 -18 160 -54c46 -35.333 69 -83 69 -143c0 -38 -12 -70.667 -36 -98c-27.333 -30 -56 -50.667 -86 -62
c21.333 -38 54 -63.667 98 -77c40.667 -14 87 -21 139 -21c131.333 0 258.333 54.667 381 164s184 233.666 184 372.999c0 43.333 -8 88.333 -24 135l-586 1503l-41 111c-19.333 40.667 -44 61 -74 61c-38 0 -81.667 -1.33301 -131 -4
c-48.667 -5.33301 -85.334 -8 -110.001 -8c-30 0 -56 9.33301 -78 28c-24.667 19.333 -37 51 -37 95c0 46 11 81.333 33 106s64.333 37 127 37c18.667 2.66699 32.334 4 41.001 4c32.667 0 80.334 -4 143.001 -12c60 -11.333 91.333 -17 94 -17c82 0 154.333 3 217 9
c191.333 16 303.333 24 336 24c123.333 0 185 -50.333 185 -151c0 -36 -11 -63.5 -33 -82.5s-65.667 -28.5 -131 -28.5l-172 4c-22 -2.66699 -33 -19 -33 -49c0 -24.667 8 -53.334 24 -86.001l463 -1384l504 1359c8 24.667 13.667 42.667 17 54c8 24.667 12 43.667 12 57
c0 32.667 -12.333 49 -37 49c-54.667 0 -105.334 -1.33301 -152.001 -4l-135 -8c-22 0 -39.667 8 -53 24c-19.333 22 -29 46.667 -29 74c0 11.333 1.33301 22.333 4 33c0 32.667 13.667 62.667 41 90s59 41 95 41c90 0 155.333 -1.33301 196 -4
c199.333 -14 304.666 -21 315.999 -21c35.333 0 80.333 4.16699 135 12.5s99.667 12.5 135 12.5c70.667 0 119.667 -9.66699 147 -29c24.667 -21.333 37 -58 37 -110z" />
    <glyph glyph-name="z" unicode="z" horiz-adv-x="2159" 
d="M1987 688c0 -57.333 -3.00098 -133.663 -9.00098 -228.996c-8 -96 -12 -150.667 -12 -164v-90c0 -38.667 1.33301 -73 4 -103c0 -46 -20.333 -77.333 -61 -94c-14 -2.66699 -34.667 -5.33398 -62 -8.00098h-1478c-71.333 0 -127.333 20.333 -168 61
c-44 38.667 -66 88 -66 148c0 73.333 35.667 145.666 107 216.999l1327 1352h-799c-84.667 0 -151.667 -5.66699 -201 -17c-51.333 -13.333 -81.333 -43.333 -90 -90c0 -32.667 5.5 -76.334 16.5 -131.001s16.5 -99.667 16.5 -135c-2.66699 -22 -4 -38.333 -4 -49
c0 -44 -13.667 -74 -41 -90c-27.333 -19.333 -65.666 -29 -114.999 -29c-18.667 0 -40.334 9.66699 -65.001 29c-27.333 16 -41 36.333 -41 61v647c0 32.667 20.333 56 61 70c41.333 13.333 82.333 20 123 20c41.333 0 92 -1.33301 152 -4
c60 -5.33301 126.667 -9.33301 200 -12h947c81.333 0 144 -12.333 188 -37c40.667 -24.667 61 -57.334 61 -98.001c0 -49.333 -9.33301 -97.333 -28 -144c-22 -48.667 -59 -99 -111 -151l-1327 -1339h967c112 0 185.667 35.333 221 106c10.667 22 17.334 59 20.001 111v327
c0 24.667 15 48 45 70s61.667 33 95 33c51.333 0 85.333 -12.333 102 -37s25 -63 25 -115v-86z" />
    <glyph glyph-name="braceleft" unicode="{" horiz-adv-x="1360" 
d="M1225 -385c0 -46.667 -31.6709 -77.999 -95.0039 -93.999c-35.333 -8.66699 -92.666 -13 -171.999 -13c-147.333 0 -268.666 26 -363.999 78c-117.333 63.333 -176 156.333 -176 279v905c0 104 -23.333 188.667 -70 254
c-49.333 65.333 -125.666 107.666 -228.999 126.999c106.667 35.333 183 80.333 229 135c46.667 54.667 70 138 70 250v913c0 104 47.667 190 143 258c92.667 68.667 221 103 385 103c92.667 0 162.334 -5.66699 209.001 -17c46.667 -13.333 70 -46 70 -98
c0 -54.667 -75.333 -94.334 -226 -119c-150 -24 -225 -71.667 -225 -143v-905c0 -74 -23 -147.667 -69 -221c-46.667 -76.667 -105.667 -128.667 -177 -156c68.667 -35.333 127.667 -87.333 177 -156c46 -68 69 -141.667 69 -221v-901c0 -70.667 75 -119.667 225 -147
c150.667 -27.333 226 -64.333 226 -111z" />
    <glyph glyph-name="bar" unicode="|" horiz-adv-x="1106" 
d="M692 -430h-336v3109h336v-3109z" />
    <glyph glyph-name="braceright" unicode="}" horiz-adv-x="1360" 
d="M1184 1151c-199.333 -38 -299 -165 -299 -381v-905c0 -120 -58.667 -211.667 -176 -275c-101.333 -54.667 -223 -82 -365 -82c-87.333 0 -143.333 3 -168 9c-65.333 13.333 -98 46 -98 98c0 44 75 79.333 225 106c150 27.333 225 78 225 152v901c0 82 22 155.667 66 221
c43.333 66 103.333 118 180 156c-68 27.333 -125.333 79.333 -172 156c-49.333 73.333 -74 147 -74 221v905c0 71.333 -75 119 -225 143c-150 24.667 -225 64.334 -225 119c0 49.333 24.667 80.666 74 94c48.667 14 116.667 21 204 21c208 0 357 -53.333 447 -160
c54.667 -62.667 82 -129.667 82 -201v-913c0 -106.667 24.333 -188.667 73 -246c46.667 -60 122 -106.333 226 -139z" />
    <glyph glyph-name="asciitilde" unicode="~" horiz-adv-x="1286" 
d="M1294 1335c0 -122.667 -53.001 -215.334 -159.001 -278.001c-76.667 -44 -158.667 -66 -246 -66c-52 0 -151.667 24.667 -299 74s-248.333 74 -303 74c-52 0 -95.667 -13.667 -131 -41l-90 -90c-41.333 10.667 -62 36.334 -62 77.001c0 104 38.333 190 115 258
c73.333 66 164.666 99 273.999 99c32.667 0 129.667 -26 291 -78c158.667 -54.667 277.334 -82 356.001 -82c38.667 0 74.334 12.333 107.001 37l102 90c11.333 0 21 -5.33301 29 -16c10.667 -16.667 16 -36 16 -58z" />
    <glyph glyph-name="nonbreakingspace" unicode="&#xa0;" horiz-adv-x="2048" 
 />
    <glyph glyph-name="exclamdown" unicode="&#xa1;" horiz-adv-x="1368" 
d="M913 1798c0 -73.333 -24.5 -134.666 -73.5 -183.999s-110.5 -74 -184.5 -74c-73.333 0 -134.666 24.667 -183.999 74s-74 110.666 -74 183.999c0 74 24.667 135.333 74 184c49.333 49.333 110.666 74 183.999 74c74 0 135.667 -24.667 185 -74
c48.667 -48.667 73 -110 73 -184zM831 -606c0 -68.667 -15 -120.667 -45 -156c-32.667 -38 -72 -57 -118 -57c-44 0 -82.333 19 -115 57c-32.667 35.333 -49 86 -49 152v1769c0 65.333 16.333 117.333 49 156c30 35.333 68.333 53 115 53c43.333 0 81.333 -17.667 114 -53
s49 -86 49 -152v-1769z" />
    <glyph glyph-name="cent" unicode="&#xa2;" horiz-adv-x="2032" 
d="M1798 209c-27.333 -90 -105.001 -156.997 -233.001 -200.997c-98.667 -32.667 -217.667 -49 -357 -49c-32.667 0 -81.667 2.66699 -147 8s-114.666 8 -147.999 8l-122 -360h-160l123 401c-164 87.333 -288.333 211.666 -373 372.999s-127 334.666 -127 519.999
c0 254 83.333 476.667 250 668c204.667 136.667 365.667 226.667 483 270c114.667 44 222.667 66 324 66l114 360h144l-99 -360c54.667 0 113.667 -12.333 177 -37c43.333 -16.667 93.666 -44 150.999 -82l-37 -512h-114c8 32.667 12 62.667 12 90
c0 65.333 -22 122.666 -66 171.999c-43.333 49.333 -104.666 89 -183.999 119l-426 -1393v-28c62.667 -30 122.667 -50.667 180 -62c57.333 -10.667 123 -16 197 -16c136.667 0 273 35.333 409 106zM1249 1688c-21.333 5.33301 -44.332 10.667 -68.999 16
c-24.667 2.66699 -44 4 -58 4c-174.667 0 -304.334 -56 -389.001 -168c-84.667 -114.667 -127 -284 -127 -508c0 -142 19.333 -280 58 -414c48.667 -177.333 112.667 -266 192 -266z" />
    <glyph glyph-name="sterling" unicode="&#xa3;" horiz-adv-x="3416" 
d="M3121 631c0 -186 -65.333 -348.669 -196 -488.002c-131.333 -142 -292.666 -213 -483.999 -213c-202 0 -412.333 54.667 -631 164c-70.667 35.333 -159.334 90 -266.001 164c-100.667 -95.333 -225 -174.666 -373 -237.999c-150 -65.333 -297.333 -98 -442 -98
c-150 0 -283.667 42.333 -401 127c-128.667 92.667 -193 207.334 -193 344.001s57.333 252.667 172 348c112 93.333 235 140 369 140c114.667 0 241.667 -22 381 -66c112 -35.333 229.333 -83 352 -143c8 40.667 12 81.667 12 123c0 106 -24.333 219.333 -73 340
c-33.333 78.667 -90.666 183.667 -171.999 315h-598c-44 0 -75.667 11 -95 33c-21.333 18.667 -32 43 -32 73c0 36 12 69 36 99c22 27.333 49.333 41 82 41h471c-21.333 54.667 -40.333 116 -57 184c-16.667 65.333 -25 125.333 -25 180c0 256.667 83.333 456 250 598
c156 131.333 358.333 197 607 197c193.333 0 365.333 -52 515.999 -156c163.333 -114.667 245 -260.667 245 -438c0 -82 -20.333 -153 -61 -213c-40.667 -62.667 -98 -94 -172 -94c-62.667 0 -113.334 20.333 -152.001 61c-38 41.333 -57 86.333 -57 135
c0 68.667 16.333 112.334 49 131.001c30 19.333 60 37.333 90 54c0 76 -49 137.333 -147 184c-101.333 44 -202.333 66 -303 66c-147.333 0 -271.666 -38.333 -372.999 -115c-120 -90 -180 -217 -180 -381c0 -62.667 23 -144.667 69 -246c22 -49.333 45.333 -98.333 70 -147
h848c35.333 0 64 -13.667 86 -41s33 -57.333 33 -90c0 -76.667 -39.667 -115 -119 -115h-713c57.333 -120 101 -229.333 131 -328c30 -100.667 45 -201.667 45 -303c0 -95.333 -16.333 -195 -49 -299c126 -87.333 251.667 -157 377 -209
c125.333 -54.667 252.333 -82 381 -82c120 0 216.833 35.5 290.5 106.5s110.5 161.167 110.5 270.5c0 96 -31.333 178 -94 246c-65.333 65.333 -140.333 98 -225 98s-150.334 -17.667 -197 -53c-48.667 -35.333 -73 -80.333 -73 -135
c0 -46.667 -13.667 -82.334 -41 -107.001c-30.667 -27.333 -56.667 -41 -78 -41c-112 0 -168 33 -168 99c0 160.667 56 289 168 385c100.667 84.667 227.667 127 381 127c169.333 0 311.333 -49.333 426 -148c128 -109.333 192 -258 192 -446zM1282 417.998
c-82 57.333 -176.335 102.333 -283.002 135c-106 30 -212.333 45 -319 45c-57.333 0 -108 -16.333 -152 -49c-46 -32.667 -69 -77.667 -69 -135c0 -76.667 34 -132.667 102 -168c54.667 -27.333 128.334 -41 221.001 -41c106.667 0 199.667 15 279 45
c76.667 30 150.334 86 221.001 168z" />
    <glyph glyph-name="currency" unicode="&#xa4;" horiz-adv-x="2458" 
d="M2179 2224l-356 -356.002c48.667 -90 84 -174.667 106 -254s33 -162.666 33 -249.999c0 -177.333 -47.667 -346.666 -143 -507.999l352 -348l-193 -193l-340 344c-180 -103.333 -352 -155 -516 -155c-177.333 0 -348 50.333 -512 151l-340 -340l-192 193l336 332
c-54.667 103.333 -93 192 -115 266s-33 156 -33 246s11 174.5 33 253.5s60.333 170.5 115 274.5l-336 336l188 192l340 -340c150 98.667 320.667 148 512 148c169.333 0 341.333 -52 516 -156l353 353zM1610 1360c0 134 -46.668 248.667 -140.001 344
c-95.333 92.667 -211.333 139 -348 139c-133.333 0 -246.666 -46.333 -339.999 -139c-95.333 -95.333 -143 -210 -143 -344s47.667 -247.333 143 -340c93.333 -95.333 208 -143 344 -143c134 0 248.667 47.667 344 143c93.333 92.667 140 206 140 340z" />
    <glyph glyph-name="yen" unicode="&#xa5;" horiz-adv-x="3072" 
d="M3076 2626c0 -52 -9.66699 -87.667 -29 -107c-18.667 -19.333 -47.334 -33 -86 -41l-290 8c-36 -16 -70.333 -50 -103 -102c-16 -27.333 -32.333 -53.333 -49 -78l-668 -1040h164c71.333 0 126 -15 164 -45s57 -65.667 57 -107c0 -90 -73.667 -135 -221 -135h-311v-213
h311c71.333 0 126 -12.333 164 -37c35.333 -27.333 53 -61.333 53 -102c0 -41.333 -17.667 -75.666 -53 -102.999c-38 -30 -92.667 -45 -164 -45h-307c0 -76 19 -133.333 57 -172c14 -13.333 55 -38 123 -74c32.667 0 86 3 160 9c70.667 5.33301 107.667 8 111 8
c35.333 0 58.333 -9.66699 69 -29c8.66699 -18.667 13 -51.334 13 -98.001c0 -49.333 -16.667 -85 -50 -107c-35.333 -21.333 -77.666 -32 -127 -32c-78.667 0 -148.334 2.66699 -209.001 8c-204.667 18.667 -312.334 28 -323.001 28c-82 -10.667 -160 -18.667 -234 -24
c-76 -8 -153.667 -12 -233 -12s-131.333 5.33301 -156 16c-48.667 22 -73 69.667 -73 143c0 24.667 8 48 24 70c14 19.333 31.667 30.333 53 33c14 2.66699 27.667 4 41 4h33c35.333 0 72.333 -2.66699 111 -8c27.333 -6 50.333 -9 69 -9h17c76 0 123.667 35.667 143 107
c8 44 17.667 87.667 29 131l-246 8c-152.667 0 -229 48 -229 144c0 38 20.333 72 61 102c38 27.333 94 41 168 41h250v213h-250c-74 0 -128.667 13.667 -164 41c-38 27.333 -57 61.333 -57 102c0 38.667 19 73 57 103c38.667 27.333 93.334 41 164.001 41h86l-786 1208h-344
c-36 0 -59.333 12.333 -70 37s-16 50.667 -16 78c0 98 55.667 147 167 147c98.667 0 172.667 -1.33301 222 -4c248 -13.333 376.333 -20 385 -20l487 45c30 0 58.667 -15.167 86 -45.5s41 -58.833 41 -85.5c0 -41.333 -17.667 -77 -53 -107s-77.666 -45 -126.999 -45
l-275 12c-5.33301 -16 -8 -29.667 -8 -41c0 -21.333 5.66699 -39 17 -53l630 -1073l631 1073c16.667 27.333 25 48 25 62c0 26.667 -22 40 -66 40l-344 -16c-24.667 0 -50.667 17.667 -78 53c-21.333 27.333 -32 49.333 -32 66c0 5.33301 1.33301 10.666 4 16
c2.66699 35.333 8 64 16 86c19.333 41.333 68.333 62 147 62c82 0 164 -4.33301 246 -13c248.667 -24 385.334 -36 410 -36c60 0 113.333 2.66699 160 8c163.333 18.667 250.666 28 262 28c54.667 0 90 -8 106 -24c14 -16.667 26.333 -49.334 37 -98z" />
    <glyph glyph-name="section" unicode="&#xa7;" 
d="M2171 1184c0 -104 -35.6699 -210.667 -107.003 -320c-57.333 -87.333 -137.666 -177.333 -240.999 -270c166.667 -142 250 -307.333 250 -496c0 -185.333 -59 -334 -177 -446c-128 -122.667 -319 -184 -573 -184c-202 0 -389 53 -561 159
c-191.333 117.333 -287 263.666 -287 438.999c0 78.667 27.333 155 82 229c54.667 70.667 120.334 106 197.001 106c60 0 113 -23 159 -69c46.667 -46.667 74 -101.334 82 -164.001c0 -44 -16.333 -85 -49 -123s-71 -69.333 -115 -94l-8 -33l156 -119
c79.333 -40.667 195.333 -61 348 -61c109.333 0 201 24.667 275 74c84.667 57.333 127 137.666 127 240.999c0 144.667 -104 277.334 -312 398.001l-586 307c-210 130.667 -315 276.667 -315 438c0 104 35.667 210.667 107 320c54.667 81.333 135 171.333 241 270
c-142 128 -213 274 -213 438c0 202 75.333 355 226 459c133.333 92.667 305.333 139 516 139c180 0 347.667 -47.667 503 -143c153.333 -98.667 230 -220.334 230 -365c0 -70.667 -23.333 -130.667 -70 -180c-46 -49.333 -102 -74 -168 -74c-48.667 0 -93.667 18 -135 54
c-43.333 32.667 -65 76.334 -65 131c0 48.667 13.667 88 41 118c16 19.333 47.333 42.666 94 70c-49.333 44 -113.666 76.667 -192.999 98c-82 19.333 -162.333 29 -241 29c-96 0 -183.667 -30 -263 -90c-81.333 -60 -122 -135 -122 -225c0 -49.333 19 -98.666 57 -147.999
c52 -65.333 132.667 -126.666 242 -183.999l688 -410c62.667 -38 109 -84.333 139 -139c27.333 -54.667 41 -114.667 41 -180zM1831 1159c0 62.667 -127.001 162.331 -381.001 298.998c-84.667 44 -213 107 -385 189c-57.333 -63.333 -102.333 -120.666 -135 -171.999
c-44 -71.333 -66 -135.666 -66 -192.999c0 -136.667 131 -269 393 -397l365 -172c76.667 76 131.334 145.667 164.001 209c30 60 45 139 45 237z" />
    <glyph glyph-name="dieresis" unicode="&#xa8;" horiz-adv-x="1200" 
d="M1192 2568c0 -62.667 -23.333 -117.334 -70 -164c-46 -46 -100.667 -69 -164 -69c-62.667 0 -117 23 -163 69c-46.667 46.667 -70 101.334 -70 164c0 62.667 23.167 117.334 69.5 164c46.333 46.667 100.833 70 163.5 70c63.333 0 118 -23.333 164 -70
c46.667 -46.667 70 -101.334 70 -164zM479 2568c0 -62.667 -22.999 -117.334 -68.999 -164c-46.667 -46 -102.667 -69 -168 -69c-66 0 -122 21.667 -168 65c-46.667 44 -70 100 -70 168c0 65.333 23.167 121.333 69.5 168s102.5 70 168.5 70
c65.333 0 121.166 -23.333 167.499 -70s69.5 -102.667 69.5 -168z" />
    <glyph glyph-name="copyright" unicode="&#xa9;" horiz-adv-x="2974" 
d="M2830 1651c0 -368.667 -129.668 -682.834 -389.001 -942.501s-574.666 -389.5 -945.999 -389.5c-366 0 -680 129.833 -942 389.5s-393 573.834 -393 942.501s131 684 393 946c259.333 259.333 573.333 389 942 389s684 -129.667 946 -389
c259.333 -262 389 -577.333 389 -946zM2757 1651c0 349.333 -123 646.834 -369 892.5c-246 245.667 -543.667 368.5 -893 368.5s-647 -122.833 -893 -368.5s-369 -543.167 -369 -892.5c0 -347.333 123 -643.833 369 -889.5s543.667 -368.5 893 -368.5s647 121.5 893 364.5
s369 540.833 369 893.5zM2179 1397c0 -174.667 -54.668 -315.336 -164.001 -422.003c-109.333 -109.333 -270.333 -164 -483 -164c-237.333 0 -421.666 87.333 -552.999 262c-120 158.667 -180 359.334 -180 602.001c0 240.667 61.333 442.667 184 606.001
c136.667 180.667 321 271 553 271c177.333 0 327.666 -68.333 450.999 -205l-5 139c0 41.333 22 62 66 62c24.667 0 45 -5.66699 61 -17c14 -13.333 21 -27 21 -41c0 -18.667 -1.33301 -61 -4 -127c-2.66699 -65.333 -4 -104.666 -4 -117.999v-111
c0 -38 1.33301 -73.333 4 -106l4 -99c0 -52 -1.33301 -82 -4 -90c-11.333 -27.333 -38.666 -41 -82 -41c-30 0 -50.667 9.66699 -62 29c-13.333 16 -22.666 40.667 -27.999 74c-2.66699 108.667 -13.667 189 -33 241c-62.667 161.333 -189.667 242 -381 242
c-185.333 0 -322 -80.667 -410 -242c-68 -125.333 -102 -290.333 -102 -495c0 -194 35.667 -347 107 -459c90 -142 227.667 -213 413 -213c144.667 0 258 47.667 340 143c71.333 82 107 188.667 107 320c0 48.667 30 73 90 73c40.667 0 66.667 -8 78 -24
c10.667 -19.333 16 -49.333 16 -90z" />
    <glyph glyph-name="guillemotleft" unicode="&#xab;" horiz-adv-x="1368" 
d="M1106 455c8 -24.667 11.9971 -44.001 11.9971 -58.001c0 -32.667 -15 -49 -45 -49c-35.333 0 -62.666 15 -81.999 45l-405 680c-5.33301 11.333 -8 21 -8 29c-3.33301 10.667 -0.666016 21.667 8.00098 33l405 651c19.333 30 37 45 53 45
c24.667 0 41.334 -16.333 50.001 -49c5.33301 -22 8 -39.667 8 -53c0 -11.333 -1.33301 -19.666 -4 -24.999l-209 -606zM597.997 454.999c8 -24.667 11.999 -44.001 11.999 -58.001c0 -30 -13.667 -45 -41 -45c-32.667 0 -57 13.667 -73 41l-414 680v62l405 651
c16.667 27.333 33.334 41 50.001 41c16 0 31 -16.333 45 -49c10.667 -24.667 16 -44 16 -58c0 -5.33301 -1.33301 -10.666 -4 -15.999l-209 -606z" />
    <glyph glyph-name="logicalnot" unicode="&#xac;" horiz-adv-x="4915" 
d="M4760 -340h-4600v3133h4600v-3133zM4370 1044v74h-65c-57.334 0 -97 6.83301 -119 20.5s-33 50.5 -33 110.5v1024v82c-2.66602 27.333 -4 53.333 -4 78c0 65.333 13.666 109 41 131c24.666 19.333 84.666 29 180 29v73h-655v-73c101.333 0 162.666 -9.66699 184 -29
c22 -19.333 33 -69.666 33 -151v-99v-1057c0 -60 -12.333 -98 -37 -114c-27.333 -16.667 -68.333 -25 -123 -25h-57v-74h655zM4674 111c0 136 -106.666 226.004 -320 270.004c-212.667 43.333 -319 111.666 -319 204.999c0 57.333 21.667 103.666 65 138.999
c41.334 32.667 92 49 152 49c43.334 0 85.667 -9.66699 127 -29c40.666 -21.333 77.333 -51.333 110 -90c8.66602 -38 14.333 -61 17 -69c2.66602 -16.667 4 -41.334 4 -74.001l65 -4c0 46.667 4.33398 98.667 13 156c8 54 13.334 96.333 16 127
c-114.666 35.333 -224 53 -328 53c-120 0 -217 -24.667 -291 -74c-87.333 -60 -131 -147.333 -131 -262c0 -144.667 106.667 -237.667 320 -279c210 -40.667 315 -110.334 315 -209.001c0 -68 -24.666 -119.667 -74 -155c-48.666 -38.667 -108.666 -58 -180 -58
c-114.667 0 -192.5 20.5 -233.5 61.5s-61.5 117.5 -61.5 229.5h-65c0 -30 -2.66699 -80.333 -8 -151c-6 -74 -9 -115 -9 -123c0 -27.333 31.667 -49.333 95 -66c60 -18.667 140.333 -28 241 -28c128.666 0 236.666 30 324 90c104 70.667 156 167.667 156 291zM3854 754.004
l-352 0.000976562c0 65.333 1.33301 132 4 200c2.66699 66 8.33398 129 17 189c76 62.667 133.333 122.667 172 180c48.667 74 73 153.333 73 238c0 240 -157 373.667 -471 401s-471 128.333 -471 302.999c0 104 36.833 184.667 110.5 242s165.167 86 274.5 86
c52 0 112 -9.66699 180 -29c68.667 -22 120.667 -48 156 -78c14 -30 21 -76.333 21 -139v-82h73c0 82 3 140.667 9 176c2.66699 35.333 12 86 28 152c-144.667 57.333 -296 86 -454 86c-169.333 0 -308.666 -39.667 -418 -119c-123.333 -90 -185 -217 -185 -381
c0 -237.333 158.667 -371 476 -401c314 -30 471 -132.667 471 -308c0 -114.667 -43.833 -202 -131.5 -262s-191.5 -90 -311.5 -90c-70.667 0 -141.667 11 -213 33c-95.333 30 -152.666 69.667 -172 119l-4 196h-78v-135v-57c0 -54.667 -4 -109.334 -12 -164.001
c139.333 -57.333 284 -86 434 -86c74 0 143.667 8.33301 209 25c14 -109.333 21 -207.666 21 -294.999c-52 -30 -113.667 -56 -185 -78v-49h185v-643c0 -169.333 87.333 -254 262 -254c21.333 0 45.666 2.66699 73 8c27.333 5.33301 52 10.666 74 15.999l111 140l-33 45
c-35.333 -41.333 -79 -62 -131 -62s-91.667 19 -119 57c-30 38.667 -45 111.334 -45 218.001v53v442c22 0 57.667 1.33301 107 4c46 2.66699 80 4 102 4c40.667 0 80.334 -4 119 -12zM3285 -245.995l0.000976562 69.998c-79.333 0 -130 6.66699 -152 20
c-21.333 14 -32 45.667 -32 95c2.66699 54 4 99 4 135v377c0 262 -127 393 -381 393c-68.667 0 -137 -20.667 -205 -62c-68 -40.667 -126.667 -92.334 -176 -155.001c2.66699 48.667 4 85.334 4 110.001c0 44 -6.66699 79.667 -20 107
c-63.333 -27.333 -126.333 -49.333 -189 -66c-62.667 -16 -126.667 -24 -192 -24v-70c30 2.66699 53 4 69 4c35.333 0 65.333 -4 90 -12c22 -11.333 33 -30.666 33 -57.999v-704c0 -30 -6.66699 -53.333 -20 -70c-14 -16 -42.667 -24 -86 -24
c-38.667 2.66699 -67.334 4 -86.001 4v-70h589l-4 70c-82 0 -135 12.333 -159 37c-27.333 22 -41 64.333 -41 127c0 16 1.33301 48.667 4 98c2.66699 46.667 4 86.334 4 119.001v114c0 126 13.667 213.667 41 263c43.333 76 129.333 114 258 114
c103.333 0 175.666 -31.333 217 -94c32.667 -52 49 -136.667 49 -254v-221v-49c0 -120 -5.33301 -228 -16 -324h397zM2785 2593v72.9971h-487v-73c38 0 81.667 -2.66699 131 -8c49.333 -8.66699 74 -23.667 74 -45c0 -68.667 -52 -279 -156 -631l-164 -533l-475 1303h-57
l-500 -1290l-131.5 565c-43.667 194 -81.834 372.667 -114.501 536c-8 14 -12 25 -12 33v8c0 27.333 20.333 45.333 61 54c41.333 5.33301 71.333 8 90 8h50v73h-586v-73c70.667 0 115.667 -8.33301 135 -25c16.667 -18.667 33 -67.667 49 -147
c27.333 -117.333 57.333 -237.666 90 -360.999c76.667 -286.667 120.334 -490 131.001 -610c-62.667 0 -141.667 -43.667 -237 -131c-98.667 -90 -163 -169.333 -193 -238c-10.667 -27.333 -17.334 -56 -20.001 -86c-5.33301 -30 -8 -71 -8 -123v-122l-164 -82v-41l164 16
l4 -627c0 -87.333 -11 -140.333 -33 -159c-24.667 -22 -82 -33 -172 -33v-70h635v70h-70c-52 0 -86 2.66699 -102 8c-44 16.667 -66 70 -66 160l4 655h144c48.667 -2.66699 97.667 -4 147 -4l21 102l-9 9h-303v147v103c0 87.333 12.333 155.333 37 204
c22 49.333 70 74 144 74c46 0 85.333 -12.333 118 -37l45 -221h119c74 218.667 152 431.667 234 639c60 155.333 148.667 367 266 635c24.667 -71.333 103.667 -281.666 237 -630.999c101.333 -267.333 175.333 -481.666 222 -642.999h123
c40.667 166.667 114.334 437 221.001 811c125.333 436.667 207 683.667 245 741c19.333 11.333 59 17 119 17zM1995 328c0 152.667 -49.334 276.667 -148.001 372c-98 96 -225 144 -381 144c-166 0 -305 -49.333 -417 -148c-112 -98 -168 -230.333 -168 -397
c0 -161.333 46.333 -296.5 139 -405.5s218.334 -163.5 377.001 -163.5c174.667 0 318 56 430 168s168 255.333 168 430zM1778 229c0 -112 -22 -206.001 -66 -282.001c-54.667 -93.333 -135.334 -140 -242.001 -140c-125.333 0 -220.666 67 -285.999 201
c-52 104 -78 227 -78 369c0 106.667 26 199.334 78 278.001c52 79.333 128.333 119 229 119c131.333 0 228.333 -61.333 291 -184c49.333 -96 74 -216.333 74 -361z" />
    <glyph glyph-name="registered" unicode="&#xae;" horiz-adv-x="2974" 
d="M2830 1651c0 -368.667 -129.668 -682.834 -389.001 -942.501s-574.666 -389.5 -945.999 -389.5c-366 0 -680 129.833 -942 389.5s-393 573.834 -393 942.501s131 684 393 946c259.333 259.333 573.333 389 942 389s684 -129.667 946 -389
c259.333 -262 389 -577.333 389 -946zM2757 1651c0 349.333 -123 646.834 -369 892.5c-246 245.667 -543.667 368.5 -893 368.5s-647 -122.833 -893 -368.5s-369 -543.167 -369 -892.5c0 -347.333 123 -643.833 369 -889.5s543.667 -368.5 893 -368.5s647 121.5 893 364.5
s369 540.833 369 893.5zM2404 946.001c0 -35.333 -12.334 -58.335 -37.001 -69.002c-24 -14 -56.667 -21 -98 -21h-49c-114.667 0 -196.667 15 -246 45c-73.333 44 -110 127.333 -110 250v209c0 73.333 -18 136 -54 188c-38 52 -89.667 78 -155 78
c-2.66699 5.33301 -19 8 -49 8h-74h-107c-27.333 0 -47.666 -1.33301 -60.999 -4c-57.333 0 -97 -4 -119 -12s-33 -36.667 -33 -86v-332c0 -57.333 8.33301 -102.333 25 -135s44 -49 82 -49c8 0 25.667 1.33301 53 4s48 4 62 4c24 -2.66699 40.333 -4 49 -4
c27.333 0 45 -22 53 -66c0 -27.333 -6.66699 -49 -20 -65c-16.667 -19.333 -38.667 -29 -66 -29c-60 0 -133.667 4 -221 12c-90 6 -150 9 -180 9l-209 -13h-54c-30 0 -50.333 4.33301 -61 13c-19.333 13.333 -29 39 -29 77c0 6 5.66699 18.333 17 37
c8 16.667 17.333 25 28 25l164 -8c49.333 0 80.666 27.333 93.999 82c6 21.333 9 54 9 98v983c0 60 -7 106.333 -21 139c-13.333 32.667 -40.666 49 -81.999 49l-164 -8h-8c-10.667 0 -20 8.33301 -28 25c-8.66699 18.667 -13 35 -13 49c0 38 13.667 62.667 41 74
c24.667 10.667 57.334 16 98.001 16c27.333 0 71.166 -4.16699 131.499 -12.5s105.5 -12.5 135.5 -12.5l504 29c168.667 0 302.167 -35.5 400.5 -106.5s147.5 -174.833 147.5 -311.5c0 -120 -36.667 -214 -110 -282c-62.667 -57.333 -148.667 -95.666 -258 -114.999
c98 -19.333 166.333 -46.666 205 -81.999c54 -54.667 81 -150.334 81 -287.001v-172c0 -35.333 5.66699 -66.666 17 -93.999c10.667 -30 31 -45 61 -45l209 -4c32.667 0 49 -26 49 -78zM1950 2097c0 183.333 -124.333 275 -373 275h-78c-84.667 0 -153 -11 -205 -33
c-54.667 -22 -82 -63 -82 -123v-389c0 -24.667 23.333 -37 70 -37h234c289.333 0 434 102.333 434 307z" />
    <glyph glyph-name="degree" unicode="&#xb0;" horiz-adv-x="639" 
d="M643 2585c0 -87.333 -31.333 -162.666 -94 -226c-62.667 -62.667 -139.334 -94 -230.001 -94c-87.333 0 -162.333 31.333 -225 94c-65.333 60 -98 135.333 -98 226c0 90 31.333 166.333 94 229s139 94 229 94c90.667 0 167.334 -31.333 230.001 -94s94 -139 94 -229z
M487 2585c0 46 -16.333 85.333 -49 118c-32.667 33.333 -72.334 50 -119.001 50c-46 0 -85.333 -16.667 -118 -50c-32.667 -32.667 -49 -72 -49 -118c0 -46.667 16.333 -86.334 49 -119c32.667 -32.667 72 -49 118 -49c46.667 0 86.334 16.333 119.001 49s49 72.334 49 119z
" />
    <glyph glyph-name="plusminus" unicode="&#xb1;" horiz-adv-x="1778" 
d="M1679 1106h-680.002v-696h197c46.667 0 85 -13.667 115 -41c27.333 -30 41 -65.667 41 -107c0 -40.667 -12.333 -74.667 -37 -102c-27.333 -27.333 -67 -41 -119 -41h-639c-49.333 0 -87.666 15 -114.999 45c-30 27.333 -45 60 -45 98c0 44 13.667 79.667 41 107
c24.667 27.333 64.334 41 119.001 41h213v696h-688v229h688v672h229v-672h680v-229z" />
    <glyph glyph-name="twosuperior" unicode="&#xb2;" 
d="M1458 1769c0 -92.667 -29.999 -174.333 -89.999 -245c-62.667 -74 -140.334 -111 -233.001 -111c-79.333 0 -162.666 28.667 -249.999 86c-188.667 126 -315.667 189 -381 189c-41.333 0 -77 -7 -107 -21c-30 -13.333 -51.667 -39.333 -65 -78h49
c32.667 0 49 -20.333 49 -61c0 -32.667 -13.667 -58.667 -41 -78s-58.666 -29 -93.999 -29c-49.333 11.333 -90.333 42.833 -123 94.5s-49 106.167 -49 163.5c0 188.667 91.333 337.667 274 447l512 217c186 82 279 187 279 315c0 101.333 -39.667 182 -119 242
c-79.333 57.333 -169.333 86 -270 86c-96 0 -186.333 -23.333 -271 -70c-84.667 -46 -127 -103.333 -127 -172c27.333 -13.333 46.666 -24 57.999 -32c40.667 -27.333 61 -49.333 61 -66c0 -52 -13.667 -93 -41 -123c-30 -32.667 -68 -49 -114 -49
c-123.333 0 -185 75 -185 225c0 131.333 67 239.333 201 324c131.333 84.667 274.666 127 429.999 127c161.333 0 299.333 -43.667 414 -131c112 -90 168 -207.667 168 -353c0 -185.333 -93 -325.666 -279 -420.999l-516 -185c-188.667 -73.333 -283 -174.333 -283 -303
c82 76.667 166.667 115 254 115c90.667 0 213.667 -60 369 -180c74 -57.333 145 -86 213 -86c46.667 0 85 21.667 115 65c24.667 35.333 37 73.666 37 114.999c0 10.667 -1.66699 23 -5 37c-24 -24.667 -51 -37 -81 -37h-9c-21.333 0 -43 9.66699 -65 29
c-24.667 18.667 -37 37.667 -37 57c0 46.667 15 82 45 106c30 24.667 67 37 111 37c54 0 100.333 -26 139 -78c38 -51.333 57 -107.333 57 -168z" />
    <glyph glyph-name="threesuperior" unicode="&#xb3;" 
d="M1438 2048c0 -169.333 -63 -307.331 -189 -413.998c-125.333 -109.333 -296 -164 -512 -164c-160.667 0 -300 38.333 -418 115c-133.333 87.333 -200 200.666 -200 339.999c0 90 23 159.667 69 209c44 46.667 100 70 168 70c22 0 44 -7 66 -21
c46.667 -30 70 -65.333 70 -106c0 -30 -4.33301 -56 -13 -78c-10.667 -24.667 -31 -39.667 -61 -45c-5.33301 -2.66699 -31.333 -4 -78 -4c-5.33301 -8.66699 -9.33301 -14.334 -12 -17.001s-5.66699 -4 -9 -4c0 -82 48 -151.667 144 -209c95.333 -60 196.333 -90 303 -90
c139.333 0 252.666 41 339.999 123s131 179 131 291c0 98 -24.667 173 -74 225c-60 62.667 -154 94 -282 94c-36 0 -82.667 -2.66699 -140 -8c-60 -8 -94 -12 -102 -12c-32.667 0 -54.667 13.667 -66 41c-2.66699 5.33301 -4 10.666 -4 16c0 19.333 15 42.666 45 70l488 504
h-623c-16 -5.33301 -35 -11 -57 -17c-24.667 -8 -39.667 -21.667 -45 -41c-8 -21.333 -12 -50 -12 -86v-82v-57c0 -60 -27.333 -90 -82 -90c-49.333 0 -74 32.667 -74 98v398c0 40.667 32.667 61 98 61h918c68 0 117 -6.66699 147 -20c27.333 -16.667 41 -38.667 41 -66
c0 -19.333 -5.33301 -37 -16 -53c-14 -19.333 -30.333 -38.666 -49 -58l-439 -434c150.667 0 276.334 -43.667 377.001 -131c101.333 -87.333 152 -203.333 152 -348z" />
    <glyph glyph-name="acute" unicode="&#xb4;" horiz-adv-x="840" 
d="M741 2511l-635 -230c-18.667 -5.33301 -35 -8 -49 -8c-32.667 0 -49 18 -49 54c0 13.333 7 26.666 21 40l503 443c41.333 38 85.333 57 132 57c48.667 0 91 -20.333 127 -61c32.667 -44 49 -93.333 49 -148c0 -35.333 -7 -65.333 -21 -90
c-16 -24.667 -42 -43.667 -78 -57z" />
    <glyph glyph-name="mu" unicode="&#xb5;" horiz-adv-x="2503" 
d="M2527 152c0 -101.333 -30.0039 -152.001 -90.0039 -152.001h-500c-81.333 0 -122 34 -122 102v131c-68.667 -92.667 -164.334 -165 -287.001 -217c-123.333 -54.667 -251.666 -82 -384.999 -82c-172 0 -318 38.333 -438 115v-614c0 -74 -13.667 -132.667 -41 -176
c-30.667 -44 -65 -66 -103 -66c-40.667 0 -74.667 22 -102 66c-30 40.667 -45 99.334 -45 176.001l4 1990v74c0 24.667 1.33301 50.667 4 78c0 70.667 -7 125.334 -21 164.001c-13.333 35.333 -40.666 53 -81.999 53c-40.667 -5.33301 -74.667 -8 -102 -8
c-27.333 -2.66699 -57.333 -5.33398 -90 -8.00098c-68 0 -110.333 34 -127 102c-2.66699 10.667 -4 21.667 -4 33c0 35.333 12.333 65.333 37 90c30 30 69.667 45 119 45c32.667 0 80.334 -2.66699 143.001 -8s110.334 -8 143.001 -8c22 0 50.667 2.66699 86 8
c36 5.33301 67.333 8 94 8c24.667 0 49.334 -11 74.001 -33c14 -13.333 21 -24.333 21 -33v-1015c0 -300.667 45 -505.667 135 -615c82 -98 206.333 -147 373 -147c250.667 0 415.667 98.333 495 295c46.667 114.667 70 314 70 598v422c0 76 -4.16699 135.833 -12.5 179.5
s-26.166 69.834 -53.499 78.501h-192c-32.667 0 -57.334 13.667 -74.001 41c-19.333 24 -29 54 -29 90c0 35.333 8.33301 66.666 25 93.999c16.667 24.667 40 37 70 37l536 -4c27.333 0 43.666 -12.333 49 -37c2.66699 -11.333 4 -36 4 -74l-20 -848
c0 -332.667 4 -558 12 -676c5.33301 -106 46.333 -159 123 -159h25c13.333 2.66699 24 4 32 4c60.667 10.667 104.667 16 132 16c30 0 57 -9.66699 81 -29c22 -21.333 33 -48.333 33 -81z" />
    <glyph glyph-name="paragraph" unicode="&#xb6;" horiz-adv-x="2519" 
d="M2167 2507l-212.999 0.000976562v-2970h-287v2970h-373v-2970h-286v1770c-235.333 0 -424 57.333 -566 172c-155.333 125.333 -233 302.666 -233 531.999c0 262 92.667 453.333 278 574c153.333 98 367.666 147 642.999 147h1037v-225z" />
    <glyph glyph-name="periodcentered" unicode="&#xb7;" horiz-adv-x="872" 
d="M639 1446c0 -49.333 -16.334 -91.6689 -49.001 -127.002s-73.667 -53 -123 -53s-93 16.333 -131 49s-57 73.667 -57 123c0 48.667 17.667 92.334 53 131.001c32.667 35.333 73.667 53 123 53c48.667 0 92.334 -16.333 131.001 -49c35.333 -35.333 53 -77.666 53 -126.999
z" />
    <glyph glyph-name="cedilla" unicode="&#xb8;" horiz-adv-x="1024" 
d="M1024 -545c0 -112 -57.335 -204.668 -172.002 -278.001c-101.333 -66 -216 -99 -344 -99c-126 0 -239.333 23.333 -340 70c-104 44 -156 97.333 -156 160c0 18.667 11 37.667 33 57s46.667 29 74 29l147 -62c109.333 -43.333 180.333 -65 213 -65
c92.667 0 158.167 15 196.5 45s57.5 72.333 57.5 127c0 38 -13.667 74.667 -41 110c-30 33.333 -65.333 50 -106 50c-32.667 0 -67 -7 -103 -21c-87.333 -32.667 -137.666 -49 -150.999 -49c-27.333 0 -56 13.667 -86 41c-22 19.333 -33 38.333 -33 57
c0 8.66699 1.33301 15.667 4 21l33 78c54.667 130.667 91.334 222 110.001 274h185l-90 -225l123 12c125.333 0 226.333 -23.333 303 -70c95.333 -57.333 143 -144.666 143 -261.999z" />
    <glyph glyph-name="onesuperior" unicode="&#xb9;" 
d="M1118 1581c0 -38 -7.99805 -62.6689 -23.998 -74.002c-8.66699 -5.33301 -29.334 -9.33301 -62.001 -12c-112 0 -194 1.33301 -246 4c-202 11.333 -304.333 17 -307 17c-22 0 -60 -3 -114 -9c-57.333 -5.33301 -89 -8 -95 -8c-40.667 0 -66.334 1.33301 -77.001 4
c-46.667 11.333 -70 37.333 -70 78c0 16.667 6.66699 34.334 20 53.001c11.333 16.667 25 25 41 25h78c30 -2.66699 64.333 -5.33398 103 -8.00098c40.667 0 70.667 4 90 12c30 30 47.667 61.333 53 94c5.33301 30 8 82 8 156v872c0 76.667 -1.33301 121.667 -4 135
c-10.667 49.333 -36.667 74 -78 74h-229c-35.333 0 -53 24.667 -53 74c0 24.667 8 46.334 24 65c14 16.667 37.333 25 70 25h401c22 0 41.333 -20.333 58 -61c13.333 -41.333 20 -109.666 20 -205v-74c0 -8 -1.33301 -17.667 -4 -29v-966
c0 -41.333 6.66699 -75.666 20 -102.999c11.333 -30 33.333 -51.667 66 -65l176 8c52 0 87.667 -7 107 -21c18.667 -13.333 28 -33.666 28 -60.999z" />
    <glyph glyph-name="guillemotright" unicode="&#xbb;" horiz-adv-x="1368" 
d="M1298 1073l-412.999 -680c-16.667 -27.333 -41.334 -41 -74.001 -41c-27.333 0 -41 15 -41 45c0 14 4 33.333 12 58l213 643l-209 606c-2.66699 5.33301 -4 10.666 -4 15.999c0 16.667 5.66699 37.334 17 62.001c10.667 30 25.667 45 45 45c16 0 32.333 -13.667 49 -41
l405 -651v-62zM795.001 1073l-406 -679.999c-19.333 -30 -45.333 -45 -78 -45s-49 17.667 -49 53c0 14 4 32 12 54l218 643l-209 606c-2.66699 8 -4 17.667 -4 29c0 16 2.66699 33.667 8 53c10.667 30 27 45 49 45c16 0 33.667 -15 53 -45l406 -651
c5.33301 -8.66699 8 -18.334 8 -29.001c2.66699 -10.667 0 -21.667 -8 -33z" />
    <glyph glyph-name="onequarter" unicode="&#xbc;" 
d="M913 1827c0 -32.667 -6.66895 -53.3311 -20.002 -61.998c-8 -5.33301 -24.333 -8 -49 -8c-76.667 0 -152 1.33301 -226 4c-73.333 2.66699 -152.333 7 -237 13c-19.333 0 -48 -3 -86 -9c-38 -5.33301 -66.667 -8 -86 -8c-38 0 -68 5.66699 -90 17
c-24.667 8 -37 25.667 -37 53c0 46 17.667 69 53 69h74c24.667 -2.66699 53.334 -5.33398 86.001 -8.00098c30 0 51.667 2.66699 65 8c24.667 24.667 40 52 46 82c2.66699 27.333 4 69.666 4 126.999v729c0 60.667 -3 104.667 -9 132c-5.33301 26.667 -24.333 40 -57 40
h-192c-30.667 0 -46 19.333 -46 58c0 52 27.333 78 82 78h332c24.667 0 42.334 -20.667 53.001 -62c8.66699 -40.667 13 -89.667 13 -147v-66c0 -5.33301 -1.33301 -14.666 -4 -27.999v-807c0 -68.667 23 -115.334 69 -140.001l148 4c76 0 114 -23 114 -69zM1966 1806
l-1212 -925.001c-38.667 -24.667 -74.334 -37 -107.001 -37c-38 0 -68 12.333 -90 37s-33 57.334 -33 98.001c0 52 23.333 95.667 70 131l1221 930c48.667 38 95 57 139 57c35.333 0 62.666 -11 81.999 -33c18.667 -21.333 28 -50 28 -86c0 -32.667 -8 -62.667 -24 -90
c-16.667 -30 -41.334 -57.333 -74.001 -82zM2564 61.002c0 -48.667 -23.335 -72.998 -70.002 -72.998c-43.333 0 -96.333 4 -159 12c-66 5.33301 -104.333 8 -115 8c-74 0 -131.333 -2.66699 -172 -8s-72 -8 -94 -8c-41.333 0 -71.333 4 -90 12
c-22 5.33301 -33 21.666 -33 48.999v17c0 38 23.333 57 70 57h147c27.333 5.33301 45 28.666 53 69.999c8.66699 38 13 69.333 13 94v123h-603c-65.333 0 -98 23 -98 69c0 19.333 9.66699 44 29 74l512 672c84.667 112 162.334 168 233.001 168c66 0 99 -46.667 99 -140
v-700h221c43.333 0 65 -23.333 65 -70c0 -48.667 -21.667 -73 -65 -73h-221v-123c0 -44 4 -81 12 -111c5.33301 -30 17.666 -46.333 37 -49c18.667 -5.33301 40.334 -8 65.001 -8c38.667 2.66699 70 4 94 4c46.667 0 70 -22 70 -66zM2130 1217l-508 -660h492z" />
    <glyph glyph-name="onehalf" unicode="&#xbd;" 
d="M913 1839c0 -32.667 -6.66895 -52.998 -20.002 -60.998c-8 -6 -24.333 -9 -49 -9c-76.667 0 -152 1.66699 -226 5c-73.333 2.66699 -152.333 6.66699 -237 12c-19.333 0 -48 -2.83301 -86 -8.5s-66.667 -8.5 -86 -8.5c-38 0 -68 5.66699 -90 17
c-24.667 8 -37 25.667 -37 53c0 46.667 17.667 70 53 70h74c24.667 -2.66699 53.334 -5.33398 86.001 -8.00098c30 0 51.667 2.66699 65 8c24.667 24.667 40 52 46 82c2.66699 27.333 4 69.666 4 126.999v729c0 60 -3 103.667 -9 131c-5.33301 27.333 -24.333 41 -57 41
h-192c-30.667 0 -46 19 -46 57c0 52 27.333 78 82 78h332c24.667 0 42.334 -20.667 53.001 -62c8.66699 -40.667 13 -89.667 13 -147v-66c0 -5.33301 -1.33301 -14.666 -4 -28v-807c0 -68 23 -114.333 69 -139l148 4c76 0 114 -23.333 114 -70zM2564 287.002
c0 -76.667 -24.665 -145.002 -73.998 -205.002c-51.333 -60 -116.666 -90 -196 -90c-62.667 0 -170.667 51.667 -324 155c-70.667 49.333 -137.667 74 -201 74c-43.333 0 -76 -6.83301 -98 -20.5s-37 -32.834 -45 -57.501h41c16.667 0 29 -10.667 37 -32
c0 -3.33301 1.33301 -9 4 -17c0 -27.333 -11 -49 -33 -65c-24.667 -19.333 -50.667 -29 -78 -29c-43.333 8 -77.333 34 -102 78c-27.333 40.667 -41 85.667 -41 135c0 202 147.333 360.333 442 475c295.333 114.667 443 228 443 340c0 84.667 -32.833 151.667 -98.5 201
s-140.834 74 -225.501 74c-82 0 -157 -19.333 -225 -58c-71.333 -38 -107 -84.333 -107 -139c22 -14 38.667 -23.667 50 -29c32.667 -22 49 -41 49 -57c0 -92.667 -42.333 -139 -127 -139c-104 0 -156 62.667 -156 188c0 106.667 54.667 195.334 164 266.001
c109.333 68.667 231 103 365 103c133.333 0 248 -35.667 344 -107c92.667 -73.333 139 -170.333 139 -291c0 -196.667 -150.333 -342.667 -451 -438c-300 -95.333 -450 -201.666 -450 -318.999c62.667 60 133.667 90 213 90s181.666 -49.333 306.999 -148
c62.667 -48.667 121.334 -73 176 -73c40.667 0 73.334 19 98 57c19.333 27.333 29 57.333 29 90c0 10.667 -1.33301 21.667 -4 33c-24.667 -19.333 -46.667 -29 -66 -29h-16c-19.333 0 -35.666 7 -49 21c-19.333 16 -29 35 -29 57c0 79.333 43.667 119 131 119
c49.333 -5.33301 89 -28.666 119 -69.999c30 -43.333 45 -91 45 -143zM1802 1806l-1212 -925.001c-38.667 -24.667 -74.334 -37 -107.001 -37c-38 0 -68 12.333 -90 37s-33 57.334 -33 98.001c0 52 23.333 95.667 70 131l1221 930c48.667 38 95 57 139 57
c35.333 0 62.666 -11 81.999 -33c19.333 -21.333 29 -50 29 -86c0 -32.667 -8.33301 -62.667 -25 -90c-16.667 -30 -41.334 -57.333 -74.001 -82z" />
    <glyph glyph-name="threequarters" unicode="&#xbe;" 
d="M1159 2216c0 -147.333 -51.668 -264.667 -155.001 -352c-104 -90 -247.667 -135 -431 -135c-133.333 0 -249.333 31.333 -348 94c-112 70.667 -168 164.667 -168 282c0 76.667 19.333 135.334 58 176c35.333 38.667 83 58 143 58c19.333 0 37 -5.66699 53 -17
c38.667 -24 58 -51 58 -81c0 -30.667 -3 -52.667 -9 -66c-8 -22 -25.667 -37 -53 -45c-8 -2.66699 -19 -4 -33 -4h-32c-6 -5.33301 -10.333 -9.33301 -13 -12v-13c-2.66699 -10.667 -2.66699 -24.334 0 -41c2.66699 -32.667 43.667 -72 123 -118
c76.667 -49.333 158.667 -74 246 -74c114.667 0 209 35.333 283 106c70.667 68.667 106 148 106 238c0 82 -21.667 147.333 -65 196c-44 46.667 -120.667 70 -230 70l-200 -16c-30.667 0 -48.667 10.667 -54 32c-2.66699 3.33301 -4 7.66602 -4 13c0 16 12.333 36.333 37 61
l406 414h-521c-21.333 -8 -41.666 -15 -60.999 -21c-10.667 -5.33301 -19 -19 -25 -41c-8 -24 -12 -48.333 -12 -73c2.66699 -22 4 -38.333 4 -49v-50c0 -38 -4 -59.667 -12 -65c-11.333 -8 -30.333 -12 -57 -12c-38.667 2.66699 -58 24.334 -58 65v17v331
c0 32.667 26 49 78 49l766 9c57.333 0 98.333 -5.66699 123 -17c22 -13.333 33 -32.333 33 -57c0 -14 -5.66699 -30.333 -17 -49c-8 -14 -20.333 -30.333 -37 -49l-364 -361c125.333 0 230.333 -35.333 315 -106c84.667 -74 127 -169.667 127 -287zM1884 1806
l-1212 -925.001c-38.667 -24.667 -74.334 -37 -107.001 -37c-38 0 -68 12.333 -90 37s-33 57.334 -33 98.001c0 52 23.333 95.667 70 131l1221 930c48.667 38 95 57 139 57c35.333 0 62.666 -11 81.999 -33c18.667 -21.333 28 -50 28 -86c0 -32.667 -8 -62.667 -24 -90
c-16.667 -30 -41.334 -57.333 -74.001 -82zM2540 73.998c0 -49.333 -23.335 -73.998 -70.002 -73.998c-44 0 -97.333 4 -160 12c-65.333 5.33301 -103.666 8 -115 8c-73.333 0 -130.666 -2.66699 -171.999 -8c-40.667 -5.33301 -72 -8 -94 -8c-40.667 0 -70.667 4 -90 12
c-22 6 -33 22.667 -33 50v16c0 38 23.333 57 70 57h147c27.333 5.33301 45.333 28.666 54 69.999c8 38 12 69.333 12 94v123h-602c-65.333 0 -98 23.333 -98 70c0 18.667 9.33301 43 28 73l512 672c84.667 112 162.667 168 234.001 168c65.333 0 98 -46.333 98 -139v-701
h221c44 0 66 -23 66 -69c0 -49.333 -22 -74 -66 -74h-221v-123c0 -43.333 4 -80 12 -110c5.33301 -30.667 17.666 -47.334 37 -50.001c19.333 -5.33301 41.333 -8 66 -8c38 2.66699 69.333 4 94 4c46.667 0 70 -21.667 70 -65zM2105 1229l-508 -660h492z" />
    <glyph glyph-name="questiondown" unicode="&#xbf;" horiz-adv-x="2392" 
d="M1569 1778c0 -71.333 -26 -133.001 -78 -185.001c-52 -51.333 -113.333 -77 -184 -77c-71.333 0 -133 25.667 -185 77c-52 52 -78 113.667 -78 185c0 70.667 26 132 78 184c49.333 49.333 111 74 185 74c70.667 0 132 -24.667 184 -74s78 -110.666 78 -183.999z
M2195 -70.001c0 -240 -117.333 -433.667 -352 -581c-207.333 -131.333 -443.333 -197 -708 -197c-248.667 0 -470 68.333 -664 205c-212.667 150 -319 339.667 -319 569c0 210.667 88.667 385.667 266 525l500 294c180 109.333 270 231 270 365c0 68 6.66699 115.667 20 143
c24.667 49.333 69.667 74 135 74c60.667 0 107.334 -23.333 140.001 -70c24.667 -38 37 -78.667 37 -122v-25c-19.333 -188.667 -117.666 -354 -294.999 -496l-475 -315c-169.333 -122.667 -254 -255 -254 -397c0 -147.333 69.667 -267.666 209 -360.999
c125.333 -84.667 271.333 -127 438 -127c185.333 0 346.333 37 483 111c164 90 254 218.333 270 385c0 35.333 -10.667 68 -32 98c-8.66699 11.333 -33.334 37.333 -74.001 78c0 -40.667 -2.66699 -69.334 -8 -86.001c-14 -27.333 -34.667 -46.333 -62 -57
c-27.333 -14 -57.333 -21 -90 -21c-40.667 0 -77.334 19.333 -110.001 58c-36 35.333 -54 74.666 -54 117.999c0 76.667 32.833 142.334 98.5 197.001s143.5 82 233.5 82c128.667 0 227 -42.333 295 -127c68 -87.333 102 -194 102 -320z" />
    <glyph glyph-name="Agrave" unicode="&#xc0;" horiz-adv-x="3236" 
d="M3097 -8c-16.667 0 -49.6689 -1.33594 -99.002 -4.00293c-52 -2.66699 -84.667 -4 -98 -4l-131 16h-504c-40.667 -2.66699 -73.334 -4 -98 -4c-169.333 -10.667 -259.666 -16 -270.999 -16c-57.333 0 -99.666 15 -126.999 45c-21.333 21.333 -32 48.333 -32 81v17
c0 46.667 15 79.334 45 98.001c27.333 19.333 56 29 86 29l221 -17c43.333 0 83 7 119 21c32.667 13.333 49 38 49 74c0 5.33301 -2.66699 16 -8 32l-176 488c-11.333 35.333 -22.5 59.833 -33.5 73.5s-20.5 20.5 -28.5 20.5h-856c-32.667 0 -62.667 -20.333 -90 -61
c-14 -22 -31.667 -59 -53 -111l-123 -324c-8 -16 -12 -35 -12 -57c0 -35.333 10.667 -66.666 32 -93.999c19.333 -30 45.333 -45 78 -45l361 -17c35.333 0 54.333 -21.833 57 -65.5s4 -83.167 4 -118.5c0 -24.667 -16.333 -41 -49 -49c-32.667 -10.667 -75 -16 -127 -16h-86
c-24.667 0 -57.5 4 -98.5 12s-75.167 12 -102.5 12h-393c-38 -2.66699 -81.667 -6.66699 -131 -12c-52 -5.33301 -117.667 -13.666 -197 -24.999c-46 0 -85.667 12.333 -119 37c-32.667 22 -49 53.333 -49 94c0 33.333 11 65 33 95s48 45 78 45h102
c36 -2.66699 69 -5.66699 99 -9c38 0 69.333 16.667 94 50c8 13.333 24.333 50 49 110l819 2183c16.667 52 46.667 94.333 90 127c44 33.333 96 50 156 50s109 -9.66699 147 -29c36 -22 73 -71.333 111 -148l733 -2023c30 -82 64.333 -154.333 103 -217
c35.333 -62.667 70.666 -94 106 -94h295c27.333 0 50.666 -15 70 -45c16 -33.333 24 -69 24 -107c0 -65.333 -23 -98 -69 -98zM1929 1282l-360.001 1118l-369 -1118v-8c0 -14 2.66699 -25 8 -33c8.66699 -10.667 22.334 -16 41.001 -16h639c27.333 0 41 19 41 57zM1741 3043
c14 -13.333 20.9971 -26.667 20.9971 -40c0 -19.333 -9.66699 -33 -29 -41c-13.333 -6 -27 -9 -41 -9c-8 0 -17.667 1.33301 -29 4l-634 230c-33.333 10.667 -58.166 29.667 -74.499 57s-24.5 57.333 -24.5 90c0 52 18 100 54 144c32.667 43.333 73.334 65 122.001 65
c46.667 0 90.334 -19 131.001 -57z" />
    <glyph glyph-name="Aacute" unicode="&#xc1;" horiz-adv-x="3236" 
d="M3097 -8c-16.667 0 -49.6689 -1.33594 -99.002 -4.00293c-52 -2.66699 -84.667 -4 -98 -4l-131 16h-504c-40.667 -2.66699 -73.334 -4 -98 -4c-169.333 -10.667 -259.666 -16 -270.999 -16c-57.333 0 -99.666 15 -126.999 45c-21.333 21.333 -32 48.333 -32 81v17
c0 46.667 15 79.334 45 98.001c27.333 19.333 56 29 86 29l221 -17c43.333 0 83 7 119 21c32.667 13.333 49 38 49 74c0 5.33301 -2.66699 16 -8 32l-176 488c-11.333 35.333 -22.5 59.833 -33.5 73.5s-20.5 20.5 -28.5 20.5h-856c-32.667 0 -62.667 -20.333 -90 -61
c-14 -22 -31.667 -59 -53 -111l-123 -324c-8 -16 -12 -35 -12 -57c0 -35.333 10.667 -66.666 32 -93.999c19.333 -30 45.333 -45 78 -45l361 -17c35.333 0 54.333 -21.833 57 -65.5s4 -83.167 4 -118.5c0 -24.667 -16.333 -41 -49 -49c-32.667 -10.667 -75 -16 -127 -16h-86
c-24.667 0 -57.5 4 -98.5 12s-75.167 12 -102.5 12h-393c-38 -2.66699 -81.667 -6.66699 -131 -12c-52 -5.33301 -117.667 -13.666 -197 -24.999c-46 0 -85.667 12.333 -119 37c-32.667 22 -49 53.333 -49 94c0 33.333 11 65 33 95s48 45 78 45h102
c36 -2.66699 69 -5.66699 99 -9c38 0 69.333 16.667 94 50c8 13.333 24.333 50 49 110l819 2183c16.667 52 46.667 94.333 90 127c44 33.333 96 50 156 50s109 -9.66699 147 -29c36 -22 73 -71.333 111 -148l733 -2023c30 -82 64.333 -154.333 103 -217
c35.333 -62.667 70.666 -94 106 -94h295c27.333 0 50.666 -15 70 -45c16 -33.333 24 -69 24 -107c0 -65.333 -23 -98 -69 -98zM1929 1282l-360.001 1118l-369 -1118v-8c0 -14 2.66699 -25 8 -33c8.66699 -10.667 22.334 -16 41.001 -16h639c27.333 0 41 19 41 57zM2142 3191
l-635 -229.999c-18.667 -5.33301 -35 -8 -49 -8c-32.667 0 -49 18 -49 54c0 13.333 7 26.666 21 39.999l503 443c41.333 38 85.333 57 132 57c48.667 0 91 -20.333 127 -61c32.667 -44 49 -93.333 49 -148c0 -35.333 -7 -65.333 -21 -90c-16 -24.667 -42 -43.667 -78 -57z
" />
    <glyph glyph-name="Acircumflex" unicode="&#xc2;" horiz-adv-x="3236" 
d="M3097 -8c-16.667 0 -49.6689 -1.33594 -99.002 -4.00293c-52 -2.66699 -84.667 -4 -98 -4l-131 16h-504c-40.667 -2.66699 -73.334 -4 -98 -4c-169.333 -10.667 -259.666 -16 -270.999 -16c-57.333 0 -99.666 15 -126.999 45c-21.333 21.333 -32 48.333 -32 81v17
c0 46.667 15 79.334 45 98.001c27.333 19.333 56 29 86 29l221 -17c43.333 0 83 7 119 21c32.667 13.333 49 38 49 74c0 5.33301 -2.66699 16 -8 32l-176 488c-11.333 35.333 -22.5 59.833 -33.5 73.5s-20.5 20.5 -28.5 20.5h-856c-32.667 0 -62.667 -20.333 -90 -61
c-14 -22 -31.667 -59 -53 -111l-123 -324c-8 -16 -12 -35 -12 -57c0 -35.333 10.667 -66.666 32 -93.999c19.333 -30 45.333 -45 78 -45l361 -17c35.333 0 54.333 -21.833 57 -65.5s4 -83.167 4 -118.5c0 -24.667 -16.333 -41 -49 -49c-32.667 -10.667 -75 -16 -127 -16h-86
c-24.667 0 -57.5 4 -98.5 12s-75.167 12 -102.5 12h-393c-38 -2.66699 -81.667 -6.66699 -131 -12c-52 -5.33301 -117.667 -13.666 -197 -24.999c-46 0 -85.667 12.333 -119 37c-32.667 22 -49 53.333 -49 94c0 33.333 11 65 33 95s48 45 78 45h102
c36 -2.66699 69 -5.66699 99 -9c38 0 69.333 16.667 94 50c8 13.333 24.333 50 49 110l819 2183c16.667 52 46.667 94.333 90 127c44 33.333 96 50 156 50s109 -9.66699 147 -29c36 -22 73 -71.333 111 -148l733 -2023c30 -82 64.333 -154.333 103 -217
c35.333 -62.667 70.666 -94 106 -94h295c27.333 0 50.666 -15 70 -45c16 -33.333 24 -69 24 -107c0 -65.333 -23 -98 -69 -98zM1929 1282l-360.001 1118l-369 -1118v-8c0 -14 2.66699 -25 8 -33c8.66699 -10.667 22.334 -16 41.001 -16h639c27.333 0 41 19 41 57zM2249 3051
c13.333 -10.667 19.998 -24.333 19.998 -41c0 -38 -21.667 -57 -65 -57c-8.66699 0 -21 2.66699 -37 8l-135 49c-295.333 112 -449.666 171 -462.999 177c-82 -27.333 -209 -75.333 -381 -144l-230 -90c-5.33301 -2.66699 -10.666 -4 -15.999 -4c-13.333 0 -27 4 -41 12
c-22 8.66699 -33 21 -33 37c0 14 12.333 31.667 37 53l623 447c22 16 37 24 45 24s23 -8 45 -24z" />
    <glyph glyph-name="Atilde" unicode="&#xc3;" horiz-adv-x="3236" 
d="M3097 -8c-16.667 0 -49.6689 -1.33594 -99.002 -4.00293c-52 -2.66699 -84.667 -4 -98 -4l-131 16h-504c-40.667 -2.66699 -73.334 -4 -98 -4c-169.333 -10.667 -259.666 -16 -270.999 -16c-57.333 0 -99.666 15 -126.999 45c-21.333 21.333 -32 48.333 -32 81v17
c0 46.667 15 79.334 45 98.001c27.333 19.333 56 29 86 29l221 -17c43.333 0 83 7 119 21c32.667 13.333 49 38 49 74c0 5.33301 -2.66699 16 -8 32l-176 488c-11.333 35.333 -22.5 59.833 -33.5 73.5s-20.5 20.5 -28.5 20.5h-856c-32.667 0 -62.667 -20.333 -90 -61
c-14 -22 -31.667 -59 -53 -111l-123 -324c-8 -16 -12 -35 -12 -57c0 -35.333 10.667 -66.666 32 -93.999c19.333 -30 45.333 -45 78 -45l361 -17c35.333 0 54.333 -21.833 57 -65.5s4 -83.167 4 -118.5c0 -24.667 -16.333 -41 -49 -49c-32.667 -10.667 -75 -16 -127 -16h-86
c-24.667 0 -57.5 4 -98.5 12s-75.167 12 -102.5 12h-393c-38 -2.66699 -81.667 -6.66699 -131 -12c-52 -5.33301 -117.667 -13.666 -197 -24.999c-46 0 -85.667 12.333 -119 37c-32.667 22 -49 53.333 -49 94c0 33.333 11 65 33 95s48 45 78 45h102
c36 -2.66699 69 -5.66699 99 -9c38 0 69.333 16.667 94 50c8 13.333 24.333 50 49 110l819 2183c16.667 52 46.667 94.333 90 127c44 33.333 96 50 156 50s109 -9.66699 147 -29c36 -22 73 -71.333 111 -148l733 -2023c30 -82 64.333 -154.333 103 -217
c35.333 -62.667 70.666 -94 106 -94h295c27.333 0 50.666 -15 70 -45c16 -33.333 24 -69 24 -107c0 -65.333 -23 -98 -69 -98zM1929 1282l-360.001 1118l-369 -1118v-8c0 -14 2.66699 -25 8 -33c8.66699 -10.667 22.334 -16 41.001 -16h639c27.333 0 41 19 41 57zM2252 3285
c0 -122.667 -53.001 -215.333 -159.001 -278c-76.667 -44 -158.667 -66 -246 -66c-52 0 -151.667 24.667 -299 74s-248.333 74 -303 74c-52 0 -95.667 -13.667 -131 -41l-90 -90c-41.333 10.667 -62 36.667 -62 78c0 103.333 38.333 189.333 115 258
c73.333 65.333 164.666 98 273.999 98c32.667 0 129.667 -26 291 -78c158.667 -54.667 277.334 -82 356.001 -82c38.667 0 74.334 12.333 107.001 37l102 90c11.333 0 21 -5.33301 29 -16c10.667 -16.667 16 -36 16 -58z" />
    <glyph glyph-name="Adieresis" unicode="&#xc4;" horiz-adv-x="3236" 
d="M3097 -8c-16.667 0 -49.6689 -1.33594 -99.002 -4.00293c-52 -2.66699 -84.667 -4 -98 -4l-131 16h-504c-40.667 -2.66699 -73.334 -4 -98 -4c-169.333 -10.667 -259.666 -16 -270.999 -16c-57.333 0 -99.666 15 -126.999 45c-21.333 21.333 -32 48.333 -32 81v17
c0 46.667 15 79.334 45 98.001c27.333 19.333 56 29 86 29l221 -17c43.333 0 83 7 119 21c32.667 13.333 49 38 49 74c0 5.33301 -2.66699 16 -8 32l-176 488c-11.333 35.333 -22.5 59.833 -33.5 73.5s-20.5 20.5 -28.5 20.5h-856c-32.667 0 -62.667 -20.333 -90 -61
c-14 -22 -31.667 -59 -53 -111l-123 -324c-8 -16 -12 -35 -12 -57c0 -35.333 10.667 -66.666 32 -93.999c19.333 -30 45.333 -45 78 -45l361 -17c35.333 0 54.333 -21.833 57 -65.5s4 -83.167 4 -118.5c0 -24.667 -16.333 -41 -49 -49c-32.667 -10.667 -75 -16 -127 -16h-86
c-24.667 0 -57.5 4 -98.5 12s-75.167 12 -102.5 12h-393c-38 -2.66699 -81.667 -6.66699 -131 -12c-52 -5.33301 -117.667 -13.666 -197 -24.999c-46 0 -85.667 12.333 -119 37c-32.667 22 -49 53.333 -49 94c0 33.333 11 65 33 95s48 45 78 45h102
c36 -2.66699 69 -5.66699 99 -9c38 0 69.333 16.667 94 50c8 13.333 24.333 50 49 110l819 2183c16.667 52 46.667 94.333 90 127c44 33.333 96 50 156 50s109 -9.66699 147 -29c36 -22 73 -71.333 111 -148l733 -2023c30 -82 64.333 -154.333 103 -217
c35.333 -62.667 70.666 -94 106 -94h295c27.333 0 50.666 -15 70 -45c16 -33.333 24 -69 24 -107c0 -65.333 -23 -98 -69 -98zM1929 1282l-360.001 1118l-369 -1118v-8c0 -14 2.66699 -25 8 -33c8.66699 -10.667 22.334 -16 41.001 -16h639c27.333 0 41 19 41 57zM2146 3195
c0 -62.667 -23.333 -117.333 -70 -163.999c-46 -46 -100.667 -69 -164 -69c-62.667 0 -117 23 -163 69c-46.667 46.667 -70 101.334 -70 164c0 62.667 23.167 117.334 69.5 164c46.333 46.667 100.833 70 163.5 70c63.333 0 118 -23.333 164 -70
c46.667 -46.667 70 -101.334 70 -164.001zM1433 3195c0 -62.667 -22.999 -117.334 -68.999 -164c-46.667 -46 -102.667 -69 -168 -69c-66 0 -122 21.667 -168 65c-46.667 44 -70 100 -70 168c0 65.333 23.167 121.333 69.5 168s102.5 70 168.5 70
c65.333 0 121.166 -23.333 167.499 -70s69.5 -102.667 69.5 -168z" />
    <glyph glyph-name="Aring" unicode="&#xc5;" horiz-adv-x="3236" 
d="M3097 -8c-16.667 0 -49.6689 -1.33594 -99.002 -4.00293c-52 -2.66699 -84.667 -4 -98 -4l-131 16h-504c-40.667 -2.66699 -73.334 -4 -98 -4c-169.333 -10.667 -259.666 -16 -270.999 -16c-57.333 0 -99.666 15 -126.999 45c-21.333 21.333 -32 48.333 -32 81v17
c0 46.667 15 79.334 45 98.001c27.333 19.333 56 29 86 29l221 -17c43.333 0 83 7 119 21c32.667 13.333 49 38 49 74c0 5.33301 -2.66699 16 -8 32l-176 488c-11.333 35.333 -22.5 59.833 -33.5 73.5s-20.5 20.5 -28.5 20.5h-856c-32.667 0 -62.667 -20.333 -90 -61
c-14 -22 -31.667 -59 -53 -111l-123 -324c-8 -16 -12 -35 -12 -57c0 -35.333 10.667 -66.666 32 -93.999c19.333 -30 45.333 -45 78 -45l361 -17c35.333 0 54.333 -21.833 57 -65.5s4 -83.167 4 -118.5c0 -24.667 -16.333 -41 -49 -49c-32.667 -10.667 -75 -16 -127 -16h-86
c-24.667 0 -57.5 4 -98.5 12s-75.167 12 -102.5 12h-393c-38 -2.66699 -81.667 -6.66699 -131 -12c-52 -5.33301 -117.667 -13.666 -197 -24.999c-46 0 -85.667 12.333 -119 37c-32.667 22 -49 53.333 -49 94c0 33.333 11 65 33 95s48 45 78 45h102
c36 -2.66699 69 -5.66699 99 -9c38 0 69.333 16.667 94 50c8 13.333 24.333 50 49 110l819 2183c16.667 52 46.667 94.333 90 127c44 33.333 96 50 156 50s109 -9.66699 147 -29c36 -22 73 -71.333 111 -148l733 -2023c30 -82 64.333 -154.333 103 -217
c35.333 -62.667 70.666 -94 106 -94h295c27.333 0 50.666 -15 70 -45c16 -33.333 24 -69 24 -107c0 -65.333 -23 -98 -69 -98zM1929 1282l-360.001 1118l-369 -1118v-8c0 -14 2.66699 -25 8 -33c8.66699 -10.667 22.334 -16 41.001 -16h639c27.333 0 41 19 41 57zM1880 3281
c0 -87.333 -31.333 -162.667 -94 -226c-62.667 -62.667 -139.334 -94 -230.001 -94c-87.333 0 -162.333 31.333 -225 94c-65.333 60 -98 135.333 -98 226c0 90 31.333 166.333 94 229s139 94 229 94c90.667 0 167.334 -31.333 230.001 -94s94 -139 94 -229zM1724 3281
c0 46 -16.333 85.333 -49 118c-32.667 33.333 -72.334 50 -119.001 50c-46 0 -85.333 -16.667 -118 -50c-32.667 -32.667 -49 -72 -49 -118c0 -46.667 16.333 -86.334 49 -119c32.667 -32.667 72 -49 118 -49c46.667 0 86.334 16.333 119.001 49s49 72.334 49 119z" />
    <glyph glyph-name="AE" unicode="&#xc6;" horiz-adv-x="4215" 
d="M4088 127c0 -52 -26.0039 -91.665 -78.0039 -118.998c-44 -22 -76.667 -33 -98 -33h-17c-21.333 6 -235.666 15.667 -643 29c-133.333 2.66699 -335.333 9.66699 -606 21c-82 0 -230.667 -7 -446 -21c-71.333 -2.66699 -171 -9.33398 -299 -20.001
c-76.667 0 -132.667 8 -168 24c-38.667 16.667 -58 56.334 -58 119.001c0 27.333 8.33301 54.666 25 81.999c13.333 27.333 32.333 41 57 41c60 0 113.333 -1.33301 160 -4c43.333 -2.66699 78.666 -7 105.999 -13c57.333 0 113.333 13.667 168 41v86l-28 488
c0 62.667 -11 94 -33 94h-856c-24.667 0 -52 -12.333 -82 -37s-67 -69.667 -111 -135l-221 -324c-32.667 -46 -49 -88.333 -49 -127c0 -46 28.667 -69 86 -69c2.66699 -5.33301 43.667 -8 123 -8c76.667 -2.66699 154.334 -5.66699 233.001 -9c27.333 0 41 -13.333 41 -40
c0 -27.333 -12.333 -75.333 -37 -144c-5.33301 -19.333 -21.666 -34.333 -48.999 -45c-27.333 -13.333 -76.333 -20 -147 -20h-82c-27.333 0 -60.166 4 -98.499 12s-71.166 12 -98.499 12h-393c-68 -10.667 -118.333 -17.334 -151 -20.001
c-88 -11.333 -145.333 -17 -172 -17h-13c-46 0 -81.333 12.333 -106 37c-19.333 16.667 -29 37.334 -29 62.001c0 10.667 1.33301 21.334 4 32.001c14 36 36 69 66 99c30 27.333 60 41 90 41h102c32.667 -2.66699 64 -5.66699 94 -9c38.667 0 74.334 15.333 107.001 46
c30 26.667 58.667 64.667 86 114l434 611l828 1134c308 410 480 615 516 615c43.333 0 76 -1.66699 98 -5c19.333 -5.33301 38.333 -17.333 57 -36c32.667 0 91.334 -3 176 -9c84.667 -5.33301 131.334 -8 140 -8c245.333 11.333 429.666 18.333 553 21
c374 13.333 574.667 20 602 20c46 0 89.5 -12.333 130.5 -37s61.5 -62.667 61.5 -114c0 -79.333 -6.83301 -176.333 -20.5 -291s-20.5 -210.334 -20.5 -287.001l17 -197c0 -68 -8.33301 -119.667 -25 -155c-24.667 -52 -67 -78 -127 -78c-40.667 0 -74.667 8.33301 -102 25
c-30 16 -45 44.667 -45 86l8 417c0 98.667 -8.33301 167 -25 205c-35.333 82 -106.333 123 -213 123l-626 16c-128.667 0 -217.667 -15 -267 -45c-51.333 -30 -77 -92.667 -77 -188v-561c0 -44 13.333 -74 40 -90c24.667 -19.333 55 -29 91 -29h262c52 0 101 13.667 147 41
c46.667 27.333 70 56 70 86l-17 242c0 57.333 13.667 109 41 155c24.667 46.667 60.334 70 107 70c46.667 0 82 -17.667 106 -53c22 -36 33 -74.333 33 -115c-10.667 -117.333 -17.334 -207.333 -20 -270c-16.667 -213.333 -25 -328 -25 -344c0 -44 7 -131.667 21 -263
c2.66699 -43.333 10.667 -108.666 24 -195.999c0 -62.667 -2.66699 -103.667 -8 -123c-19.333 -68 -67 -102 -143 -102c-27.333 0 -54.666 8 -82 24c-27.333 16.667 -41 38.667 -41 66l-21 438c0 16.667 -15 34.334 -45 53.001c-32.667 19.333 -73.667 29 -123 29h-250
c-111.333 0 -167 -52 -167 -156v-647c0 -60 10.667 -112 32 -156c19.333 -43.333 49.333 -65 90 -65l873 29c98 0 165 31.333 201 94c24 43.333 36 104.666 36 183.999v49v148l-8 270c0 30 15 56 45 78s64.333 33 103 33c46 0 82.667 -22 110 -66
c27.333 -46.667 41 -97 41 -151c0 -22 -2.66699 -56.333 -8 -103s-8 -83.334 -8 -110.001c0 -84.667 6.66699 -191.334 20 -320.001c14 -131.333 21 -217.333 21 -258zM2154 2253l-733 -971.001c-5.33301 -8 -8 -16.333 -8 -25c0 -5.33301 1.33301 -10.666 4 -15.999
c8.66699 -10.667 21 -16 37 -16h639c38 0 57 19 57 57z" />
    <glyph glyph-name="Ccedilla" unicode="&#xc7;" 
d="M2437 897c0 -289.333 -87.3311 -521.333 -261.998 -696c-188.667 -188.667 -460.334 -283 -815.001 -283c-388 0 -694 147.333 -918 442c-202 268 -303 601.333 -303 1000c0 404 102.333 741.333 307 1012c226.667 300 534 450 922 450
c158.667 0 296.667 -27.333 414 -82c117.333 -57.333 230.666 -144.666 339.999 -262l-13 234c0 38 19.333 68 58 90c18.667 10.667 37.667 16 57 16c44 0 78.333 -9.66699 103 -29c21.333 -21.333 32 -44.333 32 -69c-2.66699 -49.333 -5.33398 -113.666 -8 -193
c-5.33301 -79.333 -8 -151.666 -8 -217c0 -49.333 1.33301 -113.333 4 -192c2.66699 -79.333 4 -136.666 4 -171.999l8 -160v-53c0 -54.667 -8.16699 -95.667 -24.5 -123s-57.166 -41 -122.5 -41c-49.333 0 -83.666 13.667 -103 41
c-18.667 27.333 -33.667 69.666 -45 126.999c-5.33301 180 -24.333 313.667 -57 401c-104 270.667 -314.333 406 -631 406c-311.333 0 -539.333 -134 -684 -402c-112 -207.333 -168 -483 -168 -827c0 -316.667 60.333 -570.667 181 -762
c147.333 -237.333 375.333 -356 684 -356c180 0 334 46.333 462 139c186 134 279 344.333 279 631c0 82 50.333 123 151 123c68.667 0 114 -19.333 136 -58c13.333 -24.667 20 -69.667 20 -135zM1720 -483c0 -87.333 -40.999 -157 -122.999 -209
c-81.333 -54.667 -170 -82 -266 -82c-90 0 -174.667 17.667 -254 53c-82 35.333 -123 76.333 -123 123c0 44 27.333 66 82 66l111 -50c79.333 -32.667 134 -49 164 -49c52 0 93 7 123 21c46 21.333 69 59.333 69 114c0 30 -11 58.667 -33 86c-24 24.667 -51 37 -81 37
c-30.667 0 -66.334 -8 -107.001 -24c-43.333 -19.333 -72 -29 -86 -29c-27.333 0 -49.333 12.333 -66 37c-13.333 16 -20 31 -20 45v8l111 270h139l-70 -172l94 9c96 0 176.667 -19.333 242 -58c62.667 -40.667 94 -106 94 -196z" />
    <glyph glyph-name="Egrave" unicode="&#xc8;" 
d="M2490 135c0 -52 -25.668 -91.665 -77.001 -118.998c-44 -21.333 -77 -32 -99 -32h-16c-22 5.33301 -236.333 14.666 -643 27.999c-134 2.66699 -336 9.66699 -606 21c-82 0 -231 -7 -447 -21c-70.667 -2.66699 -170.334 -9.33398 -299.001 -20.001
c-76.667 0 -132.667 8 -168 24c-38 16.667 -57 56.334 -57 119.001c0 27.333 8 54.666 24 81.999c14 27.333 33.333 41 58 41c60 0 113 -1.33301 159 -4c44 -2.66699 79.667 -6.66699 107 -12h16c57.333 0 98.333 28.667 123 86c27.333 60 41 132.333 41 217v1638
c0 128.667 -13.667 212 -41 250c-30 35.333 -76.333 53 -139 53l-274 -8c-19.333 0 -36 15 -50 45c-16 27.333 -24 49.333 -24 66c0 68 20.333 113 61 135c38.667 19.333 96 29 172 29c98.667 0 198.334 -4.33301 299.001 -13c303.333 -24.667 472.666 -37 507.999 -37
c246 11.333 430.333 18.333 553 21c374 13.333 574.667 20 602 20c46.667 0 90.334 -12.333 131 -37c41.333 -24 62 -62 62 -114c0 -79.333 -7 -176.333 -21 -291c-13.333 -114.667 -20 -210.334 -20 -287.001l16 -196c0 -68.667 -8 -120.667 -24 -156
c-24.667 -52 -67 -78 -127 -78c-41.333 0 -75.666 8.33301 -103 25c-30 16 -45 44.667 -45 86l8 418c0 98 -8 166 -24 204c-35.333 82 -106.333 123 -213 123l-627 17c-128 0 -216.667 -15 -266 -45c-52 -30.667 -78 -93.667 -78 -189v-561c0 -44 13.667 -74 41 -90
c24.667 -19.333 54.667 -29 90 -29h262c52 0 101.167 13.667 147.5 41s69.5 56 69.5 86l-16 242c0 57.333 13.667 109 41 155c24.667 46.667 60 70 106 70c46.667 0 82.334 -17.667 107.001 -53c22 -35.333 33 -73.666 33 -114.999
c-11.333 -117.333 -18.333 -207.333 -21 -270c-16 -213.333 -24 -328 -24 -344c0 -44 6.66699 -131.333 20 -262c2.66699 -44 11 -109.667 25 -197c0 -62.667 -2.66699 -103.667 -8 -123c-19.333 -68 -67.333 -102 -144 -102c-27.333 0 -54.666 8 -81.999 24
c-27.333 16.667 -41 38.667 -41 66l-20 438c0 16.667 -15 34.334 -45 53.001c-32.667 19.333 -73.667 29 -123 29h-250c-112 0 -168 -52 -168 -156v-647c0 -60 11 -111.667 33 -155c19.333 -44 49.333 -66 90 -66l872 29c96 0 164.333 39.667 205 119
c30 57.333 45 132.333 45 225c0 38 -1.33301 69.333 -4 94c0 8 -2.66699 20.333 -8 37l-8 270c0 30 15 56 45 78s64 33 102 33c46.667 0 83.667 -22 111 -66c27.333 -46 41 -96.333 41 -151c0 -22 -2.66699 -56.333 -8 -103c-6 -46 -9 -82.667 -9 -110
c0 -84.667 7 -191.334 21 -320.001c13.333 -130.667 20 -216.667 20 -258zM1568 3055c14 -13.333 20.9971 -26.666 20.9971 -40c0 -19.333 -9.66699 -33 -29 -41c-13.333 -6 -27 -9 -41 -9c-8 0 -17.667 1.33301 -29 4l-634 230c-33.333 10.667 -58.166 29.667 -74.499 57
s-24.5 57.333 -24.5 90c0 52 18 100 54 144c32.667 43.333 73.334 65 122.001 65c46.667 0 90.334 -19 131.001 -57z" />
    <glyph glyph-name="Eacute" unicode="&#xc9;" 
d="M2490 135c0 -52 -25.668 -91.665 -77.001 -118.998c-44 -21.333 -77 -32 -99 -32h-16c-22 5.33301 -236.333 14.666 -643 27.999c-134 2.66699 -336 9.66699 -606 21c-82 0 -231 -7 -447 -21c-70.667 -2.66699 -170.334 -9.33398 -299.001 -20.001
c-76.667 0 -132.667 8 -168 24c-38 16.667 -57 56.334 -57 119.001c0 27.333 8 54.666 24 81.999c14 27.333 33.333 41 58 41c60 0 113 -1.33301 159 -4c44 -2.66699 79.667 -6.66699 107 -12h16c57.333 0 98.333 28.667 123 86c27.333 60 41 132.333 41 217v1638
c0 128.667 -13.667 212 -41 250c-30 35.333 -76.333 53 -139 53l-274 -8c-19.333 0 -36 15 -50 45c-16 27.333 -24 49.333 -24 66c0 68 20.333 113 61 135c38.667 19.333 96 29 172 29c98.667 0 198.334 -4.33301 299.001 -13c303.333 -24.667 472.666 -37 507.999 -37
c246 11.333 430.333 18.333 553 21c374 13.333 574.667 20 602 20c46.667 0 90.334 -12.333 131 -37c41.333 -24 62 -62 62 -114c0 -79.333 -7 -176.333 -21 -291c-13.333 -114.667 -20 -210.334 -20 -287.001l16 -196c0 -68.667 -8 -120.667 -24 -156
c-24.667 -52 -67 -78 -127 -78c-41.333 0 -75.666 8.33301 -103 25c-30 16 -45 44.667 -45 86l8 418c0 98 -8 166 -24 204c-35.333 82 -106.333 123 -213 123l-627 17c-128 0 -216.667 -15 -266 -45c-52 -30.667 -78 -93.667 -78 -189v-561c0 -44 13.667 -74 41 -90
c24.667 -19.333 54.667 -29 90 -29h262c52 0 101.167 13.667 147.5 41s69.5 56 69.5 86l-16 242c0 57.333 13.667 109 41 155c24.667 46.667 60 70 106 70c46.667 0 82.334 -17.667 107.001 -53c22 -35.333 33 -73.666 33 -114.999
c-11.333 -117.333 -18.333 -207.333 -21 -270c-16 -213.333 -24 -328 -24 -344c0 -44 6.66699 -131.333 20 -262c2.66699 -44 11 -109.667 25 -197c0 -62.667 -2.66699 -103.667 -8 -123c-19.333 -68 -67.333 -102 -144 -102c-27.333 0 -54.666 8 -81.999 24
c-27.333 16.667 -41 38.667 -41 66l-20 438c0 16.667 -15 34.334 -45 53.001c-32.667 19.333 -73.667 29 -123 29h-250c-112 0 -168 -52 -168 -156v-647c0 -60 11 -111.667 33 -155c19.333 -44 49.333 -66 90 -66l872 29c96 0 164.333 39.667 205 119
c30 57.333 45 132.333 45 225c0 38 -1.33301 69.333 -4 94c0 8 -2.66699 20.333 -8 37l-8 270c0 30 15 56 45 78s64 33 102 33c46.667 0 83.667 -22 111 -66c27.333 -46 41 -96.333 41 -151c0 -22 -2.66699 -56.333 -8 -103c-6 -46 -9 -82.667 -9 -110
c0 -84.667 7 -191.334 21 -320.001c13.333 -130.667 20 -216.667 20 -258zM1650 3199l-635 -230c-18.667 -5.33301 -35 -8 -49 -8c-32.667 0 -49 18 -49 54c0 13.333 7 26.666 21 40l503 443c41.333 38 85.333 57 132 57c48.667 0 91 -20.333 127 -61
c32.667 -44 49 -93.333 49 -148c0 -35.333 -7 -65.333 -21 -90c-16 -24.667 -42 -43.667 -78 -57z" />
    <glyph glyph-name="Ecircumflex" unicode="&#xca;" 
d="M2490 135c0 -52 -25.668 -91.665 -77.001 -118.998c-44 -21.333 -77 -32 -99 -32h-16c-22 5.33301 -236.333 14.666 -643 27.999c-134 2.66699 -336 9.66699 -606 21c-82 0 -231 -7 -447 -21c-70.667 -2.66699 -170.334 -9.33398 -299.001 -20.001
c-76.667 0 -132.667 8 -168 24c-38 16.667 -57 56.334 -57 119.001c0 27.333 8 54.666 24 81.999c14 27.333 33.333 41 58 41c60 0 113 -1.33301 159 -4c44 -2.66699 79.667 -6.66699 107 -12h16c57.333 0 98.333 28.667 123 86c27.333 60 41 132.333 41 217v1638
c0 128.667 -13.667 212 -41 250c-30 35.333 -76.333 53 -139 53l-274 -8c-19.333 0 -36 15 -50 45c-16 27.333 -24 49.333 -24 66c0 68 20.333 113 61 135c38.667 19.333 96 29 172 29c98.667 0 198.334 -4.33301 299.001 -13c303.333 -24.667 472.666 -37 507.999 -37
c246 11.333 430.333 18.333 553 21c374 13.333 574.667 20 602 20c46.667 0 90.334 -12.333 131 -37c41.333 -24 62 -62 62 -114c0 -79.333 -7 -176.333 -21 -291c-13.333 -114.667 -20 -210.334 -20 -287.001l16 -196c0 -68.667 -8 -120.667 -24 -156
c-24.667 -52 -67 -78 -127 -78c-41.333 0 -75.666 8.33301 -103 25c-30 16 -45 44.667 -45 86l8 418c0 98 -8 166 -24 204c-35.333 82 -106.333 123 -213 123l-627 17c-128 0 -216.667 -15 -266 -45c-52 -30.667 -78 -93.667 -78 -189v-561c0 -44 13.667 -74 41 -90
c24.667 -19.333 54.667 -29 90 -29h262c52 0 101.167 13.667 147.5 41s69.5 56 69.5 86l-16 242c0 57.333 13.667 109 41 155c24.667 46.667 60 70 106 70c46.667 0 82.334 -17.667 107.001 -53c22 -35.333 33 -73.666 33 -114.999
c-11.333 -117.333 -18.333 -207.333 -21 -270c-16 -213.333 -24 -328 -24 -344c0 -44 6.66699 -131.333 20 -262c2.66699 -44 11 -109.667 25 -197c0 -62.667 -2.66699 -103.667 -8 -123c-19.333 -68 -67.333 -102 -144 -102c-27.333 0 -54.666 8 -81.999 24
c-27.333 16.667 -41 38.667 -41 66l-20 438c0 16.667 -15 34.334 -45 53.001c-32.667 19.333 -73.667 29 -123 29h-250c-112 0 -168 -52 -168 -156v-647c0 -60 11 -111.667 33 -155c19.333 -44 49.333 -66 90 -66l872 29c96 0 164.333 39.667 205 119
c30 57.333 45 132.333 45 225c0 38 -1.33301 69.333 -4 94c0 8 -2.66699 20.333 -8 37l-8 270c0 30 15 56 45 78s64 33 102 33c46.667 0 83.667 -22 111 -66c27.333 -46 41 -96.333 41 -151c0 -22 -2.66699 -56.333 -8 -103c-6 -46 -9 -82.667 -9 -110
c0 -84.667 7 -191.334 21 -320.001c13.333 -130.667 20 -216.667 20 -258zM2016 3072c13.333 -10.667 19.998 -24.334 19.998 -41c0 -38 -21.667 -57 -65 -57c-8.66699 0 -21 2.66699 -37 8l-135 49c-295.333 112 -449.666 171 -462.999 177
c-82 -27.333 -209 -75.333 -381 -144l-230 -90c-5.33301 -2.66699 -10.666 -4 -15.999 -4c-13.333 0 -27 4 -41 12c-22 8.66699 -33 21 -33 37c0 14 12.333 31.667 37 53l623 447c22 16 37 24 45 24s23 -8 45 -24z" />
    <glyph glyph-name="Edieresis" unicode="&#xcb;" 
d="M2490 135c0 -52 -25.668 -91.665 -77.001 -118.998c-44 -21.333 -77 -32 -99 -32h-16c-22 5.33301 -236.333 14.666 -643 27.999c-134 2.66699 -336 9.66699 -606 21c-82 0 -231 -7 -447 -21c-70.667 -2.66699 -170.334 -9.33398 -299.001 -20.001
c-76.667 0 -132.667 8 -168 24c-38 16.667 -57 56.334 -57 119.001c0 27.333 8 54.666 24 81.999c14 27.333 33.333 41 58 41c60 0 113 -1.33301 159 -4c44 -2.66699 79.667 -6.66699 107 -12h16c57.333 0 98.333 28.667 123 86c27.333 60 41 132.333 41 217v1638
c0 128.667 -13.667 212 -41 250c-30 35.333 -76.333 53 -139 53l-274 -8c-19.333 0 -36 15 -50 45c-16 27.333 -24 49.333 -24 66c0 68 20.333 113 61 135c38.667 19.333 96 29 172 29c98.667 0 198.334 -4.33301 299.001 -13c303.333 -24.667 472.666 -37 507.999 -37
c246 11.333 430.333 18.333 553 21c374 13.333 574.667 20 602 20c46.667 0 90.334 -12.333 131 -37c41.333 -24 62 -62 62 -114c0 -79.333 -7 -176.333 -21 -291c-13.333 -114.667 -20 -210.334 -20 -287.001l16 -196c0 -68.667 -8 -120.667 -24 -156
c-24.667 -52 -67 -78 -127 -78c-41.333 0 -75.666 8.33301 -103 25c-30 16 -45 44.667 -45 86l8 418c0 98 -8 166 -24 204c-35.333 82 -106.333 123 -213 123l-627 17c-128 0 -216.667 -15 -266 -45c-52 -30.667 -78 -93.667 -78 -189v-561c0 -44 13.667 -74 41 -90
c24.667 -19.333 54.667 -29 90 -29h262c52 0 101.167 13.667 147.5 41s69.5 56 69.5 86l-16 242c0 57.333 13.667 109 41 155c24.667 46.667 60 70 106 70c46.667 0 82.334 -17.667 107.001 -53c22 -35.333 33 -73.666 33 -114.999
c-11.333 -117.333 -18.333 -207.333 -21 -270c-16 -213.333 -24 -328 -24 -344c0 -44 6.66699 -131.333 20 -262c2.66699 -44 11 -109.667 25 -197c0 -62.667 -2.66699 -103.667 -8 -123c-19.333 -68 -67.333 -102 -144 -102c-27.333 0 -54.666 8 -81.999 24
c-27.333 16.667 -41 38.667 -41 66l-20 438c0 16.667 -15 34.334 -45 53.001c-32.667 19.333 -73.667 29 -123 29h-250c-112 0 -168 -52 -168 -156v-647c0 -60 11 -111.667 33 -155c19.333 -44 49.333 -66 90 -66l872 29c96 0 164.333 39.667 205 119
c30 57.333 45 132.333 45 225c0 38 -1.33301 69.333 -4 94c0 8 -2.66699 20.333 -8 37l-8 270c0 30 15 56 45 78s64 33 102 33c46.667 0 83.667 -22 111 -66c27.333 -46 41 -96.333 41 -151c0 -22 -2.66699 -56.333 -8 -103c-6 -46 -9 -82.667 -9 -110
c0 -84.667 7 -191.334 21 -320.001c13.333 -130.667 20 -216.667 20 -258zM1987 3203c0 -62.667 -23.333 -117.334 -70 -164c-46 -46 -100.667 -69 -164 -69c-62.667 0 -117 23 -163 69c-46.667 46.667 -70 101.334 -70 164c0 62.667 23.167 117.334 69.5 164
c46.333 46.667 100.833 70 163.5 70c63.333 0 118 -23.333 164 -70c46.667 -46.667 70 -101.334 70 -164zM1274 3203c0 -62.667 -22.999 -117.334 -68.999 -164c-46.667 -46 -102.667 -69 -168 -69c-66 0 -122 21.667 -168 65c-46.667 44 -70 100 -70 168
c0 65.333 23.167 121.333 69.5 168s102.5 70 168.5 70c65.333 0 121.166 -23.333 167.499 -70s69.5 -102.667 69.5 -168z" />
    <glyph glyph-name="Igrave" unicode="&#xcc;" horiz-adv-x="1593" 
d="M1479 2593c-6 -35.333 -15.666 -62.6641 -28.999 -81.998c-13.333 -22 -32.333 -33 -57 -33l-267 8c-60 0 -103.667 -17.667 -131 -53c-35.333 -46.667 -53 -130 -53 -250v-1646c0 -93.333 8.33301 -160.333 25 -201c27.333 -68.667 80.333 -103 159 -103l267 9
c27.333 0 47.666 -12.333 60.999 -37c10.667 -27.333 16 -60.333 16 -99c0 -38 -5.33301 -68 -16 -90c-13.333 -21.333 -39.333 -32 -78 -32c-73.333 0 -181 4 -323 12s-250 12 -324 12l-426 -24c-79.333 0 -129.666 4 -150.999 12c-49.333 19.333 -74 61.666 -74 126.999
c0 27.333 6.66699 54.666 20 81.999c11.333 24.667 29.333 37 54 37h319c60 0 98.333 49 115 147c0 2.66699 6.66699 52 20 148v1646c-22 131.333 -34.333 199.666 -37 205c-21.333 65.333 -69 98 -143 98h-37c-22 2.66699 -53.333 2.66699 -94 0
c-79.333 -5.33301 -127 -8 -143 -8c-27.333 0 -46.666 13.667 -57.999 41c-13.333 24.667 -20 49.334 -20 74c0 43.333 16.333 78.666 49 106c32.667 27.333 75 45.333 127 54c92.667 -11.333 163.667 -19.666 213 -25c147.333 -16.667 236 -25 266 -25
c44 0 142.333 7 295 21c49.333 2.66699 121.666 9.33398 216.999 20c79.333 0 140.666 -10.667 183.999 -32c36 -22 54 -53.667 54 -95v-24zM921.001 3067c14 -13.333 20.9971 -26.666 20.9971 -40c0 -19.333 -9.66699 -33 -29 -41c-13.333 -6 -27 -9 -41 -9
c-8 0 -17.667 1.33301 -29 4l-634 230c-33.333 10.667 -58.166 29.667 -74.499 57s-24.5 57.333 -24.5 90c0 52 18 100 54 144c32.667 43.333 73.334 65 122.001 65c46.667 0 90.334 -19 131.001 -57z" />
    <glyph glyph-name="Iacute" unicode="&#xcd;" horiz-adv-x="1593" 
d="M1479 2593c-6 -35.333 -15.666 -62.6641 -28.999 -81.998c-13.333 -22 -32.333 -33 -57 -33l-267 8c-60 0 -103.667 -17.667 -131 -53c-35.333 -46.667 -53 -130 -53 -250v-1646c0 -93.333 8.33301 -160.333 25 -201c27.333 -68.667 80.333 -103 159 -103l267 9
c27.333 0 47.666 -12.333 60.999 -37c10.667 -27.333 16 -60.333 16 -99c0 -38 -5.33301 -68 -16 -90c-13.333 -21.333 -39.333 -32 -78 -32c-73.333 0 -181 4 -323 12s-250 12 -324 12l-426 -24c-79.333 0 -129.666 4 -150.999 12c-49.333 19.333 -74 61.666 -74 126.999
c0 27.333 6.66699 54.666 20 81.999c11.333 24.667 29.333 37 54 37h319c60 0 98.333 49 115 147c0 2.66699 6.66699 52 20 148v1646c-22 131.333 -34.333 199.666 -37 205c-21.333 65.333 -69 98 -143 98h-37c-22 2.66699 -53.333 2.66699 -94 0
c-79.333 -5.33301 -127 -8 -143 -8c-27.333 0 -46.666 13.667 -57.999 41c-13.333 24.667 -20 49.334 -20 74c0 43.333 16.333 78.666 49 106c32.667 27.333 75 45.333 127 54c92.667 -11.333 163.667 -19.666 213 -25c147.333 -16.667 236 -25 266 -25
c44 0 142.333 7 295 21c49.333 2.66699 121.666 9.33398 216.999 20c79.333 0 140.666 -10.667 183.999 -32c36 -22 54 -53.667 54 -95v-24zM1212 3183l-635 -230c-18.667 -5.33301 -35 -8 -49 -8c-32.667 0 -49 18 -49 54c0 13.333 7 26.666 21 40l503 443
c41.333 38 85.333 57 132 57c48.667 0 91 -20.333 127 -61c32.667 -44 49 -93.333 49 -148c0 -35.333 -7 -65.333 -21 -90c-16 -24.667 -42 -43.667 -78 -57z" />
    <glyph glyph-name="Icircumflex" unicode="&#xce;" horiz-adv-x="1593" 
d="M1479 2593c-6 -35.333 -15.666 -62.6641 -28.999 -81.998c-13.333 -22 -32.333 -33 -57 -33l-267 8c-60 0 -103.667 -17.667 -131 -53c-35.333 -46.667 -53 -130 -53 -250v-1646c0 -93.333 8.33301 -160.333 25 -201c27.333 -68.667 80.333 -103 159 -103l267 9
c27.333 0 47.666 -12.333 60.999 -37c10.667 -27.333 16 -60.333 16 -99c0 -38 -5.33301 -68 -16 -90c-13.333 -21.333 -39.333 -32 -78 -32c-73.333 0 -181 4 -323 12s-250 12 -324 12l-426 -24c-79.333 0 -129.666 4 -150.999 12c-49.333 19.333 -74 61.666 -74 126.999
c0 27.333 6.66699 54.666 20 81.999c11.333 24.667 29.333 37 54 37h319c60 0 98.333 49 115 147c0 2.66699 6.66699 52 20 148v1646c-22 131.333 -34.333 199.666 -37 205c-21.333 65.333 -69 98 -143 98h-37c-22 2.66699 -53.333 2.66699 -94 0
c-79.333 -5.33301 -127 -8 -143 -8c-27.333 0 -46.666 13.667 -57.999 41c-13.333 24.667 -20 49.334 -20 74c0 43.333 16.333 78.666 49 106c32.667 27.333 75 45.333 127 54c92.667 -11.333 163.667 -19.666 213 -25c147.333 -16.667 236 -25 266 -25
c44 0 142.333 7 295 21c49.333 2.66699 121.666 9.33398 216.999 20c79.333 0 140.666 -10.667 183.999 -32c36 -22 54 -53.667 54 -95v-24zM1426 3084c13.333 -10.667 19.998 -24.334 19.998 -41c0 -38 -21.667 -57 -65 -57c-8.66699 0 -21 2.66699 -37 8l-135 49
c-295.333 112 -449.666 171 -462.999 177c-82 -27.333 -209 -75.333 -381 -144l-230 -90c-5.33301 -2.66699 -10.666 -4 -15.999 -4c-13.333 0 -27 4 -41 12c-22 8.66699 -33 21 -33 37c0 14 12.333 31.667 37 53l623 447c22 16 37 24 45 24s23 -8 45 -24z" />
    <glyph glyph-name="Idieresis" unicode="&#xcf;" horiz-adv-x="1593" 
d="M1479 2593c-6 -35.333 -15.666 -62.6641 -28.999 -81.998c-13.333 -22 -32.333 -33 -57 -33l-267 8c-60 0 -103.667 -17.667 -131 -53c-35.333 -46.667 -53 -130 -53 -250v-1646c0 -93.333 8.33301 -160.333 25 -201c27.333 -68.667 80.333 -103 159 -103l267 9
c27.333 0 47.666 -12.333 60.999 -37c10.667 -27.333 16 -60.333 16 -99c0 -38 -5.33301 -68 -16 -90c-13.333 -21.333 -39.333 -32 -78 -32c-73.333 0 -181 4 -323 12s-250 12 -324 12l-426 -24c-79.333 0 -129.666 4 -150.999 12c-49.333 19.333 -74 61.666 -74 126.999
c0 27.333 6.66699 54.666 20 81.999c11.333 24.667 29.333 37 54 37h319c60 0 98.333 49 115 147c0 2.66699 6.66699 52 20 148v1646c-22 131.333 -34.333 199.666 -37 205c-21.333 65.333 -69 98 -143 98h-37c-22 2.66699 -53.333 2.66699 -94 0
c-79.333 -5.33301 -127 -8 -143 -8c-27.333 0 -46.666 13.667 -57.999 41c-13.333 24.667 -20 49.334 -20 74c0 43.333 16.333 78.666 49 106c32.667 27.333 75 45.333 127 54c92.667 -11.333 163.667 -19.666 213 -25c147.333 -16.667 236 -25 266 -25
c44 0 142.333 7 295 21c49.333 2.66699 121.666 9.33398 216.999 20c79.333 0 140.666 -10.667 183.999 -32c36 -22 54 -53.667 54 -95v-24zM1356 3211c0 -62.667 -23.333 -117.334 -70 -164c-46 -46 -100.667 -69 -164 -69c-62.667 0 -117 23 -163 69
c-46.667 46.667 -70 101.334 -70 164c0 62.667 23.167 117.334 69.5 164c46.333 46.667 100.833 70 163.5 70c63.333 0 118 -23.333 164 -70c46.667 -46.667 70 -101.334 70 -164zM643.001 3211c0 -62.667 -22.999 -117.334 -68.999 -164c-46.667 -46 -102.667 -69 -168 -69
c-66 0 -122 21.667 -168 65c-46.667 44 -70 100 -70 168c0 65.333 23.167 121.333 69.5 168s102.5 70 168.5 70c65.333 0 121.166 -23.333 167.499 -70s69.5 -102.667 69.5 -168z" />
    <glyph glyph-name="Eth" unicode="&#xd0;" horiz-adv-x="2961" 
d="M2822 1364c0 -388 -80.6719 -690.998 -242.005 -908.998c-133.333 -180.667 -327 -309 -581 -385c-191.333 -57.333 -420.666 -86 -687.999 -86c-46.667 0 -94.667 2.66699 -144 8c-48.667 5.33301 -93.667 10.666 -135 15.999h-348c-120 -2.66699 -247 -10.667 -381 -24
c-87.333 0 -147.333 12 -180 36c-32.667 22 -49 59 -49 111c0 27.333 5.33301 54.666 16 81.999c10.667 24.667 31.334 37 62.001 37c70.667 0 127.834 -1.33301 171.501 -4s77.834 -7 102.501 -13c60 0 103.667 30.167 131 90.5s41 131.5 41 213.5v753h-340
c-82 0 -123 48 -123 144c0 40.667 11 76 33 106c19.333 27.333 49.333 41 90 41h340v602c0 92.667 -8.33301 159.667 -25 201c-24 62.667 -73 94 -147 94h-274c-24.667 0 -44 12.333 -58 37c-13.333 24.667 -20 50.667 -20 78c0 43.333 9.33301 80 28 110
c19.333 27.333 55 41 107 41c70.667 0 151.334 -4 242.001 -12c212.667 -19.333 345 -29 397 -29c65.333 0 180 5.66699 344 17c161.333 10.667 265 16 311 16c428.667 0 759 -129.667 991 -389c218.667 -246 328 -573.667 328 -983zM2466 1380c0 336 -72.333 590 -217 762
c-178 210.667 -469 316 -873 316c-199.333 0 -325 -19.333 -377 -58c-32.667 -24.667 -49 -83.334 -49 -176v-643h328c82 0 123 -47.667 123 -143c0 -41.333 -9.66699 -75.666 -29 -102.999c-22 -30 -53.333 -45 -94 -45h-328v-794c0 -57.333 7 -105.333 21 -144
c10.667 -40.667 40.667 -63.667 90 -69c49.333 -8.66699 93 -14.334 131 -17.001c134 -16 224 -24 270 -24c336 0 590 102.333 762 307c161.333 194 242 471 242 831z" />
    <glyph glyph-name="Ntilde" unicode="&#xd1;" horiz-adv-x="3072" 
d="M2974 2601c0 -54.667 -9.66699 -91.668 -29 -111.001c-22 -21.333 -52 -32 -90 -32c-35.333 0 -71 1.33301 -107 4c-38 0 -73.333 1.33301 -106 4c-30 0 -57.333 -26 -82 -78c-27.333 -54.667 -41 -125.667 -41 -213v-1864c0 -122.667 -26 -218.167 -78 -286.5
s-117.333 -102.5 -196 -102.5c-66 0 -130.333 24.667 -193 74s-114.667 120.333 -156 213l-983 2232v-2011c0 -62.667 13.667 -111.667 41 -147c27.333 -38.667 72.666 -58 135.999 -58h12c16 0 51.333 2.66699 106 8c71.333 6 112.333 9 123 9
c41.333 0 71.333 -13.667 90 -41c19.333 -27.333 29 -54.666 29 -81.999c0 -96 -49 -144 -147 -144c-71.333 0 -149.333 4.33301 -234 13c-199.333 18.667 -334.333 28 -405 28c-24.667 0 -91.667 -8 -201 -24l-160 -25c-70.667 0 -125.334 11 -164.001 33
c-40.667 22 -61 61.667 -61 119c0 22 6.66699 48 20 78c14 30 34.667 45 62 45c46 0 102 -4.33301 168 -13c62.667 -8 95.334 -12 98.001 -12h16c44 0 81 20.667 111 62c30 46 45 129 45 249v1647c0 92.667 -15 166.334 -45 221c-30 54.667 -72.333 82 -127 82
c-27.333 -2.66699 -68.333 -5.33398 -123 -8c-57.333 -2.66699 -107.666 -4 -150.999 -4c-24.667 0 -44 11 -58 33c-13.333 21.333 -20 52.666 -20 94c0 35.333 17.667 70.666 53 106c35.333 36 76.333 54 123 54c32.667 -8.66699 76.334 -15.667 131.001 -21
c52 -5.33301 134 -8 246 -8c82 0 151.667 2.66699 209 8s103.666 10.666 138.999 16c57.333 0 103.666 -19 138.999 -57c19.333 -22 48 -68.333 86 -139l1016 -2290v1745v53c0 101.333 -9.66699 186 -29 254c-30 109.333 -81.667 164 -155 164l-222 -8
c-38 0 -69.333 10.833 -94 32.5s-37 49.167 -37 82.5c0 57.333 22 96.666 66 118c43.333 22 99.333 33 168 33c40.667 -8 92.334 -14.667 155.001 -20c60.667 -8.66699 142.667 -13 246 -13c41.333 0 119.333 5.66699 234 17c114.667 8 199.334 12 254 12
c60 0 96.667 -2.66699 110 -8c41.333 -16.667 62 -57.667 62 -123zM2101 3342c0 -122.667 -53.001 -215.333 -159.001 -278c-76.667 -44 -158.667 -66 -246 -66c-52 0 -151.667 24.667 -299 74s-248.333 74 -303 74c-52 0 -95.667 -13.667 -131 -41l-90 -90
c-41.333 10.667 -62 36.667 -62 78c0 103.333 38.333 189.333 115 258c73.333 65.333 164.666 98 273.999 98c32.667 0 129.667 -26 291 -78c158.667 -54.667 277.334 -82 356.001 -82c38.667 0 74.334 12.333 107.001 37l102 90c11.333 0 21 -5.33301 29 -16
c10.667 -16.667 16 -36 16 -58z" />
    <glyph glyph-name="Ograve" unicode="&#xd2;" 
d="M2519 1368c0 -404 -87.333 -733.001 -262 -987.001c-210 -308.667 -524 -463 -942 -463c-374 0 -667.667 143.333 -881 430c-196.667 264.667 -295 604.667 -295 1020c0 406.667 98.333 742.667 295 1008c221.333 297.333 527.333 446 918 446
c376.667 0 668.667 -140.667 876 -422c194 -262 291 -606 291 -1032zM2150 1384c0 320 -56 582.333 -168 787c-138.667 254 -351.667 381 -639 381c-283.333 0 -499 -128.333 -647 -385c-125.333 -221.333 -188 -502.666 -188 -843.999c0 -300.667 64 -553.334 192 -758.001
c148 -234.667 353 -352 615 -352c284 0 499.667 124.333 647 373c125.333 210 188 476 188 798zM1544 3096c14 -13.333 20.9971 -26.667 20.9971 -40c0 -19.333 -9.66699 -33 -29 -41c-13.333 -6 -27 -9 -41 -9c-8 0 -17.667 1.33301 -29 4l-634 230
c-33.333 10.667 -58.166 29.667 -74.499 57s-24.5 57.333 -24.5 90c0 52 18 100 54 144c32.667 43.333 73.334 65 122.001 65c46.667 0 90.334 -19 131.001 -57z" />
    <glyph glyph-name="Oacute" unicode="&#xd3;" 
d="M2519 1368c0 -404 -87.333 -733.001 -262 -987.001c-210 -308.667 -524 -463 -942 -463c-374 0 -667.667 143.333 -881 430c-196.667 264.667 -295 604.667 -295 1020c0 406.667 98.333 742.667 295 1008c221.333 297.333 527.333 446 918 446
c376.667 0 668.667 -140.667 876 -422c194 -262 291 -606 291 -1032zM2150 1384c0 320 -56 582.333 -168 787c-138.667 254 -351.667 381 -639 381c-283.333 0 -499 -128.333 -647 -385c-125.333 -221.333 -188 -502.666 -188 -843.999c0 -300.667 64 -553.334 192 -758.001
c148 -234.667 353 -352 615 -352c284 0 499.667 124.333 647 373c125.333 210 188 476 188 798zM1736 3224l-635 -229.999c-18.667 -5.33301 -35 -8 -49 -8c-32.667 0 -49 18 -49 54c0 13.333 7 26.666 21 39.999l503 443c41.333 38 85.333 57 132 57
c48.667 0 91 -20.333 127 -61c32.667 -44 49 -93.333 49 -148c0 -35.333 -7 -65.333 -21 -90c-16 -24.667 -42 -43.667 -78 -57z" />
    <glyph glyph-name="Ocircumflex" unicode="&#xd4;" 
d="M2519 1368c0 -404 -87.333 -733.001 -262 -987.001c-210 -308.667 -524 -463 -942 -463c-374 0 -667.667 143.333 -881 430c-196.667 264.667 -295 604.667 -295 1020c0 406.667 98.333 742.667 295 1008c221.333 297.333 527.333 446 918 446
c376.667 0 668.667 -140.667 876 -422c194 -262 291 -606 291 -1032zM2150 1384c0 320 -56 582.333 -168 787c-138.667 254 -351.667 381 -639 381c-283.333 0 -499 -128.333 -647 -385c-125.333 -221.333 -188 -502.666 -188 -843.999c0 -300.667 64 -553.334 192 -758.001
c148 -234.667 353 -352 615 -352c284 0 499.667 124.333 647 373c125.333 210 188 476 188 798zM1991 3063c13.333 -10.667 19.998 -24.333 19.998 -41c0 -38 -21.667 -57 -65 -57c-8.66699 0 -21 2.66699 -37 8l-135 49c-295.333 112 -449.666 171 -462.999 177
c-82 -27.333 -209 -75.333 -381 -144l-230 -90c-5.33301 -2.66699 -10.666 -4 -15.999 -4c-13.333 0 -27 4 -41 12c-22 8.66699 -33 21 -33 37c0 14 12.333 31.667 37 53l623 447c22 16 37 24 45 24s23 -8 45 -24z" />
    <glyph glyph-name="Otilde" unicode="&#xd5;" 
d="M2519 1368c0 -404 -87.333 -733.001 -262 -987.001c-210 -308.667 -524 -463 -942 -463c-374 0 -667.667 143.333 -881 430c-196.667 264.667 -295 604.667 -295 1020c0 406.667 98.333 742.667 295 1008c221.333 297.333 527.333 446 918 446
c376.667 0 668.667 -140.667 876 -422c194 -262 291 -606 291 -1032zM2150 1384c0 320 -56 582.333 -168 787c-138.667 254 -351.667 381 -639 381c-283.333 0 -499 -128.333 -647 -385c-125.333 -221.333 -188 -502.666 -188 -843.999c0 -300.667 64 -553.334 192 -758.001
c148 -234.667 353 -352 615 -352c284 0 499.667 124.333 647 373c125.333 210 188 476 188 798zM1982 3338c0 -122.667 -53.001 -215.333 -159.001 -278c-76.667 -44 -158.667 -66 -246 -66c-52 0 -151.667 24.667 -299 74s-248.333 74 -303 74
c-52 0 -95.667 -13.667 -131 -41l-90 -90c-41.333 10.667 -62 36.667 -62 78c0 103.333 38.333 189.333 115 258c73.333 65.333 164.666 98 273.999 98c32.667 0 129.667 -26 291 -78c158.667 -54.667 277.334 -82 356.001 -82c38.667 0 74.334 12.333 107.001 37l102 90
c11.333 0 21 -5.33301 29 -16c10.667 -16.667 16 -36 16 -58z" />
    <glyph glyph-name="Odieresis" unicode="&#xd6;" 
d="M2519 1368c0 -404 -87.333 -733.001 -262 -987.001c-210 -308.667 -524 -463 -942 -463c-374 0 -667.667 143.333 -881 430c-196.667 264.667 -295 604.667 -295 1020c0 406.667 98.333 742.667 295 1008c221.333 297.333 527.333 446 918 446
c376.667 0 668.667 -140.667 876 -422c194 -262 291 -606 291 -1032zM2150 1384c0 320 -56 582.333 -168 787c-138.667 254 -351.667 381 -639 381c-283.333 0 -499 -128.333 -647 -385c-125.333 -221.333 -188 -502.666 -188 -843.999c0 -300.667 64 -553.334 192 -758.001
c148 -234.667 353 -352 615 -352c284 0 499.667 124.333 647 373c125.333 210 188 476 188 798zM1929 3207c0 -62.667 -23.333 -117.333 -70 -163.999c-46 -46 -100.667 -69 -164 -69c-62.667 0 -117 23 -163 69c-46.667 46.667 -70 101.334 -70 164
c0 62.667 23.167 117.334 69.5 164c46.333 46.667 100.833 70 163.5 70c63.333 0 118 -23.333 164 -70c46.667 -46.667 70 -101.334 70 -164.001zM1216 3207c0 -62.667 -22.999 -117.334 -68.999 -164c-46.667 -46 -102.667 -69 -168 -69c-66 0 -122 21.667 -168 65
c-46.667 44 -70 100 -70 168c0 65.333 23.167 121.333 69.5 168s102.5 70 168.5 70c65.333 0 121.166 -23.333 167.499 -70s69.5 -102.667 69.5 -168z" />
    <glyph glyph-name="multiply" unicode="&#xd7;" horiz-adv-x="2048" 
d="M1860 770l-250 -250l-598 598l-598 -598l-250 250l598 598l-598 594l250 250l598 -594l598 594l250 -246l-598 -598z" />
    <glyph glyph-name="Oslash" unicode="&#xd8;" 
d="M2519 1368c0 -404 -87.333 -733.001 -262 -987.001c-210 -308.667 -524 -463 -942 -463c-131.333 0 -250.333 17.667 -357 53c-108.667 36 -208.334 86.667 -299.001 152l-118 -193c-2.66699 -8 -5.66699 -13.333 -9 -16c-18.667 -19.333 -41.667 -29 -69 -29h-17
l-163 29c-24.667 2.66699 -37 12.334 -37 29.001c10.667 27.333 17.334 47.666 20.001 60.999l193 315c-213.333 276 -320 625.667 -320 1049c0 406.667 98.333 742.667 295 1008c221.333 297.333 527.333 446 918 446c207.333 0 390.333 -45 549 -135l114 184
c22 41.333 50.667 62 86 62c19.333 0 33 -1.33301 41 -4l115 -21c38 -8 57 -21.667 57 -41c-13.333 -24.667 -25.666 -49.334 -37 -74l-163 -266c130.667 -128 231.667 -293 303 -495c68 -202 102 -423.333 102 -664zM1749 2437c-52 32.667 -112.001 59.999 -180.001 81.999
c-71.333 22 -146.666 33 -225.999 33c-283.333 0 -499 -128.333 -647 -385c-125.333 -221.333 -188 -502.666 -188 -843.999c0 -131.333 12.333 -251.333 37 -360c22 -112 58.667 -218.667 110 -320zM2150 1384c0 164 -16.334 321.001 -49.001 471.001
c-32.667 148 -85.667 276.667 -159 386l-1111 -1835c63.333 -60.667 136 -107.334 218 -140.001c78.667 -35.333 167.334 -53 266.001 -53c284 0 499.667 124.333 647 373c125.333 210 188 476 188 798z" />
    <glyph glyph-name="Ugrave" unicode="&#xd9;" horiz-adv-x="2961" 
d="M2867 2626c0 -46.667 -4.00195 -78.332 -12.002 -94.998c-16.667 -35.333 -49.334 -53 -98 -53c-16.667 -2.66699 -30.334 -4 -41 -4c-49.333 0 -85 1.33301 -107 4c-5.33301 0 -13.333 2.66699 -24 8c-38.667 0 -70.334 -26 -95 -78c-27.333 -54 -41 -112.667 -41 -176
c-8 -21.333 -12 -159 -12 -413c0 -235.333 1.33301 -421 4 -557c0 -139.333 2.66699 -277.333 8 -414c0 -284 -75 -504 -225 -660c-169.333 -174.667 -428.666 -262 -777.999 -262c-368.667 0 -629.334 89 -782.001 267c-123.333 144.667 -185 363 -185 655v1384
c0 82 -5.33301 140.667 -16 176c-19.333 57.333 -53.666 86 -102.999 86l-184 -8c-32.667 0 -62.667 15 -90 45c-30 27.333 -45 57.333 -45 90c0 41.333 17.667 75.666 53 102.999c32.667 24.667 65.667 37 99 37l458 -33c76.667 0 182 5.33301 316 16
c133.333 8.66699 212.333 13 237 13c52 0 95.667 -11 131 -33c32.667 -22 49 -59 49 -111c0 -32.667 -12 -62.667 -36 -90c-27.333 -30 -57.666 -45 -90.999 -45l-307 8c-27.333 0 -54.666 -31.333 -81.999 -94c-30 -62.667 -45 -116 -45 -160v-1503
c19.333 -174.667 85 -304.334 197 -389.001c109.333 -87.333 259.333 -131 450 -131c180.667 0 332.334 47.667 455.001 143c120 93.333 180 219 180 377v1503c0 96 -13.667 163 -41 201c-30 35.333 -60 53 -90 53c-2.66699 2.66699 -16.334 4 -41.001 4
s-60 -1.33301 -106 -4c-92.667 -5.33301 -147.334 -8 -164.001 -8c-22 0 -41 12.333 -57 37c-16.667 22 -25 52 -25 90c0 52 11 90.333 33 115c18.667 22 67.667 33 147 33h45l451 -21c49.333 0 134 4 254 12c120 8.66699 181.333 13 184 13c68.667 0 115 -11 139 -33
c22 -24.667 33 -57.334 33 -98zM1564 3043c14 -13.333 20.9971 -26.666 20.9971 -40c0 -19.333 -9.66699 -33 -29 -41c-13.333 -6 -27 -9 -41 -9c-8 0 -17.667 1.33301 -29 4l-634 230c-33.333 10.667 -58.166 29.667 -74.499 57s-24.5 57.333 -24.5 90c0 52 18 100 54 144
c32.667 43.333 73.334 65 122.001 65c46.667 0 90.334 -19 131.001 -57z" />
    <glyph glyph-name="Uacute" unicode="&#xda;" horiz-adv-x="2961" 
d="M2867 2626c0 -46.667 -4.00195 -78.332 -12.002 -94.998c-16.667 -35.333 -49.334 -53 -98 -53c-16.667 -2.66699 -30.334 -4 -41 -4c-49.333 0 -85 1.33301 -107 4c-5.33301 0 -13.333 2.66699 -24 8c-38.667 0 -70.334 -26 -95 -78c-27.333 -54 -41 -112.667 -41 -176
c-8 -21.333 -12 -159 -12 -413c0 -235.333 1.33301 -421 4 -557c0 -139.333 2.66699 -277.333 8 -414c0 -284 -75 -504 -225 -660c-169.333 -174.667 -428.666 -262 -777.999 -262c-368.667 0 -629.334 89 -782.001 267c-123.333 144.667 -185 363 -185 655v1384
c0 82 -5.33301 140.667 -16 176c-19.333 57.333 -53.666 86 -102.999 86l-184 -8c-32.667 0 -62.667 15 -90 45c-30 27.333 -45 57.333 -45 90c0 41.333 17.667 75.666 53 102.999c32.667 24.667 65.667 37 99 37l458 -33c76.667 0 182 5.33301 316 16
c133.333 8.66699 212.333 13 237 13c52 0 95.667 -11 131 -33c32.667 -22 49 -59 49 -111c0 -32.667 -12 -62.667 -36 -90c-27.333 -30 -57.666 -45 -90.999 -45l-307 8c-27.333 0 -54.666 -31.333 -81.999 -94c-30 -62.667 -45 -116 -45 -160v-1503
c19.333 -174.667 85 -304.334 197 -389.001c109.333 -87.333 259.333 -131 450 -131c180.667 0 332.334 47.667 455.001 143c120 93.333 180 219 180 377v1503c0 96 -13.667 163 -41 201c-30 35.333 -60 53 -90 53c-2.66699 2.66699 -16.334 4 -41.001 4
s-60 -1.33301 -106 -4c-92.667 -5.33301 -147.334 -8 -164.001 -8c-22 0 -41 12.333 -57 37c-16.667 22 -25 52 -25 90c0 52 11 90.333 33 115c18.667 22 67.667 33 147 33h45l451 -21c49.333 0 134 4 254 12c120 8.66699 181.333 13 184 13c68.667 0 115 -11 139 -33
c22 -24.667 33 -57.334 33 -98zM2044 3162l-635 -230c-18.667 -5.33301 -35 -8 -49 -8c-32.667 0 -49 18 -49 54c0 13.333 7 26.666 21 40l503 443c41.333 38 85.333 57 132 57c48.667 0 91 -20.333 127 -61c32.667 -44 49 -93.333 49 -148c0 -35.333 -7 -65.333 -21 -90
c-16 -24.667 -42 -43.667 -78 -57z" />
    <glyph glyph-name="Ucircumflex" unicode="&#xdb;" horiz-adv-x="2961" 
d="M2867 2626c0 -46.667 -4.00195 -78.332 -12.002 -94.998c-16.667 -35.333 -49.334 -53 -98 -53c-16.667 -2.66699 -30.334 -4 -41 -4c-49.333 0 -85 1.33301 -107 4c-5.33301 0 -13.333 2.66699 -24 8c-38.667 0 -70.334 -26 -95 -78c-27.333 -54 -41 -112.667 -41 -176
c-8 -21.333 -12 -159 -12 -413c0 -235.333 1.33301 -421 4 -557c0 -139.333 2.66699 -277.333 8 -414c0 -284 -75 -504 -225 -660c-169.333 -174.667 -428.666 -262 -777.999 -262c-368.667 0 -629.334 89 -782.001 267c-123.333 144.667 -185 363 -185 655v1384
c0 82 -5.33301 140.667 -16 176c-19.333 57.333 -53.666 86 -102.999 86l-184 -8c-32.667 0 -62.667 15 -90 45c-30 27.333 -45 57.333 -45 90c0 41.333 17.667 75.666 53 102.999c32.667 24.667 65.667 37 99 37l458 -33c76.667 0 182 5.33301 316 16
c133.333 8.66699 212.333 13 237 13c52 0 95.667 -11 131 -33c32.667 -22 49 -59 49 -111c0 -32.667 -12 -62.667 -36 -90c-27.333 -30 -57.666 -45 -90.999 -45l-307 8c-27.333 0 -54.666 -31.333 -81.999 -94c-30 -62.667 -45 -116 -45 -160v-1503
c19.333 -174.667 85 -304.334 197 -389.001c109.333 -87.333 259.333 -131 450 -131c180.667 0 332.334 47.667 455.001 143c120 93.333 180 219 180 377v1503c0 96 -13.667 163 -41 201c-30 35.333 -60 53 -90 53c-2.66699 2.66699 -16.334 4 -41.001 4
s-60 -1.33301 -106 -4c-92.667 -5.33301 -147.334 -8 -164.001 -8c-22 0 -41 12.333 -57 37c-16.667 22 -25 52 -25 90c0 52 11 90.333 33 115c18.667 22 67.667 33 147 33h45l451 -21c49.333 0 134 4 254 12c120 8.66699 181.333 13 184 13c68.667 0 115 -11 139 -33
c22 -24.667 33 -57.334 33 -98zM2192 3051c13.333 -10.667 19.998 -24.334 19.998 -41c0 -38 -21.667 -57 -65 -57c-8.66699 0 -21 2.66699 -37 8l-135 49c-295.333 112 -449.666 171 -462.999 177c-82 -27.333 -209 -75.333 -381 -144l-230 -90
c-5.33301 -2.66699 -10.666 -4 -15.999 -4c-13.333 0 -27 4 -41 12c-22 8.66699 -33 21 -33 37c0 14 12.333 31.667 37 53l623 447c22 16 37 24 45 24s23 -8 45 -24z" />
    <glyph glyph-name="Udieresis" unicode="&#xdc;" horiz-adv-x="2961" 
d="M2867 2626c0 -46.667 -4.00195 -78.332 -12.002 -94.998c-16.667 -35.333 -49.334 -53 -98 -53c-16.667 -2.66699 -30.334 -4 -41 -4c-49.333 0 -85 1.33301 -107 4c-5.33301 0 -13.333 2.66699 -24 8c-38.667 0 -70.334 -26 -95 -78c-27.333 -54 -41 -112.667 -41 -176
c-8 -21.333 -12 -159 -12 -413c0 -235.333 1.33301 -421 4 -557c0 -139.333 2.66699 -277.333 8 -414c0 -284 -75 -504 -225 -660c-169.333 -174.667 -428.666 -262 -777.999 -262c-368.667 0 -629.334 89 -782.001 267c-123.333 144.667 -185 363 -185 655v1384
c0 82 -5.33301 140.667 -16 176c-19.333 57.333 -53.666 86 -102.999 86l-184 -8c-32.667 0 -62.667 15 -90 45c-30 27.333 -45 57.333 -45 90c0 41.333 17.667 75.666 53 102.999c32.667 24.667 65.667 37 99 37l458 -33c76.667 0 182 5.33301 316 16
c133.333 8.66699 212.333 13 237 13c52 0 95.667 -11 131 -33c32.667 -22 49 -59 49 -111c0 -32.667 -12 -62.667 -36 -90c-27.333 -30 -57.666 -45 -90.999 -45l-307 8c-27.333 0 -54.666 -31.333 -81.999 -94c-30 -62.667 -45 -116 -45 -160v-1503
c19.333 -174.667 85 -304.334 197 -389.001c109.333 -87.333 259.333 -131 450 -131c180.667 0 332.334 47.667 455.001 143c120 93.333 180 219 180 377v1503c0 96 -13.667 163 -41 201c-30 35.333 -60 53 -90 53c-2.66699 2.66699 -16.334 4 -41.001 4
s-60 -1.33301 -106 -4c-92.667 -5.33301 -147.334 -8 -164.001 -8c-22 0 -41 12.333 -57 37c-16.667 22 -25 52 -25 90c0 52 11 90.333 33 115c18.667 22 67.667 33 147 33h45l451 -21c49.333 0 134 4 254 12c120 8.66699 181.333 13 184 13c68.667 0 115 -11 139 -33
c22 -24.667 33 -57.334 33 -98zM2073 3207c0 -62.667 -23.333 -117.334 -70 -164c-46 -46 -100.667 -69 -164 -69c-62.667 0 -117 23 -163 69c-46.667 46.667 -70 101.334 -70 164c0 62.667 23.167 117.334 69.5 164c46.333 46.667 100.833 70 163.5 70
c63.333 0 118 -23.333 164 -70c46.667 -46.667 70 -101.334 70 -164zM1360 3207c0 -62.667 -22.999 -117.334 -68.999 -164c-46.667 -46 -102.667 -69 -168 -69c-66 0 -122 21.667 -168 65c-46.667 44 -70 100 -70 168c0 65.333 23.167 121.333 69.5 168s102.5 70 168.5 70
c65.333 0 121.166 -23.333 167.499 -70s69.5 -102.667 69.5 -168z" />
    </font>
</defs>
</svg>
