<?xml version="1.0" standalone="no"?>
<!DOCTYPE svg PUBLIC "-//W3C//DTD SVG 1.1//EN" "http://www.w3.org/Graphics/SVG/1.1/DTD/svg11.dtd" >
<svg>
<metadata>
Created by FontForge 20090914 at Sun Dec 21 11:51:57 2014
 By www-data
&#194;&#169; Lauren Thompson, 2009, 2010. All rights reserved.
</metadata>
<defs>
<font id="Champagne&Limousines-Italic" horiz-adv-x="1800" >
  <font-face 
    font-family="Champagne & Limousines"
    font-weight="400"
    font-style="italic"
    font-stretch="normal"
    units-per-em="2048"
    panose-1="2 11 2 2 2 2 2 9 2 4"
    ascent="1638"
    descent="-410"
    x-height="855"
    cap-height="1414"
    bbox="-400 -393.999 2162 1719"
    underline-thickness="150"
    underline-position="-142"
    slope="-9.5"
    unicode-range="U+0020-U+FF9F"
  />
<missing-glyph horiz-adv-x="1088" 
d="M522 616c0 -4 1.83398 -10.1689 5.50098 -18.502s20.5 -16.166 50.5 -23.499c-30 -9.33301 -70 -29.333 -120 -60c-16 -10 -31.667 -15 -47 -15c-34 0 -67 24 -99 72c18.667 9.33301 31.667 16.333 39 21s11 9 11 13v252c0 20 -15.667 34.667 -47 44
c82 39.333 140.667 71.333 176 96c16.667 -2 27 -26.333 31 -73v-3c13.333 5.33301 25.333 11 36 17l163 59c7.33301 -39.333 15.666 -75 24.999 -107c9.33301 -31.333 18.666 -77.333 27.999 -138c1.33301 -11.333 2 -22.666 2 -33.999c0 -50 -17 -101.667 -51 -155
c-42 -65.333 -101.333 -131.666 -178 -198.999c48.667 89.333 73 172.666 73 249.999c0 21.333 -1.66699 42 -5 62c-17.333 94 -31.666 153.333 -42.999 178c-33.333 -24.667 -50 -50 -50 -76v-162zM76.001 1412v-1409h936v1409h-936zM1044 1447v-1480h-1000v1480h1000z" />
    <glyph glyph-name=".notdef" horiz-adv-x="1088" 
d="M522 616c0 -4 1.83398 -10.1689 5.50098 -18.502s20.5 -16.166 50.5 -23.499c-30 -9.33301 -70 -29.333 -120 -60c-16 -10 -31.667 -15 -47 -15c-34 0 -67 24 -99 72c18.667 9.33301 31.667 16.333 39 21s11 9 11 13v252c0 20 -15.667 34.667 -47 44
c82 39.333 140.667 71.333 176 96c16.667 -2 27 -26.333 31 -73v-3c13.333 5.33301 25.333 11 36 17l163 59c7.33301 -39.333 15.666 -75 24.999 -107c9.33301 -31.333 18.666 -77.333 27.999 -138c1.33301 -11.333 2 -22.666 2 -33.999c0 -50 -17 -101.667 -51 -155
c-42 -65.333 -101.333 -131.666 -178 -198.999c48.667 89.333 73 172.666 73 249.999c0 21.333 -1.66699 42 -5 62c-17.333 94 -31.666 153.333 -42.999 178c-33.333 -24.667 -50 -50 -50 -76v-162zM76.001 1412v-1409h936v1409h-936zM1044 1447v-1480h-1000v1480h1000z" />
    <glyph glyph-name="space" unicode=" " horiz-adv-x="508" 
 />
    <glyph glyph-name="space" unicode="&#xa0;" horiz-adv-x="508" 
 />
    <glyph glyph-name="exclam" unicode="!" horiz-adv-x="269" 
d="M211.5 123c13 -15.333 17.833 -34 14.5 -56c-4 -22 -15.167 -40.667 -33.5 -56s-38.166 -23 -59.499 -23c-22 0 -39.5 7.66699 -52.5 23s-17.5 34 -13.5 56c3.33301 22 14.166 40.667 32.499 56s38.5 23 60.5 23c21.333 0 38.5 -7.66699 51.5 -23zM410 1414l-196 -1170
h-80l196 1170h80z" />
    <glyph glyph-name="quotedbl" unicode="&#x22;" horiz-adv-x="397" 
d="M202 881l89 530h80l-89 -530h-80zM410 881l89 530h79l-89 -530h-79z" />
    <glyph glyph-name="numbersign" unicode="#" horiz-adv-x="909" 
d="M573 446h-225l-143 -346h-75l143 346h-218l54 80h197l133 320h-200l55 80h177l148 358h75l-148 -358h225l148 358h75l-148 -358h198l-55 -80h-175l-133 -320h178l-54 -80h-157l-143 -346h-75zM381 526h225l133 320h-225z" />
    <glyph glyph-name="dollar" unicode="$" horiz-adv-x="1070" 
d="M706 761l-99 -589c60.667 8.66699 117 35.334 169 80.001c64.667 55.333 103.667 122.666 117 201.999c12.667 78 -4 144.667 -50 200c-36 44 -81.667 79.667 -137 107zM708 1254c-36.667 -6 -71 -23 -103 -51c-42 -35.333 -67.333 -78.333 -76 -129
c-8 -50.667 2.66699 -93.667 32 -129c20.667 -24.667 48.667 -48 84 -70zM631 792c-56 26.667 -100.333 59.668 -133 99.001c-42.667 50 -58 111 -46 183c12 70 47.667 130.333 107 181c50 43.333 104 68.333 162 75l15 89h80l-15 -91
c50.667 -9.33301 92.334 -33.333 125.001 -72c22.667 -26.667 37 -58.334 43 -95.001l-74 -28c-5.33301 27.333 -16.333 51 -33 71c-20 23.333 -44.667 39 -74 47l-69 -410c76 -31.333 138 -76 186 -134c58.667 -70 80 -154.333 64 -253
c-16.667 -100 -66.334 -185 -149.001 -255c-69.333 -60 -144.333 -94.667 -225 -104l-17 -99h-80l16 98c-83.333 6.66699 -151 41.667 -203 105c-46.667 56 -69.667 122.333 -69 199l77 27c-4 -68 14.333 -125.667 55 -173c39.333 -48 90.333 -75.333 153 -82z" />
    <glyph glyph-name="percent" unicode="%" horiz-adv-x="1070" 
d="M1167 1161l-1005 -1158l-57 45l1005 1158zM584.5 1014c33 -40 44.499 -88.333 34.499 -145c-9.33301 -56 -37.166 -104 -83.499 -144s-97.833 -60 -154.5 -60s-101.5 20 -134.5 60s-44.833 88 -35.5 144c10 56.667 38.167 105 84.5 145s97.833 60 154.5 60
s101.5 -20 134.5 -60zM436.999 997c-35.333 0 -67.4971 -12.5 -96.4971 -37.5s-46.5 -55.167 -52.5 -90.5c-5.33301 -35.333 2.16699 -65.333 22.5 -90s48.166 -37 83.499 -37c34.667 0 66.667 12.333 96 37s46.666 54.667 51.999 90c6 35.333 -1.33301 65.5 -22 90.5
s-48.334 37.5 -83.001 37.5zM1025.5 483.5c33 -39.667 44.834 -87.834 35.501 -144.501c-10 -56.667 -38 -104.834 -84 -144.501s-97.333 -59.5 -154 -59.5s-101.667 19.833 -135 59.5s-45 87.834 -35 144.501c9.33301 56.667 37.166 104.834 83.499 144.501
s97.833 59.5 154.5 59.5s101.5 -19.833 134.5 -59.5zM878.003 467c-35.333 0 -67.333 -12.5 -96 -37.5s-46 -55.167 -52 -90.5s1.16699 -65.333 21.5 -90s48.166 -37 83.499 -37c34.667 0 66.834 12.333 96.501 37s47.5 54.667 53.5 90s-1.66699 65.5 -23 90.5
s-49.333 37.5 -84 37.5z" />
    <glyph glyph-name="ampersand" unicode="&#x26;" horiz-adv-x="1167" 
d="M864 292c-7.33301 3.33301 -14.335 7 -21.002 11c-25.333 16 -55.666 46 -90.999 90c-23.333 26 -40.333 42.333 -51 49c-12 6.66699 -24.667 10 -38 10c-7.33301 0 -14.666 -0.666992 -21.999 -2c-22.667 -6 -40.667 -18.333 -54 -37c-10 -13.333 -16 -26.333 -18 -39
c-1.33301 -7.33301 -1.33301 -14.666 0 -21.999c2 -21.333 11 -36.666 27 -45.999c10 -6 24.667 -9 44 -9c10.667 0 23 1 37 3l-20 -73c-15.333 -4 -30.333 -6 -45 -6c-23.333 0 -45.333 6 -66 18c-32 20 -50.333 50.667 -55 92c-1.33301 14.667 -1 29 1 43
c4.66699 26 16 51.333 34 76c28 37.333 63.667 61.666 107 72.999c15.333 4 30 6 44 6c26 0 50 -7 72 -21c21.333 -12.667 47.333 -39 78 -79c29.333 -30.667 51 -50.667 65 -60c16.667 -10 34.334 -15 53.001 -15c10.667 0 21.667 1.66699 33 5c32 8 58.333 26 79 54
c12.667 18 20.667 36.333 24 55c2 10 2 20.333 0 31c-2.66699 30 -16.334 53 -41.001 69c-15.333 9.33301 -33.333 14 -54 14c-14.667 0 -30.667 -2.33301 -48 -7l12 79c17.333 4.66699 34 7 50 7c31.333 0 60.666 -8.66699 87.999 -26c41.333 -26 65 -64.333 71 -115
c1.33301 -18 0.666016 -35.333 -2.00098 -52c-5.33301 -32 -18.666 -62.667 -39.999 -92c-34 -46 -78.333 -76.333 -133 -91c-16 -4 -31 -6.33301 -45 -7c-30 -63.333 -74.333 -120.333 -133 -171c-96 -82.667 -201.667 -124 -317 -124s-207.166 41 -275.499 123
s-92.833 181 -73.5 297c19.333 115.333 76.666 216 171.999 302c65.333 59.333 144.666 104 237.999 134c-39.333 18 -77.333 50.667 -114 98s-48 112.666 -34 195.999c14 81.333 55 151.333 123 210s143.333 88 226 88s148.334 -29.333 197.001 -88
c28 -31.333 44.667 -66.333 50 -105l-76 -28c-6 28.667 -19 55 -39 79c-36 42.667 -84.333 64 -145 64s-116 -21.333 -166 -64s-80.333 -94.667 -91 -156c-10 -60.667 2.16699 -113.167 36.5 -157.5s68 -73.166 101 -86.499s75.833 -20.333 128.5 -21l-13 -75l-63 -1
c-133.333 -24.667 -238.166 -72.334 -314.499 -143.001s-122.5 -152.667 -138.5 -246c-15.333 -94 4.5 -174.333 59.5 -241s129.833 -100 224.5 -100c93.333 0 179 33.333 257 100c44.667 38.667 79.667 82 105 130z" />
    <glyph glyph-name="quotesingle" unicode="'" horiz-adv-x="190" 
d="M202 881l89 530h80l-89 -530h-80z" />
    <glyph glyph-name="parenleft" unicode="(" horiz-adv-x="552" 
d="M745 1483c-60.667 -33.333 -133.001 -95.998 -217.001 -187.998c-122.667 -136 -204 -323 -244 -561l-15 -90c-40 -238.667 -21.333 -426 56 -562c53.333 -92 105 -154.667 155 -188h-89c-45.333 35.333 -85.666 78.666 -120.999 129.999
c-113.333 162 -146.333 383.667 -99 665c46.667 280.667 154 502 322 664c52.667 51.333 107 94.666 163 129.999h89z" />
    <glyph glyph-name="parenright" unicode=")" horiz-adv-x="552" 
d="M392 1483c44.667 -35.333 84.668 -78.668 120.001 -130.001c113.333 -162 146.666 -383.333 99.999 -664c-47.333 -281.333 -154.666 -503 -321.999 -665c-52.667 -51.333 -107.334 -94.666 -164.001 -129.999h-89c60.667 33.333 133 96 217 188
c123.333 136 205 323.333 245 562l15 90c39.333 238 20.333 425 -57 561c-52.667 92 -104 154.667 -154 188h89z" />
    <glyph glyph-name="asterisk" unicode="*" horiz-adv-x="730" 
d="M610 1223l222 108l35 -66l-241 -119l201 -119l-57 -66l-186 108l-31 -188h-79l31 189l-223 -109l-35 66l241 119l-201 119l57 66l187 -109l31 189h79z" />
    <glyph glyph-name="plus" unicode="+" horiz-adv-x="1070" 
d="M495 633h-410v80h410v410h80v-410h410v-80h-410v-410h-80v410z" />
    <glyph glyph-name="comma" unicode="," horiz-adv-x="336" 
d="M263 147l-221 -341h-74l148 341h147z" />
    <glyph glyph-name="hyphen" unicode="-" horiz-adv-x="596" 
d="M142 563h500l-13 -80h-500z" />
    <glyph glyph-name="hyphen" unicode="&#xad;" horiz-adv-x="596" 
d="M142 563h500l-13 -80h-500z" />
    <glyph glyph-name="period" unicode="." horiz-adv-x="269" 
d="M211.5 123c13 -15.333 17.833 -34 14.5 -56c-4 -22 -15.167 -40.667 -33.5 -56s-38.166 -23 -59.499 -23c-22 0 -39.5 7.66699 -52.5 23s-17.5 34 -13.5 56c3.33301 22 14.166 40.667 32.499 56s38.5 23 60.5 23c21.333 0 38.5 -7.66699 51.5 -23z" />
    <glyph glyph-name="slash" unicode="/" horiz-adv-x="627" 
d="M825 1414h91l-878 -1414h-90z" />
    <glyph glyph-name="zero" unicode="0" horiz-adv-x="1070" 
d="M1052 695c33.333 200 20.166 355.667 -39.501 467s-144.834 167 -255.501 167s-214.5 -55.667 -311.5 -167s-162.167 -267 -195.5 -467c-33.333 -200.667 -20.166 -356.667 39.501 -468s144.834 -167 255.501 -167s214.5 55.667 311.5 167s162.167 267.333 195.5 468z
M1136 695c-37.333 -223.333 -113.831 -399.166 -229.498 -527.499s-240.5 -192.5 -374.5 -192.5s-237.833 64.167 -311.5 192.5s-91.834 304.166 -54.501 527.499c37.333 222.667 114.166 398.167 230.499 526.5s241.5 192.5 375.5 192.5s237.5 -64.167 310.5 -192.5
s90.833 -303.833 53.5 -526.5z" />
    <glyph glyph-name="one" unicode="1" horiz-adv-x="1070" 
d="M512 80l197 1176l-163 -96l-54 45l323 209l-224 -1334h307l-13 -80h-700l13 80h314z" />
    <glyph glyph-name="two" unicode="2" horiz-adv-x="1070" 
d="M170 0c464.667 564.667 715.499 872.169 752.499 922.502s59.5 98.5 67.5 144.5c3.33301 22.667 4.33301 45.667 3 69c-4 73.333 -34.333 129.666 -91 168.999c-40 26.667 -84 40 -132 40c-21.333 0 -43 -2.33301 -65 -7c-74.667 -16.667 -137 -56.334 -187 -119.001
c-28 -34.667 -47 -69 -57 -103l-80 12c11.333 44.667 35 89.334 71 134.001c67.333 83.333 149.666 135.666 246.999 156.999c30 6.66699 58.667 10 86 10c65.333 0 124 -18.333 176 -55c74 -52 113.667 -125 119 -219c2.66699 -34.667 1.33398 -67.667 -3.99902 -99
c-9.33301 -55.333 -34.666 -111.5 -75.999 -168.5s-261 -326.167 -659 -807.5h571l-13 -80h-729z" />
    <glyph glyph-name="three" unicode="3" horiz-adv-x="1070" 
d="M617 789l-65.998 2l13 79c55.333 0.666992 101.5 7.83398 138.5 21.501s79.667 42.334 128 86.001s77.5 95.5 87.5 155.5c10.667 60.667 -1.66602 112 -36.999 154s-83 63 -143 63c-59.333 0 -114.333 -21 -165 -63c-27.333 -24 -49 -51 -65 -81l-71 30
c19.333 41.333 48 77.666 86 108.999c69.333 58.667 145.666 88 228.999 88c84 0 150.333 -29.5 199 -88.5s66 -129.5 52 -211.5c-14 -84 -47.333 -150 -100 -198s-100 -80 -142 -96c80.667 -28 144 -72 190 -132c66 -86.667 89.333 -188 70 -304
c-19.333 -116.667 -77 -216.167 -173 -298.5s-202.333 -123.5 -319 -123.5c-116 0 -208.667 41.333 -278 124c-54 66 -80.333 143.333 -79 232l85 29c-4.66699 -78.667 16.666 -146.334 63.999 -203.001c55.333 -65.333 129.333 -98 222 -98c94 0 179.5 32.833 256.5 98.5
s123.167 145.5 138.5 239.5c16 93.333 -2.33301 175 -55 245s-141.334 117 -266.001 141z" />
    <glyph glyph-name="four" unicode="4" horiz-adv-x="1070" 
d="M1046 1474l-173 -1031h135l-13 -79h-135l-61 -364h-80l61 364h-583zM919 1192l-572 -749h446z" />
    <glyph glyph-name="five" unicode="5" horiz-adv-x="1070" 
d="M394 975c30.667 9.33301 65 18 103 26c38.667 6.66699 75.667 10 111 10c65.333 0 126 -10.333 182 -31c124.667 -45.333 209.667 -129 255 -251c28 -76 35.333 -153.667 22 -233c-8.66699 -50 -24.667 -100 -48 -150c-62.667 -132 -160.667 -231 -294 -297
c-81.333 -39.333 -161.333 -59 -240 -59c-50 0 -99.667 8 -149 24c-100.667 32.667 -174 90 -220 172l67 62c38 -74 102 -125.333 192 -154c40 -13.333 80.333 -20 121 -20c66 0 133.333 16.667 202 50c110.667 54 192.334 136.333 245.001 247
c20.667 42.667 34.334 84.667 41.001 126c11.333 66 5 130.333 -19 193c-36.667 101.333 -107.334 171.333 -212.001 210c-44.667 16.667 -95.334 25 -152.001 25c-75.333 0 -161.333 -14.333 -258 -43l-53 55l237 448l4 29h442l-13 -80h-375z" />
    <glyph glyph-name="six" unicode="6" horiz-adv-x="1070" 
d="M288 373c-14 -85.333 4.16602 -157.833 54.499 -217.5s118.166 -89.5 203.499 -89.5c84.667 0 162.167 29.833 232.5 89.5s112.5 132.167 126.5 217.5c14.667 85.333 -3.16602 158.166 -53.499 218.499s-117.833 90.5 -202.5 90.5
c-85.333 0 -163.166 -30.167 -233.499 -90.5s-112.833 -133.166 -127.5 -218.499zM411.999 687c77.333 53.333 160.999 80.001 250.999 80.001c108.667 0 194.834 -38.333 258.501 -115s86.167 -169.667 67.5 -279c-18 -108 -71.667 -200.5 -161 -277.5
s-188.333 -115.5 -297 -115.5c-108 0 -194 38.5 -258 115.5s-87 169.5 -69 277.5c31.333 152 101.333 310.667 210 476s251.667 353.666 429 564.999h106c-204.667 -240.667 -383.667 -483 -537 -727z" />
    <glyph glyph-name="seven" unicode="7" horiz-adv-x="1070" 
d="M919 924c-150.667 -173.333 -278.332 -340.999 -382.999 -502.999c-104 -162.667 -169 -303 -195 -421h-83c29.333 141.333 98.666 294.666 207.999 459.999c108 165.333 228 325.666 360 480.999c131.333 155.333 217.333 286.333 258 393h-743l14 80h833
c-29.333 -153.333 -119 -316.666 -269 -489.999z" />
    <glyph glyph-name="eight" unicode="8" horiz-adv-x="1070" 
d="M547 66c130.667 6 230.999 40.167 300.999 102.5s112.667 140.5 128 234.5c16 93.333 -2.33301 175 -55 245c-51.333 68 -136 114.333 -254 139c-128 -24.667 -229 -71 -303 -139c-75.333 -70 -121 -151.667 -137 -245c-15.333 -94 1.33398 -172.167 50.001 -234.5
s138.667 -96.5 270 -102.5zM532.999 -9c-154 0 -262.166 39.5 -324.499 118.5s-83.833 176.833 -64.5 293.5c19.333 116 76.666 217.333 171.999 304c66 60 143.667 104 233 132c-36 16 -72.333 48 -109 96s-48 114 -34 198c14 82 55 151.667 123 209s151 86.333 249 87
c92 -0.666992 162.5 -29.667 211.5 -87s66.5 -127 52.5 -209c-14 -84 -47.5 -150 -100.5 -198s-100.167 -80 -141.5 -96c80 -28 143 -72 189 -132c66 -86.667 89.333 -188 70 -304c-19.333 -116.667 -73.333 -214.5 -162 -293.5s-210 -118.5 -364 -118.5zM760 1349
c-91.333 -6 -156.501 -28.333 -195.501 -67s-63.833 -88.334 -74.5 -149.001c-10 -60 1.83301 -111.833 35.5 -155.5s85.834 -77.167 156.501 -100.5c76.667 23.333 139.167 56.833 187.5 100.5s77.5 95.5 87.5 155.5c10.667 60.667 3 110.334 -23 149.001
s-83.333 61 -172 67h-2z" />
    <glyph glyph-name="nine" unicode="9" horiz-adv-x="1070" 
d="M1017 1041c14.667 85.333 -3.16699 157.833 -53.5 217.5s-118.166 89.5 -203.499 89.5c-84.667 0 -162.167 -29.833 -232.5 -89.5s-112.833 -132.167 -127.5 -217.5c-14 -85.333 4.16699 -158.166 54.5 -218.499s117.833 -90.5 202.5 -90.5
c85.333 0 163.166 30.167 233.499 90.5s112.5 133.166 126.5 218.499zM893.999 727c-77.333 -53.333 -160.999 -80.001 -250.999 -80.001c-108.667 0 -194.834 38.333 -258.501 115s-86.5 169.667 -68.5 279c18.667 108 72.5 200.5 161.5 277.5s187.833 115.5 296.5 115.5
c108 0 194.167 -38.5 258.5 -115.5s86.5 -174.833 66.5 -293.5c-30 -141.333 -99.333 -294.666 -208 -459.999s-251.667 -353.666 -429 -564.999h-106c202.667 227.333 382 469.666 538 726.999z" />
    <glyph glyph-name="colon" unicode=":" horiz-adv-x="269" 
d="M211.5 123c13 -15.333 17.833 -34 14.5 -56c-4 -22 -15.167 -40.667 -33.5 -56s-38.166 -23 -59.499 -23c-22 0 -39.5 7.66699 -52.5 23s-17.5 34 -13.5 56c3.33301 22 14.166 40.667 32.499 56s38.5 23 60.5 23c21.333 0 38.5 -7.66699 51.5 -23zM314.5 740
c13 -15.333 17.834 -34 14.501 -56c-4 -22 -15 -40.667 -33 -56s-37.667 -23 -59 -23c-22 0 -39.667 7.66699 -53 23s-18 34 -14 56c3.33301 22 14.166 40.667 32.499 56s38.5 23 60.5 23c21.333 0 38.5 -7.66699 51.5 -23z" />
    <glyph glyph-name="semicolon" unicode=";" horiz-adv-x="293" 
d="M263 147l-221 -341h-74l148 341h147zM338.5 740c13 -15.333 17.834 -34 14.501 -56c-4 -22 -15 -40.667 -33 -56s-37.667 -23 -59 -23c-22 0 -39.667 7.66699 -53 23s-18 34 -14 56c3.33301 22 14.166 40.667 32.499 56s38.5 23 60.5 23c21.333 0 38.5 -7.66699 51.5 -23
z" />
    <glyph glyph-name="semicolon" unicode="&#x37e;" horiz-adv-x="293" 
d="M263 147l-221 -341h-74l148 341h147zM338.5 740c13 -15.333 17.834 -34 14.501 -56c-4 -22 -15 -40.667 -33 -56s-37.667 -23 -59 -23c-22 0 -39.667 7.66699 -53 23s-18 34 -14 56c3.33301 22 14.166 40.667 32.499 56s38.5 23 60.5 23c21.333 0 38.5 -7.66699 51.5 -23
z" />
    <glyph glyph-name="less" unicode="&#x3c;" horiz-adv-x="1070" 
d="M258 772l723 -334v-92l-892 426l892 426v-92z" />
    <glyph glyph-name="equal" unicode="=" horiz-adv-x="1070" 
d="M85 855h900v-80h-900v80zM89 572h892v-80h-892v80z" />
    <glyph glyph-name="greater" unicode="&#x3e;" horiz-adv-x="1070" 
d="M89 1106v92l892 -426l-892 -426v92l723 334z" />
    <glyph glyph-name="question" unicode="?" horiz-adv-x="752" 
d="M361 67c-4 -22 -15.167 -40.667 -33.5 -56s-38.166 -23 -59.499 -23c-22 0 -39.5 7.66699 -52.5 23s-17.5 34 -13.5 56c3.33301 22 14.166 40.667 32.499 56s38.5 23 60.5 23c21.333 0 38.5 -7.66699 51.5 -23s17.833 -34 14.5 -56zM270 335l4.00195 27.001
c22 131.333 92.333 257.666 211 378.999c142 144.667 226.333 247.667 253 309c10.667 24 18 47 22 69c5.33301 34.667 2.66602 66.667 -8.00098 96c-18 48.667 -53.667 83.334 -107 104.001c-24.667 9.33301 -49.334 14 -74.001 14c-31.333 0 -63 -7 -95 -21
c-60 -26 -105 -67.333 -135 -124c-11.333 -22 -21 -53.333 -29 -94l-77 -5c8.66699 55.333 20.667 96.666 36 123.999c50 84.667 116.667 142.667 200 174c42 15.333 82.333 23 121 23c39.333 0 77 -7.66699 113 -23c72 -32 116 -85.333 132 -160
c7.33301 -37.333 8 -74 2 -110c-6 -36.667 -19 -72.667 -39 -108c-40 -70.667 -123.333 -171.334 -250 -302.001c-112.667 -116 -178 -226.667 -196 -332c-2 -13.333 -3.66699 -26.666 -5 -39.999h-79z" />
    <glyph glyph-name="at" unicode="@" horiz-adv-x="1547" 
d="M1157 609l31.002 137c-0.666992 52.667 -16 98.667 -46 138c-44.667 58 -107.334 87 -188.001 87c-81.333 0 -156.833 -28.667 -226.5 -86s-114.5 -132.666 -134.5 -225.999c-12.667 -72.667 1.66602 -135.334 42.999 -188.001c44 -57.333 106.667 -86 188 -86
c80.667 0 156 28.333 226 85c48 40 83.667 86.333 107 139zM1117 431c-104.667 -89.333 -209.668 -133.999 -315.001 -133.999c-104.667 0 -186 37.667 -244 113c-54.667 68.667 -74 150 -58 244c27.333 120.667 86.5 218.334 177.5 293.001s189.167 112 294.5 112
c104.667 0 189.334 -44.333 254.001 -133l26 118h85l-139 -497c-20 -100 -14 -153.333 18 -160c59.333 4 121.166 36.667 185.499 98s113.5 170.666 147.5 327.999c22 128.667 -8 242.334 -90 341.001c-88.667 105.333 -232.334 158 -431.001 158
c-175.333 0 -339 -62.333 -491 -187s-250 -287.667 -294 -489c-26.667 -158 5 -294.333 95 -409c96 -124 231.667 -186 407 -186c120 0 211.333 17 274 51l45 -63c-94 -48.667 -206.667 -73 -338 -73c-198 0 -351.667 70.667 -461 212
c-102.667 129.333 -139 283.333 -109 462c50 228 161.333 412.667 334 554s358.334 212 557.001 212c222.667 0 384.334 -60.667 485.001 -182c93.333 -114.667 128 -243.334 104 -386.001c-38 -174.667 -100.667 -302.667 -188 -384
c-80.667 -75.333 -163.334 -113 -248.001 -113c-66.667 7.33301 -96 34.666 -88 81.999c0.666992 5.33301 2.33398 11.333 5.00098 18z" />
    <glyph glyph-name="A" unicode="A" horiz-adv-x="1116" 
d="M891 701l-115 593l-316 -593h431zM837 1414l276 -1414h-84l-122 622h-489l-334 -622h-85l756 1414h82z" />
    <glyph glyph-name="B" unicode="B" horiz-adv-x="1033" 
d="M532 80c104.667 0 200.334 37.168 287.001 111.501s138.667 164.166 156 269.499c18 105.333 -3.83301 195.333 -65.5 270s-144.834 112 -249.501 112h-327l-128 -763h327zM415 1335l-68.999 -412.001h360c59.333 6 105.666 23.333 138.999 52
c47.333 40.667 76 90.334 86 149.001c10 58 -2.16699 107.667 -36.5 149s-80.5 62 -138.5 62h-341zM851.001 887c48.667 -22 90.9971 -54.999 126.997 -98.999c74.667 -90 101.334 -199 80.001 -327c-21.333 -127.333 -84.333 -236 -189 -326
c-88 -75.333 -187.333 -120.333 -298 -135h-459l237 1414h422c80.667 0 144.334 -28.333 191.001 -85s63.334 -125 50.001 -205s-53 -148.333 -119 -205c-14 -12.667 -28 -23.334 -42 -32.001z" />
    <glyph glyph-name="C" unicode="C" horiz-adv-x="1347" 
d="M1262 225l51.998 -54.001c-159.333 -125.333 -332.333 -188 -519 -188c-200.667 0 -359.667 70.5 -477 211.5s-159.333 311.833 -126 512.5c33.333 199.333 132.5 369.833 297.5 511.5s347.833 212.5 548.5 212.5c186.667 0 338.334 -63 455.001 -189l-70 -54
c-103.333 107.333 -236.333 161 -399 161c-177.333 0 -339.333 -62.667 -486 -188s-235 -276.666 -265 -453.999c-29.333 -178 8.33398 -329.667 113.001 -455s245.667 -188 423 -188c162.667 0 313.667 53.667 453 161z" />
    <glyph glyph-name="D" unicode="D" horiz-adv-x="1189" 
d="M611 1414c232 -1.33301 401.332 -66.333 507.999 -195c117.333 -142 159.333 -312.667 126 -512c-33.333 -200.667 -132.666 -371.667 -297.999 -513c-149.333 -128 -340.333 -192.667 -573 -194h-262l237 1414h262zM414.999 1331l-209 -1249h181
c203.333 0 373 56.667 509 170c146.667 125.333 234.667 277 264 455c30 177.333 -7.33301 329 -112 455c-98 112.667 -248.667 169 -452 169h-181z" />
    <glyph glyph-name="E" unicode="E" horiz-adv-x="931" 
d="M1056 1414l-14 -80h-627l-98 -587h627l-13 -80h-627l-99 -587h627l-13 -80h-707l237 1414h707z" />
    <glyph glyph-name="F" unicode="F" horiz-adv-x="783" 
d="M968 1414l-14 -80h-539l-98 -587h539l-13 -80h-539l-112 -667h-80l237 1414h619z" />
    <glyph glyph-name="G" unicode="G" horiz-adv-x="1359" 
d="M1309 176c-156 -128.667 -327.335 -193.001 -514.002 -193.001c-200.667 0 -359.667 70.5 -477 211.5s-159.333 311.833 -126 512.5c33.333 199.333 132.5 369.833 297.5 511.5s347.833 212.5 548.5 212.5c186.667 0 338.334 -63 455.001 -189l-70 -54
c-103.333 107.333 -236.333 161 -399 161c-177.333 0 -339.333 -62.667 -486 -188s-235 -276.666 -265 -453.999c-29.333 -178 8.33398 -329.667 113.001 -455s245.667 -188 423 -188c152 0 293.667 46.667 425 140l72 431h79z" />
    <glyph glyph-name="H" unicode="H" horiz-adv-x="1072" 
d="M286 667l-112 -667h-80l237 1414h80l-112 -667h724l112 667h80l-237 -1414h-80l112 667h-724z" />
    <glyph glyph-name="I" unicode="I" horiz-adv-x="324" 
d="M439 1414l-237 -1414h-80l237 1414h80z" />
    <glyph glyph-name="J" unicode="J" horiz-adv-x="306" 
d="M188 -27c-12.667 -72 -47.168 -131.333 -103.501 -178s-120.166 -70 -191.499 -70l12 73c48.667 0 93 16.667 133 50c38 32.667 61.667 77.667 71 135l240 1431h80z" />
    <glyph glyph-name="K" unicode="K" horiz-adv-x="999" 
d="M999 1414l-456 -531l470 -883h-97l-435 817l-189 -218l-100 -599h-80l237 1414h80l-114 -677l587 677h97z" />
    <glyph glyph-name="L" unicode="L" horiz-adv-x="783" 
d="M112 0l237 1414h80l-224 -1334h539l-13 -80h-619z" />
    <glyph glyph-name="M" unicode="M" horiz-adv-x="1442" 
d="M1586 1414l-237 -1414h-80l222 1328l-667 -717l-428 717l-222 -1328h-80l237 1414h116l400 -670l623 670h116z" />
    <glyph glyph-name="N" unicode="N" horiz-adv-x="1339" 
d="M447 1414l719 -1317l221 1317h80l-237 -1414h-123l-703 1286l-215 -1286h-80l237 1414h101z" />
    <glyph glyph-name="O" unicode="O" horiz-adv-x="1575" 
d="M1505 1221.5c118 -141.667 159.999 -312.5 125.999 -512.5c-33.333 -200.667 -132.666 -371.834 -297.999 -513.501s-348.333 -212.5 -549 -212.5c-200 0 -359 70.833 -477 212.5s-160.333 312.834 -127 513.501c34 200 133.667 370.833 299 512.5s348 212.5 548 212.5
c200.667 0 360 -70.833 478 -212.5zM1013 1353c-177.333 0 -339.5 -63 -486.5 -189s-235.5 -277.667 -265.5 -455c-29.333 -178 8.33398 -330 113.001 -456s245.667 -189 423 -189c178 0 340.667 63 488 189s235.666 278 264.999 456c30 177.333 -7.5 329 -112.5 455
s-246.5 189 -424.5 189z" />
    <glyph glyph-name="P" unicode="P" horiz-adv-x="959" 
d="M274 490l-82.001 -489.999h-80l237 1414h371c105.333 -14.667 189.333 -59.667 252 -135c74.667 -90.667 101.334 -199.334 80.001 -326.001c-21.333 -128 -84.5 -237.167 -189.5 -327.5s-221.167 -135.5 -348.5 -135.5h-240zM414.999 1333l-127 -762h240
c104.667 0 200.5 37.167 287.5 111.5s139.167 164.5 156.5 270.5c18 105.333 -4.16699 195 -66.5 269s-145.833 111 -250.5 111h-240z" />
    <glyph glyph-name="Q" unicode="Q" horiz-adv-x="1575" 
d="M1013 1353c-177.333 0 -339.5 -63 -486.5 -189s-235.5 -277.667 -265.5 -455c-29.333 -178 8.33398 -330 113.001 -456s245.667 -189 423 -189c178 0 340.667 63 488 189s235.666 278 264.999 456c30 177.333 -7.5 329 -112.5 455s-246.5 189 -424.5 189zM776 -17
c-196.667 2 -352.669 73.001 -468.002 213.001c-118.667 141.333 -161.334 312.333 -128.001 513c34 200 133.667 370.833 299 512.5s348 212.5 548 212.5c200.667 0 360 -70.833 478 -212.5s160 -312.5 126 -512.5c-33.333 -200.667 -132.333 -371.667 -297 -513
c-120 -102.667 -248.667 -168 -386 -196c46.667 -13.333 102.667 -43 168 -89c44.667 -26.667 92.334 -43.667 143.001 -51c72 2 117.667 42 137 120h80c-34 -114.667 -103.333 -176 -208 -184c-84.667 0 -160.334 22.333 -227.001 67
c-75.333 43.333 -136.666 66.666 -183.999 69.999c-45.333 -3.33301 -80.666 -15 -105.999 -35s-44.166 -43.667 -56.499 -71s-19.5 -44.333 -21.5 -51h-80c38 116.667 99 185.667 183 207z" />
    <glyph glyph-name="R" unicode="R" horiz-adv-x="959" 
d="M415 1333l-127 -762h240c104.667 0 200.5 37.167 287.5 111.5s139.167 164.5 156.5 270.5c18 105.333 -4.16699 195 -66.5 269s-145.833 111 -250.5 111h-240zM538 490l-264.001 0.000976562l-82 -490h-80l237 1414h371c105.333 -14.667 189.333 -59.667 252 -135
c74.667 -90.667 101.334 -199.334 80.001 -326.001c-21.333 -128 -84.333 -237 -189 -327c-73.333 -62.667 -152 -103.667 -236 -123l242 -503h-98z" />
    <glyph glyph-name="S" unicode="S" horiz-adv-x="942" 
d="M626 783c-95.333 33.333 -167.333 79.167 -216 137.5s-66 129.166 -52 212.499c14 81.333 55 151.333 123 210s143.667 88 227 88c82 0 147.667 -29.333 197 -88c27.333 -31.333 44 -66.333 50 -105l-77 -28c-6 28.667 -19 55 -39 79c-35.333 42.667 -83.333 64 -144 64
s-116 -21.333 -166 -64s-80.333 -94.667 -91 -156c-10 -60.667 2.66699 -112.667 38 -156c33.333 -39.333 82.666 -75.333 147.999 -108c107.333 -36.667 193 -93.667 257 -171c68 -81.333 92.333 -179.666 73 -294.999c-19.333 -116 -76.666 -215 -171.999 -297
s-200.666 -123 -315.999 -123c-116 0 -207.667 41.333 -275 124c-55.333 65.333 -82 141.333 -80 228l79 27c-4.66699 -76.667 17 -143.334 65 -200.001c55.333 -66.667 130 -100 224 -100s180 33.333 258 100s124.667 147 140 241c16 93.333 -4 173.333 -60 240
c-48.667 58.667 -112.334 105.334 -191.001 140.001z" />
    <glyph glyph-name="T" unicode="T" horiz-adv-x="859" 
d="M692 1334l-223 -1334h-79l223 1334h-358l13 80h795l-13 -80h-358z" />
    <glyph glyph-name="U" unicode="U" horiz-adv-x="1147" 
d="M1191 1414h80l-170 -1016c-32.667 -108 -93 -199.667 -181 -275c-104.667 -90 -220.667 -135 -348 -135c-128 0 -229.5 45 -304.5 135s-101.833 198.667 -80.5 326l161 965h80l-161 -965c-17.333 -104.667 5 -194.334 67 -269.001s145.667 -112 251 -112
s201.5 37.333 288.5 112s139.167 164.334 156.5 269.001z" />
    <glyph glyph-name="V" unicode="V" horiz-adv-x="1065" 
d="M1218 1414h84l-745 -1414h-49l-271 1414h84l236 -1270z" />
    <glyph glyph-name="W" unicode="W" horiz-adv-x="1602" 
d="M998 1039l200 -910l560 1285h81l-617 -1414h-80l-191 894l-491 -894h-80l-143 1414h81l131 -1285l503 910h46z" />
    <glyph glyph-name="X" unicode="X" horiz-adv-x="1018" 
d="M15 0l578 777l-261 637h91l228 -559l417 559h91l-476 -637l320 -777h-91l-287 698l-520 -698h-90z" />
    <glyph glyph-name="Y" unicode="Y" horiz-adv-x="1116" 
d="M614 572l-345 842h91l309 -754l561 754h91l-627 -842l-96 -572h-80z" />
    <glyph glyph-name="Z" unicode="Z" horiz-adv-x="1075" 
d="M1077 1334h-670l14 80h807l-995 -1334h841l-13 -80h-977z" />
    <glyph glyph-name="bracketleft" unicode="[" horiz-adv-x="384" 
d="M128 -40h194l-13 -79h-274l279 1665h274l-14 -79h-194z" />
    <glyph glyph-name="backslash" unicode="\" horiz-adv-x="627" 
d="M679 0h-90l-404 1414h91z" />
    <glyph glyph-name="bracketright" unicode="]" horiz-adv-x="384" 
d="M494 1467h-194l14 79h274l-279 -1665h-274l13 79h194z" />
    <glyph glyph-name="asciicircum" unicode="^" horiz-adv-x="833" 
d="M700 1414l193 -472h-92l-161 391l-291 -391h-93l352 472h92z" />
    <glyph glyph-name="underscore" unicode="_" horiz-adv-x="794" 
d="M-50 -27h884l-13 -79h-884z" />
    <glyph glyph-name="grave" unicode="`" horiz-adv-x="441" 
d="M412 1137l116 -165h-75l-188 165h147z" />
    <glyph glyph-name="a" unicode="a" horiz-adv-x="1122" 
d="M1033 0l-80 0.000976562l30 177c-18.667 -20.667 -38.667 -40.334 -60 -59.001c-110.667 -95.333 -233.334 -143 -368.001 -143c-133.333 0 -239.5 47.5 -318.5 142.5s-107.5 209.167 -85.5 342.5c22.667 134.667 89.5 249.334 200.5 344.001s233.167 142 366.5 142
c134.667 0 241.334 -47.333 320.001 -142c14.667 -18.667 28 -38.334 40 -59.001l21 123h80zM1017 382.001l27.002 157.001c-2 78 -27.333 146.333 -76 205c-65.333 78.667 -153.333 118 -264 118s-211.834 -39.333 -303.501 -118s-146.834 -173.334 -165.501 -284.001
c-18 -110.667 5.66699 -205 71 -283s153.333 -117 264 -117s211.667 39.333 303 118c68.667 58.667 116.667 126.667 144 204z" />
    <glyph glyph-name="b" unicode="b" horiz-adv-x="1131" 
d="M336 1414l80 0.000976562l-112 -668c18 20 38 39.333 60 58c110 94.667 232 142 366 142s240.5 -47.333 319.5 -142s107.167 -209.334 84.5 -344.001c-22 -133.333 -88.333 -247.5 -199 -342.5s-233 -142.5 -367 -142.5s-240.333 47.667 -319 143
c-16 18.667 -29.667 38 -41 58l-29 -176h-80zM270 543.001l-28.001 -166.002c2 -75.333 27.333 -141.666 76 -198.999c65.333 -78.667 153.333 -118 264 -118s211.667 39 303 117s146.333 172.333 165 283s-4.66602 205.334 -69.999 284.001s-153.333 118 -264 118
s-211.667 -39.333 -303 -118c-68 -58 -115.667 -125 -143 -201z" />
    <glyph glyph-name="c" unicode="c" horiz-adv-x="985" 
d="M884 209l79.002 -31c-18.667 -20.667 -39.334 -40.667 -62.001 -60c-110.667 -95.333 -233.334 -143 -368.001 -143c-133.333 0 -239.5 47.5 -318.5 142.5s-107.167 209.5 -84.5 343.5c22 134 88.5 248.333 199.5 343s233.167 142 366.5 142
c134.667 0 241.334 -47.333 320.001 -142c16 -19.333 30 -39.333 42 -60l-89 -31l-23 32c-65.333 78 -153.333 117 -264 117c-110 0 -210.833 -39.167 -302.5 -117.5s-146.5 -172.833 -164.5 -283.5c-18.667 -110.667 4.66602 -205.167 69.999 -283.5s153 -117.5 263 -117.5
c110.667 0 211.667 39.333 303 118c12 10 23 20.333 33 31z" />
    <glyph glyph-name="d" unicode="d" horiz-adv-x="1122" 
d="M1033 0l-80 0.000976562l30 177c-18.667 -20.667 -38.667 -40.334 -60 -59.001c-110.667 -95.333 -233.334 -143 -368.001 -143c-133.333 0 -239.5 47.5 -318.5 142.5s-107.5 209.167 -85.5 342.5c22.667 134.667 89.5 249.334 200.5 344.001s233.167 142 366.5 142
c134.667 0 241.334 -47.333 320.001 -142c14.667 -18.667 28 -38.334 40 -59.001l112 669h80zM1017 382.001l27.002 157.001c-2 78 -27.333 146.333 -76 205c-65.333 78.667 -153.333 118 -264 118s-211.834 -39.333 -303.501 -118s-146.834 -173.334 -165.501 -284.001
c-18 -110.667 5.66699 -205 71 -283s153.333 -117 264 -117s211.667 39.333 303 118c68.667 58.667 116.667 126.667 144 204z" />
    <glyph glyph-name="e" unicode="e" horiz-adv-x="1042" 
d="M253 586l762.001 -0.000976562c-8.66699 60.667 -31.667 113.334 -69 158.001c-65.333 78.667 -153.333 118 -264 118s-212 -39.333 -304 -118c-54.667 -47.333 -96.334 -100 -125.001 -158zM224.001 504.999c-4.66699 -14 -8.33301 -29.001 -11 -45.001
c-18 -110.667 5.66699 -205 71 -283s153.333 -117 264 -117s211.667 39.333 303 118c16 13.333 31 27.333 45 42l80 -30c-12.667 -16.667 -37.667 -40.667 -75 -72c-110.667 -95.333 -233.334 -143 -368.001 -143c-133.333 0 -239.5 47.5 -318.5 142.5
s-107.5 209.167 -85.5 342.5c22.667 134.667 89.5 249.334 200.5 344.001s233.167 142 366.5 142c134.667 0 241.334 -47.333 320.001 -142c69.333 -84 94.333 -183.667 75 -299h-867z" />
    <glyph glyph-name="f" unicode="f" horiz-adv-x="383" 
d="M322 788l-132.001 -787.999h-80l132 788h-88l13 80h88l40 235c14.667 65.333 49 121.666 103 168.999c56 44.667 115.333 67 178 67c33.333 0 67.333 -6.33301 102 -19l-37 -71c-22.667 10.667 -45.667 16 -69 16c-41.333 0 -83.666 -16.667 -126.999 -50
c-38 -32.667 -61.667 -72 -71 -118l-39 -229h177l-13 -80h-177z" />
    <glyph glyph-name="g" unicode="g" horiz-adv-x="1083" 
d="M1021 543c-2.66699 76 -27.665 143.001 -74.998 201.001c-65.333 78.667 -153.333 118 -264 118s-211.834 -39.333 -303.501 -118s-146.834 -173.334 -165.501 -284.001c-18 -110.667 5.5 -205.167 70.5 -283.5s152.833 -117.5 263.5 -117.5s212 39.333 304 118
c66 56.667 113.333 123 142 199zM958.002 172.001c-18 -18.667 -37.001 -36.666 -57.001 -53.999c-110.667 -95.333 -233.334 -143 -368.001 -143c-133.333 0 -239.5 47.5 -318.5 142.5s-107.5 209.167 -85.5 342.5c22.667 134.667 89.5 249.167 200.5 343.5
s233.167 141.5 366.5 141.5c134.667 0 241.334 -47 320.001 -141c14.667 -18.667 28 -38.334 40 -59.001l21 123h80l-113 -674c-22 -130.667 -87 -242 -195 -334c-110.667 -95.333 -233 -143 -367 -143s-240.667 47.667 -320 143c-16 19.333 -30 39.333 -42 60l89 31
c7.33301 -10.667 15.333 -21 24 -31c64.667 -78.667 152.334 -118 263.001 -118c110 0 211 39.333 303 118c83.333 71.333 136.333 155.333 159 252z" />
    <glyph glyph-name="h" unicode="h" horiz-adv-x="859" 
d="M331 1414l79.999 -0.00195312l-99 -591c77.333 64.667 163.333 97 258 97c102 0 179.833 -32.167 233.5 -96.5s73.167 -145.166 58.5 -242.499l-97 -581h-80l96 573c12 74 -4.16699 137 -48.5 189s-102.833 78 -175.5 78c-73.333 0 -140.666 -25.667 -201.999 -77
c-28 -23.333 -50 -47.666 -66 -72.999l-115 -690h-80z" />
    <glyph glyph-name="i" unicode="i" horiz-adv-x="317" 
d="M343 868l-145 -868h-79l145 868h79zM407.5 1152c13 -15.333 17.833 -33.666 14.5 -54.999c-4 -22.667 -15.167 -41.667 -33.5 -57s-38.166 -23 -59.499 -23c-22 0 -39.5 7.66699 -52.5 23s-17.5 34.333 -13.5 57c3.33301 21.333 14.166 39.666 32.499 54.999
s38.5 23 60.5 23c21.333 0 38.5 -7.66699 51.5 -23z" />
    <glyph glyph-name="j" unicode="j" horiz-adv-x="284" 
d="M-31 -122c72.667 8 115 48 127 120l146 870h79l-146 -868c-19.333 -119.333 -92 -184 -218 -194zM384.5 1152c13 -15.333 17.834 -33.666 14.501 -54.999c-4 -22.667 -15 -41.667 -33 -57s-37.667 -23 -59 -23c-22 0 -39.667 7.66699 -53 23s-18 34.333 -14 57
c3.33301 21.333 14.166 39.666 32.499 54.999s38.5 23 60.5 23c21.333 0 38.5 -7.66699 51.5 -23z" />
    <glyph glyph-name="k" unicode="k" horiz-adv-x="635" 
d="M667 868l-258 -265l240 -603h-98l-205 539l-93 -96l-74 -443h-80l207 1237h80l-112 -667l291 298h102z" />
    <glyph glyph-name="l" unicode="l" horiz-adv-x="300" 
d="M427 1414l-237 -1414h-80l237 1414h80z" />
    <glyph glyph-name="m" unicode="m" horiz-adv-x="1148" 
d="M244 868h80.0049l-3 -21c57.333 48 120.333 72 189 72c71.333 0 127.666 -25 168.999 -75c11.333 -13.333 20.666 -28 27.999 -44c13.333 15.333 28 30 44 44c58.667 50 123.667 75 195 75s127.666 -25 168.999 -75c39.333 -48.667 54.666 -106.667 45.999 -174
l-112 -670h-80l112 670h1c6 46 -4.66699 85 -32 117c-30 34.667 -69.333 52 -118 52c-49.333 0 -94.333 -17.333 -135 -52s-65.334 -78 -74.001 -130l-110 -657h-79l112 670h1c5.33301 46 -5.66699 85 -33 117c-30 34.667 -69.333 52 -118 52s-93 -17.333 -133 -52
c-36 -30 -59.667 -66.667 -71 -110l-113 -677h-80z" />
    <glyph glyph-name="n" unicode="n" horiz-adv-x="879" 
d="M292 674l-113.003 -674h-80l145 868h80l-9 -56c84 72 174 108 270 108c102.667 0 180.834 -32.167 234.501 -96.5s72.834 -145.166 57.501 -242.499l-97 -581h-79l96 573c12 74 -4.16699 137 -48.5 189s-103.166 78 -176.499 78c-72.667 0 -140 -25.667 -202 -77
c-34 -28.667 -60 -58.334 -78 -89.001z" />
    <glyph glyph-name="o" unicode="o" horiz-adv-x="1114" 
d="M716 946c134.667 0 241.168 -47.333 319.501 -142s106.166 -209.334 83.499 -344.001c-22 -133.333 -88.167 -247.5 -198.5 -342.5s-232.833 -142.5 -367.5 -142.5c-133.333 0 -239.5 47.5 -318.5 142.5s-107.5 209.167 -85.5 342.5
c22.667 134.667 89.5 249.334 200.5 344.001s233.167 142 366.5 142zM398.501 744c-91.667 -78.667 -146.832 -173.334 -165.499 -284.001c-18 -110.667 5.66699 -205 71 -283s153.333 -117 264 -117s211.667 39 303 117s146 172.333 164 283
c18.667 110.667 -4.5 205.334 -69.5 284.001s-152.833 118 -263.5 118s-211.834 -39.333 -303.501 -118z" />
    <glyph glyph-name="p" unicode="p" horiz-adv-x="1110" 
d="M238 868h79.999l-21 -122c18 20 38 39.333 60 58c110.667 94 233 141 367 141s240.333 -47.167 319 -141.5s106.667 -208.833 84 -343.5c-22 -133.333 -88.333 -247.5 -199 -342.5s-233 -142.5 -367 -142.5s-240.333 47.667 -319 143
c-15.333 18.667 -28.666 38 -39.999 58l-85 -507h-80zM262.999 543l-28.001 -166.001c2 -76 27.333 -142.667 76 -200c65.333 -78.667 153.333 -118 264 -118s211.834 39.167 303.501 117.5s146.5 172.833 164.5 283.5c18.667 110.667 -4.5 205.334 -69.5 284.001
s-152.833 118 -263.5 118s-212 -39.333 -304 -118c-68 -58 -115.667 -125 -143 -201z" />
    <glyph glyph-name="q" unicode="q" horiz-adv-x="1107" 
d="M964 -331l-80 0.00195312l85 508c-18.667 -20.667 -38.667 -40.334 -60 -59.001c-110.667 -95.333 -233.334 -143 -368.001 -143c-133.333 0 -239.5 47.5 -318.5 142.5s-107.5 209.167 -85.5 342.5c22.667 134.667 89.5 249.167 200.5 343.5s233.167 141.5 366.5 141.5
c134.667 0 241.334 -47 320.001 -141c14.667 -18.667 28 -38.334 40 -59.001l21 123h80zM1003 382.002l27.002 157.001c-2 78 -27.333 146.333 -76 205c-65.333 78.667 -153.333 118 -264 118s-211.834 -39.333 -303.501 -118s-146.834 -173.334 -165.501 -284.001
c-18 -110.667 5.5 -205.167 70.5 -283.5s152.833 -117.5 263.5 -117.5s212 39.333 304 118c68.667 58.667 116.667 127 144 205z" />
    <glyph glyph-name="r" unicode="r" horiz-adv-x="406" 
d="M540 798c-58.667 -8.66699 -120.667 -44.667 -186 -108c-64.667 -63.333 -102.667 -127.333 -114 -192l-83 -498h-80l145 868h80l-31 -188c48 87.333 127 152.333 237 195z" />
    <glyph glyph-name="s" unicode="s" horiz-adv-x="644" 
d="M402 466c-61.333 36.667 -102.668 67.9951 -124.001 93.9951c-34 40.667 -46.333 89.667 -37 147c10 57.333 38.667 106.5 86 147.5s99.666 61.5 156.999 61.5s102 -19 134 -57c30 -36.667 41.333 -78.667 34 -126l-1 -4l-74 -28c1.33301 44.667 -7 78.334 -25 101.001
s-45 34 -81 34c-35.333 0 -67.833 -12.667 -97.5 -38s-47.5 -55.666 -53.5 -90.999s1.66699 -65.666 23 -90.999c12 -15.333 39.333 -38 82 -68c68 -40.667 115.333 -77 142 -109c42 -50.667 57 -111 45 -181c-12 -72 -47.167 -133.167 -105.5 -183.5
s-123.166 -75.5 -194.499 -75.5s-127.833 25.167 -169.5 75.5s-57.5 105.5 -47.5 165.5l82 20c-8 -51.333 2.5 -94.5 31.5 -129.5s67.833 -52.5 116.5 -52.5s93.667 17.5 135 52.5s66 77.5 74 127.5c8 48.667 -2.66699 90.334 -32 125.001
c-15.333 18.667 -48.666 46.334 -99.999 83.001z" />
    <glyph glyph-name="t" unicode="t" horiz-adv-x="497" 
d="M354 868l62 369h79l-62 -369h177l-13 -80h-177l-132 -788h-79l132 788h-177l13 80h177z" />
    <glyph glyph-name="u" unicode="u" horiz-adv-x="880" 
d="M443 -12c-108.667 0 -189.668 32.001 -243.001 96.001s-72.666 145 -57.999 243l90 542h80l-89 -535c-12.667 -73.333 3.33301 -136 48 -188c44 -52.667 105.333 -79 184 -79c73.333 0 140.833 26.167 202.5 78.5s98.834 115.166 111.501 188.499l89 535h80l-90 -542
c-18.667 -98 -65.334 -179 -140.001 -243s-163 -96 -265 -96z" />
    <glyph glyph-name="v" unicode="v" horiz-adv-x="814" 
d="M959 868l-533 -868h-42l-239 868h93l191 -723l437 723h93z" />
    <glyph glyph-name="w" unicode="w" horiz-adv-x="1094" 
d="M1239 868l-440 -868h-50l-108 566l-296 -566h-51l-149 868h91l111 -713l298 565h45l110 -565l348 713h91z" />
    <glyph glyph-name="x" unicode="x" horiz-adv-x="662" 
d="M362 459l-187 409h93l152 -335l264 335h93l-323 -409l208 -459h-92l-175 384l-303 -384h-92z" />
    <glyph glyph-name="y" unicode="y" horiz-adv-x="779" 
d="M150 -330h-89l311 491l-212 707h89l184 -606l387 606h89z" />
    <glyph glyph-name="z" unicode="z" horiz-adv-x="743" 
d="M640 776h-448l13 79h585l-579 -775h483l-13 -80h-619z" />
    <glyph glyph-name="braceleft" unicode="{" horiz-adv-x="516" 
d="M211 724c97.333 19.333 162.335 127.666 195.002 324.999l6 32c49.333 294.667 152 450.667 308 468l-10 -60c-108.667 -27.333 -184.334 -168.666 -227.001 -423.999l-7 -42c-25.333 -152 -73 -253.667 -143 -305c52.667 -51.333 66.334 -153 41.001 -305l-7 -42
c-42.667 -255.333 -14.334 -396.666 84.999 -423.999l-10 -60c-150.667 17.333 -201.334 173.333 -152.001 468l6 32c32.667 197.333 3.66699 305.666 -87 324.999z" />
    <glyph glyph-name="bar" unicode="|" horiz-adv-x="480" 
d="M517 1414l-258 -1540h-80l258 1540h80z" />
    <glyph glyph-name="braceright" unicode="}" horiz-adv-x="516" 
d="M545 712c-97.333 -19.333 -162.335 -127.666 -195.002 -324.999l-6 -32c-49.333 -294.667 -152 -450.667 -308 -468l10 60c108.667 27.333 184.334 168.666 227.001 423.999l7 42c25.333 152 73 253.667 143 305c-52.667 51.333 -66.334 153 -41.001 305l7 42
c42.667 255.333 14.334 396.666 -84.999 423.999l10 60c150.667 -17.333 201.334 -173.333 152.001 -468l-6 -32c-32.667 -197.333 -3.66699 -305.666 87 -324.999z" />
    <glyph glyph-name="asciitilde" unicode="~" horiz-adv-x="1057" 
d="M656 761c100 -64.667 175.33 -96.999 225.997 -96.999c8.66699 0 16.334 1 23.001 3c47.333 13.333 84.333 42.666 111 87.999c12 22.667 20 45.667 24 69l78 -13c-6.66699 -28 -18 -56.667 -34 -86c-38.667 -65.333 -92 -108.666 -160 -129.999
c-15.333 -4.66699 -32 -7 -50 -7c-62 0 -139.333 29 -232 87c-101.333 64 -176.666 96 -225.999 96c-8 0 -15.667 -0.666992 -23 -2c-47.333 -14 -84 -43.667 -110 -89c-12.667 -22.667 -21 -45.334 -25 -68.001l-78 13c6 28 17 56.333 33 85
c38.667 65.333 92.334 109 161.001 131c15.333 4.66699 32 7 50 7c62 0 139.333 -29 232 -87z" />
    <glyph glyph-name="exclamdown" unicode="&#xa1;" horiz-adv-x="269" 
d="M288.5 1291c-13 15.333 -17.833 34 -14.5 56c4 22 15.167 40.667 33.5 56s38.166 23 59.499 23c22 0 39.5 -7.66699 52.5 -23s17.5 -34 13.5 -56c-3.33301 -22 -14.166 -40.667 -32.499 -56s-38.5 -23 -60.5 -23c-21.333 0 -38.5 7.66699 -51.5 23zM90 0l196 1170h80
l-196 -1170h-80z" />
    <glyph glyph-name="cent" unicode="&#xa2;" horiz-adv-x="1070" 
d="M670 563c84.667 1.33301 162.335 32.332 233.002 92.999c8.66699 7.33301 18.334 16.333 29.001 27l72 -28c-18.667 -20.667 -37 -39 -55 -55c-88.667 -76 -186.334 -114.667 -293.001 -116l-22 -136h-79l23 142c-74.667 14 -136.334 50.667 -185.001 110
c-64.667 76.667 -88 169.334 -70 278.001c18.667 108.667 73 201.667 163 279c68.667 58.667 142.667 95 222 109l24 143h79l-23 -137c106 -0.666992 190.667 -39 254 -115c12.667 -16 25 -34 37 -54l-82 -29c-6.66699 10.667 -13 20 -19 28
c-50.667 60 -118.334 90.667 -203.001 92zM695.001 1186c-58.667 -13.333 -113 -41.333 -163 -84c-72 -62 -115.333 -136.667 -130 -224c-14 -86.667 4.33301 -160.667 55 -222c36 -44 81 -72.333 135 -85z" />
    <glyph glyph-name="sterling" unicode="&#xa3;" horiz-adv-x="892" 
d="M223 80l612.002 0.000976562l-13 -80h-719l13 78c136 114 212.333 221.667 229 323c5.33301 30 8 59.667 8 89h-201l13 80h184c-6 56 -18.667 111.667 -38 167c-47.333 106 -65.666 218.333 -54.999 337c13.333 81.333 52.666 154.666 117.999 219.999
c79.333 72 169.666 110.333 270.999 115c7.33301 0.666992 15 1 23 1c90 0 160.667 -25 212 -75l-44 -72c-38.667 44.667 -97.334 67 -176.001 67h-16c-86.667 -3.33301 -158 -33 -214 -89c-50 -50 -80 -105.667 -90 -167c-8 -84.667 1 -169 27 -253
c37.333 -81.333 59 -165 65 -251h175l-13 -80h-160c-1.33301 -26.667 -4.33301 -54 -9 -82c-16.667 -102 -84 -211.333 -202 -328z" />
    <glyph glyph-name="currency" unicode="&#xa4;" horiz-adv-x="1070" 
d="M477 992c72.667 52 151.666 78 236.999 78s155.333 -26 210 -78l144 123l47 -57l-144 -123c42 -63.333 56 -137.666 42 -222.999s-52.667 -160 -116 -224l102 -123l-66 -56l-103 123c-72 -52.667 -150.667 -79 -236 -79s-155.666 26.333 -210.999 79l-142 -123l-48 56
l144 123c-42 64 -56 138.667 -42 224s52.667 159.666 116 222.999l-102 123l67 57zM857.999 935c-41.333 37.333 -93.668 56 -157.001 56c-64 0 -123 -18.667 -177 -56c-11.333 -7.33301 -22.666 -15.666 -33.999 -24.999c-11.333 -10 -22 -20.333 -32 -31
c-44.667 -48 -72.334 -103.667 -83.001 -167c-10.667 -64 -1.66699 -119.667 27 -167c6 -10.667 13.333 -20.667 22 -30c8 -10 16.667 -19 26 -27c40.667 -36.667 93 -55 157 -55c63.333 0 122.333 18.333 177 55c12 8 23.667 17 35 27c10.667 9.33301 20.667 19.333 30 30
c45.333 47.333 73.333 103 84 167c10.667 63.333 1.33398 119 -27.999 167c-5.33301 10.667 -12 21 -20 31c-8 9.33301 -17 17.666 -27 24.999z" />
    <glyph glyph-name="yen" unicode="&#xa5;" horiz-adv-x="1070" 
d="M651 667l556 747h91l-557 -747h260l-13 -79h-306l-11 -16l-15 -90h314l-13 -80h-314l-68 -402h-80l68 402h-313l13 80h313l15 90l-6 16h-304l13 79h258l-306 747h91l305 -747h9z" />
    <glyph glyph-name="brokenbar" unicode="&#xa6;" horiz-adv-x="480" 
d="M517 1414l-111 -662h-80l111 662h80zM369 531l-111 -662h-80l111 662h80z" />
    <glyph glyph-name="section" unicode="&#xa7;" horiz-adv-x="1070" 
d="M834 195c8 8 17.334 16.333 28.001 25c43.333 37.333 73 103.333 89 198c15.333 93.333 -4.66699 173.333 -60 240c-49.333 58 -113.333 104.333 -192 139c-94.667 34 -166.334 80 -215.001 138c-20.667 25.333 -36 53 -46 83c-7.33301 -8 -16.333 -16.333 -27 -25
c-42.667 -37.333 -72 -103 -88 -197s4 -174.333 60 -241c48 -58 111.333 -104.333 190 -139c95.333 -34 167.333 -80 216 -138c21.333 -25.333 36.333 -53 45 -83zM428.001 1093c-0.666992 17.333 0.668945 35.334 4.00195 54.001
c13.333 81.333 53.833 149.666 121.5 204.999s143.167 83 226.5 83c82 0 148.333 -25.667 199 -77c26.667 -31.333 43 -66.333 49 -105l-76 -29c-6 29.333 -19 56 -39 80c-35.333 42 -83.333 63 -144 63s-116.167 -21.333 -166.5 -64s-80.5 -94.667 -90.5 -156
c-10.667 -60.667 2 -112.334 38 -155.001c33.333 -39.333 82.666 -75.666 147.999 -108.999c106.667 -36.667 192.334 -93.334 257.001 -170.001c68 -81.333 92.333 -179.666 73 -294.999c-20 -116.667 -60.333 -201 -121 -253c-24.667 -21.333 -45 -36.333 -61 -45
c-0.666992 -17.333 -2.33398 -35.333 -5.00098 -54c-14 -81.333 -54.667 -149.666 -122 -204.999s-142.333 -83 -225 -83s-149 26 -199 78c-28 30.667 -44.667 65.667 -50 105l76 28c6 -28.667 19 -55.334 39 -80.001c36 -42 84.333 -63 145 -63s116 21.333 166 64
s80.333 94.667 91 156c10 60.667 -3 112.334 -39 155.001c-33.333 40 -82.666 76.333 -147.999 109c-106.667 36.667 -192 93.667 -256 171c-68.667 81.333 -93.334 179.666 -74.001 294.999c19.333 116 59.666 200 120.999 252c24 21.333 44.667 36.333 62 45z" />
    <glyph glyph-name="dieresis" unicode="&#xa8;" horiz-adv-x="574" 
d="M396.5 1112c13 -15.333 17.833 -33.666 14.5 -54.999c-4 -22.667 -15.167 -41.667 -33.5 -57s-38.166 -23 -59.499 -23c-22 0 -39.5 7.66699 -52.5 23s-17.5 34.333 -13.5 57c3.33301 21.333 14.166 39.666 32.499 54.999s38.5 23 60.5 23
c21.333 0 38.5 -7.66699 51.5 -23zM661.5 1112c13 -15.333 17.833 -33.666 14.5 -54.999c-4 -22.667 -15.167 -41.667 -33.5 -57s-38.166 -23 -59.499 -23c-22 0 -39.5 7.66699 -52.5 23s-17.5 34.333 -13.5 57c3.33301 21.333 14.166 39.666 32.499 54.999s38.5 23 60.5 23
c21.333 0 38.5 -7.66699 51.5 -23z" />
    <glyph glyph-name="copyright" unicode="&#xa9;" horiz-adv-x="1217" 
d="M812 412l73 -28.001c-16 -21.333 -29.667 -38 -41 -50c-58.667 -58.667 -129.334 -88 -212.001 -88s-153.334 29.333 -212.001 88s-88 129.334 -88 212.001s29.333 153.167 88 211.5s129.334 87.5 212.001 87.5s153.334 -29 212.001 -87
c11.333 -12.667 25 -29.667 41 -51l-73 -27l-22 25c-44 43.333 -96.667 65 -158 65c-62 0 -115 -21.833 -159 -65.5s-66 -96.5 -66 -158.5s22 -115 66 -159s97 -66 159 -66c61.333 0 114 22 158 66c6 6 13.333 14.333 22 25zM1003.5 939.999
c109 -109.333 163.5 -241 163.5 -395s-54.5 -285.5 -163.5 -394.5s-240.833 -163.5 -395.5 -163.5c-154 0 -285.5 54.5 -394.5 163.5s-163.5 240.5 -163.5 394.5s54.5 285.667 163.5 395s240.5 164 394.5 164c154.667 0 286.5 -54.667 395.5 -164zM608 1028
c-132.667 0 -246.167 -47.167 -340.5 -141.5s-141.5 -208.166 -141.5 -341.499s47.167 -247 141.5 -341s207.833 -141 340.5 -141c133.333 0 247.166 47 341.499 141s141.5 207.667 141.5 341s-47.167 247.166 -141.5 341.499s-208.166 141.5 -341.499 141.5z" />
    <glyph glyph-name="ordfeminine" unicode="&#xaa;" horiz-adv-x="554" 
d="M678 941h-59.998l14 86c-8.66699 -10 -18.334 -19.333 -29.001 -28c-53.333 -46.667 -112.666 -70 -177.999 -70c-64.667 0 -116.334 23.167 -155.001 69.5s-52.667 101.833 -42 166.5c11.333 65.333 44 121 98 167s113.333 69 178 69c65.333 0 117 -23 155 -69
c7.33301 -9.33301 13.666 -19 18.999 -29l10 60h60zM629.002 1131l11 68.001c-0.666992 34 -11.334 63.667 -32.001 89c-29.333 34 -67.666 51 -114.999 51c-48 0 -91.833 -17 -131.5 -51s-63.5 -75 -71.5 -123s2.16699 -88.833 30.5 -122.5s66.5 -50.5 114.5 -50.5
c47.333 0 91.333 17 132 51c29.333 25.333 50 54.666 62 87.999z" />
    <glyph glyph-name="guillemotleft" unicode="&#xab;" horiz-adv-x="816" 
d="M430 425l473 425l-19 -113l-342 -312l238 -311l-19 -114zM126 425l467 425l-19 -113l-343 -312l239 -311l-19 -114z" />
    <glyph glyph-name="logicalnot" unicode="&#xac;" horiz-adv-x="1070" 
d="M939 292h-80v339h-720v80h800v-419z" />
    <glyph glyph-name="registered" unicode="&#xae;" horiz-adv-x="1175" 
d="M526 1043l0.000976562 -192h69c83.333 0 126.666 34.333 129.999 103c0 59.333 -40 89 -120 89h-79zM573.001 781l-46.999 -0.00292969v-195h-87v526h148c140 -1.33301 213.667 -55.333 221 -162c0 -79.333 -53.333 -131.666 -160 -156.999
c86.667 -144 170 -207.667 250 -191s130 102 150 256c0 127.333 -44.833 236 -134.5 326s-198.167 135 -325.5 135s-236 -45 -326 -135s-135 -198.667 -135 -326s45 -236 135 -326s233.667 -135 431 -135c98 0 196.333 36.667 295 110v-77
c-104 -73.333 -207.667 -110 -311 -110c-208 0 -364.5 52.5 -469.5 157.5s-157.5 231.833 -157.5 380.5s52.5 273.834 157.5 375.501s231.833 152.5 380.5 152.5c148 0 274.5 -50.833 379.5 -152.5s157.5 -226.834 157.5 -375.501
c-20 -195.333 -96.833 -301.166 -230.5 -317.499s-240.834 63.834 -321.501 240.501z" />
    <glyph glyph-name="macron" unicode="&#xaf;" horiz-adv-x="671" 
d="M251 1053h521l-13 -80h-521z" />
    <glyph glyph-name="degree" unicode="&#xb0;" horiz-adv-x="382" 
d="M514.5 1313.5c23.667 -29 32.1641 -63.5 25.4971 -103.5c-6.66699 -40.667 -26.667 -75.334 -60 -104.001s-70.333 -43 -111 -43s-73 14.333 -97 43s-32.667 63.334 -26 104.001c6.66699 40 26.834 74.5 60.501 103.5s70.834 43.5 111.501 43.5
s72.834 -14.5 96.501 -43.5zM406.997 1292c-22.667 0 -43.333 -8 -62 -24s-30 -35.333 -34 -58c-3.33301 -22.667 1.5 -42.167 14.5 -58.5s30.833 -24.5 53.5 -24.5s43.5 8.16699 62.5 24.5s30.167 35.833 33.5 58.5c4 22.667 -0.666992 42 -14 58s-31.333 24 -54 24z" />
    <glyph glyph-name="plusminus" unicode="&#xb1;" horiz-adv-x="1070" 
d="M495 230v403h-410v80h410v410h80v-410h410v-80h-410v-403h-80zM85 0v80h900v-80h-900z" />
    <glyph glyph-name="uni00B2" unicode="&#xb2;" horiz-adv-x="750" 
d="M232 589c314.667 307.333 479.666 506.665 494.999 597.998c12.667 93.333 -26.666 140.333 -117.999 141c-62 -3.33301 -106.333 -23.666 -133 -60.999l-71 32c52 62.667 124.333 96 217 100c152.667 -3.33301 217.667 -72.666 195 -207.999
c-18 -105.333 -159 -283.333 -423 -534h333l-11 -68h-484z" />
    <glyph glyph-name="uni00B3" unicode="&#xb3;" horiz-adv-x="750" 
d="M516 1033l-54.999 -0.00195312l11 67c42 0.666992 72.667 4.33398 92 11.001s42.166 21 68.499 43s42.166 48.333 47.499 79c5.33301 31.333 -1.5 57 -20.5 77s-43.5 30 -73.5 30s-57.667 -9.66699 -83 -29c-14.667 -12 -29.334 -30.333 -44.001 -55l-72 28
c14.667 29.333 34.334 53.666 59.001 72.999c45.333 35.333 96 53 152 53s100.167 -17.667 132.5 -53s44.5 -76.666 36.5 -123.999c-12.667 -75.333 -65 -131.333 -157 -168c55.333 -4.66699 97.666 -24.667 126.999 -60c42 -50 57.667 -107.667 47 -173
c-11.333 -66.667 -47.166 -124.167 -107.499 -172.5s-128.5 -72.5 -204.5 -72.5c-75.333 0 -135.666 24.667 -180.999 74c-34.667 38 -52 85 -52 141l88 28c-2.66699 -53.333 9.33301 -94.666 36 -123.999c30.667 -32 71 -48 121 -48c50.667 0 97 16.5 139 49.5
s67 74.5 75 124.5c8 48.667 -3 91 -33 127s-79.667 60.667 -149 74z" />
    <glyph glyph-name="acute" unicode="&#xb4;" horiz-adv-x="441" 
d="M557 1137l-245 -165h-74l172 165h147z" />
    <glyph glyph-name="mu" unicode="&#xb5;" horiz-adv-x="815" 
d="M676 98c-3.33301 -2.66699 -7.00098 -6 -11.001 -10c-75.333 -64 -164 -96 -266 -96c-94.667 0 -170 32.333 -226 97l-70 -420h-80l201 1199h80l-108 -646c6.66699 -25.333 20 -50 40 -74c44 -50.667 102.667 -76 176 -76c72.667 0 140.334 26 203.001 78
c40 34 69.667 72.333 89 115l101 603h78l-146 -868h-78z" />
    <glyph glyph-name="paragraph" unicode="&#xb6;" horiz-adv-x="1070" 
d="M975 1336l-266.999 -1597h-79l126 752h-135c-127.333 0 -228.5 45 -303.5 135s-101.833 199 -80.5 327c21.333 127.333 84.666 236 189.999 326c88 75.333 187 120.333 297 135h71v1h434l-13 -79h-78l-267 -1597h-80l267 1597h-82z" />
    <glyph glyph-name="periodcentered" unicode="&#xb7;" horiz-adv-x="245" 
d="M296.5 754.5c11 -13 15.165 -28.833 12.498 -47.5c-3.33301 -18.667 -12.833 -34.5 -28.5 -47.5s-32.5 -19.5 -50.5 -19.5c-18.667 0 -33.5 6.5 -44.5 19.5s-14.833 28.833 -11.5 47.5c2.66699 18.667 11.834 34.5 27.501 47.5s32.834 19.5 51.501 19.5
c18 0 32.5 -6.5 43.5 -19.5z" />
    <glyph glyph-name="periodcentered" unicode="&#x2219;" horiz-adv-x="245" 
d="M296.5 754.5c11 -13 15.165 -28.833 12.498 -47.5c-3.33301 -18.667 -12.833 -34.5 -28.5 -47.5s-32.5 -19.5 -50.5 -19.5c-18.667 0 -33.5 6.5 -44.5 19.5s-14.833 28.833 -11.5 47.5c2.66699 18.667 11.834 34.5 27.501 47.5s32.834 19.5 51.501 19.5
c18 0 32.5 -6.5 43.5 -19.5z" />
    <glyph glyph-name="cedilla" unicode="&#xb8;" horiz-adv-x="464" 
d="M261 16l-38.001 -68c60.667 -4.66699 96.667 -25 108 -61c6 -19.333 7.66699 -38 5 -56c-2.66699 -15.333 -8.66699 -30 -18 -44c-20.667 -30 -52.334 -48.333 -95.001 -55c-15.333 -2.66699 -29.666 -4 -42.999 -4c-22.667 0 -41.667 3.66699 -57 11
c-24 11.333 -44 24.333 -60 39l44 40c18.667 -23.333 41 -35 67 -35c6.66699 0 13.667 1 21 3c32.667 7.33301 51.667 26.333 57 57l1 6c2.66699 28.667 -28 43 -92 43c-11.333 0 -23.666 -0.333008 -36.999 -1l73 125h64z" />
    <glyph glyph-name="uni00B9" unicode="&#xb9;" horiz-adv-x="750" 
d="M441 637l102 608l-77 -42l-55 41l240 144l-126 -751h184l-11 -68h-456l11 68h188z" />
    <glyph glyph-name="ordmasculine" unicode="&#xba;" horiz-adv-x="565" 
d="M493 1339c-48 0 -91.833 -17 -131.5 -51s-63.5 -75 -71.5 -123s2.16699 -88.833 30.5 -122.5s66.5 -50.5 114.5 -50.5h26c48 0 91.833 16.833 131.5 50.5s63.5 74.5 71.5 122.5s-2.16699 89 -30.5 123s-66.5 51 -114.5 51h-26zM425 929
c-64.667 0 -116.335 23.167 -155.002 69.5s-52.667 101.833 -42 166.5c11.333 65.333 44 121 98 167s113.333 69 178 69h26c64.667 0 116.334 -23 155.001 -69s52.334 -101.667 41.001 -167c-10.667 -64.667 -43 -120.167 -97 -166.5s-113.333 -69.5 -178 -69.5h-26z" />
    <glyph glyph-name="guillemotright" unicode="&#xbb;" horiz-adv-x="816" 
d="M55 0l19 114l341 311l-237 312l19 113l331 -425zM365 0l19 114l342 311l-238 312l19 113l325 -425z" />
    <glyph glyph-name="onequarter" unicode="&#xbc;" horiz-adv-x="1667" 
d="M441 637l102 608l-77 -42l-55 41l240 144l-126 -751h184l-11 -68h-456l11 68h188zM1703 1414l-1251 -1414h-102l1249 1414h104zM1620 880l-102 -612h81l-12 -67h-81l-33 -201h-84l33 201h-359zM1491 610l-279 -342h222z" />
    <glyph glyph-name="onehalf" unicode="&#xbd;" horiz-adv-x="1667" 
d="M441 637l102 608l-77 -42l-55 41l240 144l-126 -751h184l-11 -68h-456l11 68h188zM1703 1414l-1251 -1414h-102l1249 1414h104zM1050 0c314.667 307.333 479.667 506.665 495 597.998c12.667 93.333 -27 140.333 -119 141
c-61.333 -3.33301 -105.333 -23.666 -132 -60.999l-71 32c51.333 62.667 123.333 96 216 100c152.667 -3.33301 218 -72.666 196 -207.999c-18 -105.333 -159 -283.333 -423 -534h333l-11 -68h-484z" />
    <glyph glyph-name="threequarters" unicode="&#xbe;" horiz-adv-x="1667" 
d="M516 1033l-54.999 -0.00195312l11 67c42 0.666992 72.667 4.33398 92 11.001s42.166 21 68.499 43s42.166 48.333 47.499 79c5.33301 31.333 -1.5 57 -20.5 77s-43.5 30 -73.5 30s-57.667 -9.66699 -83 -29c-14.667 -12 -29.334 -30.333 -44.001 -55l-72 28
c14.667 29.333 34.334 53.666 59.001 72.999c45.333 35.333 96 53 152 53s100.167 -17.667 132.5 -53s44.5 -76.666 36.5 -123.999c-12.667 -75.333 -65 -131.333 -157 -168c55.333 -4.66699 97.666 -24.667 126.999 -60c42 -50 57.667 -107.667 47 -173
c-11.333 -66.667 -47.166 -124.167 -107.499 -172.5s-128.5 -72.5 -204.5 -72.5c-75.333 0 -135.666 24.667 -180.999 74c-34.667 38 -52 85 -52 141l88 28c-2.66699 -53.333 9.33301 -94.666 36 -123.999c30.667 -32 71 -48 121 -48c50.667 0 97 16.5 139 49.5
s67 74.5 75 124.5c8 48.667 -3 91 -33 127s-79.667 60.667 -149 74zM1703 1414l-1251 -1414h-102l1249 1414h104zM1620 879.998l-102 -612h81l-12 -67h-81l-33 -201h-84l33 201h-359zM1491 609.998l-279 -342h222z" />
    <glyph glyph-name="questiondown" unicode="&#xbf;" horiz-adv-x="752" 
d="M576 1331c3.33301 22 14.167 40.667 32.5 56s38.166 23 59.499 23c22 0 39.5 -7.66699 52.5 -23s17.833 -34 14.5 -56c-4 -22 -15 -40.667 -33 -56s-38 -23 -60 -23c-21.333 0 -38.666 7.66699 -51.999 23s-18 34 -14 56zM666.001 1063
c-0.666992 -9.33301 -2.00293 -18.333 -4.00293 -27c-22 -131.333 -92.333 -257.666 -211 -378.999c-141.333 -144.667 -225.666 -247.667 -252.999 -309c-10.667 -24 -17.667 -47 -21 -69c-6 -34.667 -3.33301 -66.667 8 -96
c17.333 -48.667 52.666 -83.334 105.999 -104.001c24.667 -9.33301 49.334 -14 74.001 -14c31.333 0 63 7 95 21c60 26 105 67.333 135 124c14 26 23 51.333 27 76l2 18l78 5c-0.666992 -10 -1.66699 -20.333 -3 -31c-5.33301 -30.667 -16.666 -61.667 -33.999 -93
c-49.333 -84.667 -116 -142.667 -200 -174c-42 -15.333 -82.333 -23 -121 -23c-39.333 0 -77 7.66699 -113 23c-72 32 -115.667 85.333 -131 160c-8 37.333 -9 74 -3 110c6 36.667 19 72.667 39 108c40 70.667 123.667 171.334 251 302.001
c112.667 116 177.667 226.667 195 332c2.66699 13.333 4.33398 26.666 5.00098 39.999h79z" />
    <glyph glyph-name="Agrave" unicode="&#xc0;" horiz-adv-x="1116" 
d="M891 701l-115 593l-316 -593h431zM837 1414l276 -1414h-84l-122 622h-489l-334 -622h-85l756 1414h82zM791 1683l116 -165h-75l-188 165h147z" />
    <glyph glyph-name="Aacute" unicode="&#xc1;" horiz-adv-x="1116" 
d="M891 701l-115 593l-316 -593h431zM837 1414l276 -1414h-84l-122 622h-489l-334 -622h-85l756 1414h82zM1032 1683l-245 -165h-74l172 165h147z" />
    <glyph glyph-name="Acircumflex" unicode="&#xc2;" horiz-adv-x="1116" 
d="M891 701l-115 593l-316 -593h431zM837 1414l276 -1414h-84l-122 622h-489l-334 -622h-85l756 1414h82zM1043 1519h-92l-127 106l-153 -106h-93l259 187z" />
    <glyph glyph-name="Atilde" unicode="&#xc3;" horiz-adv-x="1116" 
d="M891 701l-115 593l-316 -593h431zM837 1414l276 -1414h-84l-122 622h-489l-334 -622h-85l756 1414h82zM839 1633c34.667 -28.667 59.667 -43.001 75 -43.001h4c12.667 4.66699 23 15.334 31 32.001c4.66699 9.33301 9 25.666 13 48.999l63 -13
c-5.33301 -24.667 -12 -45 -20 -61c-18 -36.667 -42.667 -61.334 -74 -74.001c-8.66699 -2.66699 -17.334 -4 -26.001 -4c-27.333 0 -59.666 15 -96.999 45c-34.667 29.333 -59.667 44 -75 44c-2 0 -3.33301 -0.333008 -4 -1c-12 -4 -22 -14.667 -30 -32
c-5.33301 -9.33301 -10 -25.666 -14 -48.999l-62 14c4.66699 24.667 11 44.667 19 60c18 36.667 43 61.334 75 74.001c8 3.33301 16.667 5 26 5c27.333 0 59.333 -15.333 96 -46z" />
    <glyph glyph-name="Adieresis" unicode="&#xc4;" horiz-adv-x="1116" 
d="M891 701l-115 593l-316 -593h431zM837 1414l276 -1414h-84l-122 622h-489l-334 -622h-85l756 1414h82zM757 1658c13.333 -15.333 17.999 -33.666 13.999 -54.999c-3.33301 -22.667 -14.166 -41.667 -32.499 -57s-38.166 -23 -59.499 -23c-22 0 -39.5 7.66699 -52.5 23
s-17.833 34.333 -14.5 57c4 21.333 15 39.666 33 54.999s38 23 60 23c21.333 0 38.666 -7.66699 51.999 -23zM1022 1658c13.333 -15.333 17.999 -33.666 13.999 -54.999c-3.33301 -22.667 -14.166 -41.667 -32.499 -57s-38.166 -23 -59.499 -23
c-22 0 -39.5 7.66699 -52.5 23s-17.833 34.333 -14.5 57c4 21.333 15 39.666 33 54.999s38 23 60 23c21.333 0 38.666 -7.66699 51.999 -23z" />
    <glyph glyph-name="Aring" unicode="&#xc5;" horiz-adv-x="1116" 
d="M891 701l-115 593l-316 -593h431zM819 1573c-14 0 -26.833 -5 -38.5 -15s-18.5 -22.333 -20.5 -37c-2.66699 -14 0.166016 -26.167 8.49902 -36.5s19.5 -15.5 33.5 -15.5s26.833 5.16699 38.5 15.5s18.834 22.5 21.501 36.5c2 14.667 -1.16699 27 -9.5 37
s-19.5 15 -33.5 15zM837 1414l276 -1414h-84l-122 622h-489l-334 -622h-85l756 1414c-13.333 3.33301 -26 12.333 -38 27c-18 22 -24.333 48.667 -19 80c4.66699 31.333 19.834 58 45.501 80s54.167 33 85.5 33s56.166 -11 74.499 -33s25.166 -48.667 20.499 -80
c-5.33301 -31.333 -21 -58 -47 -80c-17.333 -14.667 -30.666 -23.667 -39.999 -27z" />
    <glyph glyph-name="AE" unicode="&#xc6;" horiz-adv-x="1443" 
d="M1456 747l-13 -80h-627l-99 -587h627l-13 -80h-706l91 542h-300l-332 -542h-85l852 1414h717l-14 -80h-627l-98 -587h627zM729 621l105 629l-376 -629h271z" />
    <glyph glyph-name="Ccedilla" unicode="&#xc7;" horiz-adv-x="1347" 
d="M727 -14c-169.333 14.667 -305.337 84.3311 -408.004 208.998c-118 140.667 -160.333 311.334 -127 512.001c33.333 199.333 132.5 369.833 297.5 511.5s347.833 212.5 548.5 212.5c186.667 0 338.334 -63 455.001 -189l-70 -54c-103.333 107.333 -236.333 161 -399 161
c-177.333 0 -339.333 -62.667 -486 -188s-235 -276.666 -265 -453.999c-29.333 -178 8.33398 -329.667 113.001 -455s245.667 -188 423 -188c162.667 0 313.667 53.667 453 161l52 -54c-159.333 -125.333 -332.333 -188 -519 -188h-5l-19 -35
c60.667 -4.66699 96.667 -25 108 -61c6 -19.333 7.66699 -38 5 -56c-2.66699 -15.333 -9 -30 -19 -44c-20 -30 -51.333 -48.333 -94 -55c-15.333 -2.66699 -29.666 -4 -42.999 -4c-22.667 0 -41.667 3.66699 -57 11c-24 11.333 -44 24.333 -60 39l44 40
c18.667 -23.333 41 -35 67 -35c6.66699 0 13.667 1 21 3c32.667 7.33301 51.667 26.333 57 57l1 6c2.66699 28.667 -28 43 -92 43c-11.333 0 -23.666 -0.333008 -36.999 -1z" />
    <glyph glyph-name="Egrave" unicode="&#xc8;" horiz-adv-x="931" 
d="M1056 1414l-14 -80h-627l-98 -587h627l-13 -80h-627l-99 -587h627l-13 -80h-707l237 1414h707zM701 1683l116 -165h-75l-188 165h147z" />
    <glyph glyph-name="Eacute" unicode="&#xc9;" horiz-adv-x="931" 
d="M1056 1414l-14 -80h-627l-98 -587h627l-13 -80h-627l-99 -587h627l-13 -80h-707l237 1414h707zM942 1683l-245 -165h-74l172 165h147z" />
    <glyph glyph-name="Ecircumflex" unicode="&#xca;" horiz-adv-x="931" 
d="M1056 1414l-14 -80h-627l-98 -587h627l-13 -80h-627l-99 -587h627l-13 -80h-707l237 1414h707zM952 1519h-92l-127 106l-153 -106h-93l259 187z" />
    <glyph glyph-name="Edieresis" unicode="&#xcb;" horiz-adv-x="931" 
d="M1056 1414l-14 -80h-627l-98 -587h627l-13 -80h-627l-99 -587h627l-13 -80h-707l237 1414h707zM667 1658c13.333 -15.333 17.999 -33.666 13.999 -54.999c-3.33301 -22.667 -14.166 -41.667 -32.499 -57s-38.166 -23 -59.499 -23c-22 0 -39.5 7.66699 -52.5 23
s-17.833 34.333 -14.5 57c4 21.333 15 39.666 33 54.999s38 23 60 23c21.333 0 38.666 -7.66699 51.999 -23zM931.999 1658c13.333 -15.333 17.999 -33.666 13.999 -54.999c-3.33301 -22.667 -14.166 -41.667 -32.499 -57s-38.166 -23 -59.499 -23
c-22 0 -39.5 7.66699 -52.5 23s-17.833 34.333 -14.5 57c4 21.333 15 39.666 33 54.999s38 23 60 23c21.333 0 38.666 -7.66699 51.999 -23z" />
    <glyph glyph-name="Igrave" unicode="&#xcc;" horiz-adv-x="324" 
d="M439 1414l-237 -1414h-80l237 1414h80zM397 1683l116 -165h-75l-188 165h147z" />
    <glyph glyph-name="Iacute" unicode="&#xcd;" horiz-adv-x="324" 
d="M439 1414l-237 -1414h-80l237 1414h80zM638 1683l-245 -165h-74l172 165h147z" />
    <glyph glyph-name="Icircumflex" unicode="&#xce;" horiz-adv-x="324" 
d="M420 1414l-237 -1414h-80l237 1414h80zM629 1519h-92l-127 106l-153 -106h-93l259 187z" />
    <glyph glyph-name="Idieresis" unicode="&#xcf;" horiz-adv-x="324" 
d="M439 1414l-237 -1414h-80l237 1414h80zM363 1658c13.333 -15.333 17.999 -33.666 13.999 -54.999c-3.33301 -22.667 -14.166 -41.667 -32.499 -57s-38.166 -23 -59.499 -23c-22 0 -39.5 7.66699 -52.5 23s-17.833 34.333 -14.5 57c4 21.333 15 39.666 33 54.999
s38 23 60 23c21.333 0 38.666 -7.66699 51.999 -23zM627.999 1658c13.333 -15.333 17.999 -33.666 13.999 -54.999c-3.33301 -22.667 -14.166 -41.667 -32.499 -57s-38.166 -23 -59.499 -23c-22 0 -39.5 7.66699 -52.5 23s-17.833 34.333 -14.5 57
c4 21.333 15 39.666 33 54.999s38 23 60 23c21.333 0 38.666 -7.66699 51.999 -23z" />
    <glyph glyph-name="Eth" unicode="&#xd0;" horiz-adv-x="1240" 
d="M340 667l-98 -585h181c203.333 0 373.333 56.667 510 170c146 125.333 234 277 264 455c29.333 177.333 -8 329 -112 455c-98.667 112.667 -249.667 169 -453 169h-181l-98 -584h492l-13 -80h-492zM273 747l111.999 667h262c232.667 -1.33301 402 -66.333 508 -195
c118 -142 160.333 -312.667 127 -512c-34 -200.667 -133.333 -371.667 -298 -513c-149.333 -128 -340.666 -192.667 -573.999 -194h-262l112 667h-128l13 80h128z" />
    <glyph glyph-name="Ntilde" unicode="&#xd1;" horiz-adv-x="1339" 
d="M447 1414l719 -1317l221 1317h80l-237 -1414h-123l-703 1286l-215 -1286h-80l237 1414h101zM952 1633c34.667 -28.667 59.667 -43.001 75 -43.001h4c12.667 4.66699 23 15.334 31 32.001c4.66699 9.33301 9 25.666 13 48.999l63 -13c-5.33301 -24.667 -12 -45 -20 -61
c-18 -36.667 -42.667 -61.334 -74 -74.001c-8.66699 -2.66699 -17.334 -4 -26.001 -4c-27.333 0 -59.666 15 -96.999 45c-34.667 29.333 -59.667 44 -75 44c-2 0 -3.33301 -0.333008 -4 -1c-12 -4 -22 -14.667 -30 -32c-5.33301 -9.33301 -10 -25.666 -14 -48.999l-62 14
c4.66699 24.667 11 44.667 19 60c18 36.667 43 61.334 75 74.001c8 3.33301 16.667 5 26 5c27.333 0 59.333 -15.333 96 -46z" />
    <glyph glyph-name="Ograve" unicode="&#xd2;" horiz-adv-x="1575" 
d="M1505 1221.5c118 -141.667 159.999 -312.5 125.999 -512.5c-33.333 -200.667 -132.666 -371.834 -297.999 -513.501s-348.333 -212.5 -549 -212.5c-200 0 -359 70.833 -477 212.5s-160.333 312.834 -127 513.501c34 200 133.667 370.833 299 512.5s348 212.5 548 212.5
c200.667 0 360 -70.833 478 -212.5zM1013 1353c-177.333 0 -339.5 -63 -486.5 -189s-235.5 -277.667 -265.5 -455c-29.333 -178 8.33398 -330 113.001 -456s245.667 -189 423 -189c178 0 340.667 63 488 189s235.666 278 264.999 456c30 177.333 -7.5 329 -112.5 455
s-246.5 189 -424.5 189zM1022 1683l117 -165h-75l-189 165h147z" />
    <glyph glyph-name="Oacute" unicode="&#xd3;" horiz-adv-x="1575" 
d="M1505 1221.5c118 -141.667 159.999 -312.5 125.999 -512.5c-33.333 -200.667 -132.666 -371.834 -297.999 -513.501s-348.333 -212.5 -549 -212.5c-200 0 -359 70.833 -477 212.5s-160.333 312.834 -127 513.501c34 200 133.667 370.833 299 512.5s348 212.5 548 212.5
c200.667 0 360 -70.833 478 -212.5zM1013 1353c-177.333 0 -339.5 -63 -486.5 -189s-235.5 -277.667 -265.5 -455c-29.333 -178 8.33398 -330 113.001 -456s245.667 -189 423 -189c178 0 340.667 63 488 189s235.666 278 264.999 456c30 177.333 -7.5 329 -112.5 455
s-246.5 189 -424.5 189zM1263 1683l-244 -165h-74l171 165h147z" />
    <glyph glyph-name="Ocircumflex" unicode="&#xd4;" horiz-adv-x="1575" 
d="M1505 1221.5c118 -141.667 159.999 -312.5 125.999 -512.5c-33.333 -200.667 -132.666 -371.834 -297.999 -513.501s-348.333 -212.5 -549 -212.5c-200 0 -359 70.833 -477 212.5s-160.333 312.834 -127 513.501c34 200 133.667 370.833 299 512.5s348 212.5 548 212.5
c200.667 0 360 -70.833 478 -212.5zM1013 1353c-177.333 0 -339.5 -63 -486.5 -189s-235.5 -277.667 -265.5 -455c-29.333 -178 8.33398 -330 113.001 -456s245.667 -189 423 -189c178 0 340.667 63 488 189s235.666 278 264.999 456c30 177.333 -7.5 329 -112.5 455
s-246.5 189 -424.5 189zM1274 1519h-92l-127 106l-153 -106h-93l259 187z" />
    <glyph glyph-name="Otilde" unicode="&#xd5;" horiz-adv-x="1575" 
d="M1505 1221.5c118 -141.667 159.999 -312.5 125.999 -512.5c-33.333 -200.667 -132.666 -371.834 -297.999 -513.501s-348.333 -212.5 -549 -212.5c-200 0 -359 70.833 -477 212.5s-160.333 312.834 -127 513.501c34 200 133.667 370.833 299 512.5s348 212.5 548 212.5
c200.667 0 360 -70.833 478 -212.5zM1013 1353c-177.333 0 -339.5 -63 -486.5 -189s-235.5 -277.667 -265.5 -455c-29.333 -178 8.33398 -330 113.001 -456s245.667 -189 423 -189c178 0 340.667 63 488 189s235.666 278 264.999 456c30 177.333 -7.5 329 -112.5 455
s-246.5 189 -424.5 189zM1070 1633c34.667 -28.667 59.6689 -43.001 75.002 -43.001h4c12.667 4.66699 23 15.334 31 32.001c4 9.33301 8 25.666 12 48.999l64 -13c-5.33301 -24.667 -12 -45 -20 -61c-18 -36.667 -42.667 -61.334 -74 -74.001
c-8.66699 -2.66699 -17.334 -4 -26.001 -4c-27.333 0 -60 15 -98 45c-34 29.333 -58.667 44 -74 44c-2 0 -3.33301 -0.333008 -4 -1c-12 -4 -22.333 -14.667 -31 -32c-4.66699 -9.33301 -9 -25.666 -13 -48.999l-63 14c5.33301 24.667 11.666 44.667 18.999 60
c18.667 36.667 44 61.334 76 74.001c8 3.33301 16.667 5 26 5c27.333 0 59.333 -15.333 96 -46z" />
    <glyph glyph-name="Odieresis" unicode="&#xd6;" horiz-adv-x="1575" 
d="M1505 1221.5c118 -141.667 159.999 -312.5 125.999 -512.5c-33.333 -200.667 -132.666 -371.834 -297.999 -513.501s-348.333 -212.5 -549 -212.5c-200 0 -359 70.833 -477 212.5s-160.333 312.834 -127 513.501c34 200 133.667 370.833 299 512.5s348 212.5 548 212.5
c200.667 0 360 -70.833 478 -212.5zM1013 1353c-177.333 0 -339.5 -63 -486.5 -189s-235.5 -277.667 -265.5 -455c-29.333 -178 8.33398 -330 113.001 -456s245.667 -189 423 -189c178 0 340.667 63 488 189s235.666 278 264.999 456c30 177.333 -7.5 329 -112.5 455
s-246.5 189 -424.5 189zM988.499 1658c13 -15.333 17.834 -33.666 14.501 -54.999c-4 -22.667 -15 -41.667 -33 -57s-37.667 -23 -59 -23c-22 0 -39.667 7.66699 -53 23s-18 34.333 -14 57c3.33301 21.333 14.166 39.666 32.499 54.999s38.5 23 60.5 23
c21.333 0 38.5 -7.66699 51.5 -23zM1253.5 1658c13 -15.333 17.834 -33.666 14.501 -54.999c-4 -22.667 -15 -41.667 -33 -57s-37.667 -23 -59 -23c-22 0 -39.667 7.66699 -53 23s-18 34.333 -14 57c3.33301 21.333 14.166 39.666 32.499 54.999s38.5 23 60.5 23
c21.333 0 38.5 -7.66699 51.5 -23z" />
    <glyph glyph-name="multiply" unicode="&#xd7;" horiz-adv-x="1070" 
d="M534 616l-289 -289l-57 56l290 290l-290 290l57 56l289 -289l290 289l57 -56l-290 -290l290 -290l-57 -56z" />
    <glyph glyph-name="Oslash" unicode="&#xd8;" horiz-adv-x="1647" 
d="M1278 1310c-67.333 28.667 -143.668 43 -229.001 43c-177.333 0 -339.5 -63 -486.5 -189s-235.5 -277.667 -265.5 -455c-29.333 -178 8.33398 -330 113.001 -456c38 -45.333 80.667 -83 128 -113zM604.998 107c67.333 -28.667 143.334 -43 228.001 -43
c178 0 340.667 63 488 189s235.666 278 264.999 456c30 177.333 -7.33301 329.333 -112 456c-38.667 45.333 -81.667 82.333 -129 111zM1392 1350c54.667 -32.667 104.333 -75.332 149 -127.999c118 -142 160 -313 126 -513
c-33.333 -200.667 -132.666 -371.834 -297.999 -513.501s-348.333 -212.5 -549 -212.5c-96.667 0 -184 17 -262 51l-103 -163l-66 34l103 162c-55.333 33.333 -104.666 76.333 -147.999 129c-118.667 141.333 -161.334 312.333 -128.001 513
c34 200 133.667 370.833 299 512.5s348 212.5 548 212.5c97.333 0 184.666 -16.667 261.999 -50l103 162l67 -33z" />
    <glyph glyph-name="Ugrave" unicode="&#xd9;" horiz-adv-x="1147" 
d="M1191 1414h80l-170 -1016c-32.667 -108 -93 -199.667 -181 -275c-104.667 -90 -220.667 -135 -348 -135c-128 0 -229.5 45 -304.5 135s-101.833 198.667 -80.5 326l161 965h80l-161 -965c-17.333 -104.667 5 -194.334 67 -269.001s145.667 -112 251 -112
s201.5 37.333 288.5 112s139.167 164.334 156.5 269.001zM808 1683l117 -165h-75l-189 165h147z" />
    <glyph glyph-name="Uacute" unicode="&#xda;" horiz-adv-x="1147" 
d="M1191 1414h80l-170 -1016c-32.667 -108 -93 -199.667 -181 -275c-104.667 -90 -220.667 -135 -348 -135c-128 0 -229.5 45 -304.5 135s-101.833 198.667 -80.5 326l161 965h80l-161 -965c-17.333 -104.667 5 -194.334 67 -269.001s145.667 -112 251 -112
s201.5 37.333 288.5 112s139.167 164.334 156.5 269.001zM1049 1683l-244 -165h-74l171 165h147z" />
    <glyph glyph-name="Ucircumflex" unicode="&#xdb;" horiz-adv-x="1147" 
d="M1191 1414h80l-170 -1016c-32.667 -108 -93 -199.667 -181 -275c-104.667 -90 -220.667 -135 -348 -135c-128 0 -229.5 45 -304.5 135s-101.833 198.667 -80.5 326l161 965h80l-161 -965c-17.333 -104.667 5 -194.334 67 -269.001s145.667 -112 251 -112
s201.5 37.333 288.5 112s139.167 164.334 156.5 269.001zM1060 1519h-92l-127 106l-153 -106h-93l259 187z" />
    <glyph glyph-name="Udieresis" unicode="&#xdc;" horiz-adv-x="1147" 
d="M1191 1414h80l-170 -1016c-32.667 -108 -93 -199.667 -181 -275c-104.667 -90 -220.667 -135 -348 -135c-128 0 -229.5 45 -304.5 135s-101.833 198.667 -80.5 326l161 965h80l-161 -965c-17.333 -104.667 5 -194.334 67 -269.001s145.667 -112 251 -112
s201.5 37.333 288.5 112s139.167 164.334 156.5 269.001zM774.5 1658c13 -15.333 17.834 -33.666 14.501 -54.999c-4 -22.667 -15 -41.667 -33 -57s-37.667 -23 -59 -23c-22 0 -39.667 7.66699 -53 23s-18 34.333 -14 57c3.33301 21.333 14.166 39.666 32.499 54.999
s38.5 23 60.5 23c21.333 0 38.5 -7.66699 51.5 -23zM1039.5 1658c13 -15.333 17.834 -33.666 14.501 -54.999c-4 -22.667 -15 -41.667 -33 -57s-37.667 -23 -59 -23c-22 0 -39.667 7.66699 -53 23s-18 34.333 -14 57c3.33301 21.333 14.166 39.666 32.499 54.999
s38.5 23 60.5 23c21.333 0 38.5 -7.66699 51.5 -23z" />
    <glyph glyph-name="Yacute" unicode="&#xdd;" horiz-adv-x="1116" 
d="M614 572l-345 842h91l309 -754l561 754h91l-627 -842l-96 -572h-80zM1034 1683l-245 -165h-74l172 165h147z" />
    <glyph glyph-name="Thorn" unicode="&#xde;" horiz-adv-x="946" 
d="M374 1169h290.999c105.333 -14.667 189.333 -59.667 252 -135c74.667 -90 101.334 -198.667 80.001 -326c-21.333 -128 -84.5 -237 -189.5 -327s-221.167 -135 -348.5 -135h-240l-41 -246h-80l237 1414h80zM232.999 326l240 0.000976562
c104.667 0 200.5 37.333 287.5 112s139.167 164.667 156.5 270c18 105.333 -4.16699 195.166 -66.5 269.499s-145.833 111.5 -250.5 111.5h-240z" />
    <glyph glyph-name="germandbls" unicode="&#xdf;" horiz-adv-x="990" 
d="M710 1265c-74.667 0 -132.333 -16.5039 -173 -49.5039s-65.667 -72.5 -75 -118.5l-184 -1097h-80l132 788h-88l13 80h88l40 235c14.667 65.333 49.5 121 104.5 167s130.5 69 226.5 69c165.333 -9.33301 236 -88 212 -236c-12.667 -74.667 -58.334 -139.667 -137.001 -195
c-82 -57.333 -127 -109.666 -135 -156.999c-4.66699 -45.333 54 -99.666 176 -162.999c121.333 -64 171.666 -157.667 150.999 -281c-17.333 -105.333 -60.333 -184.666 -129 -237.999c-69.333 -54 -139.666 -81 -210.999 -81c-98 0 -167.667 25.333 -209 76l66 56
c28.667 -35.333 80.667 -53 156 -53c48.667 0 99 19.333 151 58c51.333 38 84 98.667 98 182c10.667 102 -44 181.333 -164 238s-174.333 123.667 -163 201c12.667 76.667 59.334 141.334 140.001 194.001c77.333 50 121 105.667 131 167c14.667 92 -31 144.667 -137 158z
" />
    <glyph glyph-name="agrave" unicode="&#xe0;" horiz-adv-x="1122" 
d="M1033 0l-80 0.000976562l30 177c-18.667 -20.667 -38.667 -40.334 -60 -59.001c-110.667 -95.333 -233.334 -143 -368.001 -143c-133.333 0 -239.5 47.5 -318.5 142.5s-107.5 209.167 -85.5 342.5c22.667 134.667 89.5 249.334 200.5 344.001s233.167 142 366.5 142
c134.667 0 241.334 -47.333 320.001 -142c14.667 -18.667 28 -38.334 40 -59.001l21 123h80zM1017 382.001l27.002 157.001c-2 78 -27.333 146.333 -76 205c-65.333 78.667 -153.333 118 -264 118s-211.834 -39.333 -303.501 -118s-146.834 -173.334 -165.501 -284.001
c-18 -110.667 5.66699 -205 71 -283s153.333 -117 264 -117s211.667 39.333 303 118c68.667 58.667 116.667 126.667 144 204zM711.002 1217l117 -165h-75l-189 165h147z" />
    <glyph glyph-name="aacute" unicode="&#xe1;" horiz-adv-x="1122" 
d="M1033 0l-80 0.000976562l30 177c-18.667 -20.667 -38.667 -40.334 -60 -59.001c-110.667 -95.333 -233.334 -143 -368.001 -143c-133.333 0 -239.5 47.5 -318.5 142.5s-107.5 209.167 -85.5 342.5c22.667 134.667 89.5 249.334 200.5 344.001s233.167 142 366.5 142
c134.667 0 241.334 -47.333 320.001 -142c14.667 -18.667 28 -38.334 40 -59.001l21 123h80zM1017 382.001l27.002 157.001c-2 78 -27.333 146.333 -76 205c-65.333 78.667 -153.333 118 -264 118s-211.834 -39.333 -303.501 -118s-146.834 -173.334 -165.501 -284.001
c-18 -110.667 5.66699 -205 71 -283s153.333 -117 264 -117s211.667 39.333 303 118c68.667 58.667 116.667 126.667 144 204zM952.002 1217l-244 -165h-74l171 165h147z" />
    <glyph glyph-name="acircumflex" unicode="&#xe2;" horiz-adv-x="1122" 
d="M1033 0l-80 0.000976562l30 177c-18.667 -20.667 -38.667 -40.334 -60 -59.001c-110.667 -95.333 -233.334 -143 -368.001 -143c-133.333 0 -239.5 47.5 -318.5 142.5s-107.5 209.167 -85.5 342.5c22.667 134.667 89.5 249.334 200.5 344.001s233.167 142 366.5 142
c134.667 0 241.334 -47.333 320.001 -142c14.667 -18.667 28 -38.334 40 -59.001l21 123h80zM1017 382.001l27.002 157.001c-2 78 -27.333 146.333 -76 205c-65.333 78.667 -153.333 118 -264 118s-211.834 -39.333 -303.501 -118s-146.834 -173.334 -165.501 -284.001
c-18 -110.667 5.66699 -205 71 -283s153.333 -117 264 -117s211.667 39.333 303 118c68.667 58.667 116.667 126.667 144 204zM963.002 1053h-92l-128 106l-152 -106h-93l259 187z" />
    <glyph glyph-name="atilde" unicode="&#xe3;" horiz-adv-x="1122" 
d="M1033 0l-80 0.000976562l30 177c-18.667 -20.667 -38.667 -40.334 -60 -59.001c-110.667 -95.333 -233.334 -143 -368.001 -143c-133.333 0 -239.5 47.5 -318.5 142.5s-107.5 209.167 -85.5 342.5c22.667 134.667 89.5 249.334 200.5 344.001s233.167 142 366.5 142
c134.667 0 241.334 -47.333 320.001 -142c14.667 -18.667 28 -38.334 40 -59.001l21 123h80zM1017 382.001l27.002 157.001c-2 78 -27.333 146.333 -76 205c-65.333 78.667 -153.333 118 -264 118s-211.834 -39.333 -303.501 -118s-146.834 -173.334 -165.501 -284.001
c-18 -110.667 5.66699 -205 71 -283s153.333 -117 264 -117s211.667 39.333 303 118c68.667 58.667 116.667 126.667 144 204zM759.002 1167c34.667 -28.667 59.6689 -43.001 75.002 -43.001h4c12.667 4.66699 23 15.334 31 32.001c4 9.33301 8 25.666 12 48.999l64 -13
c-5.33301 -24.667 -12 -45 -20 -61c-18 -36.667 -43 -61.334 -75 -74.001c-8 -2.66699 -16.333 -4 -25 -4c-27.333 0 -60 15 -98 45c-34 29.333 -58.667 44 -74 44c-2 0 -3.66699 -0.333008 -5 -1c-12 -4 -22 -14.667 -30 -32c-4.66699 -9.33301 -9 -25.666 -13 -48.999
l-63 14c4.66699 24.667 11 44.667 19 60c18 36.667 43.333 61.334 76 74.001c7.33301 3.33301 15.666 5 24.999 5c27.333 0 59.666 -15.333 96.999 -46z" />
    <glyph glyph-name="adieresis" unicode="&#xe4;" horiz-adv-x="1122" 
d="M1033 0l-80 0.000976562l30 177c-18.667 -20.667 -38.667 -40.334 -60 -59.001c-110.667 -95.333 -233.334 -143 -368.001 -143c-133.333 0 -239.5 47.5 -318.5 142.5s-107.5 209.167 -85.5 342.5c22.667 134.667 89.5 249.334 200.5 344.001s233.167 142 366.5 142
c134.667 0 241.334 -47.333 320.001 -142c14.667 -18.667 28 -38.334 40 -59.001l21 123h80zM1017 382.001l27.002 157.001c-2 78 -27.333 146.333 -76 205c-65.333 78.667 -153.333 118 -264 118s-211.834 -39.333 -303.501 -118s-146.834 -173.334 -165.501 -284.001
c-18 -110.667 5.66699 -205 71 -283s153.333 -117 264 -117s211.667 39.333 303 118c68.667 58.667 116.667 126.667 144 204zM677.502 1192c13 -15.333 17.833 -33.666 14.5 -54.999c-4 -22.667 -15.167 -41.667 -33.5 -57s-38.166 -23 -59.499 -23
c-22 0 -39.5 7.66699 -52.5 23s-17.5 34.333 -13.5 57c3.33301 21.333 14.166 39.666 32.499 54.999s38.5 23 60.5 23c21.333 0 38.5 -7.66699 51.5 -23zM942.502 1192c13 -15.333 17.833 -33.666 14.5 -54.999c-4 -22.667 -15.167 -41.667 -33.5 -57
s-38.166 -23 -59.499 -23c-22 0 -39.5 7.66699 -52.5 23s-17.5 34.333 -13.5 57c3.33301 21.333 14.166 39.666 32.499 54.999s38.5 23 60.5 23c21.333 0 38.5 -7.66699 51.5 -23z" />
    <glyph glyph-name="aring" unicode="&#xe5;" horiz-adv-x="1122" 
d="M1017 382l27.002 157.001c-2 78 -27.333 146.333 -76 205c-65.333 78.667 -153.333 118 -264 118s-211.834 -39.333 -303.501 -118s-146.834 -173.334 -165.501 -284.001c-18 -110.667 5.66699 -205 71 -283s153.333 -117 264 -117s211.667 39.333 303 118
c68.667 58.667 116.667 126.667 144 204zM740.002 1109c-14.667 0 -27.833 -5 -39.5 -15s-18.834 -22.333 -21.501 -37c-2 -14 1.16699 -26.167 9.5 -36.5s19.833 -15.5 34.5 -15.5c14 0 26.833 5.16699 38.5 15.5s18.5 22.5 20.5 36.5
c2.66699 14.667 -0.166016 27 -8.49902 37s-19.5 15 -33.5 15zM734.003 946.001c127.333 -4 228.667 -51.332 304 -141.999c14.667 -18.667 28 -38.334 40 -59.001l21 123h80l-146 -868h-80l30 177c-18.667 -20.667 -38.667 -40.334 -60 -59.001
c-110.667 -95.333 -233.334 -143 -368.001 -143c-133.333 0 -239.5 47.5 -318.5 142.5s-107.5 209.167 -85.5 342.5c22.667 134.667 89.667 249.334 201 344.001c103.333 88.667 217.333 135.667 342 141c-22.667 4 -41.334 14.667 -56.001 32
c-18.667 22 -25.667 48.667 -21 80c5.33301 31.333 21 58 47 80s54.667 33 86 33c30.667 0 55.334 -11 74.001 -33s25.334 -48.667 20.001 -80c-4.66699 -31.333 -20 -58 -46 -80c-20 -16.667 -41.333 -27 -64 -31z" />
    <glyph glyph-name="ae" unicode="&#xe6;" horiz-adv-x="1873" 
d="M1022 653c-12.667 32.667 -30.665 63.001 -53.998 91.001c-65.333 78.667 -153.333 118 -264 118s-211.834 -39.333 -303.501 -118s-146.834 -173.334 -165.501 -284.001c-18 -110.667 5.66699 -205 71 -283s153.333 -117 264 -117s211.667 39.333 303 118
c32.667 28 60.667 58 84 90c26 35.333 46 73.333 60 114l27 157c-0.666992 40.667 -8 78.667 -22 114zM1837 586.001c-8.66699 60.667 -31.998 113.333 -69.998 158c-64.667 78.667 -152.334 118 -263.001 118s-212 -39.333 -304 -118
c-18.667 -16 -35.334 -32.333 -50.001 -49l-18 -109h705zM1071 226c9.33301 -16.667 20.666 -32.666 33.999 -47.999c66 -78.667 154.333 -118 265 -118s211.334 39.333 302.001 118c16.667 13.333 31.667 27.333 45 42l80 -30c-12.667 -16.667 -37.667 -40.667 -75 -72
c-110.667 -95.333 -233 -143 -367 -143c-126 0 -227.333 42.333 -304 127l-18 -102h-80l30 177c-18.667 -20.667 -38.667 -40.334 -60 -59.001c-110.667 -95.333 -233.334 -143 -368.001 -143c-133.333 0 -239.5 47.5 -318.5 142.5s-107.5 209.167 -85.5 342.5
c22.667 134.667 89.5 249.334 200.5 344.001s233.167 142 366.5 142c134.667 0 241.334 -47.333 320.001 -142c14.667 -18.667 28 -38.334 40 -59.001l21 123h80l-8 -48c105.333 84 221 126 347 126c134 0 240.333 -47.333 319 -142c70 -84 97 -183.667 81 -299l-800 1z" />
    <glyph glyph-name="ccedilla" unicode="&#xe7;" horiz-adv-x="985" 
d="M440 -16c-90.667 17.333 -165.667 62 -225 134c-79.333 94.667 -107.666 209 -84.999 343c22 134 88.5 248.333 199.5 343s233.167 142 366.5 142c134.667 0 241.334 -47.333 320.001 -142c16 -19.333 30 -39.333 42 -60l-89 -31l-23 32
c-65.333 78 -153.333 117 -264 117c-110 0 -210.833 -39.167 -302.5 -117.5s-146.5 -172.833 -164.5 -283.5c-18.667 -110.667 4.66602 -205.167 69.999 -283.5s153 -117.5 263 -117.5c110.667 0 211.667 39.333 303 118c12 10 23 20.333 33 31l79 -31
c-18.667 -20.667 -39.334 -40.667 -62.001 -60c-110.667 -95.333 -233.334 -143 -368.001 -143c-11.333 0 -22.333 0.333008 -33 1l-15 -28c60.667 -4.66699 96.667 -25 108 -61c6 -19.333 7.33301 -38 4 -56c-2.66699 -15.333 -8.66699 -30 -18 -44
c-20.667 -30 -52 -48.333 -94 -55c-16 -2.66699 -30.667 -4 -44 -4c-22.667 0 -41.334 3.66699 -56.001 11c-24 11.333 -44.333 24.333 -61 39l44 40c18.667 -23.333 41 -35 67 -35c6.66699 0 14 1 22 3c32.667 7.33301 51.334 26.333 56.001 57l1 6
c2.66699 28.667 -28 43 -92 43c-11.333 0 -23.666 -0.333008 -36.999 -1z" />
    <glyph glyph-name="egrave" unicode="&#xe8;" horiz-adv-x="1042" 
d="M253 586l762.001 -0.000976562c-8.66699 60.667 -31.667 113.334 -69 158.001c-65.333 78.667 -153.333 118 -264 118s-212 -39.333 -304 -118c-54.667 -47.333 -96.334 -100 -125.001 -158zM224.001 504.999c-4.66699 -14 -8.33301 -29.001 -11 -45.001
c-18 -110.667 5.66699 -205 71 -283s153.333 -117 264 -117s211.667 39.333 303 118c16 13.333 31 27.333 45 42l80 -30c-12.667 -16.667 -37.667 -40.667 -75 -72c-110.667 -95.333 -233.334 -143 -368.001 -143c-133.333 0 -239.5 47.5 -318.5 142.5
s-107.5 209.167 -85.5 342.5c22.667 134.667 89.5 249.334 200.5 344.001s233.167 142 366.5 142c134.667 0 241.334 -47.333 320.001 -142c69.333 -84 94.333 -183.667 75 -299h-867zM686.002 1217l117 -165h-75l-189 165h147z" />
    <glyph glyph-name="eacute" unicode="&#xe9;" horiz-adv-x="1042" 
d="M253 586l762.001 -0.000976562c-8.66699 60.667 -31.667 113.334 -69 158.001c-65.333 78.667 -153.333 118 -264 118s-212 -39.333 -304 -118c-54.667 -47.333 -96.334 -100 -125.001 -158zM224.001 504.999c-4.66699 -14 -8.33301 -29.001 -11 -45.001
c-18 -110.667 5.66699 -205 71 -283s153.333 -117 264 -117s211.667 39.333 303 118c16 13.333 31 27.333 45 42l80 -30c-12.667 -16.667 -37.667 -40.667 -75 -72c-110.667 -95.333 -233.334 -143 -368.001 -143c-133.333 0 -239.5 47.5 -318.5 142.5
s-107.5 209.167 -85.5 342.5c22.667 134.667 89.5 249.334 200.5 344.001s233.167 142 366.5 142c134.667 0 241.334 -47.333 320.001 -142c69.333 -84 94.333 -183.667 75 -299h-867zM927.002 1217l-244 -165h-74l171 165h147z" />
    <glyph glyph-name="ecircumflex" unicode="&#xea;" horiz-adv-x="1042" 
d="M253 586l762.001 -0.000976562c-8.66699 60.667 -31.667 113.334 -69 158.001c-65.333 78.667 -153.333 118 -264 118s-212 -39.333 -304 -118c-54.667 -47.333 -96.334 -100 -125.001 -158zM224.001 504.999c-4.66699 -14 -8.33301 -29.001 -11 -45.001
c-18 -110.667 5.66699 -205 71 -283s153.333 -117 264 -117s211.667 39.333 303 118c16 13.333 31 27.333 45 42l80 -30c-12.667 -16.667 -37.667 -40.667 -75 -72c-110.667 -95.333 -233.334 -143 -368.001 -143c-133.333 0 -239.5 47.5 -318.5 142.5
s-107.5 209.167 -85.5 342.5c22.667 134.667 89.5 249.334 200.5 344.001s233.167 142 366.5 142c134.667 0 241.334 -47.333 320.001 -142c69.333 -84 94.333 -183.667 75 -299h-867zM939.002 1053h-92l-128 106l-152 -106h-93l259 187z" />
    <glyph glyph-name="edieresis" unicode="&#xeb;" horiz-adv-x="1042" 
d="M253 586l762.001 -0.000976562c-8.66699 60.667 -31.667 113.334 -69 158.001c-65.333 78.667 -153.333 118 -264 118s-212 -39.333 -304 -118c-54.667 -47.333 -96.334 -100 -125.001 -158zM224.001 504.999c-4.66699 -14 -8.33301 -29.001 -11 -45.001
c-18 -110.667 5.66699 -205 71 -283s153.333 -117 264 -117s211.667 39.333 303 118c16 13.333 31 27.333 45 42l80 -30c-12.667 -16.667 -37.667 -40.667 -75 -72c-110.667 -95.333 -233.334 -143 -368.001 -143c-133.333 0 -239.5 47.5 -318.5 142.5
s-107.5 209.167 -85.5 342.5c22.667 134.667 89.5 249.334 200.5 344.001s233.167 142 366.5 142c134.667 0 241.334 -47.333 320.001 -142c69.333 -84 94.333 -183.667 75 -299h-867zM652.502 1192c13 -15.333 17.833 -33.666 14.5 -54.999
c-4 -22.667 -15.167 -41.667 -33.5 -57s-38.166 -23 -59.499 -23c-22 0 -39.5 7.66699 -52.5 23s-17.5 34.333 -13.5 57c3.33301 21.333 14.166 39.666 32.499 54.999s38.5 23 60.5 23c21.333 0 38.5 -7.66699 51.5 -23zM917.502 1192
c13 -15.333 17.833 -33.666 14.5 -54.999c-4 -22.667 -15.167 -41.667 -33.5 -57s-38.166 -23 -59.499 -23c-22 0 -39.5 7.66699 -52.5 23s-17.5 34.333 -13.5 57c3.33301 21.333 14.166 39.666 32.499 54.999s38.5 23 60.5 23c21.333 0 38.5 -7.66699 51.5 -23z" />
    <glyph glyph-name="igrave" unicode="&#xec;" horiz-adv-x="317" 
d="M343 868l-145 -868h-79l145 868h79zM316 1217l116 -165h-75l-188 165h147z" />
    <glyph glyph-name="iacute" unicode="&#xed;" horiz-adv-x="317" 
d="M343 868l-145 -868h-79l145 868h79zM557 1217l-245 -165h-74l172 165h147z" />
    <glyph glyph-name="icircumflex" unicode="&#xee;" horiz-adv-x="317" 
d="M323 868l-145 -868h-79l145 868h79zM547 1053h-92l-127 106l-153 -106h-93l259 187z" />
    <glyph glyph-name="idieresis" unicode="&#xef;" horiz-adv-x="317" 
d="M344 868l-145 -868h-79l145 868h79zM282 1192c13.333 -15.333 17.999 -33.666 13.999 -54.999c-3.33301 -22.667 -14.166 -41.667 -32.499 -57s-38.166 -23 -59.499 -23c-22 0 -39.5 7.66699 -52.5 23s-17.833 34.333 -14.5 57c4 21.333 15 39.666 33 54.999s38 23 60 23
c21.333 0 38.666 -7.66699 51.999 -23zM546.999 1192c13.333 -15.333 17.999 -33.666 13.999 -54.999c-3.33301 -22.667 -14.166 -41.667 -32.499 -57s-38.166 -23 -59.499 -23c-22 0 -39.5 7.66699 -52.5 23s-17.833 34.333 -14.5 57c4 21.333 15 39.666 33 54.999
s38 23 60 23c21.333 0 38.666 -7.66699 51.999 -23z" />
    <glyph glyph-name="eth" unicode="&#xf0;" horiz-adv-x="1114" 
d="M233 460c-18 -110.667 5.66895 -205 71.002 -283s153.333 -117 264 -117s211.667 39 303 117s146 172.333 164 283c18.667 110.667 -4.5 205.334 -69.5 284.001s-152.833 118 -263.5 118s-211.834 -39.333 -303.501 -118s-146.834 -173.334 -165.501 -284.001zM1036 804
c78 -94.667 105.667 -209.334 83 -344.001c-22 -133.333 -88.167 -247.5 -198.5 -342.5s-232.833 -142.5 -367.5 -142.5c-133.333 0 -239.5 47.5 -318.5 142.5s-107.5 209.167 -85.5 342.5c22.667 134.667 89.5 249.334 200.5 344.001s233.167 142 366.5 142
c26 0 57.333 -1.66699 94 -5l-166 176l-167 -143h-114l234 200l-164 196h112l117 -140l160 137h114l-226 -194z" />
    <glyph glyph-name="ntilde" unicode="&#xf1;" horiz-adv-x="879" 
d="M292 674l-113.003 -674h-80l145 868h80l-9 -56c84 72 174 108 270 108c102.667 0 180.834 -32.167 234.501 -96.5s72.834 -145.166 57.501 -242.499l-97 -581h-79l96 573c12 74 -4.16699 137 -48.5 189s-103.166 78 -176.499 78c-72.667 0 -140 -25.667 -202 -77
c-34 -28.667 -60 -58.334 -78 -89.001zM643.997 1167c34.667 -28.667 59.667 -43.001 75 -43.001h4c12.667 4.66699 23 15.334 31 32.001c4.66699 9.33301 9 25.666 13 48.999l63 -13c-5.33301 -24.667 -12 -45 -20 -61c-18 -36.667 -42.667 -61.334 -74 -74.001
c-8.66699 -2.66699 -17.334 -4 -26.001 -4c-27.333 0 -59.666 15 -96.999 45c-34.667 29.333 -59.667 44 -75 44c-2 0 -3.33301 -0.333008 -4 -1c-12 -4 -22 -14.667 -30 -32c-5.33301 -9.33301 -10 -25.666 -14 -48.999l-62 14c4.66699 24.667 11 44.667 19 60
c18 36.667 43 61.334 75 74.001c8 3.33301 16.667 5 26 5c27.333 0 59.333 -15.333 96 -46z" />
    <glyph glyph-name="ograve" unicode="&#xf2;" horiz-adv-x="1114" 
d="M716 946c134.667 0 241.168 -47.333 319.501 -142s106.166 -209.334 83.499 -344.001c-22 -133.333 -88.167 -247.5 -198.5 -342.5s-232.833 -142.5 -367.5 -142.5c-133.333 0 -239.5 47.5 -318.5 142.5s-107.5 209.167 -85.5 342.5
c22.667 134.667 89.5 249.334 200.5 344.001s233.167 142 366.5 142zM398.501 744c-91.667 -78.667 -146.832 -173.334 -165.499 -284.001c-18 -110.667 5.66699 -205 71 -283s153.333 -117 264 -117s211.667 39 303 117s146 172.333 164 283
c18.667 110.667 -4.5 205.334 -69.5 284.001s-152.833 118 -263.5 118s-211.834 -39.333 -303.501 -118zM714.003 1217l117 -165h-75l-189 165h147z" />
    <glyph glyph-name="oacute" unicode="&#xf3;" horiz-adv-x="1114" 
d="M716 946c134.667 0 241.168 -47.333 319.501 -142s106.166 -209.334 83.499 -344.001c-22 -133.333 -88.167 -247.5 -198.5 -342.5s-232.833 -142.5 -367.5 -142.5c-133.333 0 -239.5 47.5 -318.5 142.5s-107.5 209.167 -85.5 342.5
c22.667 134.667 89.5 249.334 200.5 344.001s233.167 142 366.5 142zM398.501 744c-91.667 -78.667 -146.832 -173.334 -165.499 -284.001c-18 -110.667 5.66699 -205 71 -283s153.333 -117 264 -117s211.667 39 303 117s146 172.333 164 283
c18.667 110.667 -4.5 205.334 -69.5 284.001s-152.833 118 -263.5 118s-211.834 -39.333 -303.501 -118zM955.003 1217l-244 -165h-74l171 165h147z" />
    <glyph glyph-name="ocircumflex" unicode="&#xf4;" horiz-adv-x="1114" 
d="M716 946c134.667 0 241.168 -47.333 319.501 -142s106.166 -209.334 83.499 -344.001c-22 -133.333 -88.167 -247.5 -198.5 -342.5s-232.833 -142.5 -367.5 -142.5c-133.333 0 -239.5 47.5 -318.5 142.5s-107.5 209.167 -85.5 342.5
c22.667 134.667 89.5 249.334 200.5 344.001s233.167 142 366.5 142zM398.501 744c-91.667 -78.667 -146.832 -173.334 -165.499 -284.001c-18 -110.667 5.66699 -205 71 -283s153.333 -117 264 -117s211.667 39 303 117s146 172.333 164 283
c18.667 110.667 -4.5 205.334 -69.5 284.001s-152.833 118 -263.5 118s-211.834 -39.333 -303.501 -118zM967.003 1053h-92l-128 106l-152 -106h-93l259 187z" />
    <glyph glyph-name="otilde" unicode="&#xf5;" horiz-adv-x="1114" 
d="M716 946c134.667 0 241.168 -47.333 319.501 -142s106.166 -209.334 83.499 -344.001c-22 -133.333 -88.167 -247.5 -198.5 -342.5s-232.833 -142.5 -367.5 -142.5c-133.333 0 -239.5 47.5 -318.5 142.5s-107.5 209.167 -85.5 342.5
c22.667 134.667 89.5 249.334 200.5 344.001s233.167 142 366.5 142zM398.501 744c-91.667 -78.667 -146.832 -173.334 -165.499 -284.001c-18 -110.667 5.66699 -205 71 -283s153.333 -117 264 -117s211.667 39 303 117s146 172.333 164 283
c18.667 110.667 -4.5 205.334 -69.5 284.001s-152.833 118 -263.5 118s-211.834 -39.333 -303.501 -118zM763.003 1167c34.667 -28.667 59.6689 -43.001 75.002 -43.001h4c12.667 4.66699 23 15.334 31 32.001c4 9.33301 8 25.666 12 48.999l64 -13
c-5.33301 -24.667 -12 -45 -20 -61c-18 -36.667 -43 -61.334 -75 -74.001c-8 -2.66699 -16.333 -4 -25 -4c-27.333 0 -60 15 -98 45c-34 29.333 -58.667 44 -74 44c-2 0 -3.66699 -0.333008 -5 -1c-12 -4 -22 -14.667 -30 -32c-4.66699 -9.33301 -9 -25.666 -13 -48.999
l-63 14c4.66699 24.667 11 44.667 19 60c18 36.667 43.333 61.334 76 74.001c7.33301 3.33301 15.666 5 24.999 5c27.333 0 59.666 -15.333 96.999 -46z" />
    <glyph glyph-name="odieresis" unicode="&#xf6;" horiz-adv-x="1114" 
d="M716 946c134.667 0 241.168 -47.333 319.501 -142s106.166 -209.334 83.499 -344.001c-22 -133.333 -88.167 -247.5 -198.5 -342.5s-232.833 -142.5 -367.5 -142.5c-133.333 0 -239.5 47.5 -318.5 142.5s-107.5 209.167 -85.5 342.5
c22.667 134.667 89.5 249.334 200.5 344.001s233.167 142 366.5 142zM398.501 744c-91.667 -78.667 -146.832 -173.334 -165.499 -284.001c-18 -110.667 5.66699 -205 71 -283s153.333 -117 264 -117s211.667 39 303 117s146 172.333 164 283
c18.667 110.667 -4.5 205.334 -69.5 284.001s-152.833 118 -263.5 118s-211.834 -39.333 -303.501 -118zM680.503 1192c13 -15.333 17.833 -33.666 14.5 -54.999c-4 -22.667 -15.167 -41.667 -33.5 -57s-38.166 -23 -59.499 -23c-22 0 -39.5 7.66699 -52.5 23
s-17.5 34.333 -13.5 57c3.33301 21.333 14.166 39.666 32.499 54.999s38.5 23 60.5 23c21.333 0 38.5 -7.66699 51.5 -23zM945.503 1192c13 -15.333 17.833 -33.666 14.5 -54.999c-4 -22.667 -15.167 -41.667 -33.5 -57s-38.166 -23 -59.499 -23
c-22 0 -39.5 7.66699 -52.5 23s-17.5 34.333 -13.5 57c3.33301 21.333 14.166 39.666 32.499 54.999s38.5 23 60.5 23c21.333 0 38.5 -7.66699 51.5 -23z" />
    <glyph glyph-name="divide" unicode="&#xf7;" horiz-adv-x="1070" 
d="M85 633v80h900v-80h-900zM591.5 421c15.667 -15.333 23.5 -34 23.5 -56s-7.83301 -40.667 -23.5 -56s-34.167 -23 -55.5 -23c-22 0 -40.833 7.66699 -56.5 23s-23.5 34 -23.5 56s7.83301 40.667 23.5 56s34.5 23 56.5 23c21.333 0 39.833 -7.66699 55.5 -23zM591.5 1038
c15.667 -15.333 23.5 -34 23.5 -56s-7.83301 -40.667 -23.5 -56s-34.167 -23 -55.5 -23c-22 0 -40.833 7.66699 -56.5 23s-23.5 34 -23.5 56s7.83301 40.667 23.5 56s34.5 23 56.5 23c21.333 0 39.833 -7.66699 55.5 -23z" />
    <glyph glyph-name="oslash" unicode="&#xf8;" horiz-adv-x="1080" 
d="M845 828c-46.667 22.667 -99.998 34 -159.998 34c-110.667 0 -211.834 -39.167 -303.501 -117.5s-146.834 -172.833 -165.501 -283.5c-18 -110.667 5.33301 -205 70 -283c13.333 -16 28 -30.333 44 -43zM906.002 787l-516.001 -692.001c47.333 -22.667 101 -34 161 -34
c110.667 0 211.667 39 303 117s146 172.333 164 283c18.667 110.667 -4.33301 205.334 -69 284.001c-13.333 16 -27.666 30 -42.999 42zM275.001 61.999c-20.667 16.667 -40 35.334 -58 56.001c-78.667 95.333 -107 209.666 -85 342.999
c22.667 134.667 89.5 249.334 200.5 344.001s233.167 142 366.5 142c76 0 143.333 -15.333 202 -46l139 188l63 -37l-141 -190c20 -16.667 39 -35.667 57 -57c78 -94.667 105.667 -209.334 83 -344.001c-22 -133.333 -88.167 -247.5 -198.5 -342.5
s-232.833 -142.5 -367.5 -142.5c-76 0 -142.667 15.333 -200 46l-140 -188l-65 33z" />
    <glyph glyph-name="ugrave" unicode="&#xf9;" horiz-adv-x="880" 
d="M443 -12c-108.667 0 -189.668 32.001 -243.001 96.001s-72.666 145 -57.999 243l90 542h80l-89 -535c-12.667 -73.333 3.33301 -136 48 -188c44 -52.667 105.333 -79 184 -79c73.333 0 140.833 26.167 202.5 78.5s98.834 115.166 111.501 188.499l89 535h80l-90 -542
c-18.667 -98 -65.334 -179 -140.001 -243s-163 -96 -265 -96zM596.999 1217l116 -165h-75l-188 165h147z" />
    <glyph glyph-name="uacute" unicode="&#xfa;" horiz-adv-x="880" 
d="M443 -12c-108.667 0 -189.668 32.001 -243.001 96.001s-72.666 145 -57.999 243l90 542h80l-89 -535c-12.667 -73.333 3.33301 -136 48 -188c44 -52.667 105.333 -79 184 -79c73.333 0 140.833 26.167 202.5 78.5s98.834 115.166 111.501 188.499l89 535h80l-90 -542
c-18.667 -98 -65.334 -179 -140.001 -243s-163 -96 -265 -96zM837.999 1217l-245 -165h-74l172 165h147z" />
    <glyph glyph-name="ucircumflex" unicode="&#xfb;" horiz-adv-x="880" 
d="M443 -12c-108.667 0 -189.668 32.001 -243.001 96.001s-72.666 145 -57.999 243l90 542h80l-89 -535c-12.667 -73.333 3.33301 -136 48 -188c44 -52.667 105.333 -79 184 -79c73.333 0 140.833 26.167 202.5 78.5s98.834 115.166 111.501 188.499l89 535h80l-90 -542
c-18.667 -98 -65.334 -179 -140.001 -243s-163 -96 -265 -96zM848.999 1053h-92l-127 106l-153 -106h-93l259 187z" />
    <glyph glyph-name="udieresis" unicode="&#xfc;" horiz-adv-x="880" 
d="M443 -12c-108.667 0 -189.668 32.001 -243.001 96.001s-72.666 145 -57.999 243l90 542h80l-89 -535c-12.667 -73.333 3.33301 -136 48 -188c44 -52.667 105.333 -79 184 -79c73.333 0 140.833 26.167 202.5 78.5s98.834 115.166 111.501 188.499l89 535h80l-90 -542
c-18.667 -98 -65.334 -179 -140.001 -243s-163 -96 -265 -96zM562.999 1192c13.333 -15.333 18.001 -33.666 14.001 -54.999c-4 -22.667 -15 -41.667 -33 -57s-37.667 -23 -59 -23c-22 0 -39.667 7.66699 -53 23s-18 34.333 -14 57c4 21.333 15 39.666 33 54.999
s38 23 60 23c21.333 0 38.666 -7.66699 51.999 -23zM828 1192c13.333 -15.333 18.001 -33.666 14.001 -54.999c-4 -22.667 -15 -41.667 -33 -57s-37.667 -23 -59 -23c-22 0 -39.667 7.66699 -53 23s-18 34.333 -14 57c4 21.333 15 39.666 33 54.999s38 23 60 23
c21.333 0 38.666 -7.66699 51.999 -23z" />
    <glyph glyph-name="yacute" unicode="&#xfd;" horiz-adv-x="779" 
d="M461 163l-311 -493h-89l311 491l-212 707h89l184 -606l387 606h89l-447 -705h-1zM788 1217l-245 -165h-74l172 165h147z" />
    <glyph glyph-name="thorn" unicode="&#xfe;" horiz-adv-x="1204" 
d="M300 559l-33 -198.002c5.33301 -69.333 30.333 -130.666 75 -183.999c65.333 -78.667 153.333 -118 264 -118s211.667 39.167 303 117.5s146.333 172.833 165 283.5s-4.66602 205.334 -69.999 284.001s-153.333 118 -264 118s-211.667 -39.333 -303 -118
c-62.667 -53.333 -108.334 -115 -137.001 -185zM332 749.998c17.333 18.667 35.666 36.666 54.999 53.999c111.333 94 233.666 141 366.999 141c134.667 0 241.334 -47.167 320.001 -141.5s106.667 -208.833 84 -343.5c-22.667 -133.333 -89 -247.5 -199 -342.5
s-232.333 -142.5 -367 -142.5c-133.333 0 -239.666 47.667 -318.999 143c-14 16.667 -26.667 34.334 -38 53.001l-81 -487h-80l260 1553h80z" />
    <glyph glyph-name="ydieresis" unicode="&#xff;" horiz-adv-x="779" 
d="M461 163l-311 -493h-89l311 491l-212 707h89l184 -606l387 606h89l-447 -705h-1zM513.5 1192c13 -15.333 17.498 -33.666 13.498 -54.999c-3.33301 -22.667 -14.166 -41.667 -32.499 -57s-38.166 -23 -59.499 -23c-22 0 -39.5 7.66699 -52.5 23s-17.833 34.333 -14.5 57
c4 21.333 15.167 39.666 33.5 54.999s38.5 23 60.5 23c21.333 0 38.5 -7.66699 51.5 -23zM778.498 1192c13 -15.333 17.498 -33.666 13.498 -54.999c-3.33301 -22.667 -14.166 -41.667 -32.499 -57s-38.166 -23 -59.499 -23c-22 0 -39.5 7.66699 -52.5 23
s-17.833 34.333 -14.5 57c4 21.333 15.167 39.666 33.5 54.999s38.5 23 60.5 23c21.333 0 38.5 -7.66699 51.5 -23z" />
    <glyph glyph-name="Amacron" unicode="&#x100;" horiz-adv-x="1116" 
d="M891 701l-115 593l-316 -593h431zM837 1414l276 -1414h-84l-122 622h-489l-334 -622h-85l756 1414h82zM560 1580h521l-10 -62h-521z" />
    <glyph glyph-name="amacron" unicode="&#x101;" horiz-adv-x="1122" 
d="M1033 0l-80 0.000976562l30 177c-18.667 -20.667 -38.667 -40.334 -60 -59.001c-110.667 -95.333 -233.334 -143 -368.001 -143c-133.333 0 -239.5 47.5 -318.5 142.5s-107.5 209.167 -85.5 342.5c22.667 134.667 89.5 249.334 200.5 344.001s233.167 142 366.5 142
c134.667 0 241.334 -47.333 320.001 -142c14.667 -18.667 28 -38.334 40 -59.001l21 123h80zM1017 382.001l27.002 157.001c-2 78 -27.333 146.333 -76 205c-65.333 78.667 -153.333 118 -264 118s-211.834 -39.333 -303.501 -118s-146.834 -173.334 -165.501 -284.001
c-18 -110.667 5.66699 -205 71 -283s153.333 -117 264 -117s211.667 39.333 303 118c68.667 58.667 116.667 126.667 144 204zM483.002 1134h521l-10 -62h-521z" />
    <glyph glyph-name="Abreve" unicode="&#x102;" horiz-adv-x="1116" 
d="M891 701l-115 593l-316 -593h431zM837 1414l276 -1414h-84l-122 622h-489l-334 -622h-85l756 1414h82zM1037 1685c-14.667 -30.667 -36.332 -58.333 -64.999 -83c-46.667 -40.667 -98.667 -61 -156 -61c-58.667 0 -104.667 20.333 -138 61
c-21.333 26 -34.333 53.667 -39 83h70c5.33301 -13.333 12.666 -25.666 21.999 -36.999c23.333 -28.667 55.333 -43 96 -43c39.333 0 75.333 14.333 108 43c14 11.333 25.333 23.666 34 36.999h68z" />
    <glyph glyph-name="abreve" unicode="&#x103;" horiz-adv-x="1122" 
d="M1033 0l-80 0.000976562l30 177c-18.667 -20.667 -38.667 -40.334 -60 -59.001c-110.667 -95.333 -233.334 -143 -368.001 -143c-133.333 0 -239.5 47.5 -318.5 142.5s-107.5 209.167 -85.5 342.5c22.667 134.667 89.5 249.334 200.5 344.001s233.167 142 366.5 142
c134.667 0 241.334 -47.333 320.001 -142c14.667 -18.667 28 -38.334 40 -59.001l21 123h80zM1017 382.001l27.002 157.001c-2 78 -27.333 146.333 -76 205c-65.333 78.667 -153.333 118 -264 118s-211.834 -39.333 -303.501 -118s-146.834 -173.334 -165.501 -284.001
c-18 -110.667 5.66699 -205 71 -283s153.333 -117 264 -117s211.667 39.333 303 118c68.667 58.667 116.667 126.667 144 204zM957.002 1219c-14.667 -30.667 -36.334 -58.333 -65.001 -83c-47.333 -40.667 -99.666 -61 -156.999 -61c-58.667 0 -104.334 20.333 -137.001 61
c-21.333 26 -34.666 53.667 -39.999 83h71c4.66699 -13.333 11.667 -25.666 21 -36.999c23.333 -28.667 55.333 -43 96 -43c39.333 0 75.333 14.333 108 43c14 11.333 25.333 23.666 34 36.999h69z" />
    <glyph glyph-name="Aogonek" unicode="&#x104;" horiz-adv-x="1116" 
d="M891 701l-115 593l-316 -593h431zM1023 34l-115.999 588h-489l-334 -622h-85l756 1414h82l276 -1414h-59c-38 -12 -66.667 -25.333 -86 -40c-22 -16.667 -35.667 -37.334 -41 -62.001l-1 -6c-4 -22 0 -41.667 12 -59c12.667 -18.667 30.334 -28.667 53.001 -30
c2 -0.666992 4 -1 6 -1c20.667 0 44 7.66699 70 23l9 -48l-5 -3c-24.667 -18.667 -52.334 -28 -83.001 -28h-12c-37.333 2.66699 -66.333 19 -87 49c-18.667 27.333 -25.334 58.333 -20.001 93c0.666992 4.66699 2 9.33398 4 14.001c10 40.667 32 74 66 100
c27.333 20 55.333 30.667 84 32z" />
    <glyph glyph-name="aogonek" unicode="&#x105;" horiz-adv-x="1122" 
d="M1017 382l27.002 157.001c-2 78 -27.333 146.333 -76 205c-65.333 78.667 -153.333 118 -264 118s-211.834 -39.333 -303.501 -118s-146.834 -173.334 -165.501 -284.001c-18 -110.667 5.66699 -205 71 -283s153.333 -117 264 -117s211.667 39.333 303 118
c68.667 58.667 116.667 126.667 144 204zM959.002 34.001l23.999 143.001c-18.667 -20.667 -38.667 -40.334 -60 -59.001c-110.667 -95.333 -233.334 -143 -368.001 -143c-133.333 0 -239.5 47.5 -318.5 142.5s-107.5 209.167 -85.5 342.5
c22.667 134.667 89.5 249.334 200.5 344.001s233.167 142 366.5 142c134.667 0 241.334 -47.333 320.001 -142c14.667 -18.667 28 -38.334 40 -59.001l21 123h80l-146 -868h-59c-38 -12 -66.333 -25.333 -85 -40c-22 -16.667 -36 -37.334 -42 -62.001l-1 -6
c-3.33301 -22 1 -41.667 13 -59c12.667 -18.667 30.334 -28.667 53.001 -30c1.33301 -0.666992 3 -1 5 -1c20.667 0 44 7.66699 70 23l9 -48l-4 -3c-24.667 -18.667 -52.334 -28 -83.001 -28h-12c-37.333 2.66699 -66.666 19 -87.999 49c-18.667 27.333 -25 58.333 -19 93
c0.666992 4.66699 1.66699 9.33398 3 14.001c10 40.667 32.333 74 67 100c28.667 21.333 58 32 88 32h11z" />
    <glyph glyph-name="Cacute" unicode="&#x106;" horiz-adv-x="1347" 
d="M1262 225l51.998 -54.001c-159.333 -125.333 -332.333 -188 -519 -188c-200.667 0 -359.667 70.5 -477 211.5s-159.333 311.833 -126 512.5c33.333 199.333 132.5 369.833 297.5 511.5s347.833 212.5 548.5 212.5c186.667 0 338.334 -63 455.001 -189l-70 -54
c-103.333 107.333 -236.333 161 -399 161c-177.333 0 -339.333 -62.667 -486 -188s-235 -276.666 -265 -453.999c-29.333 -178 8.33398 -329.667 113.001 -455s245.667 -188 423 -188c162.667 0 313.667 53.667 453 161zM1156 1683l-245 -165h-74l172 165h147z" />
    <glyph glyph-name="cacute" unicode="&#x107;" horiz-adv-x="985" 
d="M884 209l79.002 -31c-18.667 -20.667 -39.334 -40.667 -62.001 -60c-110.667 -95.333 -233.334 -143 -368.001 -143c-133.333 0 -239.5 47.5 -318.5 142.5s-107.167 209.5 -84.5 343.5c22 134 88.5 248.333 199.5 343s233.167 142 366.5 142
c134.667 0 241.334 -47.333 320.001 -142c16 -19.333 30 -39.333 42 -60l-89 -31l-23 32c-65.333 78 -153.333 117 -264 117c-110 0 -210.833 -39.167 -302.5 -117.5s-146.5 -172.833 -164.5 -283.5c-18.667 -110.667 4.66602 -205.167 69.999 -283.5s153 -117.5 263 -117.5
c110.667 0 211.667 39.333 303 118c12 10 23 20.333 33 31zM891.002 1217l-244 -165h-74l171 165h147z" />
    <glyph glyph-name="Ccircumflex" unicode="&#x108;" horiz-adv-x="1347" 
d="M1262 225l51.998 -54.001c-159.333 -125.333 -332.333 -188 -519 -188c-200.667 0 -359.667 70.5 -477 211.5s-159.333 311.833 -126 512.5c33.333 199.333 132.5 369.833 297.5 511.5s347.833 212.5 548.5 212.5c186.667 0 338.334 -63 455.001 -189l-70 -54
c-103.333 107.333 -236.333 161 -399 161c-177.333 0 -339.333 -62.667 -486 -188s-235 -276.666 -265 -453.999c-29.333 -178 8.33398 -329.667 113.001 -455s245.667 -188 423 -188c162.667 0 313.667 53.667 453 161zM1166 1519h-92l-127 106l-153 -106h-93l260 187z" />
    <glyph glyph-name="ccircumflex" unicode="&#x109;" horiz-adv-x="985" 
d="M884 209l79.002 -31c-18.667 -20.667 -39.334 -40.667 -62.001 -60c-110.667 -95.333 -233.334 -143 -368.001 -143c-133.333 0 -239.5 47.5 -318.5 142.5s-107.167 209.5 -84.5 343.5c22 134 88.5 248.333 199.5 343s233.167 142 366.5 142
c134.667 0 241.334 -47.333 320.001 -142c16 -19.333 30 -39.333 42 -60l-89 -31l-23 32c-65.333 78 -153.333 117 -264 117c-110 0 -210.833 -39.167 -302.5 -117.5s-146.5 -172.833 -164.5 -283.5c-18.667 -110.667 4.66602 -205.167 69.999 -283.5s153 -117.5 263 -117.5
c110.667 0 211.667 39.333 303 118c12 10 23 20.333 33 31zM902.002 1053h-92l-128 106l-152 -106h-93l259 187z" />
    <glyph glyph-name="Cdotaccent" unicode="&#x10a;" horiz-adv-x="1347" 
d="M1262 225l51.998 -54.001c-159.333 -125.333 -332.333 -188 -519 -188c-200.667 0 -359.667 70.5 -477 211.5s-159.333 311.833 -126 512.5c33.333 199.333 132.5 369.833 297.5 511.5s347.833 212.5 548.5 212.5c186.667 0 338.334 -63 455.001 -189l-70 -54
c-103.333 107.333 -236.333 161 -399 161c-177.333 0 -339.333 -62.667 -486 -188s-235 -276.666 -265 -453.999c-29.333 -178 8.33398 -329.667 113.001 -455s245.667 -188 423 -188c162.667 0 313.667 53.667 453 161zM1006 1667.5c11.333 -13 15.333 -28.833 12 -47.5
s-12.666 -34.5 -27.999 -47.5s-32 -19.5 -50 -19.5c-18.667 0 -33.667 6.5 -45 19.5s-15.333 28.833 -12 47.5s12.666 34.5 27.999 47.5s32.333 19.5 51 19.5c18 0 32.667 -6.5 44 -19.5z" />
    <glyph glyph-name="cdotaccent" unicode="&#x10b;" horiz-adv-x="985" 
d="M884 209l79.002 -31c-18.667 -20.667 -39.334 -40.667 -62.001 -60c-110.667 -95.333 -233.334 -143 -368.001 -143c-133.333 0 -239.5 47.5 -318.5 142.5s-107.167 209.5 -84.5 343.5c22 134 88.5 248.333 199.5 343s233.167 142 366.5 142
c134.667 0 241.334 -47.333 320.001 -142c16 -19.333 30 -39.333 42 -60l-89 -31l-23 32c-65.333 78 -153.333 117 -264 117c-110 0 -210.833 -39.167 -302.5 -117.5s-146.5 -172.833 -164.5 -283.5c-18.667 -110.667 4.66602 -205.167 69.999 -283.5s153 -117.5 263 -117.5
c110.667 0 211.667 39.333 303 118c12 10 23 20.333 33 31zM741.502 1201.5c11 -13 15.165 -28.833 12.498 -47.5c-3.33301 -18.667 -12.833 -34.5 -28.5 -47.5s-32.5 -19.5 -50.5 -19.5c-18.667 0 -33.5 6.5 -44.5 19.5s-14.833 28.833 -11.5 47.5
c2.66699 18.667 11.834 34.5 27.501 47.5s32.834 19.5 51.501 19.5c18 0 32.5 -6.5 43.5 -19.5z" />
    <glyph glyph-name="Ccaron" unicode="&#x10c;" horiz-adv-x="1347" 
d="M1262 225l51.998 -54.001c-159.333 -125.333 -332.333 -188 -519 -188c-200.667 0 -359.667 70.5 -477 211.5s-159.333 311.833 -126 512.5c33.333 199.333 132.5 369.833 297.5 511.5s347.833 212.5 548.5 212.5c186.667 0 338.334 -63 455.001 -189l-70 -54
c-103.333 107.333 -236.333 161 -399 161c-177.333 0 -339.333 -62.667 -486 -188s-235 -276.666 -265 -453.999c-29.333 -178 8.33398 -329.667 113.001 -455s245.667 -188 423 -188c162.667 0 313.667 53.667 453 161zM923.998 1489l-196 187h93l117 -106l163 106h92z" />
    <glyph glyph-name="ccaron" unicode="&#x10d;" horiz-adv-x="985" 
d="M884 209l79.002 -31c-18.667 -20.667 -39.334 -40.667 -62.001 -60c-110.667 -95.333 -233.334 -143 -368.001 -143c-133.333 0 -239.5 47.5 -318.5 142.5s-107.167 209.5 -84.5 343.5c22 134 88.5 248.333 199.5 343s233.167 142 366.5 142
c134.667 0 241.334 -47.333 320.001 -142c16 -19.333 30 -39.333 42 -60l-89 -31l-23 32c-65.333 78 -153.333 117 -264 117c-110 0 -210.833 -39.167 -302.5 -117.5s-146.5 -172.833 -164.5 -283.5c-18.667 -110.667 4.66602 -205.167 69.999 -283.5s153 -117.5 263 -117.5
c110.667 0 211.667 39.333 303 118c12 10 23 20.333 33 31zM661.002 1033l-196 187h93l117 -106l163 106h92z" />
    <glyph glyph-name="Dcaron" unicode="&#x10e;" horiz-adv-x="1189" 
d="M611 1414c232 -1.33301 401.332 -66.333 507.999 -195c117.333 -142 159.333 -312.667 126 -512c-33.333 -200.667 -132.666 -371.667 -297.999 -513c-149.333 -128 -340.333 -192.667 -573 -194h-262l237 1414h262zM414.999 1331l-209 -1249h181
c203.333 0 373 56.667 509 170c146.667 125.333 234.667 277 264 455c30 177.333 -7.33301 329 -112 455c-98 112.667 -248.667 169 -452 169h-181zM863.999 1489l-197 187h93l118 -106l162 106h92z" />
    <glyph glyph-name="dcaron" unicode="&#x10f;" horiz-adv-x="1269" 
d="M1033 0l-80 0.000976562l30 177c-18.667 -20.667 -38.667 -40.334 -60 -59.001c-110.667 -95.333 -233.334 -143 -368.001 -143c-133.333 0 -239.5 47.5 -318.5 142.5s-107.5 209.167 -85.5 342.5c22.667 134.667 89.5 249.334 200.5 344.001s233.167 142 366.5 142
c134.667 0 241.334 -47.333 320.001 -142c14.667 -18.667 28 -38.334 40 -59.001l112 669h80zM1017 382.001l27.002 157.001c-2 78 -27.333 146.333 -76 205c-65.333 78.667 -153.333 118 -264 118s-211.834 -39.333 -303.501 -118s-146.834 -173.334 -165.501 -284.001
c-18 -110.667 5.66699 -205 71 -283s153.333 -117 264 -117s211.667 39.333 303 118c68.667 58.667 116.667 126.667 144 204zM1382 1268c-13.333 2.66699 -23.999 9.33398 -31.999 20.001c-13.333 15.333 -18 34.333 -14 57c3.33301 22 14.166 40.5 32.499 55.5
s38.5 22.5 60.5 22.5c21.333 0 38.5 -7.5 51.5 -22.5s17.833 -33.5 14.5 -55.5c-2.66699 -12.667 -6.66699 -24.334 -12 -35.001l-117 -175h-57z" />
    <glyph glyph-name="Dcroat" unicode="&#x110;" horiz-adv-x="1261" 
d="M340 667l-98 -585h181c203.333 0 373.333 56.667 510 170c146 125.333 234 277 264 455c29.333 177.333 -8 329 -112 455c-98.667 112.667 -249.667 169 -453 169h-181l-98 -584h492l-13 -80h-492zM273 747l111.999 667h262c232.667 -1.33301 402 -66.333 508 -195
c118 -142 160.333 -312.667 127 -512c-34 -200.667 -133.333 -371.667 -298 -513c-149.333 -128 -340.666 -192.667 -573.999 -194h-262l112 667h-128l13 80h128z" />
    <glyph glyph-name="dcroat" unicode="&#x111;" horiz-adv-x="1145" 
d="M1017 382l27.002 157.001c-2 78 -27.333 146.333 -76 205c-65.333 78.667 -153.333 118 -264 118s-211.834 -39.333 -303.501 -118s-146.834 -173.334 -165.501 -284.001c-18 -110.667 5.66699 -205 71 -283s153.333 -117 264 -117s211.667 39.333 303 118
c68.667 58.667 116.667 126.667 144 204zM1223 1134l-190 -1134h-80l30 177c-18.667 -20.667 -38.667 -40.334 -60 -59.001c-110.667 -95.333 -233.334 -143 -368.001 -143c-133.333 0 -239.5 47.5 -318.5 142.5s-107.5 209.167 -85.5 342.5
c22.667 134.667 89.5 249.334 200.5 344.001s233.167 142 366.5 142c134.667 0 241.334 -47.333 320.001 -142c14.667 -18.667 28 -38.334 40 -59.001l65 389h-306l13 79h306l34 201h80l-34 -201h114l-13 -79h-114z" />
    <glyph glyph-name="Emacron" unicode="&#x112;" horiz-adv-x="931" 
d="M1056 1414l-14 -80h-627l-98 -587h627l-13 -80h-627l-99 -587h627l-13 -80h-707l237 1414h707zM469 1580h521l-10 -62h-521z" />
    <glyph glyph-name="emacron" unicode="&#x113;" horiz-adv-x="1042" 
d="M253 586l762.001 -0.000976562c-8.66699 60.667 -31.667 113.334 -69 158.001c-65.333 78.667 -153.333 118 -264 118s-212 -39.333 -304 -118c-54.667 -47.333 -96.334 -100 -125.001 -158zM224.001 504.999c-4.66699 -14 -8.33301 -29.001 -11 -45.001
c-18 -110.667 5.66699 -205 71 -283s153.333 -117 264 -117s211.667 39.333 303 118c16 13.333 31 27.333 45 42l80 -30c-12.667 -16.667 -37.667 -40.667 -75 -72c-110.667 -95.333 -233.334 -143 -368.001 -143c-133.333 0 -239.5 47.5 -318.5 142.5
s-107.5 209.167 -85.5 342.5c22.667 134.667 89.5 249.334 200.5 344.001s233.167 142 366.5 142c134.667 0 241.334 -47.333 320.001 -142c69.333 -84 94.333 -183.667 75 -299h-867zM459.002 1134h521l-10 -62h-521z" />
    <glyph glyph-name="Ebreve" unicode="&#x114;" horiz-adv-x="931" 
d="M1056 1414l-14 -80h-627l-98 -587h627l-13 -80h-627l-99 -587h627l-13 -80h-707l237 1414h707zM946 1685c-14.667 -30.667 -36.332 -58.333 -64.999 -83c-46.667 -40.667 -98.667 -61 -156 -61c-58.667 0 -104.667 20.333 -138 61c-21.333 26 -34.333 53.667 -39 83h70
c5.33301 -13.333 12.666 -25.666 21.999 -36.999c23.333 -28.667 55.333 -43 96 -43c39.333 0 75.333 14.333 108 43c14 11.333 25.333 23.666 34 36.999h68z" />
    <glyph glyph-name="ebreve" unicode="&#x115;" horiz-adv-x="1042" 
d="M253 586l762.001 -0.000976562c-8.66699 60.667 -31.667 113.334 -69 158.001c-65.333 78.667 -153.333 118 -264 118s-212 -39.333 -304 -118c-54.667 -47.333 -96.334 -100 -125.001 -158zM224.001 504.999c-4.66699 -14 -8.33301 -29.001 -11 -45.001
c-18 -110.667 5.66699 -205 71 -283s153.333 -117 264 -117s211.667 39.333 303 118c16 13.333 31 27.333 45 42l80 -30c-12.667 -16.667 -37.667 -40.667 -75 -72c-110.667 -95.333 -233.334 -143 -368.001 -143c-133.333 0 -239.5 47.5 -318.5 142.5
s-107.5 209.167 -85.5 342.5c22.667 134.667 89.5 249.334 200.5 344.001s233.167 142 366.5 142c134.667 0 241.334 -47.333 320.001 -142c69.333 -84 94.333 -183.667 75 -299h-867zM932.002 1219c-14.667 -30.667 -35.998 -58.333 -63.998 -83
c-47.333 -40.667 -99.666 -61 -156.999 -61c-58.667 0 -104.334 20.333 -137.001 61c-22 26 -35.333 53.667 -40 83h70c5.33301 -13.333 12.666 -25.666 21.999 -36.999c23.333 -28.667 55.333 -43 96 -43c39.333 0 75.333 14.333 108 43
c13.333 11.333 24.666 23.666 33.999 36.999h68z" />
    <glyph glyph-name="Edotaccent" unicode="&#x116;" horiz-adv-x="931" 
d="M1056 1414l-14 -80h-627l-98 -587h627l-13 -80h-627l-99 -587h627l-13 -80h-707l237 1414h707zM792 1667.5c11.333 -13 15.333 -28.833 12 -47.5s-12.666 -34.5 -27.999 -47.5s-32 -19.5 -50 -19.5c-18.667 0 -33.667 6.5 -45 19.5s-15.333 28.833 -12 47.5
s12.666 34.5 27.999 47.5s32.333 19.5 51 19.5c18 0 32.667 -6.5 44 -19.5z" />
    <glyph glyph-name="edotaccent" unicode="&#x117;" horiz-adv-x="1042" 
d="M253 586l762.001 -0.000976562c-8.66699 60.667 -31.667 113.334 -69 158.001c-65.333 78.667 -153.333 118 -264 118s-212 -39.333 -304 -118c-54.667 -47.333 -96.334 -100 -125.001 -158zM224.001 504.999c-4.66699 -14 -8.33301 -29.001 -11 -45.001
c-18 -110.667 5.66699 -205 71 -283s153.333 -117 264 -117s211.667 39.333 303 118c16 13.333 31 27.333 45 42l80 -30c-12.667 -16.667 -37.667 -40.667 -75 -72c-110.667 -95.333 -233.334 -143 -368.001 -143c-133.333 0 -239.5 47.5 -318.5 142.5
s-107.5 209.167 -85.5 342.5c22.667 134.667 89.5 249.334 200.5 344.001s233.167 142 366.5 142c134.667 0 241.334 -47.333 320.001 -142c69.333 -84 94.333 -183.667 75 -299h-867zM778.502 1201.5c11 -13 15.165 -28.833 12.498 -47.5
c-3.33301 -18.667 -12.833 -34.5 -28.5 -47.5s-32.5 -19.5 -50.5 -19.5c-18.667 0 -33.5 6.5 -44.5 19.5s-14.833 28.833 -11.5 47.5c2.66699 18.667 11.834 34.5 27.501 47.5s32.834 19.5 51.501 19.5c18 0 32.5 -6.5 43.5 -19.5z" />
    <glyph glyph-name="Eogonek" unicode="&#x118;" horiz-adv-x="931" 
d="M643 0h-530.998l237 1414h707l-14 -80h-627l-98 -587h627l-13 -80h-627l-99 -587h627l-13 -80h-59c-38 -12 -66.667 -25.333 -86 -40c-22 -16.667 -35.667 -37.334 -41 -62.001l-1 -6c-4 -22 0 -41.667 12 -59c12.667 -18.667 30.334 -28.667 53.001 -30
c2 -0.666992 4 -1 6 -1c20.667 0 44 7.66699 70 23l9 -48l-5 -3c-24.667 -18.667 -52.334 -28 -83.001 -28h-12c-37.333 2.66699 -66.333 19 -87 49c-18.667 27.333 -25.334 58.333 -20.001 93c0.666992 4.66699 2 9.33398 4 14.001c9.33301 39.333 30.666 72 63.999 98z
" />
    <glyph glyph-name="eogonek" unicode="&#x119;" horiz-adv-x="1038" 
d="M253 586l762.001 -0.000976562c-8.66699 60.667 -31.667 113.334 -69 158.001c-65.333 78.667 -153.333 118 -264 118s-212 -39.333 -304 -118c-54.667 -47.333 -96.334 -100 -125.001 -158zM691.001 -2.00098c-50.667 -15.333 -103.334 -23.0029 -158.001 -23.0029
c-133.333 0 -239.5 47.5 -318.5 142.5s-107.5 209.167 -85.5 342.5c22.667 134.667 89.5 249.334 200.5 344.001s233.167 142 366.5 142c134.667 0 241.334 -47.333 320.001 -142c69.333 -84 94.333 -183.667 75 -299h-867c-4.66699 -14 -8.33398 -29 -11.001 -45
c-18 -110.667 5.66699 -205 71 -283s153.333 -117 264 -117s211.667 39.333 303 118c16 13.333 31 27.333 45 42l80 -30c-12.667 -16.667 -37.667 -40.667 -75 -72c-15.333 -13.333 -31 -25.666 -47 -36.999c-77.333 -60 -118.666 -102.333 -123.999 -127l-1 -6
c-4 -22 0 -41.667 12 -59c12.667 -18.667 30.334 -28.667 53.001 -30c2 -0.666992 4 -1 6 -1c20.667 0 44 7.66699 70 23l9 -48l-5 -3c-24.667 -18.667 -52.334 -28 -83.001 -28h-12c-37.333 2.66699 -66.333 19 -87 49c-19.333 27.333 -26 58.333 -20 93
c0.666992 4.66699 1.66699 9.33398 3 14.001c4 14.667 9.33301 28 16 40z" />
    <glyph glyph-name="Ecaron" unicode="&#x11a;" horiz-adv-x="931" 
d="M1056 1414l-14 -80h-627l-98 -587h627l-13 -80h-627l-99 -587h627l-13 -80h-707l237 1414h707zM710 1489l-197 187h93l118 -106l162 106h92z" />
    <glyph glyph-name="ecaron" unicode="&#x11b;" horiz-adv-x="1042" 
d="M253 586l762.001 -0.000976562c-8.66699 60.667 -31.667 113.334 -69 158.001c-65.333 78.667 -153.333 118 -264 118s-212 -39.333 -304 -118c-54.667 -47.333 -96.334 -100 -125.001 -158zM224.001 504.999c-4.66699 -14 -8.33301 -29.001 -11 -45.001
c-18 -110.667 5.66699 -205 71 -283s153.333 -117 264 -117s211.667 39.333 303 118c16 13.333 31 27.333 45 42l80 -30c-12.667 -16.667 -37.667 -40.667 -75 -72c-110.667 -95.333 -233.334 -143 -368.001 -143c-133.333 0 -239.5 47.5 -318.5 142.5
s-107.5 209.167 -85.5 342.5c22.667 134.667 89.5 249.334 200.5 344.001s233.167 142 366.5 142c134.667 0 241.334 -47.333 320.001 -142c69.333 -84 94.333 -183.667 75 -299h-867zM698.002 1033l-196 187h93l117 -106l163 106h92z" />
    <glyph glyph-name="Gcircumflex" unicode="&#x11c;" horiz-adv-x="1359" 
d="M1309 176c-156 -128.667 -327.335 -193.001 -514.002 -193.001c-200.667 0 -359.667 70.5 -477 211.5s-159.333 311.833 -126 512.5c33.333 199.333 132.5 369.833 297.5 511.5s347.833 212.5 548.5 212.5c186.667 0 338.334 -63 455.001 -189l-70 -54
c-103.333 107.333 -236.333 161 -399 161c-177.333 0 -339.333 -62.667 -486 -188s-235 -276.666 -265 -453.999c-29.333 -178 8.33398 -329.667 113.001 -455s245.667 -188 423 -188c152 0 293.667 46.667 425 140l72 431h79zM1166 1519h-92l-127 106l-153 -106h-93
l260 187z" />
    <glyph glyph-name="gcircumflex" unicode="&#x11d;" horiz-adv-x="1083" 
d="M1021 543c-2.66699 76 -27.665 143.001 -74.998 201.001c-65.333 78.667 -153.333 118 -264 118s-211.834 -39.333 -303.501 -118s-146.834 -173.334 -165.501 -284.001c-18 -110.667 5.5 -205.167 70.5 -283.5s152.833 -117.5 263.5 -117.5s212 39.333 304 118
c66 56.667 113.333 123 142 199zM958.002 172.001c-18 -18.667 -37.001 -36.666 -57.001 -53.999c-110.667 -95.333 -233.334 -143 -368.001 -143c-133.333 0 -239.5 47.5 -318.5 142.5s-107.5 209.167 -85.5 342.5c22.667 134.667 89.5 249.167 200.5 343.5
s233.167 141.5 366.5 141.5c134.667 0 241.334 -47 320.001 -141c14.667 -18.667 28 -38.334 40 -59.001l21 123h80l-113 -674c-22 -130.667 -87 -242 -195 -334c-110.667 -95.333 -233 -143 -367 -143s-240.667 47.667 -320 143c-16 19.333 -30 39.333 -42 60l89 31
c7.33301 -10.667 15.333 -21 24 -31c64.667 -78.667 152.334 -118 263.001 -118c110 0 211 39.333 303 118c83.333 71.333 136.333 155.333 159 252zM941.001 1053h-92l-128 106l-152 -106h-93l259 187z" />
    <glyph glyph-name="Gbreve" unicode="&#x11e;" horiz-adv-x="1359" 
d="M1309 176c-156 -128.667 -327.335 -193.001 -514.002 -193.001c-200.667 0 -359.667 70.5 -477 211.5s-159.333 311.833 -126 512.5c33.333 199.333 132.5 369.833 297.5 511.5s347.833 212.5 548.5 212.5c186.667 0 338.334 -63 455.001 -189l-70 -54
c-103.333 107.333 -236.333 161 -399 161c-177.333 0 -339.333 -62.667 -486 -188s-235 -276.666 -265 -453.999c-29.333 -178 8.33398 -329.667 113.001 -455s245.667 -188 423 -188c152 0 293.667 46.667 425 140l72 431h79zM1160 1685
c-14.667 -30.667 -36.332 -58.333 -64.999 -83c-46.667 -40.667 -98.667 -61 -156 -61c-58.667 0 -104.667 20.333 -138 61c-21.333 26 -34.333 53.667 -39 83h70c5.33301 -13.333 12.666 -25.666 21.999 -36.999c23.333 -28.667 55.333 -43 96 -43
c39.333 0 75.333 14.333 108 43c14 11.333 25.333 23.666 34 36.999h68z" />
    <glyph glyph-name="gbreve" unicode="&#x11f;" horiz-adv-x="1083" 
d="M1021 543c-2.66699 76 -27.665 143.001 -74.998 201.001c-65.333 78.667 -153.333 118 -264 118s-211.834 -39.333 -303.501 -118s-146.834 -173.334 -165.501 -284.001c-18 -110.667 5.5 -205.167 70.5 -283.5s152.833 -117.5 263.5 -117.5s212 39.333 304 118
c66 56.667 113.333 123 142 199zM958.002 172.001c-18 -18.667 -37.001 -36.666 -57.001 -53.999c-110.667 -95.333 -233.334 -143 -368.001 -143c-133.333 0 -239.5 47.5 -318.5 142.5s-107.5 209.167 -85.5 342.5c22.667 134.667 89.5 249.167 200.5 343.5
s233.167 141.5 366.5 141.5c134.667 0 241.334 -47 320.001 -141c14.667 -18.667 28 -38.334 40 -59.001l21 123h80l-113 -674c-22 -130.667 -87 -242 -195 -334c-110.667 -95.333 -233 -143 -367 -143s-240.667 47.667 -320 143c-16 19.333 -30 39.333 -42 60l89 31
c7.33301 -10.667 15.333 -21 24 -31c64.667 -78.667 152.334 -118 263.001 -118c110 0 211 39.333 303 118c83.333 71.333 136.333 155.333 159 252zM935.001 1219c-14.667 -30.667 -36.334 -58.333 -65.001 -83c-47.333 -40.667 -99.666 -61 -156.999 -61
c-58.667 0 -104.334 20.333 -137.001 61c-21.333 26 -34.666 53.667 -39.999 83h71c4.66699 -13.333 11.667 -25.666 21 -36.999c23.333 -28.667 55.333 -43 96 -43c39.333 0 75.333 14.333 108 43c14 11.333 25.333 23.666 34 36.999h69z" />
    <glyph glyph-name="Gdotaccent" unicode="&#x120;" horiz-adv-x="1359" 
d="M1309 176c-156 -128.667 -327.335 -193.001 -514.002 -193.001c-200.667 0 -359.667 70.5 -477 211.5s-159.333 311.833 -126 512.5c33.333 199.333 132.5 369.833 297.5 511.5s347.833 212.5 548.5 212.5c186.667 0 338.334 -63 455.001 -189l-70 -54
c-103.333 107.333 -236.333 161 -399 161c-177.333 0 -339.333 -62.667 -486 -188s-235 -276.666 -265 -453.999c-29.333 -178 8.33398 -329.667 113.001 -455s245.667 -188 423 -188c152 0 293.667 46.667 425 140l72 431h79zM1006 1667.5
c11.333 -13 15.333 -28.833 12 -47.5s-12.666 -34.5 -27.999 -47.5s-32 -19.5 -50 -19.5c-18.667 0 -33.667 6.5 -45 19.5s-15.333 28.833 -12 47.5s12.666 34.5 27.999 47.5s32.333 19.5 51 19.5c18 0 32.667 -6.5 44 -19.5z" />
    <glyph glyph-name="gdotaccent" unicode="&#x121;" horiz-adv-x="1083" 
d="M1021 543c-2.66699 76 -27.665 143.001 -74.998 201.001c-65.333 78.667 -153.333 118 -264 118s-211.834 -39.333 -303.501 -118s-146.834 -173.334 -165.501 -284.001c-18 -110.667 5.5 -205.167 70.5 -283.5s152.833 -117.5 263.5 -117.5s212 39.333 304 118
c66 56.667 113.333 123 142 199zM958.002 172.001c-18 -18.667 -37.001 -36.666 -57.001 -53.999c-110.667 -95.333 -233.334 -143 -368.001 -143c-133.333 0 -239.5 47.5 -318.5 142.5s-107.5 209.167 -85.5 342.5c22.667 134.667 89.5 249.167 200.5 343.5
s233.167 141.5 366.5 141.5c134.667 0 241.334 -47 320.001 -141c14.667 -18.667 28 -38.334 40 -59.001l21 123h80l-113 -674c-22 -130.667 -87 -242 -195 -334c-110.667 -95.333 -233 -143 -367 -143s-240.667 47.667 -320 143c-16 19.333 -30 39.333 -42 60l89 31
c7.33301 -10.667 15.333 -21 24 -31c64.667 -78.667 152.334 -118 263.001 -118c110 0 211 39.333 303 118c83.333 71.333 136.333 155.333 159 252zM780.501 1201.5c11 -13 15.165 -28.833 12.498 -47.5c-3.33301 -18.667 -12.833 -34.5 -28.5 -47.5
s-32.5 -19.5 -50.5 -19.5c-18.667 0 -33.5 6.5 -44.5 19.5s-14.833 28.833 -11.5 47.5c2.66699 18.667 11.834 34.5 27.501 47.5s32.834 19.5 51.501 19.5c18 0 32.5 -6.5 43.5 -19.5z" />
    <glyph glyph-name="Gcommaaccent" unicode="&#x122;" horiz-adv-x="1359" 
d="M727 -14c-169.333 14.667 -305.337 84.3311 -408.004 208.998c-118 140.667 -160.333 311.334 -127 512.001c33.333 199.333 132.5 369.833 297.5 511.5s347.833 212.5 548.5 212.5c186.667 0 338.334 -63 455.001 -189l-70 -54c-103.333 107.333 -236.333 161 -399 161
c-177.333 0 -339.333 -62.667 -486 -188s-235 -276.666 -265 -453.999c-29.333 -178 8.33398 -329.667 113.001 -455s245.667 -188 423 -188c152 0 293.667 46.667 425 140l72 431h79l-76 -459c-156 -128.667 -327.333 -193 -514 -193h-5l-19 -35
c60.667 -4.66699 96.667 -25 108 -61c6 -19.333 7.66699 -38 5 -56c-2.66699 -15.333 -9 -30 -19 -44c-20 -30 -51.333 -48.333 -94 -55c-15.333 -2.66699 -29.666 -4 -42.999 -4c-22.667 0 -41.667 3.66699 -57 11c-24 11.333 -44 24.333 -60 39l44 40
c18.667 -23.333 41 -35 67 -35c6.66699 0 13.667 1 21 3c32.667 7.33301 51.667 26.333 57 57l1 6c2.66699 28.667 -28 43 -92 43c-11.333 0 -23.666 -0.333008 -36.999 -1z" />
    <glyph glyph-name="gcommaaccent" unicode="&#x123;" horiz-adv-x="1083" 
d="M1021 543c-2.66699 76 -27.665 143.001 -74.998 201.001c-65.333 78.667 -153.333 118 -264 118s-211.834 -39.333 -303.501 -118s-146.834 -173.334 -165.501 -284.001c-18 -110.667 5.5 -205.167 70.5 -283.5s152.833 -117.5 263.5 -117.5s212 39.333 304 118
c66 56.667 113.333 123 142 199zM958.002 172.001c-18 -18.667 -37.001 -36.666 -57.001 -53.999c-110.667 -95.333 -233.334 -143 -368.001 -143c-133.333 0 -239.5 47.5 -318.5 142.5s-107.5 209.167 -85.5 342.5c22.667 134.667 89.5 249.167 200.5 343.5
s233.167 141.5 366.5 141.5c134.667 0 241.334 -47 320.001 -141c14.667 -18.667 28 -38.334 40 -59.001l21 123h80l-113 -674c-22 -130.667 -87 -242 -195 -334c-110.667 -95.333 -233 -143 -367 -143s-240.667 47.667 -320 143c-16 19.333 -30 39.333 -42 60l89 31
c7.33301 -10.667 15.333 -21 24 -31c64.667 -78.667 152.334 -118 263.001 -118c110 0 211 39.333 303 118c83.333 71.333 136.333 155.333 159 252zM746.001 1196c12.667 -2.66699 22.999 -9.33398 30.999 -20.001c13.333 -15.333 18.333 -34.333 15 -57
c-4 -22 -15 -40.5 -33 -55.5s-38 -22.5 -60 -22.5c-21.333 0 -38.666 7.5 -51.999 22.5s-18 33.5 -14 55.5c2 12.667 6 24.334 12 35.001l109 135h57z" />
    <glyph glyph-name="Hcircumflex" unicode="&#x124;" horiz-adv-x="1072" 
d="M286 667l-112 -667h-80l237 1414h80l-112 -667h724l112 667h80l-237 -1414h-80l112 667h-724zM1023 1519h-92l-127 106l-153 -106h-93l259 187z" />
    <glyph glyph-name="hcircumflex" unicode="&#x125;" horiz-adv-x="859" 
d="M331 1414l79.999 -0.00195312l-99 -591c77.333 64.667 163.333 97 258 97c102 0 179.833 -32.167 233.5 -96.5s73.167 -145.166 58.5 -242.499l-97 -581h-80l96 573c12 74 -4.16699 137 -48.5 189s-102.833 78 -175.5 78c-73.333 0 -140.666 -25.667 -201.999 -77
c-28 -23.333 -50 -47.666 -66 -72.999l-115 -690h-80zM916.999 1522h-92l-128 106l-152 -106h-93l259 187z" />
    <glyph glyph-name="Hbar" unicode="&#x126;" horiz-adv-x="1072" 
d="M1168 1134l-190 -1134h-80l112 667h-724l-112 -667h-80l190 1134h-83l13 79h83l34 201h80l-34 -201h724l34 201h80l-34 -201h83l-13 -79h-83zM364 1134l-65 -387h724l65 387h-724z" />
    <glyph glyph-name="hbar" unicode="&#x127;" horiz-adv-x="839" 
d="M287 1213l33.999 200.998h80l-34 -201h194l-13 -79h-194l-52 -311c77.333 64.667 163.333 97 258 97c102 0 179.833 -32.167 233.5 -96.5s73.167 -145.166 58.5 -242.499l-97 -581h-80l96 573c12 74 -4.16699 137 -48.5 189s-102.833 78 -175.5 78
c-73.333 0 -140.666 -25.667 -201.999 -77c-28 -23.333 -50 -47.666 -66 -72.999l-115 -690h-80l190 1134h-100l13 79h100z" />
    <glyph glyph-name="Itilde" unicode="&#x128;" horiz-adv-x="324" 
d="M440 1414l-237 -1414h-80l237 1414h80zM445 1633c34.667 -28.667 59.667 -43.001 75 -43.001h4c12.667 4.66699 23 15.334 31 32.001c4.66699 9.33301 9 25.666 13 48.999l63 -13c-5.33301 -24.667 -12 -45 -20 -61c-18 -36.667 -42.667 -61.334 -74 -74.001
c-8.66699 -2.66699 -17.334 -4 -26.001 -4c-27.333 0 -59.666 15 -96.999 45c-34.667 29.333 -59.667 44 -75 44c-2 0 -3.33301 -0.333008 -4 -1c-12 -4 -22 -14.667 -30 -32c-5.33301 -9.33301 -10 -25.666 -14 -48.999l-62 14c4.66699 24.667 11 44.667 19 60
c18 36.667 43 61.334 75 74.001c8 3.33301 16.667 5 26 5c27.333 0 59.333 -15.333 96 -46z" />
    <glyph glyph-name="itilde" unicode="&#x129;" horiz-adv-x="317" 
d="M343 868l-145 -868h-79l145 868h79zM363 1167c34.667 -28.667 59.667 -43.001 75 -43.001h4c12.667 4.66699 23 15.334 31 32.001c4.66699 9.33301 9 25.666 13 48.999l63 -13c-5.33301 -24.667 -12 -45 -20 -61c-18 -36.667 -42.667 -61.334 -74 -74.001
c-8.66699 -2.66699 -17.334 -4 -26.001 -4c-27.333 0 -59.666 15 -96.999 45c-34.667 29.333 -59.667 44 -75 44c-2 0 -3.33301 -0.333008 -4 -1c-12 -4 -22 -14.667 -30 -32c-5.33301 -9.33301 -10 -25.666 -14 -48.999l-62 14c4.66699 24.667 11 44.667 19 60
c18 36.667 43 61.334 75 74.001c8 3.33301 16.667 5 26 5c27.333 0 59.333 -15.333 96 -46z" />
    <glyph glyph-name="Imacron" unicode="&#x12a;" horiz-adv-x="324" 
d="M440 1414l-237 -1414h-80l237 1414h80zM216 1580h421l-10 -62h-421z" />
    <glyph glyph-name="imacron" unicode="&#x12b;" horiz-adv-x="317" 
d="M343 868l-145 -868h-79l145 868h79zM138 1134h421l-11 -62h-421z" />
    <glyph glyph-name="Ibreve" unicode="&#x12c;" horiz-adv-x="324" 
d="M439 1414l-237 -1414h-80l237 1414h80zM643 1685c-14.667 -30.667 -36.332 -58.333 -64.999 -83c-46.667 -40.667 -98.667 -61 -156 -61c-58.667 0 -104.667 20.333 -138 61c-21.333 26 -34.333 53.667 -39 83h70c5.33301 -13.333 12.666 -25.666 21.999 -36.999
c23.333 -28.667 55.333 -43 96 -43c39.333 0 75.333 14.333 108 43c14 11.333 25.333 23.666 34 36.999h68z" />
    <glyph glyph-name="ibreve" unicode="&#x12d;" horiz-adv-x="317" 
d="M343 868l-145 -868h-79l145 868h79zM561 1219c-14.667 -30.667 -36.332 -58.333 -64.999 -83c-46.667 -40.667 -98.667 -61 -156 -61c-58.667 0 -104.667 20.333 -138 61c-21.333 26 -34.333 53.667 -39 83h70c5.33301 -13.333 12.666 -25.666 21.999 -36.999
c23.333 -28.667 55.333 -43 96 -43c39.333 0 75.333 14.333 108 43c14 11.333 25.333 23.666 34 36.999h68z" />
    <glyph glyph-name="Iogonek" unicode="&#x12e;" horiz-adv-x="324" 
d="M124 34l231 1380h80l-237 -1414h-59c-38 -12 -66.333 -25.333 -85 -40c-22 -16.667 -36 -37.334 -42 -62.001l-1 -6c-3.33301 -22 0.666992 -41.667 12 -59c13.333 -18.667 31 -28.667 53 -30c2 -0.666992 4 -1 6 -1c20.667 0 44 7.66699 70 23l9 -48l-4 -3
c-24.667 -18.667 -52.334 -28 -83.001 -28h-12c-37.333 2.66699 -66.666 19 -87.999 49c-18.667 27.333 -25 58.333 -19 93c0.666992 4.66699 1.66699 9.33398 3 14.001c10 40.667 32.333 74 67 100c28.667 21.333 58 32 88 32h11z" />
    <glyph glyph-name="iogonek" unicode="&#x12f;" horiz-adv-x="297" 
d="M393.5 1152c13 -15.333 17.834 -33.666 14.501 -54.999c-4 -22.667 -15 -41.667 -33 -57s-37.667 -23 -59 -23c-22 0 -39.667 7.66699 -53 23s-18 34.333 -14 57c3.33301 21.333 14.166 39.666 32.499 54.999s38.5 23 60.5 23c21.333 0 38.5 -7.66699 51.5 -23z
M111.001 31l140 836.999h79l-146 -868h-19c-38 -12 -66.333 -25.333 -85 -40c-22 -16.667 -36 -37.334 -42 -62.001l-1 -6c-3.33301 -22 0.666992 -41.667 12 -59c13.333 -18.667 31 -28.667 53 -30c2 -0.666992 4 -1 6 -1c20.667 0 44 7.66699 70 23l9 -48l-4 -3
c-24.667 -18.667 -52.334 -28 -83.001 -28h-12c-37.333 2.66699 -66.666 19 -87.999 49c-18.667 27.333 -25 58.333 -19 93c0.666992 4.66699 1.66699 9.33398 3 14.001c10 40.667 32.333 74 67 100c19.333 14.667 39.333 24.334 60 29.001z" />
    <glyph glyph-name="Idotaccent" unicode="&#x130;" horiz-adv-x="324" 
d="M440 1414l-237 -1414h-80l237 1414h80zM489 1667.5c11.333 -13 15.333 -28.833 12 -47.5s-12.666 -34.5 -27.999 -47.5s-32 -19.5 -50 -19.5c-18.667 0 -33.667 6.5 -45 19.5s-15.333 28.833 -12 47.5s12.666 34.5 27.999 47.5s32.333 19.5 51 19.5
c18 0 32.667 -6.5 44 -19.5z" />
    <glyph glyph-name="dotlessi" unicode="&#x131;" horiz-adv-x="317" 
d="M343 868l-145 -868h-79l145 868h79z" />
    <glyph glyph-name="IJ" unicode="&#x132;" horiz-adv-x="630" 
d="M439 1414l-237 -1414h-80l237 1414h80zM511 -27c-12 -72 -46.168 -131.333 -102.501 -178s-120.166 -70 -191.499 -70l12 73c48.667 0 93 16.667 133 50c38 32.667 61.667 77.667 71 135l240 1431h80z" />
    <glyph glyph-name="ij" unicode="&#x133;" horiz-adv-x="601" 
d="M343 868l-145 -868h-79l145 868h79zM407.5 1152c13 -15.333 17.833 -33.666 14.5 -54.999c-4 -22.667 -15.167 -41.667 -33.5 -57s-38.166 -23 -59.499 -23c-22 0 -39.5 7.66699 -52.5 23s-17.5 34.333 -13.5 57c3.33301 21.333 14.166 39.666 32.499 54.999
s38.5 23 60.5 23c21.333 0 38.5 -7.66699 51.5 -23zM286 -122c72.667 8 115 48 127 120l145 870h79l-145 -868c-20 -119.333 -92.667 -184 -218 -194zM701.5 1152c13 -15.333 17.833 -33.666 14.5 -54.999c-4 -22.667 -15.167 -41.667 -33.5 -57s-38.166 -23 -59.499 -23
c-22 0 -39.5 7.66699 -52.5 23s-17.5 34.333 -13.5 57c3.33301 21.333 14.166 39.666 32.499 54.999s38.5 23 60.5 23c21.333 0 38.5 -7.66699 51.5 -23z" />
    <glyph glyph-name="Jcircumflex" unicode="&#x134;" horiz-adv-x="306" 
d="M188 -27c-12 -72 -46.5 -132.5 -103.5 -181.5s-121.167 -73.5 -192.5 -73.5l13 80c48.667 0 93 16.667 133 50c38 32.667 61.667 77.667 71 135l240 1431h80zM652 1519h-92l-127 106l-153 -106h-93l260 187z" />
    <glyph glyph-name="jcircumflex" unicode="&#x135;" horiz-adv-x="284" 
d="M-32 -122c72.667 8 115 48 127 120l146 870h79l-145 -868c-20.667 -124 -94 -191 -220 -201zM540 1053h-92l-127 106l-153 -106h-93l259 187z" />
    <glyph glyph-name="Kcommaaccent" unicode="&#x136;" horiz-adv-x="999" 
d="M999 1414l-456 -531l470 -883h-97l-435 817l-189 -218l-100 -599h-80l237 1414h80l-114 -677l587 677h97zM426 -50c50 0 83.333 -7.66602 100 -22.999c23.333 -20.667 32.333 -45.334 27 -74.001l-1 -9c-8.66699 -32.667 -34 -62.667 -76 -90
c-36 -18.667 -72.333 -28 -109 -28c-20.667 0 -41.667 3 -63 9l25 51c17.333 -7.33301 35 -11 53 -11c20.667 0 41.667 5 63 15c18.667 12 31 26.333 37 43c1.33301 3.33301 2.33301 7 3 11c2 12 -1 22.667 -9 32c-10 11.333 -30 17.333 -60 18z" />
    <glyph glyph-name="kcommaaccent" unicode="&#x137;" horiz-adv-x="635" 
d="M667 868l-258 -265l240 -603h-98l-205 539l-93 -96l-74 -443h-80l207 1237h80l-112 -667l291 298h102zM326 -50c50 0 83.333 -7.66602 100 -22.999c23.333 -20.667 32.333 -45.334 27 -74.001l-1 -9c-8.66699 -32.667 -34 -62.667 -76 -90
c-36 -18.667 -72.333 -28 -109 -28c-20.667 0 -41.667 3 -63 9l25 51c17.333 -7.33301 35 -11 53 -11c20.667 0 41.667 5 63 15c18.667 12 31 26.333 37 43c1.33301 3.33301 2.33301 7 3 11c2 12 -1 22.667 -9 32c-10 11.333 -30 17.333 -60 18z" />
    <glyph glyph-name="kgreenlandic" unicode="&#x138;" horiz-adv-x="635" 
d="M667 868l-258 -265l240 -603h-98l-205 539l-93 -96l-74 -443h-80l145 868h80l-50 -298l291 298h102z" />
    <glyph glyph-name="Lacute" unicode="&#x139;" horiz-adv-x="783" 
d="M112 0l237 1414h80l-224 -1334h539l-13 -80h-619zM898 1683l-245 -165h-74l172 165h147z" />
    <glyph glyph-name="lacute" unicode="&#x13a;" horiz-adv-x="300" 
d="M428 1414l-237 -1414h-80l237 1414h80zM584 1719l-245 -165h-74l172 165h147z" />
    <glyph glyph-name="Lcommaaccent" unicode="&#x13b;" horiz-adv-x="783" 
d="M112 0l237 1414h80l-224 -1334h539l-13 -80h-619zM326 -50c50 0 83.333 -7.66602 100 -22.999c23.333 -20.667 32.333 -45.334 27 -74.001l-1 -9c-8.66699 -32.667 -34 -62.667 -76 -90c-36 -18.667 -72.333 -28 -109 -28c-20.667 0 -41.667 3 -63 9l25 51
c17.333 -7.33301 35 -11 53 -11c20.667 0 41.667 5 63 15c18.667 12 31 26.333 37 43c1.33301 3.33301 2.33301 7 3 11c2 12 -1 22.667 -9 32c-10 11.333 -30 17.333 -60 18z" />
    <glyph glyph-name="lcommaaccent" unicode="&#x13c;" horiz-adv-x="274" 
d="M414 1414l-237 -1414h-80l237 1414h80zM100 -50c50 0 83.333 -7.66602 100 -22.999c23.333 -20.667 32.666 -45.334 27.999 -74.001l-2 -9c-8.66699 -32.667 -34 -62.667 -76 -90c-36 -18.667 -72.333 -28 -109 -28c-20.667 0 -41.667 3 -63 9l26 51
c17.333 -7.33301 35 -11 53 -11c20.667 0 41.334 5 62.001 15c18.667 12 31 26.333 37 43c1.33301 3.33301 2.33301 7 3 11c2 12 -0.666992 22.667 -8 32c-10.667 11.333 -30.667 17.333 -60 18z" />
    <glyph glyph-name="Lcaron" unicode="&#x13d;" horiz-adv-x="783" 
d="M112 0l237 1414h80l-224 -1334h539l-13 -80h-619zM801 1268c-12.667 2.66699 -22.999 9.33398 -30.999 20.001c-14 15.333 -19 34.333 -15 57c4 22 15 40.5 33 55.5s38 22.5 60 22.5c21.333 0 38.666 -7.5 51.999 -22.5s18 -33.5 14 -55.5
c-2 -12.667 -6 -24.334 -12 -35.001l-116 -175h-57z" />
    <glyph glyph-name="lcaron" unicode="&#x13e;" horiz-adv-x="439" 
d="M429 1414l-237 -1414h-80l237 1414h80zM551 1268c-12.667 2.66699 -22.999 9.33398 -30.999 20.001c-14 15.333 -19 34.333 -15 57c4 22 15 40.5 33 55.5s38 22.5 60 22.5c21.333 0 38.666 -7.5 51.999 -22.5s18 -33.5 14 -55.5c-2 -12.667 -6 -24.334 -12 -35.001
l-116 -175h-57z" />
    <glyph glyph-name="Ldot" unicode="&#x13f;" horiz-adv-x="783" 
d="M112 0l237 1414h80l-224 -1334h539l-13 -80h-619zM797.5 754.5c11 -13 14.833 -28.833 11.5 -47.5c-2.66699 -18.667 -11.834 -34.5 -27.501 -47.5s-32.5 -19.5 -50.5 -19.5c-18.667 0 -33.5 6.5 -44.5 19.5s-15.167 28.833 -12.5 47.5
c3.33301 18.667 12.833 34.5 28.5 47.5s32.834 19.5 51.501 19.5c18 0 32.5 -6.5 43.5 -19.5z" />
    <glyph glyph-name="ldot" unicode="&#x140;" horiz-adv-x="440" 
d="M416 1414l-237 -1414h-80l237 1414h80zM520.5 754.5c11 -13 14.833 -28.833 11.5 -47.5c-2.66699 -18.667 -11.834 -34.5 -27.501 -47.5s-32.5 -19.5 -50.5 -19.5c-18.667 0 -33.5 6.5 -44.5 19.5s-15.167 28.833 -12.5 47.5c3.33301 18.667 12.833 34.5 28.5 47.5
s32.834 19.5 51.501 19.5c18 0 32.5 -6.5 43.5 -19.5z" />
    <glyph glyph-name="Lslash" unicode="&#x141;" horiz-adv-x="871" 
d="M398 696l457 327l-16 -94l-457 -327l-87 -522h539l-13 -80h-619l89 536l-229 -164l16 94l229 164l131 784h80z" />
    <glyph glyph-name="lslash" unicode="&#x142;" horiz-adv-x="376" 
d="M267 712l117 702h80l-106 -637l168 121l-16 -94l-168 -121l-114 -683h-80l103 618l-168 -121l16 94z" />
    <glyph glyph-name="Nacute" unicode="&#x143;" horiz-adv-x="1339" 
d="M447 1414l719 -1317l221 1317h80l-237 -1414h-123l-703 1286l-215 -1286h-80l237 1414h101zM1146 1683l-245 -165h-74l172 165h147z" />
    <glyph glyph-name="nacute" unicode="&#x144;" horiz-adv-x="879" 
d="M292 674l-113.003 -674h-80l145 868h80l-9 -56c84 72 174 108 270 108c102.667 0 180.834 -32.167 234.501 -96.5s72.834 -145.166 57.501 -242.499l-97 -581h-79l96 573c12 74 -4.16699 137 -48.5 189s-103.166 78 -176.499 78c-72.667 0 -140 -25.667 -202 -77
c-34 -28.667 -60 -58.334 -78 -89.001zM837.997 1217l-245 -165h-74l172 165h147z" />
    <glyph glyph-name="Ncommaaccent" unicode="&#x145;" horiz-adv-x="1339" 
d="M447 1414l719 -1317l221 1317h80l-237 -1414h-123l-703 1286l-215 -1286h-80l237 1414h101zM600 -50c50 0 83.333 -7.66602 100 -22.999c23.333 -20.667 32.333 -45.334 27 -74.001l-1 -9c-8.66699 -32.667 -34 -62.667 -76 -90c-36 -18.667 -72.333 -28 -109 -28
c-20.667 0 -41.667 3 -63 9l25 51c17.333 -7.33301 35 -11 53 -11c20.667 0 41.667 5 63 15c18.667 12 31 26.333 37 43c1.33301 3.33301 2.33301 7 3 11c2 12 -1 22.667 -9 32c-10 11.333 -30 17.333 -60 18z" />
    <glyph glyph-name="ncommaaccent" unicode="&#x146;" horiz-adv-x="879" 
d="M292 674l-113.003 -674h-80l145 868h80l-9 -56c84 72 174 108 270 108c102.667 0 180.834 -32.167 234.501 -96.5s72.834 -145.166 57.501 -242.499l-97 -581h-79l96 573c12 74 -4.16699 137 -48.5 189s-103.166 78 -176.499 78c-72.667 0 -140 -25.667 -202 -77
c-34 -28.667 -60 -58.334 -78 -89.001zM399.997 -50c50 0 83.333 -7.66602 100 -22.999c23.333 -20.667 32.333 -45.334 27 -74.001l-1 -9c-8.66699 -32.667 -34 -62.667 -76 -90c-36 -18.667 -72.333 -28 -109 -28c-20.667 0 -41.667 3 -63 9l25 51
c17.333 -7.33301 35 -11 53 -11c20.667 0 41.667 5 63 15c18.667 12 31 26.333 37 43c1.33301 3.33301 2.33301 7 3 11c2 12 -1 22.667 -9 32c-10 11.333 -30 17.333 -60 18z" />
    <glyph glyph-name="Ncaron" unicode="&#x147;" horiz-adv-x="1339" 
d="M447 1414l719 -1317l221 1317h80l-237 -1414h-123l-703 1286l-215 -1286h-80l237 1414h101zM914 1489l-197 187h93l118 -106l162 106h92z" />
    <glyph glyph-name="ncaron" unicode="&#x148;" horiz-adv-x="879" 
d="M292 674l-113.003 -674h-80l145 868h80l-9 -56c84 72 174 108 270 108c102.667 0 180.834 -32.167 234.501 -96.5s72.834 -145.166 57.501 -242.499l-97 -581h-79l96 573c12 74 -4.16699 137 -48.5 189s-103.166 78 -176.499 78c-72.667 0 -140 -25.667 -202 -77
c-34 -28.667 -60 -58.334 -78 -89.001zM607.997 1033l-197 187h93l117 -106l163 106h92z" />
    <glyph glyph-name="napostrophe" unicode="&#x149;" horiz-adv-x="998" 
d="M411 674l-113.002 -674h-80l145 868h80l-9 -56c84 72 174 108 270 108c102.667 0 180.834 -32.167 234.501 -96.5s72.834 -145.166 57.501 -242.499l-97 -581h-79l96 573c12.667 74 -3.33301 137 -48 189s-103.667 78 -177 78c-72.667 0 -140 -25.667 -202 -77
c-33.333 -28.667 -59.333 -58.334 -78 -89.001zM254.998 1053c-12.667 2.66699 -22.999 9.33398 -30.999 20.001c-14 15.333 -19 34.333 -15 57c4 22 15 40.5 33 55.5s38 22.5 60 22.5c21.333 0 38.666 -7.5 51.999 -22.5s18 -33.5 14 -55.5
c-2 -12.667 -6 -24.334 -12 -35.001l-116 -175h-57z" />
    <glyph glyph-name="Eng" unicode="&#x14a;" horiz-adv-x="1163" 
d="M988 84l-601 1102l-198 -1186h-80l240 1436l662 -1213l200 1191h80l-245 -1464c-12 -72 -46.5 -132.5 -103.5 -181.5s-121.167 -73.5 -192.5 -73.5l13 80c48.667 0 93 16.667 133 50c38 32.667 61.667 77.667 71 135z" />
    <glyph glyph-name="eng" unicode="&#x14b;" horiz-adv-x="885" 
d="M800 573c12 74 -4.16992 137 -48.5029 189s-103.166 78 -176.499 78c-72.667 0 -140 -25.667 -202 -77c-34 -28.667 -60 -58.334 -78 -89.001l-113 -674h-80l145 868h80l-9 -56c84 72 174 108 270 108c102.667 0 180.834 -32.167 234.501 -96.5
s72.834 -145.166 57.501 -242.499l-77 -460h1l-28 -171c-12 -72 -46.5 -132.5 -103.5 -181.5s-121.167 -73.5 -192.5 -73.5l13 80c48.667 0 93 16.667 133 50c38 32.667 61.667 77.667 71 135z" />
    <glyph glyph-name="Omacron" unicode="&#x14c;" horiz-adv-x="1575" 
d="M1505 1221.5c118 -141.667 159.999 -312.5 125.999 -512.5c-33.333 -200.667 -132.666 -371.834 -297.999 -513.501s-348.333 -212.5 -549 -212.5c-200 0 -359 70.833 -477 212.5s-160.333 312.834 -127 513.501c34 200 133.667 370.833 299 512.5s348 212.5 548 212.5
c200.667 0 360 -70.833 478 -212.5zM1013 1353c-177.333 0 -339.5 -63 -486.5 -189s-235.5 -277.667 -265.5 -455c-29.333 -178 8.33398 -330 113.001 -456s245.667 -189 423 -189c178 0 340.667 63 488 189s235.666 278 264.999 456c30 177.333 -7.5 329 -112.5 455
s-246.5 189 -424.5 189zM790.999 1580h521l-10 -62h-521z" />
    <glyph glyph-name="omacron" unicode="&#x14d;" horiz-adv-x="1114" 
d="M716 946c134.667 0 241.168 -47.333 319.501 -142s106.166 -209.334 83.499 -344.001c-22 -133.333 -88.167 -247.5 -198.5 -342.5s-232.833 -142.5 -367.5 -142.5c-133.333 0 -239.5 47.5 -318.5 142.5s-107.5 209.167 -85.5 342.5
c22.667 134.667 89.5 249.334 200.5 344.001s233.167 142 366.5 142zM398.501 744c-91.667 -78.667 -146.832 -173.334 -165.499 -284.001c-18 -110.667 5.66699 -205 71 -283s153.333 -117 264 -117s211.667 39 303 117s146 172.333 164 283
c18.667 110.667 -4.5 205.334 -69.5 284.001s-152.833 118 -263.5 118s-211.834 -39.333 -303.501 -118zM487.003 1134h521l-10 -62h-521z" />
    <glyph glyph-name="Obreve" unicode="&#x14e;" horiz-adv-x="1575" 
d="M1505 1221.5c118 -141.667 159.999 -312.5 125.999 -512.5c-33.333 -200.667 -132.666 -371.834 -297.999 -513.501s-348.333 -212.5 -549 -212.5c-200 0 -359 70.833 -477 212.5s-160.333 312.834 -127 513.501c34 200 133.667 370.833 299 512.5s348 212.5 548 212.5
c200.667 0 360 -70.833 478 -212.5zM1013 1353c-177.333 0 -339.5 -63 -486.5 -189s-235.5 -277.667 -265.5 -455c-29.333 -178 8.33398 -330 113.001 -456s245.667 -189 423 -189c178 0 340.667 63 488 189s235.666 278 264.999 456c30 177.333 -7.5 329 -112.5 455
s-246.5 189 -424.5 189zM1268 1685c-14.667 -30.667 -36.332 -58.333 -64.999 -83c-46.667 -40.667 -98.667 -61 -156 -61c-58.667 0 -104.667 20.333 -138 61c-22 26 -35 53.667 -39 83h70c4.66699 -13.333 12 -25.666 22 -36.999c22.667 -28.667 54.334 -43 95.001 -43
c39.333 0 75.666 14.333 108.999 43c13.333 11.333 24.666 23.666 33.999 36.999h68z" />
    <glyph glyph-name="obreve" unicode="&#x14f;" horiz-adv-x="1114" 
d="M716 946c134.667 0 241.168 -47.333 319.501 -142s106.166 -209.334 83.499 -344.001c-22 -133.333 -88.167 -247.5 -198.5 -342.5s-232.833 -142.5 -367.5 -142.5c-133.333 0 -239.5 47.5 -318.5 142.5s-107.5 209.167 -85.5 342.5
c22.667 134.667 89.5 249.334 200.5 344.001s233.167 142 366.5 142zM398.501 744c-91.667 -78.667 -146.832 -173.334 -165.499 -284.001c-18 -110.667 5.66699 -205 71 -283s153.333 -117 264 -117s211.667 39 303 117s146 172.333 164 283
c18.667 110.667 -4.5 205.334 -69.5 284.001s-152.833 118 -263.5 118s-211.834 -39.333 -303.501 -118zM960.003 1219c-14.667 -30.667 -35.998 -58.333 -63.998 -83c-47.333 -40.667 -99.666 -61 -156.999 -61c-58.667 0 -104.334 20.333 -137.001 61
c-22 26 -35.333 53.667 -40 83h70c5.33301 -13.333 12.666 -25.666 21.999 -36.999c23.333 -28.667 55.333 -43 96 -43c39.333 0 75.333 14.333 108 43c13.333 11.333 24.666 23.666 33.999 36.999h68z" />
    <glyph glyph-name="Ohungarumlaut" unicode="&#x150;" horiz-adv-x="1575" 
d="M1505 1221.5c118 -141.667 159.999 -312.5 125.999 -512.5c-33.333 -200.667 -132.666 -371.834 -297.999 -513.501s-348.333 -212.5 -549 -212.5c-200 0 -359 70.833 -477 212.5s-160.333 312.834 -127 513.501c34 200 133.667 370.833 299 512.5s348 212.5 548 212.5
c200.667 0 360 -70.833 478 -212.5zM1013 1353c-177.333 0 -339.5 -63 -486.5 -189s-235.5 -277.667 -265.5 -455c-29.333 -178 8.33398 -330 113.001 -456s245.667 -189 423 -189c178 0 340.667 63 488 189s235.666 278 264.999 456c30 177.333 -7.5 329 -112.5 455
s-246.5 189 -424.5 189zM1112 1676l-244 -165h-74l171 165h147zM1314 1676l-243 -165h-75l171 165h147z" />
    <glyph glyph-name="ohungarumlaut" unicode="&#x151;" horiz-adv-x="1114" 
d="M716 946c134.667 0 241.168 -47.333 319.501 -142s106.166 -209.334 83.499 -344.001c-22 -133.333 -88.167 -247.5 -198.5 -342.5s-232.833 -142.5 -367.5 -142.5c-133.333 0 -239.5 47.5 -318.5 142.5s-107.5 209.167 -85.5 342.5
c22.667 134.667 89.5 249.334 200.5 344.001s233.167 142 366.5 142zM398.501 744c-91.667 -78.667 -146.832 -173.334 -165.499 -284.001c-18 -110.667 5.66699 -205 71 -283s153.333 -117 264 -117s211.667 39 303 117s146 172.333 164 283
c18.667 110.667 -4.5 205.334 -69.5 284.001s-152.833 118 -263.5 118s-211.834 -39.333 -303.501 -118zM807.003 1220l-245 -165h-74l172 165h147zM1009 1220l-244 -165h-75l172 165h147z" />
    <glyph glyph-name="OE" unicode="&#x152;" horiz-adv-x="2014" 
d="M1407 1334c45.333 -30.667 86.666 -68.001 123.999 -112.001c110.667 -133.333 154.667 -291.666 132 -474.999h388l-14 -80h-388c-40 -182.667 -136.333 -339.667 -289 -471c-54.667 -46.667 -111 -85.334 -169 -116.001h748l-13 -80h-884
c-73.333 -11.333 -150.666 -17 -231.999 -17c-200 0 -359 70.833 -477 212.5s-160.333 312.834 -127 513.501c34 200 133.667 370.833 299 512.5s348 212.5 548 212.5c81.333 0 156.333 -6.66699 225 -20h884l-13 -80h-742zM1582 746.999
c18 161.333 -21.333 300.666 -118 417.999c-38.667 45.333 -81.667 82.333 -129 111c-23.333 14 -48 26.333 -74 37c-66 26.667 -140 40 -222 40c-177.333 0 -339.5 -63 -486.5 -189s-235.5 -277.667 -265.5 -455c-29.333 -178 8.33398 -330 113.001 -456
s245.667 -189 423 -189c82 0 160.667 13 236 39c29.333 10.667 58 23 86 37c57.333 29.333 112.666 67 165.999 113c135.333 116 221 254 257 414c3.33301 13.333 6 27.333 8 42c2.66699 12.667 4.66699 25.334 6 38.001z" />
    <glyph glyph-name="oe" unicode="&#x153;" horiz-adv-x="1826" 
d="M227 460c-18 -110.667 5.66895 -205 71.002 -283s153.333 -117 264 -117s211.667 39 303 117s146 172.333 164 283c18.667 110.667 -4.5 205.334 -69.5 284.001s-152.833 118 -263.5 118s-211.834 -39.333 -303.501 -118s-146.834 -173.334 -165.501 -284.001zM1097 688
c12 -32 19.668 -66.001 23.001 -102.001h670c-8.66699 60.667 -31.667 113.334 -69 158.001c-65.333 78.667 -153.333 118 -264 118s-212 -39.333 -304 -118c-20.667 -18 -39.334 -36.667 -56.001 -56zM1020 231.999c11.333 -18.667 24.001 -36.6689 38.001 -54.002
c66 -78.667 154.333 -118 265 -118s211.667 39.333 303 118c16 13.333 31 27.333 45 42l79 -30c-12.667 -16.667 -37.334 -40.667 -74.001 -72c-111.333 -95.333 -234 -143 -368 -143s-240.333 47.667 -319 143c-10.667 13.333 -20.667 27 -30 41
c-14 -14 -28.667 -27.667 -44 -41c-110.667 -95.333 -233.334 -143 -368.001 -143c-133.333 0 -239.5 47.5 -318.5 142.5s-107.5 209.167 -85.5 342.5c22.667 134.667 89.5 249.334 200.5 344.001s233.167 142 366.5 142c134.667 0 241.334 -47.333 320.001 -142
c10.667 -13.333 20.667 -27 30 -41c14 14 28.667 27.667 44 41c110.667 94.667 233 142 367 142s240.667 -47.333 320 -142c69.333 -84 96 -183.667 80 -299l-752 1c-1.33301 -15.333 -3.33301 -30.666 -6 -45.999c-13.333 -83.333 -44.333 -159.333 -93 -228z" />
    <glyph glyph-name="Racute" unicode="&#x154;" horiz-adv-x="959" 
d="M415 1333l-127 -762h240c104.667 0 200.5 37.167 287.5 111.5s139.167 164.5 156.5 270.5c18 105.333 -4.16699 195 -66.5 269s-145.833 111 -250.5 111h-240zM538 490l-264.001 0.000976562l-82 -490h-80l237 1414h371c105.333 -14.667 189.333 -59.667 252 -135
c74.667 -90.667 101.334 -199.334 80.001 -326.001c-21.333 -128 -84.333 -237 -189 -327c-73.333 -62.667 -152 -103.667 -236 -123l242 -503h-98zM978.999 1683l-245 -165h-74l172 165h147z" />
    <glyph glyph-name="racute" unicode="&#x155;" horiz-adv-x="406" 
d="M540 798c-58.667 -8.66699 -120.501 -44.668 -185.501 -108.001s-105.167 -140.666 -120.5 -231.999l-77 -458h-80l145 868h80l-26 -158c20 23.333 42.667 46 68 68c56.667 48.667 111.334 81 164.001 97zM639.999 1217l-245 -165h-74l172 165h147z" />
    <glyph glyph-name="Rcommaaccent" unicode="&#x156;" horiz-adv-x="959" 
d="M415 1333l-127 -762h240c104.667 0 200.5 37.167 287.5 111.5s139.167 164.5 156.5 270.5c18 105.333 -4.16699 195 -66.5 269s-145.833 111 -250.5 111h-240zM538 491c-8 -0.666992 -16.001 -0.999023 -24.001 -0.999023h-240l-82 -490h-80l237 1414h371
c105.333 -14.667 189.333 -59.667 252 -135c74.667 -90.667 101.334 -199.334 80.001 -326.001c-21.333 -128 -84.333 -237 -189 -327c-73.333 -62.667 -152 -103.667 -236 -123l242 -503h-98zM399.999 -49.999c50 0 83.333 -7.66602 100 -22.999
c23.333 -20.667 32.333 -45.334 27 -74.001l-1 -9c-8.66699 -32.667 -34 -62.667 -76 -90c-36 -18.667 -72.333 -28 -109 -28c-20.667 0 -41.667 3 -63 9l25 51c17.333 -7.33301 35 -11 53 -11c20.667 0 41.667 5 63 15c18.667 12 31 26.333 37 43
c1.33301 3.33301 2.33301 7 3 11c2 12 -1 22.667 -9 32c-10 11.333 -30 17.333 -60 18z" />
    <glyph glyph-name="rcommaaccent" unicode="&#x157;" horiz-adv-x="406" 
d="M540 798c-44.667 -8.66699 -93.334 -35.666 -146.001 -80.999c-87.333 -74.667 -141.333 -164.334 -162 -269.001l-75 -448h-80l146 868h80l-27 -158c20 23.333 43 46 69 68c56.667 48.667 111.334 81 164.001 97zM100 -49.999c50 0 83.333 -7.66602 100 -22.999
c23.333 -20.667 32.666 -45.334 27.999 -74.001l-2 -9c-8.66699 -32.667 -34 -62.667 -76 -90c-36 -18.667 -72.333 -28 -109 -28c-20.667 0 -41.667 3 -63 9l26 51c17.333 -7.33301 35 -11 53 -11c20.667 0 41.334 5 62.001 15c18.667 12 31 26.333 37 43
c1.33301 3.33301 2.33301 7 3 11c2 12 -0.666992 22.667 -8 32c-10.667 11.333 -30.667 17.333 -60 18z" />
    <glyph glyph-name="Rcaron" unicode="&#x158;" horiz-adv-x="959" 
d="M415 1333l-127 -762h240c104.667 0 200.5 37.167 287.5 111.5s139.167 164.5 156.5 270.5c18 105.333 -4.16699 195 -66.5 269s-145.833 111 -250.5 111h-240zM538 491c-8 -0.666992 -16.001 -0.999023 -24.001 -0.999023h-240l-82 -490h-80l237 1414h371
c105.333 -14.667 189.333 -59.667 252 -135c74.667 -90.667 101.334 -199.334 80.001 -326.001c-21.333 -128 -84.333 -237 -189 -327c-73.333 -62.667 -152 -103.667 -236 -123l242 -503h-98zM746.999 1489l-197 187h93l118 -106l162 106h92z" />
    <glyph glyph-name="rcaron" unicode="&#x159;" horiz-adv-x="406" 
d="M520 798c-58.667 -8.66699 -120.501 -44.668 -185.501 -108.001s-105.167 -140.666 -120.5 -231.999l-77 -458h-80l145 868h80l-26 -158c20 23.333 42.667 46 68 68c56.667 48.667 111.334 81 164.001 97zM389.999 1033l-197 187h93l117 -106l163 106h92z" />
    <glyph glyph-name="Sacute" unicode="&#x15a;" horiz-adv-x="942" 
d="M626 783c-95.333 33.333 -167.333 79.167 -216 137.5s-66 129.166 -52 212.499c14 81.333 55 151.333 123 210s143.667 88 227 88c82 0 147.667 -29.333 197 -88c27.333 -31.333 44 -66.333 50 -105l-77 -28c-6 28.667 -19 55 -39 79c-35.333 42.667 -83.333 64 -144 64
s-116 -21.333 -166 -64s-80.333 -94.667 -91 -156c-10 -60.667 2.66699 -112.667 38 -156c33.333 -39.333 82.666 -75.333 147.999 -108c107.333 -36.667 193 -93.667 257 -171c68 -81.333 92.333 -179.666 73 -294.999c-19.333 -116 -76.666 -215 -171.999 -297
s-200.666 -123 -315.999 -123c-116 0 -207.667 41.333 -275 124c-55.333 65.333 -82 141.333 -80 228l79 27c-4.66699 -76.667 17 -143.334 65 -200.001c55.333 -66.667 130 -100 224 -100s180 33.333 258 100s124.667 147 140 241c16 93.333 -4 173.333 -60 240
c-48.667 58.667 -112.334 105.334 -191.001 140.001zM946 1683l-244 -165h-74l171 165h147z" />
    <glyph glyph-name="sacute" unicode="&#x15b;" horiz-adv-x="644" 
d="M402 466c-61.333 36.667 -102.668 67.9951 -124.001 93.9951c-34 40.667 -46.333 89.667 -37 147c10 57.333 38.667 106.5 86 147.5s99.666 61.5 156.999 61.5s102 -19 134 -57c30 -36.667 41.333 -78.667 34 -126l-1 -4l-74 -28c1.33301 44.667 -7 78.334 -25 101.001
s-45 34 -81 34c-35.333 0 -67.833 -12.667 -97.5 -38s-47.5 -55.666 -53.5 -90.999s1.66699 -65.666 23 -90.999c12 -15.333 39.333 -38 82 -68c68 -40.667 115.333 -77 142 -109c42 -50.667 57 -111 45 -181c-12 -72 -47.167 -133.167 -105.5 -183.5
s-123.166 -75.5 -194.499 -75.5s-127.833 25.167 -169.5 75.5s-57.5 105.5 -47.5 165.5l82 20c-8 -51.333 2.5 -94.5 31.5 -129.5s67.833 -52.5 116.5 -52.5s93.667 17.5 135 52.5s66 77.5 74 127.5c8 48.667 -2.66699 90.334 -32 125.001
c-15.333 18.667 -48.666 46.334 -99.999 83.001zM709.998 1217l-245 -165h-74l172 165h147z" />
    <glyph glyph-name="Scircumflex" unicode="&#x15c;" horiz-adv-x="942" 
d="M626 783c-95.333 33.333 -167.333 79.167 -216 137.5s-66 129.166 -52 212.499c14 81.333 55 151.333 123 210s143.667 88 227 88c82 0 147.667 -29.333 197 -88c27.333 -31.333 44 -66.333 50 -105l-77 -28c-6 28.667 -19 55 -39 79c-35.333 42.667 -83.333 64 -144 64
s-116 -21.333 -166 -64s-80.333 -94.667 -91 -156c-10 -60.667 2.66699 -112.667 38 -156c33.333 -39.333 82.666 -75.333 147.999 -108c107.333 -36.667 193 -93.667 257 -171c68 -81.333 92.333 -179.666 73 -294.999c-19.333 -116 -76.666 -215 -171.999 -297
s-200.666 -123 -315.999 -123c-116 0 -207.667 41.333 -275 124c-55.333 65.333 -82 141.333 -80 228l79 27c-4.66699 -76.667 17 -143.334 65 -200.001c55.333 -66.667 130 -100 224 -100s180 33.333 258 100s124.667 147 140 241c16 93.333 -4 173.333 -60 240
c-48.667 58.667 -112.334 105.334 -191.001 140.001zM958 1519h-92l-127 106l-153 -106h-93l259 187z" />
    <glyph glyph-name="scircumflex" unicode="&#x15d;" horiz-adv-x="644" 
d="M402 466c-61.333 36.667 -102.668 67.9951 -124.001 93.9951c-34 40.667 -46.333 89.667 -37 147c10 57.333 38.667 106.5 86 147.5s99.666 61.5 156.999 61.5s102 -19 134 -57c30 -36.667 41.333 -78.667 34 -126l-1 -4l-74 -28c1.33301 44.667 -7 78.334 -25 101.001
s-45 34 -81 34c-35.333 0 -67.833 -12.667 -97.5 -38s-47.5 -55.666 -53.5 -90.999s1.66699 -65.666 23 -90.999c12 -15.333 39.333 -38 82 -68c68 -40.667 115.333 -77 142 -109c42 -50.667 57 -111 45 -181c-12 -72 -47.167 -133.167 -105.5 -183.5
s-123.166 -75.5 -194.499 -75.5s-127.833 25.167 -169.5 75.5s-57.5 105.5 -47.5 165.5l82 20c-8 -51.333 2.5 -94.5 31.5 -129.5s67.833 -52.5 116.5 -52.5s93.667 17.5 135 52.5s66 77.5 74 127.5c8 48.667 -2.66699 90.334 -32 125.001
c-15.333 18.667 -48.666 46.334 -99.999 83.001zM720.998 1053h-92l-127 106l-153 -106h-93l259 187z" />
    <glyph glyph-name="Scedilla" unicode="&#x15e;" horiz-adv-x="942" 
d="M417 -14c-92.667 10 -167.999 50.334 -225.999 121.001c-55.333 65.333 -82 141.333 -80 228l79 27c-4.66699 -76.667 17 -143.334 65 -200.001c55.333 -66.667 130 -100 224 -100s180 33.333 258 100s124.667 147 140 241c16 93.333 -4 173.333 -60 240
c-48.667 58.667 -112.334 105.334 -191.001 140.001c-95.333 33.333 -167.333 79.166 -216 137.499s-66 129.166 -52 212.499c14 81.333 55 151.333 123 210s143.667 88 227 88c82 0 147.667 -29.333 197 -88c27.333 -31.333 44 -66.333 50 -105l-77 -28
c-6 28.667 -19 55 -39 79c-35.333 42.667 -83.333 64 -144 64s-116 -21.333 -166 -64s-80.333 -94.667 -91 -156c-10 -60.667 2.66699 -112.667 38 -156c33.333 -39.333 82.666 -75.333 147.999 -108c107.333 -36.667 193 -93.667 257 -171
c68 -81.333 92.333 -179.666 73 -294.999c-19.333 -116 -76.666 -215 -171.999 -297c-90.667 -78 -191 -119 -301 -123l-19 -35c60.667 -4.66699 96.667 -25 108 -61c6 -19.333 7.33301 -38 4 -56c-2 -15.333 -8 -30 -18 -44c-20 -30 -51.333 -48.333 -94 -55
c-16 -2.66699 -30.667 -4 -44 -4c-22.667 0 -41.334 3.66699 -56.001 11c-24 11.333 -44 24.333 -60 39l43 40c18.667 -23.333 41 -35 67 -35c6.66699 0 14 1 22 3c32.667 7.33301 51.334 26.333 56.001 57l1 6c3.33301 28.667 -27 43 -91 43
c-11.333 0 -24 -0.333008 -38 -1z" />
    <glyph glyph-name="scedilla" unicode="&#x15f;" horiz-adv-x="644" 
d="M268 2c-51.333 8.66699 -93.334 32.9951 -126.001 72.9951c-41.333 50 -57 105 -47 165l82 20c-8 -51.333 2.5 -94.5 31.5 -129.5s67.833 -52.5 116.5 -52.5s93.667 17.5 135 52.5s66 77.5 74 127.5c8 48.667 -2.66699 90.334 -32 125.001
c-15.333 18.667 -48.666 46.334 -99.999 83.001c-61.333 36.667 -102.666 68 -123.999 94c-34 40.667 -46.333 89.667 -37 147c10 57.333 38.667 106.5 86 147.5s99.666 61.5 156.999 61.5s102 -19 134 -57c30 -36.667 41.333 -78.667 34 -126l-1 -4l-74 -28
c1.33301 44.667 -7 78.334 -25 101.001s-45 34 -81 34c-35.333 0 -67.833 -12.667 -97.5 -38s-47.5 -55.666 -53.5 -90.999s1.66699 -65.666 23 -90.999c12 -15.333 39.333 -38 82 -68c68 -40.667 115.333 -77 142 -109c42 -50.667 57 -111 45 -181
c-12 -72 -47.333 -133 -106 -183c-52.667 -46 -110.667 -71 -174 -75l-29 -52c60.667 -4.66699 96.667 -25 108 -61c6 -19.333 7.66699 -38 5 -56c-2.66699 -15.333 -9 -30 -19 -44c-20 -30 -51.333 -48.333 -94 -55c-16 -2.66699 -30.667 -4 -44 -4
c-22.667 0 -41.334 3.66699 -56.001 11c-24 11.333 -44 24.333 -60 39l43 40c19.333 -23.333 42 -35 68 -35c6.66699 0 13.667 1 21 3c32.667 7.33301 51.667 26.333 57 57l1 6c2.66699 28.667 -28 43 -92 43c-11.333 0 -23.666 -0.333008 -36.999 -1z" />
    <glyph glyph-name="Scaron" unicode="&#x160;" horiz-adv-x="942" 
d="M626 783c-95.333 33.333 -167.333 79.167 -216 137.5s-66 129.166 -52 212.499c14 81.333 55 151.333 123 210s143.667 88 227 88c82 0 147.667 -29.333 197 -88c27.333 -31.333 44 -66.333 50 -105l-77 -28c-6 28.667 -19 55 -39 79c-35.333 42.667 -83.333 64 -144 64
s-116 -21.333 -166 -64s-80.333 -94.667 -91 -156c-10 -60.667 2.66699 -112.667 38 -156c33.333 -39.333 82.666 -75.333 147.999 -108c107.333 -36.667 193 -93.667 257 -171c68 -81.333 92.333 -179.666 73 -294.999c-19.333 -116 -76.666 -215 -171.999 -297
s-200.666 -123 -315.999 -123c-116 0 -207.667 41.333 -275 124c-55.333 65.333 -82 141.333 -80 228l79 27c-4.66699 -76.667 17 -143.334 65 -200.001c55.333 -66.667 130 -100 224 -100s180 33.333 258 100s124.667 147 140 241c16 93.333 -4 173.333 -60 240
c-48.667 58.667 -112.334 105.334 -191.001 140.001zM716 1489l-197 187h93l117 -106l163 106h92z" />
    <glyph glyph-name="scaron" unicode="&#x161;" horiz-adv-x="644" 
d="M402 466c-61.333 36.667 -102.668 67.9951 -124.001 93.9951c-34 40.667 -46.333 89.667 -37 147c10 57.333 38.667 106.5 86 147.5s99.666 61.5 156.999 61.5s102 -19 134 -57c30 -36.667 41.333 -78.667 34 -126l-1 -4l-74 -28c1.33301 44.667 -7 78.334 -25 101.001
s-45 34 -81 34c-35.333 0 -67.833 -12.667 -97.5 -38s-47.5 -55.666 -53.5 -90.999s1.66699 -65.666 23 -90.999c12 -15.333 39.333 -38 82 -68c68 -40.667 115.333 -77 142 -109c42 -50.667 57 -111 45 -181c-12 -72 -47.167 -133.167 -105.5 -183.5
s-123.166 -75.5 -194.499 -75.5s-127.833 25.167 -169.5 75.5s-57.5 105.5 -47.5 165.5l82 20c-8 -51.333 2.5 -94.5 31.5 -129.5s67.833 -52.5 116.5 -52.5s93.667 17.5 135 52.5s66 77.5 74 127.5c8 48.667 -2.66699 90.334 -32 125.001
c-15.333 18.667 -48.666 46.334 -99.999 83.001zM480.998 1033l-197 187h93l117 -106l163 106h92z" />
    <glyph glyph-name="Tcommaaccent" unicode="&#x162;" horiz-adv-x="859" 
d="M692 1334l-223 -1334h-79l223 1334h-358l13 80h795l-13 -80h-358zM399 -50c50 0 83.666 -7.66602 100.999 -22.999c22.667 -20.667 31.667 -45.334 27 -74.001l-1 -9c-9.33301 -32.667 -34.666 -62.667 -75.999 -90c-36 -18.667 -72.333 -28 -109 -28
c-20.667 0 -42 3 -64 9l26 51c17.333 -7.33301 35 -11 53 -11c20.667 0 41.667 5 63 15c18.667 12 31 26.333 37 43c1.33301 3.33301 2.33301 7 3 11c2 12 -1 22.667 -9 32c-10 11.333 -30 17.333 -60 18z" />
    <glyph glyph-name="tcommaaccent" unicode="&#x163;" horiz-adv-x="497" 
d="M355 868l61 369h79l-61 -369h177l-14 -80h-177l-132 -788h-79l132 788h-177l14 80h177zM200 -50c50 0 83.333 -7.66602 100 -22.999c23.333 -20.667 32.666 -45.334 27.999 -74.001l-2 -9c-8.66699 -32.667 -34 -62.667 -76 -90c-36 -18.667 -72.333 -28 -109 -28
c-20.667 0 -41.667 3 -63 9l26 51c17.333 -7.33301 35 -11 53 -11c20.667 0 41.334 5 62.001 15c18.667 12 31 26.333 37 43c1.33301 3.33301 2.33301 7 3 11c2 12 -0.666992 22.667 -8 32c-10.667 11.333 -30.667 17.333 -60 18z" />
    <glyph glyph-name="Tcaron" unicode="&#x164;" horiz-adv-x="859" 
d="M692 1334l-223 -1334h-79l223 1334h-358l13 80h795l-13 -80h-358zM674 1489l-197 187h93l117 -106l163 106h92z" />
    <glyph glyph-name="tcaron" unicode="&#x165;" horiz-adv-x="564" 
d="M354 868l62 369h79l-62 -369h177l-13 -80h-177l-132 -788h-79l132 788h-177l13 80h177zM671 1239c-12.667 2.66699 -22.999 9.33398 -30.999 20.001c-13.333 15.333 -18.333 34.333 -15 57c4 22 15 40.5 33 55.5s38 22.5 60 22.5c21.333 0 38.666 -7.5 51.999 -22.5
s18 -33.5 14 -55.5c-2 -12.667 -6 -24.334 -12 -35.001l-116 -175h-57z" />
    <glyph glyph-name="Tbar" unicode="&#x166;" horiz-adv-x="859" 
d="M516 747l98 587h-358l14 80h795l-14 -80h-358l-98 -587h260l-13 -79h-260l-112 -668h-79l112 668h-261l13 79h261z" />
    <glyph glyph-name="tbar" unicode="&#x167;" horiz-adv-x="497" 
d="M341 788h-177l14 80h177l62 369h79l-62 -369h177l-14 -80h-177l-40 -239h177l-13 -80h-177l-78 -469h-79l78 469h-177l13 80h177z" />
    <glyph glyph-name="Utilde" unicode="&#x168;" horiz-adv-x="1147" 
d="M1191 1414h80l-170 -1016c-32.667 -108 -93 -199.667 -181 -275c-104.667 -90 -220.667 -135 -348 -135c-128 0 -229.5 45 -304.5 135s-101.833 198.667 -80.5 326l161 965h80l-161 -965c-17.333 -104.667 5 -194.334 67 -269.001s145.667 -112 251 -112
s201.5 37.333 288.5 112s139.167 164.334 156.5 269.001zM856 1633c34.667 -28.667 59.667 -43.001 75 -43.001h4c12.667 4.66699 23 15.334 31 32.001c4.66699 9.33301 8.66699 25.666 12 48.999l64 -13c-5.33301 -24.667 -12 -45 -20 -61
c-18 -36.667 -42.667 -61.334 -74 -74.001c-8.66699 -2.66699 -17.334 -4 -26.001 -4c-27.333 0 -59.666 15 -96.999 45c-34.667 29.333 -59.667 44 -75 44c-2 0 -3.33301 -0.333008 -4 -1c-12 -4 -22.333 -14.667 -31 -32c-4.66699 -9.33301 -9 -25.666 -13 -48.999l-62 14
c4.66699 24.667 11 44.667 19 60c18 36.667 43 61.334 75 74.001c8 3.33301 16.667 5 26 5c27.333 0 59.333 -15.333 96 -46z" />
    <glyph glyph-name="utilde" unicode="&#x169;" horiz-adv-x="880" 
d="M443 -12c-108.667 0 -189.668 32.001 -243.001 96.001s-72.666 145 -57.999 243l90 542h80l-89 -535c-12.667 -73.333 3.33301 -136 48 -188c44 -52.667 105.333 -79 184 -79c73.333 0 140.833 26.167 202.5 78.5s98.834 115.166 111.501 188.499l89 535h80l-90 -542
c-18.667 -98 -65.334 -179 -140.001 -243s-163 -96 -265 -96zM644.999 1167c34.667 -28.667 59.667 -43.001 75 -43.001h4c12.667 4.66699 23 15.334 31 32.001c4.66699 9.33301 9 25.666 13 48.999l63 -13c-5.33301 -24.667 -12 -45 -20 -61
c-18 -36.667 -42.667 -61.334 -74 -74.001c-8.66699 -2.66699 -17.334 -4 -26.001 -4c-27.333 0 -59.666 15 -96.999 45c-34.667 29.333 -59.667 44 -75 44c-2 0 -3.33301 -0.333008 -4 -1c-12 -4 -22.333 -14.667 -31 -32c-4.66699 -9.33301 -9 -25.666 -13 -48.999l-62 14
c4.66699 24.667 11 44.667 19 60c18 36.667 43 61.334 75 74.001c8 3.33301 16.667 5 26 5c27.333 0 59.333 -15.333 96 -46z" />
    <glyph glyph-name="Umacron" unicode="&#x16a;" horiz-adv-x="1147" 
d="M1191 1414h80l-170 -1016c-32.667 -108 -93 -199.667 -181 -275c-104.667 -90 -220.667 -135 -348 -135c-128 0 -229.5 45 -304.5 135s-101.833 198.667 -80.5 326l161 965h80l-161 -965c-17.333 -104.667 5 -194.334 67 -269.001s145.667 -112 251 -112
s201.5 37.333 288.5 112s139.167 164.334 156.5 269.001zM577 1580h521l-10 -62h-521z" />
    <glyph glyph-name="umacron" unicode="&#x16b;" horiz-adv-x="880" 
d="M443 -12c-108.667 0 -189.668 32.001 -243.001 96.001s-72.666 145 -57.999 243l90 542h80l-89 -535c-12.667 -73.333 3.33301 -136 48 -188c44 -52.667 105.333 -79 184 -79c73.333 0 140.833 26.167 202.5 78.5s98.834 115.166 111.501 188.499l89 535h80l-90 -542
c-18.667 -98 -65.334 -179 -140.001 -243s-163 -96 -265 -96zM369.999 1134h521l-11 -62h-521z" />
    <glyph glyph-name="Ubreve" unicode="&#x16c;" horiz-adv-x="1147" 
d="M1191 1414h80l-170 -1016c-32.667 -108 -93 -199.667 -181 -275c-104.667 -90 -220.667 -135 -348 -135c-128 0 -229.5 45 -304.5 135s-101.833 198.667 -80.5 326l161 965h80l-161 -965c-17.333 -104.667 5 -194.334 67 -269.001s145.667 -112 251 -112
s201.5 37.333 288.5 112s139.167 164.334 156.5 269.001zM1054 1685c-14.667 -30.667 -36.332 -58.333 -64.999 -83c-46.667 -40.667 -98.667 -61 -156 -61c-58.667 0 -104.667 20.333 -138 61c-22 26 -35 53.667 -39 83h70c4.66699 -13.333 12 -25.666 22 -36.999
c22.667 -28.667 54.334 -43 95.001 -43c39.333 0 75.666 14.333 108.999 43c13.333 11.333 24.666 23.666 33.999 36.999h68z" />
    <glyph glyph-name="ubreve" unicode="&#x16d;" horiz-adv-x="880" 
d="M443 -12c-108.667 0 -189.668 32.001 -243.001 96.001s-72.666 145 -57.999 243l90 542h80l-89 -535c-12.667 -73.333 3.33301 -136 48 -188c44 -52.667 105.333 -79 184 -79c73.333 0 140.833 26.167 202.5 78.5s98.834 115.166 111.501 188.499l89 535h80l-90 -542
c-18.667 -98 -65.334 -179 -140.001 -243s-163 -96 -265 -96zM844.999 1229c-15.333 -30.667 -37 -58.333 -65 -83c-47.333 -40.667 -99.666 -61 -156.999 -61c-58.667 0 -104.334 20.333 -137.001 61c-22 26 -35 53.667 -39 83h70
c4.66699 -13.333 11.667 -25.666 21 -36.999c23.333 -28.667 55.333 -43 96 -43c39.333 0 75.333 14.333 108 43c13.333 11.333 25 23.666 35 36.999h68z" />
    <glyph glyph-name="Uring" unicode="&#x16e;" horiz-adv-x="1147" 
d="M1191 1414h80l-170 -1016c-32.667 -108 -93 -199.667 -181 -275c-104.667 -90 -220.667 -135 -348 -135c-128 0 -229.5 45 -304.5 135s-101.833 198.667 -80.5 326l161 965h80l-161 -965c-17.333 -104.667 5 -194.334 67 -269.001s145.667 -112 251 -112
s201.5 37.333 288.5 112s139.167 164.334 156.5 269.001zM930 1653c18.667 -22 25.333 -48.667 20 -80s-21 -58 -47 -80s-54.333 -33 -85 -33c-31.333 0 -56.333 11 -75 33s-25.334 48.667 -20.001 80s21 58 47 80s54.667 33 86 33c30.667 0 55.334 -11 74.001 -33z
M845.999 1625c-14.667 0 -27.833 -5 -39.5 -15s-18.834 -22.333 -21.501 -37c-2 -14 1 -26.167 9 -36.5s19.333 -15.5 34 -15.5c14 0 27 5.16699 39 15.5s19 22.5 21 36.5c2.66699 14.667 -0.166016 27 -8.49902 37s-19.5 15 -33.5 15z" />
    <glyph glyph-name="uring" unicode="&#x16f;" horiz-adv-x="880" 
d="M443 -12c-108.667 0 -189.668 32.001 -243.001 96.001s-72.666 145 -57.999 243l90 542h80l-89 -535c-12.667 -73.333 3.33301 -136 48 -188c44 -52.667 105.333 -79 184 -79c73.333 0 140.833 26.167 202.5 78.5s98.834 115.166 111.501 188.499l89 535h80l-90 -542
c-18.667 -98 -65.334 -179 -140.001 -243s-163 -96 -265 -96zM716.499 1177c18.333 -22 24.833 -48.667 19.5 -80c-4.66699 -31.333 -19.834 -58 -45.501 -80s-54.167 -33 -85.5 -33s-56.166 11 -74.499 33s-25.166 48.667 -20.499 80c5.33301 31.333 20.833 58 46.5 80
s54.167 33 85.5 33s56.166 -11 74.499 -33zM631.999 1149c-14 0 -26.833 -5 -38.5 -15s-18.834 -22.333 -21.501 -37c-2 -14 1.16699 -26.167 9.5 -36.5s19.5 -15.5 33.5 -15.5s26.833 5.16699 38.5 15.5s18.5 22.5 20.5 36.5c2.66699 14.667 -0.166016 27 -8.49902 37
s-19.5 15 -33.5 15z" />
    <glyph glyph-name="Uhungarumlaut" unicode="&#x170;" horiz-adv-x="1147" 
d="M1191 1414h80l-170 -1016c-32.667 -108 -93 -199.667 -181 -275c-104.667 -90 -220.667 -135 -348 -135c-128 0 -229.5 45 -304.5 135s-101.833 198.667 -80.5 326l161 965h80l-161 -965c-17.333 -104.667 5 -194.334 67 -269.001s145.667 -112 251 -112
s201.5 37.333 288.5 112s139.167 164.334 156.5 269.001zM898 1676l-244 -165h-74l171 165h147zM1100 1676l-243 -165h-75l171 165h147z" />
    <glyph glyph-name="uhungarumlaut" unicode="&#x171;" horiz-adv-x="880" 
d="M443 -12c-108.667 0 -189.668 32.001 -243.001 96.001s-72.666 145 -57.999 243l90 542h80l-89 -535c-12.667 -73.333 3.33301 -136 48 -188c44 -52.667 105.333 -79 184 -79c73.333 0 140.833 26.167 202.5 78.5s98.834 115.166 111.501 188.499l89 535h80l-90 -542
c-18.667 -98 -65.334 -179 -140.001 -243s-163 -96 -265 -96zM688.999 1220l-245 -165h-74l172 165h147zM890.999 1220l-244 -165h-75l172 165h147z" />
    <glyph glyph-name="Uogonek" unicode="&#x172;" horiz-adv-x="1147" 
d="M678 -1c-34.667 -7.33301 -69.998 -11.002 -105.998 -11.002c-128 0 -229.5 45 -304.5 135s-101.833 198.667 -80.5 326l161 965h80l-161 -965c-17.333 -104.667 5 -194.334 67 -269.001s145.667 -112 251 -112s201.5 37.333 288.5 112s139.167 164.334 156.5 269.001
l161 965h80l-170 -1016c-32.667 -108 -93 -199.667 -181 -275c-53.333 -46 -110 -80.333 -170 -103c-14 -15.333 -22.333 -31.666 -25 -48.999c-0.666992 -5.33301 -1.33398 -10.333 -2.00098 -15v-6c0.666992 -21.333 8.66699 -39.333 24 -54c14 -12.667 30.333 -19 49 -19
c3.33301 0 6.66602 0.333008 9.99902 1h6c21.333 4 43.666 15.667 66.999 35l19 -43l-5 -4c-20.667 -22.667 -46.667 -36.667 -78 -42l-12 -3c-6 -0.666992 -11.667 -1 -17 -1c-30.667 0 -57.667 10.333 -81 31c-25.333 22 -38.333 50 -39 84
c0 4.66699 0.333008 9.33398 1 14.001c0.666992 6.66699 1.33398 13 2.00098 19c2 10.667 5 21 9 31z" />
    <glyph glyph-name="uogonek" unicode="&#x173;" horiz-adv-x="880" 
d="M476 -11c-10.667 -0.666992 -21.666 -1 -32.999 -1c-108.667 0 -189.667 32 -243 96s-72.666 145 -57.999 243l90 542h80l-89 -535c-12.667 -73.333 3.33301 -136 48 -188c44 -52.667 105.333 -79 184 -79c73.333 0 140.833 26.167 202.5 78.5
s98.834 115.166 111.501 188.499l89 535h80l-90 -542c-18.667 -98 -65.334 -179 -140.001 -243c-50 -42.667 -106.333 -71.334 -169 -86.001c-8 -11.333 -13.333 -23.666 -16 -36.999c-0.666992 -4.66699 -1 -9.66699 -1 -15v-6c0 -21.333 8 -39.333 24 -54
c14 -12.667 30.333 -19 49 -19c3.33301 0 6.66602 0.333008 9.99902 1h6c21.333 4 43.666 15.667 66.999 35l18 -43l-4 -4c-21.333 -22.667 -47.333 -36.667 -78 -42l-13 -3c-6 -0.666992 -11.667 -1 -17 -1c-30.667 0 -57.667 10.333 -81 31c-24.667 22 -37.667 50 -39 84
c0 4.66699 0.666992 9.33398 2 14.001c0 6.66699 0.666992 13 2 19c2 10.667 4.66699 21 8 31z" />
    <glyph glyph-name="Wcircumflex" unicode="&#x174;" horiz-adv-x="1642" 
d="M998 1039l200 -910l560 1285h81l-617 -1414h-80l-191 894l-491 -894h-80l-143 1414h81l131 -1285l503 910h46zM1289 1519h-92l-128 106l-152 -106h-93l259 187z" />
    <glyph glyph-name="wcircumflex" unicode="&#x175;" horiz-adv-x="1094" 
d="M1239 868l-440 -868h-50l-108 566l-296 -566h-51l-149 868h91l111 -713l298 565h45l110 -565l348 713h91zM956 1053h-92l-127 106l-153 -106h-93l259 187z" />
    <glyph glyph-name="Ycircumflex" unicode="&#x176;" horiz-adv-x="1116" 
d="M614 572l-345 842h91l309 -754l561 754h91l-627 -842l-96 -572h-80zM1046 1519h-92l-128 106l-152 -106h-93l259 187z" />
    <glyph glyph-name="ycircumflex" unicode="&#x177;" horiz-adv-x="779" 
d="M461 163l-311 -493h-89l311 491l-212 707h89l184 -606l387 606h89l-447 -705h-1zM798 1053h-92l-127 106l-153 -106h-93l260 187z" />
    <glyph glyph-name="Ydieresis" unicode="&#x178;" horiz-adv-x="1116" 
d="M614 572l-345 842h91l309 -754l561 754h91l-627 -842l-96 -572h-80zM759.5 1658c13 -15.333 17.833 -33.666 14.5 -54.999c-4 -22.667 -15.167 -41.667 -33.5 -57s-38.166 -23 -59.499 -23c-22 0 -39.5 7.66699 -52.5 23s-17.5 34.333 -13.5 57
c3.33301 21.333 14.166 39.666 32.499 54.999s38.5 23 60.5 23c21.333 0 38.5 -7.66699 51.5 -23zM1024.5 1658c13 -15.333 17.833 -33.666 14.5 -54.999c-4 -22.667 -15.167 -41.667 -33.5 -57s-38.166 -23 -59.499 -23c-22 0 -39.5 7.66699 -52.5 23
s-17.5 34.333 -13.5 57c3.33301 21.333 14.166 39.666 32.499 54.999s38.5 23 60.5 23c21.333 0 38.5 -7.66699 51.5 -23z" />
    <glyph glyph-name="Zacute" unicode="&#x179;" horiz-adv-x="1075" 
d="M1077 1334h-670l14 80h807l-995 -1334h841l-13 -80h-977zM1049 1683l-245 -165h-74l172 165h147z" />
    <glyph glyph-name="zacute" unicode="&#x17a;" horiz-adv-x="743" 
d="M640 776h-448l13 79h585l-579 -775h483l-13 -80h-619zM770 1217l-245 -165h-74l172 165h147z" />
    <glyph glyph-name="Zdotaccent" unicode="&#x17b;" horiz-adv-x="1075" 
d="M1077 1334h-670l14 80h807l-995 -1334h841l-13 -80h-977zM899 1667.5c11.333 -13 15.333 -28.833 12 -47.5s-12.666 -34.5 -27.999 -47.5s-32 -19.5 -50 -19.5c-18.667 0 -33.667 6.5 -45 19.5s-15.333 28.833 -12 47.5s12.666 34.5 27.999 47.5s32.333 19.5 51 19.5
c18 0 32.667 -6.5 44 -19.5z" />
    <glyph glyph-name="zdotaccent" unicode="&#x17c;" horiz-adv-x="743" 
d="M640 776h-448l13 79h585l-579 -775h483l-13 -80h-619zM620 1201.5c11.333 -13 15.333 -28.833 12 -47.5s-12.666 -34.5 -27.999 -47.5s-32 -19.5 -50 -19.5c-18.667 0 -33.667 6.5 -45 19.5s-15.333 28.833 -12 47.5s12.666 34.5 27.999 47.5s32.333 19.5 51 19.5
c18 0 32.667 -6.5 44 -19.5z" />
    <glyph glyph-name="Zcaron" unicode="&#x17d;" horiz-adv-x="1075" 
d="M1077 1334h-670l14 80h807l-995 -1334h841l-13 -80h-977zM817 1489l-197 187h93l118 -106l162 106h92z" />
    <glyph glyph-name="zcaron" unicode="&#x17e;" horiz-adv-x="743" 
d="M640 776h-448l13 79h585l-579 -775h483l-13 -80h-619zM540 1033l-197 187h93l117 -106l163 106h92z" />
    <glyph glyph-name="longs" unicode="&#x17f;" horiz-adv-x="383" 
d="M190 0l-80.001 0.000976562l185 1103c14.667 65.333 49 121.666 103 168.999c56 44.667 115.333 67 178 67c33.333 0 67.333 -6.33301 102 -19l-37 -71c-22.667 10.667 -45.667 16 -69 16c-41.333 0 -83.666 -16.667 -126.999 -50c-38 -32.667 -61.667 -72 -71 -118z" />
    <glyph glyph-name="florin" unicode="&#x192;" horiz-adv-x="395" 
d="M202 0l-1.00098 0.000976562l-12 -70c-34.667 -167.333 -134 -251 -298 -251l12 74c111.333 0 180.333 58.333 207 175l144 860h-88l13 80h88l39 235c15.333 65.333 50 121.666 104 168.999c56 44.667 115.333 67 178 67c33.333 0 67.333 -6.33301 102 -19l-37 -71
c-23.333 10.667 -46.666 16 -69.999 16c-41.333 0 -83.333 -16.667 -126 -50c-38 -32.667 -62 -72 -72 -118l-38 -229h177l-13 -80h-177z" />
    <glyph glyph-name="Aringacute" unicode="&#x1fa;" horiz-adv-x="1116" 
d="M890 631l-126 593l-325 -593h451zM807 1494c-14.667 0 -27.834 -5 -39.501 -15s-18.834 -22.333 -21.501 -37c-2 -13.333 1.16699 -25 9.5 -35s19.833 -15 34.5 -15c13.333 0 25.833 5 37.5 15s18.5 21.667 20.5 35c2.66699 14.667 -0.166016 27 -8.49902 37
s-19.166 15 -32.499 15zM792 1549l118.001 134.001h147l-197 -142c10.667 -5.33301 20 -12.666 28 -21.999c17.333 -21.333 23.333 -47 18 -77c-4.66699 -29.333 -19 -54.333 -43 -75c-12.667 -10.667 -25.334 -18.334 -38.001 -23.001l288 -1344h-84l-124 552h-509
l-312 -552h-85l743 1342c-12.667 5.33301 -23.667 13.666 -33 24.999c-18 20.667 -24.667 45.667 -20 75c5.33301 30 20.333 55.667 45 77c18 15.333 37.333 25.333 58 30z" />
    <glyph glyph-name="aringacute" unicode="&#x1fb;" horiz-adv-x="1122" 
d="M1017 382l15.998 97c-1.33301 78 -26.666 146.333 -75.999 205c-65.333 78.667 -153.333 118 -264 118s-211.167 -36 -301.5 -108s-144.166 -160 -161.499 -264s7.16699 -191.667 73.5 -263s154.833 -107 265.5 -107s212 39.333 304 118c68 58.667 116 126.667 144 204z
M727.998 1038c-14.667 0 -27.834 -5 -39.501 -15s-18.834 -22.333 -21.501 -37c-2.66699 -13.333 0.166016 -25 8.49902 -35s19.833 -15 34.5 -15c13.333 0 25.833 5 37.5 15s18.834 21.667 21.501 35c2.66699 14.667 -0.166016 27 -8.49902 37s-19.166 15 -32.499 15z
M778.998 1086c10.667 -5.33301 20.6699 -12.999 30.0029 -22.999c16.667 -21.333 22.667 -47 18 -77c-5.33301 -29.333 -20 -54.333 -44 -75c-14 -12 -28.667 -20.667 -44 -26c119.333 -6.66699 215.333 -53.667 288 -141c15.333 -18.667 28.666 -38.334 39.999 -59.001
l21 123h80l-135 -808h-80l29 177c-18.667 -20.667 -38.334 -40.334 -59.001 -59.001c-110.667 -95.333 -233.334 -143 -368.001 -143c-133.333 0 -240.166 44.167 -320.499 132.5s-109.833 195.833 -88.5 322.5c21.333 128 84 233.5 188 316.5s215 129.167 333 138.5
c-14.667 4.66699 -27.334 13.334 -38.001 26.001c-18 20.667 -24.333 45.667 -19 75c4.66699 30 19.667 55.667 45 77c16 14 33.667 23.333 53 28l161 151h147z" />
    <glyph glyph-name="AEacute" unicode="&#x1fc;" horiz-adv-x="1443" 
d="M1456 747l-13 -80h-627l-99 -587h627l-13 -80h-706l91 542h-300l-332 -542h-85l852 1414h717l-14 -80h-627l-98 -587h627zM729 621l105 629l-376 -629h271zM1141 1683l-245 -165h-74l172 165h147z" />
    <glyph glyph-name="aeacute" unicode="&#x1fd;" horiz-adv-x="1873" 
d="M1022 653c-12.667 32.667 -30.665 63.001 -53.998 91.001c-65.333 78.667 -153.333 118 -264 118s-211.834 -39.333 -303.501 -118s-146.834 -173.334 -165.501 -284.001c-18 -110.667 5.66699 -205 71 -283s153.333 -117 264 -117s211.667 39.333 303 118
c32.667 28 60.667 58 84 90c26 35.333 46 73.333 60 114l27 157c-0.666992 40.667 -8 78.667 -22 114zM1837 586.001c-8.66699 60.667 -31.998 113.333 -69.998 158c-64.667 78.667 -152.334 118 -263.001 118s-212 -39.333 -304 -118
c-18.667 -16 -35.334 -32.333 -50.001 -49l-18 -109h705zM1071 226c9.33301 -16.667 20.666 -32.666 33.999 -47.999c66 -78.667 154.333 -118 265 -118s211.334 39.333 302.001 118c16.667 13.333 31.667 27.333 45 42l80 -30c-12.667 -16.667 -37.667 -40.667 -75 -72
c-110.667 -95.333 -233 -143 -367 -143c-126 0 -227.333 42.333 -304 127l-18 -102h-80l30 177c-18.667 -20.667 -38.667 -40.334 -60 -59.001c-110.667 -95.333 -233.334 -143 -368.001 -143c-133.333 0 -239.5 47.5 -318.5 142.5s-107.5 209.167 -85.5 342.5
c22.667 134.667 89.5 249.334 200.5 344.001s233.167 142 366.5 142c134.667 0 241.334 -47.333 320.001 -142c14.667 -18.667 28 -38.334 40 -59.001l21 123h80l-8 -48c105.333 84 221 126 347 126c134 0 240.333 -47.333 319 -142c70 -84 97 -183.667 81 -299l-800 1z
M1352 1217l-244 -165h-74l171 165h147z" />
    <glyph glyph-name="Oslashacute" unicode="&#x1fe;" horiz-adv-x="1647" 
d="M1278 1310c-67.333 28.667 -143.668 43 -229.001 43c-177.333 0 -339.5 -63 -486.5 -189s-235.5 -277.667 -265.5 -455c-29.333 -178 8.33398 -330 113.001 -456c38 -45.333 80.667 -83 128 -113zM604.998 107c67.333 -28.667 143.334 -43 228.001 -43
c178 0 340.667 63 488 189s235.666 278 264.999 456c30 177.333 -7.33301 329.333 -112 456c-38.667 45.333 -81.667 82.333 -129 111zM1392 1350c54.667 -32.667 104.333 -75.332 149 -127.999c118 -142 160 -313 126 -513
c-33.333 -200.667 -132.666 -371.834 -297.999 -513.501s-348.333 -212.5 -549 -212.5c-96.667 0 -184 17 -262 51l-103 -163l-66 34l103 162c-55.333 33.333 -104.666 76.333 -147.999 129c-118.667 141.333 -161.334 312.333 -128.001 513
c34 200 133.667 370.833 299 512.5s348 212.5 548 212.5c97.333 0 184.666 -16.667 261.999 -50l103 162l67 -33zM1299 1683l-244 -165h-74l171 165h147z" />
    <glyph glyph-name="oslashacute" unicode="&#x1ff;" horiz-adv-x="1080" 
d="M845 828c-46.667 22.667 -99.998 34 -159.998 34c-110.667 0 -211.834 -39.167 -303.501 -117.5s-146.834 -172.833 -165.501 -283.5c-18 -110.667 5.33301 -205 70 -283c13.333 -16 28 -30.333 44 -43zM906.002 787l-516.001 -692.001c47.333 -22.667 101 -34 161 -34
c110.667 0 211.667 39 303 117s146 172.333 164 283c18.667 110.667 -4.33301 205.334 -69 284.001c-13.333 16 -27.666 30 -42.999 42zM275.001 61.999c-20.667 16.667 -40 35.334 -58 56.001c-78.667 95.333 -107 209.666 -85 342.999
c22.667 134.667 89.5 249.334 200.5 344.001s233.167 142 366.5 142c76 0 143.333 -15.333 202 -46l139 188l63 -37l-141 -190c20 -16.667 39 -35.667 57 -57c78 -94.667 105.667 -209.334 83 -344.001c-22 -133.333 -88.167 -247.5 -198.5 -342.5
s-232.833 -142.5 -367.5 -142.5c-76 0 -142.667 15.333 -200 46l-140 -188l-65 33zM938.001 1217l-245 -165h-74l172 165h147z" />
    <glyph glyph-name="Scommaaccent" unicode="&#x218;" horiz-adv-x="942" 
d="M626 783c-95.333 33.333 -167.333 79.167 -216 137.5s-66 129.166 -52 212.499c14 81.333 55 151.333 123 210s143.667 88 227 88c82 0 147.667 -29.333 197 -88c27.333 -31.333 44 -66.333 50 -105l-77 -28c-6 28.667 -19 55 -39 79c-35.333 42.667 -83.333 64 -144 64
s-116 -21.333 -166 -64s-80.333 -94.667 -91 -156c-10 -60.667 2.66699 -112.667 38 -156c33.333 -39.333 82.666 -75.333 147.999 -108c107.333 -36.667 193 -93.667 257 -171c68 -81.333 92.333 -179.666 73 -294.999c-19.333 -116 -76.666 -215 -171.999 -297
s-200.666 -123 -315.999 -123c-116 0 -207.667 41.333 -275 124c-55.333 65.333 -82 141.333 -80 228l79 27c-4.66699 -76.667 17 -143.334 65 -200.001c55.333 -66.667 130 -100 224 -100s180 33.333 258 100s124.667 147 140 241c16 93.333 -4 173.333 -60 240
c-48.667 58.667 -112.334 105.334 -191.001 140.001zM347 -206.999c-10.667 2.66699 -19.002 8.33203 -25.002 16.999c-11.333 12.667 -15.666 28.334 -12.999 47.001c3.33301 18.667 12.333 34.167 27 46.5s31 18.5 49 18.5c17.333 0 31.5 -6.16699 42.5 -18.5
s14.833 -27.833 11.5 -46.5c-1.33301 -10 -4.66602 -19.667 -9.99902 -29l-94 -145h-47z" />
    <glyph glyph-name="scommaaccent" unicode="&#x219;" horiz-adv-x="644" 
d="M402 466c-61.333 36.667 -102.668 67.9951 -124.001 93.9951c-34 40.667 -46.333 89.667 -37 147c10 57.333 38.667 106.5 86 147.5s99.666 61.5 156.999 61.5s102 -19 134 -57c30 -36.667 41.333 -78.667 34 -126l-1 -4l-74 -28c1.33301 44.667 -7 78.334 -25 101.001
s-45 34 -81 34c-35.333 0 -67.833 -12.667 -97.5 -38s-47.5 -55.666 -53.5 -90.999s1.66699 -65.666 23 -90.999c12 -15.333 39.333 -38 82 -68c68 -40.667 115.333 -77 142 -109c42 -50.667 57 -111 45 -181c-12 -72 -47.167 -133.167 -105.5 -183.5
s-123.166 -75.5 -194.499 -75.5s-127.833 25.167 -169.5 75.5s-57.5 105.5 -47.5 165.5l82 20c-8 -51.333 2.5 -94.5 31.5 -129.5s67.833 -52.5 116.5 -52.5s93.667 17.5 135 52.5s66 77.5 74 127.5c8 48.667 -2.66699 90.334 -32 125.001
c-15.333 18.667 -48.666 46.334 -99.999 83.001zM246.998 -207.005c-10.667 2.66699 -19.002 8.33203 -25.002 16.999c-11.333 12.667 -15.666 28.334 -12.999 47.001c3.33301 18.667 12.333 34.167 27 46.5s31 18.5 49 18.5c17.333 0 31.5 -6.16699 42.5 -18.5
s14.833 -27.833 11.5 -46.5c-1.33301 -10 -4.66602 -19.667 -9.99902 -29l-94 -145h-47z" />
    <glyph glyph-name="uni021A" unicode="&#x21a;" horiz-adv-x="859" 
d="M692 1334l-223 -1334h-79l223 1334h-358l13 80h795l-13 -80h-358zM387 -207c-10.667 2.66699 -19.002 8.33203 -25.002 16.999c-11.333 12.667 -15.666 28.334 -12.999 47.001c3.33301 18.667 12.333 34.167 27 46.5s31 18.5 49 18.5c17.333 0 31.5 -6.16699 42.5 -18.5
s14.833 -27.833 11.5 -46.5c-1.33301 -10 -4.66602 -19.667 -9.99902 -29l-94 -145h-47z" />
    <glyph glyph-name="uni021B" unicode="&#x21b;" horiz-adv-x="497" 
d="M354 868l62 369h79l-62 -369h177l-13 -80h-177l-132 -788h-79l132 788h-177l13 80h177zM187 -207c-10.667 2.66699 -19.002 8.33203 -25.002 16.999c-11.333 12.667 -15.666 28.334 -12.999 47.001c3.33301 18.667 12.333 34.167 27 46.5s31 18.5 49 18.5
c17.333 0 31.5 -6.16699 42.5 -18.5s14.833 -27.833 11.5 -46.5c-1.33301 -10 -4.66602 -19.667 -9.99902 -29l-94 -145h-47z" />
    <glyph glyph-name="circumflex" unicode="&#x2c6;" horiz-adv-x="655" 
d="M723 973h-92l-127 106l-153 -106h-93l259 187z" />
    <glyph glyph-name="caron" unicode="&#x2c7;" horiz-adv-x="655" 
d="M481 943l-197 187h93l117 -106l163 106h92z" />
    <glyph glyph-name="uni02C9" unicode="&#x2c9;" horiz-adv-x="671" 
d="M248 1034h521l-10 -62h-521z" />
    <glyph glyph-name="breve" unicode="&#x2d8;" horiz-adv-x="565" 
d="M672 1139c-14.667 -30.667 -36.332 -58.333 -64.999 -83c-46.667 -40.667 -98.667 -61 -156 -61c-58.667 0 -104.667 20.333 -138 61c-21.333 26 -34.333 53.667 -39 83h70c5.33301 -13.333 12.666 -25.666 21.999 -36.999c23.333 -28.667 55.333 -43 96 -43
c39.333 0 75.333 14.333 108 43c14 11.333 25.333 23.666 34 36.999h68z" />
    <glyph glyph-name="dotaccent" unicode="&#x2d9;" horiz-adv-x="285" 
d="M377.5 1121.5c11 -13 15.165 -28.833 12.498 -47.5c-3.33301 -18.667 -12.833 -34.5 -28.5 -47.5s-32.5 -19.5 -50.5 -19.5c-18.667 0 -33.5 6.5 -44.5 19.5s-14.833 28.833 -11.5 47.5c2.66699 18.667 11.834 34.5 27.501 47.5s32.834 19.5 51.501 19.5
c18 0 32.5 -6.5 43.5 -19.5z" />
    <glyph glyph-name="ring" unicode="&#x2da;" horiz-adv-x="494" 
d="M504.5 1057c18.333 -22 24.833 -48.667 19.5 -80s-20.833 -58 -46.5 -80s-54.167 -33 -85.5 -33s-56.166 11 -74.499 33s-24.833 48.667 -19.5 80s20.833 58 46.5 80s54.167 33 85.5 33s56.166 -11 74.499 -33zM420 1029c-14 0 -26.8311 -5 -38.498 -15
s-18.834 -22.333 -21.501 -37c-2.66699 -14 0.166016 -26.167 8.49902 -36.5s19.5 -15.5 33.5 -15.5s27 5.16699 39 15.5s19.333 22.5 22 36.5c2.66699 14.667 -0.333008 27 -9 37s-20 15 -34 15z" />
    <glyph glyph-name="ogonek" unicode="&#x2db;" horiz-adv-x="434" 
d="M271 4c-44 -13.333 -76.667 -28 -98 -44c-22 -16.667 -36 -37.334 -42 -62.001l-1 -6c-3.33301 -22 0.666992 -41.667 12 -59c13.333 -18.667 31 -28.667 53 -30c2 -0.666992 4 -1 6 -1c20.667 0 44 7.66699 70 23l9 -48l-4 -3c-24.667 -18.667 -52.334 -28 -83.001 -28
h-12c-37.333 2.66699 -66.666 19 -87.999 49c-18.667 27.333 -25 58.333 -19 93c0.666992 4.66699 1.66699 9.33398 3 14.001c10 40.667 32.333 74 67 100c28.667 21.333 58 32 88 32c6 0 12 -0.333008 18 -1z" />
    <glyph glyph-name="tilde" unicode="&#x2dc;" horiz-adv-x="533" 
d="M458 1087c34 -28.667 58.668 -43.001 74.001 -43.001h4c13.333 4.66699 24 15.334 32 32.001c4 9.33301 8 25.666 12 48.999l64 -13c-5.33301 -24.667 -12 -45 -20 -61c-18.667 -36.667 -43.667 -61.334 -75 -74.001c-8.66699 -2.66699 -17.334 -4 -26.001 -4
c-27.333 0 -59.666 15 -96.999 45c-34.667 29.333 -59.667 44 -75 44c-2 0 -3.33301 -0.333008 -4 -1c-12 -4 -22 -14.667 -30 -32c-4.66699 -9.33301 -9 -25.666 -13 -48.999l-63 14c4.66699 24.667 11 44.667 19 60c18 36.667 43 61.334 75 74.001
c8 3.33301 16.667 5 26 5c27.333 0 59.666 -15.333 96.999 -46z" />
    <glyph glyph-name="hungarumlaut" unicode="&#x2dd;" horiz-adv-x="643" 
d="M555 1130l-245 -165h-74l172 165h147zM757 1130l-244 -165h-75l172 165h147z" />
    <glyph glyph-name="tonos" unicode="&#x384;" horiz-adv-x="386" 
d="M603 1414l-245 -165h-74l172 165h147z" />
    <glyph glyph-name="dieresistonos" unicode="&#x385;" horiz-adv-x="711" 
d="M747 1414l-204 -165h-74l131 165h147zM809 1342c9.33301 -10.667 12.666 -23.334 9.99902 -38.001c-2.66699 -16 -10.334 -29.333 -23.001 -40s-26.334 -16 -41.001 -16c-15.333 0 -27.666 5.33301 -36.999 16s-12.666 24 -9.99902 40
c2.66699 14.667 10.334 27.334 23.001 38.001s26.667 16 42 16c14.667 0 26.667 -5.33301 36 -16zM429 1342c9.33301 -10.667 12.666 -23.334 9.99902 -38.001c-2.66699 -16 -10.334 -29.333 -23.001 -40s-26.334 -16 -41.001 -16c-15.333 0 -27.666 5.33301 -36.999 16
s-12.666 24 -9.99902 40c2.66699 14.667 10.334 27.334 23.001 38.001s26.667 16 42 16c14.667 0 26.667 -5.33301 36 -16z" />
    <glyph glyph-name="Alphatonos" unicode="&#x386;" horiz-adv-x="1001" 
d="M664 1414l-245 -165h-74l172 165h147zM851 701l-115 593l-316 -593h431zM797 1414l276 -1414h-84l-122 622h-489l-334 -622h-85l756 1414h82z" />
    <glyph glyph-name="anoteleia" unicode="&#x387;" horiz-adv-x="245" 
d="M334.5 982.5c11 -13 15.165 -28.833 12.498 -47.5c-3.33301 -18.667 -12.833 -34.5 -28.5 -47.5s-32.5 -19.5 -50.5 -19.5c-18.667 0 -33.5 6.5 -44.5 19.5s-14.833 28.833 -11.5 47.5c2.66699 18.667 11.834 34.5 27.501 47.5s32.834 19.5 51.501 19.5
c18 0 32.5 -6.5 43.5 -19.5z" />
    <glyph glyph-name="Epsilontonos" unicode="&#x388;" horiz-adv-x="1044" 
d="M435 1414l-245 -165h-74l172 165h147zM1188 1414l-14 -80h-627l-98 -587h627l-13 -80h-627l-99 -587h627l-13 -80h-707l237 1414h707z" />
    <glyph glyph-name="Etatonos" unicode="&#x389;" horiz-adv-x="1243" 
d="M438 1414l-245 -165h-74l172 165h147zM439 667l-112 -667h-80l237 1414h80l-112 -667h724l112 667h80l-237 -1414h-80l112 667h-724z" />
    <glyph glyph-name="Iotatonos" unicode="&#x38a;" horiz-adv-x="402" 
d="M425 1414l-245 -165h-74l172 165h147zM543 1414l-237 -1414h-80l237 1414h80z" />
    <glyph glyph-name="Omicrontonos" unicode="&#x38c;" horiz-adv-x="1532" 
d="M510 1414l-244 -165h-74l171 165h147zM1434 1221.5c118 -141.667 159.999 -312.5 125.999 -512.5c-33.333 -200.667 -132.666 -371.834 -297.999 -513.501s-348.333 -212.5 -549 -212.5c-200 0 -359 70.833 -477 212.5s-160.333 312.834 -127 513.501
c34 200 133.667 370.833 299 512.5s348 212.5 548 212.5c200.667 0 360 -70.833 478 -212.5zM941.999 1353c-177.333 0 -339.5 -63 -486.5 -189s-235.5 -277.667 -265.5 -455c-29.333 -178 8.33398 -330 113.001 -456s245.667 -189 423 -189c178 0 340.667 63 488 189
s235.666 278 264.999 456c30 177.333 -7.5 329 -112.5 455s-246.5 189 -424.5 189z" />
    <glyph glyph-name="Upsilontonos" unicode="&#x38e;" horiz-adv-x="1201" 
d="M367 1414l-245 -165h-74l172 165h147zM760 572l-345 842h91l308 -754l562 754h91l-627 -842l-96 -572h-80z" />
    <glyph glyph-name="Omegatonos" unicode="&#x38f;" horiz-adv-x="1367" 
d="M491 1414l-244 -165h-74l171 165h147zM890 1434c188.667 0 328.998 -66.667 420.998 -200s119 -313 81 -539c-28 -166.667 -97 -306.334 -207 -419.001s-203 -178 -279 -196h292l-13 -80h-480l13 80c134 30 259.167 97.167 375.5 201.5s188.833 242.166 217.5 413.499
c34 204 11.333 366.833 -68 488.5s-202.666 182.5 -369.999 182.5h-4c-167.333 0 -311 -60.833 -431 -182.5s-197 -284.5 -231 -488.5c-28.667 -171.333 -2.5 -309.166 78.5 -413.499s183.833 -171.5 308.5 -201.5l-13 -80h-480l13 80h292c-70.667 18 -142 83.333 -214 196
s-94 252.334 -66 419.001c38 226 125.333 405.667 262 539s299.334 200 488.001 200h14z" />
    <glyph glyph-name="iotadieresistonos" unicode="&#x390;" horiz-adv-x="369" 
d="M369 868l-145 -868h-79l145 868h79zM543 1217l-204 -165h-74l131 165h147zM605 1145c9.33301 -10.667 12.666 -23.334 9.99902 -38.001c-2.66699 -16 -10.334 -29.333 -23.001 -40s-26.334 -16 -41.001 -16c-15.333 0 -27.666 5.33301 -36.999 16s-12.666 24 -9.99902 40
c2.66699 14.667 10.334 27.334 23.001 38.001s26.667 16 42 16c14.667 0 26.667 -5.33301 36 -16zM225 1145c9.33301 -10.667 12.666 -23.334 9.99902 -38.001c-2.66699 -16 -10.334 -29.333 -23.001 -40s-26.334 -16 -41.001 -16c-15.333 0 -27.666 5.33301 -36.999 16
s-12.666 24 -9.99902 40c2.66699 14.667 10.334 27.334 23.001 38.001s26.667 16 42 16c14.667 0 26.667 -5.33301 36 -16z" />
    <glyph glyph-name="Alpha" unicode="&#x391;" horiz-adv-x="1116" 
d="M891 701l-115 593l-316 -593h431zM837 1414l276 -1414h-84l-122 622h-489l-334 -622h-85l756 1414h82z" />
    <glyph glyph-name="Beta" unicode="&#x392;" horiz-adv-x="1033" 
d="M532 80c104.667 0 200.334 37.168 287.001 111.501s138.667 164.166 156 269.499c18 105.333 -3.83301 195.333 -65.5 270s-144.834 112 -249.501 112h-327l-128 -763h327zM415 1335l-68.999 -412.001h360c59.333 6 105.666 23.333 138.999 52
c47.333 40.667 76 90.334 86 149.001c10 58 -2.16699 107.667 -36.5 149s-80.5 62 -138.5 62h-341zM851.001 887c48.667 -22 90.9971 -54.999 126.997 -98.999c74.667 -90 101.334 -199 80.001 -327c-21.333 -127.333 -84.333 -236 -189 -326
c-88 -75.333 -187.333 -120.333 -298 -135h-459l237 1414h422c80.667 0 144.334 -28.333 191.001 -85s63.334 -125 50.001 -205s-53 -148.333 -119 -205c-14 -12.667 -28 -23.334 -42 -32.001z" />
    <glyph glyph-name="Gamma" unicode="&#x393;" horiz-adv-x="753" 
d="M968 1414l-14 -80h-539l-223 -1334h-80l237 1414h619z" />
    <glyph glyph-name="uni0394" unicode="&#x394;" horiz-adv-x="1103" 
d="M30 1h-60l751 1413h97l285 -1414h-1073v1zM1002 80l-249 1234l-657 -1234h906z" />
    <glyph glyph-name="Epsilon" unicode="&#x395;" horiz-adv-x="909" 
d="M1056 1414l-14 -80h-627l-98 -587h627l-13 -80h-627l-99 -587h627l-13 -80h-707l237 1414h707z" />
    <glyph glyph-name="Zeta" unicode="&#x396;" horiz-adv-x="1075" 
d="M1077 1334h-670l14 80h807l-995 -1334h841l-13 -80h-977z" />
    <glyph glyph-name="Eta" unicode="&#x397;" horiz-adv-x="1104" 
d="M302 667l-112 -667h-80l237 1414h80l-112 -667h724l112 667h80l-237 -1414h-80l112 667h-724z" />
    <glyph glyph-name="Theta" unicode="&#x398;" horiz-adv-x="1575" 
d="M1505 1221.5c118 -141.667 159.999 -312.5 125.999 -512.5c-33.333 -200.667 -132.666 -371.834 -297.999 -513.501s-348.333 -212.5 -549 -212.5c-200 0 -359 70.833 -477 212.5s-160.333 312.834 -127 513.501c34 200 133.667 370.833 299 512.5s348 212.5 548 212.5
c200.667 0 360 -70.833 478 -212.5zM1013 1353c-177.333 0 -339.5 -63 -486.5 -189s-235.5 -277.667 -265.5 -455c-29.333 -178 8.33398 -330 113.001 -456s245.667 -189 423 -189c178 0 340.667 63 488 189s235.666 278 264.999 456c30 177.333 -7.5 329 -112.5 455
s-246.5 189 -424.5 189zM512.999 749h800l-13 -80h-800z" />
    <glyph glyph-name="Iota" unicode="&#x399;" horiz-adv-x="324" 
d="M439 1414l-237 -1414h-80l237 1414h80z" />
    <glyph glyph-name="Kappa" unicode="&#x39a;" horiz-adv-x="999" 
d="M999 1414l-456 -531l470 -883h-97l-435 817l-189 -218l-100 -599h-80l237 1414h80l-114 -677l587 677h97z" />
    <glyph glyph-name="Lambda" unicode="&#x39b;" horiz-adv-x="1133" 
d="M848 1414l285 -1414h-84l-266 1314l-699 -1313h-84l751 1413h97z" />
    <glyph glyph-name="Mu" unicode="&#x39c;" horiz-adv-x="1442" 
d="M1586 1414l-237 -1414h-80l222 1328l-667 -717l-428 717l-222 -1328h-80l237 1414h116l400 -670l623 670h116z" />
    <glyph glyph-name="Nu" unicode="&#x39d;" horiz-adv-x="1339" 
d="M447 1414l719 -1317l221 1317h80l-237 -1414h-123l-703 1286l-215 -1286h-80l237 1414h101z" />
    <glyph glyph-name="Xi" unicode="&#x39e;" horiz-adv-x="1100" 
d="M274 749h800l-13 -80h-800zM287 1415h1000l-14 -80h-1000zM63 81h1000l-13 -80h-1000z" />
    <glyph glyph-name="Omicron" unicode="&#x39f;" horiz-adv-x="1575" 
d="M1505 1221.5c118 -141.667 159.999 -312.5 125.999 -512.5c-33.333 -200.667 -132.666 -371.834 -297.999 -513.501s-348.333 -212.5 -549 -212.5c-200 0 -359 70.833 -477 212.5s-160.333 312.834 -127 513.501c34 200 133.667 370.833 299 512.5s348 212.5 548 212.5
c200.667 0 360 -70.833 478 -212.5zM1013 1353c-177.333 0 -339.5 -63 -486.5 -189s-235.5 -277.667 -265.5 -455c-29.333 -178 8.33398 -330 113.001 -456s245.667 -189 423 -189c178 0 340.667 63 488 189s235.666 278 264.999 456c30 177.333 -7.5 329 -112.5 455
s-246.5 189 -424.5 189z" />
    <glyph glyph-name="Pi" unicode="&#x3a0;" horiz-adv-x="1072" 
d="M397 1334l-223 -1334h-80l237 1414h884l-237 -1414h-80l223 1334h-724z" />
    <glyph glyph-name="Rho" unicode="&#x3a1;" horiz-adv-x="959" 
d="M274 490l-82.001 -489.999h-80l237 1414h371c105.333 -14.667 189.333 -59.667 252 -135c74.667 -90.667 101.334 -199.334 80.001 -326.001c-21.333 -128 -84.5 -237.167 -189.5 -327.5s-221.167 -135.5 -348.5 -135.5h-240zM414.999 1333l-127 -762h240
c104.667 0 200.5 37.167 287.5 111.5s139.167 164.5 156.5 270.5c18 105.333 -4.16699 195 -66.5 269s-145.833 111 -250.5 111h-240z" />
    <glyph glyph-name="Sigma" unicode="&#x3a3;" horiz-adv-x="1062" 
d="M260 1413h1014l-13 -80h-928l412 -627l-622 -626h928l-13 -80h-1014l19 116l599 590l-401 591z" />
    <glyph glyph-name="Tau" unicode="&#x3a4;" horiz-adv-x="899" 
d="M712 1334l-223 -1334h-79l223 1334h-358l13 80h795l-13 -80h-358z" />
    <glyph glyph-name="Upsilon" unicode="&#x3a5;" horiz-adv-x="1052" 
d="M614 572l-345 842h91l309 -754l561 754h91l-627 -842l-96 -572h-80z" />
    <glyph glyph-name="Phi" unicode="&#x3a6;" horiz-adv-x="1579" 
d="M799 295l133.001 800.002c-181.333 -4.66699 -330 -43.334 -446 -116.001c-124.667 -78.667 -196.334 -173.334 -215.001 -284.001c-18 -110.667 22 -205 120 -283c92 -73.333 228 -112.333 408 -117zM864.001 211.002l-34.001 -207h-80l34 207
c-202.667 5.33301 -356.667 52.666 -462 141.999c-112.667 94.667 -157.667 209 -135 343c22 134 105.333 248.333 250 343c134.667 88 304.334 134.667 509.001 140l39 233h80l-39 -233c204 -5.33301 359 -52 465 -140c112 -94.667 157 -209 135 -343
c-22.667 -134 -106 -248.333 -250 -343c-135.333 -89.333 -306 -136.666 -512 -141.999zM1012 1095l-133 -800.002c182 4.66699 331 43.667 447 117c124.667 78 196 172.333 214 283c18.667 110.667 -21 205.334 -119 284.001c-92 72.667 -228.333 111.334 -409 116.001z
" />
    <glyph glyph-name="Chi" unicode="&#x3a7;" horiz-adv-x="1018" 
d="M15 0l578 777l-261 637h91l228 -559l417 559h91l-476 -637l320 -777h-91l-287 698l-520 -698h-90z" />
    <glyph glyph-name="Psi" unicode="&#x3a8;" horiz-adv-x="1614" 
d="M896 311l-51.001 -307h-80l51 307c-202.667 5.33301 -356.667 52.666 -462 141.999c-106 94.667 -149.333 210 -130 346l103 613h80l-104 -617c-18 -110.667 22 -205 120 -283c92 -73.333 228 -112.333 408 -117l170 1017h80l-170 -1017c182 4.66699 331 43.667 447 117
c124.667 78 196.334 173.667 215.001 287h5l103 613h80l-104 -618c-22.667 -133.333 -105.667 -247 -249 -341c-135.333 -89.333 -306 -136.666 -512 -141.999z" />
    <glyph glyph-name="uni03A9" unicode="&#x3a9;" horiz-adv-x="1446" 
d="M970 1434c188.667 0 328.998 -66.667 420.998 -200s119 -313 81 -539c-28 -166.667 -97 -306.334 -207 -419.001s-203 -178 -279 -196h292l-13 -80h-480l13 80c134 30 259.167 97.167 375.5 201.5s188.833 242.166 217.5 413.499c34 204 11.333 366.833 -68 488.5
s-202.666 182.5 -369.999 182.5h-4c-167.333 0 -311 -60.833 -431 -182.5s-197 -284.5 -231 -488.5c-28.667 -171.333 -2.5 -309.166 78.5 -413.499s183.833 -171.5 308.5 -201.5l-13 -80h-480l13 80h292c-70.667 18 -142 83.333 -214 196s-94 252.334 -66 419.001
c38 226 125.333 405.667 262 539s299.334 200 488.001 200h14z" />
    <glyph glyph-name="Iotadieresis" unicode="&#x3aa;" horiz-adv-x="324" 
d="M439 1414l-237 -1414h-80l237 1414h80zM363 1658c13.333 -15.333 17.999 -33.666 13.999 -54.999c-3.33301 -22.667 -14.166 -41.667 -32.499 -57s-38.166 -23 -59.499 -23c-22 0 -39.5 7.66699 -52.5 23s-17.833 34.333 -14.5 57c4 21.333 15 39.666 33 54.999
s38 23 60 23c21.333 0 38.666 -7.66699 51.999 -23zM627.999 1658c13.333 -15.333 17.999 -33.666 13.999 -54.999c-3.33301 -22.667 -14.166 -41.667 -32.499 -57s-38.166 -23 -59.499 -23c-22 0 -39.5 7.66699 -52.5 23s-17.833 34.333 -14.5 57
c4 21.333 15 39.666 33 54.999s38 23 60 23c21.333 0 38.666 -7.66699 51.999 -23z" />
    <glyph glyph-name="Upsilondieresis" unicode="&#x3ab;" horiz-adv-x="1052" 
d="M614 572l-345 842h91l309 -754l561 754h91l-627 -842l-96 -572h-80zM759.5 1658c13 -15.333 17.833 -33.666 14.5 -54.999c-4 -22.667 -15.167 -41.667 -33.5 -57s-38.166 -23 -59.499 -23c-22 0 -39.5 7.66699 -52.5 23s-17.5 34.333 -13.5 57
c3.33301 21.333 14.166 39.666 32.499 54.999s38.5 23 60.5 23c21.333 0 38.5 -7.66699 51.5 -23zM1024.5 1658c13 -15.333 17.833 -33.666 14.5 -54.999c-4 -22.667 -15.167 -41.667 -33.5 -57s-38.166 -23 -59.499 -23c-22 0 -39.5 7.66699 -52.5 23
s-17.5 34.333 -13.5 57c3.33301 21.333 14.166 39.666 32.499 54.999s38.5 23 60.5 23c21.333 0 38.5 -7.66699 51.5 -23z" />
    <glyph glyph-name="alphatonos" unicode="&#x3ac;" horiz-adv-x="1162" 
d="M1015 207c-25.333 -31.333 -54 -61.001 -86 -89.001c-110.667 -95.333 -233.334 -143 -368.001 -143c-133.333 0 -239.5 47.5 -318.5 142.5s-107.5 209.167 -85.5 342.5c22.667 134.667 89.5 249.334 200.5 344.001s233.167 142 366.5 142
c134.667 0 241.334 -47.333 320.001 -142c24.667 -30 40.667 -75.333 48 -136l97 200h79l-173 -434l27 -434h-79zM974 743.999c-65.333 78.667 -153.331 118.001 -263.998 118.001s-211.834 -39.333 -303.501 -118s-146.834 -173.334 -165.501 -284.001
c-18 -110.667 5.66699 -205 71 -283s153.333 -117 264 -117s211.667 39 303 117c70 60 115.667 147 137 261c23.333 140 9.33301 242 -42 306zM999.002 1217l-244 -165h-74l171 165h147z" />
    <glyph glyph-name="epsilontonos" unicode="&#x3ad;" horiz-adv-x="754" 
d="M281.5 354.5c-43 -27.667 -69.498 -70.167 -79.498 -127.5c-7.33301 -44 8 -81.833 46 -113.5s92.333 -47.5 163 -47.5c104.667 6.66699 202 61.667 292 165l-23 -130c-92 -79.333 -186.333 -119 -283 -119c-87.333 0 -157 22.5 -209 67.5s-71.333 107.833 -58 188.5
c13.333 79.333 72 147.666 176 204.999c-84.667 57.333 -119.667 129 -105 215c13.333 80.667 52.666 138.167 117.999 172.5s141.666 51.5 228.999 51.5c94.667 0 176 -37.333 244 -112l-18 -108c-56 90.667 -136 136 -240 136c-70.667 0 -129.5 -10.833 -176.5 -32.5
s-74.167 -54.5 -81.5 -98.5c-10.667 -64 0.833008 -109.667 34.5 -137s61.167 -43.666 82.5 -48.999h218l-13 -79h-218c-22.667 -4 -55.5 -19.833 -98.5 -47.5zM775.002 1217l-245 -165h-74l172 165h147z" />
    <glyph glyph-name="etatonos" unicode="&#x3ae;" horiz-adv-x="841" 
d="M283 674l-113.003 -674h-80l145 868h80l-9 -56c84 72 174 108 270 108c102.667 0 180.834 -32.167 234.501 -96.5s72.834 -145.166 57.501 -242.499l-152 -912h-79l151 904c12 74 -4.16699 137 -48.5 189s-103.166 78 -176.499 78c-72.667 0 -140 -25.667 -202 -77
c-34 -28.667 -60 -58.334 -78 -89.001zM828.997 1217l-245 -165h-74l172 165h147z" />
    <glyph glyph-name="iotatonos" unicode="&#x3af;" horiz-adv-x="369" 
d="M369 868l-145 -868h-79l145 868h79zM583 1217l-245 -165h-74l172 165h147z" />
    <glyph glyph-name="upsilondieresistonos" unicode="&#x3b0;" horiz-adv-x="880" 
d="M443 -12c-108.667 0 -189.668 32.001 -243.001 96.001s-72.666 145 -57.999 243l90 542h80l-89 -535c-12.667 -73.333 3.33301 -136 48 -188c44 -52.667 105.333 -79 184 -79c73.333 0 140.833 26.167 202.5 78.5s98.834 115.166 111.501 188.499l89 535h80l-90 -542
c-18.667 -98 -65.334 -179 -140.001 -243s-163 -96 -265 -96zM799.999 1217l-205 -165h-74l132 165h147zM860.999 1145c9.33301 -10.667 12.666 -23.334 9.99902 -38.001c-2.66699 -16 -10.334 -29.333 -23.001 -40s-26.667 -16 -42 -16s-27.666 5.33301 -36.999 16
s-12.666 24 -9.99902 40c2.66699 14.667 10.334 27.334 23.001 38.001s26.667 16 42 16s27.666 -5.33301 36.999 -16zM480.999 1145c9.33301 -10.667 12.666 -23.334 9.99902 -38.001c-2.66699 -16 -10.334 -29.333 -23.001 -40s-26.667 -16 -42 -16
s-27.666 5.33301 -36.999 16s-12.666 24 -9.99902 40c2.66699 14.667 10.334 27.334 23.001 38.001s26.667 16 42 16s27.666 -5.33301 36.999 -16z" />
    <glyph glyph-name="alpha" unicode="&#x3b1;" horiz-adv-x="1162" 
d="M1015 207c-25.333 -31.333 -54 -61.001 -86 -89.001c-110.667 -95.333 -233.334 -143 -368.001 -143c-133.333 0 -239.5 47.5 -318.5 142.5s-107.5 209.167 -85.5 342.5c22.667 134.667 89.5 249.334 200.5 344.001s233.167 142 366.5 142
c134.667 0 241.334 -47.333 320.001 -142c24.667 -30 40.667 -75.333 48 -136l97 200h79l-173 -434l27 -434h-79zM974 743.999c-65.333 78.667 -153.331 118.001 -263.998 118.001s-211.834 -39.333 -303.501 -118s-146.834 -173.334 -165.501 -284.001
c-18 -110.667 5.66699 -205 71 -283s153.333 -117 264 -117s211.667 39 303 117c70 60 115.667 147 137 261c23.333 140 9.33301 242 -42 306z" />
    <glyph glyph-name="beta" unicode="&#x3b2;" horiz-adv-x="911" 
d="M649 1433c84 0 150.332 -29.5029 198.999 -88.5029s66 -129.5 52 -211.5c-14 -84 -47.333 -150 -100 -198s-100 -80 -142 -96c80.667 -28 144 -72 190 -132c66 -86.667 89.333 -188 70 -304c-19.333 -116.667 -77 -216.167 -173 -298.5s-202.333 -123.5 -319 -123.5
c-59.333 0 -112.666 10.667 -159.999 32l40 81c39.333 -19.333 84 -29 134 -29c94 0 179.5 32.833 256.5 98.5s123.167 145.5 138.5 239.5c16 93.333 -2.33301 175 -55 245s-141.334 117 -266.001 141l-66 2l13 79c55.333 0.666992 101.666 7.83398 138.999 21.501
s80 42.334 128 86.001s77 95.5 87 155.5c10.667 60.667 -1.66602 112 -36.999 154s-83 63 -143 63c-59.333 0 -112.666 -22.167 -159.999 -66.5s-77.333 -104.166 -90 -179.499l-240 -1432h-80l241 1442c16 95.333 56.333 172.333 121 231s138.667 88 222 88z" />
    <glyph glyph-name="gamma" unicode="&#x3b3;" horiz-adv-x="894" 
d="M404 0l-219 868h93l188 -743l440 743h93l-510 -863l-57 -336h-84z" />
    <glyph glyph-name="delta" unicode="&#x3b4;" horiz-adv-x="1114" 
d="M233 460c-18 -110.667 5.66895 -205 71.002 -283s153.333 -117 264 -117s211.667 39 303 117s146 172.333 164 283c18.667 110.667 -4.5 205.334 -69.5 284.001s-152.833 118 -263.5 118s-211.834 -39.333 -303.501 -118s-146.834 -173.334 -165.501 -284.001zM1053 783
c66.667 -80.667 88.667 -188.333 66 -323c-22 -133.333 -88.167 -247.5 -198.5 -342.5s-232.833 -142.5 -367.5 -142.5c-133.333 0 -239.5 47.5 -318.5 142.5s-107.5 209.167 -85.5 342.5c22.667 134.667 89.667 249.334 201 344.001c97.333 83.333 224 133.333 380 150
l-301 455h629l-13 -80h-441c128.667 -228 219 -355.833 271 -383.5s111.333 -81.834 178 -162.501z" />
    <glyph glyph-name="epsilon" unicode="&#x3b5;" horiz-adv-x="754" 
d="M281.5 354.5c-43 -27.667 -69.498 -70.167 -79.498 -127.5c-7.33301 -44 8 -81.833 46 -113.5s92.333 -47.5 163 -47.5c104.667 6.66699 202 61.667 292 165l-23 -130c-92 -79.333 -186.333 -119 -283 -119c-87.333 0 -157 22.5 -209 67.5s-71.333 107.833 -58 188.5
c13.333 79.333 72 147.666 176 204.999c-84.667 57.333 -119.667 129 -105 215c13.333 80.667 52.666 138.167 117.999 172.5s141.666 51.5 228.999 51.5c94.667 0 176 -37.333 244 -112l-18 -108c-56 90.667 -136 136 -240 136c-70.667 0 -129.5 -10.833 -176.5 -32.5
s-74.167 -54.5 -81.5 -98.5c-10.667 -64 0.833008 -109.667 34.5 -137s61.167 -43.666 82.5 -48.999h218l-13 -79h-218c-22.667 -4 -55.5 -19.833 -98.5 -47.5z" />
    <glyph glyph-name="zeta" unicode="&#x3b6;" horiz-adv-x="790" 
d="M1042 1388c-423.333 -364 -682.001 -673.667 -776.001 -929c-14.667 -40.667 -24.667 -78 -30 -112c-30.667 -182.667 67 -277.667 293 -285c164 -5.33301 235.667 -69 215 -191c-38 -106.667 -107.333 -161.667 -208 -165l14 83c62.667 0 101.334 31 116.001 93l1 5
c10 62.667 -38.667 94 -146 94c-282 6 -404 123.333 -366 352c4.66699 27.333 12 56.333 22 87c85.333 285.333 325 590 719 914h-536l13 80h673z" />
    <glyph glyph-name="eta" unicode="&#x3b7;" horiz-adv-x="841" 
d="M283 674l-113.003 -674h-80l145 868h80l-9 -56c84 72 174 108 270 108c102.667 0 180.834 -32.167 234.501 -96.5s72.834 -145.166 57.501 -242.499l-152 -912h-79l151 904c12 74 -4.16699 137 -48.5 189s-103.166 78 -176.499 78c-72.667 0 -140 -25.667 -202 -77
c-34 -28.667 -60 -58.334 -78 -89.001z" />
    <glyph glyph-name="theta" unicode="&#x3b8;" horiz-adv-x="1130" 
d="M1082 695c33.333 200 20.166 355.667 -39.501 467s-144.834 167 -255.501 167s-214.5 -55.667 -311.5 -167s-162.167 -267 -195.5 -467c-33.333 -200.667 -20.166 -356.667 39.501 -468s144.834 -167 255.501 -167s214.5 55.667 311.5 167s162.167 267.333 195.5 468z
M1166 695c-37.333 -223.333 -113.831 -399.166 -229.498 -527.499s-240.5 -192.5 -374.5 -192.5s-237.833 64.167 -311.5 192.5s-91.834 304.166 -54.501 527.499c37.333 222.667 114.166 398.167 230.499 526.5s241.5 192.5 375.5 192.5s237.5 -64.167 310.5 -192.5
s90.833 -303.833 53.5 -526.5zM417.002 735h543l-14 -80h-543z" />
    </font>
</defs>
</svg>
