<?xml version="1.0" standalone="no"?>
<!DOCTYPE svg PUBLIC "-//W3C//DTD SVG 1.1//EN" "http://www.w3.org/Graphics/SVG/1.1/DTD/svg11.dtd" >
<svg>
<metadata>
Created by FontForge 20090914 at Sun Dec 21 11:51:48 2014
 By www-data
&#194;&#169; Lauren Thompson, 2009, 2010. All rights reserved.
</metadata>
<defs>
<font id="Champagne&Limousines-Bold" horiz-adv-x="956" >
  <font-face 
    font-family="Champagne & Limousines"
    font-weight="700"
    font-stretch="normal"
    units-per-em="2048"
    panose-1="2 11 7 2 2 2 2 2 5 4"
    ascent="1638"
    descent="-410"
    x-height="902"
    cap-height="1439"
    bbox="-400 -379 2008 1838"
    underline-thickness="150"
    underline-position="-142"
    unicode-range="U+0020-U+FF9F"
  />
<missing-glyph horiz-adv-x="1088" 
d="M522 616c0 -4 1.83398 -10.1689 5.50098 -18.502s20.5 -16.166 50.5 -23.499c-30 -9.33301 -70 -29.333 -120 -60c-16 -10 -31.667 -15 -47 -15c-34 0 -67 24 -99 72c18.667 9.33301 31.667 16.333 39 21s11 9 11 13v252c0 20 -15.667 34.667 -47 44
c82 39.333 140.667 71.333 176 96c16.667 -2 27 -26.333 31 -73v-3c13.333 5.33301 25.333 11 36 17l163 59c7.33301 -39.333 15.666 -75 24.999 -107c9.33301 -31.333 18.666 -77.333 27.999 -138c1.33301 -11.333 2 -22.666 2 -33.999c0 -50 -17 -101.667 -51 -155
c-42 -65.333 -101.333 -131.666 -178 -198.999c48.667 89.333 73 172.666 73 249.999c0 21.333 -1.66699 42 -5 62c-17.333 94 -31.666 153.333 -42.999 178c-33.333 -24.667 -50 -50 -50 -76v-162zM76.001 1412v-1409h936v1409h-936zM1044 1447v-1480h-1000v1480h1000z" />
    <glyph glyph-name=".notdef" horiz-adv-x="1088" 
d="M522 616c0 -4 1.83398 -10.1689 5.50098 -18.502s20.5 -16.166 50.5 -23.499c-30 -9.33301 -70 -29.333 -120 -60c-16 -10 -31.667 -15 -47 -15c-34 0 -67 24 -99 72c18.667 9.33301 31.667 16.333 39 21s11 9 11 13v252c0 20 -15.667 34.667 -47 44
c82 39.333 140.667 71.333 176 96c16.667 -2 27 -26.333 31 -73v-3c13.333 5.33301 25.333 11 36 17l163 59c7.33301 -39.333 15.666 -75 24.999 -107c9.33301 -31.333 18.666 -77.333 27.999 -138c1.33301 -11.333 2 -22.666 2 -33.999c0 -50 -17 -101.667 -51 -155
c-42 -65.333 -101.333 -131.666 -178 -198.999c48.667 89.333 73 172.666 73 249.999c0 21.333 -1.66699 42 -5 62c-17.333 94 -31.666 153.333 -42.999 178c-33.333 -24.667 -50 -50 -50 -76v-162zM76.001 1412v-1409h936v1409h-936zM1044 1447v-1480h-1000v1480h1000z" />
    <glyph glyph-name="space" unicode=" " horiz-adv-x="508" 
 />
    <glyph glyph-name="space" unicode="&#xa0;" horiz-adv-x="508" 
 />
    <glyph glyph-name="exclam" unicode="!" horiz-adv-x="367" 
d="M275.5 184.5c24.333 -23.667 36.5 -50.5 36.5 -80.5s-12.167 -56.833 -36.5 -80.5s-54.833 -35.5 -91.5 -35.5c-38 0 -69 11.833 -93 35.5s-36 50.5 -36 80.5s12 56.833 36 80.5s55 35.5 93 35.5c36.667 0 67.167 -11.833 91.5 -35.5zM272 1439v-1104h-181v1104h181z" />
    <glyph glyph-name="quotedbl" unicode="&#x22;" horiz-adv-x="540" 
d="M55 847v589h181v-589h-181zM305 847v589h180v-589h-180z" />
    <glyph glyph-name="numbersign" unicode="#" horiz-adv-x="1026" 
d="M491 429h-111l-81 -333h-178l82 333h-223l80 157h182l56 227h-206l82 157h162l84 344h178l-85 -344h111l84 344h178l-85 -344h204l-82 -157h-160l-56 -227h185l-81 -157h-143l-81 -333h-178zM419 586h111l56 227h-111z" />
    <glyph glyph-name="dollar" unicode="$" horiz-adv-x="1149" 
d="M671 254c82.667 27.333 124 101.333 124 222c0 66.667 -22.667 123 -68 169l-57 57zM490 1172c-26 -26.667 -39 -60 -39 -100s13 -71.667 39 -95v195zM490 778c-46.667 20.667 -90.999 52 -132.999 94c-56 55.333 -84 122 -84 200c0 76 28 142 84 198
c49.333 50.667 93.666 78.334 132.999 83.001v91h181v-96c34.667 -6 74.667 -31.333 120 -76c31.333 -30.667 56.666 -76 75.999 -136l-159 -65c-6 43.333 -18.333 82 -37 116v-314c64.667 -25.333 127.334 -68.333 188.001 -129c75.333 -74.667 113 -164 113 -268
c0 -104.667 -37.333 -194.334 -112 -269.001c-66 -66 -129 -102.667 -189 -110v-101h-181v98c-64.667 5.33301 -131.667 43 -201 113c-60 60 -97.667 139.667 -113 239l171 64c10 -136.667 57.667 -223.667 143 -261v529z" />
    <glyph glyph-name="percent" unicode="%" horiz-adv-x="1136" 
d="M1053 1165l-829 -1185l-141 98l829 1185zM491.5 1041c47 -47.333 70.5 -102.666 70.5 -165.999c0 -62 -23.5 -116.833 -70.5 -164.5s-106.167 -71.5 -177.5 -71.5s-130.5 23.833 -177.5 71.5s-70.5 102.5 -70.5 164.5c0 63.333 23.5 118.666 70.5 165.999
s106.167 71 177.5 71s130.5 -23.667 177.5 -71zM314 958c-17.333 0 -33.333 -7.5 -48 -22.5s-22 -35.167 -22 -60.5s7.33301 -45.333 22 -60s30.667 -22 48 -22c16.667 0 32.5 7.5 47.5 22.5s22.5 34.833 22.5 59.5c0 25.333 -7.5 45.5 -22.5 60.5s-30.833 22.5 -47.5 22.5z
M999.5 531.5c47 -47 70.5 -102.167 70.5 -165.5s-23.5 -118.5 -70.5 -165.5s-105.833 -70.5 -176.5 -70.5c-71.333 0 -130.5 23.5 -177.5 70.5s-70.5 102.167 -70.5 165.5s23.5 118.5 70.5 165.5s106.167 70.5 177.5 70.5c70.667 0 129.5 -23.5 176.5 -70.5zM823 449
c-17.333 0 -33.333 -7.5 -48 -22.5s-22 -35.167 -22 -60.5s7.33301 -45.333 22 -60s30.667 -22 48 -22c16.667 0 32.667 7.33301 48 22s23 34.667 23 60s-7.66699 45.5 -23 60.5s-31.333 22.5 -48 22.5z" />
    <glyph glyph-name="ampersand" unicode="&#x26;" horiz-adv-x="1231" 
d="M912 715c40 -0.666992 78.665 -11.335 115.998 -32.002c55.333 -31.333 91 -76.666 107 -135.999c5.33301 -19.333 8 -38.333 8 -57c0 -36 -9.33301 -70.667 -28 -104c-31.333 -54.667 -85 -93.667 -161 -117c-14 -46.667 -48 -96.667 -102 -150
c-88.667 -90 -197 -135 -325 -135c-127.333 0 -234.833 43.833 -322.5 131.5s-131.5 191.5 -131.5 311.5c0 119.333 42 224 126 314c58.667 62.667 109.667 96.334 153 101.001c-96.667 103.333 -145 199 -145 287c0 86.667 32.5 162.834 97.5 228.501
s145.5 98.5 241.5 98.5c96.667 0 178.334 -33.667 245.001 -101c36 -34.667 63.667 -83.334 83 -146.001l-160 -63c-20.667 54 -40.334 90.333 -59.001 109c-30.667 30.667 -67 46 -109 46c-41.333 0 -78.166 -16.167 -110.499 -48.5s-48.5 -73.5 -48.5 -123.5
s17 -93.167 51 -129.5s64.333 -59.5 91 -69.5s78.667 -15.333 156 -16v-151l-106 -2c-108 -20 -189.5 -60.167 -244.5 -120.5s-82.5 -131.5 -82.5 -213.5c0 -81.333 27.333 -149.5 82 -204.5s119 -82.5 193 -82.5c73.333 0 138 28 194 84c30 30 48.667 56 56 78
c-25.333 16 -59.666 46.333 -102.999 91c-23.333 22 -38.666 35 -45.999 39c-3.33301 2 -6.33301 3 -9 3s-4.66699 -0.333008 -6 -1c-4.66699 -1.33301 -9 -5.33301 -13 -12c-4 -8 -6 -15.333 -6 -22c0 -4.66699 0.333008 -9.33398 1 -14.001
c3.33301 -10 7.33301 -16.333 12 -19c1.33301 -0.666992 4.66602 -1 9.99902 -1v-154h-10c-32.667 0 -64.667 8.33301 -96 25c-45.333 26 -74.666 64 -87.999 114c-4.66699 16.667 -7 33 -7 49c0 30 8 59.333 24 88c28 46.667 68.667 77.667 122 93
c20 5.33301 39.333 8 58 8c36.667 0 70.667 -9.33301 102 -28c26.667 -14.667 59.667 -42.667 99 -84c29.333 -26.667 50 -43.334 62 -50.001c8 -4.66699 15.333 -7 22 -7c4 0 8.66699 1 14 3c15.333 4 27.666 13.667 36.999 29c6.66699 12.667 10 25.334 10 38.001
c0 6.66699 -1.33301 14 -4 22c-5.33301 19.333 -15.333 33.333 -30 42c-6 2.66699 -12.667 4.33398 -20 5.00098v156z" />
    <glyph glyph-name="quotesingle" unicode="'" horiz-adv-x="291" 
d="M55 847v589h181v-589h-181z" />
    <glyph glyph-name="parenleft" unicode="(" horiz-adv-x="736" 
d="M681 1506c-126.667 -76.667 -221 -156.666 -283 -239.999c-91.333 -124.667 -137 -298 -137 -520v-87c0 -222.667 45.667 -396.334 137 -521.001c62 -83.333 156.333 -163.333 283 -240h-255c-62 43.333 -115.333 91 -160 143c-140.667 162.667 -211 383 -211 661
s70.333 498 211 660c44.667 52.667 98 100.667 160 144h255z" />
    <glyph glyph-name="parenright" unicode=")" horiz-adv-x="736" 
d="M310 1506c62 -43.333 115.333 -91.334 160 -144.001c140.667 -162 211 -382 211 -660s-70.333 -498.333 -211 -661c-44.667 -52 -98 -99.667 -160 -143h-255c126.667 76.667 221 156.667 283 240c92 124.667 138 298.334 138 521.001v87c0 222 -46 395.333 -138 520
c-62 83.333 -156.333 163.333 -283 240h255z" />
    <glyph glyph-name="asterisk" unicode="*" horiz-adv-x="841" 
d="M511 1291l162 86l93 -133l-189 -102l189 -102l-93 -134l-162 86v-145h-180v146l-163 -87l-93 134l189 102l-189 102l93 134l163 -87v145h180v-145z" />
    <glyph glyph-name="plus" unicode="+" horiz-adv-x="1138" 
d="M479 609h-394v156h394v395h180v-395h394v-156h-394v-395h-180v395z" />
    <glyph glyph-name="comma" unicode="," horiz-adv-x="464" 
d="M367 221l-196 -407h-171l109 407h258z" />
    <glyph glyph-name="hyphen" unicode="-" horiz-adv-x="680" 
d="M48 621h584v-157h-584v157z" />
    <glyph glyph-name="hyphen" unicode="&#xad;" horiz-adv-x="680" 
d="M48 621h584v-157h-584v157z" />
    <glyph glyph-name="period" unicode="." horiz-adv-x="367" 
d="M275.5 184.5c24.333 -23.667 36.5 -50.5 36.5 -80.5s-12.167 -56.833 -36.5 -80.5s-54.833 -35.5 -91.5 -35.5c-38 0 -69 11.833 -93 35.5s-36 50.5 -36 80.5s12 56.833 36 80.5s55 35.5 93 35.5c36.667 0 67.167 -11.833 91.5 -35.5z" />
    <glyph glyph-name="slash" unicode="/" horiz-adv-x="744" 
d="M599 1439h197l-652 -1439h-196z" />
    <glyph glyph-name="zero" unicode="0" horiz-adv-x="1135" 
d="M901 708c0 186 -34.167 327.5 -102.5 424.5s-145.166 145.5 -230.499 145.5c-86 0 -163 -48.5 -231 -145.5s-102 -238.5 -102 -424.5c0 -186.667 34 -328.334 102 -425.001s145 -145 231 -145c85.333 0 162.166 48.333 230.499 145s102.5 238.334 102.5 425.001z
M1085 708c0 -221.333 -49 -398.666 -147 -531.999s-221 -200 -369 -200c-148.667 0 -272.334 66.667 -371.001 200s-148 310.666 -148 531.999c0 220.667 49.333 397.667 148 531s222.334 200 371.001 200c148 0 271 -66.667 369 -200s147 -310.333 147 -531z" />
    <glyph glyph-name="one" unicode="1" horiz-adv-x="1146" 
d="M486 157v1004l-90 -59l-133 96l403 294v-1335h295v-157h-776v157h301z" />
    <glyph glyph-name="two" unicode="2" horiz-adv-x="1177" 
d="M170 0c380 580.667 582.832 893.668 608.499 939.001s38.5 87.666 38.5 126.999c0 19.333 -2.33301 39.333 -7 60c-13.333 60.667 -44.666 106.334 -93.999 137.001c-33.333 20 -67.333 30 -102 30c-16 0 -31.667 -1.66699 -47 -5
c-54.667 -12.667 -97.334 -43.667 -128.001 -93c-18.667 -29.333 -31.667 -72.666 -39 -129.999l-180 27c6.66699 71.333 25 130.666 55 177.999c58.667 91.333 140.334 148.666 245.001 171.999c32 8 63.667 12 95 12c74.667 0 144.667 -20.667 210 -62
c90 -56.667 146.333 -135 169 -235c8 -35.333 12 -69.333 12 -102c0 -58 -16 -115.833 -48 -173.5s-188 -299.167 -468 -724.5h516v-157h-836z" />
    <glyph glyph-name="three" unicode="3" horiz-adv-x="1144" 
d="M519 759l-107.994 3.00195v154c78.667 0.666992 131.167 6.16699 157.5 16.5s56.166 33.333 89.499 69s50 78.167 50 127.5c0 50 -15.833 90.667 -47.5 122s-67.834 47 -108.501 47s-76.334 -15 -107.001 -45c-18 -18.667 -37.333 -55.667 -58 -111l-165 65
c20 65.333 48 115.333 84 150c67.333 67.333 149.333 101 246 101c97.333 0 178.666 -33 243.999 -99s98 -142.667 98 -230c0 -88.667 -45.667 -181.667 -137 -279c37.333 -7.33301 85.666 -43 144.999 -107c84 -90.667 126 -196 126 -316c0 -120.667 -44 -225 -132 -313
s-196.333 -132 -325 -132c-128 0 -237 45 -327 135c-68.667 69.333 -111.334 159.666 -128.001 270.999l178 64c12 -106 42 -183 90 -231c52.667 -52.667 115 -79 187 -79c74 0 138.167 27.167 192.5 81.5s81.5 122.166 81.5 203.499c0 82 -27.333 152.667 -82 212
s-136 99.333 -244 120z" />
    <glyph glyph-name="four" unicode="4" horiz-adv-x="1171" 
d="M905 1639v-1133h130v-156h-130v-350h-181v350h-588zM724 1003l-295 -497h295v497z" />
    <glyph glyph-name="five" unicode="5" horiz-adv-x="1147" 
d="M369 1041c40 7.33301 78.998 10.998 116.998 10.998c70 0 136.667 -11 200 -33c140 -48 244.333 -136 313 -264c41.333 -77.333 62 -156.666 62 -237.999c0 -51.333 -7.66699 -102.333 -23 -153c-42.667 -136.667 -128 -240 -256 -310c-80.667 -42.667 -164 -64 -250 -64
c-54.667 0 -110 8.66699 -166 26c-113.333 35.333 -207 103.666 -281 204.999l122 134c68.667 -101.333 142.334 -163.666 221.001 -186.999c34.667 -11.333 68.334 -17 101.001 -17c52.667 0 104.667 13.667 156 41c86.667 46 144.667 117 174 213
c12 38.667 18 76.334 18 113.001c0 58 -15 115 -45 171c-46 87.333 -115.667 147.333 -209 180c-40 13.333 -83.333 20 -130 20c-66 0 -151 -16.333 -255 -49l-103 91l161 445v63h528v-157h-373z" />
    <glyph glyph-name="six" unicode="6" horiz-adv-x="1143" 
d="M327 399c0 -73.333 24.333 -134.333 73 -183s105.667 -73 171 -73c64.667 0 121.5 24.333 170.5 73s73.5 109.667 73.5 183s-24.5 134.5 -73.5 183.5s-105.833 73.5 -170.5 73.5c-65.333 0 -122.333 -24.5 -171 -73.5s-73 -110.167 -73 -183.5zM409 765
c28 34.667 82 51.999 162 51.999c121.333 0 223.166 -41.333 305.499 -124s123.5 -180.667 123.5 -294c0 -112.667 -41.167 -210.5 -123.5 -293.5s-184.166 -124.5 -305.499 -124.5c-120 0 -221.5 41.5 -304.5 124.5s-124.5 180.833 -124.5 293.5
c6 150.667 48.5 306.834 127.5 468.501s192.167 352.167 339.5 571.5h219c-183.333 -268 -323 -492.667 -419 -674z" />
    <glyph glyph-name="seven" unicode="7" horiz-adv-x="1142" 
d="M833 905c-113.333 -161.333 -206.667 -318.999 -280 -472.999c-72.667 -152.667 -112.334 -296.667 -119.001 -432h-183c6.66699 167.333 50 332.666 130 495.999c78.667 160 169.334 315.333 272.001 466c98.667 146 155 252.667 169 320h-704v157h905
c-4 -180.667 -67.333 -358.667 -190 -534z" />
    <glyph glyph-name="eight" unicode="8" horiz-adv-x="1137" 
d="M570 144c106.667 4.66699 184.333 32.5 233 83.5s73 117.5 73 199.5s-27.667 153 -83 213c-52.667 57.333 -127.334 95.666 -224.001 114.999c-98 -19.333 -173.333 -57.666 -226 -114.999c-54.667 -60 -82 -131 -82 -213s24.333 -148.5 73 -199.5
s127.334 -78.833 236.001 -83.5zM568.999 -9c-165.333 0 -288.666 42.667 -369.999 128s-122 188 -122 308s42 225.333 126 316c60 64 111.333 96 154 96c-97.333 104.667 -146 201.334 -146 290.001c0 88 32.5 164 97.5 228s153.167 96.333 264.5 97
c104.667 -0.666992 189.667 -33 255 -97s98 -140 98 -228c0 -88.667 -49 -185.334 -147 -290.001c43.333 0 94.666 -32 153.999 -96c84 -90.667 126 -196 126 -316s-40.5 -222.667 -121.5 -308s-203.833 -128 -368.5 -128zM431.499 1247.5
c-23.667 -28.333 -35.5 -67.833 -35.5 -118.5c0 -49.333 16.5 -91.666 49.5 -126.999s74.167 -60.666 123.5 -75.999c48 15.333 88.5 40.666 121.5 75.999s49.5 77.666 49.5 126.999c0 50.667 -11.667 90.167 -35 118.5s-69 44.833 -137 49.5
c-67.333 -4.66699 -112.833 -21.167 -136.5 -49.5z" />
    <glyph glyph-name="nine" unicode="9" horiz-adv-x="1143" 
d="M815 1021c0 73.333 -24.5 134.333 -73.5 183s-106.167 73 -171.5 73c-64.667 0 -121.334 -24.333 -170.001 -73s-73 -109.667 -73 -183s24.333 -134.5 73 -183.5s105.334 -73.5 170.001 -73.5c65.333 0 122.5 24.5 171.5 73.5s73.5 110.167 73.5 183.5zM733 655
c-28 -34.667 -82.334 -51.999 -163.001 -51.999c-120.667 0 -222.167 41.333 -304.5 124s-123.5 180.667 -123.5 294c0 112.667 41.167 210.5 123.5 293.5s183.833 124.5 304.5 124.5s222.5 -41.5 305.5 -124.5s124.5 -180.833 124.5 -293.5
c-6 -150.667 -48.667 -306.834 -128 -468.501s-192.666 -352.167 -339.999 -571.5h-218c183.333 268 323 492.667 419 674z" />
    <glyph glyph-name="colon" unicode=":" horiz-adv-x="367" 
d="M275.5 184.5c24.333 -23.667 36.5 -50.5 36.5 -80.5s-12.167 -56.833 -36.5 -80.5s-54.833 -35.5 -91.5 -35.5c-38 0 -69 11.833 -93 35.5s-36 50.5 -36 80.5s12 56.833 36 80.5s55 35.5 93 35.5c36.667 0 67.167 -11.833 91.5 -35.5zM275.5 778
c24.333 -23.333 36.5 -50 36.5 -80s-12.167 -56.833 -36.5 -80.5s-54.833 -35.5 -91.5 -35.5c-38 0 -69 11.833 -93 35.5s-36 50.5 -36 80.5s12 56.667 36 80s55 35 93 35c36.667 0 67.167 -11.667 91.5 -35z" />
    <glyph glyph-name="semicolon" unicode=";" horiz-adv-x="421" 
d="M367 221l-196 -407h-171l109 407h258zM308 778c24 -23.333 36 -50 36 -80s-12 -56.833 -36 -80.5s-54.667 -35.5 -92 -35.5s-68.166 11.833 -92.499 35.5s-36.5 50.5 -36.5 80.5s12.167 56.667 36.5 80s55.166 35 92.499 35s68 -11.667 92 -35z" />
    <glyph glyph-name="semicolon" unicode="&#x37e;" horiz-adv-x="421" 
d="M367 221l-196 -407h-171l109 407h258zM308 778c24 -23.333 36 -50 36 -80s-12 -56.833 -36 -80.5s-54.667 -35.5 -92 -35.5s-68.166 11.833 -92.499 35.5s-36.5 50.5 -36.5 80.5s12.167 56.667 36.5 80s55.166 35 92.499 35s68 -11.667 92 -35z" />
    <glyph glyph-name="less" unicode="&#x3c;" horiz-adv-x="1184" 
d="M449 782l646 -299v-182l-1006 481l1006 481v-182z" />
    <glyph glyph-name="equal" unicode="=" horiz-adv-x="1138" 
d="M85 902h968v-157h-968v157zM89 630h960v-157h-960v157z" />
    <glyph glyph-name="greater" unicode="&#x3e;" horiz-adv-x="1184" 
d="M89 1081v182l1006 -481l-1006 -481v182l646 299z" />
    <glyph glyph-name="question" unicode="?" horiz-adv-x="832" 
d="M441 104c0 -30 -12 -56.833 -36 -80.5s-54.667 -35.5 -92 -35.5s-68.166 11.833 -92.499 35.5s-36.5 50.5 -36.5 80.5s12.167 56.833 36.5 80.5s55.166 35.5 92.499 35.5s68 -11.833 92 -35.5s36 -50.5 36 -80.5zM52 1076c1.33301 68 7.33301 115.002 18 141.002
c38 92.667 101.667 156.667 191 192c44.667 17.333 89.667 26 135 26c46 0 91.333 -8.66699 136 -26c87.333 -36.667 146.333 -95 177 -175c15.333 -42 23 -82 23 -120c0 -39.333 -8 -79 -24 -119c-27.333 -68.667 -92.666 -167.334 -195.999 -296.001
c-84.667 -104.667 -127 -204.334 -127 -299.001c0 -11.333 2 -37.333 6 -78h-181c-2 34.667 -3 56.667 -3 66c0 133.333 50 261.666 150 384.999c108.667 134.667 170.667 229.334 186 284.001c5.33301 20.667 8 40.334 8 59.001c0 28 -6.33301 53.667 -19 77
c-20 37.333 -50.667 63.666 -92 78.999c-18 6 -35.333 9 -52 9c-20.667 0 -41.334 -4.66699 -62.001 -14c-40.667 -19.333 -69 -51 -85 -95c-6 -16 -10 -48 -12 -96h-177z" />
    <glyph glyph-name="at" unicode="@" horiz-adv-x="1593" 
d="M1015 630l7 124.998c-7.33301 42 -26 79.333 -56 112c-41.333 44 -92.333 66 -153 66c-61.333 0 -116.333 -23.167 -165 -69.5s-75 -109.833 -79 -190.5c0 -61.333 20.667 -113.666 62 -156.999c40.667 -44 91.334 -66 152.001 -66c61.333 0 115.666 22.333 162.999 67
c34 32.667 57 70.334 69 113.001zM776 285.998c-118 0 -215.999 41.666 -293.999 124.999c-70.667 73.333 -106 159.666 -106 258.999c8 124.667 54 227.167 138 307.5s184.667 120.5 302 120.5c118.667 0 192 -15.667 220 -47l2 33h188l-64 -561c2.66699 -26 12 -39 28 -39
c16.667 0 40 14 70 42c58.667 54 91.334 152.667 98.001 296c0 114.667 -43.667 215.667 -131 303c-90.667 90.667 -223 136 -397 136c-152.667 0 -287.334 -55.667 -404.001 -167s-179.667 -259 -189 -443c0 -143.333 49 -266.666 147 -369.999
c101.333 -108 227.333 -162 378 -162c104 0 192.667 22.333 266 67l113 -127c-118.667 -67.333 -246.334 -101 -383.001 -101c-207.333 0 -380.333 73.333 -519 220c-126 131.333 -189 287.333 -189 468c12 228.667 94 415.167 246 559.5s331.333 216.5 538 216.5
c230.667 0 409.334 -63.667 536.001 -191c115.333 -117.333 173 -249.333 173 -396c-8.66699 -176 -51.334 -306.333 -128.001 -391c-76 -84 -164.667 -126 -266 -126c-98 10.667 -147 50.334 -147 119.001c-32.667 -100.667 -108 -151 -226 -151z" />
    <glyph glyph-name="A" unicode="A" horiz-adv-x="1208" 
d="M743 754l-138 382l-139 -382h277zM684 1439l521 -1439h-188l-217 598h-391l-221 -598h-189l528 1439h157z" />
    <glyph glyph-name="B" unicode="B" horiz-adv-x="1102" 
d="M555 157c83.333 0 156.166 31.166 218.499 93.499s93.5 139.833 93.5 232.5s-31.167 170.334 -93.5 233.001s-135.166 94 -218.499 94h-262v-653h262zM293 1283l0.00195312 -316.001h290c39.333 4 69.666 17 90.999 39c29.333 28.667 44 67 44 115
c0 46.667 -15.333 85.334 -46 116.001s-65.334 46 -104.001 46h-275zM910.002 820.998c93.333 -93.333 140 -206.001 140 -338.001c0 -130.667 -48.333 -244.334 -145 -341.001c-78 -78.667 -176.667 -126 -296 -142h-497v1439h457c94 0 172.667 -31.667 236 -95
s95 -137.666 95 -222.999c0 -86 -31 -159.667 -93 -221c22 -5.33301 56.333 -31.666 103 -78.999z" />
    <glyph glyph-name="C" unicode="C" horiz-adv-x="1419" 
d="M1230 317l126 -112c-162 -147.333 -340.333 -221 -535 -221c-209.333 0 -386.166 72.167 -530.499 216.5s-216.5 317.5 -216.5 519.5c0 200 72.167 372.667 216.5 518s321.166 218 530.499 218c194.667 0 373 -74 535 -222l-126 -112c-132 116.667 -268.333 175 -409 175
c-153.333 0 -285.833 -55.833 -397.5 -167.5s-167.5 -248.167 -167.5 -409.5c0 -162.667 55.833 -299.667 167.5 -411s244.167 -167 397.5 -167c140.667 0 277 58.333 409 175z" />
    <glyph glyph-name="D" unicode="D" horiz-adv-x="1252" 
d="M416 1439c240 -1.33301 426.667 -69 560 -203c142.667 -144 214 -316 214 -516c0 -202 -72.667 -376 -218 -522c-130.667 -130.667 -316 -196.667 -556 -198h-304v1439h304zM293 1279v-1120h122c178.667 0 319 49.333 421 148c112.667 112.667 169 250.334 169 413.001
c0 161.333 -56.333 299 -169 413c-102 97.333 -242.333 146 -421 146h-122z" />
    <glyph glyph-name="E" unicode="E" horiz-adv-x="1007" 
d="M895 1439v-157h-602v-484h602v-157h-602v-484h602v-157h-783v1439h783z" />
    <glyph glyph-name="F" unicode="F" horiz-adv-x="862" 
d="M810 1439v-157h-517v-484h517v-157h-517v-641h-181v1439h698z" />
    <glyph glyph-name="G" unicode="G" horiz-adv-x="1431" 
d="M1335 196c-147.333 -141.333 -318.666 -212 -513.999 -212c-209.333 0 -386.166 72.167 -530.499 216.5s-216.5 317.5 -216.5 519.5c0 200 72.167 372.667 216.5 518s321.166 218 530.499 218c194.667 0 373 -74 535 -222l-126 -112c-132 116.667 -268.333 175 -409 175
c-153.333 0 -285.833 -55.833 -397.5 -167.5s-167.5 -248.167 -167.5 -409.5c0 -162.667 55.833 -299.667 167.5 -411s244.167 -167 397.5 -167c131.333 0 242.666 36.667 333.999 110v438h180v-494z" />
    <glyph glyph-name="H" unicode="H" horiz-adv-x="1141" 
d="M275 641v-641h-181v1439h181v-641h591v641h181v-1439h-181v641h-591z" />
    <glyph glyph-name="I" unicode="I" horiz-adv-x="425" 
d="M303 1439v-1439h-181v1439h181z" />
    <glyph glyph-name="J" unicode="J" horiz-adv-x="400" 
d="M286 14c0 -78 -28 -143.833 -84 -197.5s-143.667 -80.5 -263 -80.5v150c64.667 0 108 10.667 130 32c24 24 36 59.333 36 106v1415h181v-1425z" />
    <glyph glyph-name="K" unicode="K" horiz-adv-x="1102" 
d="M874 1439l-380 -550l622 -889h-211l-518 741l-94 -135v-606h-181v1439h181v-532l371 532h210z" />
    <glyph glyph-name="L" unicode="L" horiz-adv-x="862" 
d="M112 0v1439h181v-1282h517v-157h-698z" />
    <glyph glyph-name="M" unicode="M" horiz-adv-x="1496" 
d="M1403 1439v-1439h-181v1170l-473 -621l-474 621v-1170h-181v1439h193l462 -605l461 605h193z" />
    <glyph glyph-name="N" unicode="N" horiz-adv-x="1398" 
d="M288 1439l820 -1150v1150h181v-1439h-200l-799 1121v-1121h-181v1439h179z" />
    <glyph glyph-name="O" unicode="O" horiz-adv-x="1621" 
d="M1341.5 1241c145 -145.333 217.5 -318.333 217.5 -519c0 -202 -72.5 -375.5 -217.5 -520.5s-322.167 -217.5 -531.5 -217.5c-208.667 0 -385.5 72.5 -530.5 217.5s-217.5 318.5 -217.5 520.5c0 200.667 72.5 373.667 217.5 519s321.833 218 530.5 218
c209.333 0 386.5 -72.667 531.5 -218zM810 1301c-153.333 0 -286 -56.167 -398 -168.5s-168 -249.166 -168 -410.499c0 -162.667 56 -300 168 -412s244.667 -168 398 -168c154 0 287 56 399 168s168 249.333 168 412c0 161.333 -56 298.166 -168 410.499
s-245 168.5 -399 168.5z" />
    <glyph glyph-name="P" unicode="P" horiz-adv-x="1032" 
d="M293 471l-0.000976562 -471h-181v1439h412c120 -16 220.333 -64.667 301 -146c94 -94 141 -206.333 141 -337c0 -131.333 -47.667 -245 -143 -341s-212.666 -144 -351.999 -144h-178zM292.999 1281v-651.999h178c84 0 157.333 31.167 220 93.5s94 140.166 94 233.499
c0 92.667 -31.333 170 -94 232s-136 93 -220 93h-178z" />
    <glyph glyph-name="Q" unicode="Q" horiz-adv-x="1621" 
d="M810 1301c-153.333 0 -286 -56.167 -398 -168.5s-168 -249.166 -168 -410.499c0 -162.667 56 -300 168 -412s244.667 -168 398 -168c154 0 287 56 399 168s168 249.333 168 412c0 161.333 -56 298.166 -168 410.499s-245 168.5 -399 168.5zM277 204
c-143.333 143.333 -215 315.997 -215 517.997c0 200.667 72.5 373.667 217.5 519s321.833 218 530.5 218c209.333 0 386.5 -72.667 531.5 -218s217.5 -318.333 217.5 -519c0 -202 -73 -376 -219 -522c-102.667 -103.333 -203.334 -158.333 -302.001 -165
c128.667 -54 212.667 -83.667 252 -89c33.333 0.666992 53.333 39 60 115h183c-21.333 -161.333 -96.666 -247 -225.999 -257c-94.667 0 -181.667 24 -261 72c-71.333 37.333 -124 57 -158 59c-26 -1.33301 -45.833 -8.16602 -59.5 -20.499s-23.5 -29.666 -29.5 -51.999
s-10.667 -48.166 -14 -77.499h-183c18.667 99.333 64 178.333 136 237c-189.333 3.33301 -343 64 -461 182z" />
    <glyph glyph-name="R" unicode="R" horiz-adv-x="1041" 
d="M293 1281v-651.999h178c84 0 157.333 31.167 220 93.5s94 140.166 94 233.499c0 92.667 -31.333 170 -94 232s-136 93 -220 93h-178zM462 471.001h-169v-471h-181v1439h412c120 -16 220.333 -64.667 301 -146c94 -94 141 -206.333 141 -337
c0 -131.333 -48.333 -245.333 -145 -342c-64 -64.667 -120.667 -103 -170 -115l323 -499h-209z" />
    <glyph glyph-name="S" unicode="S" horiz-adv-x="1017" 
d="M511 757c-103.333 34 -186.334 82.3311 -249.001 144.998s-94 138.334 -94 227.001c0 86.667 32.5 162.834 97.5 228.501s145.833 98.5 242.5 98.5c95.333 0 177 -33.667 245 -101c35.333 -34.667 63 -83.334 83 -146.001l-162 -63c-20 54 -38 89 -54 105
c-32.667 33.333 -70 50 -112 50c-41.333 0 -78.166 -16.167 -110.499 -48.5s-48.5 -73.5 -48.5 -123.5c0 -49.333 16.667 -91.333 50 -126c34.667 -33.333 82 -64 142 -92c114.667 -37.333 210.667 -94.666 288 -171.999c88.667 -88 133 -192 133 -312
s-43.833 -223.833 -131.5 -311.5s-195.167 -131.5 -322.5 -131.5c-128 0 -236.333 45 -325 135c-69.333 68.667 -112 157.667 -128 267l174 63c10.667 -104.667 40.334 -181 89.001 -229c53.333 -53.333 116.666 -80 189.999 -80c74 0 138.5 27.5 193.5 82.5
s82.5 123.167 82.5 204.5s-27 149 -81 203c-54.667 54 -118.667 96.333 -192 127z" />
    <glyph glyph-name="T" unicode="T" horiz-adv-x="931" 
d="M556 1282v-1282h-180v1282h-344v157h867v-157h-343z" />
    <glyph glyph-name="U" unicode="U" horiz-adv-x="1214" 
d="M921 1439h180.998v-1018c-15.333 -112.667 -63.666 -209.667 -144.999 -291c-94 -94.667 -210.333 -142 -349 -142c-140 0 -257.667 47.833 -353 143.5s-143 209.167 -143 340.5v967h181v-967c0 -92 31.333 -169.5 94 -232.5s136.334 -94.5 221.001 -94.5
c84 0 157.167 31.5 219.5 94.5s93.5 140.5 93.5 232.5v967z" />
    <glyph glyph-name="V" unicode="V" horiz-adv-x="1158" 
d="M970 1439h189l-517 -1439h-126l-516 1439h188l392 -1108z" />
    <glyph glyph-name="W" unicode="W" horiz-adv-x="1665" 
d="M893 1079l291 -751l298 1111h183l-386 -1439h-158l-288 758l-289 -758h-158l-386 1439h184l299 -1111l289 751h121z" />
    <glyph glyph-name="X" unicode="X" horiz-adv-x="1137" 
d="M15 0l453 787l-376 652h200l276 -479l276 479h201l-377 -652l455 -787h-201l-354 613l-354 -613h-199z" />
    <glyph glyph-name="Y" unicode="Y" horiz-adv-x="1233" 
d="M526 582l-494 857h200l385 -666l384 666h200l-494 -857v-582h-181v582z" />
    <glyph glyph-name="Z" unicode="Z" horiz-adv-x="1168" 
d="M823 1282h-615v157h906l-740 -1282h780v-157h-1070z" />
    <glyph glyph-name="bracketleft" unicode="[" horiz-adv-x="477" 
d="M236 42h186v-156h-367v1680h367v-156h-186v-1368z" />
    <glyph glyph-name="backslash" unicode="\" horiz-adv-x="744" 
d="M796 0h-196l-652 1439h197z" />
    <glyph glyph-name="bracketright" unicode="]" horiz-adv-x="477" 
d="M241 1410h-186v156h367v-1680h-367v156h186v1368z" />
    <glyph glyph-name="asciicircum" unicode="^" horiz-adv-x="967" 
d="M562 1439l307 -533h-202l-183 317l-184 -317h-202l308 533h156z" />
    <glyph glyph-name="underscore" unicode="_" horiz-adv-x="863" 
d="M-45 54h953v-156h-953v156z" />
    <glyph glyph-name="grave" unicode="`" horiz-adv-x="651" 
d="M369 1273l208 -239h-190l-312 239h294z" />
    <glyph glyph-name="a" unicode="a" horiz-adv-x="1188" 
d="M1099 0h-181v160c-71.333 -122.667 -180 -184 -326 -184c-144.667 0 -267.167 50.167 -367.5 150.5s-150.5 218.833 -150.5 355.5c0 138 50.167 257 150.5 357s222.833 150 367.5 150c146 0 254.667 -60.667 326 -182v107h181v-914zM918 410v146
c-12.667 66 -43 123 -91 171c-67.333 68 -145.666 102 -234.999 102c-90 0 -168 -33.333 -234 -100s-99 -149 -99 -247c0 -97.333 33 -179 99 -245s144 -99 234 -99c89.333 0 167.666 33.667 234.999 101c48 48 78.333 105 91 171z" />
    <glyph glyph-name="b" unicode="b" horiz-adv-x="1197" 
d="M99 1439h181v-630c71.333 120 179.666 180 324.999 180s268 -50 368 -150s150 -219 150 -357c0 -136.667 -50 -255.167 -150 -355.5s-222.667 -150.5 -368 -150.5s-253.666 60.333 -324.999 181v-157h-181v1439zM280 559l0.000976562 -154c12 -64 43 -120.667 93 -170
c65.333 -64.667 142.666 -97 231.999 -97s167.166 33 233.499 99s99.5 147.667 99.5 245c0 98 -33.167 180.333 -99.5 247s-144.166 100 -233.499 100s-168 -34 -236 -102c-47.333 -47.333 -77 -103.333 -89 -168z" />
    <glyph glyph-name="c" unicode="c" horiz-adv-x="1074" 
d="M850 292l172.001 -63c-34 -46 -61 -79.333 -81 -100c-101.333 -102 -225 -153 -371 -153c-144.667 0 -267.167 50.167 -367.5 150.5s-150.5 219.166 -150.5 356.499s50.167 256 150.5 356s222.833 150 367.5 150c146 0 268.333 -49.333 367 -148
c22.667 -22.667 51 -57 85 -103l-172 -64c-24 30 -40.333 49.667 -49 59c-64.667 64 -141.667 96 -231 96s-167 -33.167 -233 -99.5s-99 -148.5 -99 -246.5c0 -97.333 33 -179.166 99 -245.499s143.667 -99.5 233 -99.5s167.666 33.667 234.999 101c6 6 21 23.667 45 53z
" />
    <glyph glyph-name="d" unicode="d" horiz-adv-x="1188" 
d="M1099 0h-181v160c-71.333 -122.667 -180 -184 -326 -184c-144.667 0 -267.167 50.167 -367.5 150.5s-150.5 218.833 -150.5 355.5c0 138 50.167 257 150.5 357s222.833 150 367.5 150c146 0 254.667 -60.667 326 -182v632h181v-1439zM918 410v146
c-12.667 66 -43 123 -91 171c-67.333 68 -145.666 102 -234.999 102c-90 0 -168 -33.333 -234 -100s-99 -149 -99 -247c0 -97.333 33 -179 99 -245s144 -99 234 -99c89.333 0 167.666 33.667 234.999 101c48 48 78.333 105 91 171z" />
    <glyph glyph-name="e" unicode="e" horiz-adv-x="1108" 
d="M269 643h599c-42.667 124 -142 186 -298 186c-156.667 0 -257 -62 -301 -186zM237 485v-2.99902c0 -97.333 33 -179 99 -245s144 -99 234 -99c89.333 0 167.666 33.667 234.999 101c9.33301 9.33301 27.333 30.333 54 63l170 -60
c-25.333 -42.667 -54.666 -80.334 -87.999 -113.001c-101.333 -102 -225 -153 -371 -153c-144.667 0 -267.167 50.167 -367.5 150.5s-150.5 218.833 -150.5 355.5c0 138 50.167 257 150.5 357s222.833 150 367.5 150c146 0 269.667 -50.667 371 -152
c87.333 -88 131 -205.333 131 -352h-835z" />
    <glyph glyph-name="f" unicode="f" horiz-adv-x="480" 
d="M287 758v-758h-181v758h-84v156h84v187c4.66699 71.333 32.667 133.333 84 186c58 53.333 125 80 201 80c58.667 0 112.667 -12 162 -36l-53 -150c-40.667 23.333 -74.667 35 -102 35c-24 0 -48.333 -11 -73 -33c-23.333 -24 -36 -53.667 -38 -89v-180h170v-156h-170z
" />
    <glyph glyph-name="g" unicode="g" horiz-adv-x="1149" 
d="M895 559c-13.333 64.667 -44.666 121.999 -93.999 171.999c-64.667 65.333 -141.667 98 -231 98c-90 0 -168 -33.333 -234 -100s-99 -149 -99 -247c0 -97.333 33 -179.166 99 -245.499s144 -99.5 234 -99.5c89.333 0 167.666 33.667 234.999 101
c46.667 46.667 76.667 102 90 166v155zM883 154.999c-62.667 -119.333 -167 -179 -313 -179c-144.667 0 -267.167 50.167 -367.5 150.5s-150.5 218.833 -150.5 355.5c0 138 50.167 256.833 150.5 356.5s222.833 149.5 367.5 149.5c145.333 0 254 -60.333 326 -181v107h181
v-688c0 -134 -48.333 -249 -145 -345c-101.333 -102 -224.666 -153 -369.999 -153s-267.666 49.667 -366.999 149c-22.667 23.333 -51.334 58 -86.001 104l173 63c23.333 -29.333 39.666 -48 48.999 -56c64.667 -65.333 141.667 -98 231 -98
c188.667 0 295.667 88.333 321 265z" />
    <glyph glyph-name="h" unicode="h" horiz-adv-x="936" 
d="M94 1439l180.999 -0.000976562v-525c30.667 33.333 94 50 190 50c115.333 0 208.333 -35.333 279 -106s106.667 -157 108 -259v-599h-180v591c0 62 -21 113.5 -63 154.5s-90 61.5 -144 61.5c-53.333 0 -100.333 -19.333 -141 -58
c-23.333 -23.333 -39.666 -45.666 -48.999 -66.999v-682h-181v1439z" />
    <glyph glyph-name="i" unicode="i" horiz-adv-x="415" 
d="M297 914v-914h-180v914h180zM299.5 1174.5c24.333 -23.667 36.5 -50.167 36.5 -79.5c0 -30.667 -12.167 -57.834 -36.5 -81.501s-54.833 -35.5 -91.5 -35.5c-38 0 -69 11.833 -93 35.5s-36 50.834 -36 81.501c0 29.333 12 55.833 36 79.5s55 35.5 93 35.5
c36.667 0 67.167 -11.833 91.5 -35.5z" />
    <glyph glyph-name="j" unicode="j" horiz-adv-x="379" 
d="M-11 -43c68.667 8 103 35 103 81v876h180v-874c0 -138.667 -94.333 -215.667 -283 -231v148zM274 1174.5c24 -23.667 36 -50.167 36 -79.5c0 -30.667 -12 -57.834 -36 -81.501s-54.667 -35.5 -92 -35.5s-68.166 11.833 -92.499 35.5s-36.5 50.834 -36.5 81.501
c0 29.333 12.167 55.833 36.5 79.5s55.166 35.5 92.499 35.5s68 -11.833 92 -35.5z" />
    <glyph glyph-name="k" unicode="k" horiz-adv-x="744" 
d="M650 914l-240 -298l348 -616h-207l-258 472l-13 -17v-455h-181v1269h181v-541l151 186h219z" />
    <glyph glyph-name="l" unicode="l" horiz-adv-x="401" 
d="M291 1439v-1439h-181v1439h181z" />
    <glyph glyph-name="m" unicode="m" horiz-adv-x="1214" 
d="M280 753l0.000976562 -753h-181v914h113c49.333 32.667 110.666 49 183.999 49c85.333 0 155.666 -21.333 210.999 -64c54 42.667 123.667 64 209 64s157.333 -29.333 216 -88c52.667 -54 80.334 -117.333 83.001 -190v-685h-181v724c-8 55.333 -47.333 83 -118 83
c-58.667 0 -99 -26 -121 -78v-729h-181v724h-1c-7.33301 55.333 -46.333 83 -117 83c-49.333 0 -88 -18 -116 -54z" />
    <glyph glyph-name="n" unicode="n" 
d="M280 682l-0.000976562 -682.001h-181v914h181c30.667 33.333 94 50 190 50c115.333 0 208.333 -35.333 279 -106s106.667 -157 108 -259v-599h-180v591c0 62 -21 113.5 -63 154.5s-90 61.5 -144 61.5c-53.333 0 -100.333 -19.333 -141 -58
c-23.333 -23.333 -39.666 -45.666 -48.999 -66.999z" />
    <glyph glyph-name="o" unicode="o" horiz-adv-x="1179" 
d="M590 989c146 0 268.667 -50 368 -150s149 -219 149 -357c0 -136.667 -49.667 -255.167 -149 -355.5s-222 -150.5 -368 -150.5c-144.667 0 -267.167 50.167 -367.5 150.5s-150.5 218.833 -150.5 355.5c0 138 50.167 257 150.5 357s222.833 150 367.5 150zM356 729
c-66 -66.667 -99 -149 -99 -247c0 -97.333 33 -179 99 -245s144 -99 234 -99c89.333 0 167.166 33 233.499 99s99.5 147.667 99.5 245c0 98 -33.167 180.333 -99.5 247s-144.166 100 -233.499 100c-90 0 -168 -33.333 -234 -100z" />
    <glyph glyph-name="p" unicode="p" horiz-adv-x="1176" 
d="M92 914h181v-105c71.333 119.333 179.666 179 324.999 179s268 -49.833 368 -149.5s150 -218.5 150 -356.5c0 -136.667 -50 -255.167 -150 -355.5s-222.667 -150.5 -368 -150.5s-253.666 60.333 -324.999 181v-475h-181v1232zM273 559l0.000976562 -153.999
c12 -64.667 43 -121.667 93 -171c65.333 -64.667 142.666 -97 231.999 -97s167.166 33.167 233.499 99.5s99.5 148.166 99.5 245.499c0 98 -33.167 180.333 -99.5 247s-144.166 100 -233.499 100s-168 -34 -236 -102c-47.333 -47.333 -77 -103.333 -89 -168z" />
    <glyph glyph-name="q" unicode="q" horiz-adv-x="1173" 
d="M1085 -318h-181v478c-71.333 -122.667 -180 -184 -326 -184c-144.667 0 -267.167 50.167 -367.5 150.5s-150.5 218.833 -150.5 355.5c0 138 50.167 256.833 150.5 356.5s222.833 149.5 367.5 149.5c145.333 0 254 -60.333 326 -181v107h181v-1232zM904 410v145.999
c-12.667 66 -43 123 -91 171c-67.333 68 -145.666 102 -234.999 102c-90 0 -168 -33.333 -234 -100s-99 -149 -99 -247c0 -97.333 33 -179.166 99 -245.499s144 -99.5 234 -99.5c89.333 0 167.666 33.667 234.999 101c48 48 78.333 105.333 91 172z" />
    <glyph glyph-name="r" unicode="r" horiz-adv-x="570" 
d="M518 778c-82.667 -12.667 -146.667 -45.5 -192 -98.5s-68 -119.5 -68 -199.5v-480h-181v914h181v-130c26.667 71.333 84 121 172 149z" />
    <glyph glyph-name="s" unicode="s" horiz-adv-x="727" 
d="M334 456c-68 37.333 -114.667 68.666 -140 93.999c-49.333 49.333 -74 106 -74 170c0 63.333 24 119.333 72 168s108 73 180 73s130 -22.333 174 -67c45.333 -45.333 68 -95 68 -149v-28l-162 -66c-10 75.333 -21.5 119.666 -34.5 132.999s-28.167 20 -45.5 20
s-33.666 -7.66699 -48.999 -23s-23 -35.666 -23 -60.999s8.66699 -46.666 26 -63.999c11.333 -12 37.666 -31 78.999 -57c75.333 -41.333 130.333 -79 165 -113c54.667 -56 82 -122 82 -198c0 -78 -28.333 -145.667 -85 -203s-127.667 -86 -213 -86s-156.5 28.667 -213.5 86
s-85.5 129 -85.5 215l180 45c0 -77.333 12.333 -128.333 37 -153s52 -37 82 -37s57.5 12.333 82.5 37s37.5 56.667 37.5 96c0 38 -13.333 70 -40 96c-16 15.333 -49.333 39.333 -100 72z" />
    <glyph glyph-name="t" unicode="t" horiz-adv-x="584" 
d="M202 914v355h180v-355h170v-156h-170v-758h-180v758h-170v156h170z" />
    <glyph glyph-name="u" unicode="u" 
d="M483 -12c-121.333 0 -217.168 35.332 -287.501 105.999s-106.5 157.334 -108.5 260.001v561h181v-554c0 -61.333 21.667 -113.333 65 -156c40.667 -40.667 90.334 -61 149.001 -61c53.333 0 101 20.833 143 62.5s63 93.167 63 154.5v554h181v-561
c-2 -102.667 -38.667 -190 -110 -262c-69.333 -69.333 -161.333 -104 -276 -104z" />
    <glyph glyph-name="v" unicode="v" horiz-adv-x="926" 
d="M926 914l-408 -914h-114l-404 914h199l262 -609l266 609h199z" />
    <glyph glyph-name="w" unicode="w" horiz-adv-x="1184" 
d="M1185 914l-311 -914h-127l-155 433l-154 -433h-129l-309 914h195l183 -568l154 426h122l153 -426l182 568h196z" />
    <glyph glyph-name="x" unicode="x" horiz-adv-x="800" 
d="M298 481l-269 433h204l167 -269l167 269h204l-270 -433l299 -481h-203l-197 317l-197 -317h-203z" />
    <glyph glyph-name="y" unicode="y" horiz-adv-x="896" 
d="M307 -317h-195l238 512l-335 719h195l238 -505l238 505h195z" />
    <glyph glyph-name="z" unicode="z" horiz-adv-x="850" 
d="M492 746h-402v156h693l-431 -745h436v-157h-726z" />
    <glyph glyph-name="braceleft" unicode="{" horiz-adv-x="605" 
d="M90 767c90 18 135 111.667 135 281v31c0 306.667 108.333 472 325 496v-132c-100 -26.667 -150 -153 -150 -379v-41c0 -156 -23.333 -253.667 -70 -293c46.667 -39.333 70 -137 70 -293v-40c0 -226.667 50 -353 150 -379v-133c-216.667 24.667 -325 190 -325 496v31
c0 169.333 -45 263.333 -135 282v73z" />
    <glyph glyph-name="bar" unicode="|" horiz-adv-x="581" 
d="M381 1439v-1560h-181v1560h181z" />
    <glyph glyph-name="braceright" unicode="}" horiz-adv-x="605" 
d="M515 694c-90 -18.667 -135 -112.667 -135 -282v-31c0 -306 -108.333 -471.333 -325 -496v133c100 26 150 152.333 150 379v40c0 156 23.333 253.667 70 293c-46.667 39.333 -70 137 -70 293v41c0 226 -50 352.333 -150 379v132c216.667 -24 325 -189.333 325 -496v-31
c0 -169.333 45 -263 135 -281v-73z" />
    <glyph glyph-name="asciitilde" unicode="~" horiz-adv-x="1129" 
d="M594 804c97.333 -57.333 164.666 -86 201.999 -86c2 0 3.33301 0.333008 4 1c27.333 8 47.333 27.333 60 58c6.66699 18 10 52.667 10 104l184 -29c-4 -52.667 -12 -94.667 -24 -126c-31.333 -75.333 -85.666 -125.666 -162.999 -150.999
c-20.667 -6.66699 -42.667 -10 -66 -10c-70.667 0 -159.667 30.667 -267 92c-98 56 -165.333 84 -202 84h-7c-25.333 -8 -44 -27.333 -56 -58c-8 -18.667 -12 -53.334 -12 -104.001l-182 30c2.66699 52 10 93.667 22 125c31.333 74.667 86 125 164 151
c20 6.66699 42 10 66 10c70.667 0 159.667 -30.333 267 -91z" />
    <glyph glyph-name="exclamdown" unicode="&#xa1;" horiz-adv-x="367" 
d="M85 1254.5c-24 23.667 -36 50.5 -36 80.5s12 56.833 36 80.5s54.667 35.5 92 35.5s68.166 -11.833 92.499 -35.5s36.5 -50.5 36.5 -80.5s-12.167 -56.833 -36.5 -80.5s-55.166 -35.5 -92.499 -35.5s-68 11.833 -92 35.5zM88 0v1105h181v-1105h-181z" />
    <glyph glyph-name="cent" unicode="&#xa2;" horiz-adv-x="1166" 
d="M483 642v484.001c-1.33301 -2.66699 -18 -19.667 -50 -51c-51.333 -52 -77 -115.667 -77 -191c0 -74.667 25.667 -137.667 77 -189c32 -32.667 48.667 -50.334 50 -53.001zM663 622.001c29.333 0.666992 69.667 26.3301 121 76.9971l40 49l166 -61
c-34 -45.333 -59.333 -76.666 -76 -93.999c-83.333 -83.333 -167 -125.666 -251 -126.999v-131h-180v144c-59.333 11.333 -121 49.333 -185 114c-81.333 80.667 -122 177.667 -122 291s42.333 212 127 296c60.667 62 120.667 98.333 180 109v145h180v-132
c84 0 167.667 -42 251 -126c16.667 -16.667 42 -47.667 76 -93l-166 -62c-24 30 -39 48.333 -45 55c-47.333 46.667 -86 70.334 -116 71.001v-525z" />
    <glyph glyph-name="sterling" unicode="&#xa3;" horiz-adv-x="966" 
d="M351 157l544.999 -0.000976562v-157h-794v128c112 110 168 209 168 297c0 28 -0.333008 43.333 -1 46h-199v157h165c-6 20 -22 55 -48 105c-64.667 106 -101.667 218.667 -111 338c0 86.667 29 165 87 235c74.667 80.667 168 123.334 280 128.001c8 0.666992 17 1 27 1
c100.667 0 192 -34 274 -102l-71 -160c-73.333 70.667 -139.666 106 -198.999 106h-14c-64 -2.66699 -113.333 -25 -148 -67c-34.667 -41.333 -52 -87.333 -52 -138c6 -77.333 27.333 -154 64 -230c50 -80 82.667 -152 98 -216h176v-157h-148v-39
c0 -105.333 -33 -197 -99 -275z" />
    <glyph glyph-name="currency" unicode="&#xa4;" horiz-adv-x="1168" 
d="M373 1055c44 36 114.333 54 211 54s166.667 -18 210 -54l122 122l120 -120l-120 -120c43.333 -52 65 -123 65 -213c0 -89.333 -21.667 -160.333 -65 -213l120 -120l-120 -119l-121 122c-44 -36.667 -114.333 -55 -211 -55s-167 18.333 -211 55l-121 -122l-120 119
l120 120c-43.333 52.667 -65 123.667 -65 213c0 90 21.667 161 65 213l-120 120l120 120zM709 910c-36.667 28.667 -78.332 42.999 -124.999 42.999c-47.333 0 -89 -14.333 -125 -43c-8.66699 -6 -17.667 -13.667 -27 -23c-5.33301 -5.33301 -11.333 -12.666 -18 -21.999
c-30.667 -40 -46 -87 -46 -141s15.333 -100.667 46 -140c6 -8.66699 13.333 -17 22 -25c8 -8 16 -15.333 24 -22c35.333 -27.333 76.666 -41 123.999 -41c46.667 0 88 14 124 42c8.66699 6 18.334 14.333 29.001 25c4.66699 4.66699 10 11.334 16 20.001
c31.333 40 47 87 47 141s-15.667 101.333 -47 142c-6.66699 9.33301 -13.334 17.666 -20.001 24.999c-6.66699 6.66699 -14.667 13 -24 19z" />
    <glyph glyph-name="yen" unicode="&#xa5;" horiz-adv-x="1187" 
d="M503 565h-300v156h220l-414 718h201l383 -668l385 668h200l-415 -718h222v-156h-301v-72h301v-157h-301v-336h-181v336h-300v157h300v72z" />
    <glyph glyph-name="brokenbar" unicode="&#xa6;" horiz-adv-x="581" 
d="M381 1439v-716h-181v716h181zM381 590v-716h-181v716h181z" />
    <glyph glyph-name="section" unicode="&#xa7;" horiz-adv-x="1140" 
d="M840 317c6.66699 0.666992 10 42.3311 10 124.998c0 80.667 -28.333 149.334 -85 206.001c-51.333 51.333 -113.666 92 -186.999 122c-104 35.333 -185 82.333 -243 141l-31 15c-8.66699 0 -13 -40.333 -13 -121c0 -81.333 27 -149 81 -203
c53.333 -54 116.666 -96 189.999 -126c104 -35.333 187 -83.666 249 -144.999zM236 1108c-0.666992 3.33301 -1 15.001 -1 35.001c0 87.333 32.667 161.833 98 223.5s146 92.5 242 92.5c94 0 175 -29.333 243 -88c36 -35.333 64.333 -84.333 85 -147l-162 -66
c-20 55.333 -39.333 92.333 -58 111c-30.667 30 -66.667 45 -108 45c-42 0 -79 -16 -111 -48s-48 -73 -48 -123s16.667 -91.667 50 -125c34 -34 81 -65 141 -93c115.333 -37.333 213 -96 293 -176c85.333 -85.333 128 -187.666 128 -306.999
c0 -120.667 -30 -211.334 -90 -272.001c-20.667 -20.667 -32 -31.334 -34 -32.001c0.666992 -3.33301 1 -15 1 -35c0 -86.667 -32.5 -161 -97.5 -223s-145.5 -93 -241.5 -93c-94.667 0 -175.667 29.667 -243 89c-36.667 34.667 -64.667 84 -84 148l160 63
c20 -54 39.333 -90.667 58 -110c30.667 -30 67 -45 109 -45s79 16 111 48s48 73 48 123s-17 91.667 -51 125c-34 34.667 -81 65.667 -141 93c-114.667 37.333 -212 96.333 -292 177c-86 85.333 -129 187.666 -129 306.999c0 120.667 29 209.334 87 266.001
c22.667 24 35 36.333 37 37z" />
    <glyph glyph-name="dieresis" unicode="&#xa8;" horiz-adv-x="691" 
d="M295.5 1235.5c24.333 -23.667 36.5 -50.167 36.5 -79.5c0 -30.667 -12.167 -57.834 -36.5 -81.501s-54.833 -35.5 -91.5 -35.5c-38 0 -69 11.833 -93 35.5s-36 50.834 -36 81.501c0 29.333 12 55.833 36 79.5s55 35.5 93 35.5c36.667 0 67.167 -11.833 91.5 -35.5z
M580 1235.5c24 -23.667 36 -50.167 36 -79.5c0 -30.667 -12 -57.834 -36 -81.501s-54.667 -35.5 -92 -35.5s-68.166 11.833 -92.499 35.5s-36.5 50.834 -36.5 81.501c0 29.333 12.167 55.833 36.5 79.5s55.166 35.5 92.499 35.5s68 -11.833 92 -35.5z" />
    <glyph glyph-name="copyright" unicode="&#xa9;" horiz-adv-x="1276" 
d="M815 488l161 -62c-34.667 -46 -58 -75.333 -70 -88c-67.333 -68 -149 -102 -245 -102s-176.667 32.833 -242 98.5s-98 142.5 -98 230.5s32.667 164.5 98 229.5s146 97.5 242 97.5s177.667 -33.333 245 -100c12.667 -14 36 -44 70 -90l-160 -59l-45 51
c-31.333 30.667 -68 46 -110 46c-43.333 0 -81.5 -16.5 -114.5 -49.5s-49.5 -74.833 -49.5 -125.5s16.667 -92.667 50 -126s71.333 -50 114 -50c42 0 80.333 17 115 51c1.33301 2 14.333 18 39 48zM1056 970c113.333 -114 170.002 -249.333 170.002 -406
s-56.833 -291.834 -170.5 -405.501s-252.834 -170.5 -417.501 -170.5s-303.834 56.833 -417.501 170.5s-170.5 248.834 -170.5 405.501s56.833 292 170.5 406s252.834 171 417.501 171c165.333 0 304.666 -57 417.999 -171zM638.002 988
c-110.667 0 -206.834 -40.833 -288.501 -122.5s-122.5 -182.167 -122.5 -301.5s40.833 -219.666 122.5 -300.999s177.834 -122 288.501 -122c111.333 0 207.666 40.667 288.999 122s122 181.666 122 300.999s-40.667 219.833 -122 301.5s-177.666 122.5 -288.999 122.5z" />
    <glyph glyph-name="ordfeminine" unicode="&#xaa;" horiz-adv-x="639" 
d="M605 905h-162v71c-8 -55.333 -51.667 -83 -131 -83s-145.666 26.833 -198.999 80.5s-80 115.834 -80 186.501c0 71.333 26.667 133.666 80 186.999s119.666 80 198.999 80s123 -27.667 131 -83v46h162v-485zM423 1130v59.999c-4.66699 24 -16 45.333 -34 64
c-22.667 22 -48.334 33 -77.001 33c-29.333 0 -55.833 -11.833 -79.5 -35.5s-35.5 -54.167 -35.5 -91.5s11.667 -67.666 35 -90.999s50 -35 80 -35c28.667 0 54.334 11 77.001 33c18 18.667 29.333 39.667 34 63z" />
    <glyph glyph-name="guillemotleft" unicode="&#xab;" horiz-adv-x="903" 
d="M347 449l501 531v-244l-267 -287l267 -287v-245zM55 449l496 532v-245l-268 -287l268 -287v-246z" />
    <glyph glyph-name="logicalnot" unicode="&#xac;" horiz-adv-x="1142" 
d="M1011 281h-181v326h-691v156h872v-482z" />
    <glyph glyph-name="registered" unicode="&#xae;" horiz-adv-x="1236" 
d="M611 1003v-105h14c46.667 0 71 20 73 60c0 30 -21 45 -63 45h-24zM611 671l-0.000976562 -108.003h-188v586h195c166.667 -1.33301 254.667 -66.333 264 -195c0 -96.667 -44.667 -155.334 -134 -176.001c48 -81.333 95.333 -122 142 -122
c5.33301 0 10.666 0.666992 15.999 2c51.333 10.667 85.333 80.334 102 209.001c0 112 -38.5 206.833 -115.5 284.5s-168.5 116.5 -274.5 116.5c-105.333 0 -196.666 -38.833 -273.999 -116.5s-116 -173.167 -116 -286.5c0 -53.333 8.66699 -103 26 -149
c19.333 -51.333 49.333 -97.333 90 -138c73.333 -73.333 190 -112 350 -116h25c12 0 24.667 1 38 3c0.666992 0.666992 59.667 -32.666 177 -99.999l-12 -6c-8.66699 -4 -17.667 -7.66699 -27 -11c-17.333 -6.66699 -34.333 -12.667 -51 -18
c-8.66699 -2.66699 -17.334 -5 -26.001 -7c-19.333 -5.33301 -38.666 -9 -57.999 -11h-3c-17.333 -2.66699 -35 -4 -53 -4h-16c-208.667 2.66699 -366.334 57.667 -473.001 165c-69.333 68.667 -116.666 146 -141.999 232c-15.333 50.667 -23 104 -23 160
c0 152 55 281.167 165 387.5s244.333 159.5 403 159.5s293 -53.167 403 -159.5s165 -236.166 165 -389.499c-21.333 -209.333 -110 -323.666 -266 -342.999c-15.333 -2 -30.666 -3 -45.999 -3c-108 0 -195.667 51.333 -263 154z" />
    <glyph glyph-name="macron" unicode="&#xaf;" horiz-adv-x="754" 
d="M75 1092h604v-157h-604v157z" />
    <glyph glyph-name="degree" unicode="&#xb0;" horiz-adv-x="474" 
d="M375.5 1329c36.333 -36.667 54.5 -78.667 54.5 -126c0 -48 -18.167 -90.167 -54.5 -126.5s-82.5 -54.5 -138.5 -54.5s-102.167 18.167 -138.5 54.5s-54.5 78.5 -54.5 126.5c0 47.333 18.167 89.333 54.5 126s82.5 55 138.5 55s102.167 -18.333 138.5 -55zM237 1276
c-22 0 -40.333 -7.5 -55 -22.5s-22 -31.833 -22 -50.5s7.33301 -35.334 22 -50.001s33 -22 55 -22c22.667 0 41.167 7.33301 55.5 22s21.5 31.334 21.5 50.001s-7.16699 35.5 -21.5 50.5s-32.833 22.5 -55.5 22.5z" />
    <glyph glyph-name="plusminus" unicode="&#xb1;" horiz-adv-x="1138" 
d="M479 221v388h-394v156h394v395h180v-395h394v-156h-394v-388h-180zM85 0v157h968v-157h-968z" />
    <glyph glyph-name="uni00B2" unicode="&#xb2;" horiz-adv-x="879" 
d="M133 566c282 330 423 535 423 615c-2 63.333 -29.667 95.333 -83 96c-36 -2 -66.667 -27 -92 -75l-169 70c64 97.333 150.667 148.333 260 153c182.667 -4 274 -84 274 -240c0 -109.333 -91.333 -267 -274 -473h274v-146h-613z" />
    <glyph glyph-name="uni00B3" unicode="&#xb3;" horiz-adv-x="836" 
d="M384 993l-98.999 -0.00390625v144c67.333 0.666992 106.333 3 117 7s23.667 13.333 39 28s23 32.334 23 53.001s-6 36.334 -18 47.001s-24.667 16 -38 16s-25 -4.33301 -35 -13c-8 -7.33301 -22.333 -35 -43 -83l-165 60c18.667 55.333 41 94.666 67 117.999
c48 43.333 106.667 65 176 65c70 0 128 -21.333 174 -64s69 -91.334 69 -146.001c0 -81.333 -22.667 -124.666 -68 -129.999l65 -65c56 -55.333 84 -118.666 84 -189.999c0 -73.333 -29.833 -137.666 -89.5 -192.999s-133.834 -83 -222.501 -83s-163.667 28.667 -225 86
c-46.667 42.667 -76.667 104.334 -90 185.001l181 62c10 -80.667 26.333 -131.667 49 -153c24 -20.667 52.333 -31 85 -31s61.667 11.5 87 34.5s38 53.833 38 92.5c0 38 -13.5 70.5 -40.5 97.5s-67.167 45.5 -120.5 55.5z" />
    <glyph glyph-name="acute" unicode="&#xb4;" horiz-adv-x="652" 
d="M577 1273l-313 -239h-189l208 239h294z" />
    <glyph glyph-name="mu" unicode="&#xb5;" horiz-adv-x="893" 
d="M636 77c-16.667 -56.667 -82.3311 -84.999 -196.998 -84.999c-107.333 0 -167.333 6.33301 -180 19v-329h-181v1232h181v-654c7.33301 -16.667 20.333 -34.334 39 -53.001c40 -38.667 87 -58 141 -58c53.333 0 100.666 20 141.999 60
c27.333 27.333 45.666 57.333 54.999 90v615h179v-914h-179v77z" />
    <glyph glyph-name="paragraph" unicode="&#xb6;" horiz-adv-x="1236" 
d="M829 1284l-0.000976562 -1535h-180v723h-77c-139.333 0 -256.666 47.833 -351.999 143.5s-143 209.167 -143 340.5s48.333 245.333 145 342c78 78 176.667 125 296 141h21v1h620v-156h-74v-1535h-181v1535h-75z" />
    <glyph glyph-name="periodcentered" unicode="&#xb7;" horiz-adv-x="344" 
d="M256 792c22 -21.333 33 -45.333 33 -72c0 -27.333 -11 -51.666 -33 -72.999s-50 -32 -84 -32s-62 10.667 -84 32s-33 45.666 -33 72.999c0 26.667 11 50.667 33 72s50 32 84 32s62 -10.667 84 -32z" />
    <glyph glyph-name="periodcentered" unicode="&#x2219;" horiz-adv-x="344" 
d="M256 792c22 -21.333 33 -45.333 33 -72c0 -27.333 -11 -51.666 -33 -72.999s-50 -32 -84 -32s-62 10.667 -84 32s-33 45.666 -33 72.999c0 26.667 11 50.667 33 72s50 32 84 32s62 -10.667 84 -32z" />
    <glyph glyph-name="cedilla" unicode="&#xb8;" horiz-adv-x="494" 
d="M170 -127l30.999 172h109l-27 -70c38.667 -2.66699 70.334 -29.667 95.001 -81c10.667 -22.667 16 -44.667 16 -66c0 -20 -4.66699 -39 -14 -57c-21.333 -42.667 -61 -68.667 -119 -78c-18 -2.66699 -35.333 -4 -52 -4c-30.667 0 -57.667 5 -81 15
c-8.66699 4 -18 8.66699 -28 14l55 84c10 -5.33301 21.667 -8 35 -8c16.667 0 31 4 43 12s18 17.667 18 29c0 10.667 -6 20 -18 28s-26.333 12 -43 12c-7.33301 0 -14 -0.666992 -20 -2z" />
    <glyph glyph-name="uni00B9" unicode="&#xb9;" horiz-adv-x="836" 
d="M327 692v463l-16 -10l-137 91l338 226v-770h177v-145h-542v145h180z" />
    <glyph glyph-name="ordmasculine" unicode="&#xba;" horiz-adv-x="649" 
d="M312 1287c-29.333 0 -55.833 -11.833 -79.5 -35.5s-35.5 -54.167 -35.5 -91.5s11.667 -67.666 35 -90.999s50 -35 80 -35h25c29.333 0 55.833 11.667 79.5 35s35.5 53.666 35.5 90.999s-11.833 67.833 -35.5 91.5s-50.167 35.5 -79.5 35.5h-25zM312 893
c-79.333 0 -145.666 26.833 -198.999 80.5s-80 115.834 -80 186.501c0 71.333 26.667 133.666 80 186.999s119.666 80 198.999 80h25c78.667 0 144.667 -26.667 198 -80s80 -115.666 80 -186.999c0 -70.667 -26.667 -132.834 -80 -186.501s-119.333 -80.5 -198 -80.5h-25z
" />
    <glyph glyph-name="guillemotright" unicode="&#xbb;" horiz-adv-x="903" 
d="M55 -83v245l266 287l-266 287v244l502 -531zM353 -84v246l267 287l-267 287v245l495 -532z" />
    <glyph glyph-name="onequarter" unicode="&#xbc;" horiz-adv-x="1998" 
d="M327 692v463l-16 -10l-137 91l338 226v-770h177v-145h-542v145h180zM1684 1439l-1032 -1439h-216l1030 1439h218zM1807 1054v-716h78v-145h-78v-193h-185v193h-376zM1622 457l-77 -119h77v119z" />
    <glyph glyph-name="onehalf" unicode="&#xbd;" horiz-adv-x="2012" 
d="M327 692v463l-16 -10l-137 91l338 226v-770h177v-145h-542v145h180zM1684 1439l-1032 -1439h-216l1030 1439h218zM1266 0c282 330 423 535 423 615c-2 63.333 -29.667 95.333 -83 96c-36 -2 -66.667 -27 -92 -75l-169 70c64 97.333 150.667 148.333 260 153
c182.667 -4 274 -84 274 -240c0 -109.333 -91.333 -267 -274 -473h274v-146h-613z" />
    <glyph glyph-name="threequarters" unicode="&#xbe;" horiz-adv-x="1998" 
d="M384 993l-98.999 -0.00390625v144c67.333 0.666992 106.333 3 117 7s23.667 13.333 39 28s23 32.334 23 53.001s-6 36.334 -18 47.001s-24.667 16 -38 16s-25 -4.33301 -35 -13c-8 -7.33301 -22.333 -35 -43 -83l-165 60c18.667 55.333 41 94.666 67 117.999
c48 43.333 106.667 65 176 65c70 0 128 -21.333 174 -64s69 -91.334 69 -146.001c0 -81.333 -22.667 -124.666 -68 -129.999l65 -65c56 -55.333 84 -118.666 84 -189.999c0 -73.333 -29.833 -137.666 -89.5 -192.999s-133.834 -83 -222.501 -83s-163.667 28.667 -225 86
c-46.667 42.667 -76.667 104.334 -90 185.001l181 62c10 -80.667 26.333 -131.667 49 -153c24 -20.667 52.333 -31 85 -31s61.667 11.5 87 34.5s38 53.833 38 92.5c0 38 -13.5 70.5 -40.5 97.5s-67.167 45.5 -120.5 55.5zM1684 1439l-1032 -1439h-216l1030 1439h218z
M1807 1054v-716h78v-145h-78v-193h-185v193h-376zM1622 456.996l-77 -119h77v119z" />
    <glyph glyph-name="questiondown" unicode="&#xbf;" horiz-adv-x="832" 
d="M405 1238.5c-24 -23.667 -54.667 -35.5 -92 -35.5s-68.166 11.833 -92.499 35.5s-36.5 50.5 -36.5 80.5s12.167 56.833 36.5 80.5s55.166 35.5 92.499 35.5s68 -11.833 92 -35.5s36 -50.5 36 -80.5s-12 -56.833 -36 -80.5zM229 347c2 -48 6 -79.998 12 -95.998
c16 -44 44.333 -75.667 85 -95c20.667 -9.33301 41.334 -14 62.001 -14c16.667 0 34 3 52 9c41.333 15.333 72 41.666 92 78.999c12.667 23.333 19 49 19 77c0 18.667 -2.66699 38.334 -8 59.001c-15.333 54.667 -77.333 149.334 -186 284.001
c-100 123.333 -150 251.666 -150 384.999c0 9.33301 1 31.333 3 66h181c-4 -40.667 -6 -66.667 -6 -78c0 -94.667 42.333 -194.334 127 -299.001c103.333 -128.667 168.666 -227.334 195.999 -296.001c16 -40 24 -79.667 24 -119c0 -38 -7.66699 -78 -23 -120
c-30.667 -80 -89.667 -138.333 -177 -175c-44.667 -17.333 -90 -26 -136 -26c-45.333 0 -90.333 8.66699 -135 26c-89.333 35.333 -153 99.333 -191 192c-10.667 26 -16.667 73 -18 141h177z" />
    <glyph glyph-name="Agrave" unicode="&#xc0;" horiz-adv-x="1208" 
d="M743 754l-138 382l-139 -382h277zM684 1439l521 -1439h-188l-217 598h-391l-221 -598h-189l528 1439h157zM562 1798l208 -239h-190l-312 239h294z" />
    <glyph glyph-name="Aacute" unicode="&#xc1;" horiz-adv-x="1208" 
d="M743 754l-138 382l-139 -382h277zM684 1439l521 -1439h-188l-217 598h-391l-221 -598h-189l528 1439h157zM937 1798l-313 -239h-189l208 239h294z" />
    <glyph glyph-name="Acircumflex" unicode="&#xc2;" horiz-adv-x="1208" 
d="M743 754l-138 382l-139 -382h277zM684 1439l521 -1439h-188l-217 598h-391l-221 -598h-189l528 1439h157zM946 1560h-231l-117 87l-110 -87h-230l338 278z" />
    <glyph glyph-name="Atilde" unicode="&#xc3;" horiz-adv-x="1208" 
d="M743 754l-138 382l-139 -382h277zM684 1439l521 -1439h-188l-217 598h-391l-221 -598h-189l528 1439h157zM534 1631c-1.33301 -14.667 -2.00098 -40.332 -2.00098 -76.999l-167 36c1.33301 47.333 5 80 11 98c15.333 46.667 44 78.667 86 96c14.667 6.66699 31 10 49 10
c39.333 0 84.333 -18.333 135 -55l23 -16c0.666992 14.667 1 39.667 1 75l169 -33c-2.66699 -48 -7 -81 -13 -99c-14.667 -46.667 -43.667 -79.334 -87 -98.001c-16 -5.33301 -31.667 -8 -47 -8c-39.333 0 -84.666 18.333 -135.999 55c-8.66699 6.66699 -16 12 -22 16z" />
    <glyph glyph-name="Adieresis" unicode="&#xc4;" horiz-adv-x="1208" 
d="M743 754l-138 382l-139 -382h277zM684 1439l521 -1439h-188l-217 598h-391l-221 -598h-189l528 1439h157zM552.5 1760.5c24.333 -23.667 36.5 -50.167 36.5 -79.5c0 -30.667 -12.167 -57.834 -36.5 -81.501s-54.833 -35.5 -91.5 -35.5c-38 0 -69 11.833 -93 35.5
s-36 50.834 -36 81.501c0 29.333 12 55.833 36 79.5s55 35.5 93 35.5c36.667 0 67.167 -11.833 91.5 -35.5zM837 1760.5c24 -23.667 36 -50.167 36 -79.5c0 -30.667 -12 -57.834 -36 -81.501s-54.667 -35.5 -92 -35.5s-68.166 11.833 -92.499 35.5
s-36.5 50.834 -36.5 81.501c0 29.333 12.167 55.833 36.5 79.5s55.166 35.5 92.499 35.5s68 -11.833 92 -35.5z" />
    <glyph glyph-name="Aring" unicode="&#xc5;" horiz-adv-x="1208" 
d="M743 754l-138 382l-139 -382h277zM602 1549c-14 0 -25.5 -4.5 -34.5 -13.5s-13.5 -19.5 -13.5 -31.5c0 -11.333 4.5 -21.5 13.5 -30.5s20.5 -13.5 34.5 -13.5s25.5 4.5 34.5 13.5s13.5 19.167 13.5 30.5c0 12 -4.5 22.5 -13.5 31.5s-20.5 13.5 -34.5 13.5zM703 1388
l502 -1388h-188l-217 598h-391l-221 -598h-189l508 1384c-7.33301 5.33301 -14 11 -20 17c-30 30 -45 64.333 -45 103s15 73.167 45 103.5s68.333 45.5 115 45.5s85.167 -15.167 115.5 -45.5s45.5 -64.833 45.5 -103.5s-15 -73 -45 -103z" />
    <glyph glyph-name="AE" unicode="&#xc6;" horiz-adv-x="1514" 
d="M1402 798v-157h-602v-484h602v-157h-782v521h-199l-231 -521h-191l625 1439h778v-157h-602v-484h602zM620 677v317l-136 -317h136z" />
    <glyph glyph-name="Ccedilla" unicode="&#xc7;" horiz-adv-x="1419" 
d="M661 -1c-141.333 28.667 -264.667 96 -370 202c-144.667 144 -217 317 -217 519c0 200 72.167 372.667 216.5 518s321.166 218 530.499 218c194.667 0 373 -74 535 -222l-126 -112c-132 116.667 -268.333 175 -409 175c-153.333 0 -285.833 -55.833 -397.5 -167.5
s-167.5 -248.167 -167.5 -409.5c0 -162.667 55.833 -299.667 167.5 -411s244.167 -167 397.5 -167c140.667 0 277 58.333 409 175l126 -112c-162 -147.333 -340.333 -221 -535 -221c-22 0 -44 0.666992 -66 2l-4 -11c38.667 -2.66699 70.334 -29.667 95.001 -81
c10.667 -22.667 16 -44.667 16 -66c0 -20 -4.66699 -39 -14 -57c-21.333 -42.667 -61 -68.667 -119 -78c-18 -2.66699 -35.333 -4 -52 -4c-30.667 0 -57.667 5 -81 15c-8.66699 4 -18 8.66699 -28 14l55 84c10 -5.33301 21.667 -8 35 -8c16.667 0 31 4 43 12
s18 17.667 18 29c0 10.667 -6 20 -18 28s-26.333 12 -43 12c-7.33301 0 -14 -0.666992 -20 -2z" />
    <glyph glyph-name="Egrave" unicode="&#xc8;" horiz-adv-x="1007" 
d="M895 1439v-157h-602v-484h602v-157h-602v-484h602v-157h-783v1439h783zM463 1798l208 -239h-190l-312 239h294z" />
    <glyph glyph-name="Eacute" unicode="&#xc9;" horiz-adv-x="1007" 
d="M895 1439v-157h-602v-484h602v-157h-602v-484h602v-157h-783v1439h783zM838 1798l-313 -239h-189l208 239h294z" />
    <glyph glyph-name="Ecircumflex" unicode="&#xca;" horiz-adv-x="1007" 
d="M895 1439v-157h-602v-484h602v-157h-602v-484h602v-157h-783v1439h783zM847 1560h-231l-117 87l-110 -87h-230l338 278z" />
    <glyph glyph-name="Edieresis" unicode="&#xcb;" horiz-adv-x="1007" 
d="M895 1439v-157h-602v-484h602v-157h-602v-484h602v-157h-783v1439h783zM453.5 1760.5c24.333 -23.667 36.5 -50.167 36.5 -79.5c0 -30.667 -12.167 -57.834 -36.5 -81.501s-54.833 -35.5 -91.5 -35.5c-38 0 -69 11.833 -93 35.5s-36 50.834 -36 81.501
c0 29.333 12 55.833 36 79.5s55 35.5 93 35.5c36.667 0 67.167 -11.833 91.5 -35.5zM738 1760.5c24 -23.667 36 -50.167 36 -79.5c0 -30.667 -12 -57.834 -36 -81.501s-54.667 -35.5 -92 -35.5s-68.166 11.833 -92.499 35.5s-36.5 50.834 -36.5 81.501
c0 29.333 12.167 55.833 36.5 79.5s55.166 35.5 92.499 35.5s68 -11.833 92 -35.5z" />
    <glyph glyph-name="Igrave" unicode="&#xcc;" horiz-adv-x="425" 
d="M303 1439v-1439h-181v1439h181zM172 1798l208 -239h-190l-312 239h294z" />
    <glyph glyph-name="Iacute" unicode="&#xcd;" horiz-adv-x="425" 
d="M303 1439v-1439h-181v1439h181zM547 1798l-313 -239h-189l208 239h294z" />
    <glyph glyph-name="Icircumflex" unicode="&#xce;" horiz-adv-x="425" 
d="M303 1439v-1439h-181v1439h181zM556 1560h-231l-117 87l-110 -87h-230l338 278z" />
    <glyph glyph-name="Idieresis" unicode="&#xcf;" horiz-adv-x="425" 
d="M303 1439v-1439h-181v1439h181zM162.5 1760.5c24.333 -23.667 36.5 -50.167 36.5 -79.5c0 -30.667 -12.167 -57.834 -36.5 -81.501s-54.833 -35.5 -91.5 -35.5c-38 0 -69 11.833 -93 35.5s-36 50.834 -36 81.501c0 29.333 12 55.833 36 79.5s55 35.5 93 35.5
c36.667 0 67.167 -11.833 91.5 -35.5zM447 1760.5c24 -23.667 36 -50.167 36 -79.5c0 -30.667 -12 -57.834 -36 -81.501s-54.667 -35.5 -92 -35.5s-68.166 11.833 -92.499 35.5s-36.5 50.834 -36.5 81.501c0 29.333 12.167 55.833 36.5 79.5s55.166 35.5 92.499 35.5
s68 -11.833 92 -35.5z" />
    <glyph glyph-name="Eth" unicode="&#xd0;" horiz-adv-x="1298" 
d="M324 641v-482.001h121c179.333 0 319.666 49.333 420.999 148c113.333 112.667 170 250.334 170 413.001c0 161.333 -56.667 299 -170 413c-101.333 97.333 -241.666 146 -420.999 146h-121v-481h472v-157h-472zM143 797.999v641h304c240 -1.33301 426.667 -69 560 -203
c142.667 -144 214 -316 214 -516c0 -202 -72.667 -376 -218 -522c-130.667 -130.667 -316 -196.667 -556 -198h-304v641h-123v157h123z" />
    <glyph glyph-name="Ntilde" unicode="&#xd1;" horiz-adv-x="1398" 
d="M288 1439l820 -1150v1150h181v-1439h-200l-799 1121v-1121h-181v1439h179zM631 1631c-1.33301 -14.667 -2.00098 -40.332 -2.00098 -76.999l-167 36c1.33301 47.333 5 80 11 98c15.333 46.667 44 78.667 86 96c14.667 6.66699 31 10 49 10
c39.333 0 84.333 -18.333 135 -55l23 -16c0.666992 14.667 1 39.667 1 75l169 -33c-2.66699 -48 -7 -81 -13 -99c-14.667 -46.667 -43.667 -79.334 -87 -98.001c-16 -5.33301 -31.667 -8 -47 -8c-39.333 0 -84.666 18.333 -135.999 55c-8.66699 6.66699 -16 12 -22 16z" />
    <glyph glyph-name="Ograve" unicode="&#xd2;" horiz-adv-x="1621" 
d="M1341.5 1241c145 -145.333 217.5 -318.333 217.5 -519c0 -202 -72.5 -375.5 -217.5 -520.5s-322.167 -217.5 -531.5 -217.5c-208.667 0 -385.5 72.5 -530.5 217.5s-217.5 318.5 -217.5 520.5c0 200.667 72.5 373.667 217.5 519s321.833 218 530.5 218
c209.333 0 386.5 -72.667 531.5 -218zM810 1301c-153.333 0 -286 -56.167 -398 -168.5s-168 -249.166 -168 -410.499c0 -162.667 56 -300 168 -412s244.667 -168 398 -168c154 0 287 56 399 168s168 249.333 168 412c0 161.333 -56 298.166 -168 410.499
s-245 168.5 -399 168.5zM770 1798l208 -239h-190l-312 239h294z" />
    <glyph glyph-name="Oacute" unicode="&#xd3;" horiz-adv-x="1621" 
d="M1341.5 1241c145 -145.333 217.5 -318.333 217.5 -519c0 -202 -72.5 -375.5 -217.5 -520.5s-322.167 -217.5 -531.5 -217.5c-208.667 0 -385.5 72.5 -530.5 217.5s-217.5 318.5 -217.5 520.5c0 200.667 72.5 373.667 217.5 519s321.833 218 530.5 218
c209.333 0 386.5 -72.667 531.5 -218zM810 1301c-153.333 0 -286 -56.167 -398 -168.5s-168 -249.166 -168 -410.499c0 -162.667 56 -300 168 -412s244.667 -168 398 -168c154 0 287 56 399 168s168 249.333 168 412c0 161.333 -56 298.166 -168 410.499
s-245 168.5 -399 168.5zM1145 1798l-313 -239h-189l208 239h294z" />
    <glyph glyph-name="Ocircumflex" unicode="&#xd4;" horiz-adv-x="1621" 
d="M1341.5 1241c145 -145.333 217.5 -318.333 217.5 -519c0 -202 -72.5 -375.5 -217.5 -520.5s-322.167 -217.5 -531.5 -217.5c-208.667 0 -385.5 72.5 -530.5 217.5s-217.5 318.5 -217.5 520.5c0 200.667 72.5 373.667 217.5 519s321.833 218 530.5 218
c209.333 0 386.5 -72.667 531.5 -218zM810 1301c-153.333 0 -286 -56.167 -398 -168.5s-168 -249.166 -168 -410.499c0 -162.667 56 -300 168 -412s244.667 -168 398 -168c154 0 287 56 399 168s168 249.333 168 412c0 161.333 -56 298.166 -168 410.499
s-245 168.5 -399 168.5zM1154 1560h-231l-117 87l-110 -87h-230l338 278z" />
    <glyph glyph-name="Otilde" unicode="&#xd5;" horiz-adv-x="1621" 
d="M1341.5 1241c145 -145.333 217.5 -318.333 217.5 -519c0 -202 -72.5 -375.5 -217.5 -520.5s-322.167 -217.5 -531.5 -217.5c-208.667 0 -385.5 72.5 -530.5 217.5s-217.5 318.5 -217.5 520.5c0 200.667 72.5 373.667 217.5 519s321.833 218 530.5 218
c209.333 0 386.5 -72.667 531.5 -218zM810 1301c-153.333 0 -286 -56.167 -398 -168.5s-168 -249.166 -168 -410.499c0 -162.667 56 -300 168 -412s244.667 -168 398 -168c154 0 287 56 399 168s168 249.333 168 412c0 161.333 -56 298.166 -168 410.499
s-245 168.5 -399 168.5zM742 1631c-1.33301 -14.667 -2.00098 -40.332 -2.00098 -76.999l-167 36c1.33301 47.333 5 80 11 98c15.333 46.667 44 78.667 86 96c14.667 6.66699 31 10 49 10c39.333 0 84.333 -18.333 135 -55l23 -16c0.666992 14.667 1 39.667 1 75l169 -33
c-2.66699 -48 -7 -81 -13 -99c-14.667 -46.667 -43.667 -79.334 -87 -98.001c-16 -5.33301 -31.667 -8 -47 -8c-39.333 0 -84.666 18.333 -135.999 55c-8.66699 6.66699 -16 12 -22 16z" />
    <glyph glyph-name="Odieresis" unicode="&#xd6;" horiz-adv-x="1621" 
d="M1341.5 1241c145 -145.333 217.5 -318.333 217.5 -519c0 -202 -72.5 -375.5 -217.5 -520.5s-322.167 -217.5 -531.5 -217.5c-208.667 0 -385.5 72.5 -530.5 217.5s-217.5 318.5 -217.5 520.5c0 200.667 72.5 373.667 217.5 519s321.833 218 530.5 218
c209.333 0 386.5 -72.667 531.5 -218zM810 1301c-153.333 0 -286 -56.167 -398 -168.5s-168 -249.166 -168 -410.499c0 -162.667 56 -300 168 -412s244.667 -168 398 -168c154 0 287 56 399 168s168 249.333 168 412c0 161.333 -56 298.166 -168 410.499
s-245 168.5 -399 168.5zM760.5 1760.5c24.333 -23.667 36.5 -50.167 36.5 -79.5c0 -30.667 -12.167 -57.834 -36.5 -81.501s-54.833 -35.5 -91.5 -35.5c-38 0 -69 11.833 -93 35.5s-36 50.834 -36 81.501c0 29.333 12 55.833 36 79.5s55 35.5 93 35.5
c36.667 0 67.167 -11.833 91.5 -35.5zM1045 1760.5c24 -23.667 36 -50.167 36 -79.5c0 -30.667 -12 -57.834 -36 -81.501s-54.667 -35.5 -92 -35.5s-68.166 11.833 -92.499 35.5s-36.5 50.834 -36.5 81.501c0 29.333 12.167 55.833 36.5 79.5s55.166 35.5 92.499 35.5
s68 -11.833 92 -35.5z" />
    <glyph glyph-name="multiply" unicode="&#xd7;" horiz-adv-x="1172" 
d="M585 567l-277 -277l-120 118l279 279l-279 279l120 118l277 -277l279 277l120 -118l-279 -279l279 -279l-120 -118z" />
    <glyph glyph-name="Oslash" unicode="&#xd8;" horiz-adv-x="1693" 
d="M1009 1280c-34.667 14 -88.999 20.999 -162.999 20.999c-153.333 0 -286 -56.167 -398 -168.5s-168 -249.166 -168 -410.499c0 -162.667 55.333 -299.667 166 -411c43.333 -42.667 69.666 -67 78.999 -73zM683.001 161.999c35.333 -13.333 89.667 -20 163 -20
c154 0 287 56 399 168s168 249.333 168 412c0 161.333 -56.667 299.333 -170 414c-40.667 40 -65.667 62.667 -75 68zM1237 1353c40.667 -22 88.334 -60 143.001 -114c143.333 -144 215 -316.333 215 -517c0 -202 -72.5 -375.5 -217.5 -520.5s-322.167 -217.5 -531.5 -217.5
c-101.333 0 -178.333 10.667 -231 32l-74 -160l-159 76l74 158c-41.333 22 -89 60 -143 114c-143.333 143.333 -215 316 -215 518c0 200.667 72.5 373.667 217.5 519s321.833 218 530.5 218c101.333 0 178.666 -10.667 231.999 -32l74 158l159 -73z" />
    <glyph glyph-name="Ugrave" unicode="&#xd9;" horiz-adv-x="1214" 
d="M921 1439h180.998v-1018c-15.333 -112.667 -63.666 -209.667 -144.999 -291c-94 -94.667 -210.333 -142 -349 -142c-140 0 -257.667 47.833 -353 143.5s-143 209.167 -143 340.5v967h181v-967c0 -92 31.333 -169.5 94 -232.5s136.334 -94.5 221.001 -94.5
c84 0 157.167 31.5 219.5 94.5s93.5 140.5 93.5 232.5v967zM566.998 1798l208 -239h-190l-312 239h294z" />
    <glyph glyph-name="Uacute" unicode="&#xda;" horiz-adv-x="1214" 
d="M921 1439h180.998v-1018c-15.333 -112.667 -63.666 -209.667 -144.999 -291c-94 -94.667 -210.333 -142 -349 -142c-140 0 -257.667 47.833 -353 143.5s-143 209.167 -143 340.5v967h181v-967c0 -92 31.333 -169.5 94 -232.5s136.334 -94.5 221.001 -94.5
c84 0 157.167 31.5 219.5 94.5s93.5 140.5 93.5 232.5v967zM941.998 1798l-313 -239h-189l208 239h294z" />
    <glyph glyph-name="Ucircumflex" unicode="&#xdb;" horiz-adv-x="1214" 
d="M921 1439h180.998v-1018c-15.333 -112.667 -63.666 -209.667 -144.999 -291c-94 -94.667 -210.333 -142 -349 -142c-140 0 -257.667 47.833 -353 143.5s-143 209.167 -143 340.5v967h181v-967c0 -92 31.333 -169.5 94 -232.5s136.334 -94.5 221.001 -94.5
c84 0 157.167 31.5 219.5 94.5s93.5 140.5 93.5 232.5v967zM950.998 1560h-231l-117 87l-110 -87h-230l338 278z" />
    <glyph glyph-name="Udieresis" unicode="&#xdc;" horiz-adv-x="1214" 
d="M921 1439h180.998v-1018c-15.333 -112.667 -63.666 -209.667 -144.999 -291c-94 -94.667 -210.333 -142 -349 -142c-140 0 -257.667 47.833 -353 143.5s-143 209.167 -143 340.5v967h181v-967c0 -92 31.333 -169.5 94 -232.5s136.334 -94.5 221.001 -94.5
c84 0 157.167 31.5 219.5 94.5s93.5 140.5 93.5 232.5v967zM557.498 1760.5c24.333 -23.667 36.5 -50.167 36.5 -79.5c0 -30.667 -12.167 -57.834 -36.5 -81.501s-54.833 -35.5 -91.5 -35.5c-38 0 -69 11.833 -93 35.5s-36 50.834 -36 81.501c0 29.333 12 55.833 36 79.5
s55 35.5 93 35.5c36.667 0 67.167 -11.833 91.5 -35.5zM841.998 1760.5c24 -23.667 36 -50.167 36 -79.5c0 -30.667 -12 -57.834 -36 -81.501s-54.667 -35.5 -92 -35.5s-68.166 11.833 -92.499 35.5s-36.5 50.834 -36.5 81.501c0 29.333 12.167 55.833 36.5 79.5
s55.166 35.5 92.499 35.5s68 -11.833 92 -35.5z" />
    <glyph glyph-name="Yacute" unicode="&#xdd;" horiz-adv-x="1233" 
d="M526 582l-494 857h200l385 -666l384 666h200l-494 -857v-582h-181v582zM951 1798l-313 -239h-189l208 239h294z" />
    <glyph glyph-name="Thorn" unicode="&#xde;" horiz-adv-x="1019" 
d="M279 1204l230.999 0.000976562c120 -16.667 219 -64 297 -142c96.667 -96.667 145 -210.334 145 -341.001c0 -132 -47.667 -245.833 -143 -341.5s-212.666 -143.5 -351.999 -143.5h-178v-236h-181v1439h181v-235zM278.999 393.001h178c84 0 157.333 31.5 220 94.5
s94 140.833 94 233.5c0 92 -31.333 169.333 -94 232s-136 94 -220 94h-178v-654z" />
    <glyph glyph-name="germandbls" unicode="&#xdf;" horiz-adv-x="1061" 
d="M531 1216c-53.333 0 -92.165 -11.5 -116.498 -34.5s-37.5 -52.167 -39.5 -87.5v-1094h-181v758h-84v156h84v187c4.66699 72 34.167 134.333 88.5 187s136.5 79 246.5 79c193.333 -10.667 290.333 -99.667 291 -267c0 -82 -38.333 -153.667 -115 -215
c-60 -47.333 -90 -88 -90 -122c2 -29.333 59 -70.666 171 -123.999c143.333 -69.333 215 -170.666 215 -303.999c0 -110.667 -33 -195.334 -99 -254.001c-68 -62 -144 -93 -228 -93c-111.333 0 -204.333 38 -279 114l121 118c50 -50.667 102.667 -76 158 -76
c31.333 0 63.666 14.333 96.999 43c34 28.667 51 77.667 51 147c-5.33301 83.333 -60 147.666 -164 192.999c-144.667 63.333 -218.334 140 -221.001 230c0 84.667 40.333 156.667 121 216c54.667 39.333 82 83 82 131c-0.666992 66 -37 103.333 -109 112z" />
    <glyph glyph-name="agrave" unicode="&#xe0;" horiz-adv-x="1188" 
d="M1099 0h-181v160c-71.333 -122.667 -180 -184 -326 -184c-144.667 0 -267.167 50.167 -367.5 150.5s-150.5 218.833 -150.5 355.5c0 138 50.167 257 150.5 357s222.833 150 367.5 150c146 0 254.667 -60.667 326 -182v107h181v-914zM918 410v146
c-12.667 66 -43 123 -91 171c-67.333 68 -145.666 102 -234.999 102c-90 0 -168 -33.333 -234 -100s-99 -149 -99 -247c0 -97.333 33 -179 99 -245s144 -99 234 -99c89.333 0 167.666 33.667 234.999 101c48 48 78.333 105 91 171zM546 1273l208 -239h-190l-312 239h294z
" />
    <glyph glyph-name="aacute" unicode="&#xe1;" horiz-adv-x="1188" 
d="M1099 0h-181v160c-71.333 -122.667 -180 -184 -326 -184c-144.667 0 -267.167 50.167 -367.5 150.5s-150.5 218.833 -150.5 355.5c0 138 50.167 257 150.5 357s222.833 150 367.5 150c146 0 254.667 -60.667 326 -182v107h181v-914zM918 410v146
c-12.667 66 -43 123 -91 171c-67.333 68 -145.666 102 -234.999 102c-90 0 -168 -33.333 -234 -100s-99 -149 -99 -247c0 -97.333 33 -179 99 -245s144 -99 234 -99c89.333 0 167.666 33.667 234.999 101c48 48 78.333 105 91 171zM921 1273l-313 -239h-189l208 239h294z
" />
    <glyph glyph-name="acircumflex" unicode="&#xe2;" horiz-adv-x="1188" 
d="M1099 0h-181v160c-71.333 -122.667 -180 -184 -326 -184c-144.667 0 -267.167 50.167 -367.5 150.5s-150.5 218.833 -150.5 355.5c0 138 50.167 257 150.5 357s222.833 150 367.5 150c146 0 254.667 -60.667 326 -182v107h181v-914zM918 410v146
c-12.667 66 -43 123 -91 171c-67.333 68 -145.666 102 -234.999 102c-90 0 -168 -33.333 -234 -100s-99 -149 -99 -247c0 -97.333 33 -179 99 -245s144 -99 234 -99c89.333 0 167.666 33.667 234.999 101c48 48 78.333 105 91 171zM930 1035h-231l-117 87l-110 -87h-230
l338 278z" />
    <glyph glyph-name="atilde" unicode="&#xe3;" horiz-adv-x="1188" 
d="M1099 0h-181v160c-71.333 -122.667 -180 -184 -326 -184c-144.667 0 -267.167 50.167 -367.5 150.5s-150.5 218.833 -150.5 355.5c0 138 50.167 257 150.5 357s222.833 150 367.5 150c146 0 254.667 -60.667 326 -182v107h181v-914zM918 410v146
c-12.667 66 -43 123 -91 171c-67.333 68 -145.666 102 -234.999 102c-90 0 -168 -33.333 -234 -100s-99 -149 -99 -247c0 -97.333 33 -179 99 -245s144 -99 234 -99c89.333 0 167.666 33.667 234.999 101c48 48 78.333 105 91 171zM518 1106
c-1.33301 -14.667 -2.00098 -40.332 -2.00098 -76.999l-167 36c1.33301 47.333 5 80 11 98c15.333 46.667 44 78.667 86 96c14.667 6.66699 31 10 49 10c39.333 0 84.333 -18.333 135 -55l23 -16c0.666992 14.667 1 39.667 1 75l169 -33c-2.66699 -48 -7 -81 -13 -99
c-14.667 -46.667 -43.667 -79.334 -87 -98.001c-16 -5.33301 -31.667 -8 -47 -8c-39.333 0 -84.666 18.333 -135.999 55c-8.66699 6.66699 -16 12 -22 16z" />
    <glyph glyph-name="adieresis" unicode="&#xe4;" horiz-adv-x="1188" 
d="M1099 0h-181v160c-71.333 -122.667 -180 -184 -326 -184c-144.667 0 -267.167 50.167 -367.5 150.5s-150.5 218.833 -150.5 355.5c0 138 50.167 257 150.5 357s222.833 150 367.5 150c146 0 254.667 -60.667 326 -182v107h181v-914zM918 410v146
c-12.667 66 -43 123 -91 171c-67.333 68 -145.666 102 -234.999 102c-90 0 -168 -33.333 -234 -100s-99 -149 -99 -247c0 -97.333 33 -179 99 -245s144 -99 234 -99c89.333 0 167.666 33.667 234.999 101c48 48 78.333 105 91 171zM536.5 1235.5
c24.333 -23.667 36.5 -50.167 36.5 -79.5c0 -30.667 -12.167 -57.834 -36.5 -81.501s-54.833 -35.5 -91.5 -35.5c-38 0 -69 11.833 -93 35.5s-36 50.834 -36 81.501c0 29.333 12 55.833 36 79.5s55 35.5 93 35.5c36.667 0 67.167 -11.833 91.5 -35.5zM821 1235.5
c24 -23.667 36 -50.167 36 -79.5c0 -30.667 -12 -57.834 -36 -81.501s-54.667 -35.5 -92 -35.5s-68.166 11.833 -92.499 35.5s-36.5 50.834 -36.5 81.501c0 29.333 12.167 55.833 36.5 79.5s55.166 35.5 92.499 35.5s68 -11.833 92 -35.5z" />
    <glyph glyph-name="aring" unicode="&#xe5;" horiz-adv-x="1188" 
d="M918 410v146c-12.667 66 -43 123 -91 171c-67.333 68 -145.666 102 -234.999 102c-90 0 -168 -33.333 -234 -100s-99 -149 -99 -247c0 -97.333 33 -179 99 -245s144 -99 234 -99c89.333 0 167.666 33.667 234.999 101c48 48 78.333 105 91 171zM586 1124
c-14 0 -25.5 -4.5 -34.5 -13.5s-13.5 -19.5 -13.5 -31.5c0 -11.333 4.5 -21.5 13.5 -30.5s20.5 -13.5 34.5 -13.5s25.5 4.5 34.5 13.5s13.5 19.167 13.5 30.5c0 12 -4.5 22.5 -13.5 31.5s-20.5 13.5 -34.5 13.5zM918 807v106.999h181v-914h-181v160
c-71.333 -122.667 -180 -184 -326 -184c-144.667 0 -267.167 50.167 -367.5 150.5s-150.5 218.833 -150.5 355.5c0 138 50.333 257 151 357c70.667 70.667 152.667 116.334 246 137.001c-30 30 -45 64.333 -45 103s15 73.167 45 103.5s68.333 45.5 115 45.5
c47.333 0 86 -15.167 116 -45.5s45 -64.833 45 -103.5s-15 -73 -45 -103c92 -24 164 -80.333 216 -169z" />
    <glyph glyph-name="ae" unicode="&#xe6;" horiz-adv-x="1908" 
d="M883 653c-16 28 -34.667 52.667 -56 74c-67.333 68 -145.666 102 -234.999 102c-90 0 -168 -33.333 -234 -100s-99 -149 -99 -247c0 -97.333 33 -179 99 -245s144 -99 234 -99c89.333 0 167.666 33.667 234.999 101c21.333 21.333 40 46 56 74c17.333 30.667 29 63 35 97
v146c-6 34 -17.667 66.333 -35 97zM1658 643c-6.66699 20.667 -29.334 50.001 -68.001 88.001c-64 65.333 -140.667 98 -230 98c-90 0 -168.667 -34 -236 -102c-11.333 -10.667 -19.666 -20.334 -24.999 -29.001v-55h559zM1099 267.001
c5.33301 -8 14.998 -18.665 28.998 -31.998c64.667 -64.667 142 -97 232 -97c89.333 0 166.333 32.333 231 97c12 12 30.667 34.667 56 68l171 -61c-25.333 -42.667 -54.666 -80.334 -87.999 -113.001c-101.333 -102 -224.666 -153 -369.999 -153
c-137.333 0 -224.333 17.333 -261 52v-28h-181v160c-71.333 -122.667 -180 -184 -326 -184c-144.667 0 -267.167 50.167 -367.5 150.5s-150.5 218.833 -150.5 355.5c0 138 50.167 257 150.5 357s222.833 150 367.5 150c146 0 254.667 -60.667 326 -182v107h181
c36.667 50 123.667 75 261 75c145.333 0 267.333 -49.333 366 -148c90 -90.667 137.333 -209.334 142 -356.001l-769 1v-219z" />
    <glyph glyph-name="ccedilla" unicode="&#xe7;" horiz-adv-x="1074" 
d="M480 -17c-106 16.667 -198.332 64.666 -276.999 143.999c-100.667 100 -151 218.667 -151 356s50.167 256 150.5 356s222.833 150 367.5 150c146 0 268.333 -49.333 367 -148c22.667 -22.667 51 -57 85 -103l-172 -64c-24 30 -40.333 49.667 -49 59
c-64.667 64 -141.667 96 -231 96s-167 -33.167 -233 -99.5s-99 -148.5 -99 -246.5c0 -97.333 33 -179.166 99 -245.499s143.667 -99.5 233 -99.5s167.666 33.667 234.999 101c6 6 21 23.667 45 53l172 -63c-34 -46 -61 -79.333 -81 -100
c-100.667 -101.333 -223.334 -152.333 -368.001 -153v-1c38.667 -2.66699 70.334 -29.667 95.001 -81c10.667 -22.667 16 -44.667 16 -66c0 -20 -4.66699 -39 -14 -57c-21.333 -42.667 -61 -68.667 -119 -78c-18 -2.66699 -35.333 -4 -52 -4c-30.667 0 -57.667 5 -81 15
c-8.66699 4 -18 8.66699 -28 14l55 84c10 -5.33301 21.667 -8 35 -8c16.667 0 31 4 43 12s18 17.667 18 29c0 10.667 -6 20 -18 28s-26.333 12 -43 12c-7.33301 0 -14 -0.666992 -20 -2z" />
    <glyph glyph-name="egrave" unicode="&#xe8;" horiz-adv-x="1108" 
d="M269 643h599c-42.667 124 -142 186 -298 186c-156.667 0 -257 -62 -301 -186zM237 485v-2.99902c0 -97.333 33 -179 99 -245s144 -99 234 -99c89.333 0 167.666 33.667 234.999 101c9.33301 9.33301 27.333 30.333 54 63l170 -60
c-25.333 -42.667 -54.666 -80.334 -87.999 -113.001c-101.333 -102 -225 -153 -371 -153c-144.667 0 -267.167 50.167 -367.5 150.5s-150.5 218.833 -150.5 355.5c0 138 50.167 257 150.5 357s222.833 150 367.5 150c146 0 269.667 -50.667 371 -152
c87.333 -88 131 -205.333 131 -352h-835zM522 1273l208 -239h-190l-312 239h294z" />
    <glyph glyph-name="eacute" unicode="&#xe9;" horiz-adv-x="1108" 
d="M269 643h599c-42.667 124 -142 186 -298 186c-156.667 0 -257 -62 -301 -186zM237 485v-2.99902c0 -97.333 33 -179 99 -245s144 -99 234 -99c89.333 0 167.666 33.667 234.999 101c9.33301 9.33301 27.333 30.333 54 63l170 -60
c-25.333 -42.667 -54.666 -80.334 -87.999 -113.001c-101.333 -102 -225 -153 -371 -153c-144.667 0 -267.167 50.167 -367.5 150.5s-150.5 218.833 -150.5 355.5c0 138 50.167 257 150.5 357s222.833 150 367.5 150c146 0 269.667 -50.667 371 -152
c87.333 -88 131 -205.333 131 -352h-835zM897 1273l-313 -239h-189l208 239h294z" />
    <glyph glyph-name="ecircumflex" unicode="&#xea;" horiz-adv-x="1108" 
d="M269 643h599c-42.667 124 -142 186 -298 186c-156.667 0 -257 -62 -301 -186zM237 485v-2.99902c0 -97.333 33 -179 99 -245s144 -99 234 -99c89.333 0 167.666 33.667 234.999 101c9.33301 9.33301 27.333 30.333 54 63l170 -60
c-25.333 -42.667 -54.666 -80.334 -87.999 -113.001c-101.333 -102 -225 -153 -371 -153c-144.667 0 -267.167 50.167 -367.5 150.5s-150.5 218.833 -150.5 355.5c0 138 50.167 257 150.5 357s222.833 150 367.5 150c146 0 269.667 -50.667 371 -152
c87.333 -88 131 -205.333 131 -352h-835zM906 1035h-231l-117 87l-110 -87h-230l338 278z" />
    <glyph glyph-name="edieresis" unicode="&#xeb;" horiz-adv-x="1108" 
d="M269 643h599c-42.667 124 -142 186 -298 186c-156.667 0 -257 -62 -301 -186zM237 485v-2.99902c0 -97.333 33 -179 99 -245s144 -99 234 -99c89.333 0 167.666 33.667 234.999 101c9.33301 9.33301 27.333 30.333 54 63l170 -60
c-25.333 -42.667 -54.666 -80.334 -87.999 -113.001c-101.333 -102 -225 -153 -371 -153c-144.667 0 -267.167 50.167 -367.5 150.5s-150.5 218.833 -150.5 355.5c0 138 50.167 257 150.5 357s222.833 150 367.5 150c146 0 269.667 -50.667 371 -152
c87.333 -88 131 -205.333 131 -352h-835zM511.5 1235.5c24.333 -23.667 36.5 -50.167 36.5 -79.5c0 -30.667 -12.167 -57.834 -36.5 -81.501s-54.833 -35.5 -91.5 -35.5c-38 0 -69 11.833 -93 35.5s-36 50.834 -36 81.501c0 29.333 12 55.833 36 79.5s55 35.5 93 35.5
c36.667 0 67.167 -11.833 91.5 -35.5zM796 1235.5c24 -23.667 36 -50.167 36 -79.5c0 -30.667 -12 -57.834 -36 -81.501s-54.667 -35.5 -92 -35.5s-68.166 11.833 -92.499 35.5s-36.5 50.834 -36.5 81.501c0 29.333 12.167 55.833 36.5 79.5s55.166 35.5 92.499 35.5
s68 -11.833 92 -35.5z" />
    <glyph glyph-name="igrave" unicode="&#xec;" horiz-adv-x="418" 
d="M299 914v-914h-180v914h180zM168 1273l208 -239h-190l-312 239h294z" />
    <glyph glyph-name="iacute" unicode="&#xed;" horiz-adv-x="418" 
d="M299 914v-914h-180v914h180zM544 1273l-313 -239h-189l208 239h294z" />
    <glyph glyph-name="icircumflex" unicode="&#xee;" horiz-adv-x="418" 
d="M299 914v-914h-180v914h180zM553 1035h-231l-117 87l-110 -87h-230l338 278z" />
    <glyph glyph-name="idieresis" unicode="&#xef;" horiz-adv-x="418" 
d="M299 914v-914h-180v914h180zM158.5 1235.5c24.333 -23.667 36.5 -50.167 36.5 -79.5c0 -30.667 -12.167 -57.834 -36.5 -81.501s-54.833 -35.5 -91.5 -35.5c-38 0 -69 11.833 -93 35.5s-36 50.834 -36 81.501c0 29.333 12 55.833 36 79.5s55 35.5 93 35.5
c36.667 0 67.167 -11.833 91.5 -35.5zM443 1235.5c24 -23.667 36 -50.167 36 -79.5c0 -30.667 -12 -57.834 -36 -81.501s-54.667 -35.5 -92 -35.5s-68.166 11.833 -92.499 35.5s-36.5 50.834 -36.5 81.501c0 29.333 12.167 55.833 36.5 79.5s55.166 35.5 92.499 35.5
s68 -11.833 92 -35.5z" />
    <glyph glyph-name="eth" unicode="&#xf0;" horiz-adv-x="1179" 
d="M257 482c0 -97.333 33 -179 99 -245s144 -99 234 -99c89.333 0 167.166 33 233.499 99s99.5 147.667 99.5 245c0 98 -33.167 180.333 -99.5 247s-144.166 100 -233.499 100c-90 0 -168 -33.333 -234 -100s-99 -149 -99 -247zM613 1168l348 -331
c97.333 -98.667 146 -217 146 -355c0 -136.667 -49.667 -255.167 -149 -355.5s-222 -150.5 -368 -150.5c-144.667 0 -267.167 50.167 -367.5 150.5s-150.5 218.833 -150.5 355.5c0 138 50.167 257 150.5 357s211.5 152.333 333.5 157l-60 55l-48 -48l-191 49l117 117
l-230 228h238l110 -110l61 61l177 -63z" />
    <glyph glyph-name="ntilde" unicode="&#xf1;" 
d="M280 682l-0.000976562 -682.001h-181v914h181c30.667 33.333 94 50 190 50c115.333 0 208.333 -35.333 279 -106s106.667 -157 108 -259v-599h-180v591c0 62 -21 113.5 -63 154.5s-90 61.5 -144 61.5c-53.333 0 -100.333 -19.333 -141 -58
c-23.333 -23.333 -39.666 -45.666 -48.999 -66.999zM409.999 1106c-1.33301 -14.667 -2.00098 -40.332 -2.00098 -76.999l-167 36c1.33301 47.333 5 80 11 98c15.333 46.667 44 78.667 86 96c14.667 6.66699 31 10 49 10c39.333 0 84.333 -18.333 135 -55l23 -16
c0.666992 14.667 1 39.667 1 75l169 -33c-2.66699 -48 -7 -81 -13 -99c-14.667 -46.667 -43.667 -79.334 -87 -98.001c-16 -5.33301 -31.667 -8 -47 -8c-39.333 0 -84.666 18.333 -135.999 55c-8.66699 6.66699 -16 12 -22 16z" />
    <glyph glyph-name="ograve" unicode="&#xf2;" horiz-adv-x="1179" 
d="M590 989c146 0 268.667 -50 368 -150s149 -219 149 -357c0 -136.667 -49.667 -255.167 -149 -355.5s-222 -150.5 -368 -150.5c-144.667 0 -267.167 50.167 -367.5 150.5s-150.5 218.833 -150.5 355.5c0 138 50.167 257 150.5 357s222.833 150 367.5 150zM356 729
c-66 -66.667 -99 -149 -99 -247c0 -97.333 33 -179 99 -245s144 -99 234 -99c89.333 0 167.166 33 233.499 99s99.5 147.667 99.5 245c0 98 -33.167 180.333 -99.5 247s-144.166 100 -233.499 100c-90 0 -168 -33.333 -234 -100zM549 1273l208 -239h-190l-312 239h294z" />
    <glyph glyph-name="oacute" unicode="&#xf3;" horiz-adv-x="1179" 
d="M590 989c146 0 268.667 -50 368 -150s149 -219 149 -357c0 -136.667 -49.667 -255.167 -149 -355.5s-222 -150.5 -368 -150.5c-144.667 0 -267.167 50.167 -367.5 150.5s-150.5 218.833 -150.5 355.5c0 138 50.167 257 150.5 357s222.833 150 367.5 150zM356 729
c-66 -66.667 -99 -149 -99 -247c0 -97.333 33 -179 99 -245s144 -99 234 -99c89.333 0 167.166 33 233.499 99s99.5 147.667 99.5 245c0 98 -33.167 180.333 -99.5 247s-144.166 100 -233.499 100c-90 0 -168 -33.333 -234 -100zM924 1273l-313 -239h-189l208 239h294z" />
    <glyph glyph-name="ocircumflex" unicode="&#xf4;" horiz-adv-x="1179" 
d="M590 989c146 0 268.667 -50 368 -150s149 -219 149 -357c0 -136.667 -49.667 -255.167 -149 -355.5s-222 -150.5 -368 -150.5c-144.667 0 -267.167 50.167 -367.5 150.5s-150.5 218.833 -150.5 355.5c0 138 50.167 257 150.5 357s222.833 150 367.5 150zM356 729
c-66 -66.667 -99 -149 -99 -247c0 -97.333 33 -179 99 -245s144 -99 234 -99c89.333 0 167.166 33 233.499 99s99.5 147.667 99.5 245c0 98 -33.167 180.333 -99.5 247s-144.166 100 -233.499 100c-90 0 -168 -33.333 -234 -100zM933 1035h-231l-117 87l-110 -87h-230
l338 278z" />
    <glyph glyph-name="otilde" unicode="&#xf5;" horiz-adv-x="1179" 
d="M590 989c146 0 268.667 -50 368 -150s149 -219 149 -357c0 -136.667 -49.667 -255.167 -149 -355.5s-222 -150.5 -368 -150.5c-144.667 0 -267.167 50.167 -367.5 150.5s-150.5 218.833 -150.5 355.5c0 138 50.167 257 150.5 357s222.833 150 367.5 150zM356 729
c-66 -66.667 -99 -149 -99 -247c0 -97.333 33 -179 99 -245s144 -99 234 -99c89.333 0 167.166 33 233.499 99s99.5 147.667 99.5 245c0 98 -33.167 180.333 -99.5 247s-144.166 100 -233.499 100c-90 0 -168 -33.333 -234 -100zM522 1106
c-1.33301 -14.667 -2.00098 -40.332 -2.00098 -76.999l-167 36c1.33301 47.333 5 80 11 98c15.333 46.667 44 78.667 86 96c14.667 6.66699 31 10 49 10c39.333 0 84.333 -18.333 135 -55l23 -16c0.666992 14.667 1 39.667 1 75l169 -33c-2.66699 -48 -7 -81 -13 -99
c-14.667 -46.667 -43.667 -79.334 -87 -98.001c-16 -5.33301 -31.667 -8 -47 -8c-39.333 0 -84.666 18.333 -135.999 55c-8.66699 6.66699 -16 12 -22 16z" />
    <glyph glyph-name="odieresis" unicode="&#xf6;" horiz-adv-x="1179" 
d="M590 989c146 0 268.667 -50 368 -150s149 -219 149 -357c0 -136.667 -49.667 -255.167 -149 -355.5s-222 -150.5 -368 -150.5c-144.667 0 -267.167 50.167 -367.5 150.5s-150.5 218.833 -150.5 355.5c0 138 50.167 257 150.5 357s222.833 150 367.5 150zM356 729
c-66 -66.667 -99 -149 -99 -247c0 -97.333 33 -179 99 -245s144 -99 234 -99c89.333 0 167.166 33 233.499 99s99.5 147.667 99.5 245c0 98 -33.167 180.333 -99.5 247s-144.166 100 -233.499 100c-90 0 -168 -33.333 -234 -100zM539.5 1235.5
c24.333 -23.667 36.5 -50.167 36.5 -79.5c0 -30.667 -12.167 -57.834 -36.5 -81.501s-54.833 -35.5 -91.5 -35.5c-38 0 -69 11.833 -93 35.5s-36 50.834 -36 81.501c0 29.333 12 55.833 36 79.5s55 35.5 93 35.5c36.667 0 67.167 -11.833 91.5 -35.5zM824 1235.5
c24 -23.667 36 -50.167 36 -79.5c0 -30.667 -12 -57.834 -36 -81.501s-54.667 -35.5 -92 -35.5s-68.166 11.833 -92.499 35.5s-36.5 50.834 -36.5 81.501c0 29.333 12.167 55.833 36.5 79.5s55.166 35.5 92.499 35.5s68 -11.833 92 -35.5z" />
    <glyph glyph-name="divide" unicode="&#xf7;" horiz-adv-x="1138" 
d="M85 609v156h968v-156h-968zM661.5 471.5c24.333 -23.667 36.5 -50.5 36.5 -80.5s-12.167 -56.833 -36.5 -80.5s-54.833 -35.5 -91.5 -35.5c-37.333 0 -68.166 11.833 -92.499 35.5s-36.5 50.5 -36.5 80.5s12.167 56.833 36.5 80.5s55.166 35.5 92.499 35.5
c36.667 0 67.167 -11.833 91.5 -35.5zM661.5 1064.5c24.333 -23.667 36.5 -50.5 36.5 -80.5s-12.167 -56.833 -36.5 -80.5s-54.833 -35.5 -91.5 -35.5c-37.333 0 -68.166 11.833 -92.499 35.5s-36.5 50.5 -36.5 80.5s12.167 56.833 36.5 80.5s55.166 35.5 92.499 35.5
c36.667 0 67.167 -11.833 91.5 -35.5z" />
    <glyph glyph-name="oslash" unicode="&#xf8;" horiz-adv-x="1145" 
d="M666 819c-13.333 6.66699 -44.333 9.99902 -93 9.99902c-90 0 -168 -33.167 -234 -99.5s-99 -148.5 -99 -246.5c0 -97.333 32.333 -178.666 97 -243.999zM816 729.999l-336.999 -582c14 -6 45.333 -9 94 -9c89.333 0 167.166 33 233.499 99s99.5 147.667 99.5 245
c0 98 -30 180.333 -90 247zM246.001 89.999c-6.66699 4.66699 -21.333 17.667 -44 39c-98 99.333 -147 217.333 -147 354c0 138 50.167 257 150.5 357s222.833 150 367.5 150c82 0 141.333 -8.66699 178 -26l104 183l154 -82l-108 -187c6 -4.66699 20.333 -18 43 -40
c97.333 -98.667 146 -217 146 -355c0 -136.667 -49.667 -255.167 -149 -355.5s-222 -150.5 -368 -150.5c-82.667 0 -141.667 8.66699 -177 26l-104 -180l-156 73z" />
    <glyph glyph-name="ugrave" unicode="&#xf9;" 
d="M483 -12c-121.333 0 -217.168 35.332 -287.501 105.999s-106.5 157.334 -108.5 260.001v561h181v-554c0 -61.333 21.667 -113.333 65 -156c40.667 -40.667 90.334 -61 149.001 -61c53.333 0 101 20.833 143 62.5s63 93.167 63 154.5v554h181v-561
c-2 -102.667 -38.667 -190 -110 -262c-69.333 -69.333 -161.333 -104 -276 -104zM436.998 1273l208 -239h-190l-312 239h294z" />
    <glyph glyph-name="uacute" unicode="&#xfa;" 
d="M483 -12c-121.333 0 -217.168 35.332 -287.501 105.999s-106.5 157.334 -108.5 260.001v561h181v-554c0 -61.333 21.667 -113.333 65 -156c40.667 -40.667 90.334 -61 149.001 -61c53.333 0 101 20.833 143 62.5s63 93.167 63 154.5v554h181v-561
c-2 -102.667 -38.667 -190 -110 -262c-69.333 -69.333 -161.333 -104 -276 -104zM811.998 1273l-313 -239h-189l208 239h294z" />
    <glyph glyph-name="ucircumflex" unicode="&#xfb;" 
d="M483 -12c-121.333 0 -217.168 35.332 -287.501 105.999s-106.5 157.334 -108.5 260.001v561h181v-554c0 -61.333 21.667 -113.333 65 -156c40.667 -40.667 90.334 -61 149.001 -61c53.333 0 101 20.833 143 62.5s63 93.167 63 154.5v554h181v-561
c-2 -102.667 -38.667 -190 -110 -262c-69.333 -69.333 -161.333 -104 -276 -104zM821.998 1035h-231l-117 87l-110 -87h-230l338 278z" />
    <glyph glyph-name="udieresis" unicode="&#xfc;" 
d="M483 -12c-121.333 0 -217.168 35.332 -287.501 105.999s-106.5 157.334 -108.5 260.001v561h181v-554c0 -61.333 21.667 -113.333 65 -156c40.667 -40.667 90.334 -61 149.001 -61c53.333 0 101 20.833 143 62.5s63 93.167 63 154.5v554h181v-561
c-2 -102.667 -38.667 -190 -110 -262c-69.333 -69.333 -161.333 -104 -276 -104zM427.498 1235.5c24.333 -23.667 36.5 -50.167 36.5 -79.5c0 -30.667 -12.167 -57.834 -36.5 -81.501s-54.833 -35.5 -91.5 -35.5c-38 0 -69 11.833 -93 35.5s-36 50.834 -36 81.501
c0 29.333 12 55.833 36 79.5s55 35.5 93 35.5c36.667 0 67.167 -11.833 91.5 -35.5zM711.998 1235.5c24 -23.667 36 -50.167 36 -79.5c0 -30.667 -12 -57.834 -36 -81.501s-54.667 -35.5 -92 -35.5s-68.166 11.833 -92.499 35.5s-36.5 50.834 -36.5 81.501
c0 29.333 12.167 55.833 36.5 79.5s55.166 35.5 92.499 35.5s68 -11.833 92 -35.5z" />
    <glyph glyph-name="yacute" unicode="&#xfd;" horiz-adv-x="896" 
d="M307 -317h-195l238 512l-335 719h195l238 -505l238 505h195zM783 1273l-313 -239h-189l208 239h294z" />
    <glyph glyph-name="thorn" unicode="&#xfe;" horiz-adv-x="1270" 
d="M308 574l-0.000976562 -183.999c14 -58 44.333 -110 91 -156c64 -64.667 140.667 -97 230 -97c90 0 168 33.167 234 99.5s99 148.166 99 245.499c0 98 -33.167 180.333 -99.5 247s-144.166 100 -233.499 100s-166 -32.667 -230 -98c-46.667 -46 -77 -98.333 -91 -157z
M307.999 850.001c69.333 92 176.333 138 321 138c146 0 268.833 -49.833 368.5 -149.5s149.5 -218.5 149.5 -356.5c0 -136.667 -49.833 -255.167 -149.5 -355.5s-222.5 -150.5 -368.5 -150.5c-144.667 0 -251.667 43 -321 129v-409h-181v1573h181v-419z" />
    <glyph glyph-name="ydieresis" unicode="&#xff;" horiz-adv-x="896" 
d="M307 -317h-195l238 512l-335 719h195l238 -505l238 505h195zM398.5 1235.5c24.333 -23.667 36.5 -50.167 36.5 -79.5c0 -30.667 -12.167 -57.834 -36.5 -81.501s-54.833 -35.5 -91.5 -35.5c-38 0 -69 11.833 -93 35.5s-36 50.834 -36 81.501c0 29.333 12 55.833 36 79.5
s55 35.5 93 35.5c36.667 0 67.167 -11.833 91.5 -35.5zM683 1235.5c24 -23.667 36 -50.167 36 -79.5c0 -30.667 -12 -57.834 -36 -81.501s-54.667 -35.5 -92 -35.5s-68.166 11.833 -92.499 35.5s-36.5 50.834 -36.5 81.501c0 29.333 12.167 55.833 36.5 79.5
s55.166 35.5 92.499 35.5s68 -11.833 92 -35.5z" />
    <glyph glyph-name="Amacron" unicode="&#x100;" horiz-adv-x="1208" 
d="M743 754l-138 382l-139 -382h277zM684 1439l521 -1439h-188l-217 598h-391l-221 -598h-189l528 1439h157zM300 1699h604v-140h-604v140z" />
    <glyph glyph-name="amacron" unicode="&#x101;" horiz-adv-x="1188" 
d="M1099 0h-181v160c-71.333 -122.667 -180 -184 -326 -184c-144.667 0 -267.167 50.167 -367.5 150.5s-150.5 218.833 -150.5 355.5c0 138 50.167 257 150.5 357s222.833 150 367.5 150c146 0 254.667 -60.667 326 -182v107h181v-914zM918 410v146
c-12.667 66 -43 123 -91 171c-67.333 68 -145.666 102 -234.999 102c-90 0 -168 -33.333 -234 -100s-99 -149 -99 -247c0 -97.333 33 -179 99 -245s144 -99 234 -99c89.333 0 167.666 33.667 234.999 101c48 48 78.333 105 91 171zM284 1174h604v-140h-604v140z" />
    <glyph glyph-name="Abreve" unicode="&#x102;" horiz-adv-x="1208" 
d="M743 754l-138 382l-139 -382h277zM684 1439l521 -1439h-188l-217 598h-391l-221 -598h-189l528 1439h157zM859 1800c-20.667 -67.333 -45.3359 -115.333 -74.0029 -144c-48.667 -50 -109 -75 -181 -75c-73.333 0 -134.333 25 -183 75c-29.333 30 -54.666 78 -75.999 144
h168c14 -26.667 25 -44 33 -52c16.667 -16.667 36 -25 58 -25c20.667 0 39.334 8.66699 56.001 26c8.66699 7.33301 19.334 24.333 32.001 51h167z" />
    <glyph glyph-name="abreve" unicode="&#x103;" horiz-adv-x="1188" 
d="M1099 0h-181v160c-71.333 -122.667 -180 -184 -326 -184c-144.667 0 -267.167 50.167 -367.5 150.5s-150.5 218.833 -150.5 355.5c0 138 50.167 257 150.5 357s222.833 150 367.5 150c146 0 254.667 -60.667 326 -182v107h181v-914zM918 410v146
c-12.667 66 -43 123 -91 171c-67.333 68 -145.666 102 -234.999 102c-90 0 -168 -33.333 -234 -100s-99 -149 -99 -247c0 -97.333 33 -179 99 -245s144 -99 234 -99c89.333 0 167.666 33.667 234.999 101c48 48 78.333 105 91 171zM843 1275
c-20.667 -67.333 -45.3359 -115.333 -74.0029 -144c-48.667 -50 -109 -75 -181 -75c-73.333 0 -134.333 25 -183 75c-29.333 30 -54.666 78 -75.999 144h168c14 -26.667 25 -44 33 -52c16.667 -16.667 36 -25 58 -25c20.667 0 39.334 8.66699 56.001 26
c8.66699 7.33301 19.334 24.333 32.001 51h167z" />
    <glyph glyph-name="Aogonek" unicode="&#x104;" horiz-adv-x="1208" 
d="M743 754l-138 382l-139 -382h277zM1028 0h-10.999l-217 598h-391l-221 -598h-189l528 1439h157l521 -1439h-26c-18 -11.333 -31.5 -21.5 -40.5 -30.5s-13.5 -19.5 -13.5 -31.5c0 -11.333 4.5 -21.5 13.5 -30.5s20.5 -13.5 34.5 -13.5c7.33301 0 13.666 1 18.999 3
l13 -105c-10 -1.33301 -20.667 -2 -32 -2c-46.667 0 -85 15 -115 45s-45 64.333 -45 103c0 22 5 42.667 15 62z" />
    <glyph glyph-name="aogonek" unicode="&#x105;" horiz-adv-x="1188" 
d="M918 410v146c-12.667 66 -43 123 -91 171c-67.333 68 -145.666 102 -234.999 102c-90 0 -168 -33.333 -234 -100s-99 -149 -99 -247c0 -97.333 33 -179 99 -245s144 -99 234 -99c89.333 0 167.666 33.667 234.999 101c48 48 78.333 105 91 171zM922 0h-3.99902v160
c-71.333 -122.667 -180 -184 -326 -184c-144.667 0 -267.167 50.167 -367.5 150.5s-150.5 218.833 -150.5 355.5c0 138 50.167 257 150.5 357s222.833 150 367.5 150c146 0 254.667 -60.667 326 -182v107h181v-914h-26c-18 -11.333 -31.5 -21.5 -40.5 -30.5
s-13.5 -19.5 -13.5 -31.5c0 -11.333 4.5 -21.5 13.5 -30.5s20.5 -13.5 34.5 -13.5c6.66699 0 13 1 19 3l13 -105c-10.667 -1.33301 -21.334 -2 -32.001 -2c-46.667 0 -85 15 -115 45s-45 64.333 -45 103c0 22 5 42.667 15 62z" />
    <glyph glyph-name="Cacute" unicode="&#x106;" horiz-adv-x="1419" 
d="M1230 317l126 -112c-162 -147.333 -340.333 -221 -535 -221c-209.333 0 -386.166 72.167 -530.499 216.5s-216.5 317.5 -216.5 519.5c0 200 72.167 372.667 216.5 518s321.166 218 530.499 218c194.667 0 373 -74 535 -222l-126 -112c-132 116.667 -268.333 175 -409 175
c-153.333 0 -285.833 -55.833 -397.5 -167.5s-167.5 -248.167 -167.5 -409.5c0 -162.667 55.833 -299.667 167.5 -411s244.167 -167 397.5 -167c140.667 0 277 58.333 409 175zM1050 1798l-313 -239h-189l208 239h294z" />
    <glyph glyph-name="cacute" unicode="&#x107;" horiz-adv-x="1074" 
d="M850 292l172.001 -63c-34 -46 -61 -79.333 -81 -100c-101.333 -102 -225 -153 -371 -153c-144.667 0 -267.167 50.167 -367.5 150.5s-150.5 219.166 -150.5 356.499s50.167 256 150.5 356s222.833 150 367.5 150c146 0 268.333 -49.333 367 -148
c22.667 -22.667 51 -57 85 -103l-172 -64c-24 30 -40.333 49.667 -49 59c-64.667 64 -141.667 96 -231 96s-167 -33.167 -233 -99.5s-99 -148.5 -99 -246.5c0 -97.333 33 -179.166 99 -245.499s143.667 -99.5 233 -99.5s167.666 33.667 234.999 101c6 6 21 23.667 45 53z
M872.001 1273l-313 -239h-189l208 239h294z" />
    <glyph glyph-name="Ccircumflex" unicode="&#x108;" horiz-adv-x="1419" 
d="M1230 317l126 -112c-162 -147.333 -340.333 -221 -535 -221c-209.333 0 -386.166 72.167 -530.499 216.5s-216.5 317.5 -216.5 519.5c0 200 72.167 372.667 216.5 518s321.166 218 530.499 218c194.667 0 373 -74 535 -222l-126 -112c-132 116.667 -268.333 175 -409 175
c-153.333 0 -285.833 -55.833 -397.5 -167.5s-167.5 -248.167 -167.5 -409.5c0 -162.667 55.833 -299.667 167.5 -411s244.167 -167 397.5 -167c140.667 0 277 58.333 409 175zM1059 1560h-231l-117 87l-110 -87h-230l338 278z" />
    <glyph glyph-name="ccircumflex" unicode="&#x109;" horiz-adv-x="1074" 
d="M850 292l172.001 -63c-34 -46 -61 -79.333 -81 -100c-101.333 -102 -225 -153 -371 -153c-144.667 0 -267.167 50.167 -367.5 150.5s-150.5 219.166 -150.5 356.499s50.167 256 150.5 356s222.833 150 367.5 150c146 0 268.333 -49.333 367 -148
c22.667 -22.667 51 -57 85 -103l-172 -64c-24 30 -40.333 49.667 -49 59c-64.667 64 -141.667 96 -231 96s-167 -33.167 -233 -99.5s-99 -148.5 -99 -246.5c0 -97.333 33 -179.166 99 -245.499s143.667 -99.5 233 -99.5s167.666 33.667 234.999 101c6 6 21 23.667 45 53z
M881.001 1035h-231l-117 87l-110 -87h-230l338 278z" />
    <glyph glyph-name="Cdotaccent" unicode="&#x10a;" horiz-adv-x="1419" 
d="M1230 317l126 -112c-162 -147.333 -340.333 -221 -535 -221c-209.333 0 -386.166 72.167 -530.499 216.5s-216.5 317.5 -216.5 519.5c0 200 72.167 372.667 216.5 518s321.166 218 530.499 218c194.667 0 373 -74 535 -222l-126 -112c-132 116.667 -268.333 175 -409 175
c-153.333 0 -285.833 -55.833 -397.5 -167.5s-167.5 -248.167 -167.5 -409.5c0 -162.667 55.833 -299.667 167.5 -411s244.167 -167 397.5 -167c140.667 0 277 58.333 409 175zM799 1770c22 -21.333 33 -45.666 33 -72.999c0 -26.667 -11 -50.667 -33 -72s-50 -32 -84 -32
s-62 10.667 -84 32s-33 45.333 -33 72c0 27.333 11 51.666 33 72.999s50 32 84 32s62 -10.667 84 -32z" />
    <glyph glyph-name="cdotaccent" unicode="&#x10b;" horiz-adv-x="1074" 
d="M850 292l172.001 -63c-34 -46 -61 -79.333 -81 -100c-101.333 -102 -225 -153 -371 -153c-144.667 0 -267.167 50.167 -367.5 150.5s-150.5 219.166 -150.5 356.499s50.167 256 150.5 356s222.833 150 367.5 150c146 0 268.333 -49.333 367 -148
c22.667 -22.667 51 -57 85 -103l-172 -64c-24 30 -40.333 49.667 -49 59c-64.667 64 -141.667 96 -231 96s-167 -33.167 -233 -99.5s-99 -148.5 -99 -246.5c0 -97.333 33 -179.166 99 -245.499s143.667 -99.5 233 -99.5s167.666 33.667 234.999 101c6 6 21 23.667 45 53z
M621.001 1245c22 -21.333 33 -45.666 33 -72.999c0 -26.667 -11 -50.667 -33 -72s-50 -32 -84 -32s-62 10.667 -84 32s-33 45.333 -33 72c0 27.333 11 51.666 33 72.999s50 32 84 32s62 -10.667 84 -32z" />
    <glyph glyph-name="Ccaron" unicode="&#x10c;" horiz-adv-x="1419" 
d="M1230 317l126 -112c-162 -147.333 -340.333 -221 -535 -221c-209.333 0 -386.166 72.167 -530.499 216.5s-216.5 317.5 -216.5 519.5c0 200 72.167 372.667 216.5 518s321.166 218 530.499 218c194.667 0 373 -74 535 -222l-126 -112c-132 116.667 -268.333 175 -409 175
c-153.333 0 -285.833 -55.833 -397.5 -167.5s-167.5 -248.167 -167.5 -409.5c0 -162.667 55.833 -299.667 167.5 -411s244.167 -167 397.5 -167c140.667 0 277 58.333 409 175zM709 1514l-338 277h230l110 -86l117 86h231z" />
    <glyph glyph-name="ccaron" unicode="&#x10d;" horiz-adv-x="1074" 
d="M850 292l172.001 -63c-34 -46 -61 -79.333 -81 -100c-101.333 -102 -225 -153 -371 -153c-144.667 0 -267.167 50.167 -367.5 150.5s-150.5 219.166 -150.5 356.499s50.167 256 150.5 356s222.833 150 367.5 150c146 0 268.333 -49.333 367 -148
c22.667 -22.667 51 -57 85 -103l-172 -64c-24 30 -40.333 49.667 -49 59c-64.667 64 -141.667 96 -231 96s-167 -33.167 -233 -99.5s-99 -148.5 -99 -246.5c0 -97.333 33 -179.166 99 -245.499s143.667 -99.5 233 -99.5s167.666 33.667 234.999 101c6 6 21 23.667 45 53z
M531.001 989l-338 277h230l110 -86l117 86h231z" />
    <glyph glyph-name="Dcaron" unicode="&#x10e;" horiz-adv-x="1252" 
d="M416 1439c240 -1.33301 426.667 -69 560 -203c142.667 -144 214 -316 214 -516c0 -202 -72.667 -376 -218 -522c-130.667 -130.667 -316 -196.667 -556 -198h-304v1439h304zM293 1279v-1120h122c178.667 0 319 49.333 421 148c112.667 112.667 169 250.334 169 413.001
c0 161.333 -56.333 299 -169 413c-102 97.333 -242.333 146 -421 146h-122zM645 1514l-338 277h230l110 -86l117 86h231z" />
    <glyph glyph-name="dcaron" unicode="&#x10f;" horiz-adv-x="1418" 
d="M1099 0h-181v110c-71.333 -89.333 -180 -134 -326 -134c-144.667 0 -267.167 50.167 -367.5 150.5s-150.5 218.833 -150.5 355.5c0 138 50.167 257 150.5 357s222.833 150 367.5 150c146 0 254.667 -44 326 -132v582h181v-1439zM918 410v146c-12.667 66 -43 123 -91 171
c-67.333 68 -145.666 102 -234.999 102c-90 0 -168 -33.333 -234 -100s-99 -149 -99 -247c0 -97.333 33 -179 99 -245s144 -99 234 -99c89.333 0 167.666 33.667 234.999 101c48 48 78.333 105 91 171zM1193 1231l-11 23c-22 22 -33 48.333 -33 79c0 30 12 56.667 36 80
s54.667 35 92 35c36.667 0 67.167 -11.667 91.5 -35s36.5 -50 36.5 -80c0 -16 -2.66699 -31.333 -8 -46l-98 -196h-159z" />
    <glyph glyph-name="Dcroat" unicode="&#x110;" horiz-adv-x="1319" 
d="M324 641v-482.001h121c179.333 0 319.666 49.333 420.999 148c113.333 112.667 170 250.334 170 413.001c0 161.333 -56.667 299 -170 413c-101.333 97.333 -241.666 146 -420.999 146h-121v-481h472v-157h-472zM143 797.999v641h304c240 -1.33301 426.667 -69 560 -203
c142.667 -144 214 -316 214 -516c0 -202 -72.667 -376 -218 -522c-130.667 -130.667 -316 -196.667 -556 -198h-304v641h-123v157h123z" />
    <glyph glyph-name="dcroat" unicode="&#x111;" horiz-adv-x="1206" 
d="M918 410v146c-12.667 66 -43 123 -91 171c-67.333 68 -145.666 102 -234.999 102c-90 0 -168 -33.333 -234 -100s-99 -149 -99 -247c0 -97.333 33 -179 99 -245s144 -99 234 -99c89.333 0 167.666 33.667 234.999 101c48 48 78.333 105 91 171zM1099 1090v-1090h-181v90
c-71.333 -76 -180 -114 -326 -114c-144.667 0 -267.167 50.167 -367.5 150.5s-150.5 218.833 -150.5 355.5c0 138 50.167 257 150.5 357s222.833 150 367.5 150c146 0 254.667 -44 326 -132v233h-294v156h294v193h181v-193h109v-156h-109z" />
    <glyph glyph-name="Emacron" unicode="&#x112;" horiz-adv-x="1007" 
d="M895 1439v-157h-602v-484h602v-157h-602v-484h602v-157h-783v1439h783zM201 1699h604v-140h-604v140z" />
    <glyph glyph-name="emacron" unicode="&#x113;" horiz-adv-x="1108" 
d="M269 643h599c-42.667 124 -142 186 -298 186c-156.667 0 -257 -62 -301 -186zM237 485v-2.99902c0 -97.333 33 -179 99 -245s144 -99 234 -99c89.333 0 167.666 33.667 234.999 101c9.33301 9.33301 27.333 30.333 54 63l170 -60
c-25.333 -42.667 -54.666 -80.334 -87.999 -113.001c-101.333 -102 -225 -153 -371 -153c-144.667 0 -267.167 50.167 -367.5 150.5s-150.5 218.833 -150.5 355.5c0 138 50.167 257 150.5 357s222.833 150 367.5 150c146 0 269.667 -50.667 371 -152
c87.333 -88 131 -205.333 131 -352h-835zM260 1174h604v-140h-604v140z" />
    <glyph glyph-name="Ebreve" unicode="&#x114;" horiz-adv-x="1007" 
d="M895 1439v-157h-602v-484h602v-157h-602v-484h602v-157h-783v1439h783zM761 1800c-20.667 -67.333 -45.3359 -115.333 -74.0029 -144c-48.667 -50 -109 -75 -181 -75c-73.333 0 -134.333 25 -183 75c-29.333 30 -54.666 78 -75.999 144h168c14 -26.667 25 -44 33 -52
c16.667 -16.667 36 -25 58 -25c20.667 0 39.334 8.66699 56.001 26c8.66699 7.33301 19.334 24.333 32.001 51h167z" />
    <glyph glyph-name="ebreve" unicode="&#x115;" horiz-adv-x="1108" 
d="M269 643h599c-42.667 124 -142 186 -298 186c-156.667 0 -257 -62 -301 -186zM237 485v-2.99902c0 -97.333 33 -179 99 -245s144 -99 234 -99c89.333 0 167.666 33.667 234.999 101c9.33301 9.33301 27.333 30.333 54 63l170 -60
c-25.333 -42.667 -54.666 -80.334 -87.999 -113.001c-101.333 -102 -225 -153 -371 -153c-144.667 0 -267.167 50.167 -367.5 150.5s-150.5 218.833 -150.5 355.5c0 138 50.167 257 150.5 357s222.833 150 367.5 150c146 0 269.667 -50.667 371 -152
c87.333 -88 131 -205.333 131 -352h-835zM819 1275c-20.667 -67.333 -45.3359 -115.333 -74.0029 -144c-48.667 -50 -109 -75 -181 -75c-73.333 0 -134.333 25 -183 75c-29.333 30 -54.666 78 -75.999 144h168c14 -26.667 25 -44 33 -52c16.667 -16.667 36 -25 58 -25
c20.667 0 39.334 8.66699 56.001 26c8.66699 7.33301 19.334 24.333 32.001 51h167z" />
    <glyph glyph-name="Edotaccent" unicode="&#x116;" horiz-adv-x="1007" 
d="M895 1439v-157h-602v-484h602v-157h-602v-484h602v-157h-783v1439h783zM588 1770c22 -21.333 33 -45.666 33 -72.999c0 -26.667 -11 -50.667 -33 -72s-50 -32 -84 -32s-62 10.667 -84 32s-33 45.333 -33 72c0 27.333 11 51.666 33 72.999s50 32 84 32s62 -10.667 84 -32z
" />
    <glyph glyph-name="edotaccent" unicode="&#x117;" horiz-adv-x="1108" 
d="M269 643h599c-42.667 124 -142 186 -298 186c-156.667 0 -257 -62 -301 -186zM237 485v-2.99902c0 -97.333 33 -179 99 -245s144 -99 234 -99c89.333 0 167.666 33.667 234.999 101c9.33301 9.33301 27.333 30.333 54 63l170 -60
c-25.333 -42.667 -54.666 -80.334 -87.999 -113.001c-101.333 -102 -225 -153 -371 -153c-144.667 0 -267.167 50.167 -367.5 150.5s-150.5 218.833 -150.5 355.5c0 138 50.167 257 150.5 357s222.833 150 367.5 150c146 0 269.667 -50.667 371 -152
c87.333 -88 131 -205.333 131 -352h-835zM646 1245c22 -21.333 33 -45.666 33 -72.999c0 -26.667 -11 -50.667 -33 -72s-50 -32 -84 -32s-62 10.667 -84 32s-33 45.333 -33 72c0 27.333 11 51.666 33 72.999s50 32 84 32s62 -10.667 84 -32z" />
    <glyph glyph-name="Eogonek" unicode="&#x118;" horiz-adv-x="1007" 
d="M718 0h-605.999v1439h783v-157h-602v-484h602v-157h-602v-484h602v-157h-26c-18 -11.333 -31.5 -21.5 -40.5 -30.5s-13.5 -19.5 -13.5 -31.5c0 -11.333 4.5 -21.5 13.5 -30.5s20.5 -13.5 34.5 -13.5c6.66699 0 13 1 19 3l13 -105c-10.667 -1.33301 -21.334 -2 -32.001 -2
c-46.667 0 -85 15 -115 45s-45 64.333 -45 103c0 22 5 42.667 15 62z" />
    <glyph glyph-name="eogonek" unicode="&#x119;" horiz-adv-x="1108" 
d="M269 643h599c-42.667 124 -142 186 -298 186c-156.667 0 -257 -62 -301 -186zM701 -9c-41.333 -10 -85 -14.999 -131 -14.999c-144.667 0 -267.167 50.167 -367.5 150.5s-150.5 218.833 -150.5 355.5c0 138 50.167 257 150.5 357s222.833 150 367.5 150
c146 0 269.667 -50.667 371 -152c87.333 -88 131 -205.333 131 -352h-835v-3c0 -97.333 33 -179 99 -245s144 -99 234 -99c89.333 0 167.666 33.667 234.999 101c9.33301 9.33301 27.333 30.333 54 63l170 -60c-25.333 -42.667 -54.666 -80.334 -87.999 -113.001
c-24 -24 -49 -45 -75 -63c-18 -10 -31.5 -19.5 -40.5 -28.5s-13.5 -19.5 -13.5 -31.5c0 -11.333 4.5 -21.5 13.5 -30.5s20.5 -13.5 34.5 -13.5c6.66699 0 13 1 19 3l13 -105c-10 -1.33301 -20.667 -2 -32 -2c-46.667 0 -85 15 -115 45c-26 26 -40.667 55.333 -44 88z" />
    <glyph glyph-name="Ecaron" unicode="&#x11a;" horiz-adv-x="1007" 
d="M895 1439v-157h-602v-484h602v-157h-602v-484h602v-157h-783v1439h783zM497 1514l-338 277h230l110 -86l117 86h231z" />
    <glyph glyph-name="ecaron" unicode="&#x11b;" horiz-adv-x="1108" 
d="M269 643h599c-42.667 124 -142 186 -298 186c-156.667 0 -257 -62 -301 -186zM237 485v-2.99902c0 -97.333 33 -179 99 -245s144 -99 234 -99c89.333 0 167.666 33.667 234.999 101c9.33301 9.33301 27.333 30.333 54 63l170 -60
c-25.333 -42.667 -54.666 -80.334 -87.999 -113.001c-101.333 -102 -225 -153 -371 -153c-144.667 0 -267.167 50.167 -367.5 150.5s-150.5 218.833 -150.5 355.5c0 138 50.167 257 150.5 357s222.833 150 367.5 150c146 0 269.667 -50.667 371 -152
c87.333 -88 131 -205.333 131 -352h-835zM556 989.001l-338 277h230l110 -86l117 86h231z" />
    <glyph glyph-name="Gcircumflex" unicode="&#x11c;" horiz-adv-x="1431" 
d="M1335 196c-147.333 -141.333 -318.666 -212 -513.999 -212c-209.333 0 -386.166 72.167 -530.499 216.5s-216.5 317.5 -216.5 519.5c0 200 72.167 372.667 216.5 518s321.166 218 530.499 218c194.667 0 373 -74 535 -222l-126 -112c-132 116.667 -268.333 175 -409 175
c-153.333 0 -285.833 -55.833 -397.5 -167.5s-167.5 -248.167 -167.5 -409.5c0 -162.667 55.833 -299.667 167.5 -411s244.167 -167 397.5 -167c131.333 0 242.666 36.667 333.999 110v438h180v-494zM1059 1560h-231l-117 87l-110 -87h-230l338 278z" />
    <glyph glyph-name="gcircumflex" unicode="&#x11d;" horiz-adv-x="1149" 
d="M895 559c-13.333 64.667 -44.666 121.999 -93.999 171.999c-64.667 65.333 -141.667 98 -231 98c-90 0 -168 -33.333 -234 -100s-99 -149 -99 -247c0 -97.333 33 -179.166 99 -245.499s144 -99.5 234 -99.5c89.333 0 167.666 33.667 234.999 101
c46.667 46.667 76.667 102 90 166v155zM883 154.999c-62.667 -119.333 -167 -179 -313 -179c-144.667 0 -267.167 50.167 -367.5 150.5s-150.5 218.833 -150.5 355.5c0 138 50.167 256.833 150.5 356.5s222.833 149.5 367.5 149.5c145.333 0 254 -60.333 326 -181v107h181
v-688c0 -134 -48.333 -249 -145 -345c-101.333 -102 -224.666 -153 -369.999 -153s-267.666 49.667 -366.999 149c-22.667 23.333 -51.334 58 -86.001 104l173 63c23.333 -29.333 39.666 -48 48.999 -56c64.667 -65.333 141.667 -98 231 -98
c188.667 0 295.667 88.333 321 265zM908 1035h-231l-117 87l-110 -87h-230l338 278z" />
    <glyph glyph-name="Gbreve" unicode="&#x11e;" horiz-adv-x="1431" 
d="M1335 196c-147.333 -141.333 -318.666 -212 -513.999 -212c-209.333 0 -386.166 72.167 -530.499 216.5s-216.5 317.5 -216.5 519.5c0 200 72.167 372.667 216.5 518s321.166 218 530.499 218c194.667 0 373 -74 535 -222l-126 -112c-132 116.667 -268.333 175 -409 175
c-153.333 0 -285.833 -55.833 -397.5 -167.5s-167.5 -248.167 -167.5 -409.5c0 -162.667 55.833 -299.667 167.5 -411s244.167 -167 397.5 -167c131.333 0 242.666 36.667 333.999 110v438h180v-494zM972 1800c-20.667 -67.333 -45.3359 -115.333 -74.0029 -144
c-48.667 -50 -109 -75 -181 -75c-73.333 0 -134.333 25 -183 75c-29.333 30 -54.666 78 -75.999 144h168c14 -26.667 25 -44 33 -52c16.667 -16.667 36 -25 58 -25c20.667 0 39.334 8.66699 56.001 26c8.66699 7.33301 19.334 24.333 32.001 51h167z" />
    <glyph glyph-name="gbreve" unicode="&#x11f;" horiz-adv-x="1149" 
d="M895 559c-13.333 64.667 -44.666 121.999 -93.999 171.999c-64.667 65.333 -141.667 98 -231 98c-90 0 -168 -33.333 -234 -100s-99 -149 -99 -247c0 -97.333 33 -179.166 99 -245.499s144 -99.5 234 -99.5c89.333 0 167.666 33.667 234.999 101
c46.667 46.667 76.667 102 90 166v155zM883 154.999c-62.667 -119.333 -167 -179 -313 -179c-144.667 0 -267.167 50.167 -367.5 150.5s-150.5 218.833 -150.5 355.5c0 138 50.167 256.833 150.5 356.5s222.833 149.5 367.5 149.5c145.333 0 254 -60.333 326 -181v107h181
v-688c0 -134 -48.333 -249 -145 -345c-101.333 -102 -224.666 -153 -369.999 -153s-267.666 49.667 -366.999 149c-22.667 23.333 -51.334 58 -86.001 104l173 63c23.333 -29.333 39.666 -48 48.999 -56c64.667 -65.333 141.667 -98 231 -98
c188.667 0 295.667 88.333 321 265zM821 1275c-20.667 -67.333 -45.3359 -115.333 -74.0029 -144c-48.667 -50 -109 -75 -181 -75c-73.333 0 -134.333 25 -183 75c-29.333 30 -54.666 78 -75.999 144h168c14 -26.667 25 -44 33 -52c16.667 -16.667 36 -25 58 -25
c20.667 0 39.334 8.66699 56.001 26c8.66699 7.33301 19.334 24.333 32.001 51h167z" />
    <glyph glyph-name="Gdotaccent" unicode="&#x120;" horiz-adv-x="1431" 
d="M1335 196c-147.333 -141.333 -318.666 -212 -513.999 -212c-209.333 0 -386.166 72.167 -530.499 216.5s-216.5 317.5 -216.5 519.5c0 200 72.167 372.667 216.5 518s321.166 218 530.499 218c194.667 0 373 -74 535 -222l-126 -112c-132 116.667 -268.333 175 -409 175
c-153.333 0 -285.833 -55.833 -397.5 -167.5s-167.5 -248.167 -167.5 -409.5c0 -162.667 55.833 -299.667 167.5 -411s244.167 -167 397.5 -167c131.333 0 242.666 36.667 333.999 110v438h180v-494zM799 1770c22 -21.333 33 -45.666 33 -72.999
c0 -26.667 -11 -50.667 -33 -72s-50 -32 -84 -32s-62 10.667 -84 32s-33 45.333 -33 72c0 27.333 11 51.666 33 72.999s50 32 84 32s62 -10.667 84 -32z" />
    <glyph glyph-name="gdotaccent" unicode="&#x121;" horiz-adv-x="1149" 
d="M895 559c-13.333 64.667 -44.666 121.999 -93.999 171.999c-64.667 65.333 -141.667 98 -231 98c-90 0 -168 -33.333 -234 -100s-99 -149 -99 -247c0 -97.333 33 -179.166 99 -245.499s144 -99.5 234 -99.5c89.333 0 167.666 33.667 234.999 101
c46.667 46.667 76.667 102 90 166v155zM883 154.999c-62.667 -119.333 -167 -179 -313 -179c-144.667 0 -267.167 50.167 -367.5 150.5s-150.5 218.833 -150.5 355.5c0 138 50.167 256.833 150.5 356.5s222.833 149.5 367.5 149.5c145.333 0 254 -60.333 326 -181v107h181
v-688c0 -134 -48.333 -249 -145 -345c-101.333 -102 -224.666 -153 -369.999 -153s-267.666 49.667 -366.999 149c-22.667 23.333 -51.334 58 -86.001 104l173 63c23.333 -29.333 39.666 -48 48.999 -56c64.667 -65.333 141.667 -98 231 -98
c188.667 0 295.667 88.333 321 265zM649 1245c22 -21.333 33 -45.666 33 -72.999c0 -26.667 -11 -50.667 -33 -72s-50 -32 -84 -32s-62 10.667 -84 32s-33 45.333 -33 72c0 27.333 11 51.666 33 72.999s50 32 84 32s62 -10.667 84 -32z" />
    <glyph glyph-name="Gcommaaccent" unicode="&#x122;" horiz-adv-x="1431" 
d="M721 -10c-166 19.333 -309.333 89.667 -430 211c-144.667 144 -217 317 -217 519c0 200 72.167 372.667 216.5 518s321.166 218 530.499 218c194.667 0 373 -74 535 -222l-126 -112c-132 116.667 -268.333 175 -409 175c-153.333 0 -285.833 -55.833 -397.5 -167.5
s-167.5 -248.167 -167.5 -409.5c0 -162.667 55.833 -299.667 167.5 -411s244.167 -167 397.5 -167c131.333 0 242.666 36.667 333.999 110v438h180v-494c-147.333 -141.333 -318.666 -212 -513.999 -212h-5l-3 -9c38.667 -2.66699 70.334 -29.667 95.001 -81
c10.667 -22.667 16 -44.667 16 -66c0 -20 -4.66699 -39 -14 -57c-21.333 -42.667 -61 -68.667 -119 -78c-18 -2.66699 -35.333 -4 -52 -4c-30.667 0 -57.667 5 -81 15c-8.66699 4 -18 8.66699 -28 14l55 84c10 -5.33301 21.667 -8 35 -8c16.667 0 31 4 43 12
s18 17.667 18 29c0 10.667 -6 20 -18 28s-26.333 12 -43 12c-7.33301 0 -14 -0.666992 -20 -2z" />
    <glyph glyph-name="gcommaaccent" unicode="&#x123;" horiz-adv-x="1149" 
d="M895 559c-13.333 64.667 -44.666 121.999 -93.999 171.999c-64.667 65.333 -141.667 98 -231 98c-90 0 -168 -33.333 -234 -100s-99 -149 -99 -247c0 -97.333 33 -179.166 99 -245.499s144 -99.5 234 -99.5c89.333 0 167.666 33.667 234.999 101
c46.667 46.667 76.667 102 90 166v155zM883 154.999c-62.667 -119.333 -167 -179 -313 -179c-144.667 0 -267.167 50.167 -367.5 150.5s-150.5 218.833 -150.5 355.5c0 138 50.167 256.833 150.5 356.5s222.833 149.5 367.5 149.5c145.333 0 254 -60.333 326 -181v107h181
v-688c0 -134 -48.333 -249 -145 -345c-101.333 -102 -224.666 -153 -369.999 -153s-267.666 49.667 -366.999 149c-22.667 23.333 -51.334 58 -86.001 104l173 63c23.333 -29.333 39.666 -48 48.999 -56c64.667 -65.333 141.667 -98 231 -98
c188.667 0 295.667 88.333 321 265zM648 1254l9.99902 -23c22.667 -22 34 -48.333 34 -79c0 -30 -12.167 -56.667 -36.5 -80s-55.166 -35 -92.499 -35c-36.667 0 -67.167 11.667 -91.5 35s-36.5 50 -36.5 80c0 16 3 31.333 9 46l97 196h159z" />
    <glyph glyph-name="Hcircumflex" unicode="&#x124;" horiz-adv-x="1141" 
d="M275 641v-641h-181v1439h181v-641h591v641h181v-1439h-181v641h-591zM914 1560h-231l-117 87l-110 -87h-230l338 278z" />
    <glyph glyph-name="hcircumflex" unicode="&#x125;" horiz-adv-x="936" 
d="M94 1439l180.999 -0.000976562v-525c30.667 33.333 94 50 190 50c115.333 0 208.333 -35.333 279 -106s106.667 -157 108 -259v-599h-180v591c0 62 -21 113.5 -63 154.5s-90 61.5 -144 61.5c-53.333 0 -100.333 -19.333 -141 -58
c-23.333 -23.333 -39.666 -45.666 -48.999 -66.999v-682h-181v1439zM816.999 1441h-231l-117 87l-110 -87h-230l338 278z" />
    <glyph glyph-name="Hbar" unicode="&#x126;" horiz-adv-x="1134" 
d="M1043 1090v-1090h-180v641h-592v-641h-180v1090h-80v156h80v193h180v-193h592v193h180v-193h80v-156h-80zM271 1090v-292h592v292h-592z" />
    <glyph glyph-name="hbar" unicode="&#x127;" horiz-adv-x="912" 
d="M80 1246l-0.000976562 193h181v-193h186v-156h-186v-194c12.667 45.333 72.667 68 180 68c114.667 0 207.334 -35.333 278.001 -106s107 -157 109 -259v-599h-181v591c0 62 -21 113.5 -63 154.5s-89.667 61.5 -143 61.5c-54 0 -101 -19.333 -141 -58
c-19.333 -18.667 -32.333 -36 -39 -52v-697h-181v1090h-96v156h96z" />
    <glyph glyph-name="Itilde" unicode="&#x128;" horiz-adv-x="425" 
d="M303 1439v-1439h-181v1439h181zM144 1631c-1.33301 -14.667 -2.00098 -40.332 -2.00098 -76.999l-167 36c1.33301 47.333 5 80 11 98c15.333 46.667 44 78.667 86 96c14.667 6.66699 31 10 49 10c39.333 0 84.333 -18.333 135 -55l23 -16c0.666992 14.667 1 39.667 1 75
l169 -33c-2.66699 -48 -7 -81 -13 -99c-14.667 -46.667 -43.667 -79.334 -87 -98.001c-16 -5.33301 -31.667 -8 -47 -8c-39.333 0 -84.666 18.333 -135.999 55c-8.66699 6.66699 -16 12 -22 16z" />
    <glyph glyph-name="itilde" unicode="&#x129;" horiz-adv-x="418" 
d="M299 914v-914h-180v914h180zM141 1106c-1.33301 -14.667 -2.00098 -40.332 -2.00098 -76.999l-167 36c1.33301 47.333 5 80 11 98c15.333 46.667 44 78.667 86 96c14.667 6.66699 31 10 49 10c39.333 0 84.333 -18.333 135 -55l23 -16c0.666992 14.667 1 39.667 1 75
l169 -33c-2.66699 -48 -7 -81 -13 -99c-14.667 -46.667 -43.667 -79.334 -87 -98.001c-16 -5.33301 -31.667 -8 -47 -8c-39.333 0 -84.666 18.333 -135.999 55c-8.66699 6.66699 -16 12 -22 16z" />
    <glyph glyph-name="Imacron" unicode="&#x12a;" horiz-adv-x="425" 
d="M303 1439v-1439h-181v1439h181zM-90 1699h604v-140h-604v140z" />
    <glyph glyph-name="imacron" unicode="&#x12b;" horiz-adv-x="418" 
d="M299 914v-914h-180v914h180zM-93 1174h604v-140h-604v140z" />
    <glyph glyph-name="Ibreve" unicode="&#x12c;" horiz-adv-x="425" 
d="M303 1439v-1439h-181v1439h181zM470 1800c-20.667 -67.333 -45.3359 -115.333 -74.0029 -144c-48.667 -50 -109 -75 -181 -75c-73.333 0 -134.333 25 -183 75c-29.333 30 -54.666 78 -75.999 144h168c14 -26.667 25 -44 33 -52c16.667 -16.667 36 -25 58 -25
c20.667 0 39.334 8.66699 56.001 26c8.66699 7.33301 19.334 24.333 32.001 51h167z" />
    <glyph glyph-name="ibreve" unicode="&#x12d;" horiz-adv-x="418" 
d="M299 914v-914h-180v914h180zM466 1275c-20.667 -67.333 -45.3359 -115.333 -74.0029 -144c-48.667 -50 -109 -75 -181 -75c-73.333 0 -134.333 25 -183 75c-29.333 30 -54.666 78 -75.999 144h168c14 -26.667 25 -44 33 -52c16.667 -16.667 36 -25 58 -25
c20.667 0 39.334 8.66699 56.001 26c8.66699 7.33301 19.334 24.333 32.001 51h167z" />
    <glyph glyph-name="Iogonek" unicode="&#x12e;" horiz-adv-x="425" 
d="M126 0h-4v1439h181v-1439h-26c-18 -11.333 -31.5 -21.5 -40.5 -30.5s-13.5 -19.5 -13.5 -31.5c0 -11.333 4.5 -21.5 13.5 -30.5s20.5 -13.5 34.5 -13.5c6.66699 0 13 1 19 3l13 -105c-10 -1.33301 -20.667 -2 -32 -2c-46.667 0 -85 15 -115 45s-45 64.333 -45 103
c0 22 5 42.667 15 62z" />
    <glyph glyph-name="iogonek" unicode="&#x12f;" horiz-adv-x="415" 
d="M299.5 1174.5c24.333 -23.667 36.5 -50.167 36.5 -79.5c0 -30.667 -12.167 -57.834 -36.5 -81.501s-54.833 -35.5 -91.5 -35.5c-38 0 -69 11.833 -93 35.5s-36 50.834 -36 81.501c0 29.333 12 55.833 36 79.5s55 35.5 93 35.5c36.667 0 67.167 -11.833 91.5 -35.5zM130 0
h-12.999v914h180v-914h-31c-6 -2 -11.333 -5.33301 -16 -10c-9.33301 -9.33301 -14 -20 -14 -32c0 -11.333 4.5 -21.5 13.5 -30.5s20.5 -13.5 34.5 -13.5c6.66699 0 13 1 19 3l13 -105c-10.667 -1.33301 -21.334 -2 -32.001 -2c-46.667 0 -85 15 -115 45s-45 64.333 -45 103
c0 14.667 2 28.667 6 42z" />
    <glyph glyph-name="Idotaccent" unicode="&#x130;" horiz-adv-x="425" 
d="M303 1439v-1439h-181v1439h181zM297 1770c22 -21.333 33 -45.666 33 -72.999c0 -26.667 -11 -50.667 -33 -72s-50 -32 -84 -32s-62 10.667 -84 32s-33 45.333 -33 72c0 27.333 11 51.666 33 72.999s50 32 84 32s62 -10.667 84 -32z" />
    <glyph glyph-name="dotlessi" unicode="&#x131;" horiz-adv-x="418" 
d="M299 914v-914h-180v914h180z" />
    <glyph glyph-name="IJ" unicode="&#x132;" horiz-adv-x="825" 
d="M303 1439v-1439h-181v1439h181zM711 14c0 -78 -28 -143.833 -84 -197.5s-143.667 -80.5 -263 -80.5v150c64.667 0 108 10.667 130 32c24 24 36 59.333 36 106v1415h181v-1425z" />
    <glyph glyph-name="ij" unicode="&#x133;" horiz-adv-x="794" 
d="M297 914v-914h-180v914h180zM299.5 1174.5c24.333 -23.667 36.5 -50.167 36.5 -79.5c0 -30.667 -12.167 -57.834 -36.5 -81.501s-54.833 -35.5 -91.5 -35.5c-38 0 -69 11.833 -93 35.5s-36 50.834 -36 81.501c0 29.333 12 55.833 36 79.5s55 35.5 93 35.5
c36.667 0 67.167 -11.833 91.5 -35.5zM404 -43c68.667 8 103 35 103 81v876h180v-874c0 -138.667 -94.333 -215.667 -283 -231v148zM689 1174.5c24 -23.667 36 -50.167 36 -79.5c0 -30.667 -12 -57.834 -36 -81.501s-54.667 -35.5 -92 -35.5s-68.166 11.833 -92.499 35.5
s-36.5 50.834 -36.5 81.501c0 29.333 12.167 55.833 36.5 79.5s55.166 35.5 92.499 35.5s68 -11.833 92 -35.5z" />
    <glyph glyph-name="Jcircumflex" unicode="&#x134;" horiz-adv-x="529" 
d="M353 14c0 -78 -27.833 -145 -83.5 -201s-143.5 -84 -263.5 -84v157c64.667 0 108 10.667 130 32c24 24 36 59.333 36 106v1415h181v-1425zM621 1520h-231l-117 86l-110 -86h-230l338 277z" />
    <glyph glyph-name="jcircumflex" unicode="&#x135;" horiz-adv-x="507" 
d="M53 -43c68 8 102 34.999 102 80.999v876h180v-874c0 -143.333 -94 -222.666 -282 -237.999v155zM587 1032h-231l-117 86l-110 -86h-230l338 277z" />
    <glyph glyph-name="Kcommaaccent" unicode="&#x136;" horiz-adv-x="1102" 
d="M874 1439l-380 -550l622 -889h-211l-518 741l-94 -135v-606h-181v1439h181v-532l371 532h210zM421 32c97.333 0 160.335 -11.332 189.002 -33.999c35.333 -28 53 -61 53 -99v-10c-4 -42.667 -29.667 -81.334 -77 -116.001c-42.667 -24 -87 -36 -133 -36
c-25.333 0 -67 7.66699 -125 23l45 132c48.667 -18.667 77.667 -28 87 -28s17.666 2 24.999 6c5.33301 3.33301 8.66602 9 9.99902 17v3c0 2.66699 -0.666992 4.66699 -2 6c-0.666992 1.33301 -24.667 2.33301 -72 3v133z" />
    <glyph glyph-name="kcommaaccent" unicode="&#x137;" horiz-adv-x="744" 
d="M650 914l-240 -298l348 -616h-207l-258 472l-13 -17v-455h-181v1269h181v-541l151 186h219zM325 32c96.667 0 159.332 -11.332 187.999 -33.999c36 -28 54 -61 54 -99v-10c-4.66699 -42.667 -30.667 -81.334 -78 -116.001c-42 -24 -86.333 -36 -133 -36
c-25.333 0 -66.666 7.66699 -123.999 23l44 132c48.667 -18.667 77.667 -28 87 -28c10 0 18.667 2 26 6c4.66699 3.33301 8 9 10 17v3c0 2.66699 -0.666992 4.66699 -2 6s-25.333 2.33301 -72 3v133z" />
    <glyph glyph-name="kgreenlandic" unicode="&#x138;" horiz-adv-x="744" 
d="M650 914l-240 -298l348 -616h-207l-258 472l-13 -17v-455h-181v914h181v-186l151 186h219z" />
    <glyph glyph-name="Lacute" unicode="&#x139;" horiz-adv-x="862" 
d="M112 0v1439h181v-1282h517v-157h-698zM796 1798l-313 -239h-189l208 239h294z" />
    <glyph glyph-name="lacute" unicode="&#x13a;" horiz-adv-x="401" 
d="M291 1439v-1439h-181v1439h181zM451 1719l-313 -239h-189l208 239h294z" />
    <glyph glyph-name="Lcommaaccent" unicode="&#x13b;" horiz-adv-x="862" 
d="M112 0v1439h181v-1282h517v-157h-698zM325 -8c97.333 0 160.335 -11.332 189.002 -33.999c35.333 -28 53 -61 53 -99v-10c-4 -42.667 -29.667 -81.334 -77 -116.001c-42.667 -24 -87 -36 -133 -36c-25.333 0 -67 7.66699 -125 23l45 132
c48.667 -18.667 77.667 -28 87 -28s17.666 2 24.999 6c5.33301 3.33301 8.66602 9 9.99902 17v3c0 2.66699 -0.666992 4.66699 -2 6c-0.666992 1.33301 -24.667 2.33301 -72 3v133z" />
    <glyph glyph-name="lcommaaccent" unicode="&#x13c;" horiz-adv-x="379" 
d="M285 1439v-1439h-181v1439h181zM115 -18c96.667 0 159.333 -11.332 188 -33.999c36 -28 54 -61 54 -99v-10c-4.66699 -42.667 -30.667 -81.334 -78 -116.001c-42 -24 -86 -36 -132 -36c-26 0 -67.667 7.66699 -125 23l44 132c48.667 -18.667 77.667 -28 87 -28
c10 0 18.667 2 26 6c4.66699 3.33301 8 9 10 17v3c0 2.66699 -0.666992 4.66699 -2 6s-25.333 2.33301 -72 3v133z" />
    <glyph glyph-name="Lcaron" unicode="&#x13d;" horiz-adv-x="862" 
d="M112 0v1439h181v-1282h517v-157h-698zM557 1231l-9.99902 23c-22.667 22 -34 48.333 -34 79c0 30 12.167 56.667 36.5 80s55.166 35 92.499 35c36.667 0 67.167 -11.667 91.5 -35s36.5 -50 36.5 -80c0 -16 -2.66699 -31.333 -8 -46l-98 -196h-159z" />
    <glyph glyph-name="lcaron" unicode="&#x13e;" horiz-adv-x="636" 
d="M293 1439v-1439h-181v1439h181zM417 1231l-9.99902 23c-22.667 22 -34 48.333 -34 79c0 30 12.167 56.667 36.5 80s55.166 35 92.499 35c36.667 0 67.167 -11.667 91.5 -35s36.5 -50 36.5 -80c0 -16 -2.66699 -31.333 -8 -46l-98 -196h-159z" />
    <glyph glyph-name="Ldot" unicode="&#x13f;" horiz-adv-x="862" 
d="M112 0v1439h181v-1282h517v-157h-698zM739 792c22 -21.333 33 -45.333 33 -72c0 -27.333 -11 -51.666 -33 -72.999s-49.667 -32 -83 -32c-34.667 0 -63 10.667 -85 32s-33 45.666 -33 72.999c0 26.667 11 50.667 33 72s50.333 32 85 32c33.333 0 61 -10.667 83 -32z" />
    <glyph glyph-name="ldot" unicode="&#x140;" horiz-adv-x="618" 
d="M280 1439v-1439h-181v1439h181zM572.5 792c21.667 -21.333 32.5 -45.333 32.5 -72c0 -27.333 -10.833 -51.666 -32.5 -72.999s-49.5 -32 -83.5 -32s-62 10.667 -84 32s-33 45.666 -33 72.999c0 26.667 11 50.667 33 72s50 32 84 32s61.833 -10.667 83.5 -32z" />
    <glyph glyph-name="Lslash" unicode="&#x141;" horiz-adv-x="942" 
d="M375 809l386 315v-206l-386 -315v-446h517v-157h-698v455l-194 -157v205l194 158v778h181v-630z" />
    <glyph glyph-name="lslash" unicode="&#x142;" horiz-adv-x="465" 
d="M142 740v699h181v-552l142 117v-206l-142 -117v-681h-181v534l-142 -117v206z" />
    <glyph glyph-name="Nacute" unicode="&#x143;" horiz-adv-x="1398" 
d="M288 1439l820 -1150v1150h181v-1439h-200l-799 1121v-1121h-181v1439h179zM1034 1798l-313 -239h-189l208 239h294z" />
    <glyph glyph-name="nacute" unicode="&#x144;" 
d="M280 682l-0.000976562 -682.001h-181v914h181c30.667 33.333 94 50 190 50c115.333 0 208.333 -35.333 279 -106s106.667 -157 108 -259v-599h-180v591c0 62 -21 113.5 -63 154.5s-90 61.5 -144 61.5c-53.333 0 -100.333 -19.333 -141 -58
c-23.333 -23.333 -39.666 -45.666 -48.999 -66.999zM811.999 1273l-313 -239h-189l208 239h294z" />
    <glyph glyph-name="Ncommaaccent" unicode="&#x145;" horiz-adv-x="1398" 
d="M288 1439l820 -1150v1150h181v-1439h-200l-799 1121v-1121h-181v1439h179zM588 32c96.667 0 159.668 -11.332 189.001 -33.999c35.333 -28 53 -61 53 -99v-10c-4 -42.667 -29.667 -81.334 -77 -116.001c-42.667 -24 -87 -36 -133 -36c-25.333 0 -67 7.66699 -125 23
l45 132c48.667 -18.667 77.667 -28 87 -28s17.666 2 24.999 6c4.66699 3.33301 8 9 10 17v3c0 2.66699 -0.666992 4.66699 -2 6c-0.666992 1.33301 -24.667 2.33301 -72 3v133z" />
    <glyph glyph-name="ncommaaccent" unicode="&#x146;" 
d="M280 682l-0.000976562 -682.001h-181v914h181c30.667 33.333 94 50 190 50c115.333 0 208.333 -35.333 279 -106s106.667 -157 108 -259v-599h-180v591c0 62 -21 113.5 -63 154.5s-90 61.5 -144 61.5c-53.333 0 -100.333 -19.333 -141 -58
c-23.333 -23.333 -39.666 -45.666 -48.999 -66.999zM402.999 31.999c97.333 0 160.335 -11.332 189.002 -33.999c35.333 -28 53 -61 53 -99v-10c-4 -42.667 -29.667 -81.334 -77 -116.001c-42.667 -24 -87 -36 -133 -36c-25.333 0 -67 7.66699 -125 23l45 132
c48.667 -18.667 77.667 -28 87 -28s17.666 2 24.999 6c5.33301 3.33301 8.66602 9 9.99902 17v3c0 2.66699 -0.666992 4.66699 -2 6c-0.666992 1.33301 -24.667 2.33301 -72 3v133z" />
    <glyph glyph-name="Ncaron" unicode="&#x147;" horiz-adv-x="1398" 
d="M288 1439l820 -1150v1150h181v-1439h-200l-799 1121v-1121h-181v1439h179zM693 1514l-338 277h230l110 -86l117 86h231z" />
    <glyph glyph-name="ncaron" unicode="&#x148;" 
d="M280 682l-0.000976562 -682.001h-181v914h181c30.667 33.333 94 50 190 50c115.333 0 208.333 -35.333 279 -106s106.667 -157 108 -259v-599h-180v591c0 62 -21 113.5 -63 154.5s-90 61.5 -144 61.5c-53.333 0 -100.333 -19.333 -141 -58
c-23.333 -23.333 -39.666 -45.666 -48.999 -66.999zM471.999 988.999l-338 277h230l110 -86l117 86h231z" />
    <glyph glyph-name="napostrophe" unicode="&#x149;" horiz-adv-x="1168" 
d="M492 682v-682.001h-181v914h181c30.667 33.333 93.667 50 189 50c115.333 0 208.333 -35.333 279 -106s107 -157 109 -259v-599h-180v591c0 62 -21.167 113.5 -63.5 154.5s-90.5 61.5 -144.5 61.5c-53.333 0 -100 -19.333 -140 -58
c-24 -23.333 -40.333 -45.666 -49 -66.999zM64 1231l-9.99902 23c-22.667 22 -34 48.333 -34 79c0 30 12.167 56.667 36.5 80s55.166 35 92.499 35c36.667 0 67.167 -11.667 91.5 -35s36.5 -50 36.5 -80c0 -16 -2.66699 -31.333 -8 -46l-98 -196h-159z" />
    <glyph glyph-name="Eng" unicode="&#x14a;" horiz-adv-x="1229" 
d="M939 111l-648.999 913v-1024h-181v1576l830 -1166v1029h181v-1447c0 -78 -27.833 -145 -83.5 -201s-143.5 -84 -263.5 -84v157c65.333 0 108.666 10.667 129.999 32c24 24 36 59.333 36 106v109z" />
    <glyph glyph-name="eng" unicode="&#x14b;" horiz-adv-x="962" 
d="M680 591c0 62 -21 113.499 -63 154.499s-90 61.5 -144 61.5c-53.333 0 -100.333 -19.333 -141 -58c-23.333 -23.333 -39.666 -45.666 -48.999 -66.999v-682h-181v914h181c17.333 33.333 80.666 50 189.999 50c115.333 0 208.333 -35.333 279 -106s106.667 -157 108 -259
v-403h1v-204c0 -78 -27.833 -145 -83.5 -201s-143.5 -84 -263.5 -84v157c64.667 0 108 10.667 130 32c24 24 36 59.333 36 106v589z" />
    <glyph glyph-name="Omacron" unicode="&#x14c;" horiz-adv-x="1621" 
d="M1341.5 1241c145 -145.333 217.5 -318.333 217.5 -519c0 -202 -72.5 -375.5 -217.5 -520.5s-322.167 -217.5 -531.5 -217.5c-208.667 0 -385.5 72.5 -530.5 217.5s-217.5 318.5 -217.5 520.5c0 200.667 72.5 373.667 217.5 519s321.833 218 530.5 218
c209.333 0 386.5 -72.667 531.5 -218zM810 1301c-153.333 0 -286 -56.167 -398 -168.5s-168 -249.166 -168 -410.499c0 -162.667 56 -300 168 -412s244.667 -168 398 -168c154 0 287 56 399 168s168 249.333 168 412c0 161.333 -56 298.166 -168 410.499
s-245 168.5 -399 168.5zM508 1699h604v-140h-604v140z" />
    <glyph glyph-name="omacron" unicode="&#x14d;" horiz-adv-x="1179" 
d="M590 989c146 0 268.667 -50 368 -150s149 -219 149 -357c0 -136.667 -49.667 -255.167 -149 -355.5s-222 -150.5 -368 -150.5c-144.667 0 -267.167 50.167 -367.5 150.5s-150.5 218.833 -150.5 355.5c0 138 50.167 257 150.5 357s222.833 150 367.5 150zM356 729
c-66 -66.667 -99 -149 -99 -247c0 -97.333 33 -179 99 -245s144 -99 234 -99c89.333 0 167.166 33 233.499 99s99.5 147.667 99.5 245c0 98 -33.167 180.333 -99.5 247s-144.166 100 -233.499 100c-90 0 -168 -33.333 -234 -100zM288 1174h604v-140h-604v140z" />
    <glyph glyph-name="Obreve" unicode="&#x14e;" horiz-adv-x="1621" 
d="M1341.5 1241c145 -145.333 217.5 -318.333 217.5 -519c0 -202 -72.5 -375.5 -217.5 -520.5s-322.167 -217.5 -531.5 -217.5c-208.667 0 -385.5 72.5 -530.5 217.5s-217.5 318.5 -217.5 520.5c0 200.667 72.5 373.667 217.5 519s321.833 218 530.5 218
c209.333 0 386.5 -72.667 531.5 -218zM810 1301c-153.333 0 -286 -56.167 -398 -168.5s-168 -249.166 -168 -410.499c0 -162.667 56 -300 168 -412s244.667 -168 398 -168c154 0 287 56 399 168s168 249.333 168 412c0 161.333 -56 298.166 -168 410.499
s-245 168.5 -399 168.5zM1068 1800c-20.667 -67.333 -45.3359 -115.333 -74.0029 -144c-48.667 -50 -109 -75 -181 -75c-73.333 0 -134.333 25 -183 75c-29.333 30 -54.666 78 -75.999 144h168c14 -26.667 25 -44 33 -52c16.667 -16.667 36 -25 58 -25
c20.667 0 39.334 8.66699 56.001 26c8.66699 7.33301 19.334 24.333 32.001 51h167z" />
    <glyph glyph-name="obreve" unicode="&#x14f;" horiz-adv-x="1179" 
d="M590 989c146 0 268.667 -50 368 -150s149 -219 149 -357c0 -136.667 -49.667 -255.167 -149 -355.5s-222 -150.5 -368 -150.5c-144.667 0 -267.167 50.167 -367.5 150.5s-150.5 218.833 -150.5 355.5c0 138 50.167 257 150.5 357s222.833 150 367.5 150zM356 729
c-66 -66.667 -99 -149 -99 -247c0 -97.333 33 -179 99 -245s144 -99 234 -99c89.333 0 167.166 33 233.499 99s99.5 147.667 99.5 245c0 98 -33.167 180.333 -99.5 247s-144.166 100 -233.499 100c-90 0 -168 -33.333 -234 -100zM847 1275
c-20.667 -67.333 -45.3359 -115.333 -74.0029 -144c-48.667 -50 -109 -75 -181 -75c-73.333 0 -134.333 25 -183 75c-29.333 30 -54.666 78 -75.999 144h168c14 -26.667 25 -44 33 -52c16.667 -16.667 36 -25 58 -25c20.667 0 39.334 8.66699 56.001 26
c8.66699 7.33301 19.334 24.333 32.001 51h167z" />
    <glyph glyph-name="Ohungarumlaut" unicode="&#x150;" horiz-adv-x="1621" 
d="M1341.5 1241c145 -145.333 217.5 -318.333 217.5 -519c0 -202 -72.5 -375.5 -217.5 -520.5s-322.167 -217.5 -531.5 -217.5c-208.667 0 -385.5 72.5 -530.5 217.5s-217.5 318.5 -217.5 520.5c0 200.667 72.5 373.667 217.5 519s321.833 218 530.5 218
c209.333 0 386.5 -72.667 531.5 -218zM810 1301c-153.333 0 -286 -56.167 -398 -168.5s-168 -249.166 -168 -410.499c0 -162.667 56 -300 168 -412s244.667 -168 398 -168c154 0 287 56 399 168s168 249.333 168 412c0 161.333 -56 298.166 -168 410.499
s-245 168.5 -399 168.5zM910 1791l-313 -238h-189l208 238h294zM1214 1791l-312 -238h-190l208 238h294z" />
    <glyph glyph-name="ohungarumlaut" unicode="&#x151;" horiz-adv-x="1179" 
d="M590 989c146 0 268.667 -50 368 -150s149 -219 149 -357c0 -136.667 -49.667 -255.167 -149 -355.5s-222 -150.5 -368 -150.5c-144.667 0 -267.167 50.167 -367.5 150.5s-150.5 218.833 -150.5 355.5c0 138 50.167 257 150.5 357s222.833 150 367.5 150zM356 729
c-66 -66.667 -99 -149 -99 -247c0 -97.333 33 -179 99 -245s144 -99 234 -99c89.333 0 167.166 33 233.499 99s99.5 147.667 99.5 245c0 98 -33.167 180.333 -99.5 247s-144.166 100 -233.499 100c-90 0 -168 -33.333 -234 -100zM689 1266l-313 -238h-189l208 238h294z
M993 1266l-312 -238h-190l208 238h294z" />
    <glyph glyph-name="OE" unicode="&#x152;" horiz-adv-x="2044" 
d="M1342 1282l27.999 -43c134.667 -135.333 205.334 -282.333 212.001 -441h374v-157h-374c-8 -158 -80 -305 -216 -441l-26 -43h616v-157h-895c-68.667 -10.667 -143.667 -16 -225 -16c-208.667 0 -385.5 72.5 -530.5 217.5s-217.5 318.5 -217.5 520.5
c0 200.667 72.5 373.667 217.5 519s321.833 218 530.5 218c82 0 157.333 -6.66699 226 -20h894v-157h-614zM1402 757c-8 146.667 -64.333 272.999 -169 378.999c-40.667 40 -84 72.667 -130 98c-22.667 12 -46 22.667 -70 32c-60 23.333 -125.667 35 -197 35
c-153.333 0 -286 -56.167 -398 -168.5s-168 -249.166 -168 -410.499c0 -162.667 56 -300 168 -412s244.667 -168 398 -168c71.333 0 137.333 11 198 33c23.333 9.33301 46.333 20 69 32c45.333 26 90 60.667 134 104c102 102 157 226 165 372c0.666992 12 1 25 1 39
c0 11.333 -0.333008 23 -1 35z" />
    <glyph glyph-name="oe" unicode="&#x153;" horiz-adv-x="1862" 
d="M251 482c0 -97.333 33 -179 99 -245s144 -99 234 -99c89.333 0 167.166 33 233.499 99s99.5 147.667 99.5 245c0 98 -33.167 180.333 -99.5 247s-144.166 100 -233.499 100c-90 0 -168 -33.333 -234 -100s-99 -149 -99 -247zM1054 699c11.333 -22 19 -40.667 23 -56h535
c-6 20.667 -26.667 48.667 -62 84c-68 68 -146.667 102 -236 102s-166.333 -32.667 -231 -98c-15.333 -15.333 -25 -26 -29 -32zM1054 266c4 -5.33301 11.998 -14.333 23.998 -27c68 -67.333 146.667 -101 236 -101s168 33.667 236 101c8.66699 9.33301 26.667 30.333 54 63
l168 -60c-25.333 -42.667 -55.666 -81.667 -90.999 -117c-99.333 -99.333 -221.666 -149 -366.999 -149s-267.333 47.667 -366 143c-96.667 -95.333 -218 -143 -364 -143c-144.667 0 -267.167 50.167 -367.5 150.5s-150.5 218.833 -150.5 355.5c0 138 50.167 257 150.5 357
s222.833 150 367.5 150c146 0 267.333 -49.333 364 -148c98.667 98.667 220.667 148 366 148s269 -50.667 371 -152c87.333 -88 133 -205.333 137 -352l-719 1l-1 9c-0.666992 0 -1 -4.33301 -1 -13c0 -84.667 -15.667 -156.667 -47 -216z" />
    <glyph glyph-name="Racute" unicode="&#x154;" horiz-adv-x="1041" 
d="M293 1281v-651.999h178c84 0 157.333 31.167 220 93.5s94 140.166 94 233.499c0 92.667 -31.333 170 -94 232s-136 93 -220 93h-178zM462 471.001h-169v-471h-181v1439h412c120 -16 220.333 -64.667 301 -146c94 -94 141 -206.333 141 -337
c0 -131.333 -48.333 -245.333 -145 -342c-64 -64.667 -120.667 -103 -170 -115l323 -499h-209zM878 1798l-313 -239h-189l208 239h294z" />
    <glyph glyph-name="racute" unicode="&#x155;" horiz-adv-x="570" 
d="M518 778c-82.667 -12.667 -146.667 -45.5 -192 -98.5s-68 -119.5 -68 -199.5v-480h-181v914h181v-130c26.667 71.333 84 121 172 149zM632 1273l-313 -239h-189l208 239h294z" />
    <glyph glyph-name="Rcommaaccent" unicode="&#x156;" horiz-adv-x="1041" 
d="M293 1281v-651.999h178c84 0 157.333 31.167 220 93.5s94 140.166 94 233.499c0 92.667 -31.333 170 -94 232s-136 93 -220 93h-178zM464 469.001l-171 2v-471h-181v1439h412c120 -16 220.333 -64.667 301 -146c94 -94 141 -206.333 141 -337
c0 -131.333 -48.333 -245.333 -145 -342c-64 -64.667 -120.667 -103 -170 -115l323 -499h-209zM396 32.001c97.333 0 160.335 -11.332 189.002 -33.999c35.333 -28 53 -61 53 -99v-10c-4 -42.667 -29.667 -81.334 -77 -116.001c-42.667 -24 -87 -36 -133 -36
c-25.333 0 -67 7.66699 -125 23l45 132c48.667 -18.667 77.667 -28 87 -28s17.666 2 24.999 6c5.33301 3.33301 8.66602 9 9.99902 17v3c0 2.66699 -0.666992 4.66699 -2 6c-0.666992 1.33301 -24.667 2.33301 -72 3v133z" />
    <glyph glyph-name="rcommaaccent" unicode="&#x157;" horiz-adv-x="570" 
d="M518 778c-82.667 -12.667 -146.667 -45.5 -192 -98.5s-68 -119.5 -68 -199.5v-480h-181v914h181v-130c26.667 71.333 84 121 172 149zM166 -16c96.667 0 159.668 -11.332 189.001 -33.999c35.333 -28 53 -61 53 -99v-10c-4 -42.667 -29.667 -81.334 -77 -116.001
c-42.667 -24 -87 -36 -133 -36c-25.333 0 -67 7.66699 -125 23l45 132c48.667 -18.667 77.667 -28 87 -28s17.666 2 24.999 6c4.66699 3.33301 8 9 10 17v3c0 2.66699 -0.666992 4.66699 -2 6c-0.666992 1.33301 -24.667 2.33301 -72 3v133z" />
    <glyph glyph-name="Rcaron" unicode="&#x158;" horiz-adv-x="1041" 
d="M293 1281v-651.999h178c84 0 157.333 31.167 220 93.5s94 140.166 94 233.499c0 92.667 -31.333 170 -94 232s-136 93 -220 93h-178zM462 471.001h-169v-471h-181v1439h412c120 -16 220.333 -64.667 301 -146c94 -94 141 -206.333 141 -337
c0 -131.333 -48.333 -245.333 -145 -342c-64 -64.667 -120.667 -103 -170 -115l323 -499h-209zM537 1514l-338 277h230l110 -86l117 86h231z" />
    <glyph glyph-name="rcaron" unicode="&#x159;" horiz-adv-x="570" 
d="M518 778c-82.667 -12.667 -146.667 -45.5 -192 -98.5s-68 -119.5 -68 -199.5v-480h-181v914h181v-130c26.667 71.333 84 121 172 149zM291 989l-338 277h230l110 -86l117 86h231z" />
    <glyph glyph-name="Sacute" unicode="&#x15a;" horiz-adv-x="1017" 
d="M511 757c-103.333 34 -186.334 82.3311 -249.001 144.998s-94 138.334 -94 227.001c0 86.667 32.5 162.834 97.5 228.501s145.833 98.5 242.5 98.5c95.333 0 177 -33.667 245 -101c35.333 -34.667 63 -83.334 83 -146.001l-162 -63c-20 54 -38 89 -54 105
c-32.667 33.333 -70 50 -112 50c-41.333 0 -78.166 -16.167 -110.499 -48.5s-48.5 -73.5 -48.5 -123.5c0 -49.333 16.667 -91.333 50 -126c34.667 -33.333 82 -64 142 -92c114.667 -37.333 210.667 -94.666 288 -171.999c88.667 -88 133 -192 133 -312
s-43.833 -223.833 -131.5 -311.5s-195.167 -131.5 -322.5 -131.5c-128 0 -236.333 45 -325 135c-69.333 68.667 -112 157.667 -128 267l174 63c10.667 -104.667 40.334 -181 89.001 -229c53.333 -53.333 116.666 -80 189.999 -80c74 0 138.5 27.5 193.5 82.5
s82.5 123.167 82.5 204.5s-27 149 -81 203c-54.667 54 -118.667 96.333 -192 127zM842.999 1798l-313 -239h-189l208 239h294z" />
    <glyph glyph-name="sacute" unicode="&#x15b;" horiz-adv-x="727" 
d="M334 456c-68 37.333 -114.667 68.666 -140 93.999c-49.333 49.333 -74 106 -74 170c0 63.333 24 119.333 72 168s108 73 180 73s130 -22.333 174 -67c45.333 -45.333 68 -95 68 -149v-28l-162 -66c-10 75.333 -21.5 119.666 -34.5 132.999s-28.167 20 -45.5 20
s-33.666 -7.66699 -48.999 -23s-23 -35.666 -23 -60.999s8.66699 -46.666 26 -63.999c11.333 -12 37.666 -31 78.999 -57c75.333 -41.333 130.333 -79 165 -113c54.667 -56 82 -122 82 -198c0 -78 -28.333 -145.667 -85 -203s-127.667 -86 -213 -86s-156.5 28.667 -213.5 86
s-85.5 129 -85.5 215l180 45c0 -77.333 12.333 -128.333 37 -153s52 -37 82 -37s57.5 12.333 82.5 37s37.5 56.667 37.5 96c0 38 -13.333 70 -40 96c-16 15.333 -49.333 39.333 -100 72zM688 1273l-313 -239h-189l208 239h294z" />
    <glyph glyph-name="Scircumflex" unicode="&#x15c;" horiz-adv-x="1017" 
d="M511 757c-103.333 34 -186.334 82.3311 -249.001 144.998s-94 138.334 -94 227.001c0 86.667 32.5 162.834 97.5 228.501s145.833 98.5 242.5 98.5c95.333 0 177 -33.667 245 -101c35.333 -34.667 63 -83.334 83 -146.001l-162 -63c-20 54 -38 89 -54 105
c-32.667 33.333 -70 50 -112 50c-41.333 0 -78.166 -16.167 -110.499 -48.5s-48.5 -73.5 -48.5 -123.5c0 -49.333 16.667 -91.333 50 -126c34.667 -33.333 82 -64 142 -92c114.667 -37.333 210.667 -94.666 288 -171.999c88.667 -88 133 -192 133 -312
s-43.833 -223.833 -131.5 -311.5s-195.167 -131.5 -322.5 -131.5c-128 0 -236.333 45 -325 135c-69.333 68.667 -112 157.667 -128 267l174 63c10.667 -104.667 40.334 -181 89.001 -229c53.333 -53.333 116.666 -80 189.999 -80c74 0 138.5 27.5 193.5 82.5
s82.5 123.167 82.5 204.5s-27 149 -81 203c-54.667 54 -118.667 96.333 -192 127zM851.999 1560h-231l-117 87l-110 -87h-230l338 278z" />
    <glyph glyph-name="scircumflex" unicode="&#x15d;" horiz-adv-x="727" 
d="M334 456c-68 37.333 -114.667 68.666 -140 93.999c-49.333 49.333 -74 106 -74 170c0 63.333 24 119.333 72 168s108 73 180 73s130 -22.333 174 -67c45.333 -45.333 68 -95 68 -149v-28l-162 -66c-10 75.333 -21.5 119.666 -34.5 132.999s-28.167 20 -45.5 20
s-33.666 -7.66699 -48.999 -23s-23 -35.666 -23 -60.999s8.66699 -46.666 26 -63.999c11.333 -12 37.666 -31 78.999 -57c75.333 -41.333 130.333 -79 165 -113c54.667 -56 82 -122 82 -198c0 -78 -28.333 -145.667 -85 -203s-127.667 -86 -213 -86s-156.5 28.667 -213.5 86
s-85.5 129 -85.5 215l180 45c0 -77.333 12.333 -128.333 37 -153s52 -37 82 -37s57.5 12.333 82.5 37s37.5 56.667 37.5 96c0 38 -13.333 70 -40 96c-16 15.333 -49.333 39.333 -100 72zM698 1035h-231l-117 87l-110 -87h-230l338 278z" />
    <glyph glyph-name="Scedilla" unicode="&#x15e;" horiz-adv-x="1017" 
d="M452 -13c-104 11.333 -193.669 55.332 -269.002 131.999c-69.333 68.667 -112 157.667 -128 267l174 63c10.667 -104.667 40.334 -181 89.001 -229c53.333 -53.333 116.666 -80 189.999 -80c74 0 138.5 27.5 193.5 82.5s82.5 123.167 82.5 204.5s-27 149 -81 203
c-54.667 54 -118.667 96.333 -192 127c-103.333 34 -186.333 82.333 -249 145s-94 138.334 -94 227.001c0 86.667 32.5 162.834 97.5 228.501s145.833 98.5 242.5 98.5c95.333 0 177 -33.667 245 -101c35.333 -34.667 63 -83.334 83 -146.001l-162 -63
c-20 54 -38 89 -54 105c-32.667 33.333 -70 50 -112 50c-41.333 0 -78.166 -16.167 -110.499 -48.5s-48.5 -73.5 -48.5 -123.5c0 -49.333 16.667 -91.333 50 -126c34.667 -33.333 82 -64 142 -92c114.667 -37.333 210.667 -94.666 288 -171.999
c88.667 -88 133 -192 133 -312s-43.667 -223.667 -131 -311c-78.667 -78.667 -173 -122.334 -283 -131.001l-4 -10c38.667 -2.66699 70.334 -29.667 95.001 -81c10.667 -22.667 16 -44.667 16 -66c0 -20 -4.66699 -39 -14 -57c-21.333 -42.667 -61 -68.667 -119 -78
c-18 -2.66699 -35.333 -4 -52 -4c-30.667 0 -57.667 5 -81 15c-8.66699 4 -18 8.66699 -28 14l55 84c10 -5.33301 21.667 -8 35 -8c16.667 0 31 4 43 12s18 17.667 18 29c0 10.667 -6 20 -18 28s-26.333 12 -43 12c-7.33301 0 -14 -0.666992 -20 -2z" />
    <glyph glyph-name="scedilla" unicode="&#x15f;" horiz-adv-x="727" 
d="M300 3c-62 10 -115.001 37.334 -159.001 82.001c-57.333 57.333 -86 129 -86 215l180 45c0 -77.333 12.333 -128.333 37 -153s52 -37 82 -37s57.5 12.333 82.5 37s37.5 56.667 37.5 96c0 38 -13.333 70 -40 96c-16 15.333 -49.333 39.333 -100 72
c-68 37.333 -114.667 68.666 -140 93.999c-49.333 49.333 -74 106 -74 170c0 63.333 24 119.333 72 168s108 73 180 73s130 -22.333 174 -67c45.333 -45.333 68 -95 68 -149v-28l-162 -66c-10 75.333 -21.5 119.666 -34.5 132.999s-28.167 20 -45.5 20
s-33.666 -7.66699 -48.999 -23s-23 -35.666 -23 -60.999s8.66699 -46.666 26 -63.999c11.333 -12 37.666 -31 78.999 -57c75.333 -41.333 130.333 -79 165 -113c54.667 -56 82 -122 82 -198c0 -78 -28.333 -145.667 -85 -203c-46 -46.667 -101.667 -74.334 -167 -83.001
l-10 -27c38.667 -2.66699 70.334 -29.667 95.001 -81c10.667 -22.667 16 -44.667 16 -66c0 -20 -4.66699 -39 -14 -57c-21.333 -42.667 -61 -68.667 -119 -78c-18 -2.66699 -35.333 -4 -52 -4c-30.667 0 -57.667 5 -81 15c-8.66699 4 -18 8.66699 -28 14l54 84
c10.667 -5.33301 22.667 -8 36 -8c16.667 0 31 4 43 12s18 17.667 18 29c0 10.667 -6 20 -18 28s-26.333 12 -43 12c-7.33301 0 -14 -0.666992 -20 -2z" />
    <glyph glyph-name="Scaron" unicode="&#x160;" horiz-adv-x="1017" 
d="M511 757c-103.333 34 -186.334 82.3311 -249.001 144.998s-94 138.334 -94 227.001c0 86.667 32.5 162.834 97.5 228.501s145.833 98.5 242.5 98.5c95.333 0 177 -33.667 245 -101c35.333 -34.667 63 -83.334 83 -146.001l-162 -63c-20 54 -38 89 -54 105
c-32.667 33.333 -70 50 -112 50c-41.333 0 -78.166 -16.167 -110.499 -48.5s-48.5 -73.5 -48.5 -123.5c0 -49.333 16.667 -91.333 50 -126c34.667 -33.333 82 -64 142 -92c114.667 -37.333 210.667 -94.666 288 -171.999c88.667 -88 133 -192 133 -312
s-43.833 -223.833 -131.5 -311.5s-195.167 -131.5 -322.5 -131.5c-128 0 -236.333 45 -325 135c-69.333 68.667 -112 157.667 -128 267l174 63c10.667 -104.667 40.334 -181 89.001 -229c53.333 -53.333 116.666 -80 189.999 -80c74 0 138.5 27.5 193.5 82.5
s82.5 123.167 82.5 204.5s-27 149 -81 203c-54.667 54 -118.667 96.333 -192 127zM501.999 1514l-338 277h230l110 -86l117 86h231z" />
    <glyph glyph-name="scaron" unicode="&#x161;" horiz-adv-x="727" 
d="M334 456c-68 37.333 -114.667 68.666 -140 93.999c-49.333 49.333 -74 106 -74 170c0 63.333 24 119.333 72 168s108 73 180 73s130 -22.333 174 -67c45.333 -45.333 68 -95 68 -149v-28l-162 -66c-10 75.333 -21.5 119.666 -34.5 132.999s-28.167 20 -45.5 20
s-33.666 -7.66699 -48.999 -23s-23 -35.666 -23 -60.999s8.66699 -46.666 26 -63.999c11.333 -12 37.666 -31 78.999 -57c75.333 -41.333 130.333 -79 165 -113c54.667 -56 82 -122 82 -198c0 -78 -28.333 -145.667 -85 -203s-127.667 -86 -213 -86s-156.5 28.667 -213.5 86
s-85.5 129 -85.5 215l180 45c0 -77.333 12.333 -128.333 37 -153s52 -37 82 -37s57.5 12.333 82.5 37s37.5 56.667 37.5 96c0 38 -13.333 70 -40 96c-16 15.333 -49.333 39.333 -100 72zM348 989l-338 277h230l110 -86l117 86h231z" />
    <glyph glyph-name="Tcommaaccent" unicode="&#x162;" horiz-adv-x="931" 
d="M556 1282v-1282h-180v1282h-344v157h867v-157h-343zM393 -18c96.667 0 159.334 -11.332 188.001 -33.999c36 -28 54 -61 54 -99v-10c-4 -42.667 -29.667 -81.334 -77 -116.001c-42.667 -24 -87 -36 -133 -36c-25.333 0 -67 7.66699 -125 23l45 132
c48.667 -18.667 77.667 -28 87 -28s17.666 2 24.999 6c4.66699 3.33301 8 9 10 17v3c0 2.66699 -0.666992 4.66699 -2 6s-25.333 2.33301 -72 3v133z" />
    <glyph glyph-name="tcommaaccent" unicode="&#x163;" horiz-adv-x="584" 
d="M202 914v355h180v-355h170v-156h-170v-758h-180v758h-170v156h170zM201 -18c96.667 0 159.334 -11.332 188.001 -33.999c36 -28 54 -61 54 -99v-10c-4 -42.667 -29.667 -81.334 -77 -116.001c-42.667 -24 -87 -36 -133 -36c-25.333 0 -67 7.66699 -125 23l45 132
c48.667 -18.667 77.667 -28 87 -28s17.666 2 24.999 6c4.66699 3.33301 8 9 10 17v3c0 2.66699 -0.666992 4.66699 -2 6s-25.333 2.33301 -72 3v133z" />
    <glyph glyph-name="Tcaron" unicode="&#x164;" horiz-adv-x="931" 
d="M556 1282v-1282h-180v1282h-344v157h867v-157h-343zM459 1514l-338 277h230l110 -86l117 86h231z" />
    <glyph glyph-name="tcaron" unicode="&#x165;" horiz-adv-x="708" 
d="M202 914v355h180v-355h170v-156h-170v-758h-180v758h-170v156h170zM484 1203l-9.99902 22.999c-22.667 22 -34 48.333 -34 79c0 30 12.167 56.667 36.5 80s55.166 35 92.499 35c36.667 0 67.167 -11.667 91.5 -35s36.5 -50 36.5 -80c0 -15.333 -3 -30.666 -9 -45.999
l-97 -196h-159z" />
    <glyph glyph-name="Tbar" unicode="&#x166;" horiz-adv-x="931" 
d="M377 798v484h-344v157h867v-157h-343v-484h249v-156h-249v-642h-180v642h-251v156h251z" />
    <glyph glyph-name="tbar" unicode="&#x167;" horiz-adv-x="584" 
d="M203 758h-170v156h170v355h180v-355h170v-156h-170v-150h170v-157h-170v-451h-180v451h-170v157h170v150z" />
    <glyph glyph-name="Utilde" unicode="&#x168;" horiz-adv-x="1214" 
d="M921 1439h180.998v-1018c-15.333 -112.667 -63.666 -209.667 -144.999 -291c-94 -94.667 -210.333 -142 -349 -142c-140 0 -257.667 47.833 -353 143.5s-143 209.167 -143 340.5v967h181v-967c0 -92 31.333 -169.5 94 -232.5s136.334 -94.5 221.001 -94.5
c84 0 157.167 31.5 219.5 94.5s93.5 140.5 93.5 232.5v967zM538.998 1631c-1.33301 -14.667 -2.00098 -40.332 -2.00098 -76.999l-167 36c1.33301 47.333 5 80 11 98c15.333 46.667 44 78.667 86 96c14.667 6.66699 31 10 49 10c39.333 0 84.333 -18.333 135 -55l23 -16
c0.666992 14.667 1 39.667 1 75l169 -33c-2.66699 -48 -7 -81 -13 -99c-14.667 -46.667 -43.667 -79.334 -87 -98.001c-16 -5.33301 -31.667 -8 -47 -8c-39.333 0 -84.666 18.333 -135.999 55c-8.66699 6.66699 -16 12 -22 16z" />
    <glyph glyph-name="utilde" unicode="&#x169;" 
d="M483 -12c-121.333 0 -217.168 35.332 -287.501 105.999s-106.5 157.334 -108.5 260.001v561h181v-554c0 -61.333 21.667 -113.333 65 -156c40.667 -40.667 90.334 -61 149.001 -61c53.333 0 101 20.833 143 62.5s63 93.167 63 154.5v554h181v-561
c-2 -102.667 -38.667 -190 -110 -262c-69.333 -69.333 -161.333 -104 -276 -104zM409.998 1106c-1.33301 -14.667 -2.00098 -40.332 -2.00098 -76.999l-167 36c1.33301 47.333 5 80 11 98c15.333 46.667 44 78.667 86 96c14.667 6.66699 31 10 49 10
c39.333 0 84.333 -18.333 135 -55l23 -16c0.666992 14.667 1 39.667 1 75l169 -33c-2.66699 -48 -7 -81 -13 -99c-14.667 -46.667 -43.667 -79.334 -87 -98.001c-16 -5.33301 -31.667 -8 -47 -8c-39.333 0 -84.666 18.333 -135.999 55c-8.66699 6.66699 -16 12 -22 16z" />
    <glyph glyph-name="Umacron" unicode="&#x16a;" horiz-adv-x="1214" 
d="M921 1439h180.998v-1018c-15.333 -112.667 -63.666 -209.667 -144.999 -291c-94 -94.667 -210.333 -142 -349 -142c-140 0 -257.667 47.833 -353 143.5s-143 209.167 -143 340.5v967h181v-967c0 -92 31.333 -169.5 94 -232.5s136.334 -94.5 221.001 -94.5
c84 0 157.167 31.5 219.5 94.5s93.5 140.5 93.5 232.5v967zM304.998 1699h604v-140h-604v140z" />
    <glyph glyph-name="umacron" unicode="&#x16b;" 
d="M483 -12c-121.333 0 -217.168 35.332 -287.501 105.999s-106.5 157.334 -108.5 260.001v561h181v-554c0 -61.333 21.667 -113.333 65 -156c40.667 -40.667 90.334 -61 149.001 -61c53.333 0 101 20.833 143 62.5s63 93.167 63 154.5v554h181v-561
c-2 -102.667 -38.667 -190 -110 -262c-69.333 -69.333 -161.333 -104 -276 -104zM175.998 1174h604v-140h-604v140z" />
    <glyph glyph-name="Ubreve" unicode="&#x16c;" horiz-adv-x="1214" 
d="M921 1439h180.998v-1018c-15.333 -112.667 -63.666 -209.667 -144.999 -291c-94 -94.667 -210.333 -142 -349 -142c-140 0 -257.667 47.833 -353 143.5s-143 209.167 -143 340.5v967h181v-967c0 -92 31.333 -169.5 94 -232.5s136.334 -94.5 221.001 -94.5
c84 0 157.167 31.5 219.5 94.5s93.5 140.5 93.5 232.5v967zM863.998 1800c-20.667 -67.333 -45.3359 -115.333 -74.0029 -144c-48.667 -50 -109 -75 -181 -75c-73.333 0 -134.333 25 -183 75c-29.333 30 -54.666 78 -75.999 144h168c14 -26.667 25 -44 33 -52
c16.667 -16.667 36 -25 58 -25c20.667 0 39.334 8.66699 56.001 26c8.66699 7.33301 19.334 24.333 32.001 51h167z" />
    <glyph glyph-name="ubreve" unicode="&#x16d;" 
d="M483 -12c-121.333 0 -217.168 35.332 -287.501 105.999s-106.5 157.334 -108.5 260.001v561h181v-554c0 -61.333 21.667 -113.333 65 -156c40.667 -40.667 90.334 -61 149.001 -61c53.333 0 101 20.833 143 62.5s63 93.167 63 154.5v554h181v-561
c-2 -102.667 -38.667 -190 -110 -262c-69.333 -69.333 -161.333 -104 -276 -104zM734.998 1275c-20.667 -67.333 -45.3359 -115.333 -74.0029 -144c-48.667 -50 -109 -75 -181 -75c-73.333 0 -134.333 25 -183 75c-29.333 30 -54.666 78 -75.999 144h168
c14 -26.667 25 -44 33 -52c16.667 -16.667 36 -25 58 -25c20.667 0 39.334 8.66699 56.001 26c8.66699 7.33301 19.334 24.333 32.001 51h167z" />
    <glyph glyph-name="Uring" unicode="&#x16e;" horiz-adv-x="1214" 
d="M921 1439h180.998v-1018c-15.333 -112.667 -63.666 -209.667 -144.999 -291c-94 -94.667 -210.333 -142 -349 -142c-140 0 -257.667 47.833 -353 143.5s-143 209.167 -143 340.5v967h181v-967c0 -92 31.333 -169.5 94 -232.5s136.334 -94.5 221.001 -94.5
c84 0 157.167 31.5 219.5 94.5s93.5 140.5 93.5 232.5v967zM722.998 1707.5c30 -30.333 45 -64.833 45 -103.5s-15 -73 -45 -103s-68.667 -45 -116 -45c-46.667 0 -85 15 -115 45s-45 64.333 -45 103s15 73.167 45 103.5s68.333 45.5 115 45.5
c47.333 0 86 -15.167 116 -45.5zM606.998 1649c-14 0 -25.5 -4.5 -34.5 -13.5s-13.5 -19.5 -13.5 -31.5c0 -11.333 4.5 -21.5 13.5 -30.5s20.5 -13.5 34.5 -13.5c14.667 0 26.5 4.5 35.5 13.5s13.5 19.167 13.5 30.5c0 12 -4.5 22.5 -13.5 31.5s-20.833 13.5 -35.5 13.5z
" />
    <glyph glyph-name="uring" unicode="&#x16f;" 
d="M483 -12c-121.333 0 -217.168 35.332 -287.501 105.999s-106.5 157.334 -108.5 260.001v561h181v-554c0 -61.333 21.667 -113.333 65 -156c40.667 -40.667 90.334 -61 149.001 -61c53.333 0 101 20.833 143 62.5s63 93.167 63 154.5v554h181v-561
c-2 -102.667 -38.667 -190 -110 -262c-69.333 -69.333 -161.333 -104 -276 -104zM592.998 1182.5c30 -30.333 45 -64.833 45 -103.5s-15 -73 -45 -103s-68.667 -45 -116 -45c-46.667 0 -85 15 -115 45s-45 64.333 -45 103s15 73.167 45 103.5s68.333 45.5 115 45.5
c47.333 0 86 -15.167 116 -45.5zM476.998 1124c-14 0 -25.5 -4.5 -34.5 -13.5s-13.5 -19.5 -13.5 -31.5c0 -11.333 4.5 -21.5 13.5 -30.5s20.5 -13.5 34.5 -13.5c14.667 0 26.5 4.5 35.5 13.5s13.5 19.167 13.5 30.5c0 12 -4.5 22.5 -13.5 31.5s-20.833 13.5 -35.5 13.5z
" />
    <glyph glyph-name="Uhungarumlaut" unicode="&#x170;" horiz-adv-x="1214" 
d="M921 1439h180.998v-1018c-15.333 -112.667 -63.666 -209.667 -144.999 -291c-94 -94.667 -210.333 -142 -349 -142c-140 0 -257.667 47.833 -353 143.5s-143 209.167 -143 340.5v967h181v-967c0 -92 31.333 -169.5 94 -232.5s136.334 -94.5 221.001 -94.5
c84 0 157.167 31.5 219.5 94.5s93.5 140.5 93.5 232.5v967zM705.998 1791l-313 -238h-189l208 238h294zM1010 1791l-312 -238h-190l208 238h294z" />
    <glyph glyph-name="uhungarumlaut" unicode="&#x171;" 
d="M483 -12c-121.333 0 -217.168 35.332 -287.501 105.999s-106.5 157.334 -108.5 260.001v561h181v-554c0 -61.333 21.667 -113.333 65 -156c40.667 -40.667 90.334 -61 149.001 -61c53.333 0 101 20.833 143 62.5s63 93.167 63 154.5v554h181v-561
c-2 -102.667 -38.667 -190 -110 -262c-69.333 -69.333 -161.333 -104 -276 -104zM576.998 1266l-313 -238h-189l208 238h294zM880.998 1266l-312 -238h-190l208 238h294z" />
    <glyph glyph-name="Uogonek" unicode="&#x172;" horiz-adv-x="1214" 
d="M803 25c-59.333 -24.667 -124.335 -37 -195.002 -37c-140 0 -257.667 47.833 -353 143.5s-143 209.167 -143 340.5v967h181v-967c0 -92 31.333 -169.5 94 -232.5s136.334 -94.5 221.001 -94.5c84 0 157.167 31.5 219.5 94.5s93.5 140.5 93.5 232.5v967h181v-1018
c-15.333 -112.667 -63.666 -209.667 -144.999 -291l-6 -6c-29.333 -60.667 -44 -109 -44 -145c0 -11.333 4.5 -21.5 13.5 -30.5s20.5 -13.5 34.5 -13.5c6.66699 0 13 1 19 3l13 -104c-10 -2 -20.667 -3 -32 -3c-46.667 0 -85 15 -115 45s-45 64.333 -45 103
c0 16 2.66699 31.333 8 46z" />
    <glyph glyph-name="uogonek" unicode="&#x173;" 
d="M638 14c-46 -17.333 -97.667 -26 -155 -26c-121.333 0 -217.166 35.333 -287.499 106s-106.5 157.334 -108.5 260.001v561h181v-554c0 -61.333 21.667 -113.333 65 -156c40.667 -40.667 90.334 -61 149.001 -61c53.333 0 101 20.833 143 62.5s63 93.167 63 154.5v554h181
v-561c-1.33301 -85.333 -27 -160 -77 -224c-24.667 -48.667 -39.334 -94.667 -44.001 -138c0 -11.333 4.5 -21.5 13.5 -30.5s20.5 -13.5 34.5 -13.5c6.66699 0 13 1 19 3l13 -105c-10.667 -1.33301 -21.334 -2 -32.001 -2c-46.667 0 -85 15 -115 45s-45 64.333 -45 103
c0 7.33301 0.666992 14.666 2 21.999z" />
    <glyph glyph-name="Wcircumflex" unicode="&#x174;" horiz-adv-x="1665" 
d="M893 1079l291 -751l298 1111h183l-386 -1439h-158l-288 758l-289 -758h-158l-386 1439h184l299 -1111l289 751h121zM1177 1560h-231l-117 87l-110 -87h-230l338 278z" />
    <glyph glyph-name="wcircumflex" unicode="&#x175;" horiz-adv-x="1184" 
d="M1185 914l-311 -914h-127l-155 433l-154 -433h-129l-309 914h195l183 -568l154 426h122l153 -426l182 568h196zM936 1035h-231l-117 87l-110 -87h-230l338 278z" />
    <glyph glyph-name="Ycircumflex" unicode="&#x176;" horiz-adv-x="1233" 
d="M526 582l-494 857h200l385 -666l384 666h200l-494 -857v-582h-181v582zM960 1560h-231l-117 87l-110 -87h-230l338 278z" />
    <glyph glyph-name="ycircumflex" unicode="&#x177;" horiz-adv-x="896" 
d="M307 -317h-195l238 512l-335 719h195l238 -505l238 505h195zM792 1035h-231l-117 87l-110 -87h-230l338 278z" />
    <glyph glyph-name="Ydieresis" unicode="&#x178;" horiz-adv-x="1233" 
d="M526 582l-494 857h200l385 -666l384 666h200l-494 -857v-582h-181v582zM566.5 1760.5c24.333 -23.667 36.5 -50.167 36.5 -79.5c0 -30.667 -12.167 -57.834 -36.5 -81.501s-54.833 -35.5 -91.5 -35.5c-38 0 -69 11.833 -93 35.5s-36 50.834 -36 81.501
c0 29.333 12 55.833 36 79.5s55 35.5 93 35.5c36.667 0 67.167 -11.833 91.5 -35.5zM851 1760.5c24 -23.667 36 -50.167 36 -79.5c0 -30.667 -12 -57.834 -36 -81.501s-54.667 -35.5 -92 -35.5s-68.166 11.833 -92.499 35.5s-36.5 50.834 -36.5 81.501
c0 29.333 12.167 55.833 36.5 79.5s55.166 35.5 92.499 35.5s68 -11.833 92 -35.5z" />
    <glyph glyph-name="Zacute" unicode="&#x179;" horiz-adv-x="1168" 
d="M823 1282h-615v157h906l-740 -1282h780v-157h-1070zM953 1798l-313 -239h-189l208 239h294z" />
    <glyph glyph-name="zacute" unicode="&#x17a;" horiz-adv-x="850" 
d="M492 746h-402v156h693l-431 -745h436v-157h-726zM760 1273l-313 -239h-189l208 239h294z" />
    <glyph glyph-name="Zdotaccent" unicode="&#x17b;" horiz-adv-x="1168" 
d="M823 1282h-615v157h906l-740 -1282h780v-157h-1070zM703 1770c22 -21.333 33 -45.666 33 -72.999c0 -26.667 -11 -50.667 -33 -72s-50 -32 -84 -32s-62 10.667 -84 32s-33 45.333 -33 72c0 27.333 11 51.666 33 72.999s50 32 84 32s62 -10.667 84 -32z" />
    <glyph glyph-name="zdotaccent" unicode="&#x17c;" horiz-adv-x="850" 
d="M492 746h-402v156h693l-431 -745h436v-157h-726zM509 1245c22 -21.333 33 -45.666 33 -72.999c0 -26.667 -11 -50.667 -33 -72s-50 -32 -84 -32s-62 10.667 -84 32s-33 45.333 -33 72c0 27.333 11 51.666 33 72.999s50 32 84 32s62 -10.667 84 -32z" />
    <glyph glyph-name="Zcaron" unicode="&#x17d;" horiz-adv-x="1168" 
d="M823 1282h-615v157h906l-740 -1282h780v-157h-1070zM613 1514l-338 277h230l110 -86l117 86h231z" />
    <glyph glyph-name="zcaron" unicode="&#x17e;" horiz-adv-x="850" 
d="M492 746h-402v156h693l-431 -745h436v-157h-726zM419 989l-338 277h230l110 -86l117 86h231z" />
    <glyph glyph-name="longs" unicode="&#x17f;" horiz-adv-x="483" 
d="M291 0h-181v1101c4.66699 71.333 32.334 133.333 83.001 186c58 53.333 125 80 201 80c39.333 0 93.666 -12 162.999 -36l-53 -150c-54 23.333 -88 35 -102 35c-24 0 -48.333 -11 -73 -33c-24 -24 -36.667 -53.667 -38 -89v-1094z" />
    <glyph glyph-name="florin" unicode="&#x192;" horiz-adv-x="488" 
d="M296 0h-1v-28c-7.33301 -187.333 -124 -281 -350 -281v152c108.667 0 165.334 43 170.001 129v786h-85v156h85v187c4 71.333 31.667 133.333 83 186c58 53.333 125 80 201 80c39.333 0 93.666 -12 162.999 -36l-53 -150c-54.667 23.333 -88.667 35 -102 35
c-24 0 -48.333 -11 -73 -33c-24 -24 -36.667 -53.667 -38 -89v-180h170v-156h-170v-758z" />
    <glyph glyph-name="Aringacute" unicode="&#x1fa;" horiz-adv-x="1210" 
d="M753 687l-147 387l-148 -387h295zM546 1563l96 135h291l-214 -173c27.333 -28.667 41 -61.667 41 -99c0 -36.667 -15 -70 -45 -100l-8 -15l500 -1311h-188l-208 531h-411l-212 -531h-189l505 1310l-15 20c-27.333 27.333 -41 59.333 -41 96c0 37.333 15 71.333 45 102
c19.333 19.333 37 31 53 35zM599 1470c-11.333 0 -20.666 -3.83301 -27.999 -11.5s-11 -16.834 -11 -27.501s3.66699 -19.834 11 -27.501s16.666 -11.5 27.999 -11.5c10.667 0 19.834 3.83301 27.501 11.5s11.5 16.834 11.5 27.501s-3.83301 19.834 -11.5 27.501
s-16.834 11.5 -27.501 11.5z" />
    <glyph glyph-name="aringacute" unicode="&#x1fb;" horiz-adv-x="1188" 
d="M918 410v146c-12.667 66 -43 123 -91 171c-67.333 68 -145.666 102 -234.999 102c-90 0 -168 -33.333 -234 -100s-99 -149 -99 -247c0 -97.333 33 -179 99 -245s144 -99 234 -99c89.333 0 167.666 33.667 234.999 101c48 48 78.333 105 91 171zM582 1115
c-11.333 0 -20.666 -3.83301 -27.999 -11.5s-11 -16.834 -11 -27.501s3.66699 -19.834 11 -27.501s16.666 -11.5 27.999 -11.5c10.667 0 19.834 3.83301 27.501 11.5s11.5 16.834 11.5 27.501s-3.83301 19.834 -11.5 27.501s-16.834 11.5 -27.501 11.5zM702 976
c92 -24 164 -80.333 216 -169v107h181v-914h-181v160c-71.333 -122.667 -180 -184 -326 -184c-144.667 0 -267.167 50.167 -367.5 150.5s-150.5 218.833 -150.5 355.5c0 138 50.333 257 151 357c70.667 70.667 152.667 116.334 246 137.001c-26.667 27.333 -40 59 -40 95
c0 37.333 15 71.333 45 102c19.333 19.333 37 31 53 35l26 65h291l-144 -103c27.333 -28.667 41 -61.667 41 -99c0 -34.667 -13.667 -66.334 -41 -95.001z" />
    <glyph glyph-name="AEacute" unicode="&#x1fc;" horiz-adv-x="1514" 
d="M1402 798v-157h-602v-484h602v-157h-782v521h-199l-231 -521h-191l625 1439h778v-157h-602v-484h602zM620 677v317l-136 -317h136zM1035 1798l-313 -239h-189l208 239h294z" />
    <glyph glyph-name="aeacute" unicode="&#x1fd;" horiz-adv-x="1908" 
d="M883 653c-16 28 -34.667 52.667 -56 74c-67.333 68 -145.666 102 -234.999 102c-90 0 -168 -33.333 -234 -100s-99 -149 -99 -247c0 -97.333 33 -179 99 -245s144 -99 234 -99c89.333 0 167.666 33.667 234.999 101c21.333 21.333 40 46 56 74c17.333 30.667 29 63 35 97
v146c-6 34 -17.667 66.333 -35 97zM1658 643c-6.66699 20.667 -29.334 50.001 -68.001 88.001c-64 65.333 -140.667 98 -230 98c-90 0 -168.667 -34 -236 -102c-11.333 -10.667 -19.666 -20.334 -24.999 -29.001v-55h559zM1099 267.001
c5.33301 -8 14.998 -18.665 28.998 -31.998c64.667 -64.667 142 -97 232 -97c89.333 0 166.333 32.333 231 97c12 12 30.667 34.667 56 68l171 -61c-25.333 -42.667 -54.666 -80.334 -87.999 -113.001c-101.333 -102 -224.666 -153 -369.999 -153
c-137.333 0 -224.333 17.333 -261 52v-28h-181v160c-71.333 -122.667 -180 -184 -326 -184c-144.667 0 -267.167 50.167 -367.5 150.5s-150.5 218.833 -150.5 355.5c0 138 50.167 257 150.5 357s222.833 150 367.5 150c146 0 254.667 -60.667 326 -182v107h181
c36.667 50 123.667 75 261 75c145.333 0 267.333 -49.333 366 -148c90 -90.667 137.333 -209.334 142 -356.001l-769 1v-219zM1306 1273l-313 -239h-189l208 239h294z" />
    <glyph glyph-name="Oslashacute" unicode="&#x1fe;" horiz-adv-x="1693" 
d="M1009 1280c-34.667 14 -88.999 20.999 -162.999 20.999c-153.333 0 -286 -56.167 -398 -168.5s-168 -249.166 -168 -410.499c0 -162.667 55.333 -299.667 166 -411c43.333 -42.667 69.666 -67 78.999 -73zM683.001 161.999c35.333 -13.333 89.667 -20 163 -20
c154 0 287 56 399 168s168 249.333 168 412c0 161.333 -56.667 299.333 -170 414c-40.667 40 -65.667 62.667 -75 68zM1237 1353c40.667 -22 88.334 -60 143.001 -114c143.333 -144 215 -316.333 215 -517c0 -202 -72.5 -375.5 -217.5 -520.5s-322.167 -217.5 -531.5 -217.5
c-101.333 0 -178.333 10.667 -231 32l-74 -160l-159 76l74 158c-41.333 22 -89 60 -143 114c-143.333 143.333 -215 316 -215 518c0 200.667 72.5 373.667 217.5 519s321.833 218 530.5 218c101.333 0 178.666 -10.667 231.999 -32l74 158l159 -73zM1181 1798l-313 -239
h-189l208 239h294z" />
    <glyph glyph-name="oslashacute" unicode="&#x1ff;" horiz-adv-x="1145" 
d="M666 819c-13.333 6.66699 -44.333 9.99902 -93 9.99902c-90 0 -168 -33.167 -234 -99.5s-99 -148.5 -99 -246.5c0 -97.333 32.333 -178.666 97 -243.999zM816 729.999l-336.999 -582c14 -6 45.333 -9 94 -9c89.333 0 167.166 33 233.499 99s99.5 147.667 99.5 245
c0 98 -30 180.333 -90 247zM246.001 89.999c-6.66699 4.66699 -21.333 17.667 -44 39c-98 99.333 -147 217.333 -147 354c0 138 50.167 257 150.5 357s222.833 150 367.5 150c82 0 141.333 -8.66699 178 -26l104 183l154 -82l-108 -187c6 -4.66699 20.333 -18 43 -40
c97.333 -98.667 146 -217 146 -355c0 -136.667 -49.667 -255.167 -149 -355.5s-222 -150.5 -368 -150.5c-82.667 0 -141.667 8.66699 -177 26l-104 -180l-156 73zM907.002 1273l-313 -239h-189l208 239h294z" />
    <glyph glyph-name="Scommaaccent" unicode="&#x218;" horiz-adv-x="1017" 
d="M511 757c-103.333 34 -186.334 82.3311 -249.001 144.998s-94 138.334 -94 227.001c0 86.667 32.5 162.834 97.5 228.501s145.833 98.5 242.5 98.5c95.333 0 177 -33.667 245 -101c35.333 -34.667 63 -83.334 83 -146.001l-162 -63c-20 54 -38 89 -54 105
c-32.667 33.333 -70 50 -112 50c-41.333 0 -78.166 -16.167 -110.499 -48.5s-48.5 -73.5 -48.5 -123.5c0 -49.333 16.667 -91.333 50 -126c34.667 -33.333 82 -64 142 -92c114.667 -37.333 210.667 -94.666 288 -171.999c88.667 -88 133 -192 133 -312
s-43.833 -223.833 -131.5 -311.5s-195.167 -131.5 -322.5 -131.5c-128 0 -236.333 45 -325 135c-69.333 68.667 -112 157.667 -128 267l174 63c10.667 -104.667 40.334 -181 89.001 -229c53.333 -53.333 116.666 -80 189.999 -80c74 0 138.5 27.5 193.5 82.5
s82.5 123.167 82.5 204.5s-27 149 -81 203c-54.667 54 -118.667 96.333 -192 127zM444.999 -225.002l-7.99902 13.999c-18 14 -27 30.333 -27 49s9.66699 35.334 29 50.001s43.666 22 72.999 22c28.667 0 52.667 -7.33301 72 -22s29 -31.334 29 -50.001
c0 -9.33301 -2.33301 -18.666 -7 -27.999l-77 -122h-125z" />
    <glyph glyph-name="scommaaccent" unicode="&#x219;" horiz-adv-x="727" 
d="M334 456c-68 37.333 -114.667 68.666 -140 93.999c-49.333 49.333 -74 106 -74 170c0 63.333 24 119.333 72 168s108 73 180 73s130 -22.333 174 -67c45.333 -45.333 68 -95 68 -149v-28l-162 -66c-10 75.333 -21.5 119.666 -34.5 132.999s-28.167 20 -45.5 20
s-33.666 -7.66699 -48.999 -23s-23 -35.666 -23 -60.999s8.66699 -46.666 26 -63.999c11.333 -12 37.666 -31 78.999 -57c75.333 -41.333 130.333 -79 165 -113c54.667 -56 82 -122 82 -198c0 -78 -28.333 -145.667 -85 -203s-127.667 -86 -213 -86s-156.5 28.667 -213.5 86
s-85.5 129 -85.5 215l180 45c0 -77.333 12.333 -128.333 37 -153s52 -37 82 -37s57.5 12.333 82.5 37s37.5 56.667 37.5 96c0 38 -13.333 70 -40 96c-16 15.333 -49.333 39.333 -100 72zM290 -225l-7.99902 13.999c-18 14 -27 30.333 -27 49s9.66699 35.334 29 50.001
s43.666 22 72.999 22c28.667 0 52.667 -7.33301 72 -22s29 -31.334 29 -50.001c0 -9.33301 -2.33301 -18.666 -7 -27.999l-77 -122h-125z" />
    <glyph glyph-name="uni021A" unicode="&#x21a;" horiz-adv-x="931" 
d="M377 1282h-344v157h867v-157h-343v-1282h-180v1282zM403 -225l-7.99902 13.999c-18 14 -27 30.333 -27 49s9.66699 35.334 29 50.001s43.666 22 72.999 22c28.667 0 52.667 -7.33301 72 -22s29 -31.334 29 -50.001c0 -9.33301 -2.33301 -18.666 -7 -27.999l-77 -122h-125
z" />
    <glyph glyph-name="uni021B" unicode="&#x21b;" horiz-adv-x="584" 
d="M203 758h-170v156h170v355h180v-355h170v-156h-170v-758h-180v758zM229 -225l-7 13.999c-18 14 -27 30.333 -27 49s9.5 35.334 28.5 50.001s43.5 22 73.5 22c28.667 0 52.667 -7.33301 72 -22s29 -31.334 29 -50.001c0 -9.33301 -2.66699 -18.666 -8 -27.999l-76 -122
h-126z" />
    <glyph glyph-name="circumflex" unicode="&#x2c6;" horiz-adv-x="878" 
d="M783 1035h-231l-117 87l-110 -87h-230l338 278z" />
    <glyph glyph-name="caron" unicode="&#x2c7;" horiz-adv-x="878" 
d="M433 989l-338 277h230l110 -86l117 86h231z" />
    <glyph glyph-name="uni02C9" unicode="&#x2c9;" horiz-adv-x="754" 
d="M75 1174h604v-140h-604v140z" />
    <glyph glyph-name="breve" unicode="&#x2d8;" horiz-adv-x="681" 
d="M597 1275c-20.667 -67.333 -45.3359 -115.333 -74.0029 -144c-48.667 -50 -109 -75 -181 -75c-73.333 0 -134.333 25 -183 75c-29.333 30 -54.666 78 -75.999 144h168c14 -26.667 25 -44 33 -52c16.667 -16.667 36 -25 58 -25c20.667 0 39.334 8.66699 56.001 26
c8.66699 7.33301 19.334 24.333 32.001 51h167z" />
    <glyph glyph-name="dotaccent" unicode="&#x2d9;" horiz-adv-x="384" 
d="M276 1245c22 -21.333 33 -45.666 33 -72.999c0 -26.667 -11 -50.667 -33 -72s-50 -32 -84 -32s-62 10.667 -84 32s-33 45.333 -33 72c0 27.333 11 51.666 33 72.999s50 32 84 32s62 -10.667 84 -32z" />
    <glyph glyph-name="ring" unicode="&#x2da;" horiz-adv-x="589" 
d="M410 1182.5c30 -30.333 45 -64.833 45 -103.5s-15 -73 -45 -103s-68.667 -45 -116 -45c-46.667 0 -85 15 -115 45s-45 64.333 -45 103s15 73.167 45 103.5s68.333 45.5 115 45.5c47.333 0 86 -15.167 116 -45.5zM294 1124c-14 0 -25.5 -4.5 -34.5 -13.5
s-13.5 -19.5 -13.5 -31.5c0 -11.333 4.5 -21.5 13.5 -30.5s20.5 -13.5 34.5 -13.5c14.667 0 26.5 4.5 35.5 13.5s13.5 19.167 13.5 30.5c0 12 -4.5 22.5 -13.5 31.5s-20.833 13.5 -35.5 13.5z" />
    <glyph glyph-name="ogonek" unicode="&#x2db;" horiz-adv-x="535" 
d="M303 -17c-14 0 -25.501 -4.50098 -34.501 -13.501s-13.5 -19.5 -13.5 -31.5c0 -11.333 4.5 -21.5 13.5 -30.5s20.5 -13.5 34.5 -13.5c6.66699 0 13 1 19 3l13 -105c-10 -1.33301 -20.667 -2 -32 -2c-46.667 0 -85 15 -115 45s-45 64.333 -45 103s15 73.334 45 104.001
c28.667 28.667 65.334 43.667 110.001 45l13 -104h-8z" />
    <glyph glyph-name="tilde" unicode="&#x2dc;" horiz-adv-x="625" 
d="M244 1106c-1.33301 -14.667 -2.00098 -40.332 -2.00098 -76.999l-167 36c1.33301 47.333 5 80 11 98c15.333 46.667 44 78.667 86 96c14.667 6.66699 31 10 49 10c39.333 0 84.333 -18.333 135 -55l23 -16c0.666992 14.667 1 39.667 1 75l169 -33
c-2.66699 -48 -7 -81 -13 -99c-14.667 -46.667 -43.667 -79.334 -87 -98.001c-16 -5.33301 -31.667 -8 -47 -8c-39.333 0 -84.666 18.333 -135.999 55c-8.66699 6.66699 -16 12 -22 16z" />
    <glyph glyph-name="hungarumlaut" unicode="&#x2dd;" horiz-adv-x="854" 
d="M526 1266l-313 -238h-189l208 238h294zM830 1266l-312 -238h-190l208 238h294z" />
    <glyph glyph-name="tonos" unicode="&#x384;" horiz-adv-x="597" 
d="M577 1439l-313 -238h-189l208 238h294z" />
    <glyph glyph-name="dieresistonos" unicode="&#x385;" horiz-adv-x="795" 
d="M637 1439l-236 -238h-158l131 238h263zM715.5 1356.5c19.667 -19 29.5 -39.833 29.5 -62.5c0 -24.667 -9.83301 -46.5 -29.5 -65.5s-44.5 -28.5 -74.5 -28.5c-31.333 0 -56.833 9.5 -76.5 28.5s-29.5 40.833 -29.5 65.5c0 22.667 9.83301 43.5 29.5 62.5
s45.167 28.5 76.5 28.5c30 0 54.833 -9.5 74.5 -28.5zM231 1356.5c20 -19 30 -39.833 30 -62.5c0 -24.667 -10 -46.5 -30 -65.5s-45 -28.5 -75 -28.5c-31.333 0 -56.833 9.5 -76.5 28.5s-29.5 40.833 -29.5 65.5c0 22.667 9.83301 43.5 29.5 62.5s45.167 28.5 76.5 28.5
c30 0 55 -9.5 75 -28.5z" />
    <glyph glyph-name="Alphatonos" unicode="&#x386;" horiz-adv-x="1093" 
d="M403 1439l-314 -238h-189l208 238h295zM703 754l-138 382l-139 -382h277zM644 1439l521 -1439h-188l-217 598h-391l-221 -598h-189l528 1439h157z" />
    <glyph glyph-name="anoteleia" unicode="&#x387;" horiz-adv-x="344" 
d="M256 1091c22 -21.333 33 -45.333 33 -72c0 -27.333 -11 -51.666 -33 -72.999s-50 -32 -84 -32s-62 10.667 -84 32s-33 45.666 -33 72.999c0 26.667 11 50.667 33 72s50 32 84 32s62 -10.667 84 -32z" />
    <glyph glyph-name="Epsilontonos" unicode="&#x388;" horiz-adv-x="1151" 
d="M209 1439l-313 -238h-189l208 238h294zM1058 1439v-157h-602v-484h602v-157h-602v-484h602v-157h-783v1439h783z" />
    <glyph glyph-name="Etatonos" unicode="&#x389;" horiz-adv-x="1343" 
d="M212 1439l-313 -238h-189l208 238h294zM459 641v-641h-181v1439h181v-641h591v641h181v-1439h-181v641h-591z" />
    <glyph glyph-name="Iotatonos" unicode="&#x38a;" horiz-adv-x="535" 
d="M199 1439l-313 -238h-189l208 238h294zM439 1439v-1439h-181v1439h181z" />
    <glyph glyph-name="Omicrontonos" unicode="&#x38c;" horiz-adv-x="1623" 
d="M285 1439l-313 -238h-189l208 238h294zM1315.5 1241c145 -145.333 217.5 -318.333 217.5 -519c0 -202 -72.5 -375.5 -217.5 -520.5s-322.167 -217.5 -531.5 -217.5c-208.667 0 -385.5 72.5 -530.5 217.5s-217.5 318.5 -217.5 520.5c0 200.667 72.5 373.667 217.5 519
s321.833 218 530.5 218c209.333 0 386.5 -72.667 531.5 -218zM784 1301c-154 0 -287 -56.167 -399 -168.5s-168 -249.166 -168 -410.499c0 -162.667 56 -300 168 -412s245 -168 399 -168s287 56 399 168s168 249.333 168 412c0 161.333 -56 298.166 -168 410.499
s-245 168.5 -399 168.5z" />
    <glyph glyph-name="Upsilontonos" unicode="&#x38e;" horiz-adv-x="1322" 
d="M141 1439l-313 -238h-189l208 238h294zM676 582l-494 857h200l384 -666l384 666h201l-494 -857v-582h-181v582z" />
    <glyph glyph-name="Omegatonos" unicode="&#x38f;" horiz-adv-x="1464" 
d="M266 1439l-313 -238h-189l208 238h294zM720 1459c199.333 0 357.833 -69 475.5 -207s176.5 -319.333 176.5 -544c0 -167.333 -110 -351 -330 -551h243v-157h-465v147c71.333 32 151 94.333 239 187s132 217.334 132 374.001c0 188.667 -44 336.667 -132 444
s-202.667 161 -344 161h-4c-142 0 -256.833 -53.667 -344.5 -161s-131.5 -255.333 -131.5 -444c0 -156.667 43.833 -281.334 131.5 -374.001s167.167 -155 238.5 -187v-147h-465v157h244c-220.667 200 -331 383.667 -331 551c0 224.667 59 406 177 544s276.667 207 476 207
h14z" />
    <glyph glyph-name="iotadieresistonos" unicode="&#x390;" horiz-adv-x="470" 
d="M326 914v-914h-180v914h180zM475 1279l-236 -238h-158l131 238h263zM553.5 1196.5c19.667 -19 29.5 -39.833 29.5 -62.5c0 -24.667 -9.83301 -46.5 -29.5 -65.5s-44.5 -28.5 -74.5 -28.5c-31.333 0 -56.833 9.5 -76.5 28.5s-29.5 40.833 -29.5 65.5
c0 22.667 9.83301 43.5 29.5 62.5s45.167 28.5 76.5 28.5c30 0 54.833 -9.5 74.5 -28.5zM69 1196.5c20 -19 30 -39.833 30 -62.5c0 -24.667 -10 -46.5 -30 -65.5s-45 -28.5 -75 -28.5c-31.333 0 -56.833 9.5 -76.5 28.5s-29.5 40.833 -29.5 65.5
c0 22.667 9.83301 43.5 29.5 62.5s45.167 28.5 76.5 28.5c30 0 55 -9.5 75 -28.5z" />
    <glyph glyph-name="Alpha" unicode="&#x391;" horiz-adv-x="1208" 
d="M743 754l-138 382l-139 -382h277zM684 1439l521 -1439h-188l-217 598h-391l-221 -598h-189l528 1439h157z" />
    <glyph glyph-name="Beta" unicode="&#x392;" horiz-adv-x="1102" 
d="M555 157c83.333 0 156.166 31.166 218.499 93.499s93.5 139.833 93.5 232.5s-31.167 170.334 -93.5 233.001s-135.166 94 -218.499 94h-262v-653h262zM293 1283l0.00195312 -316.001h290c39.333 4 69.666 17 90.999 39c29.333 28.667 44 67 44 115
c0 46.667 -15.333 85.334 -46 116.001s-65.334 46 -104.001 46h-275zM910.002 820.998c93.333 -93.333 140 -206.001 140 -338.001c0 -130.667 -48.333 -244.334 -145 -341.001c-78 -78.667 -176.667 -126 -296 -142h-497v1439h457c94 0 172.667 -31.667 236 -95
s95 -137.666 95 -222.999c0 -86 -31 -159.667 -93 -221c22 -5.33301 56.333 -31.666 103 -78.999z" />
    <glyph glyph-name="Gamma" unicode="&#x393;" horiz-adv-x="832" 
d="M810 1439v-157h-517v-1282h-181v1439h698z" />
    <glyph glyph-name="uni0394" unicode="&#x394;" horiz-adv-x="1195" 
d="M44 1h-74l524 1438h171l530 -1439h-1151v1zM948 157l-369 999l-364 -999h733z" />
    <glyph glyph-name="Epsilon" unicode="&#x395;" horiz-adv-x="985" 
d="M895 1439v-157h-602v-484h602v-157h-602v-484h602v-157h-783v1439h783z" />
    <glyph glyph-name="Zeta" unicode="&#x396;" horiz-adv-x="1168" 
d="M823 1282h-615v157h906l-740 -1282h780v-157h-1070z" />
    <glyph glyph-name="Eta" unicode="&#x397;" horiz-adv-x="1173" 
d="M291 641v-641h-181v1439h181v-641h591v641h181v-1439h-181v641h-591z" />
    <glyph glyph-name="Theta" unicode="&#x398;" horiz-adv-x="1621" 
d="M1341.5 1241c145 -145.333 217.5 -318.333 217.5 -519c0 -202 -72.5 -375.5 -217.5 -520.5s-322.167 -217.5 -531.5 -217.5c-208.667 0 -385.5 72.5 -530.5 217.5s-217.5 318.5 -217.5 520.5c0 200.667 72.5 373.667 217.5 519s321.833 218 530.5 218
c209.333 0 386.5 -72.667 531.5 -218zM810 1301c-153.333 0 -286 -56.167 -398 -168.5s-168 -249.166 -168 -410.499c0 -162.667 56 -300 168 -412s244.667 -168 398 -168c154 0 287 56 399 168s168 249.333 168 412c0 161.333 -56 298.166 -168 410.499
s-245 168.5 -399 168.5zM375 800h872v-157h-872v157z" />
    <glyph glyph-name="Iota" unicode="&#x399;" horiz-adv-x="425" 
d="M303 1439v-1439h-181v1439h181z" />
    <glyph glyph-name="Kappa" unicode="&#x39a;" horiz-adv-x="1102" 
d="M874 1439l-380 -550l622 -889h-211l-518 741l-94 -135v-606h-181v1439h181v-532l371 532h210z" />
    <glyph glyph-name="Lambda" unicode="&#x39b;" horiz-adv-x="1225" 
d="M695 1439l530 -1439h-189l-427 1156l-421 -1155h-188l524 1438h171z" />
    <glyph glyph-name="Mu" unicode="&#x39c;" horiz-adv-x="1496" 
d="M1403 1439v-1439h-181v1170l-473 -621l-474 621v-1170h-181v1439h193l462 -605l461 605h193z" />
    <glyph glyph-name="Nu" unicode="&#x39d;" horiz-adv-x="1398" 
d="M288 1439l820 -1150v1150h181v-1439h-200l-799 1121v-1121h-181v1439h179z" />
    <glyph glyph-name="Xi" unicode="&#x39e;" horiz-adv-x="1164" 
d="M145 800h872v-157h-872v157zM50 1440h1064v-157h-1064v157zM50 158h1064v-157h-1064v157z" />
    <glyph glyph-name="Omicron" unicode="&#x39f;" horiz-adv-x="1621" 
d="M1341.5 1241c145 -145.333 217.5 -318.333 217.5 -519c0 -202 -72.5 -375.5 -217.5 -520.5s-322.167 -217.5 -531.5 -217.5c-208.667 0 -385.5 72.5 -530.5 217.5s-217.5 318.5 -217.5 520.5c0 200.667 72.5 373.667 217.5 519s321.833 218 530.5 218
c209.333 0 386.5 -72.667 531.5 -218zM810 1301c-153.333 0 -286 -56.167 -398 -168.5s-168 -249.166 -168 -410.499c0 -162.667 56 -300 168 -412s244.667 -168 398 -168c154 0 287 56 399 168s168 249.333 168 412c0 161.333 -56 298.166 -168 410.499
s-245 168.5 -399 168.5z" />
    <glyph glyph-name="Pi" unicode="&#x3a0;" horiz-adv-x="1141" 
d="M275 1282v-1282h-181v1439h953v-1439h-181v1282h-591z" />
    <glyph glyph-name="Rho" unicode="&#x3a1;" horiz-adv-x="1032" 
d="M293 471l-0.000976562 -471h-181v1439h412c120 -16 220.333 -64.667 301 -146c94 -94 141 -206.333 141 -337c0 -131.333 -47.667 -245 -143 -341s-212.666 -144 -351.999 -144h-178zM292.999 1281v-651.999h178c84 0 157.333 31.167 220 93.5s94 140.166 94 233.499
c0 92.667 -31.333 170 -94 232s-136 93 -220 93h-178z" />
    <glyph glyph-name="Sigma" unicode="&#x3a3;" horiz-adv-x="1125" 
d="M24 1438h1077v-157h-848l463 -562l-463 -562h848v-157h-1077v163l470 556l-470 557v162z" />
    <glyph glyph-name="Tau" unicode="&#x3a4;" horiz-adv-x="971" 
d="M576 1282v-1282h-180v1282h-344v157h867v-157h-343z" />
    <glyph glyph-name="Upsilon" unicode="&#x3a5;" horiz-adv-x="1169" 
d="M526 582l-494 857h200l385 -666l384 666h200l-494 -857v-582h-181v582z" />
    <glyph glyph-name="Phi" unicode="&#x3a6;" horiz-adv-x="1625" 
d="M722 365v686c-125.333 -3.33301 -233.333 -36.333 -324 -99c-94.667 -67.333 -142 -148.666 -142 -243.999c0 -94.667 47.333 -175.334 142 -242.001c90.667 -64 198.667 -97.667 324 -101zM903 204v-200h-181v200c-175.333 4.66699 -325.333 53.667 -450 147
c-134.667 98.667 -202 218 -202 358s67.333 259.667 202 359c124.667 91.333 274.667 139.333 450 144v225h181v-225c175.333 -4.66699 326 -52.667 452 -144c133.333 -99.333 200 -219 200 -359s-66.667 -259.333 -200 -358c-126 -93.333 -276.667 -142.333 -452 -147z
M903 1051v-686c125.333 3.33301 233.333 37 324 101c95.333 66.667 143 147.334 143 242.001c0 95.333 -47.667 176.666 -143 243.999c-90 62.667 -198 95.667 -324 99z" />
    <glyph glyph-name="Chi" unicode="&#x3a7;" horiz-adv-x="1137" 
d="M15 0l453 787l-376 652h200l276 -479l276 479h201l-377 -652l455 -787h-201l-354 613l-354 -613h-199z" />
    <glyph glyph-name="Psi" unicode="&#x3a8;" horiz-adv-x="1661" 
d="M918 300l-0.00195312 -295.998h-181v296c-175.333 4.66699 -325.666 53.667 -450.999 147c-127.333 99.333 -192.666 219.666 -195.999 360.999v629h181v-633c0 -94.667 47.667 -175.334 143 -242.001c90 -64 197.667 -97.667 323 -101v976h181v-976
c126 3.33301 234 37 324 101c95.333 66.667 143 162 143 286h5v589h181v-634c-0.666992 -139.333 -67.667 -258 -201 -356c-125.333 -93.333 -276 -142.333 -452 -147z" />
    <glyph glyph-name="uni03A9" unicode="&#x3a9;" horiz-adv-x="1519" 
d="M766 1459c200 0 358.833 -69 476.5 -207s176.5 -319.333 176.5 -544c0 -167.333 -110 -351 -330 -551h243v-157h-465v147c71.333 32 151 94.333 239 187s132 217.334 132 374.001c0 188.667 -44 336.667 -132 444s-202.667 161 -344 161h-4
c-142 0 -256.833 -53.667 -344.5 -161s-131.5 -255.333 -131.5 -444c0 -156.667 43.833 -281.334 131.5 -374.001s167.167 -155 238.5 -187v-147h-465l-1 157h244c-220 200 -330 383.667 -330 551c0 224.667 59 406 177 544s276.667 207 476 207h13z" />
    <glyph glyph-name="Iotadieresis" unicode="&#x3aa;" horiz-adv-x="425" 
d="M303 1439v-1439h-181v1439h181zM162.5 1760.5c24.333 -23.667 36.5 -50.167 36.5 -79.5c0 -30.667 -12.167 -57.834 -36.5 -81.501s-54.833 -35.5 -91.5 -35.5c-38 0 -69 11.833 -93 35.5s-36 50.834 -36 81.501c0 29.333 12 55.833 36 79.5s55 35.5 93 35.5
c36.667 0 67.167 -11.833 91.5 -35.5zM447 1760.5c24 -23.667 36 -50.167 36 -79.5c0 -30.667 -12 -57.834 -36 -81.501s-54.667 -35.5 -92 -35.5s-68.166 11.833 -92.499 35.5s-36.5 50.834 -36.5 81.501c0 29.333 12.167 55.833 36.5 79.5s55.166 35.5 92.499 35.5
s68 -11.833 92 -35.5z" />
    <glyph glyph-name="Upsilondieresis" unicode="&#x3ab;" horiz-adv-x="1169" 
d="M526 582l-494 857h200l385 -666l384 666h200l-494 -857v-582h-181v582zM566.5 1760.5c24.333 -23.667 36.5 -50.167 36.5 -79.5c0 -30.667 -12.167 -57.834 -36.5 -81.501s-54.833 -35.5 -91.5 -35.5c-38 0 -69 11.833 -93 35.5s-36 50.834 -36 81.501
c0 29.333 12 55.833 36 79.5s55 35.5 93 35.5c36.667 0 67.167 -11.833 91.5 -35.5zM851 1760.5c24 -23.667 36 -50.167 36 -79.5c0 -30.667 -12 -57.834 -36 -81.501s-54.667 -35.5 -92 -35.5s-68.166 11.833 -92.499 35.5s-36.5 50.834 -36.5 81.501
c0 29.333 12.167 55.833 36.5 79.5s55.166 35.5 92.499 35.5s68 -11.833 92 -35.5z" />
    <glyph glyph-name="alphatonos" unicode="&#x3ac;" horiz-adv-x="1234" 
d="M969 130c-101.333 -102.667 -225 -154 -371 -154c-144.667 0 -267.167 50.167 -367.5 150.5s-150.5 218.833 -150.5 355.5c0 138 50.167 257 150.5 357s222.833 150 367.5 150c146 0 269.667 -50.667 371 -152l47 77h178l-105 -457l105 -457h-179zM829 731
c-64.667 65.333 -141.667 97.999 -231 97.999c-90 0 -168 -33.333 -234 -100s-99 -149 -99 -247c0 -97.333 33 -179 99 -245s144 -99 234 -99c89.333 0 166.333 32 231 96c50.667 50.667 77 126.334 79 227.001c0 126 -26.333 216 -79 270zM972 1279l-313 -238h-189l208 238
h294z" />
    <glyph glyph-name="epsilontonos" unicode="&#x3ad;" horiz-adv-x="838" 
d="M768 268c0 -74 -34.6689 -137.335 -104.002 -190.002s-152.666 -79 -249.999 -79c-96.667 0 -179.667 26.333 -249 79s-104 116 -104 190v48h185v-48c0 -35.333 16.333 -65.166 49 -89.499s72.334 -36.5 119.001 -36.5c47.333 0 87.166 12.167 119.499 36.5
s48.5 54.166 48.5 89.499s-16 65 -48 89c-19.333 14.667 -38.666 24.334 -57.999 29.001h-236v156h259c9.33301 4 21 11.333 35 22c32 24 48 53.333 48 88c0 35.333 -16.167 65.333 -48.5 90s-72.166 37 -119.499 37c-46.667 0 -86.334 -12.333 -119.001 -37
c-28 -21.333 -45.667 -58.666 -53 -111.999h-184c8.66699 94 44.334 164.667 107.001 212c69.333 52.667 152.333 79 249 79c97.333 0 180.666 -26.333 249.999 -79s104 -116 104 -190c0 -72.667 -36 -136.667 -108 -192c72 -55.333 108 -119.333 108 -192zM747.998 1269
l-314 -238h-188l208 238h294z" />
    <glyph glyph-name="etatonos" unicode="&#x3ae;" horiz-adv-x="918" 
d="M271 682v-682.001h-181v914h181c17.333 33.333 80.666 50 189.999 50c115.333 0 208.333 -35.333 279 -106s106.667 -157 108 -259v-917h-180v909c0 62 -21 113.5 -63 154.5s-90 61.5 -144 61.5c-53.333 0 -100.333 -19.333 -141 -58
c-23.333 -23.333 -39.666 -45.666 -48.999 -66.999zM804 1279l-314 -238h-189l208 238h295z" />
    <glyph glyph-name="iotatonos" unicode="&#x3af;" horiz-adv-x="470" 
d="M325 914v-914h-180v914h180zM570 1279l-314 -238h-188l207 238h295z" />
    <glyph glyph-name="upsilondieresistonos" unicode="&#x3b0;" 
d="M483 -12c-121.333 0 -217.168 35.332 -287.501 105.999s-106.5 157.334 -108.5 260.001v561h181v-554c0 -61.333 21.667 -113.333 65 -156c40.667 -40.667 90.334 -61 149.001 -61c53.333 0 101 20.833 143 62.5s63 93.167 63 154.5v554h181v-561
c-2 -102.667 -38.667 -190 -110 -262c-69.333 -69.333 -161.333 -104 -276 -104zM716.998 1269l-236 -238h-157l130 238h263zM795.998 1186.5c20 -19 30 -39.833 30 -62.5c0 -24.667 -10 -46.5 -30 -65.5s-45 -28.5 -75 -28.5c-31.333 0 -56.833 9.5 -76.5 28.5
s-29.5 40.833 -29.5 65.5c0 22.667 9.83301 43.5 29.5 62.5s45.167 28.5 76.5 28.5c30 0 55 -9.5 75 -28.5zM311.498 1186.5c19.667 -19 29.5 -39.833 29.5 -62.5c0 -24.667 -9.83301 -46.5 -29.5 -65.5s-44.834 -28.5 -75.501 -28.5c-31.333 0 -56.833 9.5 -76.5 28.5
s-29.5 40.833 -29.5 65.5c0 22.667 9.83301 43.5 29.5 62.5s45.167 28.5 76.5 28.5c30.667 0 55.834 -9.5 75.501 -28.5z" />
    <glyph glyph-name="alpha" unicode="&#x3b1;" horiz-adv-x="1234" 
d="M969 130c-101.333 -102.667 -225 -154 -371 -154c-144.667 0 -267.167 50.167 -367.5 150.5s-150.5 218.833 -150.5 355.5c0 138 50.167 257 150.5 357s222.833 150 367.5 150c146 0 269.667 -50.667 371 -152l47 77h178l-105 -457l105 -457h-179zM829 731
c-64.667 65.333 -141.667 97.999 -231 97.999c-90 0 -168 -33.333 -234 -100s-99 -149 -99 -247c0 -97.333 33 -179 99 -245s144 -99 234 -99c89.333 0 166.333 32 231 96c50.667 50.667 77 126.334 79 227.001c0 126 -26.333 216 -79 270z" />
    <glyph glyph-name="beta" unicode="&#x3b2;" horiz-adv-x="986" 
d="M469 142c73.333 0 137.167 27.168 191.5 81.501s81.5 122.166 81.5 203.499c0 82 -27.333 152.667 -82 212s-135.667 99.333 -243 120l-59 3v154c46 0.666992 82 6.16699 108 16.5s55.833 33.333 89.5 69s50.5 78.167 50.5 127.5c0 50 -15.833 90.667 -47.5 122
s-68.167 47 -109.5 47c-38.667 0 -73 -16.667 -103 -50s-45 -82.333 -45 -147v-1416h-181v1426c0 100 30.5 182.833 91.5 248.5s140.167 98.5 237.5 98.5c98 0 179.5 -33 244.5 -99s97.5 -142.667 97.5 -230c0 -88.667 -39 -181.667 -117 -279c24 -7.33301 66 -43 126 -107
c84 -90.667 126 -196 126 -316c0 -120.667 -44 -225 -132 -313s-196.333 -132 -325 -132c-43.333 0 -90 7.33301 -140 22l76 148c24.667 -6.66699 46 -10 64 -10z" />
    <glyph glyph-name="gamma" unicode="&#x3b3;" horiz-adv-x="1004" 
d="M409 34l-369 880h198l262 -625l266 625h198l-371 -875v-357h-184v352z" />
    <glyph glyph-name="delta" unicode="&#x3b4;" horiz-adv-x="1179" 
d="M257 482c0 -97.333 33 -179 99 -245s144 -99 234 -99c89.333 0 167.166 33 233.499 99s99.5 147.667 99.5 245c0 98 -33.167 180.333 -99.5 247s-144.166 100 -233.499 100c-90 0 -168 -33.333 -234 -100s-99 -149 -99 -247zM983 814
c82.667 -83.333 124.001 -194 124.001 -332c0 -136.667 -49.667 -255.167 -149 -355.5s-222 -150.5 -368 -150.5c-144.667 0 -267.167 50.167 -367.5 150.5s-150.5 218.833 -150.5 355.5c0 138 49.333 256.333 148 355c89.333 88.667 187.666 139 294.999 151l-369 446h750
v-156h-387c126.667 -174 216.667 -274 270 -300s121.333 -80.667 204 -164z" />
    <glyph glyph-name="epsilon" unicode="&#x3b5;" horiz-adv-x="838" 
d="M768 268c0 -74 -34.6689 -137.335 -104.002 -190.002s-152.666 -79 -249.999 -79c-96.667 0 -179.667 26.333 -249 79s-104 116 -104 190v48h185v-48c0 -35.333 16.333 -65.166 49 -89.499s72.334 -36.5 119.001 -36.5c47.333 0 87.166 12.167 119.499 36.5
s48.5 54.166 48.5 89.499s-16 65 -48 89c-19.333 14.667 -38.666 24.334 -57.999 29.001h-236v156h259c9.33301 4 21 11.333 35 22c32 24 48 53.333 48 88c0 35.333 -16.167 65.333 -48.5 90s-72.166 37 -119.499 37c-46.667 0 -86.334 -12.333 -119.001 -37
c-28 -21.333 -45.667 -58.666 -53 -111.999h-184c8.66699 94 44.334 164.667 107.001 212c69.333 52.667 152.333 79 249 79c97.333 0 180.666 -26.333 249.999 -79s104 -116 104 -190c0 -72.667 -36 -136.667 -108 -192c72 -55.333 108 -119.333 108 -192z" />
    <glyph glyph-name="zeta" unicode="&#x3b6;" horiz-adv-x="866" 
d="M886 1361c-350 -351.333 -548.667 -646.332 -596 -884.999c-7.33301 -37.333 -11 -71.333 -11 -102c0 -150 92.333 -228 277 -234c191.333 -6.66699 287 -82.334 287 -227.001c-23.333 -126 -115.333 -191.667 -276 -197v161c61.333 0 93.333 16.667 96 50v4
c0 34 -34.667 51 -104 51c-306 6 -459 132 -459 378c0 28 2.33301 57.333 7 88c36.667 281.333 199 559.333 487 834h-458v157h750v-78z" />
    <glyph glyph-name="eta" unicode="&#x3b7;" horiz-adv-x="918" 
d="M271 682v-682.001h-181v914h181c17.333 33.333 80.666 50 189.999 50c115.333 0 208.333 -35.333 279 -106s106.667 -157 108 -259v-917h-180v909c0 62 -21 113.5 -63 154.5s-90 61.5 -144 61.5c-53.333 0 -100.333 -19.333 -141 -58
c-23.333 -23.333 -39.666 -45.666 -48.999 -66.999z" />
    <glyph glyph-name="theta" unicode="&#x3b8;" horiz-adv-x="1195" 
d="M931 708c0 186 -34.167 327.5 -102.5 424.5s-145.166 145.5 -230.499 145.5c-86 0 -163 -48.5 -231 -145.5s-102 -238.5 -102 -424.5c0 -186.667 34 -328.334 102 -425.001s145 -145 231 -145c85.333 0 162.166 48.333 230.499 145s102.5 238.334 102.5 425.001z
M1115 708c0 -221.333 -49 -398.666 -147 -531.999s-221 -200 -369 -200c-148.667 0 -272.334 66.667 -371.001 200s-148 310.666 -148 531.999c0 220.667 49.333 397.667 148 531s222.334 200 371.001 200c148 0 271 -66.667 369 -200s147 -310.333 147 -531zM385 787h426
v-157h-426v157z" />
    <glyph glyph-name="iota" unicode="&#x3b9;" horiz-adv-x="470" 
d="M325 914v-914h-180v914h180z" />
    <glyph glyph-name="kappa" unicode="&#x3ba;" horiz-adv-x="843" 
d="M747 914l-240 -298l348 -616h-207l-261 476l-106 -118v-358h-181v914h181v-289l248 289h218z" />
    <glyph glyph-name="lambda" unicode="&#x3bb;" horiz-adv-x="966" 
d="M916 0h-195l-238 506l-238 -506h-195l335 720l-257 550h195z" />
    <glyph glyph-name="uni03BC" unicode="&#x3bc;" horiz-adv-x="957" 
d="M668 67c-16.667 -50 -82.3311 -74.999 -196.998 -74.999c-107.333 0 -167.333 6.33301 -180 19v-329h-181v1232h181v-654c7.33301 -16.667 20.333 -34.334 39 -53.001c40 -38.667 87 -58 141 -58c53.333 0 100.666 20 141.999 60c27.333 27.333 45.666 57.333 54.999 90
v615h179v-914h-179v67z" />
    <glyph glyph-name="nu" unicode="&#x3bd;" horiz-adv-x="946" 
d="M241 914l230 -548l233 548h198l-431 -1034l-428 1034h198z" />
    <glyph glyph-name="xi" unicode="&#x3be;" horiz-adv-x="964" 
d="M212 128.5c-88 77.667 -131.997 177.17 -131.997 298.503c0 120 42 225.333 126 316c60 64 102 99.667 126 107c-78.667 83.333 -118 170.333 -118 261c12 217.333 152.667 326.333 422 327l260 2v-151h-232c-169.333 0 -254 -57.333 -254 -172v-7
c0 -48.667 14.833 -87.834 44.5 -117.501s71.167 -54.834 124.5 -75.501l311 -1v-156l-301 2c-107.333 -22 -188.333 -62.833 -243 -122.5s-82 -130.5 -82 -212.5c0 -80 27.167 -143 81.5 -189s172.666 -79.333 354.999 -100s273.5 -104.334 273.5 -251.001v-23
c-24.667 -98.667 -119.334 -155.667 -284.001 -171v175c67.333 0 101.666 10.333 102.999 31v4c0 48.667 -74.833 79 -224.5 91s-268.5 56.833 -356.5 134.5z" />
    <glyph glyph-name="omicron" unicode="&#x3bf;" horiz-adv-x="1179" 
d="M590 989c146 0 268.667 -50 368 -150s149 -219 149 -357c0 -136.667 -49.667 -255.167 -149 -355.5s-222 -150.5 -368 -150.5c-144.667 0 -267.167 50.167 -367.5 150.5s-150.5 218.833 -150.5 355.5c0 138 50.167 257 150.5 357s222.833 150 367.5 150zM356 729
c-66 -66.667 -99 -149 -99 -247c0 -97.333 33 -179 99 -245s144 -99 234 -99c89.333 0 167.166 33 233.499 99s99.5 147.667 99.5 245c0 98 -33.167 180.333 -99.5 247s-144.166 100 -233.499 100c-90 0 -168 -33.333 -234 -100z" />
    <glyph glyph-name="pi" unicode="&#x3c0;" horiz-adv-x="1179" 
d="M488 758v-758h-180v758h-248v156h1059v-156h-247v-758h-180v758h-204z" />
    <glyph glyph-name="rho" unicode="&#x3c1;" horiz-adv-x="1176" 
d="M92 599c26.667 101.333 81.499 191.5 164.499 270.5s196.833 118.5 341.5 118.5c145.333 0 268 -49.833 368 -149.5s150 -218.5 150 -356.5c0 -136.667 -50 -255.167 -150 -355.5s-222.667 -150.5 -368 -150.5s-253.666 44 -324.999 132v-426h-181v917zM272.999 559
l0.000976562 -153.999c12 -64.667 43 -121.667 93 -171c65.333 -64.667 142.666 -97 231.999 -97s167.166 33.167 233.499 99.5s99.5 148.166 99.5 245.499c0 98 -33.167 180.333 -99.5 247s-144.166 100 -233.499 100s-168 -34 -236 -102
c-47.333 -47.333 -77 -103.333 -89 -168z" />
    <glyph glyph-name="sigma1" unicode="&#x3c2;" horiz-adv-x="980" 
d="M251 133c-100.667 72.667 -151 170.663 -151 293.996c0 120 42 225 126 315c94 104 242.667 162.333 446 175l238 -1v-156h-192c-157.333 -4.66699 -269 -41 -335 -109s-99 -142.667 -99 -224c0 -78 33.5 -139.167 100.5 -183.5s169.333 -82.166 307 -113.499
s206.5 -102.666 206.5 -213.999v-22c-24 -112 -118.667 -175.667 -284 -191v174c66.667 0 101 16.667 103 50v4c0 20.667 -52.5 41.334 -157.5 62.001s-207.833 67.334 -308.5 140.001z" />
    <glyph glyph-name="sigma" unicode="&#x3c3;" horiz-adv-x="1259" 
d="M267 482c0 -97.333 33 -179 99 -245s144 -99 234 -99c89.333 0 167.166 33 233.499 99s99.5 147.667 99.5 245c0 98 -33.167 180.333 -99.5 247s-144.166 100 -233.499 100c-90 0 -168 -33.333 -234 -100s-99 -149 -99 -247zM1044 758
c48.667 -53.333 73 -145.333 73 -276c0 -136.667 -49.667 -255.167 -149 -355.5s-222 -150.5 -368 -150.5c-144.667 0 -267.167 50.167 -367.5 150.5s-150.5 218.833 -150.5 355.5c0 138 50.167 257 150.5 357s222.833 150 367.5 150c108.667 0 200 -25 274 -75h315v-156
h-145z" />
    <glyph glyph-name="tau" unicode="&#x3c4;" horiz-adv-x="991" 
d="M586 758v-758h-180v758h-344v156h867v-156h-343z" />
    <glyph glyph-name="upsilon" unicode="&#x3c5;" 
d="M483 -12c-121.333 0 -217.168 35.332 -287.501 105.999s-106.5 157.334 -108.5 260.001v561h181v-554c0 -61.333 21.667 -113.333 65 -156c40.667 -40.667 90.334 -61 149.001 -61c53.333 0 101 20.833 143 62.5s63 93.167 63 154.5v554h181v-561
c-2 -102.667 -38.667 -190 -110 -262c-69.333 -69.333 -161.333 -104 -276 -104z" />
    <glyph glyph-name="phi" unicode="&#x3c6;" horiz-adv-x="1196" 
d="M518 -12c-100 6 -196.667 56.001 -290 150.001c-98.667 98 -148 215.667 -148 353c0 138 49.333 256 148 354c32.667 34 79.334 69 140.001 105l57 -160c-26.667 -22 -47 -40 -61 -54c-65.333 -66 -98 -147.667 -98 -245c0 -98 33.667 -180.667 101 -248
c62.667 -63.333 111 -95 145 -95v677c13.333 85.333 65 128 155 128c49.333 0 110.666 -16.333 183.999 -49c176.667 -79.333 265 -217 265 -413c0 -136.667 -49 -254.334 -147 -353.001c-88.667 -89.333 -178.667 -138.333 -270 -147v-304h-181v301zM693 174.001
c54 8.66699 99.333 31.333 136 68c68.667 68 103 151 103 249c0 118.667 -48.667 206 -146 262c-40 22.667 -68 34 -84 34c-3.33301 0 -6 -0.333008 -8 -1z" />
    <glyph glyph-name="chi" unicode="&#x3c7;" horiz-adv-x="1095" 
d="M548 175l-298 -488h-200l397 653l-349 574h201l249 -408l248 408h201l-349 -574l397 -653h-200z" />
    <glyph glyph-name="psi" unicode="&#x3c8;" horiz-adv-x="1231" 
d="M709 -11v-293h-187v293c-97.333 6.66699 -192 56.334 -284 149.001c-98.667 98 -148 215.667 -148 353v424h186v-424c0 -98 33.667 -180.667 101 -248c62.667 -63.333 111 -95 145 -95v767h187v-767c34 0 82.333 31.667 145 95c67.333 67.333 101 150 101 248v424h186
v-424c0 -137.333 -49.667 -255 -149 -353c-92 -92.667 -186.333 -142.334 -283 -149.001z" />
    <glyph glyph-name="omega" unicode="&#x3c9;" horiz-adv-x="1415" 
d="M618 189l-0.000976562 530h180v-530c34 -41.333 82.333 -62 145 -62c66 0 118.833 28.5 158.5 85.5s59.5 154.833 59.5 293.5c0 126 -34 241.333 -102 346v62h160c84 -143.333 126 -279.333 126 -408c0 -167.333 -32.833 -297.5 -98.5 -390.5
s-163.5 -139.5 -293.5 -139.5s-211.333 27.333 -244 82c-33.333 -54.667 -115 -82 -245 -82s-228.167 46.5 -294.5 139.5s-99.5 223.167 -99.5 390.5c0 130.667 44.667 266.667 134 408h161v-58c-73.333 -96 -110 -212.667 -110 -350c0 -138.667 19.667 -236.5 59 -293.5
s92 -85.5 158 -85.5c62.667 0 111.334 20.667 146.001 62z" />
    <glyph glyph-name="iotadieresis" unicode="&#x3ca;" horiz-adv-x="470" 
d="M325 914v-914h-180v914h180zM184.5 1235.5c24.333 -23.667 36.5 -50.167 36.5 -79.5c0 -30.667 -12.167 -57.834 -36.5 -81.501s-54.833 -35.5 -91.5 -35.5c-38 0 -69 11.833 -93 35.5s-36 50.834 -36 81.501c0 29.333 12 55.833 36 79.5s55 35.5 93 35.5
c36.667 0 67.167 -11.833 91.5 -35.5zM469 1235.5c24 -23.667 36 -50.167 36 -79.5c0 -30.667 -12 -57.834 -36 -81.501s-54.667 -35.5 -92 -35.5s-68.166 11.833 -92.499 35.5s-36.5 50.834 -36.5 81.501c0 29.333 12.167 55.833 36.5 79.5s55.166 35.5 92.499 35.5
s68 -11.833 92 -35.5z" />
    <glyph glyph-name="upsilondieresis" unicode="&#x3cb;" 
d="M483 -12c-121.333 0 -217.168 35.332 -287.501 105.999s-106.5 157.334 -108.5 260.001v561h181v-554c0 -61.333 21.667 -113.333 65 -156c40.667 -40.667 90.334 -61 149.001 -61c53.333 0 101 20.833 143 62.5s63 93.167 63 154.5v554h181v-561
c-2 -102.667 -38.667 -190 -110 -262c-69.333 -69.333 -161.333 -104 -276 -104zM427.498 1235.5c24.333 -23.667 36.5 -50.167 36.5 -79.5c0 -30.667 -12.167 -57.834 -36.5 -81.501s-54.833 -35.5 -91.5 -35.5c-38 0 -69 11.833 -93 35.5s-36 50.834 -36 81.501
c0 29.333 12 55.833 36 79.5s55 35.5 93 35.5c36.667 0 67.167 -11.833 91.5 -35.5zM711.998 1235.5c24 -23.667 36 -50.167 36 -79.5c0 -30.667 -12 -57.834 -36 -81.501s-54.667 -35.5 -92 -35.5s-68.166 11.833 -92.499 35.5s-36.5 50.834 -36.5 81.501
c0 29.333 12.167 55.833 36.5 79.5s55.166 35.5 92.499 35.5s68 -11.833 92 -35.5z" />
    <glyph glyph-name="omicrontonos" unicode="&#x3cc;" horiz-adv-x="1179" 
d="M590 989c146 0 268.667 -50 368 -150s149 -219 149 -357c0 -136.667 -49.667 -255.167 -149 -355.5s-222 -150.5 -368 -150.5c-144.667 0 -267.167 50.167 -367.5 150.5s-150.5 218.833 -150.5 355.5c0 138 50.167 257 150.5 357s222.833 150 367.5 150zM356 729
c-66 -66.667 -99 -149 -99 -247c0 -97.333 33 -179 99 -245s144 -99 234 -99c89.333 0 167.166 33 233.499 99s99.5 147.667 99.5 245c0 98 -33.167 180.333 -99.5 247s-144.166 100 -233.499 100c-90 0 -168 -33.333 -234 -100zM902 1270l-314 -239h-188l207 239h295z" />
    <glyph glyph-name="upsilontonos" unicode="&#x3cd;" 
d="M483 -12c-121.333 0 -217.168 35.332 -287.501 105.999s-106.5 157.334 -108.5 260.001v561h181v-554c0 -61.333 21.667 -113.333 65 -156c40.667 -40.667 90.334 -61 149.001 -61c53.333 0 101 20.833 143 62.5s63 93.167 63 154.5v554h181v-561
c-2 -102.667 -38.667 -190 -110 -262c-69.333 -69.333 -161.333 -104 -276 -104zM789.998 1270l-313 -239h-189l208 239h294z" />
    <glyph glyph-name="omegatonos" unicode="&#x3ce;" horiz-adv-x="1415" 
d="M618 189l-0.000976562 530h180v-530c34 -41.333 82.333 -62 145 -62c66 0 118.833 28.5 158.5 85.5s59.5 154.833 59.5 293.5c0 126 -34 241.333 -102 346v62h160c84 -143.333 126 -279.333 126 -408c0 -167.333 -32.833 -297.5 -98.5 -390.5
s-163.5 -139.5 -293.5 -139.5s-211.333 27.333 -244 82c-33.333 -54.667 -115 -82 -245 -82s-228.167 46.5 -294.5 139.5s-99.5 223.167 -99.5 390.5c0 130.667 44.667 266.667 134 408h161v-58c-73.333 -96 -110 -212.667 -110 -350c0 -138.667 19.667 -236.5 59 -293.5
s92 -85.5 158 -85.5c62.667 0 111.334 20.667 146.001 62zM1042 1269l-313 -238h-189l208 238h294z" />
    <glyph glyph-name="afii10023" unicode="&#x401;" horiz-adv-x="1007" 
d="M895 1439v-157h-602v-484h602v-157h-602v-484h602v-157h-783v1439h783zM453.5 1760.5c24.333 -23.667 36.5 -50.167 36.5 -79.5c0 -30.667 -12.167 -57.834 -36.5 -81.501s-54.833 -35.5 -91.5 -35.5c-38 0 -69 11.833 -93 35.5s-36 50.834 -36 81.501
c0 29.333 12 55.833 36 79.5s55 35.5 93 35.5c36.667 0 67.167 -11.833 91.5 -35.5zM738 1760.5c24 -23.667 36 -50.167 36 -79.5c0 -30.667 -12 -57.834 -36 -81.501s-54.667 -35.5 -92 -35.5s-68.166 11.833 -92.499 35.5s-36.5 50.834 -36.5 81.501
c0 29.333 12.167 55.833 36.5 79.5s55.166 35.5 92.499 35.5s68 -11.833 92 -35.5z" />
    <glyph glyph-name="afii10051" unicode="&#x402;" horiz-adv-x="1499" 
d="M584 516l0.000976562 -515.999h-180v1282h-344v157h867v-157h-343v-469c69.333 84.667 178 127 326 127c147.333 0 270 -43.333 368 -130c94 -70.667 141 -194 141 -370s-46.667 -302.667 -140 -380c-26 -22.667 -68 -51.334 -126 -86.001l-110 121
c44.667 26.667 75.667 48 93 64c66.667 58 100.667 148.333 102 271c-1.33301 122.667 -35.333 213 -102 271c-66 58 -144.333 87 -235 87c-90 0 -165 -28.333 -225 -85c-56.667 -54.667 -87.334 -117 -92.001 -187z" />
    <glyph glyph-name="afii10052" unicode="&#x403;" horiz-adv-x="862" 
d="M810 1439v-157h-517v-1282h-181v1439h698zM796 1798l-313 -239h-189l208 239h294z" />
    <glyph glyph-name="afii10053" unicode="&#x404;" horiz-adv-x="1615" 
d="M1116 800l0.000976562 -156.999h-834c6.66699 -118.667 61 -229.334 163 -332.001c113.333 -112.667 246.666 -169 399.999 -169c154 0 287.667 56.333 401 169c57.333 58 104 134.333 140 229h189c-46 -139.333 -112.667 -252.666 -200 -339.999
c-144 -144 -320.667 -216 -530 -216c-208.667 0 -385.5 72.5 -530.5 217.5s-217.5 318.5 -217.5 520.5c0 200.667 72.5 373.667 217.5 519s321.833 218 530.5 218c209.333 0 387.666 -73.333 534.999 -220c42 -42.667 89 -106.334 141 -191.001h-205
c-28 36 -51.333 63.667 -70 83c-113.333 113.333 -247 170 -401 170c-153.333 0 -286.666 -56.667 -399.999 -170c-102.667 -102.667 -157 -213 -163 -331h834z" />
    <glyph glyph-name="afii10054" unicode="&#x405;" horiz-adv-x="1017" 
d="M511 757c-103.333 34 -186.334 82.3311 -249.001 144.998s-94 138.334 -94 227.001c0 86.667 32.5 162.834 97.5 228.501s145.833 98.5 242.5 98.5c95.333 0 177 -33.667 245 -101c35.333 -34.667 63 -83.334 83 -146.001l-162 -63c-20 54 -38 89 -54 105
c-32.667 33.333 -70 50 -112 50c-41.333 0 -78.166 -16.167 -110.499 -48.5s-48.5 -73.5 -48.5 -123.5c0 -49.333 16.667 -91.333 50 -126c34.667 -33.333 82 -64 142 -92c114.667 -37.333 210.667 -94.666 288 -171.999c88.667 -88 133 -192 133 -312
s-43.833 -223.833 -131.5 -311.5s-195.167 -131.5 -322.5 -131.5c-128 0 -236.333 45 -325 135c-69.333 68.667 -112 157.667 -128 267l174 63c10.667 -104.667 40.334 -181 89.001 -229c53.333 -53.333 116.666 -80 189.999 -80c74 0 138.5 27.5 193.5 82.5
s82.5 123.167 82.5 204.5s-27 149 -81 203c-54.667 54 -118.667 96.333 -192 127z" />
    <glyph glyph-name="afii10055" unicode="&#x406;" horiz-adv-x="425" 
d="M303 1439v-1439h-181v1439h181z" />
    <glyph glyph-name="afii10056" unicode="&#x407;" horiz-adv-x="425" 
d="M303 1439v-1439h-181v1439h181zM162.5 1760.5c24.333 -23.667 36.5 -50.167 36.5 -79.5c0 -30.667 -12.167 -57.834 -36.5 -81.501s-54.833 -35.5 -91.5 -35.5c-38 0 -69 11.833 -93 35.5s-36 50.834 -36 81.501c0 29.333 12 55.833 36 79.5s55 35.5 93 35.5
c36.667 0 67.167 -11.833 91.5 -35.5zM447 1760.5c24 -23.667 36 -50.167 36 -79.5c0 -30.667 -12 -57.834 -36 -81.501s-54.667 -35.5 -92 -35.5s-68.166 11.833 -92.499 35.5s-36.5 50.834 -36.5 81.501c0 29.333 12.167 55.833 36.5 79.5s55.166 35.5 92.499 35.5
s68 -11.833 92 -35.5z" />
    <glyph glyph-name="afii10057" unicode="&#x408;" horiz-adv-x="400" 
d="M286 14c0 -78 -28 -143.833 -84 -197.5s-143.667 -80.5 -263 -80.5v150c64.667 0 108 10.667 130 32c24 24 36 59.333 36 106v1415h181v-1425z" />
    <glyph glyph-name="afii10058" unicode="&#x409;" horiz-adv-x="2016" 
d="M988 0v1282h-591v-1002c0 -77.333 -27.833 -144.166 -83.5 -200.499s-143.5 -84.5 -263.5 -84.5v157c64.667 0 108 10.667 130 32c24 24 36 59.333 36 106v1149h953v-643h393c111.333 -2 202 -41.5 272 -118.5s105 -168.5 105 -274.5c0 -112 -35 -206.667 -105 -284
s-160.667 -117 -272 -119h-574zM1169 638.999v-482.001h385c52.667 0 100 24 142 72s63 105.667 63 173c0 62.667 -21 117.834 -63 165.501s-89.333 71.5 -142 71.5h-385z" />
    <glyph glyph-name="afii10059" unicode="&#x40a;" horiz-adv-x="1901" 
d="M872 0v641h-591v-641h-181v1439h181v-641h591v641h181v-643h401c112 -2 202.833 -41.5 272.5 -118.5s104.5 -168.5 104.5 -274.5c0 -112 -34.833 -206.667 -104.5 -284s-160.5 -117 -272.5 -119h-582zM1053 639l0.000976562 -482.001h394c52 0 99 24 141 72
s63 105.667 63 173c0 62.667 -20.833 117.834 -62.5 165.501s-88.834 71.5 -141.501 71.5h-394z" />
    <glyph glyph-name="afii10060" unicode="&#x40b;" horiz-adv-x="1497" 
d="M576 516v-516h-180v1282h-344v157h867v-157h-343v-469c69.333 84.667 178 127 326 127s268.667 -44 362 -132c88.667 -86 133 -216.667 133 -392v-416h-187l1 424c0 126 -30.333 219.333 -91 280c-59.333 59.333 -130.333 89 -213 89h-13
c-90 -2.66699 -165.333 -32.667 -226 -90c-56 -54.667 -86.667 -117 -92 -187z" />
    <glyph glyph-name="afii10061" unicode="&#x40c;" horiz-adv-x="1397" 
d="M1175 1439l-379 -550l621 -889h-211l-518 741l-94 -135v-606h-181v1439h181v-532l371 532h210zM342 1433l-313 -239h-189l208 239h294z" />
    <glyph glyph-name="afii10062" unicode="&#x40e;" horiz-adv-x="1242" 
d="M431 67c-66.667 -52 -131.331 -78.001 -193.998 -78.001c-43.333 0 -94.333 18.333 -153 55l78 141c53.333 -29.333 87.666 -44 102.999 -44c5.33301 0 10.666 0.666992 15.999 2c21.333 6 75.333 75.667 162 209l110 179l-593 908h203l486 -743l433 743h199
c-470 -839.333 -753.333 -1296.67 -850 -1372zM878.003 1800c-20.667 -67.333 -45.3359 -115.333 -74.0029 -144c-48.667 -50 -109 -75 -181 -75c-73.333 0 -134.333 25 -183 75c-29.333 30 -54.666 78 -75.999 144h168c14 -26.667 25 -44 33 -52
c16.667 -16.667 36 -25 58 -25c20.667 0 39.334 8.66699 56.001 26c8.66699 7.33301 19.334 24.333 32.001 51h167z" />
    <glyph glyph-name="afii10145" unicode="&#x40f;" horiz-adv-x="1193" 
d="M503 1h-413v1438h181v-1281h651v1281h181v-1439h-420v-318h-180v319z" />
    <glyph glyph-name="afii10017" unicode="&#x410;" horiz-adv-x="1208" 
d="M743 754l-138 382l-139 -382h277zM684 1439l521 -1439h-188l-217 598h-391l-221 -598h-189l528 1439h157z" />
    <glyph glyph-name="afii10018" unicode="&#x411;" horiz-adv-x="1100" 
d="M105 798v641h698v-157h-517v-484h387c112 -2 202.833 -41.5 272.5 -118.5s104.5 -168.5 104.5 -274.5c0 -112 -34.833 -206.667 -104.5 -284s-160.5 -117 -272.5 -119h-387v-2h-181v2h-5v157h5v482h-5v157h5zM286 641v-482.001h380c52 0 99 24 141 72s63 105.667 63 173
c0 62.667 -21 117.834 -63 165.501s-89 71.5 -141 71.5h-380z" />
    <glyph glyph-name="afii10019" unicode="&#x412;" horiz-adv-x="1102" 
d="M555 157c83.333 0 156.166 31.166 218.499 93.499s93.5 139.833 93.5 232.5s-31.167 170.334 -93.5 233.001s-135.166 94 -218.499 94h-262v-653h262zM293 1283l0.00195312 -316.001h290c39.333 4 69.666 17 90.999 39c29.333 28.667 44 67 44 115
c0 46.667 -15.333 85.334 -46 116.001s-65.334 46 -104.001 46h-275zM910.002 820.998c93.333 -93.333 140 -206.001 140 -338.001c0 -130.667 -48.333 -244.334 -145 -341.001c-78 -78.667 -176.667 -126 -296 -142h-497v1439h457c94 0 172.667 -31.667 236 -95
s95 -137.666 95 -222.999c0 -86 -31 -159.667 -93 -221c22 -5.33301 56.333 -31.666 103 -78.999z" />
    <glyph glyph-name="afii10020" unicode="&#x413;" horiz-adv-x="862" 
d="M810 1439v-157h-517v-1282h-181v1439h698z" />
    <glyph glyph-name="afii10021" unicode="&#x414;" horiz-adv-x="1231" 
d="M884 164v1118h-378c12.667 -62.667 19 -148 19 -256c0 -394 -84.333 -681.333 -253 -862h612zM1066 164h75v-482h-180v318h-761v-318h-180v482h33c194 223.333 291 510.666 291 861.999c0 104.667 -19.333 242.334 -58 413.001h779z" />
    <glyph glyph-name="afii10022" unicode="&#x415;" horiz-adv-x="1007" 
d="M895 1439v-157h-602v-484h602v-157h-602v-484h602v-157h-783v1439h783z" />
    <glyph glyph-name="afii10024" unicode="&#x416;" horiz-adv-x="1797" 
d="M990 908l370 531h210l-380 -550l621 -889h-210l-518 741l-93 -134v-607h-182v607l-93 134l-519 -741h-210l621 889l-380 550h210l371 -531v531h182v-531z" />
    <glyph glyph-name="afii10025" unicode="&#x417;" horiz-adv-x="996" 
d="M523 646l-373 -0.000976562v156h373c68 0 121.5 22.333 160.5 67s58.5 106.667 58.5 186c0 76.667 -25.333 135.834 -76 177.501s-109.334 62.5 -176.001 62.5c-118 0 -251.333 -55 -400 -165v185c118 87.333 245 131 381 131c130.667 0 239.167 -35 325.5 -105
s129.5 -161.667 129.5 -275c0 -172 -42.667 -284.667 -128 -338c85.333 -43.333 128 -158.333 128 -345c0 -113.333 -43.167 -205.333 -129.5 -276s-194.833 -106 -325.5 -106c-139.333 0 -266.333 46.333 -381 139v242c128 -146.667 255 -220 381 -220
c68 0 130.167 19.333 186.5 58s84.5 96 84.5 172c0 79.333 -19.667 141.5 -59 186.5s-92.666 67.5 -159.999 67.5z" />
    <glyph glyph-name="afii10026" unicode="&#x418;" horiz-adv-x="1398" 
d="M1289 1439v-1439h-181v1121l-799 -1121h-200v1439h181v-1150l820 1150h179z" />
    <glyph glyph-name="afii10027" unicode="&#x419;" horiz-adv-x="1398" 
d="M1289 1439v-1439h-181v1121l-799 -1121h-200v1439h181v-1150l820 1150h179zM956 1800c-20.667 -67.333 -45.3359 -115.333 -74.0029 -144c-48.667 -50 -109 -75 -181 -75c-73.333 0 -134.333 25 -183 75c-29.333 30 -54.666 78 -75.999 144h168c14 -26.667 25 -44 33 -52
c16.667 -16.667 36 -25 58 -25c20.667 0 39.334 8.66699 56.001 26c8.66699 7.33301 19.334 24.333 32.001 51h167z" />
    <glyph glyph-name="afii10028" unicode="&#x41a;" horiz-adv-x="1102" 
d="M874 1439l-380 -550l622 -889h-211l-518 741l-94 -135v-606h-181v1439h181v-532l371 532h210z" />
    <glyph glyph-name="afii10029" unicode="&#x41b;" horiz-adv-x="1263" 
d="M397 280c0 -77.333 -27.833 -144.167 -83.5 -200.5s-143.5 -84.5 -263.5 -84.5v157c64.667 0 108 10.667 130 32c24 24 36 59.333 36 106v1149h953v-1439h-181v1282h-591v-1002z" />
    <glyph glyph-name="afii10030" unicode="&#x41c;" horiz-adv-x="1496" 
d="M1403 1439v-1439h-181v1170l-473 -621l-474 621v-1170h-181v1439h193l462 -605l461 605h193z" />
    <glyph glyph-name="afii10031" unicode="&#x41d;" horiz-adv-x="1141" 
d="M275 641v-641h-181v1439h181v-641h591v641h181v-1439h-181v641h-591z" />
    <glyph glyph-name="afii10032" unicode="&#x41e;" horiz-adv-x="1621" 
d="M1341.5 1241c145 -145.333 217.5 -318.333 217.5 -519c0 -202 -72.5 -375.5 -217.5 -520.5s-322.167 -217.5 -531.5 -217.5c-208.667 0 -385.5 72.5 -530.5 217.5s-217.5 318.5 -217.5 520.5c0 200.667 72.5 373.667 217.5 519s321.833 218 530.5 218
c209.333 0 386.5 -72.667 531.5 -218zM810 1301c-153.333 0 -286 -56.167 -398 -168.5s-168 -249.166 -168 -410.499c0 -162.667 56 -300 168 -412s244.667 -168 398 -168c154 0 287 56 399 168s168 249.333 168 412c0 161.333 -56 298.166 -168 410.499
s-245 168.5 -399 168.5z" />
    <glyph glyph-name="afii10033" unicode="&#x41f;" horiz-adv-x="1141" 
d="M275 1282v-1282h-181v1439h953v-1439h-181v1282h-591z" />
    <glyph glyph-name="afii10034" unicode="&#x420;" horiz-adv-x="1032" 
d="M293 471l-0.000976562 -471h-181v1439h412c120 -16 220.333 -64.667 301 -146c94 -94 141 -206.333 141 -337c0 -131.333 -47.667 -245 -143 -341s-212.666 -144 -351.999 -144h-178zM292.999 1281v-651.999h178c84 0 157.333 31.167 220 93.5s94 140.166 94 233.499
c0 92.667 -31.333 170 -94 232s-136 93 -220 93h-178z" />
    </font>
</defs>
</svg>
