<?xml version="1.0" standalone="no"?>
<!DOCTYPE svg PUBLIC "-//W3C//DTD SVG 1.1//EN" "http://www.w3.org/Graphics/SVG/1.1/DTD/svg11.dtd" >
<svg>
<metadata>
Created by FontForge 20090914 at Sun Dec 21 11:51:38 2014
 By www-data
&#194;&#169; Lauren Thompson, 2009, 2010. All rights reserved.
</metadata>
<defs>
<font id="Champagne&Limousines-BoldItalic" horiz-adv-x="956" >
  <font-face 
    font-family="Champagne & Limousines"
    font-weight="700"
    font-style="italic"
    font-stretch="normal"
    units-per-em="2048"
    panose-1="2 11 7 2 2 2 2 9 5 4"
    ascent="1638"
    descent="-410"
    x-height="902"
    cap-height="1439"
    bbox="-400 -379 2210 1838"
    underline-thickness="150"
    underline-position="-142"
    slope="-10"
    unicode-range="U+0020-U+FF9F"
  />
<missing-glyph horiz-adv-x="1088" 
d="M522 616c0 -4 1.83398 -10.1689 5.50098 -18.502s20.5 -16.166 50.5 -23.499c-30 -9.33301 -70 -29.333 -120 -60c-16 -10 -31.667 -15 -47 -15c-34 0 -67 24 -99 72c18.667 9.33301 31.667 16.333 39 21s11 9 11 13v252c0 20 -15.667 34.667 -47 44
c82 39.333 140.667 71.333 176 96c16.667 -2 27 -26.333 31 -73v-3c13.333 5.33301 25.333 11 36 17l163 59c7.33301 -39.333 15.666 -75 24.999 -107c9.33301 -31.333 18.666 -77.333 27.999 -138c1.33301 -11.333 2 -22.666 2 -33.999c0 -50 -17 -101.667 -51 -155
c-42 -65.333 -101.333 -131.666 -178 -198.999c48.667 89.333 73 172.666 73 249.999c0 21.333 -1.66699 42 -5 62c-17.333 94 -31.666 153.333 -42.999 178c-33.333 -24.667 -50 -50 -50 -76v-162zM76.001 1412v-1409h936v1409h-936zM1044 1447v-1480h-1000v1480h1000z" />
    <glyph glyph-name=".notdef" horiz-adv-x="1088" 
d="M522 616c0 -4 1.83398 -10.1689 5.50098 -18.502s20.5 -16.166 50.5 -23.499c-30 -9.33301 -70 -29.333 -120 -60c-16 -10 -31.667 -15 -47 -15c-34 0 -67 24 -99 72c18.667 9.33301 31.667 16.333 39 21s11 9 11 13v252c0 20 -15.667 34.667 -47 44
c82 39.333 140.667 71.333 176 96c16.667 -2 27 -26.333 31 -73v-3c13.333 5.33301 25.333 11 36 17l163 59c7.33301 -39.333 15.666 -75 24.999 -107c9.33301 -31.333 18.666 -77.333 27.999 -138c1.33301 -11.333 2 -22.666 2 -33.999c0 -50 -17 -101.667 -51 -155
c-42 -65.333 -101.333 -131.666 -178 -198.999c48.667 89.333 73 172.666 73 249.999c0 21.333 -1.66699 42 -5 62c-17.333 94 -31.666 153.333 -42.999 178c-33.333 -24.667 -50 -50 -50 -76v-162zM76.001 1412v-1409h936v1409h-936zM1044 1447v-1480h-1000v1480h1000z" />
    <glyph glyph-name="space" unicode=" " horiz-adv-x="508" 
 />
    <glyph glyph-name="space" unicode="&#xa0;" horiz-adv-x="508" 
 />
    <glyph glyph-name="exclam" unicode="!" horiz-adv-x="367" 
d="M307.5 184.5c20.333 -23.667 27.835 -50.5 22.502 -80.5s-22.333 -56.833 -51 -80.5s-61.334 -35.5 -98.001 -35.5c-38 0 -66.833 11.833 -86.5 35.5s-26.834 50.5 -21.501 80.5s22 56.833 50 80.5s61 35.5 99 35.5c36.667 0 65.167 -11.833 85.5 -35.5zM525.002 1439
l-194 -1104h-181l194 1104h181z" />
    <glyph glyph-name="quotedbl" unicode="&#x22;" horiz-adv-x="540" 
d="M204 847l104 589h181l-104 -589h-181zM454 847l104 589h180l-104 -589h-180z" />
    <glyph glyph-name="numbersign" unicode="#" horiz-adv-x="1026" 
d="M567 429h-111l-140 -333h-178l141 333h-223l108 157h182l96 227h-206l109 157h162l145 344h178l-146 -344h111l145 344h178l-146 -344h204l-109 -157h-160l-96 -227h185l-109 -157h-143l-140 -333h-178zM523 586h111l96 227h-111z" />
    <glyph glyph-name="dollar" unicode="$" horiz-adv-x="1149" 
d="M715 254c88 27.333 142.667 101.333 164 222c11.333 66.667 -1.66699 123 -39 169l-47 57zM696 1172c-30.667 -26.667 -49.333 -60 -56 -100c-7.33301 -40 0 -71.667 22 -95zM627.001 778c-43.333 20.667 -82.334 52 -117.001 94c-46 55.333 -62 122 -48 200
c13.333 76 53 142 119 198c58 50.667 107 78.334 147 83.001l16 91h181l-17 -96c34 -6 69.667 -31.333 107 -76c26 -30.667 43.333 -76 52 -136l-171 -65c2 43.333 -3.33301 82 -16 116l-55 -314c60 -25.333 115 -68.333 165 -129c62 -74.667 84 -164 66 -268
c-18.667 -104.667 -72 -194.334 -160 -269.001c-77.333 -66 -146.666 -102.667 -207.999 -110l-18 -101h-181l17 98c-63.333 5.33301 -123.666 43 -180.999 113c-49.333 60 -73 139.667 -71 239l183 64c-14.667 -136.667 17.666 -223.667 96.999 -261z" />
    <glyph glyph-name="percent" unicode="%" horiz-adv-x="1136" 
d="M1259 1165l-1038 -1185l-124 98l1038 1185zM675 1041c38.667 -47.333 52.667 -102.666 42 -165.999c-11.333 -62 -44.666 -116.833 -99.999 -164.5s-118.666 -71.5 -189.999 -71.5s-126.333 23.833 -165 71.5s-52.334 102.5 -41.001 164.5
c10.667 63.333 43.667 118.666 99 165.999s118.666 71 189.999 71s126.333 -23.667 165 -71zM483 958c-17.333 0 -34.6689 -7.5 -52.002 -22.5s-28 -35.167 -32 -60.5c-4.66699 -25.333 -1 -45.333 11 -60s26.667 -22 44 -22c16.667 0 33.834 7.5 51.501 22.5
s28.834 34.833 33.501 59.5c4 25.333 -0.166992 45.5 -12.5 60.5s-26.833 22.5 -43.5 22.5zM1093.5 531.5c39 -47 52.833 -102.167 41.5 -165.5s-44.666 -118.5 -99.999 -165.5s-118.333 -70.5 -189 -70.5c-71.333 0 -126.333 23.5 -165 70.5s-52.334 102.167 -41.001 165.5
s44.5 118.5 99.5 165.5s118.167 70.5 189.5 70.5c70.667 0 125.5 -23.5 164.5 -70.5zM901.997 449c-17.333 0 -34.666 -7.5 -51.999 -22.5s-28 -35.167 -32 -60.5c-4.66699 -25.333 -1 -45.333 11 -60s26.667 -22 44 -22c16.667 0 34 7.33301 52 22s29.333 34.667 34 60
c4 25.333 -0.333008 45.5 -13 60.5s-27.334 22.5 -44.001 22.5z" />
    <glyph glyph-name="ampersand" unicode="&#x26;" horiz-adv-x="1231" 
d="M1039 715c39.333 -0.666992 75.9932 -11.335 109.993 -32.002c50 -31.333 77.667 -76.666 83 -135.999c2 -19.333 1.33301 -38.333 -2 -57c-6.66699 -36 -22 -70.667 -46 -104c-41.333 -54.667 -102 -93.667 -182 -117c-22 -46.667 -65 -96.667 -129 -150
c-104 -90 -220 -135 -348 -135c-127.333 0 -227.166 43.833 -299.499 131.5s-97.833 191.5 -76.5 311.5c20.667 119.333 81 224 181 314c70 62.667 127 96.334 171 101.001c-78.667 103.333 -110 199 -94 287c14.667 86.667 60.334 162.834 137.001 228.501
s163 98.5 259 98.5c96.667 0 172.334 -33.667 227.001 -101c30 -34.667 49.333 -83.334 58 -146.001l-171 -63c-11.333 54 -24.666 90.333 -39.999 109c-25.333 30.667 -59 46 -101 46c-41.333 0 -81 -16.167 -119 -48.5s-61.333 -73.5 -70 -123.5
c-9.33301 -50 -0.166016 -93.167 27.501 -129.5s54 -59.5 79 -69.5s76.167 -15.333 153.5 -16l-27 -151l-106 -2c-112 -20 -200.833 -60.167 -266.5 -120.5s-105.5 -131.5 -119.5 -213.5c-14.667 -81.333 0.5 -149.5 45.5 -204.5s104.5 -82.5 178.5 -82.5
c73.333 0 143 28 209 84c35.333 30 58.666 56 69.999 78c-22.667 16 -51.667 46.333 -87 91c-19.333 22 -32.333 35 -39 39c-3.33301 2 -6.33301 3 -9 3s-4.66699 -0.333008 -6 -1c-4.66699 -1.33301 -9.66699 -5.33301 -15 -12c-5.33301 -8 -8.66602 -15.333 -9.99902 -22
c-0.666992 -4.66699 -1 -9.33398 -1 -14.001c1.33301 -10 4 -16.333 8 -19c1.33301 -0.666992 4.66602 -1 9.99902 -1l-27 -154h-10c-32.667 0 -63.334 8.33301 -92.001 25c-40.667 26 -63.334 64 -68.001 114c-1.33301 16.667 -0.666016 33 2.00098 49
c5.33301 30 18.333 59.333 39 88c36.667 46.667 83 77.667 139 93c20.667 5.33301 40.334 8 59.001 8c36.667 0 69 -9.33301 97 -28c24 -14.667 52.333 -42.667 85 -84c24.667 -26.667 42.334 -43.334 53.001 -50.001c7.33301 -4.66699 14.333 -7 21 -7c4 0 8.66699 1 14 3
c16 4 30 13.667 42 29c8.66699 12.667 14.334 25.334 17.001 38.001c1.33301 6.66699 1.33301 14 0 22c-2 19.333 -9.66699 33.333 -23 42c-5.33301 2.66699 -11.666 4.33398 -18.999 5.00098z" />
    <glyph glyph-name="quotesingle" unicode="'" horiz-adv-x="291" 
d="M204 847l104 589h181l-104 -589h-181z" />
    <glyph glyph-name="parenleft" unicode="(" horiz-adv-x="736" 
d="M946 1506c-140 -76.667 -248.333 -156.666 -325 -239.999c-113.333 -124.667 -189.666 -298 -228.999 -520l-15 -87c-39.333 -222.667 -24.333 -396.334 45 -521.001c47.333 -83.333 127.666 -163.333 240.999 -240h-255c-54.667 43.333 -99.667 91 -135 143
c-112 162.667 -143.333 383 -94 661c48.667 278 157.667 498 327 660c54 52.667 115.667 100.667 185 144h255z" />
    <glyph glyph-name="parenright" unicode=")" horiz-adv-x="736" 
d="M576 1506c54 -43.333 98.666 -91.334 133.999 -144.001c112 -162 143.667 -382 95 -660c-49.333 -278 -158.666 -498.333 -327.999 -661c-54 -52 -115.667 -99.667 -185 -143h-255c140 76.667 248.333 156.667 325 240c114 124.667 190.667 298.334 230 521.001l16 87
c38.667 222 23 395.333 -47 520c-47.333 83.333 -127.333 163.333 -240 240h255z" />
    <glyph glyph-name="asterisk" unicode="*" horiz-adv-x="841" 
d="M738 1291l177 86l70 -133l-207 -102l171 -102l-117 -134l-146 86l-26 -145h-180l26 146l-179 -87l-69 134l207 102l-171 102l117 134l147 -87l26 145h180z" />
    <glyph glyph-name="plus" unicode="+" horiz-adv-x="1138" 
d="M479 609h-394v156h394v395h180v-395h394v-156h-394v-395h-180v395z" />
    <glyph glyph-name="comma" unicode="," horiz-adv-x="464" 
d="M406 221l-268 -407h-171l181 407h258z" />
    <glyph glyph-name="hyphen" unicode="-" horiz-adv-x="680" 
d="M158 621h584l-28 -157h-584z" />
    <glyph glyph-name="hyphen" unicode="&#xad;" horiz-adv-x="680" 
d="M158 621h584l-28 -157h-584z" />
    <glyph glyph-name="period" unicode="." horiz-adv-x="367" 
d="M307.5 184.5c20.333 -23.667 27.835 -50.5 22.502 -80.5s-22.333 -56.833 -51 -80.5s-61.334 -35.5 -98.001 -35.5c-38 0 -66.833 11.833 -86.5 35.5s-26.834 50.5 -21.501 80.5s22 56.833 50 80.5s61 35.5 99 35.5c36.667 0 65.167 -11.833 85.5 -35.5z" />
    <glyph glyph-name="slash" unicode="/" horiz-adv-x="744" 
d="M853 1439h197l-906 -1439h-196z" />
    <glyph glyph-name="zero" unicode="0" horiz-adv-x="1135" 
d="M1026 708c32.667 186 23.334 327.5 -27.999 424.5s-119.666 145.5 -204.999 145.5c-86 0 -171.5 -48.5 -256.5 -145.5s-143.833 -238.5 -176.5 -424.5c-33.333 -186.667 -24.5 -328.334 26.5 -425.001s119.5 -145 205.5 -145c85.333 0 170.666 48.333 255.999 145
s144.666 238.334 177.999 425.001zM1210 708c-39.333 -221.333 -119.833 -398.666 -241.5 -531.999s-256.5 -200 -404.5 -200c-148.667 0 -260.5 66.667 -335.5 200s-92.833 310.666 -53.5 531.999c38.667 220.667 119 397.667 241 531s257.333 200 406 200
c148 0 259.333 -66.667 334 -200s92.667 -310.333 54 -531z" />
    <glyph glyph-name="one" unicode="1" horiz-adv-x="1146" 
d="M514 157l177 1004l-101 -59l-116 96l455 294l-235 -1335h295l-28 -157h-776l28 157h301z" />
    <glyph glyph-name="two" unicode="2" horiz-adv-x="1177" 
d="M170 0c482.667 580.667 740.832 893.668 774.499 939.001s53.834 87.666 60.501 126.999c3.33301 19.333 4.66602 39.333 3.99902 60c-2.66699 60.667 -26 106.334 -70 137.001c-30 20 -62.333 30 -97 30c-16 0 -32 -1.66699 -48 -5
c-56.667 -12.667 -104.667 -43.667 -144 -93c-24 -29.333 -44.667 -72.666 -62 -129.999l-175 27c18.667 71.333 47.334 130.666 86.001 177.999c74.667 91.333 166.334 148.666 275.001 171.999c33.333 8 65.666 12 96.999 12c74.667 0 141 -20.667 199 -62
c80 -56.667 122.667 -135 128 -235c2 -35.333 0 -69.333 -6 -102c-10 -58 -36.167 -115.833 -78.5 -173.5s-240.833 -299.167 -595.5 -724.5h516l-28 -157h-836z" />
    <glyph glyph-name="three" unicode="3" horiz-adv-x="1144" 
d="M653 759l-108.003 3.00195l28 154c78.667 0.666992 132 6.16699 160 16.5s61.833 33.333 101.5 69s63.834 78.167 72.501 127.5c8.66699 50 0 90.667 -26 122s-59.333 47 -100 47s-79 -15 -115 -45c-21.333 -18.667 -47.333 -55.667 -78 -111l-153 65
c31.333 65.333 68 115.333 110 150c79.333 67.333 167.333 101 264 101c97.333 0 172.833 -33 226.5 -99s72.834 -142.667 57.501 -230c-15.333 -88.667 -77.333 -181.667 -186 -279c36 -7.33301 78 -43 126 -107c68 -90.667 91.333 -196 70 -316
c-21.333 -120.667 -83.666 -225 -186.999 -313s-219.333 -132 -348 -132c-128 0 -229 45 -303 135c-56.667 69.333 -83.667 159.666 -81 270.999l190 64c-6.66699 -106 9.66602 -183 48.999 -231c43.333 -52.667 101 -79 173 -79c74 0 143 27.167 207 81.5
s103 122.166 117 203.499c14.667 82 -0.166016 152.667 -44.499 212s-118.5 99.333 -222.5 120z" />
    <glyph glyph-name="four" unicode="4" horiz-adv-x="1171" 
d="M1194 1639l-199 -1133h130l-28 -156h-130l-62 -350h-181l62 350h-588zM901 1003l-382 -497h295z" />
    <glyph glyph-name="five" unicode="5" horiz-adv-x="1147" 
d="M553 1041c41.333 7.33301 81 10.998 119 10.998c70 0 134.667 -11 194 -33c131.333 -48 220 -136 266 -264c28 -77.333 34.667 -156.666 20 -237.999c-8.66699 -51.333 -25.334 -102.333 -50.001 -153c-66.667 -136.667 -170 -240 -310 -310
c-88.667 -42.667 -176 -64 -262 -64c-54.667 0 -108.334 8.66699 -161.001 26c-107.333 35.333 -189 103.666 -245 204.999l146 134c50.667 -101.333 113.334 -163.666 188.001 -186.999c32.667 -11.333 65.334 -17 98.001 -17c52.667 0 107 13.667 163 41
c94.667 46 165 117 211 213c19.333 38.667 32 76.334 38 113.001c10.667 58 6 115 -14 171c-30.667 87.333 -90 147.333 -178 180c-37.333 13.333 -79.333 20 -126 20c-66 0 -154 -16.333 -264 -49l-87 91l240 445l11 63h528l-28 -157h-373z" />
    <glyph glyph-name="six" unicode="6" horiz-adv-x="1143" 
d="M398 399c-13.333 -73.333 0.166992 -134.333 40.5 -183s93.166 -73 158.499 -73c64.667 0 125.667 24.333 183 73s92.666 109.667 105.999 183c12.667 73.333 -1.16602 134.5 -41.499 183.5s-92.833 73.5 -157.5 73.5c-65.333 0 -126.666 -24.5 -183.999 -73.5
s-92.333 -110.167 -105 -183.5zM544 765c34.667 34.667 92 51.999 172 51.999c121.333 0 215.833 -41.333 283.5 -124s91.5 -180.667 71.5 -294c-20 -112.667 -78.5 -210.5 -175.5 -293.5s-206.167 -124.5 -327.5 -124.5c-120 0 -214.167 41.5 -282.5 124.5
s-92.5 180.833 -72.5 293.5c32.667 150.667 102.667 306.834 210 468.501s254 352.167 440 571.5h219c-230.667 -268 -410 -492.667 -538 -674z" />
    <glyph glyph-name="seven" unicode="7" horiz-adv-x="1142" 
d="M993 905c-142 -161.333 -263.332 -318.999 -363.999 -472.999c-99.333 -152.667 -164.333 -296.667 -195 -432h-183c36 167.333 108.333 332.666 217 495.999c107.333 160 225.666 315.333 354.999 466c124 146 199 252.667 225 320h-704l28 157h905
c-36 -180.667 -130.667 -358.667 -284 -534z" />
    <glyph glyph-name="eight" unicode="8" horiz-adv-x="1137" 
d="M596 144c107.333 4.66699 189.833 32.5 247.5 83.5s93.834 117.5 108.501 199.5c14 82 -1.33301 153 -46 213c-42.667 57.333 -110.334 95.666 -203.001 114.999c-102 -19.333 -184.333 -57.666 -247 -114.999c-65.333 -60 -105 -131 -119 -213
c-14.667 -82 -2.16699 -148.5 37.5 -199.5s113.5 -78.833 221.5 -83.5zM568 -9c-165.333 0 -281.165 42.667 -347.498 128s-88.833 188 -67.5 308c20.667 120 81 225.333 181 316c71.333 64 128.333 96 171 96c-78.667 104.667 -110 201.334 -94 290.001
c15.333 88 61.166 164 137.499 228s170.166 96.333 281.499 97c104.667 -0.666992 184 -33 238 -97s73.333 -140 58 -228c-16 -88.667 -82.333 -185.334 -199 -290.001c43.333 0 89 -32 137 -96c68 -90.667 91.667 -196 71 -316c-21.333 -120 -80 -222.667 -176 -308
s-226.333 -128 -391 -128zM652.001 1247.5c-28.667 -28.333 -47.335 -67.833 -56.002 -118.5c-9.33301 -49.333 -0.5 -91.666 26.5 -126.999s63.833 -60.666 110.5 -75.999c50.667 15.333 95.5 40.666 134.5 75.999s63.167 77.666 72.5 126.999
c8.66699 50.667 3.83398 90.167 -14.499 118.5s-61.166 44.833 -128.499 49.5c-68 -4.66699 -116.333 -21.167 -145 -49.5z" />
    <glyph glyph-name="nine" unicode="9" horiz-adv-x="1143" 
d="M995 1021c12.667 73.333 -1.16895 134.333 -41.502 183s-93.166 73 -158.499 73c-64.667 0 -125.667 -24.333 -183 -73s-92.333 -109.667 -105 -183s1 -134.5 41 -183.5s92.333 -73.5 157 -73.5c65.333 0 126.833 24.5 184.5 73.5s92.834 110.167 105.501 183.5z
M847.997 655c-34 -34.667 -91.3311 -51.999 -171.998 -51.999c-120.667 0 -214.834 41.333 -282.501 124s-91.5 180.667 -71.5 294c20 112.667 78.5 210.5 175.5 293.5s205.833 124.5 326.5 124.5s215.167 -41.5 283.5 -124.5s92.5 -180.833 72.5 -293.5
c-32.667 -150.667 -102.834 -306.834 -210.501 -468.501s-254.5 -352.167 -440.5 -571.5h-218c230 268 409 492.667 537 674z" />
    <glyph glyph-name="colon" unicode=":" horiz-adv-x="367" 
d="M307.5 184.5c20.333 -23.667 27.835 -50.5 22.502 -80.5s-22.333 -56.833 -51 -80.5s-61.334 -35.5 -98.001 -35.5c-38 0 -66.833 11.833 -86.5 35.5s-26.834 50.5 -21.501 80.5s22 56.833 50 80.5s61 35.5 99 35.5c36.667 0 65.167 -11.833 85.5 -35.5zM412.502 778
c20.333 -23.333 27.835 -50 22.502 -80s-22.333 -56.833 -51 -80.5s-61.334 -35.5 -98.001 -35.5c-38 0 -66.833 11.833 -86.5 35.5s-26.834 50.5 -21.501 80.5s22 56.667 50 80s61 35 99 35c36.667 0 65.167 -11.667 85.5 -35z" />
    <glyph glyph-name="semicolon" unicode=";" horiz-adv-x="421" 
d="M406 221l-268 -407h-171l181 407h258zM445 778c20 -23.333 27.333 -50 22 -80s-22.166 -56.833 -50.499 -80.5s-61.166 -35.5 -98.499 -35.5s-66 11.833 -86 35.5s-27.333 50.5 -22 80.5s22.166 56.667 50.499 80s61.166 35 98.499 35s66 -11.667 86 -35z" />
    <glyph glyph-name="semicolon" unicode="&#x37e;" horiz-adv-x="421" 
d="M406 221l-268 -407h-171l181 407h258zM445 778c20 -23.333 27.333 -50 22 -80s-22.166 -56.833 -50.499 -80.5s-61.166 -35.5 -98.499 -35.5s-66 11.833 -86 35.5s-27.333 50.5 -22 80.5s22.166 56.667 50.499 80s61.166 35 98.499 35s66 -11.667 86 -35z" />
    <glyph glyph-name="less" unicode="&#x3c;" horiz-adv-x="1184" 
d="M449 782l646 -299v-182l-1006 481l1006 481v-182z" />
    <glyph glyph-name="equal" unicode="=" horiz-adv-x="1138" 
d="M85 902h968v-157h-968v157zM89 630h960v-157h-960v157z" />
    <glyph glyph-name="greater" unicode="&#x3e;" horiz-adv-x="1184" 
d="M89 1081v182l1006 -481l-1006 -481v182l646 299z" />
    <glyph glyph-name="question" unicode="?" horiz-adv-x="832" 
d="M459 104c-5.33301 -30 -22.166 -56.833 -50.499 -80.5s-61.166 -35.5 -98.499 -35.5s-66 11.833 -86 35.5s-27.333 50.5 -22 80.5s22.166 56.833 50.499 80.5s61.166 35.5 98.499 35.5s66 -11.833 86 -35.5s27.333 -50.5 22 -80.5zM241 1076
c13.333 68 27.667 115.002 43 141.002c54.667 92.667 129.667 156.667 225 192c48 17.333 94.667 26 140 26c46 0 89.667 -8.66699 131 -26c80.667 -36.667 129.334 -95 146.001 -175c8 -42 8.66699 -82 2 -120c-6.66699 -39.333 -21.667 -79 -45 -119
c-39.333 -68.667 -122 -167.334 -248 -296.001c-103.333 -104.667 -163.333 -204.334 -180 -299.001c-2 -11.333 -4.66699 -37.333 -8 -78h-181l9 66c23.333 133.333 96 261.666 218 384.999c132.667 134.667 211.334 229.334 236.001 284.001
c8.66699 20.667 14.667 40.334 18 59.001c5.33301 28 3.66602 53.667 -5.00098 77c-13.333 37.333 -39.333 63.666 -78 78.999c-17.333 6 -34.333 9 -51 9c-20.667 0 -42 -4.66699 -64 -14c-44 -19.333 -78 -51 -102 -95c-8.66699 -16 -18.334 -48 -29.001 -96h-177z" />
    <glyph glyph-name="at" unicode="@" horiz-adv-x="1593" 
d="M1126 630l29 124.998c0 42 -12 79.333 -36 112c-34 44 -81.333 66 -142 66c-61.333 0 -120.333 -23.167 -177 -69.5s-94 -109.833 -112 -190.5c-11.333 -61.333 0 -113.666 34 -156.999c32.667 -44 79.334 -66 140.001 -66c61.333 0 119.666 22.333 174.999 67
c40 32.667 69.667 70.334 89 113.001zM826 285.998c-118 0 -208.67 41.666 -272.003 124.999c-57.333 73.333 -77.333 159.666 -60 258.999c30 124.667 94 227.167 192 307.5s205.667 120.5 323 120.5c118.667 0 189.334 -15.667 212.001 -47l8 33h188l-163 -561
c-2 -26 5 -39 21 -39c16.667 0 42.667 14 78 42c68 54 118 152.667 150 296c20 114.667 -6 215.667 -78 303c-74.667 90.667 -199 136 -373 136c-152.667 0 -297.167 -55.667 -433.5 -167s-225.166 -259 -266.499 -443c-25.333 -143.333 1.66699 -266.666 81 -369.999
c82.667 -108 199.334 -162 350.001 -162c104 0 196.667 22.333 278 67l90 -127c-130.667 -67.333 -264.334 -101 -401.001 -101c-207.333 0 -367.333 73.333 -480 220c-102.667 131.333 -138 287.333 -106 468c52 228.667 166.833 415.167 344.5 559.5
s369.834 216.5 576.501 216.5c230.667 0 398 -63.667 502 -191c94.667 -117.333 129 -249.333 103 -396c-39.333 -176 -105 -306.333 -197 -391c-90.667 -84 -186.667 -126 -288 -126c-96 10.667 -138 50.334 -126 119.001c-50.667 -100.667 -135 -151 -253 -151z" />
    <glyph glyph-name="A" unicode="A" horiz-adv-x="1208" 
d="M876 754l-71 382l-206 -382h277zM938 1439l267 -1439h-188l-112 598h-391l-326 -598h-189l782 1439h157z" />
    <glyph glyph-name="B" unicode="B" horiz-adv-x="1102" 
d="M583 157c83.333 0 161.665 31.166 234.998 93.499s118 139.833 134 232.5c16.667 92.667 -0.666016 170.334 -51.999 233.001s-118.666 94 -201.999 94h-262l-115 -653h262zM518.999 1283l-55.001 -316.001h290c40 4 72.333 17 97 39c34.667 28.667 56.334 67 65.001 115
c8 46.667 -0.666992 85.334 -26 116.001s-57.333 46 -96 46h-275zM1055 820.998c76.667 -93.333 103.332 -206.001 79.999 -338.001c-22.667 -130.667 -91 -244.334 -205 -341.001c-92 -78.667 -199 -126 -321 -142h-497l254 1439h457c94 0 167 -31.667 219 -95
s70.667 -137.666 56 -222.999c-15.333 -86 -59.333 -159.667 -132 -221c20.667 -5.33301 50.334 -31.666 89.001 -78.999z" />
    <glyph glyph-name="C" unicode="C" horiz-adv-x="1419" 
d="M1286 317l107.001 -112c-188 -147.333 -379.333 -221 -574 -221c-209.333 0 -373.5 72.167 -492.5 216.5s-160.833 317.5 -125.5 519.5c35.333 200 138 372.667 308 518s359.667 218 569 218c194.667 0 360 -74 496 -222l-146 -112
c-111.333 116.667 -237.333 175 -378 175c-153.333 0 -295.666 -55.833 -426.999 -167.5s-211.333 -248.167 -240 -409.5c-28.667 -162.667 3.16602 -299.667 95.499 -411s215.166 -167 368.499 -167c140.667 0 287 58.333 439 175z" />
    <glyph glyph-name="D" unicode="D" horiz-adv-x="1252" 
d="M670 1439c239.333 -1.33301 413.999 -69 523.999 -203c117.333 -144 158.333 -316 123 -516c-35.333 -202 -138.666 -376 -309.999 -522c-154 -130.667 -351 -196.667 -591 -198h-304l254 1439h304zM518.999 1279l-198 -1120h122c178.667 0 327.667 49.333 447 148
c132.667 112.667 213.334 250.334 242.001 413.001c28.667 161.333 -3.33301 299 -96 413c-84.667 97.333 -216.334 146 -395.001 146h-122z" />
    <glyph glyph-name="E" unicode="E" horiz-adv-x="1007" 
d="M1149 1439l-28 -157h-602l-85 -484h602l-28 -157h-602l-85 -484h602l-28 -157h-783l254 1439h783z" />
    <glyph glyph-name="F" unicode="F" horiz-adv-x="862" 
d="M1064 1439l-28 -157h-517l-85 -484h517l-28 -157h-517l-113 -641h-181l254 1439h698z" />
    <glyph glyph-name="G" unicode="G" horiz-adv-x="1431" 
d="M1370 196c-172 -141.333 -355.666 -212 -550.999 -212c-209.333 0 -373.5 72.167 -492.5 216.5s-160.833 317.5 -125.5 519.5c35.333 200 138 372.667 308 518s359.667 218 569 218c194.667 0 360 -74 496 -222l-146 -112c-111.333 116.667 -237.333 175 -378 175
c-153.333 0 -295.666 -55.833 -426.999 -167.5s-211.333 -248.167 -240 -409.5c-28.667 -162.667 3.16602 -299.667 95.499 -411s215.166 -167 368.499 -167c131.333 0 249 36.667 353 110l77 438h180z" />
    <glyph glyph-name="H" unicode="H" horiz-adv-x="1141" 
d="M388 641l-113 -641h-181l254 1439h181l-113 -641h591l113 641h181l-254 -1439h-181l113 641h-591z" />
    <glyph glyph-name="I" unicode="I" horiz-adv-x="425" 
d="M557 1439l-254 -1439h-181l254 1439h181z" />
    <glyph glyph-name="J" unicode="J" horiz-adv-x="400" 
d="M288 14c-14 -78 -53.668 -143.833 -119.001 -197.5s-157.666 -80.5 -276.999 -80.5l26 150c64.667 0 110 10.667 136 32c28 24 46.333 59.333 55 106l249 1415h181z" />
    <glyph glyph-name="K" unicode="K" horiz-adv-x="1102" 
d="M1128 1439l-477 -550l465 -889h-211l-387 741l-118 -135l-107 -606h-181l254 1439h181l-94 -532l465 532h210z" />
    <glyph glyph-name="L" unicode="L" horiz-adv-x="862" 
d="M112 0l254 1439h181l-226 -1282h517l-28 -157h-698z" />
    <glyph glyph-name="M" unicode="M" horiz-adv-x="1496" 
d="M1657 1439l-254 -1439h-181l206 1170l-582 -621l-365 621l-206 -1170h-181l254 1439h193l355 -605l568 605h193z" />
    <glyph glyph-name="N" unicode="N" horiz-adv-x="1398" 
d="M542 1439l617 -1150l203 1150h181l-254 -1439h-200l-601 1121l-198 -1121h-181l254 1439h179z" />
    <glyph glyph-name="O" unicode="O" horiz-adv-x="1621" 
d="M1560.5 1241c119.667 -145.333 161.5 -318.333 125.5 -519c-35.333 -202 -138.333 -375.5 -309 -520.5s-360.667 -217.5 -570 -217.5c-208.667 0 -372.667 72.5 -492 217.5s-161.333 318.5 -126 520.5c36 200.667 139.167 373.667 309.5 519s359.833 218 568.5 218
c209.333 0 373.833 -72.667 493.5 -218zM1040 1301c-153.333 0 -295.999 -56.167 -427.999 -168.5s-212.333 -249.166 -241 -410.499c-28.667 -162.667 3.16602 -300 95.499 -412s215.166 -168 368.499 -168c154 0 296.833 56 428.5 168s211.834 249.333 240.501 412
c28.667 161.333 -3 298.166 -95 410.499s-215 168.5 -369 168.5z" />
    <glyph glyph-name="P" unicode="P" horiz-adv-x="1032" 
d="M376 471l-83.001 -471h-181l254 1439h412c117.333 -16 209 -64.667 275 -146c77.333 -94 104.666 -206.333 81.999 -337c-23.333 -131.333 -91.166 -245 -203.499 -341s-238.166 -144 -377.499 -144h-178zM518.999 1281l-115.001 -651.999h178
c84 0 162.833 31.167 236.5 93.5s118.834 140.166 135.501 233.499c16 92.667 -1.83301 170 -53.5 232s-119.5 93 -203.5 93h-178z" />
    <glyph glyph-name="Q" unicode="Q" horiz-adv-x="1621" 
d="M1040 1301c-153.333 0 -295.999 -56.167 -427.999 -168.5s-212.333 -249.166 -241 -410.499c-28.667 -162.667 3.16602 -300 95.499 -412s215.166 -168 368.499 -168c154 0 296.833 56 428.5 168s211.834 249.333 240.501 412c28.667 161.333 -3 298.166 -95 410.499
s-215 168.5 -369 168.5zM313.001 204c-118 143.333 -159.332 315.997 -123.999 517.997c36 200.667 139.167 373.667 309.5 519s359.833 218 568.5 218c209.333 0 373.833 -72.667 493.5 -218s161.5 -318.333 125.5 -519c-35.333 -202 -139 -376 -311 -522
c-120.667 -103.333 -231 -158.333 -331 -165c119.333 -54 198.333 -83.667 237 -89c33.333 0.666992 60 39 80 115h183c-50 -161.333 -140.333 -247 -271 -257c-94.667 0 -177.667 24 -249 72c-64.667 37.333 -113.667 57 -147 59
c-26.667 -1.33301 -47.834 -8.16602 -63.501 -20.499s-28.5 -29.666 -38.5 -51.999s-19.333 -48.166 -28 -77.499h-183c36 99.333 95.333 178.333 178 237c-188.667 3.33301 -331.667 64 -429 182z" />
    <glyph glyph-name="R" unicode="R" horiz-adv-x="1041" 
d="M519 1281l-115.001 -651.999h178c84 0 162.833 31.167 236.5 93.5s118.834 140.166 135.501 233.499c16 92.667 -1.83301 170 -53.5 232s-119.5 93 -203.5 93h-178zM544.999 471.001h-169l-83 -471h-181l254 1439h412c117.333 -16 209 -64.667 275 -146
c77.333 -94 104.666 -206.333 81.999 -337c-23.333 -131.333 -92 -245.333 -206 -342c-75.333 -64.667 -138.666 -103 -189.999 -115l235 -499h-209z" />
    <glyph glyph-name="S" unicode="S" horiz-adv-x="1017" 
d="M644 757c-97.333 34 -171.834 82.3311 -223.501 144.998s-69.5 138.334 -53.5 227.001c15.333 86.667 61.333 162.834 138 228.501s163.334 98.5 260.001 98.5c95.333 0 171 -33.667 227 -101c29.333 -34.667 48.333 -83.334 57 -146.001l-173 -63
c-10.667 54 -22.667 89 -36 105c-26.667 33.333 -61 50 -103 50c-41.333 0 -81 -16.167 -119 -48.5s-61.333 -73.5 -70 -123.5c-8.66699 -49.333 0.666016 -91.333 27.999 -126c28.667 -33.333 70.334 -64 125.001 -92c108.667 -37.333 194.667 -94.666 258 -171.999
c73.333 -88 99.333 -192 78 -312s-83.5 -223.833 -186.5 -311.5s-218.167 -131.5 -345.5 -131.5c-128 0 -228.333 45 -301 135c-57.333 68.667 -84.333 157.667 -81 267l185 63c-8 -104.667 8.33301 -181 49 -229c44 -53.333 102.667 -80 176 -80
c74 0 143.333 27.5 208 82.5s104 123.167 118 204.5c14.667 81.333 -0.333008 149 -45 203c-45.333 54 -102 96.333 -170 127z" />
    <glyph glyph-name="T" unicode="T" horiz-adv-x="931" 
d="M782 1282l-226 -1282h-180l226 1282h-344l28 157h867l-28 -157h-343z" />
    <glyph glyph-name="U" unicode="U" horiz-adv-x="1214" 
d="M1174 1439h181l-179 -1018c-35.333 -112.667 -101 -209.667 -197 -291c-110.667 -94.667 -235.334 -142 -374.001 -142c-140 0 -249.167 47.833 -327.5 143.5s-105.833 209.167 -82.5 340.5l170 967h181l-170 -967c-16.667 -92 0.833008 -169.5 52.5 -232.5
s119.834 -94.5 204.501 -94.5c84 0 162.667 31.5 236 94.5s118.333 140.5 135 232.5z" />
    <glyph glyph-name="V" unicode="V" horiz-adv-x="1158" 
d="M1224 1439h189l-771 -1439h-126l-262 1439h188l197 -1108z" />
    <glyph glyph-name="W" unicode="W" horiz-adv-x="1665" 
d="M1084 1079l158 -751l494 1111h183l-640 -1439h-158l-154 758l-423 -758h-158l-132 1439h184l103 -1111l422 751h121z" />
    <glyph glyph-name="X" unicode="X" horiz-adv-x="1137" 
d="M15 0l592 787l-261 652h200l191 -479l361 479h201l-492 -652l316 -787h-201l-246 613l-462 -613h-199z" />
    <glyph glyph-name="Y" unicode="Y" horiz-adv-x="1233" 
d="M629 582l-343 857h200l268 -666l501 666h200l-645 -857l-103 -582h-181z" />
    <glyph glyph-name="Z" unicode="Z" horiz-adv-x="1168" 
d="M1049 1282h-615l28 157h906l-966 -1282h780l-28 -157h-1070z" />
    <glyph glyph-name="bracketleft" unicode="[" horiz-adv-x="477" 
d="M244 42h186l-28 -156h-367l296 1680h367l-27 -156h-186z" />
    <glyph glyph-name="backslash" unicode="\" horiz-adv-x="744" 
d="M796 0h-196l-398 1439h197z" />
    <glyph glyph-name="bracketright" unicode="]" horiz-adv-x="477" 
d="M490 1410h-186l27 156h367l-296 -1680h-367l28 156h186z" />
    <glyph glyph-name="asciicircum" unicode="^" horiz-adv-x="967" 
d="M816 1439l213 -533h-202l-127 317l-240 -317h-202l402 533h156z" />
    <glyph glyph-name="underscore" unicode="_" horiz-adv-x="863" 
d="M-35 54h953l-28 -156h-953z" />
    <glyph glyph-name="grave" unicode="`" horiz-adv-x="651" 
d="M593 1273l166 -239h-190l-270 239h294z" />
    <glyph glyph-name="a" unicode="a" horiz-adv-x="1188" 
d="M1099 0h-180.999l28 160c-92.667 -122.667 -212 -184 -358 -184c-144.667 0 -258.334 50.167 -341.001 150.5s-112 218.833 -88 355.5c24.667 138 96 257 214 357s249.333 150 394 150c146 0 243.667 -60.667 293 -182l19 107h181zM990.001 410l26 146
c-0.666992 66 -21 123 -61 171c-55.333 68 -127.666 102 -216.999 102c-90 0 -173.833 -33.333 -251.5 -100s-125.167 -149 -142.5 -247c-17.333 -97.333 1.16699 -179 55.5 -245s126.5 -99 216.5 -99c89.333 0 173.666 33.667 252.999 101c56.667 48 97 105 121 171z" />
    <glyph glyph-name="b" unicode="b" horiz-adv-x="1197" 
d="M353 1439h181.001l-111 -630c92 120 210.667 180 356 180s259.166 -50 341.499 -150s111.5 -219 87.5 -357c-24 -136.667 -94.833 -255.167 -212.5 -355.5s-249.167 -150.5 -394.5 -150.5s-243 60.333 -293 181l-28 -157h-181zM379.001 559l-28 -154
c0.666992 -64 21.667 -120.667 63 -170c54 -64.667 125.667 -97 215 -97s173 33 251 99s125.667 147.667 143 245c17.333 98 -1.33398 180.333 -56.001 247s-126.667 100 -216 100s-174 -34 -254 -102c-55.333 -47.333 -94.666 -103.333 -117.999 -168z" />
    <glyph glyph-name="c" unicode="c" horiz-adv-x="1074" 
d="M902 292l161.002 -63c-42.667 -46 -75.667 -79.333 -99 -100c-119.333 -102 -252 -153 -398 -153c-144.667 0 -258.334 50.167 -341.001 150.5s-112 219.166 -88 356.499c24.667 137.333 96 256 214 356s249.333 150 394 150c146 0 259.333 -49.333 340 -148
c18.667 -22.667 41 -57 67 -103l-183 -64c-18.667 30 -31.667 49.667 -39 59c-53.333 64 -124.666 96 -213.999 96s-172.833 -33.167 -250.5 -99.5s-125.167 -148.5 -142.5 -246.5c-16.667 -97.333 2 -179.166 56 -245.499s125.667 -99.5 215 -99.5
s173.666 33.667 252.999 101c7.33301 6 25.666 23.667 54.999 53z" />
    <glyph glyph-name="d" unicode="d" horiz-adv-x="1188" 
d="M1099 0h-180.999l28 160c-92.667 -122.667 -212 -184 -358 -184c-144.667 0 -258.334 50.167 -341.001 150.5s-112 218.833 -88 355.5c24.667 138 96 257 214 357s249.333 150 394 150c146 0 243.667 -60.667 293 -182l112 632h181zM990.001 410l26 146
c-0.666992 66 -21 123 -61 171c-55.333 68 -127.666 102 -216.999 102c-90 0 -173.833 -33.333 -251.5 -100s-125.167 -149 -142.5 -247c-17.333 -97.333 1.16699 -179 55.5 -245s126.5 -99 216.5 -99c89.333 0 173.666 33.667 252.999 101c56.667 48 97 105 121 171z" />
    <glyph glyph-name="e" unicode="e" horiz-adv-x="1108" 
d="M383 643h599c-21.333 124 -110 186 -266 186c-156.667 0 -267.667 -62 -333 -186zM323 485l-0.998047 -2.99902c-17.333 -97.333 1.16699 -179 55.5 -245s126.5 -99 216.5 -99c89.333 0 173.666 33.667 252.999 101c11.333 9.33301 33 30.333 65 63l160 -60
c-32.667 -42.667 -68.667 -80.334 -108 -113.001c-119.333 -102 -252 -153 -398 -153c-144.667 0 -258.334 50.167 -341.001 150.5s-112 218.833 -88 355.5c24.667 138 96 257 214 357s249.333 150 394 150c146 0 260.667 -50.667 344 -152
c71.333 -88 94.333 -205.333 69 -352h-835z" />
    <glyph glyph-name="f" unicode="f" horiz-adv-x="480" 
d="M421 758l-134 -758h-181l134 758h-84l27 156h84l33 187c17.333 71.333 56.333 133.333 117 186c67.333 53.333 139 80 215 80c58.667 0 110.667 -12 156 -36l-80 -150c-36.667 23.333 -68.667 35 -96 35c-24 0 -50 -11 -78 -33c-28 -24 -46 -53.667 -54 -89l-32 -180h170
l-27 -156h-170z" />
    <glyph glyph-name="g" unicode="g" horiz-adv-x="1149" 
d="M994 559c-2 64.667 -23.334 121.999 -64.001 171.999c-53.333 65.333 -124.666 98 -213.999 98c-90 0 -173.833 -33.333 -251.5 -100s-125.167 -149 -142.5 -247c-17.333 -97.333 1.16699 -179.166 55.5 -245.499s126.5 -99.5 216.5 -99.5
c89.333 0 173.666 33.667 252.999 101c54.667 46.667 94.334 102 119.001 166zM909.999 154.999c-83.333 -119.333 -198.001 -179 -344.001 -179c-144.667 0 -258.334 50.167 -341.001 150.5s-112 218.833 -88 355.5c24.667 138 95.834 256.833 213.501 356.5
s248.834 149.5 393.501 149.5c145.333 0 243.333 -60.333 294 -181l19 107h181l-121 -688c-23.333 -134 -92 -249 -206 -345c-119.333 -102 -251.666 -153 -396.999 -153s-259 49.667 -341 149c-18 23.333 -40.333 58 -67 104l184 63c18 -29.333 31 -48 39 -56
c53.333 -65.333 124.666 -98 213.999 -98c188.667 0 311 88.333 367 265z" />
    <glyph glyph-name="h" unicode="h" horiz-adv-x="936" 
d="M348 1439l181 -0.000976562l-93 -525c36.667 33.333 103 50 199 50c115.333 0 202.166 -35.333 260.499 -106s79.166 -157 62.499 -259l-106 -599h-180l104 591c11.333 62 -0.5 113.5 -35.5 154.5s-79.5 61.5 -133.5 61.5c-53.333 0 -103.666 -19.333 -150.999 -58
c-27.333 -23.333 -47.666 -45.666 -60.999 -66.999l-120 -682h-181z" />
    <glyph glyph-name="i" unicode="i" horiz-adv-x="415" 
d="M458 914l-161 -914h-180l161 914h180zM506.5 1174.5c20.333 -23.667 27.835 -50.167 22.502 -79.5c-5.33301 -30.667 -22.333 -57.834 -51 -81.501s-61.334 -35.5 -98.001 -35.5c-38 0 -66.833 11.833 -86.5 35.5s-26.834 50.834 -21.501 81.501
c5.33301 29.333 22 55.833 50 79.5s61 35.5 99 35.5c36.667 0 65.167 -11.833 85.5 -35.5z" />
    <glyph glyph-name="j" unicode="j" horiz-adv-x="379" 
d="M-19 -43c70 8 109 35 117 81l155 876h180l-154 -874c-24.667 -138.667 -132.667 -215.667 -324 -231zM481 1174.5c20 -23.667 27.333 -50.167 22 -79.5c-5.33301 -30.667 -22.166 -57.834 -50.499 -81.501s-61.166 -35.5 -98.499 -35.5s-66 11.833 -86 35.5
s-27.333 50.834 -22 81.501c5.33301 29.333 22.166 55.833 50.499 79.5s61.166 35.5 98.499 35.5s66 -11.833 86 -35.5z" />
    <glyph glyph-name="k" unicode="k" horiz-adv-x="744" 
d="M811 914l-292 -298l239 -616h-207l-175 472l-16 -17l-80 -455h-181l224 1269h181l-96 -541l184 186h219z" />
    <glyph glyph-name="l" unicode="l" horiz-adv-x="401" 
d="M545 1439l-254 -1439h-181l254 1439h181z" />
    <glyph glyph-name="m" unicode="m" horiz-adv-x="1214" 
d="M413 753l-132.996 -753h-181l161 914h113c55.333 32.667 119.666 49 192.999 49c85.333 0 152 -21.333 200 -64c61.333 42.667 134.666 64 219.999 64s152 -29.333 200 -88c43.333 -54 60 -117.333 50 -190l-121 -685h-181l128 724
c1.33301 55.333 -33.334 83 -104.001 83c-58.667 0 -103.334 -26 -134.001 -78l-129 -729h-181l128 724h-1c2 55.333 -32.333 83 -103 83c-49.333 0 -91 -18 -125 -54z" />
    <glyph glyph-name="n" unicode="n" 
d="M400 682l-120 -682.001h-181l161 914h181c36.667 33.333 103 50 199 50c115.333 0 202.166 -35.333 260.499 -106s79.166 -157 62.499 -259l-106 -599h-180l104 591c11.333 62 -0.5 113.5 -35.5 154.5s-79.5 61.5 -133.5 61.5c-53.333 0 -103.666 -19.333 -150.999 -58
c-27.333 -23.333 -47.666 -45.666 -60.999 -66.999z" />
    <glyph glyph-name="o" unicode="o" horiz-adv-x="1179" 
d="M765 989c146 0 259.834 -50 341.501 -150s110.167 -219 85.5 -357c-24 -136.667 -94.5 -255.167 -211.5 -355.5s-248.5 -150.5 -394.5 -150.5c-144.667 0 -258.334 50.167 -341.001 150.5s-112 218.833 -88 355.5c24.667 138 96 257 214 357s249.333 150 394 150z
M484.501 729c-77.667 -66.667 -125.166 -149 -142.499 -247c-17.333 -97.333 1.16699 -179 55.5 -245s126.5 -99 216.5 -99c89.333 0 173 33 251 99s125.667 147.667 143 245c17.333 98 -1.33398 180.333 -56.001 247s-126.667 100 -216 100
c-90 0 -173.833 -33.333 -251.5 -100z" />
    <glyph glyph-name="p" unicode="p" horiz-adv-x="1176" 
d="M253 914h181l-18 -105c92 119.333 210.667 179 356 179s259.333 -49.833 342 -149.5s111.667 -218.5 87 -356.5c-24 -136.667 -94.833 -255.167 -212.5 -355.5s-249.167 -150.5 -394.5 -150.5s-243 60.333 -293 181l-84 -475h-181zM372 559l-28 -153.999
c0.666992 -64.667 21.667 -121.667 63 -171c54 -64.667 125.667 -97 215 -97s173 33.167 251 99.5s125.667 148.166 143 245.499c17.333 98 -1.33398 180.333 -56.001 247s-126.667 100 -216 100s-174 -34 -254 -102c-55.333 -47.333 -94.666 -103.333 -117.999 -168z" />
    <glyph glyph-name="q" unicode="q" horiz-adv-x="1173" 
d="M1029 -318h-181.001l84 478c-92.667 -122.667 -212 -184 -358 -184c-144.667 0 -258.334 50.167 -341.001 150.5s-112 218.833 -88 355.5c24.667 138 95.834 256.833 213.501 356.5s248.834 149.5 393.501 149.5c145.333 0 243.333 -60.333 294 -181l19 107h181z
M975.999 410l26 145.999c-0.666992 66 -21 123 -61 171c-55.333 68 -127.666 102 -216.999 102c-90 0 -173.833 -33.333 -251.5 -100s-125.167 -149 -142.5 -247c-17.333 -97.333 1.16699 -179.166 55.5 -245.499s126.5 -99.5 216.5 -99.5
c89.333 0 173.666 33.667 252.999 101c56.667 48 97 105.333 121 172z" />
    <glyph glyph-name="r" unicode="r" horiz-adv-x="570" 
d="M655 778c-84.667 -12.667 -154.332 -45.5 -208.999 -98.5s-89 -119.5 -103 -199.5l-85 -480h-181l161 914h181l-23 -130c39.333 71.333 105.666 121 198.999 149z" />
    <glyph glyph-name="s" unicode="s" horiz-adv-x="727" 
d="M414 456c-61.333 37.333 -102.333 68.666 -123 93.999c-40.667 49.333 -55.334 106 -44.001 170c11.333 63.333 45.166 119.333 101.499 168s120.5 73 192.5 73s126 -22.333 162 -67c37.333 -45.333 51.333 -95 42 -149l-5 -28l-173 -66
c3.33301 75.333 -0.333984 119.666 -11.001 132.999s-24.667 20 -42 20s-35 -7.66699 -53 -23s-29.333 -35.666 -34 -60.999s0.333008 -46.666 15 -63.999c8.66699 -12 31.334 -31 68.001 -57c68.667 -41.333 117.334 -79 146.001 -113c44.667 -56 60.334 -122 47.001 -198
c-14 -78 -54.333 -145.667 -121 -203s-142.667 -86 -228 -86s-151.5 28.667 -198.5 86s-62.833 129 -47.5 215l188 45c-14 -77.333 -10.833 -128.333 9.5 -153s45.5 -37 75.5 -37s59.667 12.333 89 37s47.666 56.667 54.999 96c6.66699 38 -1 70 -23 96
c-13.333 15.333 -42.666 39.333 -87.999 72z" />
    <glyph glyph-name="t" unicode="t" horiz-adv-x="584" 
d="M364 914l62 355h180l-62 -355h170l-28 -156h-170l-134 -758h-180l134 758h-170l28 156h170z" />
    <glyph glyph-name="u" unicode="u" 
d="M481 -12c-121.333 0 -210.999 35.332 -268.999 105.999s-79 157.334 -63 260.001l99 561h181l-98 -554c-10.667 -61.333 2 -113.333 38 -156c33.333 -40.667 79.333 -61 138 -61c53.333 0 104.666 20.833 153.999 62.5s79.333 93.167 90 154.5l98 554h181l-99 -561
c-20 -102.667 -72 -190 -156 -262c-81.333 -69.333 -179.333 -104 -294 -104z" />
    <glyph glyph-name="v" unicode="v" horiz-adv-x="926" 
d="M1087 914l-569 -914h-114l-243 914h199l155 -609l373 609h199z" />
    <glyph glyph-name="w" unicode="w" horiz-adv-x="1184" 
d="M1346 914l-472 -914h-127l-79 433l-230 -433h-129l-148 914h195l83 -568l229 426h122l78 -426l282 568h196z" />
    <glyph glyph-name="x" unicode="x" horiz-adv-x="800" 
d="M383 481l-193 433h204l120 -269l214 269h204l-346 -433l214 -481h-203l-141 317l-253 -317h-203z" />
    <glyph glyph-name="y" unicode="y" horiz-adv-x="896" 
d="M251 -317h-195l328 512l-208 719h195l149 -505l327 505h195z" />
    <glyph glyph-name="z" unicode="z" horiz-adv-x="850" 
d="M624 746h-402l27 156h693l-562 -745h436l-28 -157h-726z" />
    <glyph glyph-name="braceleft" unicode="{" horiz-adv-x="605" 
d="M225 767c93.333 18 155 111.667 185 281l5 31c54 306.667 191.333 472 412 496l-23 -132c-104.667 -26.667 -177 -153 -217 -379l-7 -41c-27.333 -156 -68 -253.667 -122 -293c40 -39.333 46.333 -137 19 -293l-7 -40c-40 -226.667 -12.333 -353 83 -379l-24 -133
c-212 24.667 -291 190 -237 496l5 31c30 169.333 1.66699 263.333 -85 282z" />
    <glyph glyph-name="bar" unicode="|" horiz-adv-x="581" 
d="M635 1439l-275 -1560h-181l275 1560h181z" />
    <glyph glyph-name="braceright" unicode="}" horiz-adv-x="605" 
d="M638 694c-93.333 -18.667 -155.001 -112.667 -185.001 -282l-6 -31c-53.333 -306 -190.666 -471.333 -411.999 -496l23 133c104.667 26 177 152.333 217 379l7 40c28 156 68.667 253.667 122 293c-40 39.333 -46 137 -18 293l7 41c40 226 12.333 352.333 -83 379l23 132
c212.667 -24 292 -189.333 238 -496l-6 -31c-30 -169.333 -1.33301 -263 86 -281z" />
    <glyph glyph-name="asciitilde" unicode="~" horiz-adv-x="1129" 
d="M735 804c87.333 -57.333 149.666 -86 186.999 -86c2 0 3.33301 0.333008 4 1c29.333 8 53 27.333 71 58c9.33301 18 18.666 52.667 27.999 104l179 -29c-13.333 -52.667 -28.666 -94.667 -45.999 -126c-44.667 -75.333 -108 -125.666 -190 -150.999
c-22 -6.66699 -44.667 -10 -68 -10c-70.667 0 -154.334 30.667 -251.001 92c-88 56 -150.333 84 -187 84h-7c-26.667 -8 -48.667 -27.333 -66 -58c-11.333 -18.667 -21.333 -53.334 -30 -104.001l-177 30c12 52 26.667 93.667 44 125c44.667 74.667 108.334 125 191.001 151
c20.667 6.66699 43 10 67 10c70.667 0 154.334 -30.333 251.001 -91z" />
    <glyph glyph-name="exclamdown" unicode="&#xa1;" horiz-adv-x="367" 
d="M306 1254.5c-20 23.667 -27.333 50.5 -22 80.5s22.166 56.833 50.499 80.5s61.166 35.5 98.499 35.5s66 -11.833 86 -35.5s27.333 -50.5 22 -80.5s-22.166 -56.833 -50.499 -80.5s-61.166 -35.5 -98.499 -35.5s-66 11.833 -86 35.5zM88 0l195 1105h181l-195 -1105h-181z
" />
    <glyph glyph-name="cent" unicode="&#xa2;" horiz-adv-x="1166" 
d="M596 642l85.999 484.001c-2 -2.66699 -21.667 -19.667 -59 -51c-60.667 -52 -97.667 -115.667 -111 -191c-13.333 -74.667 1.33398 -137.667 44.001 -189c26 -32.667 39.333 -50.334 40 -53.001zM772.999 622.001c29.333 0.666992 74.001 26.3301 134.001 76.9971l49 49
l155 -61c-42 -45.333 -72.667 -76.666 -92 -93.999c-98 -83.333 -189.333 -125.666 -274 -126.999l-23 -131h-180l26 144c-57.333 11.333 -112.333 49.333 -165 114c-67.333 80.667 -91 177.667 -71 291s79.667 212 179 296c72 62 138.333 98.333 199 109l26 145h180
l-23 -132c84 0 160 -42 228 -126c14 -16.667 34 -47.667 60 -93l-177 -62c-18.667 30 -30.334 48.333 -35.001 55c-39.333 46.667 -74 70.334 -104 71.001z" />
    <glyph glyph-name="sterling" unicode="&#xa3;" horiz-adv-x="966" 
d="M379 157l545.001 -0.000976562l-28 -157h-794l23 128c131.333 110 204.666 209 219.999 297c4.66699 28 7 43.333 7 46h-199l28 157h165c-2.66699 20 -12.667 55 -30 105c-46 106 -63 218.667 -51 338c15.333 86.667 58 165 128 235
c89.333 80.667 190.333 123.334 303 128.001c8 0.666992 17 1 27 1c100.667 0 186 -34 256 -102l-99 -160c-60.667 70.667 -120.667 106 -180 106h-14c-64.667 -2.66699 -118 -25 -160 -67c-42 -41.333 -67.667 -87.333 -77 -138c-7.33301 -77.333 0.666992 -154 24 -230
c36 -80 56 -152 60 -216h176l-28 -157h-148l-7 -39c-18.667 -105.333 -67.667 -197 -147 -275z" />
    <glyph glyph-name="currency" unicode="&#xa4;" horiz-adv-x="1168" 
d="M559 1055c50.667 36 124.333 54 221 54s163.334 -18 200.001 -54l144 122l98 -120l-141 -120c34.667 -52 44 -123 28 -213c-16 -89.333 -50.333 -160.333 -103 -213l99 -120l-141 -119l-99 122c-50.667 -36.667 -124.334 -55 -221.001 -55s-163.667 18.333 -201 55
l-143 -122l-99 119l141 120c-34 52.667 -43 123.667 -27 213c16 90 50 161 102 213l-99 120l142 120zM869.999 910c-32 28.667 -71.3359 42.999 -118.003 42.999c-47.333 0 -91.333 -14.333 -132 -43c-10 -6 -20.667 -13.667 -32 -23c-6 -5.33301 -13 -12.666 -21 -21.999
c-38 -40 -61.667 -87 -71 -141c-10 -54 -3 -100.667 21 -140c4.66699 -8.66699 10.667 -17 18 -25c6.66699 -8 13.334 -15.333 20.001 -22c30.667 -27.333 69.667 -41 117 -41c46.667 0 90.334 14 131.001 42c10 6 21 14.333 33 25c6 4.66699 12.667 11.334 20 20.001
c38 40 62 87 72 141c9.33301 54 2 101.333 -22 142c-5.33301 9.33301 -10.666 17.666 -15.999 24.999c-5.33301 6.66699 -12 13 -20 19z" />
    <glyph glyph-name="yen" unicode="&#xa5;" horiz-adv-x="1187" 
d="M602 565h-300l28 156h220l-288 718h201l266 -668l502 668h200l-541 -718h222l-28 -156h-301l-12 -72h301l-28 -157h-301l-59 -336h-181l59 336h-300l28 157h300z" />
    <glyph glyph-name="brokenbar" unicode="&#xa6;" horiz-adv-x="581" 
d="M635 1439l-126 -716h-181l126 716h181zM485 590l-126 -716h-181l126 716h181z" />
    <glyph glyph-name="section" unicode="&#xa7;" horiz-adv-x="1140" 
d="M896 317c6.66699 0.666992 17.334 42.3311 32.001 124.998c14 80.667 -2.33301 149.334 -49 206.001c-42.667 51.333 -98 92 -166 122c-97.333 35.333 -170 82.333 -218 141l-28 15c-8.66699 0 -20 -40.333 -34 -121c-14.667 -81.333 0.333008 -149 45 -203
c43.333 -54 99.333 -96 168 -126c97.333 -35.333 171.666 -83.666 222.999 -144.999zM431 1108c0 3.33301 1.66992 15.001 5.00293 35.001c15.333 87.333 61.166 161.833 137.499 223.5s162.5 92.5 258.5 92.5c94 0 169.667 -29.333 227 -88
c30 -35.333 49.667 -84.333 59 -147l-173 -66c-10.667 55.333 -23.667 92.333 -39 111c-25.333 30 -58.666 45 -99.999 45c-42 0 -81.833 -16 -119.5 -48s-60.834 -73 -69.501 -123s0.666016 -91.667 27.999 -125c28 -34 69.667 -65 125 -93
c108.667 -37.333 196 -96 262 -176c70 -85.333 94.667 -187.666 74 -306.999c-21.333 -120.667 -67.333 -211.334 -138 -272.001c-24.667 -20.667 -38 -31.334 -40 -32.001c0 -3.33301 -1.66699 -15 -5 -35c-15.333 -86.667 -61 -161 -137 -223s-162 -93 -258 -93
c-94.667 0 -170.334 29.667 -227.001 89c-30.667 34.667 -50 84 -58 148l171 63c10.667 -54 23.667 -90.667 39 -110c25.333 -30 59 -45 101 -45s81.833 16 119.5 48s60.834 73 69.501 123s-1 91.667 -29 125c-28 34.667 -69.667 65.667 -125 93
c-108 37.333 -195 96.333 -261 177c-70.667 85.333 -95.334 187.666 -74.001 306.999c20.667 120.667 65 209.334 133 266.001c27.333 24 42 36.333 44 37z" />
    <glyph glyph-name="dieresis" unicode="&#xa8;" horiz-adv-x="691" 
d="M513.5 1235.5c20.333 -23.667 27.835 -50.167 22.502 -79.5c-5.33301 -30.667 -22.333 -57.834 -51 -81.501s-61.334 -35.5 -98.001 -35.5c-38 0 -66.833 11.833 -86.5 35.5s-26.834 50.834 -21.501 81.501c5.33301 29.333 22 55.833 50 79.5s61 35.5 99 35.5
c36.667 0 65.167 -11.833 85.5 -35.5zM798.002 1235.5c20 -23.667 27.333 -50.167 22 -79.5c-5.33301 -30.667 -22.166 -57.834 -50.499 -81.501s-61.166 -35.5 -98.499 -35.5s-66 11.833 -86 35.5s-27.333 50.834 -22 81.501c5.33301 29.333 22.166 55.833 50.499 79.5
s61.166 35.5 98.499 35.5s66 -11.833 86 -35.5z" />
    <glyph glyph-name="copyright" unicode="&#xa9;" horiz-adv-x="1276" 
d="M815 488l161 -62c-34.667 -46 -58 -75.333 -70 -88c-67.333 -68 -149 -102 -245 -102s-176.667 32.833 -242 98.5s-98 142.5 -98 230.5s32.667 164.5 98 229.5s146 97.5 242 97.5s177.667 -33.333 245 -100c12.667 -14 36 -44 70 -90l-160 -59l-45 51
c-31.333 30.667 -68 46 -110 46c-43.333 0 -81.5 -16.5 -114.5 -49.5s-49.5 -74.833 -49.5 -125.5s16.667 -92.667 50 -126s71.333 -50 114 -50c42 0 80.333 17 115 51c1.33301 2 14.333 18 39 48zM1056 970c113.333 -114 170.002 -249.333 170.002 -406
s-56.833 -291.834 -170.5 -405.501s-252.834 -170.5 -417.501 -170.5s-303.834 56.833 -417.501 170.5s-170.5 248.834 -170.5 405.501s56.833 292 170.5 406s252.834 171 417.501 171c165.333 0 304.666 -57 417.999 -171zM638.002 988
c-110.667 0 -206.834 -40.833 -288.501 -122.5s-122.5 -182.167 -122.5 -301.5s40.833 -219.666 122.5 -300.999s177.834 -122 288.501 -122c111.333 0 207.666 40.667 288.999 122s122 181.666 122 300.999s-40.667 219.833 -122 301.5s-177.666 122.5 -288.999 122.5z" />
    <glyph glyph-name="ordfeminine" unicode="&#xaa;" horiz-adv-x="639" 
d="M765 905h-162.002l12 71c-17.333 -55.333 -65.666 -83 -144.999 -83s-141 26.833 -185 80.5s-59.667 115.834 -47 186.501c12.667 71.333 50.334 133.666 113.001 186.999s133.667 80 213 80s118 -27.667 116 -83l8 46h162zM621.998 1130l11.002 59.999
c-0.666992 24 -8.33398 45.333 -23.001 64c-18.667 22 -42.334 33 -71.001 33c-29.333 0 -57.833 -11.833 -85.5 -35.5s-44.834 -54.167 -51.501 -91.5s-0.5 -67.666 18.5 -90.999s43.5 -35 73.5 -35c28.667 0 56.334 11 83.001 33c21.333 18.667 36.333 39.667 45 63z" />
    <glyph glyph-name="guillemotleft" unicode="&#xab;" horiz-adv-x="903" 
d="M426 449l595 531l-43 -244l-318 -287l216 -287l-43 -245zM134 449l590 532l-43 -245l-319 -287l217 -287l-43 -246z" />
    <glyph glyph-name="logicalnot" unicode="&#xac;" horiz-adv-x="1142" 
d="M1011 281h-181v326h-691v156h872v-482z" />
    <glyph glyph-name="registered" unicode="&#xae;" horiz-adv-x="1236" 
d="M611 1003v-105h14c46.667 0 71 20 73 60c0 30 -21 45 -63 45h-24zM611 671l-0.000976562 -108.003h-188v586h195c166.667 -1.33301 254.667 -66.333 264 -195c0 -96.667 -44.667 -155.334 -134 -176.001c48 -81.333 95.333 -122 142 -122
c5.33301 0 10.666 0.666992 15.999 2c51.333 10.667 85.333 80.334 102 209.001c0 112 -38.5 206.833 -115.5 284.5s-168.5 116.5 -274.5 116.5c-105.333 0 -196.666 -38.833 -273.999 -116.5s-116 -173.167 -116 -286.5c0 -53.333 8.66699 -103 26 -149
c19.333 -51.333 49.333 -97.333 90 -138c73.333 -73.333 190 -112 350 -116h25c12 0 24.667 1 38 3c0.666992 0.666992 59.667 -32.666 177 -99.999l-12 -6c-8.66699 -4 -17.667 -7.66699 -27 -11c-17.333 -6.66699 -34.333 -12.667 -51 -18
c-8.66699 -2.66699 -17.334 -5 -26.001 -7c-19.333 -5.33301 -38.666 -9 -57.999 -11h-3c-17.333 -2.66699 -35 -4 -53 -4h-16c-208.667 2.66699 -366.334 57.667 -473.001 165c-69.333 68.667 -116.666 146 -141.999 232c-15.333 50.667 -23 104 -23 160
c0 152 55 281.167 165 387.5s244.333 159.5 403 159.5s293 -53.167 403 -159.5s165 -236.166 165 -389.499c-21.333 -209.333 -110 -323.666 -266 -342.999c-15.333 -2 -30.666 -3 -45.999 -3c-108 0 -195.667 51.333 -263 154z" />
    <glyph glyph-name="macron" unicode="&#xaf;" horiz-adv-x="754" 
d="M268 1092h604l-28 -157h-604z" />
    <glyph glyph-name="degree" unicode="&#xb0;" horiz-adv-x="474" 
d="M609.5 1329c29.667 -36.667 40.501 -78.667 32.501 -126c-8.66699 -48 -34.334 -90.167 -77.001 -126.5s-92 -54.5 -148 -54.5s-99 18.167 -129 54.5s-40.667 78.5 -32 126.5c8 47.333 33.5 89.333 76.5 126s92.5 55 148.5 55s98.833 -18.333 128.5 -55zM462.001 1276
c-22 0 -41.666 -7.5 -58.999 -22.5s-27.666 -31.833 -30.999 -50.5s1 -35.334 13 -50.001s29 -22 51 -22c22.667 0 42.5 7.33301 59.5 22s27.167 31.334 30.5 50.001s-0.833984 35.5 -12.501 50.5s-28.834 22.5 -51.501 22.5z" />
    <glyph glyph-name="plusminus" unicode="&#xb1;" horiz-adv-x="1138" 
d="M479 221v388h-394v156h394v395h180v-395h394v-156h-394v-388h-180zM85 0v157h968v-157h-968z" />
    <glyph glyph-name="uni00B2" unicode="&#xb2;" horiz-adv-x="879" 
d="M233 566c340 330 517 535 531 615c9.33301 63.333 -12.667 95.333 -66 96c-36 -2 -71 -27 -105 -75l-157 70c81.333 97.333 177 148.333 287 153c182 -4 259.333 -84 232 -240c-19.333 -109.333 -138.333 -267 -357 -473h274l-26 -146h-613z" />
    <glyph glyph-name="uni00B3" unicode="&#xb3;" horiz-adv-x="836" 
d="M559 993l-99.0029 -0.00390625l26 144c67.333 0.666992 106.666 3 117.999 7s26 13.333 44 28s28.667 32.334 32 53.001c4 20.667 0.833008 36.334 -9.5 47.001s-22.166 16 -35.499 16s-25.666 -4.33301 -36.999 -13c-9.33301 -7.33301 -28.666 -35 -57.999 -83l-154 60
c28 55.333 57.333 94.666 88 117.999c55.333 43.333 117.666 65 186.999 65c70 0 124.333 -21.333 163 -64s53 -91.334 43 -146.001c-14 -81.333 -44.333 -124.666 -91 -129.999l54 -65c46 -55.333 62.667 -118.666 50 -189.999
c-12.667 -73.333 -53.667 -137.666 -123 -192.999s-148.333 -83 -237 -83s-158.667 28.667 -210 86c-39.333 42.667 -58.666 104.334 -57.999 185.001l192 62c-4 -80.667 3.33301 -131.667 22 -153c20.667 -20.667 47.334 -31 80.001 -31s63.667 11.5 93 34.5
s47.333 53.833 54 92.5c6.66699 38 -1 70.5 -23 97.5s-59 45.5 -111 55.5z" />
    <glyph glyph-name="acute" unicode="&#xb4;" horiz-adv-x="652" 
d="M801 1273l-355 -239h-189l250 239h294z" />
    <glyph glyph-name="mu" unicode="&#xb5;" horiz-adv-x="893" 
d="M650 77c-26.667 -56.667 -97.333 -84.999 -212 -84.999c-107.333 0 -166.333 6.33301 -177 19l-58 -329h-181l217 1232h181l-115 -654c4.66699 -16.667 14.667 -34.334 30 -53.001c32.667 -38.667 76 -58 130 -58c53.333 0 104.333 20 153 60
c32 27.333 55.667 57.333 71 90l108 615h179l-161 -914h-179z" />
    <glyph glyph-name="paragraph" unicode="&#xb6;" horiz-adv-x="1236" 
d="M1056 1284l-271.001 -1535h-180l127 723h-77c-139.333 0 -248.166 47.833 -326.499 143.5s-105.833 209.167 -82.5 340.5c22.667 131.333 91 245.333 205 342c92 78 199 125 321 141h21v1h620l-27 -156h-74l-271 -1535h-181l271 1535h-75z" />
    <glyph glyph-name="periodcentered" unicode="&#xb7;" horiz-adv-x="344" 
d="M396 792c18 -21.333 24.667 -45.333 20 -72c-4.66699 -27.333 -19.834 -51.666 -45.501 -72.999s-55.5 -32 -89.5 -32s-60.167 10.667 -78.5 32s-25.166 45.666 -20.499 72.999c4.66699 26.667 20 50.667 46 72s56 32 90 32s60 -10.667 78 -32z" />
    <glyph glyph-name="periodcentered" unicode="&#x2219;" horiz-adv-x="344" 
d="M396 792c18 -21.333 24.667 -45.333 20 -72c-4.66699 -27.333 -19.834 -51.666 -45.501 -72.999s-55.5 -32 -89.5 -32s-60.167 10.667 -78.5 32s-25.166 45.666 -20.499 72.999c4.66699 26.667 20 50.667 46 72s56 32 90 32s60 -10.667 78 -32z" />
    <glyph glyph-name="cedilla" unicode="&#xb8;" horiz-adv-x="494" 
d="M147 -127l62 172h109l-40 -70c38.667 -2.66699 65.667 -29.667 81 -81c6.66699 -22.667 8 -44.667 4 -66c-3.33301 -20 -11.333 -39 -24 -57c-28.667 -42.667 -72.667 -68.667 -132 -78c-18.667 -2.66699 -36.334 -4 -53.001 -4c-30.667 0 -56.667 5 -78 15
c-8 4 -16.667 8.66699 -26 14l70 84c8.66699 -5.33301 19.667 -8 33 -8c16.667 0 31.834 4 45.501 12s21.5 17.667 23.5 29c1.33301 10.667 -3.16699 20 -13.5 28s-23.833 12 -40.5 12c-7.33301 0 -14.333 -0.666992 -21 -2z" />
    <glyph glyph-name="uni00B9" unicode="&#xb9;" horiz-adv-x="836" 
d="M449 692l81 463l-18 -10l-121 91l378 226l-135 -770h177l-26 -145h-542l26 145h180z" />
    <glyph glyph-name="ordmasculine" unicode="&#xba;" horiz-adv-x="649" 
d="M539 1287c-29.333 0 -57.832 -11.833 -85.499 -35.5s-44.834 -54.167 -51.501 -91.5s-0.5 -67.666 18.5 -90.999s43.5 -35 73.5 -35h25c29.333 0 58 11.667 86 35s45.333 53.666 52 90.999s0.166992 67.833 -19.5 91.5s-44.167 35.5 -73.5 35.5h-25zM470.001 893
c-79.333 0 -140.999 26.833 -184.999 80.5s-59.667 115.834 -47 186.501c12.667 71.333 50.334 133.666 113.001 186.999s133.667 80 213 80h25c78.667 0 140 -26.667 184 -80s59.667 -115.666 47 -186.999c-12.667 -70.667 -50.334 -132.834 -113.001 -186.501
s-133.334 -80.5 -212.001 -80.5h-25z" />
    <glyph glyph-name="guillemotright" unicode="&#xbb;" horiz-adv-x="903" 
d="M40 -83l43 245l317 287l-216 287l43 244l409 -531zM338 -84l43 246l318 287l-217 287l44 245l401 -532z" />
    <glyph glyph-name="onequarter" unicode="&#xbc;" horiz-adv-x="1998" 
d="M449 692l81 463l-18 -10l-121 91l378 226l-135 -770h177l-26 -145h-542l26 145h180zM1937 1439l-1285 -1439h-216l1283 1439h218zM1992 1054l-126 -716h78l-25 -145h-78l-34 -193h-185l34 193h-376zM1702 457l-98 -119h77z" />
    <glyph glyph-name="onehalf" unicode="&#xbd;" horiz-adv-x="2012" 
d="M449 692l81 463l-18 -10l-121 91l378 226l-135 -770h177l-26 -145h-542l26 145h180zM1937 1439l-1285 -1439h-216l1283 1439h218zM1266 0c340 330 516.999 535 530.999 615c9.33301 63.333 -12.667 95.333 -66 96c-36.667 -2 -71.667 -27 -105 -75l-157 70
c81.333 97.333 177 148.333 287 153c182 -4 259.333 -84 232 -240c-19.333 -109.333 -138.666 -267 -357.999 -473h274l-25 -146h-613z" />
    <glyph glyph-name="threequarters" unicode="&#xbe;" horiz-adv-x="1998" 
d="M559 993l-99.0029 -0.00390625l26 144c67.333 0.666992 106.666 3 117.999 7s26 13.333 44 28s28.667 32.334 32 53.001c4 20.667 0.833008 36.334 -9.5 47.001s-22.166 16 -35.499 16s-25.666 -4.33301 -36.999 -13c-9.33301 -7.33301 -28.666 -35 -57.999 -83l-154 60
c28 55.333 57.333 94.666 88 117.999c55.333 43.333 117.666 65 186.999 65c70 0 124.333 -21.333 163 -64s53 -91.334 43 -146.001c-14 -81.333 -44.333 -124.666 -91 -129.999l54 -65c46 -55.333 62.667 -118.666 50 -189.999
c-12.667 -73.333 -53.667 -137.666 -123 -192.999s-148.333 -83 -237 -83s-158.667 28.667 -210 86c-39.333 42.667 -58.666 104.334 -57.999 185.001l192 62c-4 -80.667 3.33301 -131.667 22 -153c20.667 -20.667 47.334 -31 80.001 -31s63.667 11.5 93 34.5
s47.333 53.833 54 92.5c6.66699 38 -1 70.5 -23 97.5s-59 45.5 -111 55.5zM1938 1439l-1286 -1439h-216l1284 1439h218zM1993 1054l-126 -716h78l-26 -145h-78l-34 -193h-185l34 193h-376zM1703 456.996l-98 -119h77z" />
    <glyph glyph-name="questiondown" unicode="&#xbf;" horiz-adv-x="832" 
d="M623 1238.5c-28 -23.667 -60.6689 -35.5 -98.002 -35.5s-66.166 11.833 -86.499 35.5s-27.833 50.5 -22.5 80.5s22.333 56.833 51 80.5s61.667 35.5 99 35.5s65.833 -11.833 85.5 -35.5s26.834 -50.5 21.501 -80.5s-22 -56.833 -50 -80.5zM289.998 347
c-6.66699 -48 -8.33398 -79.998 -5.00098 -95.998c8 -44 30.667 -75.667 68 -95c19.333 -9.33301 39.333 -14 60 -14c16.667 0 34.334 3 53.001 9c44 15.333 79.333 41.666 106 78.999c17.333 23.333 28.333 49 33 77c3.33301 18.667 4 38.334 2 59.001
c-5.33301 54.667 -50.666 149.334 -135.999 284.001c-78 123.333 -105.333 251.666 -82 384.999c2 9.33301 7 31.333 15 66h181c-11.333 -40.667 -18 -66.667 -20 -78c-16.667 -94.667 8 -194.334 74 -299.001c80.667 -128.667 128.667 -227.334 144 -296.001
c9.33301 -40 10.333 -79.667 3 -119c-6.66699 -38 -21.334 -78 -44.001 -120c-44.667 -80 -114 -138.333 -208 -175c-47.333 -17.333 -94 -26 -140 -26c-45.333 0 -89 8.66699 -131 26c-82.667 35.333 -135 99.333 -157 192c-6 26 -3.66699 73 7 141h177z" />
    <glyph glyph-name="Agrave" unicode="&#xc0;" horiz-adv-x="1208" 
d="M876 754l-71 382l-206 -382h277zM938 1439l267 -1439h-188l-112 598h-391l-326 -598h-189l782 1439h157zM879 1798l166 -239h-190l-270 239h294z" />
    <glyph glyph-name="Aacute" unicode="&#xc1;" horiz-adv-x="1208" 
d="M876 754l-71 382l-206 -382h277zM938 1439l267 -1439h-188l-112 598h-391l-326 -598h-189l782 1439h157zM1254 1798l-355 -239h-189l250 239h294z" />
    <glyph glyph-name="Acircumflex" unicode="&#xc2;" horiz-adv-x="1208" 
d="M876 754l-71 382l-206 -382h277zM938 1439l267 -1439h-188l-112 598h-391l-326 -598h-189l782 1439h157zM1221 1560h-231l-102 87l-125 -87h-230l387 278z" />
    <glyph glyph-name="Atilde" unicode="&#xc3;" horiz-adv-x="1208" 
d="M876 754l-71 382l-206 -382h277zM938 1439l267 -1439h-188l-112 598h-391l-326 -598h-189l782 1439h157zM822 1631c-4 -14.667 -9.33301 -40.332 -16 -76.999l-161 36c10 47.333 19.667 80 29 98c23.333 46.667 57.666 78.667 102.999 96c15.333 6.66699 32 10 50 10
c39.333 0 81.333 -18.333 126 -55c8 -6.66699 14.667 -12 20 -16c3.33301 14.667 8 39.667 14 75l163 -33c-10.667 -48 -20.667 -81 -30 -99c-23.333 -46.667 -58.333 -79.334 -105 -98.001c-16.667 -5.33301 -32.667 -8 -48 -8c-39.333 0 -81.333 18.333 -126 55
c-7.33301 6.66699 -13.666 12 -18.999 16z" />
    <glyph glyph-name="Adieresis" unicode="&#xc4;" horiz-adv-x="1208" 
d="M876 754l-71 382l-206 -382h277zM938 1439l267 -1439h-188l-112 598h-391l-326 -598h-189l782 1439h157zM863 1760.5c20 -23.667 27.333 -50.167 22 -79.5c-5.33301 -30.667 -22.166 -57.834 -50.499 -81.501s-60.833 -35.5 -97.5 -35.5c-38 0 -67 11.833 -87 35.5
s-27.333 50.834 -22 81.501c5.33301 29.333 22.166 55.833 50.499 79.5s61.5 35.5 99.5 35.5c36.667 0 65 -11.833 85 -35.5zM1147.5 1760.5c19.667 -23.667 26.832 -50.167 21.499 -79.5c-5.33301 -30.667 -22 -57.834 -50 -81.501s-60.667 -35.5 -98 -35.5
s-66.166 11.833 -86.499 35.5s-27.833 50.834 -22.5 81.501c5.33301 29.333 22.333 55.833 51 79.5s61.667 35.5 99 35.5s65.833 -11.833 85.5 -35.5z" />
    <glyph glyph-name="Aring" unicode="&#xc5;" horiz-adv-x="1208" 
d="M876 754l-71 382l-206 -382h277zM875 1549c-14 0 -26.333 -4.5 -37 -13.5s-17 -19.5 -19 -31.5c-2 -11.333 0.666992 -21.5 8 -30.5s18 -13.5 32 -13.5s26.333 4.5 37 13.5s17 19.167 19 30.5c2 12 -0.666992 22.5 -8 31.5s-18 13.5 -32 13.5zM948 1388l257.001 -1388
h-188l-112 598h-391l-326 -598h-189l752 1384c-6.66699 5.33301 -12.334 11 -17.001 17c-24.667 30 -33.667 64.333 -27 103s27.667 73.167 63 103.5s76.333 45.5 123 45.5s82.5 -15.167 107.5 -45.5s34.167 -64.833 27.5 -103.5s-27.667 -73 -63 -103z" />
    <glyph glyph-name="AE" unicode="&#xc6;" horiz-adv-x="1514" 
d="M1543 798l-28 -157h-602l-85 -484h602l-28 -157h-782l92 521h-199l-323 -521h-191l879 1439h778l-28 -157h-602l-85 -484h602zM739 677l56 317l-192 -317h136z" />
    <glyph glyph-name="Ccedilla" unicode="&#xc7;" horiz-adv-x="1419" 
d="M661 -1c-136 28.667 -247.331 96 -333.998 202c-119.333 144 -161.333 317 -126 519c35.333 200 138 372.667 308 518s359.667 218 569 218c194.667 0 360 -74 496 -222l-146 -112c-111.333 116.667 -237.333 175 -378 175c-153.333 0 -295.666 -55.833 -426.999 -167.5
s-211.333 -248.167 -240 -409.5c-28.667 -162.667 3.16602 -299.667 95.499 -411s215.166 -167 368.499 -167c140.667 0 287 58.333 439 175l107 -112c-188 -147.333 -379.333 -221 -574 -221c-22 0 -44 0.666992 -66 2l-6 -11c38 -2.66699 65 -29.667 81 -81
c6.66699 -22.667 8 -44.667 4 -66c-3.33301 -20 -11.333 -39 -24 -57c-28.667 -42.667 -73 -68.667 -133 -78c-18 -2.66699 -35.333 -4 -52 -4c-30.667 0 -57 5 -79 15c-8 4 -16.333 8.66699 -25 14l70 84c8.66699 -5.33301 19.667 -8 33 -8c16.667 0 31.667 4 45 12
s21 17.667 23 29c2 10.667 -2.33301 20 -13 28s-24.334 12 -41.001 12c-7.33301 0 -14 -0.666992 -20 -2z" />
    <glyph glyph-name="Egrave" unicode="&#xc8;" horiz-adv-x="1007" 
d="M1149 1439l-28 -157h-602l-85 -484h602l-28 -157h-602l-85 -484h602l-28 -157h-783l254 1439h783zM780 1798l166 -239h-190l-270 239h294z" />
    <glyph glyph-name="Eacute" unicode="&#xc9;" horiz-adv-x="1007" 
d="M1149 1439l-28 -157h-602l-85 -484h602l-28 -157h-602l-85 -484h602l-28 -157h-783l254 1439h783zM1155 1798l-355 -239h-189l250 239h294z" />
    <glyph glyph-name="Ecircumflex" unicode="&#xca;" horiz-adv-x="1007" 
d="M1149 1439l-28 -157h-602l-85 -484h602l-28 -157h-602l-85 -484h602l-28 -157h-783l254 1439h783zM1122 1560h-231l-102 87l-125 -87h-230l387 278z" />
    <glyph glyph-name="Edieresis" unicode="&#xcb;" horiz-adv-x="1007" 
d="M1149 1439l-28 -157h-602l-85 -484h602l-28 -157h-602l-85 -484h602l-28 -157h-783l254 1439h783zM764 1760.5c20 -23.667 27.333 -50.167 22 -79.5c-5.33301 -30.667 -22.166 -57.834 -50.499 -81.501s-60.833 -35.5 -97.5 -35.5c-38 0 -67 11.833 -87 35.5
s-27.333 50.834 -22 81.501c5.33301 29.333 22.166 55.833 50.499 79.5s61.5 35.5 99.5 35.5c36.667 0 65 -11.833 85 -35.5zM1048.5 1760.5c19.667 -23.667 26.832 -50.167 21.499 -79.5c-5.33301 -30.667 -22 -57.834 -50 -81.501s-60.667 -35.5 -98 -35.5
s-66.166 11.833 -86.499 35.5s-27.833 50.834 -22.5 81.501c5.33301 29.333 22.333 55.833 51 79.5s61.667 35.5 99 35.5s65.833 -11.833 85.5 -35.5z" />
    <glyph glyph-name="Igrave" unicode="&#xcc;" horiz-adv-x="425" 
d="M557 1439l-254 -1439h-181l254 1439h181zM489 1798l166 -239h-190l-270 239h294z" />
    <glyph glyph-name="Iacute" unicode="&#xcd;" horiz-adv-x="425" 
d="M557 1439l-254 -1439h-181l254 1439h181zM864 1798l-355 -239h-189l250 239h294z" />
    <glyph glyph-name="Icircumflex" unicode="&#xce;" horiz-adv-x="425" 
d="M557 1439l-254 -1439h-181l254 1439h181zM831 1560h-231l-102 87l-125 -87h-230l387 278z" />
    <glyph glyph-name="Idieresis" unicode="&#xcf;" horiz-adv-x="425" 
d="M557 1439l-254 -1439h-181l254 1439h181zM473 1760.5c20 -23.667 27.333 -50.167 22 -79.5c-5.33301 -30.667 -22.166 -57.834 -50.499 -81.501s-60.833 -35.5 -97.5 -35.5c-38 0 -67 11.833 -87 35.5s-27.333 50.834 -22 81.501
c5.33301 29.333 22.166 55.833 50.499 79.5s61.5 35.5 99.5 35.5c36.667 0 65 -11.833 85 -35.5zM757.5 1760.5c19.667 -23.667 26.832 -50.167 21.499 -79.5c-5.33301 -30.667 -22 -57.834 -50 -81.501s-60.667 -35.5 -98 -35.5s-66.166 11.833 -86.499 35.5
s-27.833 50.834 -22.5 81.501c5.33301 29.333 22.333 55.833 51 79.5s61.667 35.5 99 35.5s65.833 -11.833 85.5 -35.5z" />
    <glyph glyph-name="Eth" unicode="&#xd0;" horiz-adv-x="1298" 
d="M437 641l-85.001 -482.001h121c179.333 0 328.333 49.333 447 148c133.333 112.667 214.333 250.334 243 413.001c28.667 161.333 -3.66602 299 -96.999 413c-84.667 97.333 -216.667 146 -396 146h-121l-84 -481h472l-28 -157h-472zM283.999 797.999l112.999 641h304
c239.333 -1.33301 414 -69 524 -203c117.333 -144 158.333 -316 123 -516c-35.333 -202 -138.666 -376 -309.999 -522c-154 -130.667 -351 -196.667 -591 -198h-304l113 641h-123l28 157h123z" />
    <glyph glyph-name="Ntilde" unicode="&#xd1;" horiz-adv-x="1398" 
d="M542 1439l617 -1150l203 1150h181l-254 -1439h-200l-601 1121l-198 -1121h-181l254 1439h179zM919 1631c-4 -14.667 -9.33301 -40.332 -16 -76.999l-161 36c10 47.333 19.667 80 29 98c23.333 46.667 57.666 78.667 102.999 96c15.333 6.66699 32 10 50 10
c39.333 0 81.333 -18.333 126 -55c8 -6.66699 14.667 -12 20 -16c3.33301 14.667 8 39.667 14 75l163 -33c-10.667 -48 -20.667 -81 -30 -99c-23.333 -46.667 -58.333 -79.334 -105 -98.001c-16.667 -5.33301 -32.667 -8 -48 -8c-39.333 0 -81.333 18.333 -126 55
c-7.33301 6.66699 -13.666 12 -18.999 16z" />
    <glyph glyph-name="Ograve" unicode="&#xd2;" horiz-adv-x="1621" 
d="M1560.5 1241c119.667 -145.333 161.5 -318.333 125.5 -519c-35.333 -202 -138.333 -375.5 -309 -520.5s-360.667 -217.5 -570 -217.5c-208.667 0 -372.667 72.5 -492 217.5s-161.333 318.5 -126 520.5c36 200.667 139.167 373.667 309.5 519s359.833 218 568.5 218
c209.333 0 373.833 -72.667 493.5 -218zM1040 1301c-153.333 0 -295.999 -56.167 -427.999 -168.5s-212.333 -249.166 -241 -410.499c-28.667 -162.667 3.16602 -300 95.499 -412s215.166 -168 368.499 -168c154 0 296.833 56 428.5 168s211.834 249.333 240.501 412
c28.667 161.333 -3 298.166 -95 410.499s-215 168.5 -369 168.5zM1087 1798l166 -239h-190l-270 239h294z" />
    <glyph glyph-name="Oacute" unicode="&#xd3;" horiz-adv-x="1621" 
d="M1560.5 1241c119.667 -145.333 161.5 -318.333 125.5 -519c-35.333 -202 -138.333 -375.5 -309 -520.5s-360.667 -217.5 -570 -217.5c-208.667 0 -372.667 72.5 -492 217.5s-161.333 318.5 -126 520.5c36 200.667 139.167 373.667 309.5 519s359.833 218 568.5 218
c209.333 0 373.833 -72.667 493.5 -218zM1040 1301c-153.333 0 -295.999 -56.167 -427.999 -168.5s-212.333 -249.166 -241 -410.499c-28.667 -162.667 3.16602 -300 95.499 -412s215.166 -168 368.499 -168c154 0 296.833 56 428.5 168s211.834 249.333 240.501 412
c28.667 161.333 -3 298.166 -95 410.499s-215 168.5 -369 168.5zM1462 1798l-355 -239h-189l250 239h294z" />
    <glyph glyph-name="Ocircumflex" unicode="&#xd4;" horiz-adv-x="1621" 
d="M1560.5 1241c119.667 -145.333 161.5 -318.333 125.5 -519c-35.333 -202 -138.333 -375.5 -309 -520.5s-360.667 -217.5 -570 -217.5c-208.667 0 -372.667 72.5 -492 217.5s-161.333 318.5 -126 520.5c36 200.667 139.167 373.667 309.5 519s359.833 218 568.5 218
c209.333 0 373.833 -72.667 493.5 -218zM1040 1301c-153.333 0 -295.999 -56.167 -427.999 -168.5s-212.333 -249.166 -241 -410.499c-28.667 -162.667 3.16602 -300 95.499 -412s215.166 -168 368.499 -168c154 0 296.833 56 428.5 168s211.834 249.333 240.501 412
c28.667 161.333 -3 298.166 -95 410.499s-215 168.5 -369 168.5zM1429 1560h-231l-101 87l-126 -87h-230l387 278z" />
    <glyph glyph-name="Otilde" unicode="&#xd5;" horiz-adv-x="1621" 
d="M1560.5 1241c119.667 -145.333 161.5 -318.333 125.5 -519c-35.333 -202 -138.333 -375.5 -309 -520.5s-360.667 -217.5 -570 -217.5c-208.667 0 -372.667 72.5 -492 217.5s-161.333 318.5 -126 520.5c36 200.667 139.167 373.667 309.5 519s359.833 218 568.5 218
c209.333 0 373.833 -72.667 493.5 -218zM1040 1301c-153.333 0 -295.999 -56.167 -427.999 -168.5s-212.333 -249.166 -241 -410.499c-28.667 -162.667 3.16602 -300 95.499 -412s215.166 -168 368.499 -168c154 0 296.833 56 428.5 168s211.834 249.333 240.501 412
c28.667 161.333 -3 298.166 -95 410.499s-215 168.5 -369 168.5zM1030 1631c-4 -14.667 -9.33301 -40.332 -16 -76.999l-161 36c10 47.333 19.667 80 29 98c23.333 46.667 57.666 78.667 102.999 96c15.333 6.66699 32 10 50 10c39.333 0 81.333 -18.333 126 -55
c8 -6.66699 14.667 -12 20 -16c3.33301 14.667 8 39.667 14 75l163 -33c-10.667 -48 -20.667 -81 -30 -99c-22.667 -46.667 -57.334 -79.334 -104.001 -98.001c-17.333 -5.33301 -33.666 -8 -48.999 -8c-39.333 0 -81.333 18.333 -126 55
c-7.33301 6.66699 -13.666 12 -18.999 16z" />
    <glyph glyph-name="Odieresis" unicode="&#xd6;" horiz-adv-x="1621" 
d="M1560.5 1241c119.667 -145.333 161.5 -318.333 125.5 -519c-35.333 -202 -138.333 -375.5 -309 -520.5s-360.667 -217.5 -570 -217.5c-208.667 0 -372.667 72.5 -492 217.5s-161.333 318.5 -126 520.5c36 200.667 139.167 373.667 309.5 519s359.833 218 568.5 218
c209.333 0 373.833 -72.667 493.5 -218zM1040 1301c-153.333 0 -295.999 -56.167 -427.999 -168.5s-212.333 -249.166 -241 -410.499c-28.667 -162.667 3.16602 -300 95.499 -412s215.166 -168 368.499 -168c154 0 296.833 56 428.5 168s211.834 249.333 240.501 412
c28.667 161.333 -3 298.166 -95 410.499s-215 168.5 -369 168.5zM1071 1760.5c20 -23.667 27.667 -50.167 23 -79.5c-6 -30.667 -23.167 -57.834 -51.5 -81.501s-60.833 -35.5 -97.5 -35.5c-38 0 -67 11.833 -87 35.5s-27 50.834 -21 81.501
c4.66699 29.333 21.167 55.833 49.5 79.5s61.5 35.5 99.5 35.5c36.667 0 65 -11.833 85 -35.5zM1355.5 1760.5c19.667 -23.667 27.165 -50.167 22.498 -79.5c-6 -30.667 -23 -57.834 -51 -81.501s-60.667 -35.5 -98 -35.5s-66.166 11.833 -86.499 35.5
s-27.5 50.834 -21.5 81.501c4.66699 29.333 21.334 55.833 50.001 79.5s61.667 35.5 99 35.5s65.833 -11.833 85.5 -35.5z" />
    <glyph glyph-name="multiply" unicode="&#xd7;" horiz-adv-x="1172" 
d="M585 567l-277 -277l-120 118l279 279l-279 279l120 118l277 -277l279 277l120 -118l-279 -279l279 -279l-120 -118z" />
    <glyph glyph-name="Oslash" unicode="&#xd8;" horiz-adv-x="1693" 
d="M1235 1280c-32 14 -84.999 20.999 -158.999 20.999c-153.333 0 -296 -56.167 -428 -168.5s-212.333 -249.166 -241 -410.499c-28.667 -162.667 2.66602 -299.667 93.999 -411c36 -42.667 58 -67 66 -73zM712.001 161.999c32.667 -13.333 85.665 -20 158.998 -20
c154 0 296.833 56 428.5 168s211.834 249.333 240.501 412c28.667 161.333 -3.66602 299.333 -96.999 414c-33.333 40 -54.333 62.667 -63 68zM1476 1353c36.667 -22 77.667 -60 123 -114c118 -144 159 -316.333 123 -517c-35.333 -202 -138.333 -375.5 -309 -520.5
s-360.667 -217.5 -570 -217.5c-101.333 0 -176.333 10.667 -225 32l-102 -160l-146 76l102 158c-37.333 22 -78.333 60 -123 114c-118 143.333 -159.333 316 -124 518c36 200.667 139.167 373.667 309.5 519s359.833 218 568.5 218c101.333 0 177 -10.667 227 -32l102 158
l146 -73z" />
    <glyph glyph-name="Ugrave" unicode="&#xd9;" horiz-adv-x="1214" 
d="M1174 1439h181l-179 -1018c-35.333 -112.667 -101 -209.667 -197 -291c-110.667 -94.667 -235.334 -142 -374.001 -142c-140 0 -249.167 47.833 -327.5 143.5s-105.833 209.167 -82.5 340.5l170 967h181l-170 -967c-16.667 -92 0.833008 -169.5 52.5 -232.5
s119.834 -94.5 204.501 -94.5c84 0 162.667 31.5 236 94.5s118.333 140.5 135 232.5zM884 1798l165 -239h-190l-269 239h294z" />
    <glyph glyph-name="Uacute" unicode="&#xda;" horiz-adv-x="1214" 
d="M1174 1439h181l-179 -1018c-35.333 -112.667 -101 -209.667 -197 -291c-110.667 -94.667 -235.334 -142 -374.001 -142c-140 0 -249.167 47.833 -327.5 143.5s-105.833 209.167 -82.5 340.5l170 967h181l-170 -967c-16.667 -92 0.833008 -169.5 52.5 -232.5
s119.834 -94.5 204.501 -94.5c84 0 162.667 31.5 236 94.5s118.333 140.5 135 232.5zM1259 1798l-356 -239h-189l251 239h294z" />
    <glyph glyph-name="Ucircumflex" unicode="&#xdb;" horiz-adv-x="1214" 
d="M1174 1439h181l-179 -1018c-35.333 -112.667 -101 -209.667 -197 -291c-110.667 -94.667 -235.334 -142 -374.001 -142c-140 0 -249.167 47.833 -327.5 143.5s-105.833 209.167 -82.5 340.5l170 967h181l-170 -967c-16.667 -92 0.833008 -169.5 52.5 -232.5
s119.834 -94.5 204.501 -94.5c84 0 162.667 31.5 236 94.5s118.333 140.5 135 232.5zM1226 1560h-231l-102 87l-125 -87h-230l387 278z" />
    <glyph glyph-name="Udieresis" unicode="&#xdc;" horiz-adv-x="1214" 
d="M1174 1439h181l-179 -1018c-35.333 -112.667 -101 -209.667 -197 -291c-110.667 -94.667 -235.334 -142 -374.001 -142c-140 0 -249.167 47.833 -327.5 143.5s-105.833 209.167 -82.5 340.5l170 967h181l-170 -967c-16.667 -92 0.833008 -169.5 52.5 -232.5
s119.834 -94.5 204.501 -94.5c84 0 162.667 31.5 236 94.5s118.333 140.5 135 232.5zM867.5 1760.5c20.333 -23.667 27.835 -50.167 22.502 -79.5c-5.33301 -30.667 -22.333 -57.834 -51 -81.501s-61.334 -35.5 -98.001 -35.5c-38 0 -66.833 11.833 -86.5 35.5
s-26.834 50.834 -21.501 81.501c5.33301 29.333 22 55.833 50 79.5s61 35.5 99 35.5c36.667 0 65.167 -11.833 85.5 -35.5zM1152 1760.5c20 -23.667 27.333 -50.167 22 -79.5c-5.33301 -30.667 -22.166 -57.834 -50.499 -81.501s-61.166 -35.5 -98.499 -35.5
s-66 11.833 -86 35.5s-27.333 50.834 -22 81.501c5.33301 29.333 22.166 55.833 50.499 79.5s61.166 35.5 98.499 35.5s66 -11.833 86 -35.5z" />
    <glyph glyph-name="Yacute" unicode="&#xdd;" horiz-adv-x="1233" 
d="M629 582l-343 857h200l268 -666l501 666h200l-645 -857l-103 -582h-181zM1268 1798l-355 -239h-189l250 239h294z" />
    <glyph glyph-name="Thorn" unicode="&#xde;" horiz-adv-x="1019" 
d="M491 1204l231 0.000976562c117.333 -16.667 208 -64 272 -142c80 -96.667 108.333 -210.334 85 -341.001c-23.333 -132 -91 -245.833 -203 -341.5s-237.667 -143.5 -377 -143.5h-178l-42 -236h-181l254 1439h181zM348 393.001h178c84 0 163 31.5 237 94.5
s119 140.833 135 233.5c16 92 -1.66699 169.333 -53 232s-119 94 -203 94h-178z" />
    <glyph glyph-name="germandbls" unicode="&#xdf;" horiz-adv-x="1061" 
d="M745 1216c-53.333 0 -94.1689 -11.5 -122.502 -34.5s-46.5 -52.167 -54.5 -87.5l-193 -1094h-181l134 758h-84l27 156h84l33 187c17.333 72 57.833 134.333 121.5 187s150.5 79 260.5 79c191.333 -10.667 272.666 -99.667 243.999 -267
c-14.667 -82 -65.667 -153.667 -153 -215c-68 -47.333 -105 -88 -111 -122c-3.33301 -29.333 46.334 -70.666 149.001 -123.999c130.667 -69.333 184.334 -170.666 161.001 -303.999c-19.333 -110.667 -67.333 -195.334 -144 -254.001c-78.667 -62 -160 -93 -244 -93
c-111.333 0 -197.666 38 -258.999 114l142 118c40.667 -50.667 88.667 -76 144 -76c31.333 0 66.333 14.333 105 43c39.333 28.667 65 77.667 77 147c9.33301 83.333 -34 147.666 -130 192.999c-133.333 63.333 -193.666 140 -180.999 230
c15.333 84.667 68.666 156.667 159.999 216c61.333 39.333 96.333 83 105 131c10.667 66 -19.333 103.333 -90 112z" />
    <glyph glyph-name="agrave" unicode="&#xe0;" horiz-adv-x="1188" 
d="M1099 0h-180.999l28 160c-92.667 -122.667 -212 -184 -358 -184c-144.667 0 -258.334 50.167 -341.001 150.5s-112 218.833 -88 355.5c24.667 138 96 257 214 357s249.333 150 394 150c146 0 243.667 -60.667 293 -182l19 107h181zM990.001 410l26 146
c-0.666992 66 -21 123 -61 171c-55.333 68 -127.666 102 -216.999 102c-90 0 -173.833 -33.333 -251.5 -100s-125.167 -149 -142.5 -247c-17.333 -97.333 1.16699 -179 55.5 -245s126.5 -99 216.5 -99c89.333 0 173.666 33.667 252.999 101c56.667 48 97 105 121 171z
M771.001 1273l165 -239h-190l-269 239h294z" />
    <glyph glyph-name="aacute" unicode="&#xe1;" horiz-adv-x="1188" 
d="M1099 0h-180.999l28 160c-92.667 -122.667 -212 -184 -358 -184c-144.667 0 -258.334 50.167 -341.001 150.5s-112 218.833 -88 355.5c24.667 138 96 257 214 357s249.333 150 394 150c146 0 243.667 -60.667 293 -182l19 107h181zM990.001 410l26 146
c-0.666992 66 -21 123 -61 171c-55.333 68 -127.666 102 -216.999 102c-90 0 -173.833 -33.333 -251.5 -100s-125.167 -149 -142.5 -247c-17.333 -97.333 1.16699 -179 55.5 -245s126.5 -99 216.5 -99c89.333 0 173.666 33.667 252.999 101c56.667 48 97 105 121 171z
M1146 1273l-356 -239h-189l251 239h294z" />
    <glyph glyph-name="acircumflex" unicode="&#xe2;" horiz-adv-x="1188" 
d="M1099 0h-180.999l28 160c-92.667 -122.667 -212 -184 -358 -184c-144.667 0 -258.334 50.167 -341.001 150.5s-112 218.833 -88 355.5c24.667 138 96 257 214 357s249.333 150 394 150c146 0 243.667 -60.667 293 -182l19 107h181zM990.001 410l26 146
c-0.666992 66 -21 123 -61 171c-55.333 68 -127.666 102 -216.999 102c-90 0 -173.833 -33.333 -251.5 -100s-125.167 -149 -142.5 -247c-17.333 -97.333 1.16699 -179 55.5 -245s126.5 -99 216.5 -99c89.333 0 173.666 33.667 252.999 101c56.667 48 97 105 121 171z
M1113 1035h-231l-102 87l-125 -87h-230l387 278z" />
    <glyph glyph-name="atilde" unicode="&#xe3;" horiz-adv-x="1188" 
d="M1099 0h-180.999l28 160c-92.667 -122.667 -212 -184 -358 -184c-144.667 0 -258.334 50.167 -341.001 150.5s-112 218.833 -88 355.5c24.667 138 96 257 214 357s249.333 150 394 150c146 0 243.667 -60.667 293 -182l19 107h181zM990.001 410l26 146
c-0.666992 66 -21 123 -61 171c-55.333 68 -127.666 102 -216.999 102c-90 0 -173.833 -33.333 -251.5 -100s-125.167 -149 -142.5 -247c-17.333 -97.333 1.16699 -179 55.5 -245s126.5 -99 216.5 -99c89.333 0 173.666 33.667 252.999 101c56.667 48 97 105 121 171z
M713.001 1106c-4 -14.667 -9.00098 -40.332 -15.001 -76.999l-161 36c9.33301 47.333 18.666 80 27.999 98c24 46.667 58.333 78.667 103 96c16 6.66699 33 10 51 10c39.333 0 81 -18.333 125 -55c8 -6.66699 14.667 -12 20 -16c3.33301 14.667 8.33301 39.667 15 75
l163 -33c-11.333 -48 -21.666 -81 -30.999 -99c-22.667 -46.667 -57.334 -79.334 -104.001 -98.001c-16.667 -5.33301 -32.667 -8 -48 -8c-39.333 0 -81.666 18.333 -126.999 55c-7.33301 6.66699 -13.666 12 -18.999 16z" />
    <glyph glyph-name="adieresis" unicode="&#xe4;" horiz-adv-x="1188" 
d="M1099 0h-180.999l28 160c-92.667 -122.667 -212 -184 -358 -184c-144.667 0 -258.334 50.167 -341.001 150.5s-112 218.833 -88 355.5c24.667 138 96 257 214 357s249.333 150 394 150c146 0 243.667 -60.667 293 -182l19 107h181zM990.001 410l26 146
c-0.666992 66 -21 123 -61 171c-55.333 68 -127.666 102 -216.999 102c-90 0 -173.833 -33.333 -251.5 -100s-125.167 -149 -142.5 -247c-17.333 -97.333 1.16699 -179 55.5 -245s126.5 -99 216.5 -99c89.333 0 173.666 33.667 252.999 101c56.667 48 97 105 121 171z
M754.501 1235.5c20.333 -23.667 27.835 -50.167 22.502 -79.5c-5.33301 -30.667 -22.333 -57.834 -51 -81.501s-61.334 -35.5 -98.001 -35.5c-38 0 -66.833 11.833 -86.5 35.5s-26.834 50.834 -21.501 81.501c5.33301 29.333 22 55.833 50 79.5s61 35.5 99 35.5
c36.667 0 65.167 -11.833 85.5 -35.5zM1039 1235.5c20 -23.667 27.333 -50.167 22 -79.5c-5.33301 -30.667 -22.166 -57.834 -50.499 -81.501s-61.166 -35.5 -98.499 -35.5s-66 11.833 -86 35.5s-27.333 50.834 -22 81.501c5.33301 29.333 22.166 55.833 50.499 79.5
s61.166 35.5 98.499 35.5s66 -11.833 86 -35.5z" />
    <glyph glyph-name="aring" unicode="&#xe5;" horiz-adv-x="1188" 
d="M990 410l26 146c-0.666992 66 -21 123 -61 171c-55.333 68 -127.666 102 -216.999 102c-90 0 -173.833 -33.333 -251.5 -100s-125.167 -149 -142.5 -247c-17.333 -97.333 1.16699 -179 55.5 -245s126.5 -99 216.5 -99c89.333 0 173.666 33.667 252.999 101
c56.667 48 97 105 121 171zM784 1124c-14 0 -26.167 -4.5 -36.5 -13.5s-16.833 -19.5 -19.5 -31.5c-2 -11.333 0.833008 -21.5 8.5 -30.5s18.5 -13.5 32.5 -13.5s26.167 4.5 36.5 13.5s16.5 19.167 18.5 30.5c2.66699 12 0.166992 22.5 -7.5 31.5s-18.5 13.5 -32.5 13.5z
M1060 807l19.001 106.999h181l-161 -914h-181l28 160c-92.667 -122.667 -212 -184 -358 -184c-144.667 0 -258.334 50.167 -341.001 150.5s-112 218.833 -88 355.5c24.667 138 96 257 214 357c83.333 70.667 173.333 116.334 270 137.001c-24.667 30 -33.667 64.333 -27 103
c7.33301 38.667 28.666 73.167 63.999 103.5s76.333 45.5 123 45.5c47.333 0 83.333 -15.167 108 -45.5s33.334 -64.833 26.001 -103.5c-6.66699 -38.667 -27.667 -73 -63 -103c88 -24 150 -80.333 186 -169z" />
    <glyph glyph-name="ae" unicode="&#xe6;" horiz-adv-x="1908" 
d="M998 653c-10.667 28 -25 52.667 -43 74c-55.333 68 -127.666 102 -216.999 102c-90 0 -173.833 -33.333 -251.5 -100s-125.167 -149 -142.5 -247c-17.333 -97.333 1.16699 -179 55.5 -245s126.5 -99 216.5 -99c89.333 0 173.666 33.667 252.999 101
c25.333 21.333 48.333 46 69 74c22.667 30.667 40 63 52 97l26 146c0 34 -6 66.333 -18 97zM1772 643c-3.33301 20.667 -21 50.001 -53 88.001c-52.667 65.333 -123.667 98 -213 98c-90 0 -174.667 -34 -254 -102c-12.667 -10.667 -22.667 -20.334 -30 -29.001l-9 -55h559z
M1146 267.001c4 -8 12 -18.665 24 -31.998c52.667 -64.667 124 -97 214 -97c89.333 0 172.333 32.333 249 97c14 12 36.667 34.667 68 68l160 -61c-32.667 -42.667 -68.667 -80.334 -108 -113.001c-119.333 -102 -251.666 -153 -396.999 -153
c-137.333 0 -221.333 17.333 -252 52l-5 -28h-181l28 160c-92.667 -122.667 -212 -184 -358 -184c-144.667 0 -258.334 50.167 -341.001 150.5s-112 218.833 -88 355.5c24.667 138 96 257 214 357s249.333 150 394 150c146 0 243.667 -60.667 293 -182l19 107h181
c46 50 137.667 75 275 75c145.333 0 258.333 -49.333 339 -148c74 -90.667 100.667 -209.334 80 -356.001l-769 1z" />
    <glyph glyph-name="ccedilla" unicode="&#xe7;" horiz-adv-x="1074" 
d="M477 -17c-102.667 16.667 -186.33 64.666 -250.997 143.999c-83.333 100 -113 218.667 -89 356c24.667 137.333 96 256 214 356s249.333 150 394 150c146 0 259.333 -49.333 340 -148c18.667 -22.667 41 -57 67 -103l-183 -64c-18.667 30 -31.667 49.667 -39 59
c-53.333 64 -124.666 96 -213.999 96s-172.833 -33.167 -250.5 -99.5s-125.167 -148.5 -142.5 -246.5c-16.667 -97.333 2 -179.166 56 -245.499s125.667 -99.5 215 -99.5s173.666 33.667 252.999 101c7.33301 6 25.666 23.667 54.999 53l161 -63
c-42.667 -46 -75.667 -79.333 -99 -100c-118.667 -101.333 -250.334 -152.333 -395.001 -153v-1c38 -2.66699 64.667 -29.667 80 -81c6.66699 -22.667 8.33398 -44.667 5.00098 -66c-3.33301 -20 -11.333 -39 -24 -57c-29.333 -42.667 -73.666 -68.667 -132.999 -78
c-18.667 -2.66699 -36.334 -4 -53.001 -4c-30.667 0 -56.667 5 -78 15c-8 4 -16.667 8.66699 -26 14l70 84c9.33301 -5.33301 20.666 -8 33.999 -8c16.667 0 31.667 4 45 12s21 17.667 23 29c2 10.667 -2.33301 20 -13 28s-24.334 12 -41.001 12
c-7.33301 0 -14 -0.666992 -20 -2z" />
    <glyph glyph-name="egrave" unicode="&#xe8;" horiz-adv-x="1108" 
d="M383 643h599c-21.333 124 -110 186 -266 186c-156.667 0 -267.667 -62 -333 -186zM323 485l-0.998047 -2.99902c-17.333 -97.333 1.16699 -179 55.5 -245s126.5 -99 216.5 -99c89.333 0 173.666 33.667 252.999 101c11.333 9.33301 33 30.333 65 63l160 -60
c-32.667 -42.667 -68.667 -80.334 -108 -113.001c-119.333 -102 -252 -153 -398 -153c-144.667 0 -258.334 50.167 -341.001 150.5s-112 218.833 -88 355.5c24.667 138 96 257 214 357s249.333 150 394 150c146 0 260.667 -50.667 344 -152
c71.333 -88 94.333 -205.333 69 -352h-835zM747.002 1273l165 -239h-190l-269 239h294z" />
    <glyph glyph-name="eacute" unicode="&#xe9;" horiz-adv-x="1108" 
d="M383 643h599c-21.333 124 -110 186 -266 186c-156.667 0 -267.667 -62 -333 -186zM323 485l-0.998047 -2.99902c-17.333 -97.333 1.16699 -179 55.5 -245s126.5 -99 216.5 -99c89.333 0 173.666 33.667 252.999 101c11.333 9.33301 33 30.333 65 63l160 -60
c-32.667 -42.667 -68.667 -80.334 -108 -113.001c-119.333 -102 -252 -153 -398 -153c-144.667 0 -258.334 50.167 -341.001 150.5s-112 218.833 -88 355.5c24.667 138 96 257 214 357s249.333 150 394 150c146 0 260.667 -50.667 344 -152
c71.333 -88 94.333 -205.333 69 -352h-835zM1122 1273l-356 -239h-189l251 239h294z" />
    <glyph glyph-name="ecircumflex" unicode="&#xea;" horiz-adv-x="1108" 
d="M383 643h599c-21.333 124 -110 186 -266 186c-156.667 0 -267.667 -62 -333 -186zM323 485l-0.998047 -2.99902c-17.333 -97.333 1.16699 -179 55.5 -245s126.5 -99 216.5 -99c89.333 0 173.666 33.667 252.999 101c11.333 9.33301 33 30.333 65 63l160 -60
c-32.667 -42.667 -68.667 -80.334 -108 -113.001c-119.333 -102 -252 -153 -398 -153c-144.667 0 -258.334 50.167 -341.001 150.5s-112 218.833 -88 355.5c24.667 138 96 257 214 357s249.333 150 394 150c146 0 260.667 -50.667 344 -152
c71.333 -88 94.333 -205.333 69 -352h-835zM1089 1035h-231l-102 87l-125 -87h-230l387 278z" />
    <glyph glyph-name="edieresis" unicode="&#xeb;" horiz-adv-x="1108" 
d="M383 643h599c-21.333 124 -110 186 -266 186c-156.667 0 -267.667 -62 -333 -186zM323 485l-0.998047 -2.99902c-17.333 -97.333 1.16699 -179 55.5 -245s126.5 -99 216.5 -99c89.333 0 173.666 33.667 252.999 101c11.333 9.33301 33 30.333 65 63l160 -60
c-32.667 -42.667 -68.667 -80.334 -108 -113.001c-119.333 -102 -252 -153 -398 -153c-144.667 0 -258.334 50.167 -341.001 150.5s-112 218.833 -88 355.5c24.667 138 96 257 214 357s249.333 150 394 150c146 0 260.667 -50.667 344 -152
c71.333 -88 94.333 -205.333 69 -352h-835zM729.502 1235.5c20.333 -23.667 27.835 -50.167 22.502 -79.5c-5.33301 -30.667 -22.333 -57.834 -51 -81.501s-61.334 -35.5 -98.001 -35.5c-38 0 -66.833 11.833 -86.5 35.5s-26.834 50.834 -21.501 81.501
c5.33301 29.333 22 55.833 50 79.5s61 35.5 99 35.5c36.667 0 65.167 -11.833 85.5 -35.5zM1014 1235.5c20 -23.667 27.333 -50.167 22 -79.5c-5.33301 -30.667 -22.166 -57.834 -50.499 -81.501s-61.166 -35.5 -98.499 -35.5s-66 11.833 -86 35.5
s-27.333 50.834 -22 81.501c5.33301 29.333 22.166 55.833 50.499 79.5s61.166 35.5 98.499 35.5s66 -11.833 86 -35.5z" />
    <glyph glyph-name="igrave" unicode="&#xec;" horiz-adv-x="418" 
d="M460 914l-161 -914h-180l161 914h180zM392 1273l166 -239h-190l-270 239h294z" />
    <glyph glyph-name="iacute" unicode="&#xed;" horiz-adv-x="418" 
d="M460 914l-161 -914h-180l161 914h180zM768 1273l-355 -239h-189l250 239h294z" />
    <glyph glyph-name="icircumflex" unicode="&#xee;" horiz-adv-x="418" 
d="M460 914l-161 -914h-180l161 914h180zM735 1035h-231l-102 87l-125 -87h-230l387 278z" />
    <glyph glyph-name="idieresis" unicode="&#xef;" horiz-adv-x="418" 
d="M460 914l-161 -914h-180l161 914h180zM376.5 1235.5c20.333 -23.667 27.835 -50.167 22.502 -79.5c-5.33301 -30.667 -22.333 -57.834 -51 -81.501s-61.334 -35.5 -98.001 -35.5c-38 0 -66.833 11.833 -86.5 35.5s-26.834 50.834 -21.501 81.501
c5.33301 29.333 22 55.833 50 79.5s61 35.5 99 35.5c36.667 0 65.167 -11.833 85.5 -35.5zM661.002 1235.5c20 -23.667 27.333 -50.167 22 -79.5c-5.33301 -30.667 -22.166 -57.834 -50.499 -81.501s-61.166 -35.5 -98.499 -35.5s-66 11.833 -86 35.5
s-27.333 50.834 -22 81.501c5.33301 29.333 22.166 55.833 50.499 79.5s61.166 35.5 98.499 35.5s66 -11.833 86 -35.5z" />
    <glyph glyph-name="eth" unicode="&#xf0;" horiz-adv-x="1179" 
d="M342 482c-17.333 -97.333 1.16797 -179 55.501 -245s126.5 -99 216.5 -99c89.333 0 173 33 251 99s125.667 147.667 143 245c17.333 98 -1.33398 180.333 -56.001 247s-126.667 100 -216 100c-90 0 -173.833 -33.333 -251.5 -100s-125.167 -149 -142.5 -247z
M819.001 1168l290.001 -331c80 -98.667 107.667 -217 83 -355c-24 -136.667 -94.5 -255.167 -211.5 -355.5s-248.5 -150.5 -394.5 -150.5c-144.667 0 -258.334 50.167 -341.001 150.5s-112 218.833 -88 355.5c24.667 138 96 257 214 357s238.333 152.333 361 157l-51 55
l-56 -48l-182 49l137 117l-190 228h238l91 -110l72 61l166 -63z" />
    <glyph glyph-name="ntilde" unicode="&#xf1;" 
d="M400 682l-120 -682.001h-181l161 914h181c36.667 33.333 103 50 199 50c115.333 0 202.166 -35.333 260.499 -106s79.166 -157 62.499 -259l-106 -599h-180l104 591c11.333 62 -0.5 113.5 -35.5 154.5s-79.5 61.5 -133.5 61.5c-53.333 0 -103.666 -19.333 -150.999 -58
c-27.333 -23.333 -47.666 -45.666 -60.999 -66.999zM605 1106c-4 -14.667 -9.33301 -40.332 -16 -76.999l-160 36c9.33301 47.333 18.666 80 27.999 98c23.333 46.667 57.666 78.667 102.999 96c16 6.66699 33 10 51 10c39.333 0 81 -18.333 125 -55
c8 -6.66699 14.667 -12 20 -16c3.33301 14.667 8 39.667 14 75l164 -33c-11.333 -48 -21.666 -81 -30.999 -99c-22.667 -46.667 -57.334 -79.334 -104.001 -98.001c-17.333 -5.33301 -33.666 -8 -48.999 -8c-39.333 0 -81.333 18.333 -126 55
c-7.33301 6.66699 -13.666 12 -18.999 16z" />
    <glyph glyph-name="ograve" unicode="&#xf2;" horiz-adv-x="1179" 
d="M765 989c146 0 259.834 -50 341.501 -150s110.167 -219 85.5 -357c-24 -136.667 -94.5 -255.167 -211.5 -355.5s-248.5 -150.5 -394.5 -150.5c-144.667 0 -258.334 50.167 -341.001 150.5s-112 218.833 -88 355.5c24.667 138 96 257 214 357s249.333 150 394 150z
M484.501 729c-77.667 -66.667 -125.166 -149 -142.499 -247c-17.333 -97.333 1.16699 -179 55.5 -245s126.5 -99 216.5 -99c89.333 0 173 33 251 99s125.667 147.667 143 245c17.333 98 -1.33398 180.333 -56.001 247s-126.667 100 -216 100
c-90 0 -173.833 -33.333 -251.5 -100zM774.002 1273l165 -239h-190l-269 239h294z" />
    <glyph glyph-name="oacute" unicode="&#xf3;" horiz-adv-x="1179" 
d="M765 989c146 0 259.834 -50 341.501 -150s110.167 -219 85.5 -357c-24 -136.667 -94.5 -255.167 -211.5 -355.5s-248.5 -150.5 -394.5 -150.5c-144.667 0 -258.334 50.167 -341.001 150.5s-112 218.833 -88 355.5c24.667 138 96 257 214 357s249.333 150 394 150z
M484.501 729c-77.667 -66.667 -125.166 -149 -142.499 -247c-17.333 -97.333 1.16699 -179 55.5 -245s126.5 -99 216.5 -99c89.333 0 173 33 251 99s125.667 147.667 143 245c17.333 98 -1.33398 180.333 -56.001 247s-126.667 100 -216 100
c-90 0 -173.833 -33.333 -251.5 -100zM1149 1273l-356 -239h-189l251 239h294z" />
    <glyph glyph-name="ocircumflex" unicode="&#xf4;" horiz-adv-x="1179" 
d="M765 989c146 0 259.834 -50 341.501 -150s110.167 -219 85.5 -357c-24 -136.667 -94.5 -255.167 -211.5 -355.5s-248.5 -150.5 -394.5 -150.5c-144.667 0 -258.334 50.167 -341.001 150.5s-112 218.833 -88 355.5c24.667 138 96 257 214 357s249.333 150 394 150z
M484.501 729c-77.667 -66.667 -125.166 -149 -142.499 -247c-17.333 -97.333 1.16699 -179 55.5 -245s126.5 -99 216.5 -99c89.333 0 173 33 251 99s125.667 147.667 143 245c17.333 98 -1.33398 180.333 -56.001 247s-126.667 100 -216 100
c-90 0 -173.833 -33.333 -251.5 -100zM1116 1035h-231l-102 87l-125 -87h-230l387 278z" />
    <glyph glyph-name="otilde" unicode="&#xf5;" horiz-adv-x="1179" 
d="M765 989c146 0 259.834 -50 341.501 -150s110.167 -219 85.5 -357c-24 -136.667 -94.5 -255.167 -211.5 -355.5s-248.5 -150.5 -394.5 -150.5c-144.667 0 -258.334 50.167 -341.001 150.5s-112 218.833 -88 355.5c24.667 138 96 257 214 357s249.333 150 394 150z
M484.501 729c-77.667 -66.667 -125.166 -149 -142.499 -247c-17.333 -97.333 1.16699 -179 55.5 -245s126.5 -99 216.5 -99c89.333 0 173 33 251 99s125.667 147.667 143 245c17.333 98 -1.33398 180.333 -56.001 247s-126.667 100 -216 100
c-90 0 -173.833 -33.333 -251.5 -100zM717.002 1106c-4 -14.667 -9.00098 -40.332 -15.001 -76.999l-161 36c9.33301 47.333 18.666 80 27.999 98c24 46.667 58.333 78.667 103 96c16 6.66699 33 10 51 10c39.333 0 81 -18.333 125 -55c8 -6.66699 14.667 -12 20 -16
c3.33301 14.667 8.33301 39.667 15 75l163 -33c-11.333 -48 -21.666 -81 -30.999 -99c-22.667 -46.667 -57.334 -79.334 -104.001 -98.001c-16.667 -5.33301 -32.667 -8 -48 -8c-39.333 0 -81.666 18.333 -126.999 55c-7.33301 6.66699 -13.666 12 -18.999 16z" />
    <glyph glyph-name="odieresis" unicode="&#xf6;" horiz-adv-x="1179" 
d="M765 989c146 0 259.834 -50 341.501 -150s110.167 -219 85.5 -357c-24 -136.667 -94.5 -255.167 -211.5 -355.5s-248.5 -150.5 -394.5 -150.5c-144.667 0 -258.334 50.167 -341.001 150.5s-112 218.833 -88 355.5c24.667 138 96 257 214 357s249.333 150 394 150z
M484.501 729c-77.667 -66.667 -125.166 -149 -142.499 -247c-17.333 -97.333 1.16699 -179 55.5 -245s126.5 -99 216.5 -99c89.333 0 173 33 251 99s125.667 147.667 143 245c17.333 98 -1.33398 180.333 -56.001 247s-126.667 100 -216 100
c-90 0 -173.833 -33.333 -251.5 -100zM757.502 1235.5c20.333 -23.667 27.835 -50.167 22.502 -79.5c-5.33301 -30.667 -22.333 -57.834 -51 -81.501s-61.334 -35.5 -98.001 -35.5c-38 0 -66.833 11.833 -86.5 35.5s-26.834 50.834 -21.501 81.501
c5.33301 29.333 22 55.833 50 79.5s61 35.5 99 35.5c36.667 0 65.167 -11.833 85.5 -35.5zM1042 1235.5c20 -23.667 27.333 -50.167 22 -79.5c-5.33301 -30.667 -22.166 -57.834 -50.499 -81.501s-61.166 -35.5 -98.499 -35.5s-66 11.833 -86 35.5
s-27.333 50.834 -22 81.501c5.33301 29.333 22.166 55.833 50.499 79.5s61.166 35.5 98.499 35.5s66 -11.833 86 -35.5z" />
    <glyph glyph-name="divide" unicode="&#xf7;" horiz-adv-x="1138" 
d="M85 609v156h968v-156h-968zM661.5 471.5c24.333 -23.667 36.5 -50.5 36.5 -80.5s-12.167 -56.833 -36.5 -80.5s-54.833 -35.5 -91.5 -35.5c-37.333 0 -68.166 11.833 -92.499 35.5s-36.5 50.5 -36.5 80.5s12.167 56.833 36.5 80.5s55.166 35.5 92.499 35.5
c36.667 0 67.167 -11.833 91.5 -35.5zM661.5 1064.5c24.333 -23.667 36.5 -50.5 36.5 -80.5s-12.167 -56.833 -36.5 -80.5s-54.833 -35.5 -91.5 -35.5c-37.333 0 -68.166 11.833 -92.499 35.5s-36.5 50.5 -36.5 80.5s12.167 56.833 36.5 80.5s55.166 35.5 92.499 35.5
c36.667 0 67.167 -11.833 91.5 -35.5z" />
    <glyph glyph-name="oslash" unicode="&#xf8;" horiz-adv-x="1145" 
d="M810 819c-12 6.66699 -42.333 9.99902 -91 9.99902c-90 0 -173.833 -33.167 -251.5 -99.5s-125.167 -148.5 -142.5 -246.5c-17.333 -97.333 0.666992 -178.666 54 -243.999zM945 729.999l-440.001 -582c12.667 -6 43.334 -9 92.001 -9c89.333 0 173 33 251 99
s125.667 147.667 143 245c17.333 98 2 180.333 -46 247zM261.999 89.999c-6 4.66699 -18.333 17.667 -37 39c-80.667 99.333 -109 217.333 -85 354c24.667 138 96 257 214 357s249.333 150 394 150c82 0 139.667 -8.66699 173 -26l136 183l140 -82l-141 -187
c5.33301 -4.66699 17.333 -18 36 -40c80 -98.667 107.667 -217 83 -355c-24 -136.667 -94.5 -255.167 -211.5 -355.5s-248.5 -150.5 -394.5 -150.5c-82.667 0 -140 8.66699 -172 26l-136 -180l-143 73z" />
    <glyph glyph-name="ugrave" unicode="&#xf9;" 
d="M481 -12c-121.333 0 -210.999 35.332 -268.999 105.999s-79 157.334 -63 260.001l99 561h181l-98 -554c-10.667 -61.333 2 -113.333 38 -156c33.333 -40.667 79.333 -61 138 -61c53.333 0 104.666 20.833 153.999 62.5s79.333 93.167 90 154.5l98 554h181l-99 -561
c-20 -102.667 -72 -190 -156 -262c-81.333 -69.333 -179.333 -104 -294 -104zM661.001 1273l166 -239h-190l-270 239h294z" />
    <glyph glyph-name="uacute" unicode="&#xfa;" 
d="M481 -12c-121.333 0 -210.999 35.332 -268.999 105.999s-79 157.334 -63 260.001l99 561h181l-98 -554c-10.667 -61.333 2 -113.333 38 -156c33.333 -40.667 79.333 -61 138 -61c53.333 0 104.666 20.833 153.999 62.5s79.333 93.167 90 154.5l98 554h181l-99 -561
c-20 -102.667 -72 -190 -156 -262c-81.333 -69.333 -179.333 -104 -294 -104zM1036 1273l-355 -239h-189l250 239h294z" />
    <glyph glyph-name="ucircumflex" unicode="&#xfb;" 
d="M481 -12c-121.333 0 -210.999 35.332 -268.999 105.999s-79 157.334 -63 260.001l99 561h181l-98 -554c-10.667 -61.333 2 -113.333 38 -156c33.333 -40.667 79.333 -61 138 -61c53.333 0 104.666 20.833 153.999 62.5s79.333 93.167 90 154.5l98 554h181l-99 -561
c-20 -102.667 -72 -190 -156 -262c-81.333 -69.333 -179.333 -104 -294 -104zM1004 1035h-231l-101 87l-126 -87h-230l387 278z" />
    <glyph glyph-name="udieresis" unicode="&#xfc;" 
d="M481 -12c-121.333 0 -210.999 35.332 -268.999 105.999s-79 157.334 -63 260.001l99 561h181l-98 -554c-10.667 -61.333 2 -113.333 38 -156c33.333 -40.667 79.333 -61 138 -61c53.333 0 104.666 20.833 153.999 62.5s79.333 93.167 90 154.5l98 554h181l-99 -561
c-20 -102.667 -72 -190 -156 -262c-81.333 -69.333 -179.333 -104 -294 -104zM645.001 1235.5c20 -23.667 27.667 -50.167 23 -79.5c-6 -30.667 -23.167 -57.834 -51.5 -81.501s-60.833 -35.5 -97.5 -35.5c-38 0 -67 11.833 -87 35.5s-27 50.834 -21 81.501
c4.66699 29.333 21.167 55.833 49.5 79.5s61.5 35.5 99.5 35.5c36.667 0 65 -11.833 85 -35.5zM929.501 1235.5c19.667 -23.667 27.165 -50.167 22.498 -79.5c-6 -30.667 -23 -57.834 -51 -81.501s-60.667 -35.5 -98 -35.5s-66.166 11.833 -86.499 35.5
s-27.5 50.834 -21.5 81.501c4.66699 29.333 21.334 55.833 50.001 79.5s61.667 35.5 99 35.5s65.833 -11.833 85.5 -35.5z" />
    <glyph glyph-name="yacute" unicode="&#xfd;" horiz-adv-x="896" 
d="M251 -317h-195l328 512l-208 719h195l149 -505l327 505h195zM1007 1273l-355 -239h-189l250 239h294z" />
    <glyph glyph-name="thorn" unicode="&#xfe;" horiz-adv-x="1270" 
d="M409 574l-32.999 -183.999c4 -58 25.333 -110 64 -156c52.667 -64.667 123.667 -97 213 -97c90 0 173.833 33.167 251.5 99.5s125.167 148.166 142.5 245.499c17.333 98 -1.33398 180.333 -56.001 247s-126.667 100 -216 100s-172 -32.667 -248 -98
c-54.667 -46 -94 -98.333 -118 -157zM457.001 850.001c86 92 201.333 138 346 138c146 0 260 -49.833 342 -149.5s111 -218.5 87 -356.5c-24.667 -136.667 -95.667 -255.167 -213 -355.5s-249 -150.5 -395 -150.5c-144.667 0 -244 43 -298 129l-72 -409h-181l277 1573h181z
" />
    <glyph glyph-name="ydieresis" unicode="&#xff;" horiz-adv-x="896" 
d="M251 -317h-195l328 512l-208 719h195l149 -505l327 505h195zM616 1235.5c20 -23.667 27.6689 -50.167 23.002 -79.5c-5.33301 -30.667 -22.333 -57.834 -51 -81.501s-61.334 -35.5 -98.001 -35.5c-38 0 -66.833 11.833 -86.5 35.5s-26.834 50.834 -21.501 81.501
c4.66699 29.333 21.167 55.833 49.5 79.5s61.5 35.5 99.5 35.5c36.667 0 65 -11.833 85 -35.5zM900.502 1235.5c19.667 -23.667 27.1641 -50.167 22.4971 -79.5c-5.33301 -30.667 -22.166 -57.834 -50.499 -81.501s-61.166 -35.5 -98.499 -35.5s-66 11.833 -86 35.5
s-27.333 50.834 -22 81.501c4.66699 29.333 21.334 55.833 50.001 79.5s61.667 35.5 99 35.5s65.833 -11.833 85.5 -35.5z" />
    <glyph glyph-name="Amacron" unicode="&#x100;" horiz-adv-x="1208" 
d="M876 754l-71 382l-206 -382h277zM938 1439l267 -1439h-188l-112 598h-391l-326 -598h-189l782 1439h157zM600 1699h604l-25 -140h-604z" />
    <glyph glyph-name="amacron" unicode="&#x101;" horiz-adv-x="1188" 
d="M1099 0h-180.999l28 160c-92.667 -122.667 -212 -184 -358 -184c-144.667 0 -258.334 50.167 -341.001 150.5s-112 218.833 -88 355.5c24.667 138 96 257 214 357s249.333 150 394 150c146 0 243.667 -60.667 293 -182l19 107h181zM990.001 410l26 146
c-0.666992 66 -21 123 -61 171c-55.333 68 -127.666 102 -216.999 102c-90 0 -173.833 -33.333 -251.5 -100s-125.167 -149 -142.5 -247c-17.333 -97.333 1.16699 -179 55.5 -245s126.5 -99 216.5 -99c89.333 0 173.666 33.667 252.999 101c56.667 48 97 105 121 171z
M491.001 1174h604l-25 -140h-604z" />
    <glyph glyph-name="Abreve" unicode="&#x102;" horiz-adv-x="1208" 
d="M876 754l-71 382l-206 -382h277zM938 1439l267 -1439h-188l-112 598h-391l-326 -598h-189l782 1439h157zM1176 1800c-32 -67.333 -65 -115.333 -99 -144c-57.333 -50 -122 -75 -194 -75c-73.333 0 -130 25 -170 75c-24 30 -41 78 -51 144h168
c9.33301 -26.667 17.333 -44 24 -52c14 -16.667 32 -25 54 -25c20.667 0 40.667 8.66699 60 26c10 7.33301 23.667 24.333 41 51h167z" />
    <glyph glyph-name="abreve" unicode="&#x103;" horiz-adv-x="1188" 
d="M1099 0h-180.999l28 160c-92.667 -122.667 -212 -184 -358 -184c-144.667 0 -258.334 50.167 -341.001 150.5s-112 218.833 -88 355.5c24.667 138 96 257 214 357s249.333 150 394 150c146 0 243.667 -60.667 293 -182l19 107h181zM990.001 410l26 146
c-0.666992 66 -21 123 -61 171c-55.333 68 -127.666 102 -216.999 102c-90 0 -173.833 -33.333 -251.5 -100s-125.167 -149 -142.5 -247c-17.333 -97.333 1.16699 -179 55.5 -245s126.5 -99 216.5 -99c89.333 0 173.666 33.667 252.999 101c56.667 48 97 105 121 171z
M1068 1275c-32.667 -67.333 -65.668 -115.333 -99.001 -144c-58 -50 -123 -75 -195 -75c-73.333 0 -129.666 25 -168.999 75c-24 30 -41 78 -51 144h168c9.33301 -26.667 17.333 -44 24 -52c13.333 -16.667 31 -25 53 -25c20.667 0 41 8.66699 61 26
c10 7.33301 23.667 24.333 41 51h167z" />
    <glyph glyph-name="Aogonek" unicode="&#x104;" horiz-adv-x="1208" 
d="M876 754l-71 382l-206 -382h277zM1028 0h-10.999l-112 598h-391l-326 -598h-189l782 1439h157l267 -1439h-26c-20 -11.333 -35.333 -21.5 -46 -30.5s-17 -19.5 -19 -31.5c-2 -11.333 0.666992 -21.5 8 -30.5s18 -13.5 32 -13.5c7.33301 0 14 1 20 3l-6 -105
c-10 -1.33301 -20.667 -2 -32 -2c-46.667 0 -82.334 15 -107.001 45s-33.667 64.333 -27 103c4 22 12.667 42.667 26 62z" />
    <glyph glyph-name="aogonek" unicode="&#x105;" horiz-adv-x="1188" 
d="M990 410l26 146c-0.666992 66 -21 123 -61 171c-55.333 68 -127.666 102 -216.999 102c-90 0 -173.833 -33.333 -251.5 -100s-125.167 -149 -142.5 -247c-17.333 -97.333 1.16699 -179 55.5 -245s126.5 -99 216.5 -99c89.333 0 173.666 33.667 252.999 101
c56.667 48 97 105 121 171zM922 0h-3.99805l28 160c-92.667 -122.667 -212 -184 -358 -184c-144.667 0 -258.334 50.167 -341.001 150.5s-112 218.833 -88 355.5c24.667 138 96 257 214 357s249.333 150 394 150c146 0 243.667 -60.667 293 -182l19 107h181l-161 -914h-26
c-20 -11.333 -35.333 -21.5 -46 -30.5s-17 -19.5 -19 -31.5c-2 -11.333 0.666992 -21.5 8 -30.5s18 -13.5 32 -13.5c6.66699 0 13.334 1 20.001 3l-6 -105c-10.667 -1.33301 -21.334 -2 -32.001 -2c-46.667 0 -82.334 15 -107.001 45s-33.667 64.333 -27 103
c4 22 12.667 42.667 26 62z" />
    <glyph glyph-name="Cacute" unicode="&#x106;" horiz-adv-x="1419" 
d="M1286 317l107.001 -112c-188 -147.333 -379.333 -221 -574 -221c-209.333 0 -373.5 72.167 -492.5 216.5s-160.833 317.5 -125.5 519.5c35.333 200 138 372.667 308 518s359.667 218 569 218c194.667 0 360 -74 496 -222l-146 -112
c-111.333 116.667 -237.333 175 -378 175c-153.333 0 -295.666 -55.833 -426.999 -167.5s-211.333 -248.167 -240 -409.5c-28.667 -162.667 3.16602 -299.667 95.499 -411s215.166 -167 368.499 -167c140.667 0 287 58.333 439 175zM1368 1798l-356 -239h-189l251 239h294z
" />
    <glyph glyph-name="cacute" unicode="&#x107;" horiz-adv-x="1074" 
d="M902 292l161.002 -63c-42.667 -46 -75.667 -79.333 -99 -100c-119.333 -102 -252 -153 -398 -153c-144.667 0 -258.334 50.167 -341.001 150.5s-112 219.166 -88 356.499c24.667 137.333 96 256 214 356s249.333 150 394 150c146 0 259.333 -49.333 340 -148
c18.667 -22.667 41 -57 67 -103l-183 -64c-18.667 30 -31.667 49.667 -39 59c-53.333 64 -124.666 96 -213.999 96s-172.833 -33.167 -250.5 -99.5s-125.167 -148.5 -142.5 -246.5c-16.667 -97.333 2 -179.166 56 -245.499s125.667 -99.5 215 -99.5
s173.666 33.667 252.999 101c7.33301 6 25.666 23.667 54.999 53zM1097 1273l-356 -239h-189l251 239h294z" />
    <glyph glyph-name="Ccircumflex" unicode="&#x108;" horiz-adv-x="1419" 
d="M1286 317l107.001 -112c-188 -147.333 -379.333 -221 -574 -221c-209.333 0 -373.5 72.167 -492.5 216.5s-160.833 317.5 -125.5 519.5c35.333 200 138 372.667 308 518s359.667 218 569 218c194.667 0 360 -74 496 -222l-146 -112
c-111.333 116.667 -237.333 175 -378 175c-153.333 0 -295.666 -55.833 -426.999 -167.5s-211.333 -248.167 -240 -409.5c-28.667 -162.667 3.16602 -299.667 95.499 -411s215.166 -167 368.499 -167c140.667 0 287 58.333 439 175zM1335 1560h-231l-102 87l-125 -87h-230
l387 278z" />
    <glyph glyph-name="ccircumflex" unicode="&#x109;" horiz-adv-x="1074" 
d="M902 292l161.002 -63c-42.667 -46 -75.667 -79.333 -99 -100c-119.333 -102 -252 -153 -398 -153c-144.667 0 -258.334 50.167 -341.001 150.5s-112 219.166 -88 356.499c24.667 137.333 96 256 214 356s249.333 150 394 150c146 0 259.333 -49.333 340 -148
c18.667 -22.667 41 -57 67 -103l-183 -64c-18.667 30 -31.667 49.667 -39 59c-53.333 64 -124.666 96 -213.999 96s-172.833 -33.167 -250.5 -99.5s-125.167 -148.5 -142.5 -246.5c-16.667 -97.333 2 -179.166 56 -245.499s125.667 -99.5 215 -99.5
s173.666 33.667 252.999 101c7.33301 6 25.666 23.667 54.999 53zM1064 1035h-231l-102 87l-125 -87h-230l387 278z" />
    <glyph glyph-name="Cdotaccent" unicode="&#x10a;" horiz-adv-x="1419" 
d="M1286 317l107.001 -112c-188 -147.333 -379.333 -221 -574 -221c-209.333 0 -373.5 72.167 -492.5 216.5s-160.833 317.5 -125.5 519.5c35.333 200 138 372.667 308 518s359.667 218 569 218c194.667 0 360 -74 496 -222l-146 -112
c-111.333 116.667 -237.333 175 -378 175c-153.333 0 -295.666 -55.833 -426.999 -167.5s-211.333 -248.167 -240 -409.5c-28.667 -162.667 3.16602 -299.667 95.499 -411s215.166 -167 368.499 -167c140.667 0 287 58.333 439 175zM1111.5 1770
c18.333 -21.333 25.166 -45.666 20.499 -72.999c-4.66699 -26.667 -20 -50.667 -46 -72s-56 -32 -90 -32s-60 10.667 -78 32s-24.667 45.333 -20 72c4.66699 27.333 19.834 51.666 45.501 72.999s55.5 32 89.5 32s60.167 -10.667 78.5 -32z" />
    <glyph glyph-name="cdotaccent" unicode="&#x10b;" horiz-adv-x="1074" 
d="M902 292l161.002 -63c-42.667 -46 -75.667 -79.333 -99 -100c-119.333 -102 -252 -153 -398 -153c-144.667 0 -258.334 50.167 -341.001 150.5s-112 219.166 -88 356.499c24.667 137.333 96 256 214 356s249.333 150 394 150c146 0 259.333 -49.333 340 -148
c18.667 -22.667 41 -57 67 -103l-183 -64c-18.667 30 -31.667 49.667 -39 59c-53.333 64 -124.666 96 -213.999 96s-172.833 -33.167 -250.5 -99.5s-125.167 -148.5 -142.5 -246.5c-16.667 -97.333 2 -179.166 56 -245.499s125.667 -99.5 215 -99.5
s173.666 33.667 252.999 101c7.33301 6 25.666 23.667 54.999 53zM840.502 1245c18.333 -21.333 25.166 -45.666 20.499 -72.999c-4.66699 -26.667 -20 -50.667 -46 -72s-56 -32 -90 -32s-60 10.667 -78 32s-24.667 45.333 -20 72
c4.66699 27.333 19.834 51.666 45.501 72.999s55.5 32 89.5 32s60.167 -10.667 78.5 -32z" />
    <glyph glyph-name="Ccaron" unicode="&#x10c;" horiz-adv-x="1419" 
d="M1286 317l107.001 -112c-188 -147.333 -379.333 -221 -574 -221c-209.333 0 -373.5 72.167 -492.5 216.5s-160.833 317.5 -125.5 519.5c35.333 200 138 372.667 308 518s359.667 218 569 218c194.667 0 360 -74 496 -222l-146 -112
c-111.333 116.667 -237.333 175 -378 175c-153.333 0 -295.666 -55.833 -426.999 -167.5s-211.333 -248.167 -240 -409.5c-28.667 -162.667 3.16602 -299.667 95.499 -411s215.166 -167 368.499 -167c140.667 0 287 58.333 439 175zM976.001 1514l-289 277h230l95 -86
l132 86h231z" />
    <glyph glyph-name="ccaron" unicode="&#x10d;" horiz-adv-x="1074" 
d="M902 292l161.002 -63c-42.667 -46 -75.667 -79.333 -99 -100c-119.333 -102 -252 -153 -398 -153c-144.667 0 -258.334 50.167 -341.001 150.5s-112 219.166 -88 356.499c24.667 137.333 96 256 214 356s249.333 150 394 150c146 0 259.333 -49.333 340 -148
c18.667 -22.667 41 -57 67 -103l-183 -64c-18.667 30 -31.667 49.667 -39 59c-53.333 64 -124.666 96 -213.999 96s-172.833 -33.167 -250.5 -99.5s-125.167 -148.5 -142.5 -246.5c-16.667 -97.333 2 -179.166 56 -245.499s125.667 -99.5 215 -99.5
s173.666 33.667 252.999 101c7.33301 6 25.666 23.667 54.999 53zM706.002 989l-290 277h230l95 -86l132 86h231z" />
    <glyph glyph-name="Dcaron" unicode="&#x10e;" horiz-adv-x="1252" 
d="M670 1439c239.333 -1.33301 413.999 -69 523.999 -203c117.333 -144 158.333 -316 123 -516c-35.333 -202 -138.666 -376 -309.999 -522c-154 -130.667 -351 -196.667 -591 -198h-304l254 1439h304zM518.999 1279l-198 -1120h122c178.667 0 327.667 49.333 447 148
c132.667 112.667 213.334 250.334 242.001 413.001c28.667 161.333 -3.33301 299 -96 413c-84.667 97.333 -216.334 146 -395.001 146h-122zM911.999 1514l-289 277h230l95 -86l132 86h231z" />
    <glyph glyph-name="dcaron" unicode="&#x10f;" horiz-adv-x="1418" 
d="M1099 0h-180.999l20 110c-87.333 -89.333 -204 -134 -350 -134c-144.667 0 -258.334 50.167 -341.001 150.5s-112 218.833 -88 355.5c24.667 138 96 257 214 357s249.333 150 394 150c146 0 246.667 -44 302 -132l103 582h181zM990.001 410l26 146
c-0.666992 66 -21 123 -61 171c-55.333 68 -127.666 102 -216.999 102c-90 0 -173.833 -33.333 -251.5 -100s-125.167 -149 -142.5 -247c-17.333 -97.333 1.16699 -179 55.5 -245s126.5 -99 216.5 -99c89.333 0 173.666 33.667 252.999 101c56.667 48 97 105 121 171z
M1410 1231l-7 23c-18 22 -24.333 48.333 -19 79c5.33301 30 22 56.667 50 80s60.667 35 98 35c36.667 0 65.167 -11.667 85.5 -35s27.833 -50 22.5 -80c-2.66699 -16 -8 -31.333 -16 -46l-132 -196h-159z" />
    <glyph glyph-name="Dcroat" unicode="&#x110;" horiz-adv-x="1319" 
d="M437 641l-85.001 -482.001h121c179.333 0 328.333 49.333 447 148c133.333 112.667 214.333 250.334 243 413.001c28.667 161.333 -3.66602 299 -96.999 413c-84.667 97.333 -216.667 146 -396 146h-121l-84 -481h472l-28 -157h-472zM283.999 797.999l112.999 641h304
c239.333 -1.33301 414 -69 524 -203c117.333 -144 158.333 -316 123 -516c-35.333 -202 -138.666 -376 -309.999 -522c-154 -130.667 -351 -196.667 -591 -198h-304l113 641h-123l28 157h123z" />
    <glyph glyph-name="dcroat" unicode="&#x111;" horiz-adv-x="1206" 
d="M990 410l26 146c-0.666992 66 -21 123 -61 171c-55.333 68 -127.666 102 -216.999 102c-90 0 -173.833 -33.333 -251.5 -100s-125.167 -149 -142.5 -247c-17.333 -97.333 1.16699 -179 55.5 -245s126.5 -99 216.5 -99c89.333 0 173.666 33.667 252.999 101
c56.667 48 97 105 121 171zM1291 1090l-191.999 -1090h-181l16 90c-84.667 -76 -200 -114 -346 -114c-144.667 0 -258.334 50.167 -341.001 150.5s-112 218.833 -88 355.5c24.667 138 96 257 214 357s249.333 150 394 150c146 0 246.667 -44 302 -132l41 233h-294l28 156
h294l34 193h181l-34 -193h109l-28 -156h-109z" />
    <glyph glyph-name="Emacron" unicode="&#x112;" horiz-adv-x="1007" 
d="M1149 1439l-28 -157h-602l-85 -484h602l-28 -157h-602l-85 -484h602l-28 -157h-783l254 1439h783zM501 1699h604l-25 -140h-604z" />
    <glyph glyph-name="emacron" unicode="&#x113;" horiz-adv-x="1108" 
d="M383 643h599c-21.333 124 -110 186 -266 186c-156.667 0 -267.667 -62 -333 -186zM323 485l-0.998047 -2.99902c-17.333 -97.333 1.16699 -179 55.5 -245s126.5 -99 216.5 -99c89.333 0 173.666 33.667 252.999 101c11.333 9.33301 33 30.333 65 63l160 -60
c-32.667 -42.667 -68.667 -80.334 -108 -113.001c-119.333 -102 -252 -153 -398 -153c-144.667 0 -258.334 50.167 -341.001 150.5s-112 218.833 -88 355.5c24.667 138 96 257 214 357s249.333 150 394 150c146 0 260.667 -50.667 344 -152
c71.333 -88 94.333 -205.333 69 -352h-835zM467.002 1174h604l-25 -140h-604z" />
    <glyph glyph-name="Ebreve" unicode="&#x114;" horiz-adv-x="1007" 
d="M1149 1439l-28 -157h-602l-85 -484h602l-28 -157h-602l-85 -484h602l-28 -157h-783l254 1439h783zM1078 1800c-32 -67.333 -65 -115.333 -99 -144c-57.333 -50 -122 -75 -194 -75c-73.333 0 -130 25 -170 75c-24 30 -41 78 -51 144h168
c9.33301 -26.667 17.333 -44 24 -52c14 -16.667 32 -25 54 -25c20.667 0 40.667 8.66699 60 26c10 7.33301 23.667 24.333 41 51h167z" />
    <glyph glyph-name="ebreve" unicode="&#x115;" horiz-adv-x="1108" 
d="M383 643h599c-21.333 124 -110 186 -266 186c-156.667 0 -267.667 -62 -333 -186zM323 485l-0.998047 -2.99902c-17.333 -97.333 1.16699 -179 55.5 -245s126.5 -99 216.5 -99c89.333 0 173.666 33.667 252.999 101c11.333 9.33301 33 30.333 65 63l160 -60
c-32.667 -42.667 -68.667 -80.334 -108 -113.001c-119.333 -102 -252 -153 -398 -153c-144.667 0 -258.334 50.167 -341.001 150.5s-112 218.833 -88 355.5c24.667 138 96 257 214 357s249.333 150 394 150c146 0 260.667 -50.667 344 -152
c71.333 -88 94.333 -205.333 69 -352h-835zM1044 1275c-32.667 -67.333 -65.668 -115.333 -99.001 -144c-58 -50 -123 -75 -195 -75c-73.333 0 -129.666 25 -168.999 75c-24 30 -41 78 -51 144h168c9.33301 -26.667 17.333 -44 24 -52c13.333 -16.667 31 -25 53 -25
c20.667 0 41 8.66699 61 26c10 7.33301 23.667 24.333 41 51h167z" />
    <glyph glyph-name="Edotaccent" unicode="&#x116;" horiz-adv-x="1007" 
d="M1149 1439l-28 -157h-602l-85 -484h602l-28 -157h-602l-85 -484h602l-28 -157h-783l254 1439h783zM900 1770c18 -21.333 24.667 -45.666 20 -72.999c-4.66699 -26.667 -19.834 -50.667 -45.501 -72s-55.5 -32 -89.5 -32s-60.167 10.667 -78.5 32
s-25.166 45.333 -20.499 72c4.66699 27.333 20 51.666 46 72.999s56 32 90 32s60 -10.667 78 -32z" />
    <glyph glyph-name="edotaccent" unicode="&#x117;" horiz-adv-x="1108" 
d="M383 643h599c-21.333 124 -110 186 -266 186c-156.667 0 -267.667 -62 -333 -186zM323 485l-0.998047 -2.99902c-17.333 -97.333 1.16699 -179 55.5 -245s126.5 -99 216.5 -99c89.333 0 173.666 33.667 252.999 101c11.333 9.33301 33 30.333 65 63l160 -60
c-32.667 -42.667 -68.667 -80.334 -108 -113.001c-119.333 -102 -252 -153 -398 -153c-144.667 0 -258.334 50.167 -341.001 150.5s-112 218.833 -88 355.5c24.667 138 96 257 214 357s249.333 150 394 150c146 0 260.667 -50.667 344 -152
c71.333 -88 94.333 -205.333 69 -352h-835zM865.502 1245c18.333 -21.333 25.166 -45.666 20.499 -72.999c-4.66699 -26.667 -20 -50.667 -46 -72s-56 -32 -90 -32s-60 10.667 -78 32s-24.667 45.333 -20 72c4.66699 27.333 19.834 51.666 45.501 72.999s55.5 32 89.5 32
s60.167 -10.667 78.5 -32z" />
    <glyph glyph-name="Eogonek" unicode="&#x118;" horiz-adv-x="1007" 
d="M718 0h-605.999l254 1439h783l-28 -157h-602l-85 -484h602l-28 -157h-602l-85 -484h602l-28 -157h-26c-20 -11.333 -35.333 -21.5 -46 -30.5s-17 -19.5 -19 -31.5c-2 -11.333 0.666992 -21.5 8 -30.5s18 -13.5 32 -13.5c6.66699 0 13.334 1 20.001 3l-6 -105
c-10.667 -1.33301 -21.334 -2 -32.001 -2c-46.667 0 -82.334 15 -107.001 45s-33.667 64.333 -27 103c4 22 12.667 42.667 26 62z" />
    <glyph glyph-name="eogonek" unicode="&#x119;" horiz-adv-x="1108" 
d="M383 643h599c-21.333 124 -110 186 -266 186c-156.667 0 -267.667 -62 -333 -186zM700 -9c-43.333 -10 -87.999 -14.999 -133.999 -14.999c-144.667 0 -258.334 50.167 -341.001 150.5s-112 218.833 -88 355.5c24.667 138 96 257 214 357s249.333 150 394 150
c146 0 260.667 -50.667 344 -152c71.333 -88 94.333 -205.333 69 -352h-835l-1 -3c-17.333 -97.333 1.16699 -179 55.5 -245s126.5 -99 216.5 -99c89.333 0 173.666 33.667 252.999 101c11.333 9.33301 33 30.333 65 63l160 -60
c-32.667 -42.667 -68.667 -80.334 -108 -113.001c-28 -24 -56.667 -45 -86 -63c-20 -10 -35.333 -19.5 -46 -28.5s-17 -19.5 -19 -31.5c-2 -11.333 0.666992 -21.5 8 -30.5s18 -13.5 32 -13.5c6.66699 0 13.334 1 20.001 3l-6 -105c-10 -1.33301 -20.667 -2 -32 -2
c-46.667 0 -82.334 15 -107.001 45c-21.333 26 -30.666 55.333 -27.999 88z" />
    <glyph glyph-name="Ecaron" unicode="&#x11a;" horiz-adv-x="1007" 
d="M1149 1439l-28 -157h-602l-85 -484h602l-28 -157h-602l-85 -484h602l-28 -157h-783l254 1439h783zM764 1514l-289 277h230l95 -86l132 86h231z" />
    <glyph glyph-name="ecaron" unicode="&#x11b;" horiz-adv-x="1108" 
d="M383 643h599c-21.333 124 -110 186 -266 186c-156.667 0 -267.667 -62 -333 -186zM323 485l-0.998047 -2.99902c-17.333 -97.333 1.16699 -179 55.5 -245s126.5 -99 216.5 -99c89.333 0 173.666 33.667 252.999 101c11.333 9.33301 33 30.333 65 63l160 -60
c-32.667 -42.667 -68.667 -80.334 -108 -113.001c-119.333 -102 -252 -153 -398 -153c-144.667 0 -258.334 50.167 -341.001 150.5s-112 218.833 -88 355.5c24.667 138 96 257 214 357s249.333 150 394 150c146 0 260.667 -50.667 344 -152
c71.333 -88 94.333 -205.333 69 -352h-835zM731.002 989.001l-290 277h230l95 -86l132 86h231z" />
    <glyph glyph-name="Gcircumflex" unicode="&#x11c;" horiz-adv-x="1431" 
d="M1370 196c-172 -141.333 -355.666 -212 -550.999 -212c-209.333 0 -373.5 72.167 -492.5 216.5s-160.833 317.5 -125.5 519.5c35.333 200 138 372.667 308 518s359.667 218 569 218c194.667 0 360 -74 496 -222l-146 -112c-111.333 116.667 -237.333 175 -378 175
c-153.333 0 -295.666 -55.833 -426.999 -167.5s-211.333 -248.167 -240 -409.5c-28.667 -162.667 3.16602 -299.667 95.499 -411s215.166 -167 368.499 -167c131.333 0 249 36.667 353 110l77 438h180zM1335 1560h-231l-102 87l-125 -87h-230l387 278z" />
    <glyph glyph-name="gcircumflex" unicode="&#x11d;" horiz-adv-x="1149" 
d="M994 559c-2 64.667 -23.334 121.999 -64.001 171.999c-53.333 65.333 -124.666 98 -213.999 98c-90 0 -173.833 -33.333 -251.5 -100s-125.167 -149 -142.5 -247c-17.333 -97.333 1.16699 -179.166 55.5 -245.499s126.5 -99.5 216.5 -99.5
c89.333 0 173.666 33.667 252.999 101c54.667 46.667 94.334 102 119.001 166zM909.999 154.999c-83.333 -119.333 -198.001 -179 -344.001 -179c-144.667 0 -258.334 50.167 -341.001 150.5s-112 218.833 -88 355.5c24.667 138 95.834 256.833 213.501 356.5
s248.834 149.5 393.501 149.5c145.333 0 243.333 -60.333 294 -181l19 107h181l-121 -688c-23.333 -134 -92 -249 -206 -345c-119.333 -102 -251.666 -153 -396.999 -153s-259 49.667 -341 149c-18 23.333 -40.333 58 -67 104l184 63c18 -29.333 31 -48 39 -56
c53.333 -65.333 124.666 -98 213.999 -98c188.667 0 311 88.333 367 265zM1091 1035h-231l-102 87l-125 -87h-230l387 278z" />
    <glyph glyph-name="Gbreve" unicode="&#x11e;" horiz-adv-x="1431" 
d="M1370 196c-172 -141.333 -355.666 -212 -550.999 -212c-209.333 0 -373.5 72.167 -492.5 216.5s-160.833 317.5 -125.5 519.5c35.333 200 138 372.667 308 518s359.667 218 569 218c194.667 0 360 -74 496 -222l-146 -112c-111.333 116.667 -237.333 175 -378 175
c-153.333 0 -295.666 -55.833 -426.999 -167.5s-211.333 -248.167 -240 -409.5c-28.667 -162.667 3.16602 -299.667 95.499 -411s215.166 -167 368.499 -167c131.333 0 249 36.667 353 110l77 438h180zM1290 1800c-32.667 -67.333 -66 -115.333 -100 -144
c-57.333 -50 -122 -75 -194 -75c-73.333 0 -130 25 -170 75c-24 30 -40.667 78 -50 144h168c9.33301 -26.667 17.333 -44 24 -52c13.333 -16.667 31 -25 53 -25c20.667 0 41 8.66699 61 26c10 7.33301 23.667 24.333 41 51h167z" />
    <glyph glyph-name="gbreve" unicode="&#x11f;" horiz-adv-x="1149" 
d="M994 559c-2 64.667 -23.334 121.999 -64.001 171.999c-53.333 65.333 -124.666 98 -213.999 98c-90 0 -173.833 -33.333 -251.5 -100s-125.167 -149 -142.5 -247c-17.333 -97.333 1.16699 -179.166 55.5 -245.499s126.5 -99.5 216.5 -99.5
c89.333 0 173.666 33.667 252.999 101c54.667 46.667 94.334 102 119.001 166zM909.999 154.999c-83.333 -119.333 -198.001 -179 -344.001 -179c-144.667 0 -258.334 50.167 -341.001 150.5s-112 218.833 -88 355.5c24.667 138 95.834 256.833 213.501 356.5
s248.834 149.5 393.501 149.5c145.333 0 243.333 -60.333 294 -181l19 107h181l-121 -688c-23.333 -134 -92 -249 -206 -345c-119.333 -102 -251.666 -153 -396.999 -153s-259 49.667 -341 149c-18 23.333 -40.333 58 -67 104l184 63c18 -29.333 31 -48 39 -56
c53.333 -65.333 124.666 -98 213.999 -98c188.667 0 311 88.333 367 265zM1046 1275c-32.667 -67.333 -65.668 -115.333 -99.001 -144c-58 -50 -123 -75 -195 -75c-73.333 0 -129.666 25 -168.999 75c-24 30 -41 78 -51 144h168c9.33301 -26.667 17.333 -44 24 -52
c13.333 -16.667 31 -25 53 -25c20.667 0 41 8.66699 61 26c10 7.33301 23.667 24.333 41 51h167z" />
    <glyph glyph-name="Gdotaccent" unicode="&#x120;" horiz-adv-x="1431" 
d="M1370 196c-172 -141.333 -355.666 -212 -550.999 -212c-209.333 0 -373.5 72.167 -492.5 216.5s-160.833 317.5 -125.5 519.5c35.333 200 138 372.667 308 518s359.667 218 569 218c194.667 0 360 -74 496 -222l-146 -112c-111.333 116.667 -237.333 175 -378 175
c-153.333 0 -295.666 -55.833 -426.999 -167.5s-211.333 -248.167 -240 -409.5c-28.667 -162.667 3.16602 -299.667 95.499 -411s215.166 -167 368.499 -167c131.333 0 249 36.667 353 110l77 438h180zM1111.5 1770c18.333 -21.333 25.166 -45.666 20.499 -72.999
c-4.66699 -26.667 -20 -50.667 -46 -72s-56 -32 -90 -32s-60 10.667 -78 32s-24.667 45.333 -20 72c4.66699 27.333 19.834 51.666 45.501 72.999s55.5 32 89.5 32s60.167 -10.667 78.5 -32z" />
    <glyph glyph-name="gdotaccent" unicode="&#x121;" horiz-adv-x="1149" 
d="M994 559c-2 64.667 -23.334 121.999 -64.001 171.999c-53.333 65.333 -124.666 98 -213.999 98c-90 0 -173.833 -33.333 -251.5 -100s-125.167 -149 -142.5 -247c-17.333 -97.333 1.16699 -179.166 55.5 -245.499s126.5 -99.5 216.5 -99.5
c89.333 0 173.666 33.667 252.999 101c54.667 46.667 94.334 102 119.001 166zM909.999 154.999c-83.333 -119.333 -198.001 -179 -344.001 -179c-144.667 0 -258.334 50.167 -341.001 150.5s-112 218.833 -88 355.5c24.667 138 95.834 256.833 213.501 356.5
s248.834 149.5 393.501 149.5c145.333 0 243.333 -60.333 294 -181l19 107h181l-121 -688c-23.333 -134 -92 -249 -206 -345c-119.333 -102 -251.666 -153 -396.999 -153s-259 49.667 -341 149c-18 23.333 -40.333 58 -67 104l184 63c18 -29.333 31 -48 39 -56
c53.333 -65.333 124.666 -98 213.999 -98c188.667 0 311 88.333 367 265zM868.498 1245c18.333 -21.333 25.166 -45.666 20.499 -72.999c-4.66699 -26.667 -20 -50.667 -46 -72s-56 -32 -90 -32s-60 10.667 -78 32s-24.667 45.333 -20 72
c4.66699 27.333 19.834 51.666 45.501 72.999s55.5 32 89.5 32s60.167 -10.667 78.5 -32z" />
    <glyph glyph-name="Gcommaaccent" unicode="&#x122;" horiz-adv-x="1431" 
d="M720 -10c-162.667 19.333 -293.665 89.667 -392.998 211c-119.333 144 -161.333 317 -126 519c35.333 200 138 372.667 308 518s359.667 218 569 218c194.667 0 360 -74 496 -222l-146 -112c-111.333 116.667 -237.333 175 -378 175
c-153.333 0 -295.666 -55.833 -426.999 -167.5s-211.333 -248.167 -240 -409.5c-28.667 -162.667 3.16602 -299.667 95.499 -411s215.166 -167 368.499 -167c131.333 0 249 36.667 353 110l77 438h180l-87 -494c-172 -141.333 -355.667 -212 -551 -212h-5l-5 -9
c38 -2.66699 65 -29.667 81 -81c6.66699 -22.667 8 -44.667 4 -66c-3.33301 -20 -11.333 -39 -24 -57c-28.667 -42.667 -73 -68.667 -133 -78c-18 -2.66699 -35.333 -4 -52 -4c-30.667 0 -57 5 -79 15c-8 4 -16.333 8.66699 -25 14l70 84c8.66699 -5.33301 19.667 -8 33 -8
c16.667 0 31.667 4 45 12s21 17.667 23 29c2 10.667 -2.33301 20 -13 28s-24.334 12 -41.001 12c-7.33301 0 -14 -0.666992 -20 -2z" />
    <glyph glyph-name="gcommaaccent" unicode="&#x123;" horiz-adv-x="1149" 
d="M994 559c-2 64.667 -23.334 121.999 -64.001 171.999c-53.333 65.333 -124.666 98 -213.999 98c-90 0 -173.833 -33.333 -251.5 -100s-125.167 -149 -142.5 -247c-17.333 -97.333 1.16699 -179.166 55.5 -245.499s126.5 -99.5 216.5 -99.5
c89.333 0 173.666 33.667 252.999 101c54.667 46.667 94.334 102 119.001 166zM909.999 154.999c-83.333 -119.333 -198.001 -179 -344.001 -179c-144.667 0 -258.334 50.167 -341.001 150.5s-112 218.833 -88 355.5c24.667 138 95.834 256.833 213.501 356.5
s248.834 149.5 393.501 149.5c145.333 0 243.333 -60.333 294 -181l19 107h181l-121 -688c-23.333 -134 -92 -249 -206 -345c-119.333 -102 -251.666 -153 -396.999 -153s-259 49.667 -341 149c-18 23.333 -40.333 58 -67 104l184 63c18 -29.333 31 -48 39 -56
c53.333 -65.333 124.666 -98 213.999 -98c188.667 0 311 88.333 367 265zM868.998 1254l5.99707 -23c18.667 -22 25.334 -48.333 20.001 -79c-5.33301 -30 -22.166 -56.667 -50.499 -80s-61.166 -35 -98.499 -35c-36.667 0 -65.167 11.667 -85.5 35s-27.833 50 -22.5 80
c3.33301 16 9 31.333 17 46l132 196h159z" />
    <glyph glyph-name="Hcircumflex" unicode="&#x124;" horiz-adv-x="1141" 
d="M388 641l-113 -641h-181l254 1439h181l-113 -641h591l113 641h181l-254 -1439h-181l113 641h-591zM1189 1560h-231l-102 87l-125 -87h-230l387 278z" />
    <glyph glyph-name="hcircumflex" unicode="&#x125;" horiz-adv-x="936" 
d="M348 1439l181 -0.000976562l-93 -525c36.667 33.333 103 50 199 50c115.333 0 202.166 -35.333 260.499 -106s79.166 -157 62.499 -259l-106 -599h-180l104 591c11.333 62 -0.5 113.5 -35.5 154.5s-79.5 61.5 -133.5 61.5c-53.333 0 -103.666 -19.333 -150.999 -58
c-27.333 -23.333 -47.666 -45.666 -60.999 -66.999l-120 -682h-181zM1071 1441h-231l-102 87l-125 -87h-230l387 278z" />
    <glyph glyph-name="Hbar" unicode="&#x126;" horiz-adv-x="1134" 
d="M1235 1090l-192 -1090h-180l113 641h-592l-113 -641h-180l192 1090h-80l28 156h80l34 193h180l-34 -193h592l34 193h180l-34 -193h80l-28 -156h-80zM463 1090l-51 -292h592l51 292h-592z" />
    <glyph glyph-name="hbar" unicode="&#x127;" horiz-adv-x="912" 
d="M300 1246l34 193h181l-34 -193h186l-28 -156h-186l-34 -194c20.667 45.333 84.667 68 192 68c114.667 0 201.167 -35.333 259.5 -106s79.5 -157 63.5 -259l-106 -599h-181l104 591c11.333 62 -0.5 113.5 -35.5 154.5s-79.167 61.5 -132.5 61.5
c-54 0 -104.333 -19.333 -151 -58c-22.667 -18.667 -38.667 -36 -48 -52l-123 -697h-181l192 1090h-96l28 156h96z" />
    <glyph glyph-name="Itilde" unicode="&#x128;" horiz-adv-x="425" 
d="M557 1439l-254 -1439h-181l254 1439h181zM432 1631c-4 -14.667 -9.33301 -40.332 -16 -76.999l-161 36c10 47.333 19.667 80 29 98c23.333 46.667 57.666 78.667 102.999 96c15.333 6.66699 32 10 50 10c39.333 0 81.333 -18.333 126 -55c8 -6.66699 14.667 -12 20 -16
c3.33301 14.667 8 39.667 14 75l163 -33c-10.667 -48 -20.667 -81 -30 -99c-23.333 -46.667 -58.333 -79.334 -105 -98.001c-16.667 -5.33301 -32.667 -8 -48 -8c-39.333 0 -81.333 18.333 -126 55c-7.33301 6.66699 -13.666 12 -18.999 16z" />
    <glyph glyph-name="itilde" unicode="&#x129;" horiz-adv-x="418" 
d="M460 914l-161 -914h-180l161 914h180zM336 1106c-4 -14.667 -9.33301 -40.332 -16 -76.999l-160 36c9.33301 47.333 18.666 80 27.999 98c23.333 46.667 57.666 78.667 102.999 96c16 6.66699 33 10 51 10c39.333 0 81 -18.333 125 -55c8 -6.66699 14.667 -12 20 -16
c3.33301 14.667 8 39.667 14 75l164 -33c-11.333 -48 -21.666 -81 -30.999 -99c-22.667 -46.667 -57.334 -79.334 -104.001 -98.001c-17.333 -5.33301 -33.666 -8 -48.999 -8c-39.333 0 -81.333 18.333 -126 55c-7.33301 6.66699 -13.666 12 -18.999 16z" />
    <glyph glyph-name="Imacron" unicode="&#x12a;" horiz-adv-x="425" 
d="M557 1439l-254 -1439h-181l254 1439h181zM210 1699h604l-25 -140h-604z" />
    <glyph glyph-name="imacron" unicode="&#x12b;" horiz-adv-x="418" 
d="M460 914l-161 -914h-180l161 914h180zM114 1174h604l-25 -140h-604z" />
    <glyph glyph-name="Ibreve" unicode="&#x12c;" horiz-adv-x="425" 
d="M557 1439l-254 -1439h-181l254 1439h181zM787 1800c-32 -67.333 -65 -115.333 -99 -144c-57.333 -50 -122 -75 -194 -75c-73.333 0 -130 25 -170 75c-24 30 -41 78 -51 144h168c9.33301 -26.667 17.333 -44 24 -52c14 -16.667 32 -25 54 -25
c20.667 0 40.667 8.66699 60 26c10 7.33301 23.667 24.333 41 51h167z" />
    <glyph glyph-name="ibreve" unicode="&#x12d;" horiz-adv-x="418" 
d="M460 914l-161 -914h-180l161 914h180zM691 1275c-32.667 -67.333 -66 -115.333 -100 -144c-57.333 -50 -122 -75 -194 -75c-73.333 0 -130 25 -170 75c-24 30 -40.667 78 -50 144h168c9.33301 -26.667 17.333 -44 24 -52c13.333 -16.667 31 -25 53 -25
c20.667 0 41 8.66699 61 26c10 7.33301 23.667 24.333 41 51h167z" />
    <glyph glyph-name="Iogonek" unicode="&#x12e;" horiz-adv-x="425" 
d="M126 0h-4l254 1439h181l-254 -1439h-26c-20 -11.333 -35.333 -21.5 -46 -30.5s-17 -19.5 -19 -31.5c-2 -11.333 0.666992 -21.5 8 -30.5s18 -13.5 32 -13.5c6.66699 0 13.334 1 20.001 3l-6 -105c-10 -1.33301 -20.667 -2 -32 -2c-46.667 0 -82.334 15 -107.001 45
s-33.667 64.333 -27 103c4 22 12.667 42.667 26 62z" />
    <glyph glyph-name="iogonek" unicode="&#x12f;" horiz-adv-x="415" 
d="M506 1174.5c20 -23.667 27.6689 -50.167 23.002 -79.5c-5.33301 -30.667 -22.333 -57.834 -51 -81.501s-61.334 -35.5 -98.001 -35.5c-38 0 -66.833 11.833 -86.5 35.5s-26.834 50.834 -21.501 81.501c4.66699 29.333 21.167 55.833 49.5 79.5s61.5 35.5 99.5 35.5
c36.667 0 65 -11.833 85 -35.5zM130.002 0h-13l161 914h180l-161 -914h-31c-6.66699 -2 -12.667 -5.33301 -18 -10c-11.333 -9.33301 -18 -20 -20 -32c-2 -11.333 0.666992 -21.5 8 -30.5s18 -13.5 32 -13.5c6.66699 0 13.334 1 20.001 3l-6 -105
c-10.667 -1.33301 -21.334 -2 -32.001 -2c-46.667 0 -82.334 15 -107.001 45s-33.667 64.333 -27 103c2.66699 14.667 7.33398 28.667 14.001 42z" />
    <glyph glyph-name="Idotaccent" unicode="&#x130;" horiz-adv-x="425" 
d="M557 1439l-254 -1439h-181l254 1439h181zM609 1770c18 -21.333 24.667 -45.666 20 -72.999c-4.66699 -26.667 -19.834 -50.667 -45.501 -72s-55.5 -32 -89.5 -32s-60.167 10.667 -78.5 32s-25.166 45.333 -20.499 72c4.66699 27.333 20 51.666 46 72.999s56 32 90 32
s60 -10.667 78 -32z" />
    <glyph glyph-name="dotlessi" unicode="&#x131;" horiz-adv-x="418" 
d="M460 914l-161 -914h-180l161 914h180z" />
    <glyph glyph-name="IJ" unicode="&#x132;" horiz-adv-x="825" 
d="M557 1439l-254 -1439h-181l254 1439h181zM713 14c-13.333 -78 -52.833 -143.833 -118.5 -197.5s-158.167 -80.5 -277.5 -80.5l27 150c64.667 0 110 10.667 136 32c28 24 46 59.333 54 106l250 1415h181z" />
    <glyph glyph-name="ij" unicode="&#x133;" horiz-adv-x="794" 
d="M458 914l-161 -914h-180l161 914h180zM506.5 1174.5c20.333 -23.667 27.835 -50.167 22.502 -79.5c-5.33301 -30.667 -22.333 -57.834 -51 -81.501s-61.334 -35.5 -98.001 -35.5c-38 0 -66.833 11.833 -86.5 35.5s-26.834 50.834 -21.501 81.501
c5.33301 29.333 22 55.833 50 79.5s61 35.5 99 35.5c36.667 0 65.167 -11.833 85.5 -35.5zM396.002 -43c70.667 8 110 35 118 81l154 876h180l-154 -874c-24.667 -138.667 -132.667 -215.667 -324 -231zM896.002 1174.5c20 -23.667 27.333 -50.167 22 -79.5
c-5.33301 -30.667 -22.166 -57.834 -50.499 -81.501s-61.166 -35.5 -98.499 -35.5s-66 11.833 -86 35.5s-27.333 50.834 -22 81.501c5.33301 29.333 22.166 55.833 50.499 79.5s61.166 35.5 98.499 35.5s66 -11.833 86 -35.5z" />
    <glyph glyph-name="Jcircumflex" unicode="&#x134;" horiz-adv-x="529" 
d="M355 14c-13.333 -78 -52.833 -145 -118.5 -201s-158.5 -84 -278.5 -84l28 157c64.667 0 109.667 10.667 135 32c28.667 24 47 59.333 55 106l250 1415h181zM889 1520h-231l-102 86l-125 -86h-230l387 277z" />
    <glyph glyph-name="jcircumflex" unicode="&#x135;" horiz-adv-x="507" 
d="M45 -43c69.333 8 108.333 34.999 117 80.999l154 876h180l-154 -874c-25.333 -143.333 -133.333 -222.666 -324 -237.999zM769 1032h-231l-102 86l-125 -86h-230l387 277z" />
    <glyph glyph-name="Kcommaaccent" unicode="&#x136;" horiz-adv-x="1102" 
d="M1128 1439l-477 -550l465 -889h-211l-387 741l-118 -135l-107 -606h-181l254 1439h181l-94 -532l465 532h210zM427 32c97.333 0 158.332 -11.332 182.999 -33.999c30 -28 41.667 -61 35 -99l-2 -10c-11.333 -42.667 -43.666 -81.334 -96.999 -116.001
c-46.667 -24 -93 -36 -139 -36c-25.333 0 -65.666 7.66699 -120.999 23l68 132c45.333 -18.667 72.666 -28 81.999 -28s18 2 26 6c6 3.33301 10.333 9 13 17l1 3c0 2.66699 -0.333008 4.66699 -1 6s-24.667 2.33301 -72 3z" />
    <glyph glyph-name="kcommaaccent" unicode="&#x137;" horiz-adv-x="744" 
d="M811 914l-292 -298l239 -616h-207l-175 472l-16 -17l-80 -455h-181l224 1269h181l-96 -541l184 186h219zM331 32c96.667 0 157.335 -11.332 182.002 -33.999c30.667 -28 42.667 -61 36 -99l-2 -10c-12 -42.667 -44.667 -81.334 -98 -116.001
c-46 -24 -92.333 -36 -139 -36c-25.333 0 -65.333 7.66699 -120 23l67 132c45.333 -18.667 72.666 -28 81.999 -28c10 0 19 2 27 6c5.33301 3.33301 9.66602 9 12.999 17l1 3c0 2.66699 -0.333008 4.66699 -1 6c-1.33301 1.33301 -25.333 2.33301 -72 3z" />
    <glyph glyph-name="kgreenlandic" unicode="&#x138;" horiz-adv-x="744" 
d="M811 914l-292 -298l239 -616h-207l-175 472l-16 -17l-80 -455h-181l161 914h181l-33 -186l184 186h219z" />
    <glyph glyph-name="Lacute" unicode="&#x139;" horiz-adv-x="862" 
d="M112 0l254 1439h181l-226 -1282h517l-28 -157h-698zM1113 1798l-355 -239h-189l250 239h294z" />
    <glyph glyph-name="lacute" unicode="&#x13a;" horiz-adv-x="401" 
d="M545 1439l-254 -1439h-181l254 1439h181zM754 1719l-355 -239h-189l250 239h294z" />
    <glyph glyph-name="Lcommaaccent" unicode="&#x13b;" horiz-adv-x="862" 
d="M112 0l254 1439h181l-226 -1282h517l-28 -157h-698zM324 -8c97.333 0 158.332 -11.332 182.999 -33.999c30 -28 41.667 -61 35 -99l-2 -10c-11.333 -42.667 -43.666 -81.334 -96.999 -116.001c-46.667 -24 -93 -36 -139 -36c-25.333 0 -65.666 7.66699 -120.999 23
l68 132c45.333 -18.667 72.666 -28 81.999 -28s18 2 26 6c6 3.33301 10.333 9 13 17l1 3c0 2.66699 -0.333008 4.66699 -1 6s-24.667 2.33301 -72 3z" />
    <glyph glyph-name="lcommaaccent" unicode="&#x13c;" horiz-adv-x="379" 
d="M539 1439l-254 -1439h-181l254 1439h181zM112 -18c96.667 0 157.335 -11.332 182.002 -33.999c31.333 -28 43.666 -61 36.999 -99l-2 -10c-12.667 -42.667 -45.667 -81.334 -99 -116.001c-46 -24 -92 -36 -138 -36c-26 0 -66.333 7.66699 -121 23l67 132
c45.333 -18.667 72.666 -28 81.999 -28c10 0 19 2 27 6c5.33301 3.33301 9.66602 9 12.999 17l1 3c0.666992 2.66699 0.333984 4.66699 -0.999023 6s-25 2.33301 -71 3z" />
    <glyph glyph-name="Lcaron" unicode="&#x13d;" horiz-adv-x="862" 
d="M112 0l254 1439h181l-226 -1282h517l-28 -157h-698zM774 1231l-5.99707 23c-18.667 22 -25.334 48.333 -20.001 79c5.33301 30 22.166 56.667 50.499 80s61.166 35 98.499 35c36.667 0 65.167 -11.667 85.5 -35s27.833 -50 22.5 -80c-2.66699 -16 -8 -31.333 -16 -46
l-133 -196h-159z" />
    <glyph glyph-name="lcaron" unicode="&#x13e;" horiz-adv-x="636" 
d="M547 1439l-254 -1439h-181l254 1439h181zM634 1231l-5.99707 23c-18.667 22 -25.334 48.333 -20.001 79c5.33301 30 22.166 56.667 50.499 80s61.166 35 98.499 35c36.667 0 65.167 -11.667 85.5 -35s27.833 -50 22.5 -80c-2.66699 -16 -8 -31.333 -16 -46l-133 -196
h-159z" />
    <glyph glyph-name="Ldot" unicode="&#x13f;" horiz-adv-x="862" 
d="M112 0l254 1439h181l-226 -1282h517l-28 -157h-698zM878.5 792c18.333 -21.333 25.166 -45.333 20.499 -72c-4.66699 -27.333 -20 -51.666 -46 -72.999s-55.667 -32 -89 -32c-34.667 0 -61 10.667 -79 32s-24.667 45.666 -20 72.999
c4.66699 26.667 19.834 50.667 45.501 72s55.834 32 90.501 32c33.333 0 59.166 -10.667 77.499 -32z" />
    <glyph glyph-name="ldot" unicode="&#x140;" horiz-adv-x="618" 
d="M534 1439l-254 -1439h-181l254 1439h181zM712 792c18 -21.333 24.667 -45.333 20 -72c-4.66699 -27.333 -19.834 -51.666 -45.501 -72.999s-55.5 -32 -89.5 -32s-60 10.667 -78 32s-24.667 45.666 -20 72.999c4.66699 26.667 19.834 50.667 45.501 72s55.5 32 89.5 32
s60 -10.667 78 -32z" />
    <glyph glyph-name="Lslash" unicode="&#x141;" horiz-adv-x="942" 
d="M518 809l442 315l-37 -206l-441 -315l-79 -446h517l-28 -157h-698l81 455l-222 -157l36 205l222 158l137 778h181z" />
    <glyph glyph-name="lslash" unicode="&#x142;" horiz-adv-x="465" 
d="M273 740l123 699h181l-97 -552l163 117l-37 -206l-162 -117l-121 -681h-181l95 534l-163 -117l36 206z" />
    <glyph glyph-name="Nacute" unicode="&#x143;" horiz-adv-x="1398" 
d="M542 1439l617 -1150l203 1150h181l-254 -1439h-200l-601 1121l-198 -1121h-181l254 1439h179zM1351 1798l-355 -239h-189l250 239h294z" />
    <glyph glyph-name="nacute" unicode="&#x144;" 
d="M400 682l-120 -682.001h-181l161 914h181c36.667 33.333 103 50 199 50c115.333 0 202.166 -35.333 260.499 -106s79.166 -157 62.499 -259l-106 -599h-180l104 591c11.333 62 -0.5 113.5 -35.5 154.5s-79.5 61.5 -133.5 61.5c-53.333 0 -103.666 -19.333 -150.999 -58
c-27.333 -23.333 -47.666 -45.666 -60.999 -66.999zM1036 1273l-355 -239h-189l250 239h294z" />
    <glyph glyph-name="Ncommaaccent" unicode="&#x145;" horiz-adv-x="1398" 
d="M542 1439l617 -1150l203 1150h181l-254 -1439h-200l-601 1121l-198 -1121h-181l254 1439h179zM594 32c96.667 0 157.667 -11.332 183 -33.999c30 -28 41.667 -61 35 -99l-2 -10c-11.333 -42.667 -43.666 -81.334 -96.999 -116.001c-46.667 -24 -93 -36 -139 -36
c-25.333 0 -65.666 7.66699 -120.999 23l68 132c45.333 -18.667 72.666 -28 81.999 -28s18 2 26 6c5.33301 3.33301 9.66602 9 12.999 17l1 3c0 2.66699 -0.333008 4.66699 -1 6s-24.667 2.33301 -72 3z" />
    <glyph glyph-name="ncommaaccent" unicode="&#x146;" 
d="M400 682l-120 -682.001h-181l161 914h181c36.667 33.333 103 50 199 50c115.333 0 202.166 -35.333 260.499 -106s79.166 -157 62.499 -259l-106 -599h-180l104 591c11.333 62 -0.5 113.5 -35.5 154.5s-79.5 61.5 -133.5 61.5c-53.333 0 -103.666 -19.333 -150.999 -58
c-27.333 -23.333 -47.666 -45.666 -60.999 -66.999zM409 31.999c97.333 0 158.332 -11.332 182.999 -33.999c30 -28 41.667 -61 35 -99l-2 -10c-11.333 -42.667 -43.666 -81.334 -96.999 -116.001c-46.667 -24 -93 -36 -139 -36c-25.333 0 -65.666 7.66699 -120.999 23
l68 132c45.333 -18.667 72.666 -28 81.999 -28s18 2 26 6c6 3.33301 10.333 9 13 17l1 3c0 2.66699 -0.333008 4.66699 -1 6s-24.667 2.33301 -72 3z" />
    <glyph glyph-name="Ncaron" unicode="&#x147;" horiz-adv-x="1398" 
d="M542 1439l617 -1150l203 1150h181l-254 -1439h-200l-601 1121l-198 -1121h-181l254 1439h179zM960 1514l-289 277h230l95 -86l132 86h231z" />
    <glyph glyph-name="ncaron" unicode="&#x148;" 
d="M400 682l-120 -682.001h-181l161 914h181c36.667 33.333 103 50 199 50c115.333 0 202.166 -35.333 260.499 -106s79.166 -157 62.499 -259l-106 -599h-180l104 591c11.333 62 -0.5 113.5 -35.5 154.5s-79.5 61.5 -133.5 61.5c-53.333 0 -103.666 -19.333 -150.999 -58
c-27.333 -23.333 -47.666 -45.666 -60.999 -66.999zM646 988.999l-289 277h230l95 -86l132 86h231z" />
    <glyph glyph-name="napostrophe" unicode="&#x149;" horiz-adv-x="1168" 
d="M612 682l-120 -682.001h-181l161 914h181c36.667 33.333 102.667 50 198 50c115.333 0 202 -35.333 260 -106s79 -157 63 -259l-105 -599h-180l104 591c10.667 62 -1.5 113.5 -36.5 154.5s-79.5 61.5 -133.5 61.5c-53.333 0 -103.333 -19.333 -150 -58
c-28 -23.333 -48.333 -45.666 -61 -66.999zM281 1231l-5.99805 23c-18.667 22 -25.334 48.333 -20.001 79c5.33301 30 22.166 56.667 50.499 80s61.166 35 98.499 35c36.667 0 65.167 -11.667 85.5 -35s27.833 -50 22.5 -80c-3.33301 -16 -8.66602 -31.333 -15.999 -46
l-133 -196h-159z" />
    <glyph glyph-name="Eng" unicode="&#x14a;" horiz-adv-x="1229" 
d="M959 111l-487.999 913l-181 -1024h-181l278 1576l624 -1166l182 1029h181l-255 -1447c-14 -78 -53.833 -145 -119.5 -201s-158.5 -84 -278.5 -84l28 157c65.333 0 110.666 10.667 135.999 32c28 24 46 59.333 54 106z" />
    <glyph glyph-name="eng" unicode="&#x14b;" horiz-adv-x="962" 
d="M784 591c11.333 62 -0.499023 113.499 -35.499 154.499s-79.5 61.5 -133.5 61.5c-53.333 0 -103.666 -19.333 -150.999 -58c-27.333 -23.333 -47.666 -45.666 -60.999 -66.999l-120 -682h-181l161 914h181c23.333 33.333 89.666 50 198.999 50
c115.333 0 202.166 -35.333 260.499 -106s79.166 -157 62.499 -259l-71 -403h1l-36 -204c-14 -78 -53.833 -145 -119.5 -201s-158.5 -84 -278.5 -84l28 157c64.667 0 110 10.667 136 32c28 24 46 59.333 54 106z" />
    <glyph glyph-name="Omacron" unicode="&#x14c;" horiz-adv-x="1621" 
d="M1560.5 1241c119.667 -145.333 161.5 -318.333 125.5 -519c-35.333 -202 -138.333 -375.5 -309 -520.5s-360.667 -217.5 -570 -217.5c-208.667 0 -372.667 72.5 -492 217.5s-161.333 318.5 -126 520.5c36 200.667 139.167 373.667 309.5 519s359.833 218 568.5 218
c209.333 0 373.833 -72.667 493.5 -218zM1040 1301c-153.333 0 -295.999 -56.167 -427.999 -168.5s-212.333 -249.166 -241 -410.499c-28.667 -162.667 3.16602 -300 95.499 -412s215.166 -168 368.499 -168c154 0 296.833 56 428.5 168s211.834 249.333 240.501 412
c28.667 161.333 -3 298.166 -95 410.499s-215 168.5 -369 168.5zM808.001 1699h604l-25 -140h-604z" />
    <glyph glyph-name="omacron" unicode="&#x14d;" horiz-adv-x="1179" 
d="M765 989c146 0 259.834 -50 341.501 -150s110.167 -219 85.5 -357c-24 -136.667 -94.5 -255.167 -211.5 -355.5s-248.5 -150.5 -394.5 -150.5c-144.667 0 -258.334 50.167 -341.001 150.5s-112 218.833 -88 355.5c24.667 138 96 257 214 357s249.333 150 394 150z
M484.501 729c-77.667 -66.667 -125.166 -149 -142.499 -247c-17.333 -97.333 1.16699 -179 55.5 -245s126.5 -99 216.5 -99c89.333 0 173 33 251 99s125.667 147.667 143 245c17.333 98 -1.33398 180.333 -56.001 247s-126.667 100 -216 100
c-90 0 -173.833 -33.333 -251.5 -100zM495.002 1174h604l-25 -140h-604z" />
    <glyph glyph-name="Obreve" unicode="&#x14e;" horiz-adv-x="1621" 
d="M1560.5 1241c119.667 -145.333 161.5 -318.333 125.5 -519c-35.333 -202 -138.333 -375.5 -309 -520.5s-360.667 -217.5 -570 -217.5c-208.667 0 -372.667 72.5 -492 217.5s-161.333 318.5 -126 520.5c36 200.667 139.167 373.667 309.5 519s359.833 218 568.5 218
c209.333 0 373.833 -72.667 493.5 -218zM1040 1301c-153.333 0 -295.999 -56.167 -427.999 -168.5s-212.333 -249.166 -241 -410.499c-28.667 -162.667 3.16602 -300 95.499 -412s215.166 -168 368.499 -168c154 0 296.833 56 428.5 168s211.834 249.333 240.501 412
c28.667 161.333 -3 298.166 -95 410.499s-215 168.5 -369 168.5zM1386 1800c-32.667 -67.333 -66.001 -115.333 -100.001 -144c-57.333 -50 -122 -75 -194 -75c-73.333 0 -130 25 -170 75c-24 30 -40.667 78 -50 144h168c8.66699 -26.667 16.334 -44 23.001 -52
c14 -16.667 32 -25 54 -25c20.667 0 41 8.66699 61 26c9.33301 7.33301 23 24.333 41 51h167z" />
    <glyph glyph-name="obreve" unicode="&#x14f;" horiz-adv-x="1179" 
d="M765 989c146 0 259.834 -50 341.501 -150s110.167 -219 85.5 -357c-24 -136.667 -94.5 -255.167 -211.5 -355.5s-248.5 -150.5 -394.5 -150.5c-144.667 0 -258.334 50.167 -341.001 150.5s-112 218.833 -88 355.5c24.667 138 96 257 214 357s249.333 150 394 150z
M484.501 729c-77.667 -66.667 -125.166 -149 -142.499 -247c-17.333 -97.333 1.16699 -179 55.5 -245s126.5 -99 216.5 -99c89.333 0 173 33 251 99s125.667 147.667 143 245c17.333 98 -1.33398 180.333 -56.001 247s-126.667 100 -216 100
c-90 0 -173.833 -33.333 -251.5 -100zM1072 1275c-32.667 -67.333 -65.668 -115.333 -99.001 -144c-58 -50 -123 -75 -195 -75c-73.333 0 -129.666 25 -168.999 75c-24 30 -41 78 -51 144h168c9.33301 -26.667 17.333 -44 24 -52c13.333 -16.667 31 -25 53 -25
c20.667 0 41 8.66699 61 26c10 7.33301 23.667 24.333 41 51h167z" />
    <glyph glyph-name="Ohungarumlaut" unicode="&#x150;" horiz-adv-x="1621" 
d="M1560.5 1241c119.667 -145.333 161.5 -318.333 125.5 -519c-35.333 -202 -138.333 -375.5 -309 -520.5s-360.667 -217.5 -570 -217.5c-208.667 0 -372.667 72.5 -492 217.5s-161.333 318.5 -126 520.5c36 200.667 139.167 373.667 309.5 519s359.833 218 568.5 218
c209.333 0 373.833 -72.667 493.5 -218zM1040 1301c-153.333 0 -295.999 -56.167 -427.999 -168.5s-212.333 -249.166 -241 -410.499c-28.667 -162.667 3.16602 -300 95.499 -412s215.166 -168 368.499 -168c154 0 296.833 56 428.5 168s211.834 249.333 240.501 412
c28.667 161.333 -3 298.166 -95 410.499s-215 168.5 -369 168.5zM1226 1791l-355 -238h-189l250 238h294zM1530 1791l-354 -238h-190l250 238h294z" />
    <glyph glyph-name="ohungarumlaut" unicode="&#x151;" horiz-adv-x="1179" 
d="M765 989c146 0 259.834 -50 341.501 -150s110.167 -219 85.5 -357c-24 -136.667 -94.5 -255.167 -211.5 -355.5s-248.5 -150.5 -394.5 -150.5c-144.667 0 -258.334 50.167 -341.001 150.5s-112 218.833 -88 355.5c24.667 138 96 257 214 357s249.333 150 394 150z
M484.501 729c-77.667 -66.667 -125.166 -149 -142.499 -247c-17.333 -97.333 1.16699 -179 55.5 -245s126.5 -99 216.5 -99c89.333 0 173 33 251 99s125.667 147.667 143 245c17.333 98 -1.33398 180.333 -56.001 247s-126.667 100 -216 100
c-90 0 -173.833 -33.333 -251.5 -100zM912.002 1266l-355 -238h-189l250 238h294zM1216 1266l-354 -238h-190l250 238h294z" />
    <glyph glyph-name="OE" unicode="&#x152;" horiz-adv-x="2044" 
d="M1568 1282l20.999 -43c110.667 -135.333 155.334 -282.333 134.001 -441h374l-28 -157h-374c-36 -158 -134 -305 -294 -441l-33 -43h616l-28 -157h-895c-70.667 -10.667 -146.667 -16 -228 -16c-208.667 0 -372.667 72.5 -492 217.5s-161.333 318.5 -126 520.5
c36 200.667 139.167 373.667 309.5 519s359.833 218 568.5 218c82 0 156.333 -6.66699 223 -20h894l-28 -157h-614zM1536 757c17.333 146.667 -16.999 272.999 -102.999 378.999c-33.333 40 -70.666 72.667 -111.999 98c-20.667 12 -42.334 22.667 -65.001 32
c-55.333 23.333 -118.666 35 -189.999 35c-153.333 0 -296 -56.167 -428 -168.5s-212.333 -249.166 -241 -410.499c-28.667 -162.667 3.16602 -300 95.499 -412s215.166 -168 368.499 -168c71.333 0 139.333 11 204 33c24.667 9.33301 49.667 20 75 32
c49.333 26 100 60.667 152 104c120 102 197 226 231 372c2.66699 12 5 25 7 39z" />
    <glyph glyph-name="oe" unicode="&#x153;" horiz-adv-x="1862" 
d="M336 482c-17.333 -97.333 1.16797 -179 55.501 -245s126.5 -99 216.5 -99c89.333 0 173 33 251 99s125.667 147.667 143 245c17.333 98 -1.33398 180.333 -56.001 247s-126.667 100 -216 100c-90 0 -173.833 -33.333 -251.5 -100s-125.167 -149 -142.5 -247zM1177 699
c8 -22 12.667 -40.667 14 -56h535c-2.66699 20.667 -18.667 48.667 -48 84c-56 68 -128.667 102 -218 102s-172 -32.667 -248 -98c-18 -15.333 -29.667 -26 -35 -32zM1101 266c3.33301 -5.33301 9.66699 -14.333 19 -27c56 -67.333 128.667 -101 218 -101
s174 33.667 254 101c10.667 9.33301 32.334 30.333 65.001 63l158 -60c-32.667 -42.667 -70 -81.667 -112 -117c-116.667 -99.333 -247.667 -149 -393 -149s-259 47.667 -341 143c-113.333 -95.333 -243 -143 -389 -143c-144.667 0 -258.334 50.167 -341.001 150.5
s-112 218.833 -88 355.5c24.667 138 96 257 214 357s249.333 150 394 150c146 0 258.333 -49.333 337 -148c116.667 98.667 247.667 148 393 148s260 -50.667 344 -152c71.333 -88 96.333 -205.333 75 -352l-719 1v9c-0.666992 0 -1.66699 -4.33301 -3 -13
c-14.667 -84.667 -43 -156.667 -85 -216z" />
    <glyph glyph-name="Racute" unicode="&#x154;" horiz-adv-x="1041" 
d="M519 1281l-115.001 -651.999h178c84 0 162.833 31.167 236.5 93.5s118.834 140.166 135.501 233.499c16 92.667 -1.83301 170 -53.5 232s-119.5 93 -203.5 93h-178zM544.999 471.001h-169l-83 -471h-181l254 1439h412c117.333 -16 209 -64.667 275 -146
c77.333 -94 104.666 -206.333 81.999 -337c-23.333 -131.333 -92 -245.333 -206 -342c-75.333 -64.667 -138.666 -103 -189.999 -115l235 -499h-209zM1195 1798l-355 -239h-189l250 239h294z" />
    <glyph glyph-name="racute" unicode="&#x155;" horiz-adv-x="570" 
d="M655 778c-84.667 -12.667 -154.332 -45.5 -208.999 -98.5s-89 -119.5 -103 -199.5l-85 -480h-181l161 914h181l-23 -130c39.333 71.333 105.666 121 198.999 149zM856.002 1273l-355 -239h-189l250 239h294z" />
    <glyph glyph-name="Rcommaaccent" unicode="&#x156;" horiz-adv-x="1041" 
d="M519 1281l-115.001 -651.999h178c84 0 162.833 31.167 236.5 93.5s118.834 140.166 135.501 233.499c16 92.667 -1.83301 170 -53.5 232s-119.5 93 -203.5 93h-178zM546.999 469.001l-171 2l-83 -471h-181l254 1439h412c117.333 -16 209 -64.667 275 -146
c77.333 -94 104.666 -206.333 81.999 -337c-23.333 -131.333 -92 -245.333 -206 -342c-75.333 -64.667 -138.666 -103 -189.999 -115l235 -499h-209zM401.999 32.001c97.333 0 158.332 -11.332 182.999 -33.999c30 -28 41.667 -61 35 -99l-2 -10
c-11.333 -42.667 -43.666 -81.334 -96.999 -116.001c-46.667 -24 -93 -36 -139 -36c-25.333 0 -65.666 7.66699 -120.999 23l68 132c45.333 -18.667 72.666 -28 81.999 -28s18 2 26 6c6 3.33301 10.333 9 13 17l1 3c0 2.66699 -0.333008 4.66699 -1 6s-24.667 2.33301 -72 3
z" />
    <glyph glyph-name="rcommaaccent" unicode="&#x157;" horiz-adv-x="570" 
d="M655 778c-84.667 -12.667 -154.332 -45.5 -208.999 -98.5s-89.334 -119.5 -104.001 -199.5l-84 -480h-181l161 914h181l-23 -130c39.333 71.333 105.333 121 198 149zM163.002 -16c96.667 0 157.668 -11.332 183.001 -33.999c30.667 -28 42.667 -61 36 -99l-2 -10
c-12 -42.667 -44.667 -81.334 -98 -116.001c-46.667 -24 -93 -36 -139 -36c-25.333 0 -65.666 7.66699 -120.999 23l68 132c45.333 -18.667 72.666 -28 81.999 -28s18 2 26 6c5.33301 3.33301 9.66602 9 12.999 17l1 3c0.666992 2.66699 0.333984 4.66699 -0.999023 6
c-0.666992 1.33301 -24.334 2.33301 -71.001 3z" />
    <glyph glyph-name="Rcaron" unicode="&#x158;" horiz-adv-x="1041" 
d="M519 1281l-115.001 -651.999h178c84 0 162.833 31.167 236.5 93.5s118.834 140.166 135.501 233.499c16 92.667 -1.83301 170 -53.5 232s-119.5 93 -203.5 93h-178zM544.999 471.001h-169l-83 -471h-181l254 1439h412c117.333 -16 209 -64.667 275 -146
c77.333 -94 104.666 -206.333 81.999 -337c-23.333 -131.333 -92 -245.333 -206 -342c-75.333 -64.667 -138.666 -103 -189.999 -115l235 -499h-209zM803.999 1514l-289 277h230l95 -86l132 86h231z" />
    <glyph glyph-name="rcaron" unicode="&#x159;" horiz-adv-x="570" 
d="M655 778c-84.667 -12.667 -154.332 -45.5 -208.999 -98.5s-89 -119.5 -103 -199.5l-85 -480h-181l161 914h181l-23 -130c39.333 71.333 105.666 121 198.999 149zM465.002 989l-289 277h230l95 -86l132 86h231z" />
    <glyph glyph-name="Sacute" unicode="&#x15a;" horiz-adv-x="1017" 
d="M644 757c-97.333 34 -171.834 82.3311 -223.501 144.998s-69.5 138.334 -53.5 227.001c15.333 86.667 61.333 162.834 138 228.501s163.334 98.5 260.001 98.5c95.333 0 171 -33.667 227 -101c29.333 -34.667 48.333 -83.334 57 -146.001l-173 -63
c-10.667 54 -22.667 89 -36 105c-26.667 33.333 -61 50 -103 50c-41.333 0 -81 -16.167 -119 -48.5s-61.333 -73.5 -70 -123.5c-8.66699 -49.333 0.666016 -91.333 27.999 -126c28.667 -33.333 70.334 -64 125.001 -92c108.667 -37.333 194.667 -94.666 258 -171.999
c73.333 -88 99.333 -192 78 -312s-83.5 -223.833 -186.5 -311.5s-218.167 -131.5 -345.5 -131.5c-128 0 -228.333 45 -301 135c-57.333 68.667 -84.333 157.667 -81 267l185 63c-8 -104.667 8.33301 -181 49 -229c44 -53.333 102.667 -80 176 -80
c74 0 143.333 27.5 208 82.5s104 123.167 118 204.5c14.667 81.333 -0.333008 149 -45 203c-45.333 54 -102 96.333 -170 127zM1160 1798l-355 -239h-189l250 239h294z" />
    <glyph glyph-name="sacute" unicode="&#x15b;" horiz-adv-x="727" 
d="M414 456c-61.333 37.333 -102.333 68.666 -123 93.999c-40.667 49.333 -55.334 106 -44.001 170c11.333 63.333 45.166 119.333 101.499 168s120.5 73 192.5 73s126 -22.333 162 -67c37.333 -45.333 51.333 -95 42 -149l-5 -28l-173 -66
c3.33301 75.333 -0.333984 119.666 -11.001 132.999s-24.667 20 -42 20s-35 -7.66699 -53 -23s-29.333 -35.666 -34 -60.999s0.333008 -46.666 15 -63.999c8.66699 -12 31.334 -31 68.001 -57c68.667 -41.333 117.334 -79 146.001 -113c44.667 -56 60.334 -122 47.001 -198
c-14 -78 -54.333 -145.667 -121 -203s-142.667 -86 -228 -86s-151.5 28.667 -198.5 86s-62.833 129 -47.5 215l188 45c-14 -77.333 -10.833 -128.333 9.5 -153s45.5 -37 75.5 -37s59.667 12.333 89 37s47.666 56.667 54.999 96c6.66699 38 -1 70 -23 96
c-13.333 15.333 -42.666 39.333 -87.999 72zM912 1273l-355 -239h-189l250 239h294z" />
    <glyph glyph-name="Scircumflex" unicode="&#x15c;" horiz-adv-x="1017" 
d="M644 757c-97.333 34 -171.834 82.3311 -223.501 144.998s-69.5 138.334 -53.5 227.001c15.333 86.667 61.333 162.834 138 228.501s163.334 98.5 260.001 98.5c95.333 0 171 -33.667 227 -101c29.333 -34.667 48.333 -83.334 57 -146.001l-173 -63
c-10.667 54 -22.667 89 -36 105c-26.667 33.333 -61 50 -103 50c-41.333 0 -81 -16.167 -119 -48.5s-61.333 -73.5 -70 -123.5c-8.66699 -49.333 0.666016 -91.333 27.999 -126c28.667 -33.333 70.334 -64 125.001 -92c108.667 -37.333 194.667 -94.666 258 -171.999
c73.333 -88 99.333 -192 78 -312s-83.5 -223.833 -186.5 -311.5s-218.167 -131.5 -345.5 -131.5c-128 0 -228.333 45 -301 135c-57.333 68.667 -84.333 157.667 -81 267l185 63c-8 -104.667 8.33301 -181 49 -229c44 -53.333 102.667 -80 176 -80
c74 0 143.333 27.5 208 82.5s104 123.167 118 204.5c14.667 81.333 -0.333008 149 -45 203c-45.333 54 -102 96.333 -170 127zM1127 1560h-231l-102 87l-125 -87h-230l387 278z" />
    <glyph glyph-name="scircumflex" unicode="&#x15d;" horiz-adv-x="727" 
d="M414 456c-61.333 37.333 -102.333 68.666 -123 93.999c-40.667 49.333 -55.334 106 -44.001 170c11.333 63.333 45.166 119.333 101.499 168s120.5 73 192.5 73s126 -22.333 162 -67c37.333 -45.333 51.333 -95 42 -149l-5 -28l-173 -66
c3.33301 75.333 -0.333984 119.666 -11.001 132.999s-24.667 20 -42 20s-35 -7.66699 -53 -23s-29.333 -35.666 -34 -60.999s0.333008 -46.666 15 -63.999c8.66699 -12 31.334 -31 68.001 -57c68.667 -41.333 117.334 -79 146.001 -113c44.667 -56 60.334 -122 47.001 -198
c-14 -78 -54.333 -145.667 -121 -203s-142.667 -86 -228 -86s-151.5 28.667 -198.5 86s-62.833 129 -47.5 215l188 45c-14 -77.333 -10.833 -128.333 9.5 -153s45.5 -37 75.5 -37s59.667 12.333 89 37s47.666 56.667 54.999 96c6.66699 38 -1 70 -23 96
c-13.333 15.333 -42.666 39.333 -87.999 72zM880 1035h-231l-101 87l-126 -87h-230l387 278z" />
    <glyph glyph-name="Scedilla" unicode="&#x15e;" horiz-adv-x="1017" 
d="M450 -13c-102 11.333 -183.999 55.332 -245.999 131.999c-57.333 68.667 -84.333 157.667 -81 267l185 63c-8 -104.667 8.33301 -181 49 -229c44 -53.333 102.667 -80 176 -80c74 0 143.333 27.5 208 82.5s104 123.167 118 204.5c14.667 81.333 -0.333008 149 -45 203
c-45.333 54 -102 96.333 -170 127c-97.333 34 -171.833 82.333 -223.5 145s-69.5 138.334 -53.5 227.001c15.333 86.667 61.333 162.834 138 228.501s163.334 98.5 260.001 98.5c95.333 0 171 -33.667 227 -101c29.333 -34.667 48.333 -83.334 57 -146.001l-173 -63
c-10.667 54 -22.667 89 -36 105c-26.667 33.333 -61 50 -103 50c-41.333 0 -81 -16.167 -119 -48.5s-61.333 -73.5 -70 -123.5c-8.66699 -49.333 0.666016 -91.333 27.999 -126c28.667 -33.333 70.334 -64 125.001 -92c108.667 -37.333 194.667 -94.666 258 -171.999
c73.333 -88 99.333 -192 78 -312s-83.333 -223.667 -186 -311c-92 -78.667 -194 -122.334 -306 -131.001l-6 -10c38.667 -2.66699 65.667 -29.667 81 -81c6.66699 -22.667 8.33398 -44.667 5.00098 -66c-4 -20 -12.333 -39 -25 -57
c-28.667 -42.667 -72.667 -68.667 -132 -78c-18.667 -2.66699 -36.334 -4 -53.001 -4c-30.667 0 -56.667 5 -78 15c-8 4 -16.667 8.66699 -26 14l70 84c9.33301 -5.33301 20.666 -8 33.999 -8c16.667 0 31.667 4 45 12s21 17.667 23 29c2 10.667 -2.33301 20 -13 28
s-24.334 12 -41.001 12c-7.33301 0 -14.333 -0.666992 -21 -2z" />
    <glyph glyph-name="scedilla" unicode="&#x15f;" horiz-adv-x="727" 
d="M300 3c-60 10 -107.998 37.334 -143.998 82.001c-47.333 57.333 -63.333 129 -48 215l188 45c-14 -77.333 -10.833 -128.333 9.5 -153s45.5 -37 75.5 -37s59.667 12.333 89 37s47.666 56.667 54.999 96c6.66699 38 -1 70 -23 96
c-13.333 15.333 -42.666 39.333 -87.999 72c-61.333 37.333 -102.333 68.666 -123 93.999c-40.667 49.333 -55.334 106 -44.001 170c11.333 63.333 45.166 119.333 101.499 168s120.5 73 192.5 73s126 -22.333 162 -67c37.333 -45.333 51.333 -95 42 -149l-5 -28l-173 -66
c3.33301 75.333 -0.333984 119.666 -11.001 132.999s-24.667 20 -42 20s-35 -7.66699 -53 -23s-29.333 -35.666 -34 -60.999s0.333008 -46.666 15 -63.999c8.66699 -12 31.334 -31 68.001 -57c68.667 -41.333 117.334 -79 146.001 -113c44.667 -56 60.334 -122 47.001 -198
c-14 -78 -54.333 -145.667 -121 -203c-54.667 -46.667 -115.334 -74.334 -182.001 -83.001l-15 -27c38.667 -2.66699 65.667 -29.667 81 -81c6.66699 -22.667 8.33398 -44.667 5.00098 -66c-4 -20 -12.333 -39 -25 -57c-28.667 -42.667 -72.667 -68.667 -132 -78
c-18.667 -2.66699 -36.334 -4 -53.001 -4c-30.667 0 -56.667 5 -78 15c-8 4 -16.667 8.66699 -26 14l69 84c10 -5.33301 21.667 -8 35 -8c16.667 0 31.667 4 45 12s21 17.667 23 29c2 10.667 -2.33301 20 -13 28s-24.334 12 -41.001 12c-7.33301 0 -14.333 -0.666992 -21 -2
z" />
    <glyph glyph-name="Scaron" unicode="&#x160;" horiz-adv-x="1017" 
d="M644 757c-97.333 34 -171.834 82.3311 -223.501 144.998s-69.5 138.334 -53.5 227.001c15.333 86.667 61.333 162.834 138 228.501s163.334 98.5 260.001 98.5c95.333 0 171 -33.667 227 -101c29.333 -34.667 48.333 -83.334 57 -146.001l-173 -63
c-10.667 54 -22.667 89 -36 105c-26.667 33.333 -61 50 -103 50c-41.333 0 -81 -16.167 -119 -48.5s-61.333 -73.5 -70 -123.5c-8.66699 -49.333 0.666016 -91.333 27.999 -126c28.667 -33.333 70.334 -64 125.001 -92c108.667 -37.333 194.667 -94.666 258 -171.999
c73.333 -88 99.333 -192 78 -312s-83.5 -223.833 -186.5 -311.5s-218.167 -131.5 -345.5 -131.5c-128 0 -228.333 45 -301 135c-57.333 68.667 -84.333 157.667 -81 267l185 63c-8 -104.667 8.33301 -181 49 -229c44 -53.333 102.667 -80 176 -80
c74 0 143.333 27.5 208 82.5s104 123.167 118 204.5c14.667 81.333 -0.333008 149 -45 203c-45.333 54 -102 96.333 -170 127zM768.999 1514l-289 277h230l94 -86l133 86h231z" />
    <glyph glyph-name="scaron" unicode="&#x161;" horiz-adv-x="727" 
d="M414 456c-61.333 37.333 -102.333 68.666 -123 93.999c-40.667 49.333 -55.334 106 -44.001 170c11.333 63.333 45.166 119.333 101.499 168s120.5 73 192.5 73s126 -22.333 162 -67c37.333 -45.333 51.333 -95 42 -149l-5 -28l-173 -66
c3.33301 75.333 -0.333984 119.666 -11.001 132.999s-24.667 20 -42 20s-35 -7.66699 -53 -23s-29.333 -35.666 -34 -60.999s0.333008 -46.666 15 -63.999c8.66699 -12 31.334 -31 68.001 -57c68.667 -41.333 117.334 -79 146.001 -113c44.667 -56 60.334 -122 47.001 -198
c-14 -78 -54.333 -145.667 -121 -203s-142.667 -86 -228 -86s-151.5 28.667 -198.5 86s-62.833 129 -47.5 215l188 45c-14 -77.333 -10.833 -128.333 9.5 -153s45.5 -37 75.5 -37s59.667 12.333 89 37s47.666 56.667 54.999 96c6.66699 38 -1 70 -23 96
c-13.333 15.333 -42.666 39.333 -87.999 72zM522 989l-289 277h230l95 -86l132 86h231z" />
    <glyph glyph-name="Tcommaaccent" unicode="&#x162;" horiz-adv-x="931" 
d="M782 1282l-226 -1282h-180l226 1282h-344l28 157h867l-28 -157h-343zM390 -18c96.667 0 157.334 -11.332 182.001 -33.999c31.333 -28 43.666 -61 36.999 -99l-2 -10c-12 -42.667 -44.667 -81.334 -98 -116.001c-46.667 -24 -93 -36 -139 -36
c-25.333 0 -65.666 7.66699 -120.999 23l68 132c45.333 -18.667 72.666 -28 81.999 -28s18 2 26 6c5.33301 3.33301 9.66602 9 12.999 17l1 3c0.666992 2.66699 0.333984 4.66699 -0.999023 6s-25 2.33301 -71 3z" />
    <glyph glyph-name="tcommaaccent" unicode="&#x163;" horiz-adv-x="584" 
d="M363 914l63 355h180l-63 -355h170l-27 -156h-170l-134 -758h-180l134 758h-170l27 156h170zM198 -18c96.667 0 157.334 -11.332 182.001 -33.999c31.333 -28 43.666 -61 36.999 -99l-2 -10c-12 -42.667 -44.667 -81.334 -98 -116.001c-46.667 -24 -93 -36 -139 -36
c-25.333 0 -65.666 7.66699 -120.999 23l68 132c45.333 -18.667 72.666 -28 81.999 -28s18 2 26 6c5.33301 3.33301 9.66602 9 12.999 17l1 3c0.666992 2.66699 0.333984 4.66699 -0.999023 6s-25 2.33301 -71 3z" />
    <glyph glyph-name="Tcaron" unicode="&#x164;" horiz-adv-x="931" 
d="M782 1282l-226 -1282h-180l226 1282h-344l28 157h867l-28 -157h-343zM726 1514l-289 277h230l95 -86l132 86h231z" />
    <glyph glyph-name="tcaron" unicode="&#x165;" horiz-adv-x="708" 
d="M364 914l62 355h180l-62 -355h170l-28 -156h-170l-134 -758h-180l134 758h-170l28 156h170zM696 1203l-4.99902 22.999c-19.333 22 -26.333 48.333 -21 79c5.33301 30 22.333 56.667 51 80s61.667 35 99 35c36.667 0 65 -11.667 85 -35s27.333 -50 22 -80
c-2.66699 -15.333 -8.33398 -30.666 -17.001 -45.999l-131 -196h-159z" />
    <glyph glyph-name="Tbar" unicode="&#x166;" horiz-adv-x="931" 
d="M518 798l85 484h-344l28 157h867l-28 -157h-343l-85 -484h249l-28 -156h-249l-113 -642h-180l113 642h-251l28 156h251z" />
    <glyph glyph-name="tbar" unicode="&#x167;" horiz-adv-x="584" 
d="M337 758h-170l28 156h170l62 355h180l-62 -355h170l-28 -156h-170l-26 -150h170l-28 -157h-170l-80 -451h-180l80 451h-170l28 157h170z" />
    <glyph glyph-name="Utilde" unicode="&#x168;" horiz-adv-x="1214" 
d="M1174 1439h181l-179 -1018c-35.333 -112.667 -101 -209.667 -197 -291c-110.667 -94.667 -235.334 -142 -374.001 -142c-140 0 -249.167 47.833 -327.5 143.5s-105.833 209.167 -82.5 340.5l170 967h181l-170 -967c-16.667 -92 0.833008 -169.5 52.5 -232.5
s119.834 -94.5 204.501 -94.5c84 0 162.667 31.5 236 94.5s118.333 140.5 135 232.5zM826 1631c-4 -14.667 -9 -40.332 -15 -76.999l-161 36c9.33301 47.333 18.666 80 27.999 98c23.333 46.667 57.666 78.667 102.999 96c16 6.66699 33 10 51 10
c39.333 0 81 -18.333 125 -55c8 -6.66699 14.667 -12 20 -16c3.33301 14.667 8.33301 39.667 15 75l163 -33c-11.333 -48 -21.666 -81 -30.999 -99c-22.667 -46.667 -57.334 -79.334 -104.001 -98.001c-16.667 -5.33301 -32.667 -8 -48 -8
c-39.333 0 -81.666 18.333 -126.999 55c-7.33301 6.66699 -13.666 12 -18.999 16z" />
    <glyph glyph-name="utilde" unicode="&#x169;" 
d="M481 -12c-121.333 0 -210.999 35.332 -268.999 105.999s-79 157.334 -63 260.001l99 561h181l-98 -554c-10.667 -61.333 2 -113.333 38 -156c33.333 -40.667 79.333 -61 138 -61c53.333 0 104.666 20.833 153.999 62.5s79.333 93.167 90 154.5l98 554h181l-99 -561
c-20 -102.667 -72 -190 -156 -262c-81.333 -69.333 -179.333 -104 -294 -104zM605.001 1106c-4 -14.667 -9.33203 -40.332 -15.999 -76.999l-160 36c9.33301 47.333 18.666 80 27.999 98c23.333 46.667 57.666 78.667 102.999 96c15.333 6.66699 32 10 50 10
c39.333 0 81.333 -18.333 126 -55c8 -6.66699 14.667 -12 20 -16c3.33301 14.667 8 39.667 14 75l163 -33c-10.667 -48 -20.667 -81 -30 -99c-22.667 -46.667 -57.334 -79.334 -104.001 -98.001c-17.333 -5.33301 -33.666 -8 -48.999 -8c-39.333 0 -81.333 18.333 -126 55
c-7.33301 6.66699 -13.666 12 -18.999 16z" />
    <glyph glyph-name="Umacron" unicode="&#x16a;" horiz-adv-x="1214" 
d="M1174 1439h181l-179 -1018c-35.333 -112.667 -101 -209.667 -197 -291c-110.667 -94.667 -235.334 -142 -374.001 -142c-140 0 -249.167 47.833 -327.5 143.5s-105.833 209.167 -82.5 340.5l170 967h181l-170 -967c-16.667 -92 0.833008 -169.5 52.5 -232.5
s119.834 -94.5 204.501 -94.5c84 0 162.667 31.5 236 94.5s118.333 140.5 135 232.5zM604 1699h604l-25 -140h-604z" />
    <glyph glyph-name="umacron" unicode="&#x16b;" 
d="M481 -12c-121.333 0 -210.999 35.332 -268.999 105.999s-79 157.334 -63 260.001l99 561h181l-98 -554c-10.667 -61.333 2 -113.333 38 -156c33.333 -40.667 79.333 -61 138 -61c53.333 0 104.666 20.833 153.999 62.5s79.333 93.167 90 154.5l98 554h181l-99 -561
c-20 -102.667 -72 -190 -156 -262c-81.333 -69.333 -179.333 -104 -294 -104zM383.001 1174h604l-25 -140h-604z" />
    <glyph glyph-name="Ubreve" unicode="&#x16c;" horiz-adv-x="1214" 
d="M1174 1439h181l-179 -1018c-35.333 -112.667 -101 -209.667 -197 -291c-110.667 -94.667 -235.334 -142 -374.001 -142c-140 0 -249.167 47.833 -327.5 143.5s-105.833 209.167 -82.5 340.5l170 967h181l-170 -967c-16.667 -92 0.833008 -169.5 52.5 -232.5
s119.834 -94.5 204.501 -94.5c84 0 162.667 31.5 236 94.5s118.333 140.5 135 232.5zM1181 1800c-32.667 -67.333 -65.668 -115.333 -99.001 -144c-58 -50 -123 -75 -195 -75c-73.333 0 -129.666 25 -168.999 75c-24.667 30 -41.667 78 -51 144h168
c9.33301 -26.667 17.333 -44 24 -52c13.333 -16.667 31 -25 53 -25c20.667 0 41 8.66699 61 26c10 7.33301 23.667 24.333 41 51h167z" />
    <glyph glyph-name="ubreve" unicode="&#x16d;" 
d="M481 -12c-121.333 0 -210.999 35.332 -268.999 105.999s-79 157.334 -63 260.001l99 561h181l-98 -554c-10.667 -61.333 2 -113.333 38 -156c33.333 -40.667 79.333 -61 138 -61c53.333 0 104.666 20.833 153.999 62.5s79.333 93.167 90 154.5l98 554h181l-99 -561
c-20 -102.667 -72 -190 -156 -262c-81.333 -69.333 -179.333 -104 -294 -104zM960.001 1275c-32.667 -67.333 -66.001 -115.333 -100.001 -144c-57.333 -50 -122 -75 -194 -75c-73.333 0 -130 25 -170 75c-24 30 -40.667 78 -50 144h168
c8.66699 -26.667 16.334 -44 23.001 -52c14 -16.667 32 -25 54 -25c20.667 0 41 8.66699 61 26c9.33301 7.33301 23 24.333 41 51h167z" />
    <glyph glyph-name="Uring" unicode="&#x16e;" horiz-adv-x="1214" 
d="M1174 1439h181l-179 -1018c-35.333 -112.667 -101 -209.667 -197 -291c-110.667 -94.667 -235.334 -142 -374.001 -142c-140 0 -249.167 47.833 -327.5 143.5s-105.833 209.167 -82.5 340.5l170 967h181l-170 -967c-16.667 -92 0.833008 -169.5 52.5 -232.5
s119.834 -94.5 204.501 -94.5c84 0 162.667 31.5 236 94.5s118.333 140.5 135 232.5zM1024 1707.5c24.667 -30.333 33.334 -64.833 26.001 -103.5c-6.66699 -38.667 -27.667 -73 -63 -103s-76.666 -45 -123.999 -45c-46.667 0 -82.334 15 -107.001 45
s-33.667 64.333 -27 103c7.33301 38.667 28.666 73.167 63.999 103.5s76.333 45.5 123 45.5c47.333 0 83.333 -15.167 108 -45.5zM897 1649c-14 0 -26.166 -4.5 -36.499 -13.5s-16.833 -19.5 -19.5 -31.5c-2 -11.333 0.833008 -21.5 8.5 -30.5s18.5 -13.5 32.5 -13.5
c14.667 0 27.167 4.5 37.5 13.5s16.5 19.167 18.5 30.5c2.66699 12 0.166992 22.5 -7.5 31.5s-18.834 13.5 -33.501 13.5z" />
    <glyph glyph-name="uring" unicode="&#x16f;" 
d="M481 -12c-121.333 0 -210.999 35.332 -268.999 105.999s-79 157.334 -63 260.001l99 561h181l-98 -554c-10.667 -61.333 2 -113.333 38 -156c33.333 -40.667 79.333 -61 138 -61c53.333 0 104.666 20.833 153.999 62.5s79.333 93.167 90 154.5l98 554h181l-99 -561
c-20 -102.667 -72 -190 -156 -262c-81.333 -69.333 -179.333 -104 -294 -104zM801.001 1182.5c24.667 -30.333 33.667 -64.833 27 -103.5s-27.667 -73 -63 -103s-76.666 -45 -123.999 -45c-46.667 0 -82.334 15 -107.001 45s-33.667 64.333 -27 103s27.667 73.167 63 103.5
s76.333 45.5 123 45.5c47.333 0 83.333 -15.167 108 -45.5zM675.001 1124c-14 0 -26.334 -4.5 -37.001 -13.5s-17 -19.5 -19 -31.5c-2 -11.333 0.666992 -21.5 8 -30.5s18 -13.5 32 -13.5c14.667 0 27.334 4.5 38.001 13.5s17 19.167 19 30.5c2 12 -0.666992 22.5 -8 31.5
s-18.333 13.5 -33 13.5z" />
    <glyph glyph-name="Uhungarumlaut" unicode="&#x170;" horiz-adv-x="1214" 
d="M1174 1439h181l-179 -1018c-35.333 -112.667 -101 -209.667 -197 -291c-110.667 -94.667 -235.334 -142 -374.001 -142c-140 0 -249.167 47.833 -327.5 143.5s-105.833 209.167 -82.5 340.5l170 967h181l-170 -967c-16.667 -92 0.833008 -169.5 52.5 -232.5
s119.834 -94.5 204.501 -94.5c84 0 162.667 31.5 236 94.5s118.333 140.5 135 232.5zM1021 1791l-355 -238h-189l250 238h294zM1325 1791l-354 -238h-190l250 238h294z" />
    <glyph glyph-name="uhungarumlaut" unicode="&#x171;" 
d="M481 -12c-121.333 0 -210.999 35.332 -268.999 105.999s-79 157.334 -63 260.001l99 561h181l-98 -554c-10.667 -61.333 2 -113.333 38 -156c33.333 -40.667 79.333 -61 138 -61c53.333 0 104.666 20.833 153.999 62.5s79.333 93.167 90 154.5l98 554h181l-99 -561
c-20 -102.667 -72 -190 -156 -262c-81.333 -69.333 -179.333 -104 -294 -104zM800.001 1266l-355 -238h-189l250 238h294zM1104 1266l-354 -238h-190l250 238h294z" />
    <glyph glyph-name="Uogonek" unicode="&#x172;" horiz-adv-x="1214" 
d="M807 25c-64 -24.667 -131.334 -37 -202.001 -37c-140 0 -249.167 47.833 -327.5 143.5s-105.833 209.167 -82.5 340.5l170 967h181l-170 -967c-16.667 -92 0.833008 -169.5 52.5 -232.5s119.834 -94.5 204.501 -94.5c84 0 162.667 31.5 236 94.5s118.333 140.5 135 232.5
l170 967h181l-179 -1018c-35.333 -112.667 -101 -209.667 -197 -291c-2 -2 -4.33301 -4 -7 -6c-40 -60.667 -63 -109 -69 -145c-2 -11.333 0.666992 -21.5 8 -30.5s18 -13.5 32 -13.5c6.66699 0 13.334 1 20.001 3l-6 -104c-10 -2 -20.667 -3 -32 -3
c-46.667 0 -82.334 15 -107.001 45s-33.667 64.333 -27 103c2.66699 16 8 31.333 16 46z" />
    <glyph glyph-name="uogonek" unicode="&#x173;" 
d="M640 14c-48.667 -17.333 -101.665 -26 -158.998 -26c-121.333 0 -211 35.333 -269 106s-79 157.334 -63 260.001l99 561h181l-98 -554c-10.667 -61.333 2 -113.333 38 -156c33.333 -40.667 79.333 -61 138 -61c53.333 0 104.666 20.833 153.999 62.5
s79.333 93.167 90 154.5l98 554h181l-99 -561c-16 -85.333 -54.667 -160 -116 -224c-33.333 -48.667 -56.333 -94.667 -69 -138c-2 -11.333 0.833008 -21.5 8.5 -30.5s18.5 -13.5 32.5 -13.5c6.66699 0 13 1 19 3l-5 -105c-11.333 -1.33301 -22.333 -2 -33 -2
c-46.667 0 -82.334 15 -107.001 45s-33.667 64.333 -27 103c1.33301 7.33301 3.33301 14.666 6 21.999z" />
    <glyph glyph-name="Wcircumflex" unicode="&#x174;" horiz-adv-x="1665" 
d="M1084 1079l158 -751l494 1111h183l-640 -1439h-158l-154 758l-423 -758h-158l-132 1439h184l103 -1111l422 751h121zM1452 1560h-231l-101 87l-126 -87h-230l387 278z" />
    <glyph glyph-name="wcircumflex" unicode="&#x175;" horiz-adv-x="1184" 
d="M1346 914l-472 -914h-127l-79 433l-230 -433h-129l-148 914h195l83 -568l229 426h122l78 -426l282 568h196zM1118 1035h-231l-101 87l-126 -87h-230l387 278z" />
    <glyph glyph-name="Ycircumflex" unicode="&#x176;" horiz-adv-x="1233" 
d="M629 582l-343 857h200l268 -666l501 666h200l-645 -857l-103 -582h-181zM1235 1560h-231l-101 87l-126 -87h-230l387 278z" />
    <glyph glyph-name="ycircumflex" unicode="&#x177;" horiz-adv-x="896" 
d="M251 -317h-195l328 512l-208 719h195l149 -505l327 505h195zM974 1035h-231l-101 87l-126 -87h-230l387 278z" />
    <glyph glyph-name="Ydieresis" unicode="&#x178;" horiz-adv-x="1233" 
d="M629 582l-343 857h200l268 -666l501 666h200l-645 -857l-103 -582h-181zM877 1760.5c20 -23.667 27.6689 -50.167 23.002 -79.5c-5.33301 -30.667 -22.333 -57.834 -51 -81.501s-61.334 -35.5 -98.001 -35.5c-38 0 -66.833 11.833 -86.5 35.5
s-26.834 50.834 -21.501 81.501c4.66699 29.333 21.167 55.833 49.5 79.5s61.5 35.5 99.5 35.5c36.667 0 65 -11.833 85 -35.5zM1161.5 1760.5c19.667 -23.667 27.1641 -50.167 22.4971 -79.5c-5.33301 -30.667 -22.166 -57.834 -50.499 -81.501
s-61.166 -35.5 -98.499 -35.5s-66 11.833 -86 35.5s-27.333 50.834 -22 81.501c4.66699 29.333 21.334 55.833 50.001 79.5s61.667 35.5 99 35.5s65.833 -11.833 85.5 -35.5z" />
    <glyph glyph-name="Zacute" unicode="&#x179;" horiz-adv-x="1168" 
d="M1049 1282h-615l28 157h906l-966 -1282h780l-28 -157h-1070zM1270 1798l-355 -239h-189l250 239h294z" />
    <glyph glyph-name="zacute" unicode="&#x17a;" horiz-adv-x="850" 
d="M624 746h-402l27 156h693l-562 -745h436l-28 -157h-726zM984 1273l-355 -239h-189l250 239h294z" />
    <glyph glyph-name="Zdotaccent" unicode="&#x17b;" horiz-adv-x="1168" 
d="M1049 1282h-615l28 157h906l-966 -1282h780l-28 -157h-1070zM1015 1770c18 -21.333 24.667 -45.666 20 -72.999c-4.66699 -26.667 -19.834 -50.667 -45.501 -72s-55.5 -32 -89.5 -32s-60.167 10.667 -78.5 32s-25.166 45.333 -20.499 72
c4.66699 27.333 20 51.666 46 72.999s56 32 90 32s60 -10.667 78 -32z" />
    <glyph glyph-name="zdotaccent" unicode="&#x17c;" horiz-adv-x="850" 
d="M624 746h-402l27 156h693l-562 -745h436l-28 -157h-726zM728.5 1245c18.333 -21.333 25.166 -45.666 20.499 -72.999c-4.66699 -26.667 -20 -50.667 -46 -72s-56 -32 -90 -32s-60 10.667 -78 32s-24.667 45.333 -20 72c4.66699 27.333 19.834 51.666 45.501 72.999
s55.5 32 89.5 32s60.167 -10.667 78.5 -32z" />
    <glyph glyph-name="Zcaron" unicode="&#x17d;" horiz-adv-x="1168" 
d="M1049 1282h-615l28 157h906l-966 -1282h780l-28 -157h-1070zM880 1514l-289 277h230l95 -86l132 86h231z" />
    <glyph glyph-name="zcaron" unicode="&#x17e;" horiz-adv-x="850" 
d="M624 746h-402l27 156h693l-562 -745h436l-28 -157h-726zM593 989l-289 277h230l95 -86l132 86h231z" />
    <glyph glyph-name="longs" unicode="&#x17f;" horiz-adv-x="483" 
d="M291 0h-180.999l194 1101c17.333 71.333 56 133.333 116 186c67.333 53.333 139 80 215 80c39.333 0 91.666 -12 156.999 -36l-80 -150c-50 23.333 -82 35 -96 35c-24 0 -50 -11 -78 -33c-28.667 -24 -46.667 -53.667 -54 -89z" />
    <glyph glyph-name="florin" unicode="&#x192;" horiz-adv-x="488" 
d="M296 0h-1l-4 -28c-40.667 -187.333 -174 -281 -400 -281l27 152c108.667 0 173 43 193 129l138 786h-85l28 156h85l33 187c16 71.333 54.333 133.333 115 186c68 53.333 140 80 216 80c39.333 0 91.333 -12 156 -36l-79 -150c-50.667 23.333 -82.667 35 -96 35
c-24 0 -50.333 -11 -79 -33c-28 -24 -46 -53.667 -54 -89l-31 -180h170l-28 -156h-170z" />
    <glyph glyph-name="Aringacute" unicode="&#x1fa;" horiz-adv-x="1210" 
d="M874 687l-79 387l-216 -387h295zM822 1563l119 135h291l-244 -173c22 -28.667 29.667 -61.667 23 -99c-6 -36.667 -26.667 -70 -62 -100l-11 -15l269 -1311h-188l-114 531h-411l-306 -531h-189l736 1310l-11 20c-22.667 27.333 -31 59.333 -25 96
c6.66699 37.333 27.667 71.333 63 102c23.333 19.333 43.333 31 60 35zM858 1470c-11.333 0 -21.333 -3.83301 -30 -11.5s-14 -16.834 -16 -27.501c-1.33301 -10.667 0.833984 -19.834 6.50098 -27.501s14.167 -11.5 25.5 -11.5c10.667 0 20.667 3.83301 30 11.5
s14.666 16.834 15.999 27.501c2 10.667 -0.166992 19.834 -6.5 27.501s-14.833 11.5 -25.5 11.5z" />
    <glyph glyph-name="aringacute" unicode="&#x1fb;" horiz-adv-x="1188" 
d="M990 410l26 146c-0.666992 66 -21 123 -61 171c-55.333 68 -127.666 102 -216.999 102c-90 0 -173.833 -33.333 -251.5 -100s-125.167 -149 -142.5 -247c-17.333 -97.333 1.16699 -179 55.5 -245s126.5 -99 216.5 -99c89.333 0 173.666 33.667 252.999 101
c56.667 48 97 105 121 171zM779 1115c-11.333 0 -21.333 -3.83301 -30 -11.5s-14 -16.834 -16 -27.501s0 -19.834 6 -27.501s14.667 -11.5 26 -11.5c10.667 0 20.5 3.83301 29.5 11.5s14.5 16.834 16.5 27.501s-0.166992 19.834 -6.5 27.501s-14.833 11.5 -25.5 11.5z
M874 976c88 -24 150 -80.333 186 -169l19 107h181l-161 -914h-181l28 160c-92.667 -122.667 -212 -184 -358 -184c-144.667 0 -258.334 50.167 -341.001 150.5s-112 218.833 -88 355.5c24.667 138 96 257 214 357c83.333 70.667 173.333 116.334 270 137.001
c-22 27.333 -29.667 59 -23 95c6.66699 37.333 27.667 71.333 63 102c22.667 19.333 42.334 31 59.001 35l38 65h291l-163 -103c22.667 -28.667 30.667 -61.667 24 -99c-6 -34.667 -25.333 -66.334 -58 -95.001z" />
    <glyph glyph-name="AEacute" unicode="&#x1fc;" horiz-adv-x="1514" 
d="M1543 798l-28 -157h-602l-85 -484h602l-28 -157h-782l92 521h-199l-323 -521h-191l879 1439h778l-28 -157h-602l-85 -484h602zM739 677l56 317l-192 -317h136zM1352 1798l-355 -239h-189l250 239h294z" />
    <glyph glyph-name="aeacute" unicode="&#x1fd;" horiz-adv-x="1908" 
d="M998 653c-10.667 28 -25 52.667 -43 74c-55.333 68 -127.666 102 -216.999 102c-90 0 -173.833 -33.333 -251.5 -100s-125.167 -149 -142.5 -247c-17.333 -97.333 1.16699 -179 55.5 -245s126.5 -99 216.5 -99c89.333 0 173.666 33.667 252.999 101
c25.333 21.333 48.333 46 69 74c22.667 30.667 40 63 52 97l26 146c0 34 -6 66.333 -18 97zM1772 643c-3.33301 20.667 -21 50.001 -53 88.001c-52.667 65.333 -123.667 98 -213 98c-90 0 -174.667 -34 -254 -102c-12.667 -10.667 -22.667 -20.334 -30 -29.001l-9 -55h559z
M1146 267.001c4 -8 12 -18.665 24 -31.998c52.667 -64.667 124 -97 214 -97c89.333 0 172.333 32.333 249 97c14 12 36.667 34.667 68 68l160 -61c-32.667 -42.667 -68.667 -80.334 -108 -113.001c-119.333 -102 -251.666 -153 -396.999 -153
c-137.333 0 -221.333 17.333 -252 52l-5 -28h-181l28 160c-92.667 -122.667 -212 -184 -358 -184c-144.667 0 -258.334 50.167 -341.001 150.5s-112 218.833 -88 355.5c24.667 138 96 257 214 357s249.333 150 394 150c146 0 243.667 -60.667 293 -182l19 107h181
c46 50 137.667 75 275 75c145.333 0 258.333 -49.333 339 -148c74 -90.667 100.667 -209.334 80 -356.001l-769 1zM1531 1273l-356 -239h-189l251 239h294z" />
    <glyph glyph-name="Oslashacute" unicode="&#x1fe;" horiz-adv-x="1693" 
d="M1235 1280c-32 14 -84.999 20.999 -158.999 20.999c-153.333 0 -296 -56.167 -428 -168.5s-212.333 -249.166 -241 -410.499c-28.667 -162.667 2.66602 -299.667 93.999 -411c36 -42.667 58 -67 66 -73zM712.001 161.999c32.667 -13.333 85.665 -20 158.998 -20
c154 0 296.833 56 428.5 168s211.834 249.333 240.501 412c28.667 161.333 -3.66602 299.333 -96.999 414c-33.333 40 -54.333 62.667 -63 68zM1476 1353c36.667 -22 77.667 -60 123 -114c118 -144 159 -316.333 123 -517c-35.333 -202 -138.333 -375.5 -309 -520.5
s-360.667 -217.5 -570 -217.5c-101.333 0 -176.333 10.667 -225 32l-102 -160l-146 76l102 158c-37.333 22 -78.333 60 -123 114c-118 143.333 -159.333 316 -124 518c36 200.667 139.167 373.667 309.5 519s359.833 218 568.5 218c101.333 0 177 -10.667 227 -32l102 158
l146 -73zM1498 1798l-355 -239h-189l250 239h294z" />
    <glyph glyph-name="oslashacute" unicode="&#x1ff;" horiz-adv-x="1145" 
d="M810 819c-12 6.66699 -42.333 9.99902 -91 9.99902c-90 0 -173.833 -33.167 -251.5 -99.5s-125.167 -148.5 -142.5 -246.5c-17.333 -97.333 0.666992 -178.666 54 -243.999zM945 729.999l-440.001 -582c12.667 -6 43.334 -9 92.001 -9c89.333 0 173 33 251 99
s125.667 147.667 143 245c17.333 98 2 180.333 -46 247zM261.999 89.999c-6 4.66699 -18.333 17.667 -37 39c-80.667 99.333 -109 217.333 -85 354c24.667 138 96 257 214 357s249.333 150 394 150c82 0 139.667 -8.66699 173 -26l136 183l140 -82l-141 -187
c5.33301 -4.66699 17.333 -18 36 -40c80 -98.667 107.667 -217 83 -355c-24 -136.667 -94.5 -255.167 -211.5 -355.5s-248.5 -150.5 -394.5 -150.5c-82.667 0 -140 8.66699 -172 26l-136 -180l-143 73zM1131 1273l-355 -239h-189l250 239h294z" />
    <glyph glyph-name="Scommaaccent" unicode="&#x218;" horiz-adv-x="1017" 
d="M644 757c-97.333 34 -171.834 82.3311 -223.501 144.998s-69.5 138.334 -53.5 227.001c15.333 86.667 61.333 162.834 138 228.501s163.334 98.5 260.001 98.5c95.333 0 171 -33.667 227 -101c29.333 -34.667 48.333 -83.334 57 -146.001l-173 -63
c-10.667 54 -22.667 89 -36 105c-26.667 33.333 -61 50 -103 50c-41.333 0 -81 -16.167 -119 -48.5s-61.333 -73.5 -70 -123.5c-8.66699 -49.333 0.666016 -91.333 27.999 -126c28.667 -33.333 70.334 -64 125.001 -92c108.667 -37.333 194.667 -94.666 258 -171.999
c73.333 -88 99.333 -192 78 -312s-83.5 -223.833 -186.5 -311.5s-218.167 -131.5 -345.5 -131.5c-128 0 -228.333 45 -301 135c-57.333 68.667 -84.333 157.667 -81 267l185 63c-8 -104.667 8.33301 -181 49 -229c44 -53.333 102.667 -80 176 -80
c74 0 143.333 27.5 208 82.5s104 123.167 118 204.5c14.667 81.333 -0.333008 149 -45 203c-45.333 54 -102 96.333 -170 127zM337.999 -214.002l-4.00098 14c-14.667 13.333 -20 29 -16 47c4 18.667 17.167 35 39.5 49s47.833 21 76.5 21s50.834 -7 66.501 -21
s21.167 -30.333 16.5 -49c-2 -8.66699 -6.33301 -17.667 -13 -27l-102 -119h-123z" />
    <glyph glyph-name="scommaaccent" unicode="&#x219;" horiz-adv-x="727" 
d="M414 456c-61.333 37.333 -102.333 68.666 -123 93.999c-40.667 49.333 -55.334 106 -44.001 170c11.333 63.333 45.166 119.333 101.499 168s120.5 73 192.5 73s126 -22.333 162 -67c37.333 -45.333 51.333 -95 42 -149l-5 -28l-173 -66
c3.33301 75.333 -0.333984 119.666 -11.001 132.999s-24.667 20 -42 20s-35 -7.66699 -53 -23s-29.333 -35.666 -34 -60.999s0.333008 -46.666 15 -63.999c8.66699 -12 31.334 -31 68.001 -57c68.667 -41.333 117.334 -79 146.001 -113c44.667 -56 60.334 -122 47.001 -198
c-14 -78 -54.333 -145.667 -121 -203s-142.667 -86 -228 -86s-151.5 28.667 -198.5 86s-62.833 129 -47.5 215l188 45c-14 -77.333 -10.833 -128.333 9.5 -153s45.5 -37 75.5 -37s59.667 12.333 89 37s47.666 56.667 54.999 96c6.66699 38 -1 70 -23 96
c-13.333 15.333 -42.666 39.333 -87.999 72zM238 -214l-4.00098 14c-14.667 13.333 -20 29 -16 47c4 18.667 17.167 35 39.5 49s47.833 21 76.5 21s50.834 -7 66.501 -21s21.167 -30.333 16.5 -49c-2 -8.66699 -6.33301 -17.667 -13 -27l-102 -119h-123z" />
    <glyph glyph-name="uni021A" unicode="&#x21a;" horiz-adv-x="931" 
d="M603 1282h-344l28 157h867l-28 -157h-343l-226 -1282h-180zM348 -214l-4.00098 14c-14.667 13.333 -20 29 -16 47c4 18.667 17.167 35 39.5 49s47.833 21 76.5 21s50.834 -7 66.501 -21s21.167 -30.333 16.5 -49c-2 -8.66699 -6.33301 -17.667 -13 -27l-102 -119h-123z
" />
    <glyph glyph-name="uni021B" unicode="&#x21b;" horiz-adv-x="584" 
d="M337 758h-170l28 156h170l62 355h180l-62 -355h170l-28 -156h-170l-134 -758h-180zM178 -214l-4.00098 14c-14.667 13.333 -20 29 -16 47c4 18.667 17.167 35 39.5 49s47.833 21 76.5 21s50.834 -7 66.501 -21s21.167 -30.333 16.5 -49
c-2 -8.66699 -6.33301 -17.667 -13 -27l-102 -119h-123z" />
    <glyph glyph-name="circumflex" unicode="&#x2c6;" horiz-adv-x="878" 
d="M965 1035h-231l-102 87l-125 -87h-230l387 278z" />
    <glyph glyph-name="caron" unicode="&#x2c7;" horiz-adv-x="878" 
d="M607 989l-289 277h230l95 -86l132 86h231z" />
    <glyph glyph-name="uni02C9" unicode="&#x2c9;" horiz-adv-x="754" 
d="M282 1174h604l-25 -140h-604z" />
    <glyph glyph-name="breve" unicode="&#x2d8;" horiz-adv-x="681" 
d="M822 1275c-32.667 -67.333 -65.668 -115.333 -99.001 -144c-58 -50 -123 -75 -195 -75c-73.333 0 -129.666 25 -168.999 75c-24 30 -41 78 -51 144h168c9.33301 -26.667 17.333 -44 24 -52c13.333 -16.667 31 -25 53 -25c20.667 0 41 8.66699 61 26
c10 7.33301 23.667 24.333 41 51h167z" />
    <glyph glyph-name="dotaccent" unicode="&#x2d9;" horiz-adv-x="384" 
d="M496 1245c18 -21.333 24.667 -45.666 20 -72.999c-4.66699 -26.667 -19.834 -50.667 -45.501 -72s-55.5 -32 -89.5 -32s-60.167 10.667 -78.5 32s-25.166 45.333 -20.499 72c4.66699 27.333 20 51.666 46 72.999s56 32 90 32s60 -10.667 78 -32z" />
    <glyph glyph-name="ring" unicode="&#x2da;" horiz-adv-x="589" 
d="M618 1182.5c24.667 -30.333 33.667 -64.833 27 -103.5s-27.667 -73 -63 -103s-76.666 -45 -123.999 -45c-46.667 0 -82.334 15 -107.001 45s-33.667 64.333 -27 103s27.667 73.167 63 103.5s76.333 45.5 123 45.5c47.333 0 83.333 -15.167 108 -45.5zM492 1124
c-14 0 -26.334 -4.5 -37.001 -13.5s-17 -19.5 -19 -31.5c-2 -11.333 0.666992 -21.5 8 -30.5s18 -13.5 32 -13.5c14.667 0 27.334 4.5 38.001 13.5s17 19.167 19 30.5c2 12 -0.666992 22.5 -8 31.5s-18.333 13.5 -33 13.5z" />
    <glyph glyph-name="ogonek" unicode="&#x2db;" horiz-adv-x="535" 
d="M300 -17c-14 0 -26.333 -4.50098 -37 -13.501s-17 -19.5 -19 -31.5c-2 -11.333 0.666992 -21.5 8 -30.5s18 -13.5 32 -13.5c6.66699 0 13.334 1 20.001 3l-6 -105c-10 -1.33301 -20.667 -2 -32 -2c-46.667 0 -82.334 15 -107.001 45s-33.667 64.333 -27 103
s28 73.334 64 104.001c33.333 28.667 72.333 43.667 117 45l-5 -104h-8z" />
    <glyph glyph-name="tilde" unicode="&#x2dc;" horiz-adv-x="625" 
d="M439 1106c-4 -14.667 -9.00293 -40.332 -15.0029 -76.999l-161 36c10 47.333 19.333 80 28 98c24 46.667 58.333 78.667 103 96c16 6.66699 33 10 51 10c39.333 0 81 -18.333 125 -55c8.66699 -6.66699 15.334 -12 20.001 -16c3.33301 14.667 8.33301 39.667 15 75
l163 -33c-11.333 -48 -21.666 -81 -30.999 -99c-22.667 -46.667 -57.334 -79.334 -104.001 -98.001c-16.667 -5.33301 -32.667 -8 -48 -8c-39.333 0 -81.666 18.333 -126.999 55c-7.33301 6.66699 -13.666 12 -18.999 16z" />
    <glyph glyph-name="hungarumlaut" unicode="&#x2dd;" horiz-adv-x="854" 
d="M749 1266l-355 -238h-189l250 238h294zM1053 1266l-354 -238h-190l250 238h294z" />
    <glyph glyph-name="tonos" unicode="&#x384;" horiz-adv-x="597" 
d="M831 1439l-355 -238h-189l250 238h294z" />
    <glyph glyph-name="dieresistonos" unicode="&#x385;" horiz-adv-x="795" 
d="M891 1439l-278 -238h-158l173 238h263zM955.5 1356.5c16.333 -19 22.498 -39.833 18.498 -62.5c-4.66699 -24.667 -18.5 -46.5 -41.5 -65.5s-49.5 -28.5 -79.5 -28.5c-31.333 0 -55.166 9.5 -71.499 28.5s-22.166 40.833 -17.499 65.5c4 22.667 17.5 43.5 40.5 62.5
s50.167 28.5 81.5 28.5c30 0 53.167 -9.5 69.5 -28.5zM470.998 1356.5c16.667 -19 22.998 -39.833 18.998 -62.5c-4.66699 -24.667 -18.667 -46.5 -42 -65.5s-50 -28.5 -80 -28.5c-31.333 0 -55.166 9.5 -71.499 28.5s-22.166 40.833 -17.499 65.5
c4 22.667 17.5 43.5 40.5 62.5s50.167 28.5 81.5 28.5c30 0 53.333 -9.5 70 -28.5z" />
    <glyph glyph-name="Alphatonos" unicode="&#x386;" horiz-adv-x="1093" 
d="M657 1439l-356 -238h-189l250 238h295zM836 754l-71 382l-206 -382h277zM898 1439l267 -1439h-188l-112 598h-391l-326 -598h-189l782 1439h157z" />
    <glyph glyph-name="anoteleia" unicode="&#x387;" horiz-adv-x="344" 
d="M448 1091c18 -21.333 24.667 -45.333 20 -72c-4.66699 -27.333 -19.834 -51.666 -45.501 -72.999s-55.5 -32 -89.5 -32s-60.167 10.667 -78.5 32s-25.166 45.666 -20.499 72.999c4.66699 26.667 20 50.667 46 72s56 32 90 32s60 -10.667 78 -32z" />
    <glyph glyph-name="Epsilontonos" unicode="&#x388;" horiz-adv-x="1151" 
d="M463 1439l-355 -238h-189l250 238h294zM1312 1439l-28 -157h-602l-85 -484h602l-28 -157h-602l-85 -484h602l-28 -157h-783l254 1439h783z" />
    <glyph glyph-name="Etatonos" unicode="&#x389;" horiz-adv-x="1343" 
d="M466 1439l-355 -238h-189l250 238h294zM572 641l-113 -641h-181l254 1439h181l-113 -641h591l113 641h181l-254 -1439h-181l113 641h-591z" />
    <glyph glyph-name="Iotatonos" unicode="&#x38a;" horiz-adv-x="535" 
d="M453 1439l-355 -238h-189l250 238h294zM693 1439l-254 -1439h-181l254 1439h181z" />
    <glyph glyph-name="Omicrontonos" unicode="&#x38c;" horiz-adv-x="1623" 
d="M539 1439l-355 -238h-189l250 238h294zM1534.5 1241c119.667 -145.333 161.834 -318.333 126.501 -519c-36 -202 -139.333 -375.5 -310 -520.5s-360.667 -217.5 -570 -217.5c-208.667 0 -372.667 72.5 -492 217.5s-161 318.5 -125 520.5
c35.333 200.667 138.166 373.667 308.499 519s359.833 218 568.5 218c209.333 0 373.833 -72.667 493.5 -218zM1014 1301c-154 0 -297 -56.167 -429 -168.5s-212 -249.166 -240 -410.499c-28.667 -162.667 3 -300 95 -412s215 -168 369 -168s297 56 429 168
s212.333 249.333 241 412c28 161.333 -4 298.166 -96 410.499s-215 168.5 -369 168.5z" />
    <glyph glyph-name="Upsilontonos" unicode="&#x38e;" horiz-adv-x="1322" 
d="M395 1439l-355 -238h-189l250 238h294zM779 582l-343 857h200l267 -666l501 666h201l-645 -857l-103 -582h-181z" />
    <glyph glyph-name="Omegatonos" unicode="&#x38f;" horiz-adv-x="1464" 
d="M520 1439l-355 -238h-189l250 238h294zM977 1459c199.333 0 345.671 -69 439.004 -207s120.333 -319.333 81 -544c-29.333 -167.333 -171.666 -351 -426.999 -551h243l-28 -157h-465l26 147c77.333 32 168.166 94.333 272.499 187s170.166 217.334 197.499 374.001
c33.333 188.667 15.5 336.667 -53.5 444s-174.167 161 -315.5 161h-4c-142 0 -266.333 -53.667 -373 -161s-176.667 -255.333 -210 -444c-27.333 -156.667 -5.33301 -281.334 66 -374.001s139.666 -155 204.999 -187l-26 -147h-465l28 157h244
c-185.333 200 -263.333 383.667 -234 551c39.333 224.667 130.166 406 272.499 544s313.166 207 512.499 207h14z" />
    <glyph glyph-name="iotadieresistonos" unicode="&#x390;" horiz-adv-x="470" 
d="M487 914l-161 -914h-180l161 914h180zM700 1279l-278 -238h-158l173 238h263zM764.5 1196.5c16.333 -19 22.498 -39.833 18.498 -62.5c-4.66699 -24.667 -18.5 -46.5 -41.5 -65.5s-49.5 -28.5 -79.5 -28.5c-31.333 0 -55.166 9.5 -71.499 28.5
s-22.166 40.833 -17.499 65.5c4 22.667 17.5 43.5 40.5 62.5s50.167 28.5 81.5 28.5c30 0 53.167 -9.5 69.5 -28.5zM279.998 1196.5c16.667 -19 22.998 -39.833 18.998 -62.5c-4.66699 -24.667 -18.667 -46.5 -42 -65.5s-50 -28.5 -80 -28.5
c-31.333 0 -55.166 9.5 -71.499 28.5s-22.166 40.833 -17.499 65.5c4 22.667 17.5 43.5 40.5 62.5s50.167 28.5 81.5 28.5c30 0 53.333 -9.5 70 -28.5z" />
    <glyph glyph-name="Alpha" unicode="&#x391;" horiz-adv-x="1208" 
d="M876 754l-71 382l-206 -382h277zM938 1439l267 -1439h-188l-112 598h-391l-326 -598h-189l782 1439h157z" />
    <glyph glyph-name="Beta" unicode="&#x392;" horiz-adv-x="1102" 
d="M583 157c83.333 0 161.665 31.166 234.998 93.499s118 139.833 134 232.5c16.667 92.667 -0.666016 170.334 -51.999 233.001s-118.666 94 -201.999 94h-262l-115 -653h262zM518.999 1283l-55.001 -316.001h290c40 4 72.333 17 97 39c34.667 28.667 56.334 67 65.001 115
c8 46.667 -0.666992 85.334 -26 116.001s-57.333 46 -96 46h-275zM1055 820.998c76.667 -93.333 103.332 -206.001 79.999 -338.001c-22.667 -130.667 -91 -244.334 -205 -341.001c-92 -78.667 -199 -126 -321 -142h-497l254 1439h457c94 0 167 -31.667 219 -95
s70.667 -137.666 56 -222.999c-15.333 -86 -59.333 -159.667 -132 -221c20.667 -5.33301 50.334 -31.666 89.001 -78.999z" />
    <glyph glyph-name="Gamma" unicode="&#x393;" horiz-adv-x="832" 
d="M1064 1439l-28 -157h-517l-226 -1282h-181l254 1439h698z" />
    <glyph glyph-name="uni0394" unicode="&#x394;" horiz-adv-x="1195" 
d="M44 1h-74l778 1438h171l276 -1439h-1151v1zM976 157l-193 999l-540 -999h733z" />
    <glyph glyph-name="Epsilon" unicode="&#x395;" horiz-adv-x="985" 
d="M1149 1439l-28 -157h-602l-85 -484h602l-28 -157h-602l-85 -484h602l-28 -157h-783l254 1439h783z" />
    <glyph glyph-name="Zeta" unicode="&#x396;" horiz-adv-x="1168" 
d="M1049 1282h-615l28 157h906l-966 -1282h780l-28 -157h-1070z" />
    <glyph glyph-name="Eta" unicode="&#x397;" horiz-adv-x="1173" 
d="M404 641l-113 -641h-181l254 1439h181l-113 -641h591l113 641h181l-254 -1439h-181l113 641h-591z" />
    <glyph glyph-name="Theta" unicode="&#x398;" horiz-adv-x="1621" 
d="M1560.5 1241c119.667 -145.333 161.5 -318.333 125.5 -519c-35.333 -202 -138.333 -375.5 -309 -520.5s-360.667 -217.5 -570 -217.5c-208.667 0 -372.667 72.5 -492 217.5s-161.333 318.5 -126 520.5c36 200.667 139.167 373.667 309.5 519s359.833 218 568.5 218
c209.333 0 373.833 -72.667 493.5 -218zM1040 1301c-153.333 0 -295.999 -56.167 -427.999 -168.5s-212.333 -249.166 -241 -410.499c-28.667 -162.667 3.16602 -300 95.499 -412s215.166 -168 368.499 -168c154 0 296.833 56 428.5 168s211.834 249.333 240.501 412
c28.667 161.333 -3 298.166 -95 410.499s-215 168.5 -369 168.5zM516.001 800h872l-28 -157h-872z" />
    <glyph glyph-name="Iota" unicode="&#x399;" horiz-adv-x="425" 
d="M557 1439l-254 -1439h-181l254 1439h181z" />
    <glyph glyph-name="Kappa" unicode="&#x39a;" horiz-adv-x="1102" 
d="M1128 1439l-477 -550l465 -889h-211l-387 741l-118 -135l-107 -606h-181l254 1439h181l-94 -532l465 532h210z" />
    <glyph glyph-name="Lambda" unicode="&#x39b;" horiz-adv-x="1225" 
d="M949 1439l276 -1439h-189l-223 1156l-625 -1155h-188l778 1438h171z" />
    <glyph glyph-name="Mu" unicode="&#x39c;" horiz-adv-x="1496" 
d="M1657 1439l-254 -1439h-181l206 1170l-582 -621l-365 621l-206 -1170h-181l254 1439h193l355 -605l568 605h193z" />
    <glyph glyph-name="Nu" unicode="&#x39d;" horiz-adv-x="1398" 
d="M542 1439l617 -1150l203 1150h181l-254 -1439h-200l-601 1121l-198 -1121h-181l254 1439h179z" />
    <glyph glyph-name="Xi" unicode="&#x39e;" horiz-adv-x="1164" 
d="M286 800h872l-28 -157h-872zM304 1440h1064l-28 -157h-1064zM78 158h1064l-28 -157h-1064z" />
    <glyph glyph-name="Omicron" unicode="&#x39f;" horiz-adv-x="1621" 
d="M1560.5 1241c119.667 -145.333 161.5 -318.333 125.5 -519c-35.333 -202 -138.333 -375.5 -309 -520.5s-360.667 -217.5 -570 -217.5c-208.667 0 -372.667 72.5 -492 217.5s-161.333 318.5 -126 520.5c36 200.667 139.167 373.667 309.5 519s359.833 218 568.5 218
c209.333 0 373.833 -72.667 493.5 -218zM1040 1301c-153.333 0 -295.999 -56.167 -427.999 -168.5s-212.333 -249.166 -241 -410.499c-28.667 -162.667 3.16602 -300 95.499 -412s215.166 -168 368.499 -168c154 0 296.833 56 428.5 168s211.834 249.333 240.501 412
c28.667 161.333 -3 298.166 -95 410.499s-215 168.5 -369 168.5z" />
    <glyph glyph-name="Pi" unicode="&#x3a0;" horiz-adv-x="1141" 
d="M501 1282l-226 -1282h-181l254 1439h953l-254 -1439h-181l226 1282h-591z" />
    <glyph glyph-name="Rho" unicode="&#x3a1;" horiz-adv-x="1032" 
d="M376 471l-83.001 -471h-181l254 1439h412c117.333 -16 209 -64.667 275 -146c77.333 -94 104.666 -206.333 81.999 -337c-23.333 -131.333 -91.166 -245 -203.499 -341s-238.166 -144 -377.499 -144h-178zM518.999 1281l-115.001 -651.999h178
c84 0 162.833 31.167 236.5 93.5s118.834 140.166 135.501 233.499c16 92.667 -1.83301 170 -53.5 232s-119.5 93 -203.5 93h-178z" />
    <glyph glyph-name="Sigma" unicode="&#x3a3;" horiz-adv-x="1125" 
d="M278 1438h1077l-28 -157h-848l364 -562l-562 -562h848l-28 -157h-1077l29 163l568 556l-372 557z" />
    <glyph glyph-name="Tau" unicode="&#x3a4;" horiz-adv-x="971" 
d="M802 1282l-226 -1282h-180l226 1282h-344l28 157h867l-28 -157h-343z" />
    <glyph glyph-name="Upsilon" unicode="&#x3a5;" horiz-adv-x="1169" 
d="M629 582l-343 857h200l268 -666l501 666h200l-645 -857l-103 -582h-181z" />
    <glyph glyph-name="Phi" unicode="&#x3a6;" horiz-adv-x="1625" 
d="M786 365l121.001 686c-126 -3.33301 -239.667 -36.333 -341 -99c-106.667 -67.333 -168.334 -148.666 -185.001 -243.999c-16.667 -94.667 16.333 -175.334 99 -242.001c79.333 -64 181.333 -97.667 306 -101zM939.001 204l-35.001 -200h-181l35 200
c-174.667 4.66699 -316 53.667 -424 147c-117.333 98.667 -163.666 218 -138.999 358s113 259.667 265 359c140.667 91.333 299.334 139.333 476.001 144l39 225h181l-39 -225c174 -4.66699 316 -52.667 426 -144c116 -99.333 161.667 -219 137 -359
s-112.334 -259.333 -263.001 -358c-142.667 -93.333 -302 -142.333 -478 -147zM1088 1051l-121.002 -686c126 3.33301 240 37 342 101c107.333 66.667 169.333 147.334 186 242.001c16.667 95.333 -16.666 176.666 -99.999 243.999
c-79.333 62.667 -181.666 95.667 -306.999 99z" />
    <glyph glyph-name="Chi" unicode="&#x3a7;" horiz-adv-x="1137" 
d="M15 0l592 787l-261 652h200l191 -479l361 479h201l-492 -652l316 -787h-201l-246 613l-462 -613h-199z" />
    <glyph glyph-name="Psi" unicode="&#x3a8;" horiz-adv-x="1661" 
d="M971 300l-51.9971 -295.998h-181l52 296c-174.667 4.66699 -316.334 53.667 -425.001 147c-110 99.333 -154.333 219.666 -133 360.999l111 629h181l-111 -633c-16.667 -94.667 16.666 -175.334 99.999 -242.001c78.667 -64 180.334 -97.667 305.001 -101l172 976h181
l-172 -976c126.667 3.33301 240.667 37 342 101c107.333 66.667 171.666 162 192.999 286h5l104 589h181l-112 -634c-24.667 -139.333 -112.334 -258 -263.001 -356c-142 -93.333 -301.333 -142.333 -478 -147z" />
    <glyph glyph-name="uni03A9" unicode="&#x3a9;" horiz-adv-x="1519" 
d="M1024 1459c200 0 346.671 -69 440.004 -207s120 -319.333 80 -544c-29.333 -167.333 -171.666 -351 -426.999 -551h243l-28 -157h-465l26 147c77.333 32 168.166 94.333 272.499 187s170.166 217.334 197.499 374.001c33.333 188.667 15.5 336.667 -53.5 444
s-174.167 161 -315.5 161h-4c-142 0 -266.333 -53.667 -373 -161s-176.667 -255.333 -210 -444c-27.333 -156.667 -5.33301 -281.334 66 -374.001s139.666 -155 204.999 -187l-26 -147h-465l27 157h244c-184.667 200 -262.334 383.667 -233.001 551
c40 224.667 131.167 406 273.5 544s313.166 207 512.499 207h13z" />
    <glyph glyph-name="Iotadieresis" unicode="&#x3aa;" horiz-adv-x="425" 
d="M557 1439l-254 -1439h-181l254 1439h181zM473 1760.5c20 -23.667 27.333 -50.167 22 -79.5c-5.33301 -30.667 -22.166 -57.834 -50.499 -81.501s-60.833 -35.5 -97.5 -35.5c-38 0 -67 11.833 -87 35.5s-27.333 50.834 -22 81.501
c5.33301 29.333 22.166 55.833 50.499 79.5s61.5 35.5 99.5 35.5c36.667 0 65 -11.833 85 -35.5zM757.5 1760.5c19.667 -23.667 26.832 -50.167 21.499 -79.5c-5.33301 -30.667 -22 -57.834 -50 -81.501s-60.667 -35.5 -98 -35.5s-66.166 11.833 -86.499 35.5
s-27.833 50.834 -22.5 81.501c5.33301 29.333 22.333 55.833 51 79.5s61.667 35.5 99 35.5s65.833 -11.833 85.5 -35.5z" />
    <glyph glyph-name="Upsilondieresis" unicode="&#x3ab;" horiz-adv-x="1169" 
d="M629 582l-343 857h200l268 -666l501 666h200l-645 -857l-103 -582h-181zM877 1760.5c20 -23.667 27.6689 -50.167 23.002 -79.5c-5.33301 -30.667 -22.333 -57.834 -51 -81.501s-61.334 -35.5 -98.001 -35.5c-38 0 -66.833 11.833 -86.5 35.5
s-26.834 50.834 -21.501 81.501c4.66699 29.333 21.167 55.833 49.5 79.5s61.5 35.5 99.5 35.5c36.667 0 65 -11.833 85 -35.5zM1161.5 1760.5c19.667 -23.667 27.1641 -50.167 22.4971 -79.5c-5.33301 -30.667 -22.166 -57.834 -50.499 -81.501
s-61.166 -35.5 -98.499 -35.5s-66 11.833 -86 35.5s-27.333 50.834 -22 81.501c4.66699 29.333 21.334 55.833 50.001 79.5s61.667 35.5 99 35.5s65.833 -11.833 85.5 -35.5z" />
    <glyph glyph-name="alphatonos" unicode="&#x3ac;" horiz-adv-x="1234" 
d="M992 130c-119.333 -102.667 -251.999 -154 -397.999 -154c-144.667 0 -258.334 50.167 -341.001 150.5s-112 218.833 -88 355.5c24.667 138 96 257 214 357s249.333 150 394 150c146 0 260.667 -50.667 344 -152l60 77h178l-185 -457l24 -457h-179zM958.001 731
c-53.333 65.333 -124.668 97.999 -214.001 97.999c-90 0 -173.833 -33.333 -251.5 -100s-125.167 -149 -142.5 -247c-17.333 -97.333 1.16699 -179 55.5 -245s126.5 -99 216.5 -99c89.333 0 172 32 248 96c60 50.667 99.667 126.334 119 227.001
c22.667 126 12.334 216 -30.999 270zM1198 1279l-355 -238h-189l250 238h294z" />
    <glyph glyph-name="epsilontonos" unicode="&#x3ad;" horiz-adv-x="838" 
d="M816 268c-13.333 -74 -59.333 -137.335 -138 -190.002s-166.667 -79 -264 -79c-96.667 0 -175 26.333 -235 79s-83.333 116 -70 190l8 48h185l-8 -48c-6.66699 -35.333 4.16602 -65.166 32.499 -89.499s65.833 -36.5 112.5 -36.5c47.333 0 89.333 12.167 126 36.5
s58.334 54.166 65.001 89.499c6 35.333 -5 65 -33 89c-16.667 14.667 -34.334 24.334 -53.001 29.001h-236l28 156h259c10 4 23 11.333 39 22c36 24 57 53.333 63 88c6.66699 35.333 -4 65.333 -32 90s-65.667 37 -113 37c-46.667 0 -88.667 -12.333 -126 -37
c-31.333 -21.333 -55.666 -58.666 -72.999 -111.999h-184c25.333 94 73.666 164.667 144.999 212c78.667 52.667 166.334 79 263.001 79c97.333 0 176 -26.333 236 -79s83.333 -116 70 -190c-12.667 -72.667 -60 -136.667 -142 -192c62.667 -55.333 87.667 -119.333 75 -192
zM972 1269l-356 -238h-188l250 238h294z" />
    <glyph glyph-name="etatonos" unicode="&#x3ae;" horiz-adv-x="918" 
d="M391 682l-119.999 -682.001h-181l161 914h181c23.333 33.333 89.666 50 198.999 50c115.333 0 202.166 -35.333 260.499 -106s79.166 -157 62.499 -259l-162 -917h-180l160 909c11.333 62 -0.5 113.5 -35.5 154.5s-79.5 61.5 -133.5 61.5
c-53.333 0 -103.666 -19.333 -150.999 -58c-27.333 -23.333 -47.666 -45.666 -60.999 -66.999zM1030 1279l-356 -238h-189l250 238h295z" />
    <glyph glyph-name="iotatonos" unicode="&#x3af;" horiz-adv-x="470" 
d="M486 914l-161 -914h-180l161 914h180zM796 1279l-356 -238h-188l249 238h295z" />
    <glyph glyph-name="upsilondieresistonos" unicode="&#x3b0;" 
d="M481 -12c-121.333 0 -210.999 35.332 -268.999 105.999s-79 157.334 -63 260.001l99 561h181l-98 -554c-10.667 -61.333 2 -113.333 38 -156c33.333 -40.667 79.333 -61 138 -61c53.333 0 104.666 20.833 153.999 62.5s79.333 93.167 90 154.5l98 554h181l-99 -561
c-20 -102.667 -72 -190 -156 -262c-81.333 -69.333 -179.333 -104 -294 -104zM940.001 1269l-277 -238h-157l171 238h263zM1005 1186.5c16.667 -19 22.998 -39.833 18.998 -62.5c-4.66699 -24.667 -18.667 -46.5 -42 -65.5s-50 -28.5 -80 -28.5
c-31.333 0 -55.166 9.5 -71.499 28.5s-22.166 40.833 -17.499 65.5c4 22.667 17.5 43.5 40.5 62.5s50.167 28.5 81.5 28.5c30 0 53.333 -9.5 70 -28.5zM520.499 1186.5c16.333 -19 22.498 -39.833 18.498 -62.5c-4.66699 -24.667 -18.5 -46.5 -41.5 -65.5
s-49.833 -28.5 -80.5 -28.5c-31.333 0 -55.166 9.5 -71.499 28.5s-22.166 40.833 -17.499 65.5c4 22.667 17.5 43.5 40.5 62.5s50.167 28.5 81.5 28.5c30.667 0 54.167 -9.5 70.5 -28.5z" />
    <glyph glyph-name="alpha" unicode="&#x3b1;" horiz-adv-x="1234" 
d="M992 130c-119.333 -102.667 -251.999 -154 -397.999 -154c-144.667 0 -258.334 50.167 -341.001 150.5s-112 218.833 -88 355.5c24.667 138 96 257 214 357s249.333 150 394 150c146 0 260.667 -50.667 344 -152l60 77h178l-185 -457l24 -457h-179zM958.001 731
c-53.333 65.333 -124.668 97.999 -214.001 97.999c-90 0 -173.833 -33.333 -251.5 -100s-125.167 -149 -142.5 -247c-17.333 -97.333 1.16699 -179 55.5 -245s126.5 -99 216.5 -99c89.333 0 172 32 248 96c60 50.667 99.667 126.334 119 227.001
c22.667 126 12.334 216 -30.999 270z" />
    <glyph glyph-name="beta" unicode="&#x3b2;" horiz-adv-x="986" 
d="M494 142c73.333 0 141.83 27.168 205.497 81.501s102.834 122.166 117.501 203.499c14.667 82 -0.166016 152.667 -44.499 212s-118.5 99.333 -222.5 120l-58 3l27 154c46 0.666992 83 6.16699 111 16.5s62 33.333 102 69s64.333 78.167 73 127.5
c8.66699 50 -0.166016 90.667 -26.499 122s-60.166 47 -101.499 47c-38.667 0 -75.834 -16.667 -111.501 -50s-59.167 -82.333 -70.5 -147l-250 -1416h-181l251 1426c18 100 63.333 182.833 136 248.5s157.667 98.5 255 98.5c98 0 173.667 -33 227 -99
s72.333 -142.667 57 -230c-16 -88.667 -71.667 -181.667 -167 -279c22.667 -7.33301 58.667 -43 108 -107c68 -90.667 91.333 -196 70 -316c-21.333 -120.667 -83.833 -225 -187.5 -313s-219.834 -132 -348.501 -132c-43.333 0 -88.666 7.33301 -135.999 22l102 148
c24 -6.66699 45 -10 63 -10z" />
    <glyph glyph-name="gamma" unicode="&#x3b3;" horiz-adv-x="1004" 
d="M415 34l-214 880h198l152 -625l376 625h198l-525 -875l-63 -357h-184z" />
    <glyph glyph-name="delta" unicode="&#x3b4;" horiz-adv-x="1179" 
d="M342 482c-17.333 -97.333 1.16797 -179 55.501 -245s126.5 -99 216.5 -99c89.333 0 173 33 251 99s125.667 147.667 143 245c17.333 98 -1.33398 180.333 -56.001 247s-126.667 100 -216 100c-90 0 -173.833 -33.333 -251.5 -100s-125.167 -149 -142.5 -247zM1127 814
c68 -83.333 89.668 -194 65.001 -332c-24 -136.667 -94.5 -255.167 -211.5 -355.5s-248.5 -150.5 -394.5 -150.5c-144.667 0 -258.334 50.167 -341.001 150.5s-112 218.833 -88 355.5c24.667 138 95 256.333 211 355c104.667 88.667 211.667 139 321 151l-290 446h750
l-27 -156h-387c95.333 -174 167.5 -274 216.5 -300s107.5 -80.667 175.5 -164z" />
    <glyph glyph-name="epsilon" unicode="&#x3b5;" horiz-adv-x="838" 
d="M816 268c-13.333 -74 -59.333 -137.335 -138 -190.002s-166.667 -79 -264 -79c-96.667 0 -175 26.333 -235 79s-83.333 116 -70 190l8 48h185l-8 -48c-6.66699 -35.333 4.16602 -65.166 32.499 -89.499s65.833 -36.5 112.5 -36.5c47.333 0 89.333 12.167 126 36.5
s58.334 54.166 65.001 89.499c6 35.333 -5 65 -33 89c-16.667 14.667 -34.334 24.334 -53.001 29.001h-236l28 156h259c10 4 23 11.333 39 22c36 24 57 53.333 63 88c6.66699 35.333 -4 65.333 -32 90s-65.667 37 -113 37c-46.667 0 -88.667 -12.333 -126 -37
c-31.333 -21.333 -55.666 -58.666 -72.999 -111.999h-184c25.333 94 73.666 164.667 144.999 212c78.667 52.667 166.334 79 263.001 79c97.333 0 176 -26.333 236 -79s83.333 -116 70 -190c-12.667 -72.667 -60 -136.667 -142 -192c62.667 -55.333 87.667 -119.333 75 -192
z" />
    <glyph glyph-name="zeta" unicode="&#x3b6;" horiz-adv-x="866" 
d="M1126 1361c-412 -351.333 -662.667 -646.332 -752 -884.999c-14 -37.333 -23.667 -71.333 -29 -102c-26.667 -150 51.666 -228 234.999 -234c190.667 -6.66699 273 -82.334 247 -227.001c-45.333 -126 -148.666 -191.667 -309.999 -197l28 161
c61.333 0 96.333 16.667 105 50v4c6 34 -25.667 51 -95 51c-304.667 6 -435.334 132 -392.001 378c4.66699 28 12.334 57.333 23.001 88c86 281.333 297.333 559.333 634 834h-458l27 157h750z" />
    <glyph glyph-name="eta" unicode="&#x3b7;" horiz-adv-x="918" 
d="M391 682l-119.999 -682.001h-181l161 914h181c23.333 33.333 89.666 50 198.999 50c115.333 0 202.166 -35.333 260.499 -106s79.166 -157 62.499 -259l-162 -917h-180l160 909c11.333 62 -0.5 113.5 -35.5 154.5s-79.5 61.5 -133.5 61.5
c-53.333 0 -103.666 -19.333 -150.999 -58c-27.333 -23.333 -47.666 -45.666 -60.999 -66.999z" />
    <glyph glyph-name="theta" unicode="&#x3b8;" horiz-adv-x="1195" 
d="M1056 708c32.667 186 23.334 327.5 -27.999 424.5s-119.666 145.5 -204.999 145.5c-86 0 -171.5 -48.5 -256.5 -145.5s-143.833 -238.5 -176.5 -424.5c-33.333 -186.667 -24.5 -328.334 26.5 -425.001s119.5 -145 205.5 -145c85.333 0 170.666 48.333 255.999 145
s144.666 238.334 177.999 425.001zM1240 708c-39.333 -221.333 -119.833 -398.666 -241.5 -531.999s-256.5 -200 -404.5 -200c-148.667 0 -260.5 66.667 -335.5 200s-92.833 310.666 -53.5 531.999c38.667 220.667 119 397.667 241 531s257.333 200 406 200
c148 0 259.333 -66.667 334 -200s92.667 -310.333 54 -531zM523 787h426l-27 -157h-426z" />
    <glyph glyph-name="iota" unicode="&#x3b9;" horiz-adv-x="470" 
d="M486 914l-161 -914h-180l161 914h180z" />
    <glyph glyph-name="kappa" unicode="&#x3ba;" horiz-adv-x="843" 
d="M908 914l-292 -298l239 -616h-207l-177 476l-127 -118l-63 -358h-181l161 914h181l-51 -289l299 289h218z" />
    <glyph glyph-name="lambda" unicode="&#x3bb;" horiz-adv-x="966" 
d="M916 0h-195l-149 506l-327 -506h-195l462 720l-160 550h195z" />
    <glyph glyph-name="uni03BC" unicode="&#x3bc;" horiz-adv-x="957" 
d="M680 67c-25.333 -50 -95.333 -74.999 -210 -74.999c-107.333 0 -166.333 6.33301 -177 19l-58 -329h-181l217 1232h181l-115 -654c4.66699 -16.667 14.667 -34.334 30 -53.001c32.667 -38.667 76 -58 130 -58c53.333 0 104.333 20 153 60c32 27.333 55.667 57.333 71 90
l108 615h179l-161 -914h-179z" />
    <glyph glyph-name="nu" unicode="&#x3bd;" horiz-adv-x="946" 
d="M402 914l133 -548l330 548h198l-613 -1034l-246 1034h198z" />
    <glyph glyph-name="xi" unicode="&#x3be;" horiz-adv-x="964" 
d="M234.5 128.5c-74.333 77.667 -100.83 177.17 -79.4971 298.503c21.333 120 82 225.333 182 316c71.333 64 119.666 99.667 144.999 107c-64 83.333 -88 170.333 -72 261c50 217.333 209.667 326.333 479 327l261 2l-27 -151h-232c-169.333 0 -264 -57.333 -284 -172
l-1 -7c-8.66699 -48.667 -0.833984 -87.834 23.499 -117.501s61.166 -54.834 110.499 -75.501l311 -1l-27 -156l-301 2c-111.333 -22 -199.5 -62.833 -264.5 -122.5s-104.833 -130.5 -119.5 -212.5c-14 -80 2.16699 -143 48.5 -189s158.833 -79.333 337.5 -100
s255 -104.334 229 -251.001l-4 -23c-42 -98.667 -146.667 -155.667 -314 -171l31 175c67.333 0 103.333 10.333 108 31l1 4c8.66699 48.667 -60.833 79 -208.5 91s-258.667 56.833 -333 134.5z" />
    <glyph glyph-name="omicron" unicode="&#x3bf;" horiz-adv-x="1179" 
d="M765 989c146 0 259.834 -50 341.501 -150s110.167 -219 85.5 -357c-24 -136.667 -94.5 -255.167 -211.5 -355.5s-248.5 -150.5 -394.5 -150.5c-144.667 0 -258.334 50.167 -341.001 150.5s-112 218.833 -88 355.5c24.667 138 96 257 214 357s249.333 150 394 150z
M484.501 729c-77.667 -66.667 -125.166 -149 -142.499 -247c-17.333 -97.333 1.16699 -179 55.5 -245s126.5 -99 216.5 -99c89.333 0 173 33 251 99s125.667 147.667 143 245c17.333 98 -1.33398 180.333 -56.001 247s-126.667 100 -216 100
c-90 0 -173.833 -33.333 -251.5 -100z" />
    <glyph glyph-name="pi" unicode="&#x3c0;" horiz-adv-x="1179" 
d="M622 758l-134 -758h-180l134 758h-248l28 156h1059l-28 -156h-247l-134 -758h-180l134 758h-204z" />
    <glyph glyph-name="rho" unicode="&#x3c1;" horiz-adv-x="1176" 
d="M198 599c44 101.333 114.5 191.5 211.5 270.5s217.833 118.5 362.5 118.5c145.333 0 259.333 -49.833 342 -149.5s111.667 -218.5 87 -356.5c-24 -136.667 -94.833 -255.167 -212.5 -355.5s-249.167 -150.5 -394.5 -150.5s-246 44 -302 132l-75 -426h-181zM372 559
l-28 -153.999c0.666992 -64.667 21.667 -121.667 63 -171c54 -64.667 125.667 -97 215 -97s173 33.167 251 99.5s125.667 148.166 143 245.499c17.333 98 -1.33398 180.333 -56.001 247s-126.667 100 -216 100s-174 -34 -254 -102
c-55.333 -47.333 -94.666 -103.333 -117.999 -168z" />
    <glyph glyph-name="sigma1" unicode="&#x3c2;" horiz-adv-x="980" 
d="M275 133c-88 72.667 -121 170.663 -99 293.996c20.667 120 81 225 181 315c112.667 104 271.667 162.333 477 175l238 -1l-28 -156h-192c-158 -4.66699 -276 -41 -354 -109s-124 -142.667 -138 -224c-14 -78 8.66699 -139.167 68 -183.5s155 -82.166 287 -113.499
s188.333 -102.666 169 -213.999l-4 -22c-44 -112 -150 -175.667 -318 -191l31 174c66.667 0 103.667 16.667 111 50l1 4c4 20.667 -44.667 41.334 -146 62.001s-196 67.334 -284 140.001z" />
    <glyph glyph-name="sigma" unicode="&#x3c3;" horiz-adv-x="1259" 
d="M352 482c-17.333 -97.333 1.16797 -179 55.501 -245s126.5 -99 216.5 -99c89.333 0 173 33 251 99s125.667 147.667 143 245c17.333 98 -1.33398 180.333 -56.001 247s-126.667 100 -216 100c-90 0 -173.833 -33.333 -251.5 -100s-125.167 -149 -142.5 -247zM1178 758
c39.333 -53.333 47.333 -145.333 24 -276c-24 -136.667 -94.5 -255.167 -211.5 -355.5s-248.5 -150.5 -394.5 -150.5c-144.667 0 -258.334 50.167 -341.001 150.5s-112 218.833 -88 355.5c24.667 138 96 257 214 357s249.333 150 394 150c108.667 0 195.334 -25 260.001 -75
h315l-27 -156h-145z" />
    <glyph glyph-name="tau" unicode="&#x3c4;" horiz-adv-x="991" 
d="M720 758l-134 -758h-180l134 758h-344l28 156h867l-28 -156h-343z" />
    <glyph glyph-name="upsilon" unicode="&#x3c5;" 
d="M481 -12c-121.333 0 -210.999 35.332 -268.999 105.999s-79 157.334 -63 260.001l99 561h181l-98 -554c-10.667 -61.333 2 -113.333 38 -156c33.333 -40.667 79.333 -61 138 -61c53.333 0 104.666 20.833 153.999 62.5s79.333 93.167 90 154.5l98 554h181l-99 -561
c-20 -102.667 -72 -190 -156 -262c-81.333 -69.333 -179.333 -104 -294 -104z" />
    <glyph glyph-name="phi" unicode="&#x3c6;" horiz-adv-x="1196" 
d="M516 -12c-99.333 6 -187.333 56.001 -264 150.001c-81.333 98 -110 215.667 -86 353c24.667 138 95 256 211 354c38.667 34 91.334 69 158.001 105l29 -160c-30.667 -22 -54 -40 -70 -54c-77.333 -66 -124.666 -147.667 -141.999 -245c-17.333 -98 2 -180.667 58 -248
c51.333 -63.333 94 -95 128 -95l119 677c28.667 85.333 88 128 178 128c49.333 0 107.666 -16.333 174.999 -49c162.667 -79.333 226.667 -217 192 -413c-24 -136.667 -93.667 -254.334 -209 -353.001c-104.667 -89.333 -203.334 -138.333 -296.001 -147l-53 -304h-181z
M723 174.001c56 8.66699 105.333 31.333 148 68c80.667 68 129.667 151 147 249c21.333 118.667 -11.667 206 -99 262c-36 22.667 -62 34 -78 34c-3.33301 0 -6.33301 -0.333008 -9 -1z" />
    <glyph glyph-name="chi" unicode="&#x3c7;" horiz-adv-x="1095" 
d="M579 175l-384 -488h-200l512 653l-248 574h201l177 -408l320 408h201l-450 -574l282 -653h-200z" />
    <glyph glyph-name="psi" unicode="&#x3c8;" horiz-adv-x="1231" 
d="M707 -11l-52 -293h-187l52 293c-96 6.66699 -182 56.334 -258 149.001c-81.333 98 -110 215.667 -86 353l75 424h186l-75 -424c-17.333 -98 2 -180.667 58 -248c51.333 -63.333 94 -95 128 -95l135 767h187l-135 -767c34 0 88 31.667 162 95
c78.667 67.333 126.667 150 144 248l75 424h186l-75 -424c-24 -137.333 -94.333 -255 -211 -353c-108 -92.667 -211 -142.334 -309 -149.001z" />
    <glyph glyph-name="omega" unicode="&#x3c9;" horiz-adv-x="1415" 
d="M651 189l93.999 530h180l-94 -530c26.667 -41.333 71.334 -62 134.001 -62c66 0 124 28.5 174 85.5s87 154.833 111 293.5c22.667 126 9 241.333 -41 346l11 62h160c58.667 -143.333 76.667 -279.333 54 -408c-29.333 -167.333 -85 -297.5 -167 -390.5
s-188 -139.5 -318 -139.5s-206.667 27.333 -230 82c-42.667 -54.667 -129 -82 -259 -82s-220 46.5 -270 139.5s-60.333 223.167 -31 390.5c23.333 130.667 92 266.667 206 408h161l-10 -58c-90 -96 -147.333 -212.667 -172 -350c-24 -138.667 -21.5 -236.5 7.5 -293.5
s76.5 -85.5 142.5 -85.5c62.667 0 115 20.667 157 62z" />
    <glyph glyph-name="iotadieresis" unicode="&#x3ca;" horiz-adv-x="470" 
d="M486 914l-161 -914h-180l161 914h180zM402.5 1235.5c20.333 -23.667 27.835 -50.167 22.502 -79.5c-5.33301 -30.667 -22.333 -57.834 -51 -81.501s-61.334 -35.5 -98.001 -35.5c-38 0 -66.833 11.833 -86.5 35.5s-26.834 50.834 -21.501 81.501
c5.33301 29.333 22 55.833 50 79.5s61 35.5 99 35.5c36.667 0 65.167 -11.833 85.5 -35.5zM687.002 1235.5c20 -23.667 27.333 -50.167 22 -79.5c-5.33301 -30.667 -22.166 -57.834 -50.499 -81.501s-61.166 -35.5 -98.499 -35.5s-66 11.833 -86 35.5
s-27.333 50.834 -22 81.501c5.33301 29.333 22.166 55.833 50.499 79.5s61.166 35.5 98.499 35.5s66 -11.833 86 -35.5z" />
    <glyph glyph-name="upsilondieresis" unicode="&#x3cb;" 
d="M481 -12c-121.333 0 -210.999 35.332 -268.999 105.999s-79 157.334 -63 260.001l99 561h181l-98 -554c-10.667 -61.333 2 -113.333 38 -156c33.333 -40.667 79.333 -61 138 -61c53.333 0 104.666 20.833 153.999 62.5s79.333 93.167 90 154.5l98 554h181l-99 -561
c-20 -102.667 -72 -190 -156 -262c-81.333 -69.333 -179.333 -104 -294 -104zM645.001 1235.5c20 -23.667 27.667 -50.167 23 -79.5c-6 -30.667 -23.167 -57.834 -51.5 -81.501s-60.833 -35.5 -97.5 -35.5c-38 0 -67 11.833 -87 35.5s-27 50.834 -21 81.501
c4.66699 29.333 21.167 55.833 49.5 79.5s61.5 35.5 99.5 35.5c36.667 0 65 -11.833 85 -35.5zM929.501 1235.5c19.667 -23.667 27.165 -50.167 22.498 -79.5c-6 -30.667 -23 -57.834 -51 -81.501s-60.667 -35.5 -98 -35.5s-66.166 11.833 -86.499 35.5
s-27.5 50.834 -21.5 81.501c4.66699 29.333 21.334 55.833 50.001 79.5s61.667 35.5 99 35.5s65.833 -11.833 85.5 -35.5z" />
    </font>
</defs>
</svg>
